<?xml version="1.0" encoding="utf-8" standalone="no"?>
<!DOCTYPE svg PUBLIC "-//W3C//DTD SVG 1.1//EN"
  "http://www.w3.org/Graphics/SVG/1.1/DTD/svg11.dtd">
<svg xmlns:xlink="http://www.w3.org/1999/xlink" width="504pt" height="396pt" viewBox="0 0 504 396" xmlns="http://www.w3.org/2000/svg" version="1.1">
 <metadata>
  <rdf:RDF xmlns:dc="http://purl.org/dc/elements/1.1/" xmlns:cc="http://creativecommons.org/ns#" xmlns:rdf="http://www.w3.org/1999/02/22-rdf-syntax-ns#">
   <cc:Work>
    <dc:type rdf:resource="http://purl.org/dc/dcmitype/StillImage"/>
    <dc:date>2024-05-10T12:13:56.028704</dc:date>
    <dc:format>image/svg+xml</dc:format>
    <dc:creator>
     <cc:Agent>
      <dc:title>Matplotlib v3.8.2, https://matplotlib.org/</dc:title>
     </cc:Agent>
    </dc:creator>
   </cc:Work>
  </rdf:RDF>
 </metadata>
 <defs>
  <style type="text/css">*{stroke-linejoin: round; stroke-linecap: butt}</style>
 </defs>
 <g id="figure_1">
  <g id="patch_1">
   <path d="M 0 396 
L 504 396 
L 504 0 
L 0 0 
z
" style="fill: #ffffff"/>
  </g>
  <g id="axes_1">
   <g id="patch_2">
    <path d="M 63 352.44 
L 453.6 352.44 
L 453.6 47.52 
L 63 47.52 
z
" style="fill: #ffffff"/>
   </g>
   <g id="PolyCollection_1">
    <path d="M 80.754545 291.096371 
L 80.754545 305.821033 
L 84.396347 299.389149 
L 87.830565 299.389149 
L 91.472366 299.389149 
L 94.862883 157.38653 
L 98.504684 234.686175 
L 102.011739 338.58 
L 105.577062 147.135678 
L 108.902027 299.389149 
L 112.41855 299.389149 
L 115.988972 299.389149 
L 119.630773 124.631762 
L 123.116705 117.055271 
L 126.72573 101.45998 
L 130.367531 120.789976 
L 134.009332 332.774258 
L 137.537509 151.535976 
L 141.04165 166.919606 
L 144.683451 121.100478 
L 148.317969 167.791479 
L 151.95977 135.315383 
L 155.588461 299.389149 
L 159.230262 153.825603 
L 162.872063 215.80035 
L 166.513864 121.378845 
L 170.155666 299.389149 
L 173.797467 200.433319 
L 177.439268 299.389149 
L 181.016245 299.389149 
L 184.658046 113.607006 
L 188.173113 299.389149 
L 191.676525 299.389149 
L 195.198875 173.336183 
L 198.783136 206.561424 
L 202.424937 161.36718 
L 206.066738 326.214309 
L 209.699799 171.504375 
L 213.215594 299.389149 
L 216.831174 210.671996 
L 220.472975 338.381055 
L 224.048496 112.400869 
L 227.690297 213.760903 
L 231.311704 299.389149 
L 234.793266 102.217062 
L 238.435067 218.931763 
L 242.022241 119.140662 
L 245.575911 214.933862 
L 249.217712 285.348358 
L 252.843489 125.454625 
L 256.418281 156.818011 
L 259.953742 214.411693 
L 263.529991 217.56628 
L 267.166693 190.275124 
L 270.808494 117.962831 
L 274.360707 105.768478 
L 278.002508 232.666428 
L 281.64431 201.433432 
L 285.264988 319.484157 
L 288.774228 112.473904 
L 292.341008 100.627355 
L 295.971155 299.389149 
L 299.539392 176.898049 
L 303.085778 134.934186 
L 306.71374 198.445365 
L 310.324951 115.680573 
L 313.898286 102.300171 
L 317.52989 128.019001 
L 321.171691 150.352744 
L 324.766877 166.812816 
L 328.338756 155.128528 
L 331.911363 130.364262 
L 335.517474 155.594431 
L 339.159275 120.639341 
L 342.696193 184.198291 
L 346.332167 138.147395 
L 349.928081 299.389149 
L 353.569883 299.389149 
L 357.19129 249.061601 
L 360.789389 299.389149 
L 364.43119 299.389149 
L 368.072992 228.373734 
L 371.69804 337.381218 
L 375.311436 299.389149 
L 378.953237 299.389149 
L 382.462476 116.31961 
L 386.104278 143.525311 
L 389.746079 147.002039 
L 393.29902 299.389149 
L 396.940821 158.198344 
L 400.582622 225.331218 
L 404.207671 112.810947 
L 407.849472 142.862825 
L 411.357984 299.389149 
L 414.81988 163.16961 
L 418.316009 299.389149 
L 421.892986 299.389149 
L 425.503468 299.389149 
L 428.993041 301.216531 
L 432.459308 105.174779 
L 435.845455 238.101131 
L 435.845455 76.486415 
L 435.845455 76.486415 
L 432.459308 85.430759 
L 428.993041 296.783023 
L 425.503468 299.389149 
L 421.892986 299.389149 
L 418.316009 299.389149 
L 414.81988 83.768402 
L 411.357984 299.389149 
L 407.849472 106.886753 
L 404.207671 95.614667 
L 400.582622 89.741779 
L 396.940821 114.751717 
L 393.29902 299.389149 
L 389.746079 107.773974 
L 386.104278 116.63111 
L 382.462476 85.006291 
L 378.953237 299.389149 
L 375.311436 299.389149 
L 371.69804 199.916809 
L 368.072992 93.262957 
L 364.43119 299.389149 
L 360.789389 299.389149 
L 357.19129 190.691238 
L 353.569883 299.389149 
L 349.928081 299.389149 
L 346.332167 85.215931 
L 342.696193 80.721611 
L 339.159275 69.066091 
L 335.517474 97.86682 
L 331.911363 89.671707 
L 328.338756 125.27522 
L 324.766877 118.556684 
L 321.171691 61.38 
L 317.52989 91.531518 
L 313.898286 88.699796 
L 310.324951 85.352035 
L 306.71374 88.694007 
L 303.085778 82.866688 
L 299.539392 75.683323 
L 295.971155 299.389149 
L 292.341008 79.237594 
L 288.774228 84.280673 
L 285.264988 215.538322 
L 281.64431 108.4412 
L 278.002508 109.470428 
L 274.360707 78.718363 
L 270.808494 84.374425 
L 267.166693 144.256343 
L 263.529991 154.15271 
L 259.953742 76.611282 
L 256.418281 117.932262 
L 252.843489 92.831699 
L 249.217712 129.454353 
L 245.575911 102.151731 
L 242.022241 92.855034 
L 238.435067 82.42726 
L 234.793266 85.546569 
L 231.311704 299.389149 
L 227.690297 106.652048 
L 224.048496 85.112225 
L 220.472975 197.278578 
L 216.831174 81.594946 
L 213.215594 299.389149 
L 209.699799 138.167986 
L 206.066738 170.993606 
L 202.424937 99.24435 
L 198.783136 88.699128 
L 195.198875 141.858176 
L 191.676525 299.389149 
L 188.173113 299.389149 
L 184.658046 96.285072 
L 181.016245 299.389149 
L 177.439268 299.389149 
L 173.797467 160.909169 
L 170.155666 299.389149 
L 166.513864 99.698819 
L 162.872063 182.901591 
L 159.230262 112.641673 
L 155.588461 299.389149 
L 151.95977 97.716497 
L 148.317969 88.036343 
L 144.683451 71.062547 
L 141.04165 70.370079 
L 137.537509 63.483671 
L 134.009332 214.070961 
L 130.367531 101.14734 
L 126.72573 84.958549 
L 123.116705 91.582727 
L 119.630773 100.491322 
L 115.988972 299.389149 
L 112.41855 299.389149 
L 108.902027 299.389149 
L 105.577062 100.641758 
L 102.011739 196.482933 
L 98.504684 107.400113 
L 94.862883 128.195356 
L 91.472366 299.389149 
L 87.830565 299.389149 
L 84.396347 299.389149 
L 80.754545 291.096371 
z
" clip-path="url(#p1287de3bdd)" style="fill: #1f77b4; fill-opacity: 0.1"/>
   </g>
   <g id="PolyCollection_2">
    <path d="M 80.754545 299.389149 
L 80.754545 299.389149 
L 84.308215 267.814914 
L 87.950016 299.389149 
L 91.591817 299.389149 
L 95.233619 299.389149 
L 98.754512 143.203432 
L 101.946915 295.27758 
L 105.349814 268.383824 
L 108.644915 211.599248 
L 112.20077 299.389149 
L 115.50097 307.309211 
L 118.662054 299.389149 
L 122.247043 221.747917 
L 125.888844 299.389149 
L 129.385701 312.850404 
L 132.718678 299.389149 
L 136.056753 299.389149 
L 139.698554 299.389149 
L 143.267519 244.488766 
L 146.060052 130.120658 
L 149.035404 329.971696 
L 152.436846 299.389149 
L 156.078647 299.389149 
L 159.499755 337.775861 
L 162.533376 299.389149 
L 166.175177 299.389149 
L 169.672763 215.020178 
L 172.654669 143.454606 
L 175.56374 148.915575 
L 178.808585 299.389149 
L 182.450386 313.102026 
L 185.585249 310.15863 
L 188.225555 299.389149 
L 191.600047 299.389149 
L 195.18358 313.812076 
L 198.270371 151.644204 
L 200.529016 335.041522 
L 203.350683 299.389149 
L 206.870848 317.214625 
L 210.173233 272.79499 
L 212.032009 118.242317 
L 215.000077 299.389149 
L 218.202677 151.667551 
L 221.111747 299.389149 
L 224.102395 203.170185 
L 227.498738 311.717554 
L 230.821518 299.389149 
L 234.124631 151.480378 
L 236.362154 139.567279 
L 239.030866 299.389149 
L 242.672667 139.619575 
L 245.46957 177.24232 
L 248.122258 145.552927 
L 251.571044 299.389149 
L 255.212845 310.136128 
L 257.786142 242.758408 
L 260.186817 169.569712 
L 263.378492 299.389149 
L 266.969308 299.389149 
L 270.092516 317.161203 
L 271.864617 299.389149 
L 274.716147 299.389149 
L 278.357948 299.389149 
L 281.551808 119.682605 
L 283.42515 283.291655 
L 286.774151 299.389149 
L 290.415952 299.389149 
L 293.090491 299.389149 
L 296.287264 187.703143 
L 298.17663 320.8495 
L 301.509607 299.389149 
L 304.836028 299.389149 
L 308.255679 299.389149 
L 311.029275 317.978104 
L 313.418296 317.751113 
L 317.060098 299.389149 
L 320.676406 299.389149 
L 323.805442 286.219402 
L 325.996349 141.556475 
L 328.086743 119.292083 
L 331.155325 299.389149 
L 334.357925 279.098998 
L 336.728737 133.36181 
L 339.979409 299.389149 
L 343.208958 267.222602 
L 345.777885 329.580622 
L 348.251396 287.135517 
L 351.6878 299.389149 
L 355.312849 307.308632 
L 358.37269 169.495673 
L 360.361113 121.687707 
L 363.369241 299.389149 
L 366.903245 270.213153 
L 370.202717 132.252912 
L 372.638354 304.58697 
L 375.618075 285.533372 
L 378.634943 299.389149 
L 382.276744 169.767333 
L 385.34824 231.429599 
L 387.777321 312.283879 
L 387.777321 268.461959 
L 387.777321 268.461959 
L 385.34824 145.295597 
L 382.276744 122.014159 
L 378.634943 299.389149 
L 375.618075 165.819709 
L 372.638354 235.613646 
L 370.202717 88.066236 
L 366.903245 171.036492 
L 363.369241 299.389149 
L 360.361113 81.104659 
L 358.37269 130.629497 
L 355.312849 289.305365 
L 351.6878 299.389149 
L 348.251396 148.571902 
L 345.777885 185.406914 
L 343.208958 117.947408 
L 339.979409 299.389149 
L 336.728737 84.459292 
L 334.357925 198.45829 
L 331.155325 299.389149 
L 328.086743 95.323023 
L 325.996349 113.280219 
L 323.805442 207.297069 
L 320.676406 299.389149 
L 317.060098 299.389149 
L 313.418296 260.041568 
L 311.029275 270.747324 
L 308.255679 299.389149 
L 304.836028 299.389149 
L 301.509607 299.389149 
L 298.17663 160.631846 
L 296.287264 132.042314 
L 293.090491 299.389149 
L 290.415952 299.389149 
L 286.774151 299.389149 
L 283.42515 104.224699 
L 281.551808 102.487322 
L 278.357948 299.389149 
L 274.716147 299.389149 
L 271.864617 299.389149 
L 270.092516 208.212949 
L 266.969308 299.389149 
L 263.378492 299.389149 
L 260.186817 114.656958 
L 257.786142 106.103959 
L 255.212845 274.776492 
L 251.571044 299.389149 
L 248.122258 112.064993 
L 245.46957 103.656991 
L 242.672667 105.58902 
L 239.030866 299.389149 
L 236.362154 70.607979 
L 234.124631 104.843007 
L 230.821518 299.389149 
L 227.498738 264.194007 
L 224.102395 133.444673 
L 221.111747 299.389149 
L 218.202677 117.955152 
L 215.000077 299.389149 
L 212.032009 87.927974 
L 210.173233 195.983738 
L 206.870848 221.762252 
L 203.350683 299.389149 
L 200.529016 198.099837 
L 198.270371 113.235244 
L 195.18358 280.253306 
L 191.600047 299.389149 
L 188.225555 299.389149 
L 185.585249 277.302605 
L 182.450386 264.033275 
L 178.808585 299.389149 
L 175.56374 112.110612 
L 172.654669 83.549599 
L 169.672763 155.019962 
L 166.175177 299.389149 
L 162.533376 299.389149 
L 159.499755 207.501757 
L 156.078647 299.389149 
L 152.436846 299.389149 
L 149.035404 236.35222 
L 146.060052 84.332631 
L 143.267519 160.079034 
L 139.698554 299.389149 
L 136.056753 299.389149 
L 132.718678 299.389149 
L 129.385701 264.547849 
L 125.888844 299.389149 
L 122.247043 156.069543 
L 118.662054 299.389149 
L 115.50097 289.699215 
L 112.20077 299.389149 
L 108.644915 74.387179 
L 105.349814 130.024823 
L 101.946915 120.162285 
L 98.754512 104.887524 
L 95.233619 299.389149 
L 91.591817 299.389149 
L 87.950016 299.389149 
L 84.308215 149.566753 
L 80.754545 299.389149 
z
" clip-path="url(#p1287de3bdd)" style="fill: #ff7f0e; fill-opacity: 0.1"/>
   </g>
   <g id="PolyCollection_3">
    <path d="M 80.754545 299.389149 
L 80.754545 299.389149 
L 84.396347 299.389149 
L 88.038148 184.943458 
L 91.679949 299.389149 
L 95.156412 299.389149 
L 98.61321 299.389149 
L 101.809255 299.389149 
L 105.451056 299.389149 
L 109.079018 308.18293 
L 112.654539 299.389149 
L 115.825819 310.012587 
L 119.406438 146.540275 
L 123.031487 299.389149 
L 126.548738 269.325496 
L 129.760807 299.389149 
L 133.401151 299.389149 
L 137.042953 220.055583 
L 140.568944 299.389149 
L 144.084011 299.389149 
L 147.725812 299.389149 
L 151.275112 299.389149 
L 154.916913 307.329686 
L 158.503359 299.389149 
L 162.050473 299.389149 
L 165.692274 299.389149 
L 168.983006 299.389149 
L 172.624807 299.389149 
L 176.266608 299.389149 
L 179.78823 299.389149 
L 183.009039 299.389149 
L 185.953799 299.389149 
L 189.454298 299.389149 
L 192.96718 299.389149 
L 196.490986 299.389149 
L 199.801384 299.389149 
L 203.344856 299.389149 
L 206.591158 304.020656 
L 209.697614 299.389149 
L 212.854327 299.389149 
L 216.319865 299.389149 
L 218.936135 299.389149 
L 221.398721 330.357498 
L 224.858432 299.389149 
L 228.500234 299.389149 
L 231.74435 299.389149 
L 234.788896 299.389149 
L 237.738755 138.020385 
L 240.63253 165.246604 
L 243.881745 139.157322 
L 246.728177 309.653511 
L 249.454429 229.290708 
L 252.227297 168.449364 
L 255.062803 299.389149 
L 258.51086 299.389149 
L 261.528457 299.389149 
L 264.74271 299.389149 
L 267.282503 299.389149 
L 270.603097 299.389149 
L 273.660753 299.389149 
L 276.965324 299.389149 
L 280.404641 299.389149 
L 283.312983 311.565271 
L 286.344418 209.569788 
L 289.709443 299.389149 
L 292.632352 245.593485 
L 295.861901 299.389149 
L 299.089266 299.389149 
L 302.269286 299.389149 
L 305.497379 163.171412 
L 308.036443 299.389149 
L 311.29367 299.389149 
L 314.608437 299.389149 
L 317.58743 311.068628 
L 320.796586 238.737232 
L 324.017395 299.389149 
L 327.248401 299.389149 
L 329.978295 299.389149 
L 333.580036 299.389149 
L 337.221837 303.69286 
L 340.299159 299.389149 
L 343.659085 172.542768 
L 346.557959 299.389149 
L 350.050446 299.389149 
L 353.457715 299.389149 
L 356.917426 276.620208 
L 360.216898 299.389149 
L 363.764741 304.842678 
L 366.328569 299.389149 
L 369.146595 337.433995 
L 372.153266 315.717168 
L 375.005524 285.151411 
L 378.176805 330.893539 
L 381.410724 299.389149 
L 384.507712 299.389149 
L 387.703757 299.389149 
L 390.768696 299.389149 
L 393.989505 299.389149 
L 396.789322 113.552102 
L 399.841152 299.389149 
L 402.979656 299.389149 
L 402.979656 299.389149 
L 402.979656 299.389149 
L 399.841152 299.389149 
L 396.789322 95.004988 
L 393.989505 299.389149 
L 390.768696 299.389149 
L 387.703757 299.389149 
L 384.507712 299.389149 
L 381.410724 299.389149 
L 378.176805 184.013089 
L 375.005524 206.018716 
L 372.153266 254.025128 
L 369.146595 189.17401 
L 366.328569 299.389149 
L 363.764741 292.661312 
L 360.216898 299.389149 
L 356.917426 231.429433 
L 353.457715 299.389149 
L 350.050446 299.389149 
L 346.557959 299.389149 
L 343.659085 106.546218 
L 340.299159 299.389149 
L 337.221837 291.626603 
L 333.580036 299.389149 
L 329.978295 299.389149 
L 327.248401 299.389149 
L 324.017395 299.389149 
L 320.796586 188.424238 
L 317.58743 254.163024 
L 314.608437 299.389149 
L 311.29367 299.389149 
L 308.036443 299.389149 
L 305.497379 129.621434 
L 302.269286 299.389149 
L 299.089266 299.389149 
L 295.861901 299.389149 
L 292.632352 107.314302 
L 289.709443 299.389149 
L 286.344418 153.68416 
L 283.312983 256.953285 
L 280.404641 299.389149 
L 276.965324 299.389149 
L 273.660753 299.389149 
L 270.603097 299.389149 
L 267.282503 299.389149 
L 264.74271 299.389149 
L 261.528457 299.389149 
L 258.51086 299.389149 
L 255.062803 299.389149 
L 252.227297 101.881288 
L 249.454429 123.829463 
L 246.728177 286.333446 
L 243.881745 86.825414 
L 240.63253 120.041988 
L 237.738755 85.160897 
L 234.788896 299.389149 
L 231.74435 299.389149 
L 228.500234 299.389149 
L 224.858432 299.389149 
L 221.398721 242.570566 
L 218.936135 299.389149 
L 216.319865 299.389149 
L 212.854327 299.389149 
L 209.697614 299.389149 
L 206.591158 292.937202 
L 203.344856 299.389149 
L 199.801384 299.389149 
L 196.490986 299.389149 
L 192.96718 299.389149 
L 189.454298 299.389149 
L 185.953799 299.389149 
L 183.009039 299.389149 
L 179.78823 299.389149 
L 176.266608 299.389149 
L 172.624807 299.389149 
L 168.983006 299.389149 
L 165.692274 299.389149 
L 162.050473 299.389149 
L 158.503359 299.389149 
L 154.916913 284.915258 
L 151.275112 299.389149 
L 147.725812 299.389149 
L 144.084011 299.389149 
L 140.568944 299.389149 
L 137.042953 144.20972 
L 133.401151 299.389149 
L 129.760807 299.389149 
L 126.548738 102.221563 
L 123.031487 299.389149 
L 119.406438 122.404821 
L 115.825819 274.920261 
L 112.654539 299.389149 
L 109.079018 288.006299 
L 105.451056 299.389149 
L 101.809255 299.389149 
L 98.61321 299.389149 
L 95.156412 299.389149 
L 91.679949 299.389149 
L 88.038148 127.358426 
L 84.396347 299.389149 
L 80.754545 299.389149 
z
" clip-path="url(#p1287de3bdd)" style="fill: #2ca02c; fill-opacity: 0.1"/>
   </g>
   <g id="matplotlib.axis_1">
    <g id="xtick_1">
     <g id="line2d_1">
      <defs>
       <path id="mf2661a5a75" d="M 0 0 
L 0 3.5 
" style="stroke: #000000; stroke-width: 0.8"/>
      </defs>
      <g>
       <use xlink:href="#mf2661a5a75" x="80.754545" y="352.44" style="stroke: #000000; stroke-width: 0.8"/>
      </g>
     </g>
     <g id="text_1">
      <!-- 0 -->
      <g transform="translate(77.573295 367.038437) scale(0.1 -0.1)">
       <defs>
        <path id="DejaVuSans-30" d="M 2034 4250 
Q 1547 4250 1301 3770 
Q 1056 3291 1056 2328 
Q 1056 1369 1301 889 
Q 1547 409 2034 409 
Q 2525 409 2770 889 
Q 3016 1369 3016 2328 
Q 3016 3291 2770 3770 
Q 2525 4250 2034 4250 
z
M 2034 4750 
Q 2819 4750 3233 4129 
Q 3647 3509 3647 2328 
Q 3647 1150 3233 529 
Q 2819 -91 2034 -91 
Q 1250 -91 836 529 
Q 422 1150 422 2328 
Q 422 3509 836 4129 
Q 1250 4750 2034 4750 
z
" transform="scale(0.015625)"/>
       </defs>
       <use xlink:href="#DejaVuSans-30"/>
      </g>
     </g>
    </g>
    <g id="xtick_2">
     <g id="line2d_2">
      <g>
       <use xlink:href="#mf2661a5a75" x="153.590569" y="352.44" style="stroke: #000000; stroke-width: 0.8"/>
      </g>
     </g>
     <g id="text_2">
      <!-- 100000 -->
      <g transform="translate(134.503069 367.038437) scale(0.1 -0.1)">
       <defs>
        <path id="DejaVuSans-31" d="M 794 531 
L 1825 531 
L 1825 4091 
L 703 3866 
L 703 4441 
L 1819 4666 
L 2450 4666 
L 2450 531 
L 3481 531 
L 3481 0 
L 794 0 
L 794 531 
z
" transform="scale(0.015625)"/>
       </defs>
       <use xlink:href="#DejaVuSans-31"/>
       <use xlink:href="#DejaVuSans-30" x="63.623047"/>
       <use xlink:href="#DejaVuSans-30" x="127.246094"/>
       <use xlink:href="#DejaVuSans-30" x="190.869141"/>
       <use xlink:href="#DejaVuSans-30" x="254.492188"/>
       <use xlink:href="#DejaVuSans-30" x="318.115234"/>
      </g>
     </g>
    </g>
    <g id="xtick_3">
     <g id="line2d_3">
      <g>
       <use xlink:href="#mf2661a5a75" x="226.426592" y="352.44" style="stroke: #000000; stroke-width: 0.8"/>
      </g>
     </g>
     <g id="text_3">
      <!-- 200000 -->
      <g transform="translate(207.339092 367.038437) scale(0.1 -0.1)">
       <defs>
        <path id="DejaVuSans-32" d="M 1228 531 
L 3431 531 
L 3431 0 
L 469 0 
L 469 531 
Q 828 903 1448 1529 
Q 2069 2156 2228 2338 
Q 2531 2678 2651 2914 
Q 2772 3150 2772 3378 
Q 2772 3750 2511 3984 
Q 2250 4219 1831 4219 
Q 1534 4219 1204 4116 
Q 875 4013 500 3803 
L 500 4441 
Q 881 4594 1212 4672 
Q 1544 4750 1819 4750 
Q 2544 4750 2975 4387 
Q 3406 4025 3406 3419 
Q 3406 3131 3298 2873 
Q 3191 2616 2906 2266 
Q 2828 2175 2409 1742 
Q 1991 1309 1228 531 
z
" transform="scale(0.015625)"/>
       </defs>
       <use xlink:href="#DejaVuSans-32"/>
       <use xlink:href="#DejaVuSans-30" x="63.623047"/>
       <use xlink:href="#DejaVuSans-30" x="127.246094"/>
       <use xlink:href="#DejaVuSans-30" x="190.869141"/>
       <use xlink:href="#DejaVuSans-30" x="254.492188"/>
       <use xlink:href="#DejaVuSans-30" x="318.115234"/>
      </g>
     </g>
    </g>
    <g id="xtick_4">
     <g id="line2d_4">
      <g>
       <use xlink:href="#mf2661a5a75" x="299.262615" y="352.44" style="stroke: #000000; stroke-width: 0.8"/>
      </g>
     </g>
     <g id="text_4">
      <!-- 300000 -->
      <g transform="translate(280.175115 367.038437) scale(0.1 -0.1)">
       <defs>
        <path id="DejaVuSans-33" d="M 2597 2516 
Q 3050 2419 3304 2112 
Q 3559 1806 3559 1356 
Q 3559 666 3084 287 
Q 2609 -91 1734 -91 
Q 1441 -91 1130 -33 
Q 819 25 488 141 
L 488 750 
Q 750 597 1062 519 
Q 1375 441 1716 441 
Q 2309 441 2620 675 
Q 2931 909 2931 1356 
Q 2931 1769 2642 2001 
Q 2353 2234 1838 2234 
L 1294 2234 
L 1294 2753 
L 1863 2753 
Q 2328 2753 2575 2939 
Q 2822 3125 2822 3475 
Q 2822 3834 2567 4026 
Q 2313 4219 1838 4219 
Q 1578 4219 1281 4162 
Q 984 4106 628 3988 
L 628 4550 
Q 988 4650 1302 4700 
Q 1616 4750 1894 4750 
Q 2613 4750 3031 4423 
Q 3450 4097 3450 3541 
Q 3450 3153 3228 2886 
Q 3006 2619 2597 2516 
z
" transform="scale(0.015625)"/>
       </defs>
       <use xlink:href="#DejaVuSans-33"/>
       <use xlink:href="#DejaVuSans-30" x="63.623047"/>
       <use xlink:href="#DejaVuSans-30" x="127.246094"/>
       <use xlink:href="#DejaVuSans-30" x="190.869141"/>
       <use xlink:href="#DejaVuSans-30" x="254.492188"/>
       <use xlink:href="#DejaVuSans-30" x="318.115234"/>
      </g>
     </g>
    </g>
    <g id="xtick_5">
     <g id="line2d_5">
      <g>
       <use xlink:href="#mf2661a5a75" x="372.098639" y="352.44" style="stroke: #000000; stroke-width: 0.8"/>
      </g>
     </g>
     <g id="text_5">
      <!-- 400000 -->
      <g transform="translate(353.011139 367.038437) scale(0.1 -0.1)">
       <defs>
        <path id="DejaVuSans-34" d="M 2419 4116 
L 825 1625 
L 2419 1625 
L 2419 4116 
z
M 2253 4666 
L 3047 4666 
L 3047 1625 
L 3713 1625 
L 3713 1100 
L 3047 1100 
L 3047 0 
L 2419 0 
L 2419 1100 
L 313 1100 
L 313 1709 
L 2253 4666 
z
" transform="scale(0.015625)"/>
       </defs>
       <use xlink:href="#DejaVuSans-34"/>
       <use xlink:href="#DejaVuSans-30" x="63.623047"/>
       <use xlink:href="#DejaVuSans-30" x="127.246094"/>
       <use xlink:href="#DejaVuSans-30" x="190.869141"/>
       <use xlink:href="#DejaVuSans-30" x="254.492188"/>
       <use xlink:href="#DejaVuSans-30" x="318.115234"/>
      </g>
     </g>
    </g>
    <g id="xtick_6">
     <g id="line2d_6">
      <g>
       <use xlink:href="#mf2661a5a75" x="444.934662" y="352.44" style="stroke: #000000; stroke-width: 0.8"/>
      </g>
     </g>
     <g id="text_6">
      <!-- 500000 -->
      <g transform="translate(425.847162 367.038437) scale(0.1 -0.1)">
       <defs>
        <path id="DejaVuSans-35" d="M 691 4666 
L 3169 4666 
L 3169 4134 
L 1269 4134 
L 1269 2991 
Q 1406 3038 1543 3061 
Q 1681 3084 1819 3084 
Q 2600 3084 3056 2656 
Q 3513 2228 3513 1497 
Q 3513 744 3044 326 
Q 2575 -91 1722 -91 
Q 1428 -91 1123 -41 
Q 819 9 494 109 
L 494 744 
Q 775 591 1075 516 
Q 1375 441 1709 441 
Q 2250 441 2565 725 
Q 2881 1009 2881 1497 
Q 2881 1984 2565 2268 
Q 2250 2553 1709 2553 
Q 1456 2553 1204 2497 
Q 953 2441 691 2322 
L 691 4666 
z
" transform="scale(0.015625)"/>
       </defs>
       <use xlink:href="#DejaVuSans-35"/>
       <use xlink:href="#DejaVuSans-30" x="63.623047"/>
       <use xlink:href="#DejaVuSans-30" x="127.246094"/>
       <use xlink:href="#DejaVuSans-30" x="190.869141"/>
       <use xlink:href="#DejaVuSans-30" x="254.492188"/>
       <use xlink:href="#DejaVuSans-30" x="318.115234"/>
      </g>
     </g>
    </g>
    <g id="text_7">
     <!-- Timesteps -->
     <g transform="translate(232.646094 380.716563) scale(0.1 -0.1)">
      <defs>
       <path id="DejaVuSans-54" d="M -19 4666 
L 3928 4666 
L 3928 4134 
L 2272 4134 
L 2272 0 
L 1638 0 
L 1638 4134 
L -19 4134 
L -19 4666 
z
" transform="scale(0.015625)"/>
       <path id="DejaVuSans-69" d="M 603 3500 
L 1178 3500 
L 1178 0 
L 603 0 
L 603 3500 
z
M 603 4863 
L 1178 4863 
L 1178 4134 
L 603 4134 
L 603 4863 
z
" transform="scale(0.015625)"/>
       <path id="DejaVuSans-6d" d="M 3328 2828 
Q 3544 3216 3844 3400 
Q 4144 3584 4550 3584 
Q 5097 3584 5394 3201 
Q 5691 2819 5691 2113 
L 5691 0 
L 5113 0 
L 5113 2094 
Q 5113 2597 4934 2840 
Q 4756 3084 4391 3084 
Q 3944 3084 3684 2787 
Q 3425 2491 3425 1978 
L 3425 0 
L 2847 0 
L 2847 2094 
Q 2847 2600 2669 2842 
Q 2491 3084 2119 3084 
Q 1678 3084 1418 2786 
Q 1159 2488 1159 1978 
L 1159 0 
L 581 0 
L 581 3500 
L 1159 3500 
L 1159 2956 
Q 1356 3278 1631 3431 
Q 1906 3584 2284 3584 
Q 2666 3584 2933 3390 
Q 3200 3197 3328 2828 
z
" transform="scale(0.015625)"/>
       <path id="DejaVuSans-65" d="M 3597 1894 
L 3597 1613 
L 953 1613 
Q 991 1019 1311 708 
Q 1631 397 2203 397 
Q 2534 397 2845 478 
Q 3156 559 3463 722 
L 3463 178 
Q 3153 47 2828 -22 
Q 2503 -91 2169 -91 
Q 1331 -91 842 396 
Q 353 884 353 1716 
Q 353 2575 817 3079 
Q 1281 3584 2069 3584 
Q 2775 3584 3186 3129 
Q 3597 2675 3597 1894 
z
M 3022 2063 
Q 3016 2534 2758 2815 
Q 2500 3097 2075 3097 
Q 1594 3097 1305 2825 
Q 1016 2553 972 2059 
L 3022 2063 
z
" transform="scale(0.015625)"/>
       <path id="DejaVuSans-73" d="M 2834 3397 
L 2834 2853 
Q 2591 2978 2328 3040 
Q 2066 3103 1784 3103 
Q 1356 3103 1142 2972 
Q 928 2841 928 2578 
Q 928 2378 1081 2264 
Q 1234 2150 1697 2047 
L 1894 2003 
Q 2506 1872 2764 1633 
Q 3022 1394 3022 966 
Q 3022 478 2636 193 
Q 2250 -91 1575 -91 
Q 1294 -91 989 -36 
Q 684 19 347 128 
L 347 722 
Q 666 556 975 473 
Q 1284 391 1588 391 
Q 1994 391 2212 530 
Q 2431 669 2431 922 
Q 2431 1156 2273 1281 
Q 2116 1406 1581 1522 
L 1381 1569 
Q 847 1681 609 1914 
Q 372 2147 372 2553 
Q 372 3047 722 3315 
Q 1072 3584 1716 3584 
Q 2034 3584 2315 3537 
Q 2597 3491 2834 3397 
z
" transform="scale(0.015625)"/>
       <path id="DejaVuSans-74" d="M 1172 4494 
L 1172 3500 
L 2356 3500 
L 2356 3053 
L 1172 3053 
L 1172 1153 
Q 1172 725 1289 603 
Q 1406 481 1766 481 
L 2356 481 
L 2356 0 
L 1766 0 
Q 1100 0 847 248 
Q 594 497 594 1153 
L 594 3053 
L 172 3053 
L 172 3500 
L 594 3500 
L 594 4494 
L 1172 4494 
z
" transform="scale(0.015625)"/>
       <path id="DejaVuSans-70" d="M 1159 525 
L 1159 -1331 
L 581 -1331 
L 581 3500 
L 1159 3500 
L 1159 2969 
Q 1341 3281 1617 3432 
Q 1894 3584 2278 3584 
Q 2916 3584 3314 3078 
Q 3713 2572 3713 1747 
Q 3713 922 3314 415 
Q 2916 -91 2278 -91 
Q 1894 -91 1617 61 
Q 1341 213 1159 525 
z
M 3116 1747 
Q 3116 2381 2855 2742 
Q 2594 3103 2138 3103 
Q 1681 3103 1420 2742 
Q 1159 2381 1159 1747 
Q 1159 1113 1420 752 
Q 1681 391 2138 391 
Q 2594 391 2855 752 
Q 3116 1113 3116 1747 
z
" transform="scale(0.015625)"/>
      </defs>
      <use xlink:href="#DejaVuSans-54"/>
      <use xlink:href="#DejaVuSans-69" x="57.958984"/>
      <use xlink:href="#DejaVuSans-6d" x="85.742188"/>
      <use xlink:href="#DejaVuSans-65" x="183.154297"/>
      <use xlink:href="#DejaVuSans-73" x="244.677734"/>
      <use xlink:href="#DejaVuSans-74" x="296.777344"/>
      <use xlink:href="#DejaVuSans-65" x="335.986328"/>
      <use xlink:href="#DejaVuSans-70" x="397.509766"/>
      <use xlink:href="#DejaVuSans-73" x="460.986328"/>
     </g>
    </g>
   </g>
   <g id="matplotlib.axis_2">
    <g id="ytick_1">
     <g id="line2d_7">
      <path d="M 63 349.956898 
L 453.6 349.956898 
" clip-path="url(#p1287de3bdd)" style="fill: none; stroke-dasharray: 2.96,1.28; stroke-dashoffset: 0; stroke: #b0b0b0; stroke-width: 0.8"/>
     </g>
     <g id="line2d_8">
      <defs>
       <path id="m01d362ecb6" d="M 0 0 
L -3.5 0 
" style="stroke: #000000; stroke-width: 0.8"/>
      </defs>
      <g>
       <use xlink:href="#m01d362ecb6" x="63" y="349.956898" style="stroke: #000000; stroke-width: 0.8"/>
      </g>
     </g>
     <g id="text_8">
      <!-- −600 -->
      <g transform="translate(28.532812 353.756117) scale(0.1 -0.1)">
       <defs>
        <path id="DejaVuSans-2212" d="M 678 2272 
L 4684 2272 
L 4684 1741 
L 678 1741 
L 678 2272 
z
" transform="scale(0.015625)"/>
        <path id="DejaVuSans-36" d="M 2113 2584 
Q 1688 2584 1439 2293 
Q 1191 2003 1191 1497 
Q 1191 994 1439 701 
Q 1688 409 2113 409 
Q 2538 409 2786 701 
Q 3034 994 3034 1497 
Q 3034 2003 2786 2293 
Q 2538 2584 2113 2584 
z
M 3366 4563 
L 3366 3988 
Q 3128 4100 2886 4159 
Q 2644 4219 2406 4219 
Q 1781 4219 1451 3797 
Q 1122 3375 1075 2522 
Q 1259 2794 1537 2939 
Q 1816 3084 2150 3084 
Q 2853 3084 3261 2657 
Q 3669 2231 3669 1497 
Q 3669 778 3244 343 
Q 2819 -91 2113 -91 
Q 1303 -91 875 529 
Q 447 1150 447 2328 
Q 447 3434 972 4092 
Q 1497 4750 2381 4750 
Q 2619 4750 2861 4703 
Q 3103 4656 3366 4563 
z
" transform="scale(0.015625)"/>
       </defs>
       <use xlink:href="#DejaVuSans-2212"/>
       <use xlink:href="#DejaVuSans-36" x="83.789062"/>
       <use xlink:href="#DejaVuSans-30" x="147.412109"/>
       <use xlink:href="#DejaVuSans-30" x="211.035156"/>
      </g>
     </g>
    </g>
    <g id="ytick_2">
     <g id="line2d_9">
      <path d="M 63 299.389149 
L 453.6 299.389149 
" clip-path="url(#p1287de3bdd)" style="fill: none; stroke-dasharray: 2.96,1.28; stroke-dashoffset: 0; stroke: #b0b0b0; stroke-width: 0.8"/>
     </g>
     <g id="line2d_10">
      <g>
       <use xlink:href="#m01d362ecb6" x="63" y="299.389149" style="stroke: #000000; stroke-width: 0.8"/>
      </g>
     </g>
     <g id="text_9">
      <!-- −500 -->
      <g transform="translate(28.532812 303.188367) scale(0.1 -0.1)">
       <use xlink:href="#DejaVuSans-2212"/>
       <use xlink:href="#DejaVuSans-35" x="83.789062"/>
       <use xlink:href="#DejaVuSans-30" x="147.412109"/>
       <use xlink:href="#DejaVuSans-30" x="211.035156"/>
      </g>
     </g>
    </g>
    <g id="ytick_3">
     <g id="line2d_11">
      <path d="M 63 248.821399 
L 453.6 248.821399 
" clip-path="url(#p1287de3bdd)" style="fill: none; stroke-dasharray: 2.96,1.28; stroke-dashoffset: 0; stroke: #b0b0b0; stroke-width: 0.8"/>
     </g>
     <g id="line2d_12">
      <g>
       <use xlink:href="#m01d362ecb6" x="63" y="248.821399" style="stroke: #000000; stroke-width: 0.8"/>
      </g>
     </g>
     <g id="text_10">
      <!-- −400 -->
      <g transform="translate(28.532812 252.620618) scale(0.1 -0.1)">
       <use xlink:href="#DejaVuSans-2212"/>
       <use xlink:href="#DejaVuSans-34" x="83.789062"/>
       <use xlink:href="#DejaVuSans-30" x="147.412109"/>
       <use xlink:href="#DejaVuSans-30" x="211.035156"/>
      </g>
     </g>
    </g>
    <g id="ytick_4">
     <g id="line2d_13">
      <path d="M 63 198.25365 
L 453.6 198.25365 
" clip-path="url(#p1287de3bdd)" style="fill: none; stroke-dasharray: 2.96,1.28; stroke-dashoffset: 0; stroke: #b0b0b0; stroke-width: 0.8"/>
     </g>
     <g id="line2d_14">
      <g>
       <use xlink:href="#m01d362ecb6" x="63" y="198.25365" style="stroke: #000000; stroke-width: 0.8"/>
      </g>
     </g>
     <g id="text_11">
      <!-- −300 -->
      <g transform="translate(28.532812 202.052869) scale(0.1 -0.1)">
       <use xlink:href="#DejaVuSans-2212"/>
       <use xlink:href="#DejaVuSans-33" x="83.789062"/>
       <use xlink:href="#DejaVuSans-30" x="147.412109"/>
       <use xlink:href="#DejaVuSans-30" x="211.035156"/>
      </g>
     </g>
    </g>
    <g id="ytick_5">
     <g id="line2d_15">
      <path d="M 63 147.685901 
L 453.6 147.685901 
" clip-path="url(#p1287de3bdd)" style="fill: none; stroke-dasharray: 2.96,1.28; stroke-dashoffset: 0; stroke: #b0b0b0; stroke-width: 0.8"/>
     </g>
     <g id="line2d_16">
      <g>
       <use xlink:href="#m01d362ecb6" x="63" y="147.685901" style="stroke: #000000; stroke-width: 0.8"/>
      </g>
     </g>
     <g id="text_12">
      <!-- −200 -->
      <g transform="translate(28.532812 151.485119) scale(0.1 -0.1)">
       <use xlink:href="#DejaVuSans-2212"/>
       <use xlink:href="#DejaVuSans-32" x="83.789062"/>
       <use xlink:href="#DejaVuSans-30" x="147.412109"/>
       <use xlink:href="#DejaVuSans-30" x="211.035156"/>
      </g>
     </g>
    </g>
    <g id="ytick_6">
     <g id="line2d_17">
      <path d="M 63 97.118151 
L 453.6 97.118151 
" clip-path="url(#p1287de3bdd)" style="fill: none; stroke-dasharray: 2.96,1.28; stroke-dashoffset: 0; stroke: #b0b0b0; stroke-width: 0.8"/>
     </g>
     <g id="line2d_18">
      <g>
       <use xlink:href="#m01d362ecb6" x="63" y="97.118151" style="stroke: #000000; stroke-width: 0.8"/>
      </g>
     </g>
     <g id="text_13">
      <!-- −100 -->
      <g transform="translate(28.532812 100.91737) scale(0.1 -0.1)">
       <use xlink:href="#DejaVuSans-2212"/>
       <use xlink:href="#DejaVuSans-31" x="83.789062"/>
       <use xlink:href="#DejaVuSans-30" x="147.412109"/>
       <use xlink:href="#DejaVuSans-30" x="211.035156"/>
      </g>
     </g>
    </g>
    <g id="text_14">
     <!-- Mean rewards -->
     <g transform="translate(22.453125 235.112031) rotate(-90) scale(0.1 -0.1)">
      <defs>
       <path id="DejaVuSans-4d" d="M 628 4666 
L 1569 4666 
L 2759 1491 
L 3956 4666 
L 4897 4666 
L 4897 0 
L 4281 0 
L 4281 4097 
L 3078 897 
L 2444 897 
L 1241 4097 
L 1241 0 
L 628 0 
L 628 4666 
z
" transform="scale(0.015625)"/>
       <path id="DejaVuSans-61" d="M 2194 1759 
Q 1497 1759 1228 1600 
Q 959 1441 959 1056 
Q 959 750 1161 570 
Q 1363 391 1709 391 
Q 2188 391 2477 730 
Q 2766 1069 2766 1631 
L 2766 1759 
L 2194 1759 
z
M 3341 1997 
L 3341 0 
L 2766 0 
L 2766 531 
Q 2569 213 2275 61 
Q 1981 -91 1556 -91 
Q 1019 -91 701 211 
Q 384 513 384 1019 
Q 384 1609 779 1909 
Q 1175 2209 1959 2209 
L 2766 2209 
L 2766 2266 
Q 2766 2663 2505 2880 
Q 2244 3097 1772 3097 
Q 1472 3097 1187 3025 
Q 903 2953 641 2809 
L 641 3341 
Q 956 3463 1253 3523 
Q 1550 3584 1831 3584 
Q 2591 3584 2966 3190 
Q 3341 2797 3341 1997 
z
" transform="scale(0.015625)"/>
       <path id="DejaVuSans-6e" d="M 3513 2113 
L 3513 0 
L 2938 0 
L 2938 2094 
Q 2938 2591 2744 2837 
Q 2550 3084 2163 3084 
Q 1697 3084 1428 2787 
Q 1159 2491 1159 1978 
L 1159 0 
L 581 0 
L 581 3500 
L 1159 3500 
L 1159 2956 
Q 1366 3272 1645 3428 
Q 1925 3584 2291 3584 
Q 2894 3584 3203 3211 
Q 3513 2838 3513 2113 
z
" transform="scale(0.015625)"/>
       <path id="DejaVuSans-20" transform="scale(0.015625)"/>
       <path id="DejaVuSans-72" d="M 2631 2963 
Q 2534 3019 2420 3045 
Q 2306 3072 2169 3072 
Q 1681 3072 1420 2755 
Q 1159 2438 1159 1844 
L 1159 0 
L 581 0 
L 581 3500 
L 1159 3500 
L 1159 2956 
Q 1341 3275 1631 3429 
Q 1922 3584 2338 3584 
Q 2397 3584 2469 3576 
Q 2541 3569 2628 3553 
L 2631 2963 
z
" transform="scale(0.015625)"/>
       <path id="DejaVuSans-77" d="M 269 3500 
L 844 3500 
L 1563 769 
L 2278 3500 
L 2956 3500 
L 3675 769 
L 4391 3500 
L 4966 3500 
L 4050 0 
L 3372 0 
L 2619 2869 
L 1863 0 
L 1184 0 
L 269 3500 
z
" transform="scale(0.015625)"/>
       <path id="DejaVuSans-64" d="M 2906 2969 
L 2906 4863 
L 3481 4863 
L 3481 0 
L 2906 0 
L 2906 525 
Q 2725 213 2448 61 
Q 2172 -91 1784 -91 
Q 1150 -91 751 415 
Q 353 922 353 1747 
Q 353 2572 751 3078 
Q 1150 3584 1784 3584 
Q 2172 3584 2448 3432 
Q 2725 3281 2906 2969 
z
M 947 1747 
Q 947 1113 1208 752 
Q 1469 391 1925 391 
Q 2381 391 2643 752 
Q 2906 1113 2906 1747 
Q 2906 2381 2643 2742 
Q 2381 3103 1925 3103 
Q 1469 3103 1208 2742 
Q 947 2381 947 1747 
z
" transform="scale(0.015625)"/>
      </defs>
      <use xlink:href="#DejaVuSans-4d"/>
      <use xlink:href="#DejaVuSans-65" x="86.279297"/>
      <use xlink:href="#DejaVuSans-61" x="147.802734"/>
      <use xlink:href="#DejaVuSans-6e" x="209.082031"/>
      <use xlink:href="#DejaVuSans-20" x="272.460938"/>
      <use xlink:href="#DejaVuSans-72" x="304.248047"/>
      <use xlink:href="#DejaVuSans-65" x="343.111328"/>
      <use xlink:href="#DejaVuSans-77" x="404.634766"/>
      <use xlink:href="#DejaVuSans-61" x="486.421875"/>
      <use xlink:href="#DejaVuSans-72" x="547.701172"/>
      <use xlink:href="#DejaVuSans-64" x="587.064453"/>
      <use xlink:href="#DejaVuSans-73" x="650.541016"/>
     </g>
    </g>
   </g>
   <g id="line2d_19">
    <path d="M 80.754545 298.458702 
L 84.396347 299.389149 
L 87.830565 299.389149 
L 91.472366 299.389149 
L 94.862883 142.790943 
L 98.504684 171.043144 
L 102.011739 267.531466 
L 105.577062 123.888718 
L 108.902027 299.389149 
L 112.41855 299.389149 
L 115.988972 299.389149 
L 119.630773 112.561542 
L 123.116705 104.318999 
L 126.72573 93.209264 
L 130.367531 110.968658 
L 134.009332 273.422609 
L 137.537509 107.509824 
L 141.04165 118.644842 
L 144.683451 96.081513 
L 148.317969 127.913911 
L 151.95977 116.51594 
L 155.588461 299.389149 
L 159.230262 133.233638 
L 162.872063 199.35097 
L 166.513864 110.538832 
L 170.155666 299.389149 
L 173.797467 180.671244 
L 177.439268 299.389149 
L 181.016245 299.389149 
L 184.658046 104.946039 
L 188.173113 299.389149 
L 191.676525 299.389149 
L 195.198875 157.59718 
L 198.783136 147.630276 
L 202.424937 130.305765 
L 206.066738 248.603958 
L 209.699799 154.83618 
L 213.215594 299.389149 
L 216.831174 146.133471 
L 220.472975 267.829816 
L 224.048496 98.756547 
L 227.690297 160.206475 
L 231.311704 299.389149 
L 234.793266 93.881816 
L 238.435067 150.679511 
L 242.022241 105.997848 
L 245.575911 158.542796 
L 249.217712 207.401356 
L 252.843489 109.143162 
L 256.418281 137.375137 
L 259.953742 145.511488 
L 263.529991 185.859495 
L 267.166693 167.265733 
L 270.808494 101.168628 
L 274.360707 92.24342 
L 278.002508 171.068428 
L 281.64431 154.937316 
L 285.264988 267.511239 
L 288.774228 98.377288 
L 292.341008 89.932474 
L 295.971155 299.389149 
L 299.539392 126.290686 
L 303.085778 108.900437 
L 306.71374 143.569686 
L 310.324951 100.516304 
L 313.898286 95.499983 
L 317.52989 109.775259 
L 321.171691 105.866372 
L 324.766877 142.68475 
L 328.338756 140.201874 
L 331.911363 110.017984 
L 335.517474 126.730625 
L 339.159275 94.852716 
L 342.696193 132.459951 
L 346.332167 111.681663 
L 349.928081 299.389149 
L 353.569883 299.389149 
L 357.19129 219.87642 
L 360.789389 299.389149 
L 364.43119 299.389149 
L 368.072992 160.818345 
L 371.69804 268.649014 
L 375.311436 299.389149 
L 378.953237 299.389149 
L 382.462476 100.662951 
L 386.104278 130.07821 
L 389.746079 127.388006 
L 393.29902 299.389149 
L 396.940821 136.475031 
L 400.582622 157.536498 
L 404.207671 104.212807 
L 407.849472 124.874789 
L 411.357984 299.389149 
L 414.81988 123.469006 
L 418.316009 299.389149 
L 421.892986 299.389149 
L 425.503468 299.389149 
L 428.993041 298.999777 
L 432.459308 95.302769 
L 435.845455 157.293773 
" clip-path="url(#p1287de3bdd)" style="fill: none; stroke: #1f77b4; stroke-width: 1.5; stroke-linecap: square"/>
   </g>
   <g id="line2d_20">
    <path d="M 80.754545 299.389149 
L 84.308215 208.690833 
L 87.950016 299.389149 
L 91.591817 299.389149 
L 95.233619 299.389149 
L 98.754512 124.045478 
L 101.946915 207.719933 
L 105.349814 199.204324 
L 108.644915 142.993214 
L 112.20077 299.389149 
L 115.50097 298.504213 
L 118.662054 299.389149 
L 122.247043 188.90873 
L 125.888844 299.389149 
L 129.385701 288.699126 
L 132.718678 299.389149 
L 136.056753 299.389149 
L 139.698554 299.389149 
L 143.267519 202.2839 
L 146.060052 107.226645 
L 149.035404 283.161958 
L 152.436846 299.389149 
L 156.078647 299.389149 
L 159.499755 272.638809 
L 162.533376 299.389149 
L 166.175177 299.389149 
L 169.672763 185.02007 
L 172.654669 113.502102 
L 175.56374 130.513093 
L 178.808585 299.389149 
L 182.450386 288.56765 
L 185.585249 293.730617 
L 188.225555 299.389149 
L 191.600047 299.389149 
L 195.18358 297.032691 
L 198.270371 132.439724 
L 200.529016 266.570679 
L 203.350683 299.389149 
L 206.870848 269.488438 
L 210.173233 234.389364 
L 212.032009 103.085146 
L 215.000077 299.389149 
L 218.202677 134.811352 
L 221.111747 299.389149 
L 224.102395 168.307429 
L 227.498738 287.95578 
L 230.821518 299.389149 
L 234.124631 128.161693 
L 236.362154 105.087629 
L 239.030866 299.389149 
L 242.672667 122.604297 
L 245.46957 140.449656 
L 248.122258 128.80896 
L 251.571044 299.389149 
L 255.212845 292.45631 
L 257.786142 174.431183 
L 260.186817 142.113335 
L 263.378492 299.389149 
L 266.969308 299.389149 
L 270.092516 262.687076 
L 271.864617 299.389149 
L 274.716147 299.389149 
L 278.357948 299.389149 
L 281.551808 111.084964 
L 283.42515 193.758177 
L 286.774151 299.389149 
L 290.415952 299.389149 
L 293.090491 299.389149 
L 296.287264 159.872728 
L 298.17663 240.740673 
L 301.509607 299.389149 
L 304.836028 299.389149 
L 308.255679 299.389149 
L 311.029275 294.362714 
L 313.418296 288.896341 
L 317.060098 299.389149 
L 320.676406 299.389149 
L 323.805442 246.758235 
L 325.996349 127.418347 
L 328.086743 107.307553 
L 331.155325 299.389149 
L 334.357925 238.778644 
L 336.728737 108.910551 
L 339.979409 299.389149 
L 343.208958 192.585005 
L 345.777885 257.493768 
L 348.251396 217.85371 
L 351.6878 299.389149 
L 355.312849 298.306999 
L 358.37269 150.062585 
L 360.361113 101.396183 
L 363.369241 299.389149 
L 366.903245 220.624822 
L 370.202717 110.159574 
L 372.638354 270.100308 
L 375.618075 225.67654 
L 378.634943 299.389149 
L 382.276744 145.890746 
L 385.34824 188.362598 
L 387.777321 290.372919 
" clip-path="url(#p1287de3bdd)" style="fill: none; stroke: #ff7f0e; stroke-width: 1.5; stroke-linecap: square"/>
   </g>
   <g id="line2d_21">
    <path d="M 80.754545 299.389149 
L 84.396347 299.389149 
L 88.038148 156.150942 
L 91.679949 299.389149 
L 95.156412 299.389149 
L 98.61321 299.389149 
L 101.809255 299.389149 
L 105.451056 299.389149 
L 109.079018 298.094614 
L 112.654539 299.389149 
L 115.825819 292.466424 
L 119.406438 134.472548 
L 123.031487 299.389149 
L 126.548738 185.773529 
L 129.760807 299.389149 
L 133.401151 299.389149 
L 137.042953 182.132652 
L 140.568944 299.389149 
L 144.084011 299.389149 
L 147.725812 299.389149 
L 151.275112 299.389149 
L 154.916913 296.122472 
L 158.503359 299.389149 
L 162.050473 299.389149 
L 165.692274 299.389149 
L 168.983006 299.389149 
L 172.624807 299.389149 
L 176.266608 299.389149 
L 179.78823 299.389149 
L 183.009039 299.389149 
L 185.953799 299.389149 
L 189.454298 299.389149 
L 192.96718 299.389149 
L 196.490986 299.389149 
L 199.801384 299.389149 
L 203.344856 299.389149 
L 206.591158 298.478929 
L 209.697614 299.389149 
L 212.854327 299.389149 
L 216.319865 299.389149 
L 218.936135 299.389149 
L 221.398721 286.464032 
L 224.858432 299.389149 
L 228.500234 299.389149 
L 231.74435 299.389149 
L 234.788896 299.389149 
L 237.738755 111.590641 
L 240.63253 142.644296 
L 243.881745 112.991368 
L 246.728177 297.993479 
L 249.454429 176.560086 
L 252.227297 135.165326 
L 255.062803 299.389149 
L 258.51086 299.389149 
L 261.528457 299.389149 
L 264.74271 299.389149 
L 267.282503 299.389149 
L 270.603097 299.389149 
L 273.660753 299.389149 
L 276.965324 299.389149 
L 280.404641 299.389149 
L 283.312983 284.259278 
L 286.344418 181.626974 
L 289.709443 299.389149 
L 292.632352 176.453893 
L 295.861901 299.389149 
L 299.089266 299.389149 
L 302.269286 299.389149 
L 305.497379 146.396423 
L 308.036443 299.389149 
L 311.29367 299.389149 
L 314.608437 299.389149 
L 317.58743 282.615826 
L 320.796586 213.580735 
L 324.017395 299.389149 
L 327.248401 299.389149 
L 329.978295 299.389149 
L 333.580036 299.389149 
L 337.221837 297.659732 
L 340.299159 299.389149 
L 343.659085 139.544493 
L 346.557959 299.389149 
L 350.050446 299.389149 
L 353.457715 299.389149 
L 356.917426 254.024821 
L 360.216898 299.389149 
L 363.764741 298.751995 
L 366.328569 299.389149 
L 369.146595 263.304003 
L 372.153266 284.871148 
L 375.005524 245.585063 
L 378.176805 257.453314 
L 381.410724 299.389149 
L 384.507712 299.389149 
L 387.703757 299.389149 
L 390.768696 299.389149 
L 393.989505 299.389149 
L 396.789322 104.278545 
L 399.841152 299.389149 
L 402.979656 299.389149 
" clip-path="url(#p1287de3bdd)" style="fill: none; stroke: #2ca02c; stroke-width: 1.5; stroke-linecap: square"/>
   </g>
   <g id="patch_3">
    <path d="M 63 352.44 
L 63 47.52 
" style="fill: none; stroke: #000000; stroke-width: 0.8; stroke-linejoin: miter; stroke-linecap: square"/>
   </g>
   <g id="patch_4">
    <path d="M 453.6 352.44 
L 453.6 47.52 
" style="fill: none; stroke: #000000; stroke-width: 0.8; stroke-linejoin: miter; stroke-linecap: square"/>
   </g>
   <g id="patch_5">
    <path d="M 63 352.44 
L 453.6 352.44 
" style="fill: none; stroke: #000000; stroke-width: 0.8; stroke-linejoin: miter; stroke-linecap: square"/>
   </g>
   <g id="patch_6">
    <path d="M 63 47.52 
L 453.6 47.52 
" style="fill: none; stroke: #000000; stroke-width: 0.8; stroke-linejoin: miter; stroke-linecap: square"/>
   </g>
   <g id="text_15">
    <!-- Cartpole - Actor-Critics -->
    <g transform="translate(190.459688 41.52) scale(0.12 -0.12)">
     <defs>
      <path id="DejaVuSans-43" d="M 4122 4306 
L 4122 3641 
Q 3803 3938 3442 4084 
Q 3081 4231 2675 4231 
Q 1875 4231 1450 3742 
Q 1025 3253 1025 2328 
Q 1025 1406 1450 917 
Q 1875 428 2675 428 
Q 3081 428 3442 575 
Q 3803 722 4122 1019 
L 4122 359 
Q 3791 134 3420 21 
Q 3050 -91 2638 -91 
Q 1578 -91 968 557 
Q 359 1206 359 2328 
Q 359 3453 968 4101 
Q 1578 4750 2638 4750 
Q 3056 4750 3426 4639 
Q 3797 4528 4122 4306 
z
" transform="scale(0.015625)"/>
      <path id="DejaVuSans-6f" d="M 1959 3097 
Q 1497 3097 1228 2736 
Q 959 2375 959 1747 
Q 959 1119 1226 758 
Q 1494 397 1959 397 
Q 2419 397 2687 759 
Q 2956 1122 2956 1747 
Q 2956 2369 2687 2733 
Q 2419 3097 1959 3097 
z
M 1959 3584 
Q 2709 3584 3137 3096 
Q 3566 2609 3566 1747 
Q 3566 888 3137 398 
Q 2709 -91 1959 -91 
Q 1206 -91 779 398 
Q 353 888 353 1747 
Q 353 2609 779 3096 
Q 1206 3584 1959 3584 
z
" transform="scale(0.015625)"/>
      <path id="DejaVuSans-6c" d="M 603 4863 
L 1178 4863 
L 1178 0 
L 603 0 
L 603 4863 
z
" transform="scale(0.015625)"/>
      <path id="DejaVuSans-2d" d="M 313 2009 
L 1997 2009 
L 1997 1497 
L 313 1497 
L 313 2009 
z
" transform="scale(0.015625)"/>
      <path id="DejaVuSans-41" d="M 2188 4044 
L 1331 1722 
L 3047 1722 
L 2188 4044 
z
M 1831 4666 
L 2547 4666 
L 4325 0 
L 3669 0 
L 3244 1197 
L 1141 1197 
L 716 0 
L 50 0 
L 1831 4666 
z
" transform="scale(0.015625)"/>
      <path id="DejaVuSans-63" d="M 3122 3366 
L 3122 2828 
Q 2878 2963 2633 3030 
Q 2388 3097 2138 3097 
Q 1578 3097 1268 2742 
Q 959 2388 959 1747 
Q 959 1106 1268 751 
Q 1578 397 2138 397 
Q 2388 397 2633 464 
Q 2878 531 3122 666 
L 3122 134 
Q 2881 22 2623 -34 
Q 2366 -91 2075 -91 
Q 1284 -91 818 406 
Q 353 903 353 1747 
Q 353 2603 823 3093 
Q 1294 3584 2113 3584 
Q 2378 3584 2631 3529 
Q 2884 3475 3122 3366 
z
" transform="scale(0.015625)"/>
     </defs>
     <use xlink:href="#DejaVuSans-43"/>
     <use xlink:href="#DejaVuSans-61" x="69.824219"/>
     <use xlink:href="#DejaVuSans-72" x="131.103516"/>
     <use xlink:href="#DejaVuSans-74" x="172.216797"/>
     <use xlink:href="#DejaVuSans-70" x="211.425781"/>
     <use xlink:href="#DejaVuSans-6f" x="274.902344"/>
     <use xlink:href="#DejaVuSans-6c" x="336.083984"/>
     <use xlink:href="#DejaVuSans-65" x="363.867188"/>
     <use xlink:href="#DejaVuSans-20" x="425.390625"/>
     <use xlink:href="#DejaVuSans-2d" x="457.177734"/>
     <use xlink:href="#DejaVuSans-20" x="493.261719"/>
     <use xlink:href="#DejaVuSans-41" x="525.048828"/>
     <use xlink:href="#DejaVuSans-63" x="591.707031"/>
     <use xlink:href="#DejaVuSans-74" x="646.6875"/>
     <use xlink:href="#DejaVuSans-6f" x="685.896484"/>
     <use xlink:href="#DejaVuSans-72" x="747.078125"/>
     <use xlink:href="#DejaVuSans-2d" x="781.816406"/>
     <use xlink:href="#DejaVuSans-43" x="817.900391"/>
     <use xlink:href="#DejaVuSans-72" x="887.724609"/>
     <use xlink:href="#DejaVuSans-69" x="928.837891"/>
     <use xlink:href="#DejaVuSans-74" x="956.621094"/>
     <use xlink:href="#DejaVuSans-69" x="995.830078"/>
     <use xlink:href="#DejaVuSans-63" x="1023.613281"/>
     <use xlink:href="#DejaVuSans-73" x="1078.59375"/>
    </g>
   </g>
   <g id="legend_1">
    <g id="patch_7">
     <path d="M 70 347.44 
L 273.035938 347.44 
Q 275.035938 347.44 275.035938 345.44 
L 275.035938 302.405625 
Q 275.035938 300.405625 273.035938 300.405625 
L 70 300.405625 
Q 68 300.405625 68 302.405625 
L 68 345.44 
Q 68 347.44 70 347.44 
z
" style="fill: #ffffff; opacity: 0.8; stroke: #cccccc; stroke-linejoin: miter"/>
    </g>
    <g id="line2d_22">
     <path d="M 72 308.504063 
L 82 308.504063 
L 92 308.504063 
" style="fill: none; stroke: #1f77b4; stroke-width: 1.5; stroke-linecap: square"/>
    </g>
    <g id="text_16">
     <!-- TPPO -->
     <g transform="translate(100 312.004063) scale(0.1 -0.1)">
      <defs>
       <path id="DejaVuSans-50" d="M 1259 4147 
L 1259 2394 
L 2053 2394 
Q 2494 2394 2734 2622 
Q 2975 2850 2975 3272 
Q 2975 3691 2734 3919 
Q 2494 4147 2053 4147 
L 1259 4147 
z
M 628 4666 
L 2053 4666 
Q 2838 4666 3239 4311 
Q 3641 3956 3641 3272 
Q 3641 2581 3239 2228 
Q 2838 1875 2053 1875 
L 1259 1875 
L 1259 0 
L 628 0 
L 628 4666 
z
" transform="scale(0.015625)"/>
       <path id="DejaVuSans-4f" d="M 2522 4238 
Q 1834 4238 1429 3725 
Q 1025 3213 1025 2328 
Q 1025 1447 1429 934 
Q 1834 422 2522 422 
Q 3209 422 3611 934 
Q 4013 1447 4013 2328 
Q 4013 3213 3611 3725 
Q 3209 4238 2522 4238 
z
M 2522 4750 
Q 3503 4750 4090 4092 
Q 4678 3434 4678 2328 
Q 4678 1225 4090 567 
Q 3503 -91 2522 -91 
Q 1538 -91 948 565 
Q 359 1222 359 2328 
Q 359 3434 948 4092 
Q 1538 4750 2522 4750 
z
" transform="scale(0.015625)"/>
      </defs>
      <use xlink:href="#DejaVuSans-54"/>
      <use xlink:href="#DejaVuSans-50" x="61.083984"/>
      <use xlink:href="#DejaVuSans-50" x="121.386719"/>
      <use xlink:href="#DejaVuSans-4f" x="181.689453"/>
     </g>
    </g>
    <g id="line2d_23">
     <path d="M 72 323.182187 
L 82 323.182187 
L 92 323.182187 
" style="fill: none; stroke: #ff7f0e; stroke-width: 1.5; stroke-linecap: square"/>
    </g>
    <g id="text_17">
     <!-- Tsetlin Actor-Critic - Type a update -->
     <g transform="translate(100 326.682187) scale(0.1 -0.1)">
      <defs>
       <path id="DejaVuSans-79" d="M 2059 -325 
Q 1816 -950 1584 -1140 
Q 1353 -1331 966 -1331 
L 506 -1331 
L 506 -850 
L 844 -850 
Q 1081 -850 1212 -737 
Q 1344 -625 1503 -206 
L 1606 56 
L 191 3500 
L 800 3500 
L 1894 763 
L 2988 3500 
L 3597 3500 
L 2059 -325 
z
" transform="scale(0.015625)"/>
       <path id="DejaVuSans-75" d="M 544 1381 
L 544 3500 
L 1119 3500 
L 1119 1403 
Q 1119 906 1312 657 
Q 1506 409 1894 409 
Q 2359 409 2629 706 
Q 2900 1003 2900 1516 
L 2900 3500 
L 3475 3500 
L 3475 0 
L 2900 0 
L 2900 538 
Q 2691 219 2414 64 
Q 2138 -91 1772 -91 
Q 1169 -91 856 284 
Q 544 659 544 1381 
z
M 1991 3584 
L 1991 3584 
z
" transform="scale(0.015625)"/>
      </defs>
      <use xlink:href="#DejaVuSans-54"/>
      <use xlink:href="#DejaVuSans-73" x="44.583984"/>
      <use xlink:href="#DejaVuSans-65" x="96.683594"/>
      <use xlink:href="#DejaVuSans-74" x="158.207031"/>
      <use xlink:href="#DejaVuSans-6c" x="197.416016"/>
      <use xlink:href="#DejaVuSans-69" x="225.199219"/>
      <use xlink:href="#DejaVuSans-6e" x="252.982422"/>
      <use xlink:href="#DejaVuSans-20" x="316.361328"/>
      <use xlink:href="#DejaVuSans-41" x="348.148438"/>
      <use xlink:href="#DejaVuSans-63" x="414.806641"/>
      <use xlink:href="#DejaVuSans-74" x="469.787109"/>
      <use xlink:href="#DejaVuSans-6f" x="508.996094"/>
      <use xlink:href="#DejaVuSans-72" x="570.177734"/>
      <use xlink:href="#DejaVuSans-2d" x="604.916016"/>
      <use xlink:href="#DejaVuSans-43" x="641"/>
      <use xlink:href="#DejaVuSans-72" x="710.824219"/>
      <use xlink:href="#DejaVuSans-69" x="751.9375"/>
      <use xlink:href="#DejaVuSans-74" x="779.720703"/>
      <use xlink:href="#DejaVuSans-69" x="818.929688"/>
      <use xlink:href="#DejaVuSans-63" x="846.712891"/>
      <use xlink:href="#DejaVuSans-20" x="901.693359"/>
      <use xlink:href="#DejaVuSans-2d" x="933.480469"/>
      <use xlink:href="#DejaVuSans-20" x="969.564453"/>
      <use xlink:href="#DejaVuSans-54" x="1001.351562"/>
      <use xlink:href="#DejaVuSans-79" x="1046.810547"/>
      <use xlink:href="#DejaVuSans-70" x="1105.990234"/>
      <use xlink:href="#DejaVuSans-65" x="1169.466797"/>
      <use xlink:href="#DejaVuSans-20" x="1230.990234"/>
      <use xlink:href="#DejaVuSans-61" x="1262.777344"/>
      <use xlink:href="#DejaVuSans-20" x="1324.056641"/>
      <use xlink:href="#DejaVuSans-75" x="1355.84375"/>
      <use xlink:href="#DejaVuSans-70" x="1419.222656"/>
      <use xlink:href="#DejaVuSans-64" x="1482.699219"/>
      <use xlink:href="#DejaVuSans-61" x="1546.175781"/>
      <use xlink:href="#DejaVuSans-74" x="1607.455078"/>
      <use xlink:href="#DejaVuSans-65" x="1646.664062"/>
     </g>
    </g>
    <g id="line2d_24">
     <path d="M 72 337.860313 
L 82 337.860313 
L 92 337.860313 
" style="fill: none; stroke: #2ca02c; stroke-width: 1.5; stroke-linecap: square"/>
    </g>
    <g id="text_18">
     <!-- Tsetlin Actor-Critic - Type b update -->
     <g transform="translate(100 341.360313) scale(0.1 -0.1)">
      <defs>
       <path id="DejaVuSans-62" d="M 3116 1747 
Q 3116 2381 2855 2742 
Q 2594 3103 2138 3103 
Q 1681 3103 1420 2742 
Q 1159 2381 1159 1747 
Q 1159 1113 1420 752 
Q 1681 391 2138 391 
Q 2594 391 2855 752 
Q 3116 1113 3116 1747 
z
M 1159 2969 
Q 1341 3281 1617 3432 
Q 1894 3584 2278 3584 
Q 2916 3584 3314 3078 
Q 3713 2572 3713 1747 
Q 3713 922 3314 415 
Q 2916 -91 2278 -91 
Q 1894 -91 1617 61 
Q 1341 213 1159 525 
L 1159 0 
L 581 0 
L 581 4863 
L 1159 4863 
L 1159 2969 
z
" transform="scale(0.015625)"/>
      </defs>
      <use xlink:href="#DejaVuSans-54"/>
      <use xlink:href="#DejaVuSans-73" x="44.583984"/>
      <use xlink:href="#DejaVuSans-65" x="96.683594"/>
      <use xlink:href="#DejaVuSans-74" x="158.207031"/>
      <use xlink:href="#DejaVuSans-6c" x="197.416016"/>
      <use xlink:href="#DejaVuSans-69" x="225.199219"/>
      <use xlink:href="#DejaVuSans-6e" x="252.982422"/>
      <use xlink:href="#DejaVuSans-20" x="316.361328"/>
      <use xlink:href="#DejaVuSans-41" x="348.148438"/>
      <use xlink:href="#DejaVuSans-63" x="414.806641"/>
      <use xlink:href="#DejaVuSans-74" x="469.787109"/>
      <use xlink:href="#DejaVuSans-6f" x="508.996094"/>
      <use xlink:href="#DejaVuSans-72" x="570.177734"/>
      <use xlink:href="#DejaVuSans-2d" x="604.916016"/>
      <use xlink:href="#DejaVuSans-43" x="641"/>
      <use xlink:href="#DejaVuSans-72" x="710.824219"/>
      <use xlink:href="#DejaVuSans-69" x="751.9375"/>
      <use xlink:href="#DejaVuSans-74" x="779.720703"/>
      <use xlink:href="#DejaVuSans-69" x="818.929688"/>
      <use xlink:href="#DejaVuSans-63" x="846.712891"/>
      <use xlink:href="#DejaVuSans-20" x="901.693359"/>
      <use xlink:href="#DejaVuSans-2d" x="933.480469"/>
      <use xlink:href="#DejaVuSans-20" x="969.564453"/>
      <use xlink:href="#DejaVuSans-54" x="1001.351562"/>
      <use xlink:href="#DejaVuSans-79" x="1046.810547"/>
      <use xlink:href="#DejaVuSans-70" x="1105.990234"/>
      <use xlink:href="#DejaVuSans-65" x="1169.466797"/>
      <use xlink:href="#DejaVuSans-20" x="1230.990234"/>
      <use xlink:href="#DejaVuSans-62" x="1262.777344"/>
      <use xlink:href="#DejaVuSans-20" x="1326.253906"/>
      <use xlink:href="#DejaVuSans-75" x="1358.041016"/>
      <use xlink:href="#DejaVuSans-70" x="1421.419922"/>
      <use xlink:href="#DejaVuSans-64" x="1484.896484"/>
      <use xlink:href="#DejaVuSans-61" x="1548.373047"/>
      <use xlink:href="#DejaVuSans-74" x="1609.652344"/>
      <use xlink:href="#DejaVuSans-65" x="1648.861328"/>
     </g>
    </g>
   </g>
  </g>
 </g>
 <defs>
  <clipPath id="p1287de3bdd">
   <rect x="63" y="47.52" width="390.6" height="304.92"/>
  </clipPath>
 </defs>
</svg>
