<?xml version="1.0" encoding="utf-8" standalone="no"?>
<!DOCTYPE svg PUBLIC "-//W3C//DTD SVG 1.1//EN"
  "http://www.w3.org/Graphics/SVG/1.1/DTD/svg11.dtd">
<svg xmlns:xlink="http://www.w3.org/1999/xlink" width="504pt" height="396pt" viewBox="0 0 504 396" xmlns="http://www.w3.org/2000/svg" version="1.1">
 <metadata>
  <rdf:RDF xmlns:dc="http://purl.org/dc/elements/1.1/" xmlns:cc="http://creativecommons.org/ns#" xmlns:rdf="http://www.w3.org/1999/02/22-rdf-syntax-ns#">
   <cc:Work>
    <dc:type rdf:resource="http://purl.org/dc/dcmitype/StillImage"/>
    <dc:date>2024-05-10T11:33:30.540593</dc:date>
    <dc:format>image/svg+xml</dc:format>
    <dc:creator>
     <cc:Agent>
      <dc:title>Matplotlib v3.8.2, https://matplotlib.org/</dc:title>
     </cc:Agent>
    </dc:creator>
   </cc:Work>
  </rdf:RDF>
 </metadata>
 <defs>
  <style type="text/css">*{stroke-linejoin: round; stroke-linecap: butt}</style>
 </defs>
 <g id="figure_1">
  <g id="patch_1">
   <path d="M 0 396 
L 504 396 
L 504 0 
L 0 0 
z
" style="fill: #ffffff"/>
  </g>
  <g id="axes_1">
   <g id="patch_2">
    <path d="M 63 352.44 
L 453.6 352.44 
L 453.6 47.52 
L 63 47.52 
z
" style="fill: #ffffff"/>
   </g>
   <g id="PolyCollection_1">
    <path d="M 80.754545 319.531758 
L 80.754545 319.531758 
L 89.652247 319.531758 
L 98.539272 319.531758 
L 107.436974 319.531758 
L 116.244275 319.531758 
L 125.095709 319.531758 
L 133.651027 319.531758 
L 142.548729 319.531758 
L 151.37952 319.531758 
L 160.134859 319.531758 
L 168.970632 319.531758 
L 177.640553 319.531758 
L 186.272036 319.531758 
L 194.783933 319.531758 
L 203.154179 319.531758 
L 211.414094 319.531758 
L 218.125808 319.531758 
L 221.926195 140.927992 
L 224.924364 106.239831 
L 228.160281 102.102716 
L 231.025341 107.828119 
L 233.901078 111.74612 
L 236.609538 99.615244 
L 239.310881 104.415236 
L 242.082693 103.728878 
L 244.710006 111.36109 
L 247.335184 111.938576 
L 249.820846 99.93207 
L 252.352064 105.617055 
L 255.338845 110.809232 
L 257.867928 103.84545 
L 260.409111 114.101831 
L 262.798678 100.705077 
L 265.218141 98.737901 
L 267.450397 98.507473 
L 269.662721 104.380791 
L 271.848709 108.898866 
L 273.988428 106.265755 
L 276.180822 114.445211 
L 278.258613 98.349419 
L 280.329286 124.8776 
L 282.671873 115.374011 
L 284.645739 97.24651 
L 286.511409 109.830646 
L 288.636181 105.771257 
L 290.509681 104.088974 
L 292.425178 97.578407 
L 294.48375 97.519825 
L 296.496766 103.474352 
L 298.543238 99.148769 
L 300.506427 104.554432 
L 302.411247 110.929263 
L 304.302542 107.553238 
L 306.205227 104.585894 
L 308.102929 98.32371 
L 310.09459 108.122453 
L 311.963819 108.035684 
L 313.835896 103.035334 
L 315.693736 114.059573 
L 317.793594 105.177476 
L 319.564592 99.534753 
L 321.374741 101.590972 
L 323.413382 102.119156 
L 325.266951 99.613924 
L 327.233699 99.437482 
L 329.008969 102.892933 
L 330.770714 118.396119 
L 332.946024 99.073858 
L 334.754749 151.834108 
L 336.587675 115.803315 
L 338.34159 103.43877 
L 340.163128 102.005658 
L 342.011714 107.729702 
L 343.77773 101.726568 
L 345.671161 102.657361 
L 347.485581 101.731358 
L 349.28434 99.234395 
L 351.041102 105.057499 
L 352.797153 102.440062 
L 354.55605 99.066116 
L 356.255156 106.669516 
L 357.98131 102.80489 
L 359.680415 105.039333 
L 361.348912 100.988868 
L 363.020968 103.834486 
L 364.702278 105.871795 
L 366.407077 107.620553 
L 368.051373 105.117994 
L 369.79034 100.360935 
L 371.423246 103.966536 
L 373.028391 104.143646 
L 374.649908 106.352442 
L 376.335489 103.202079 
L 378.062355 114.787564 
L 379.751495 106.920478 
L 381.432805 113.02907 
L 383.089913 100.30869 
L 384.994733 103.675312 
L 386.767867 107.468143 
L 388.714684 101.497331 
L 388.714684 85.205299 
L 388.714684 85.205299 
L 386.767867 84.577886 
L 384.994733 83.687131 
L 383.089913 84.976966 
L 381.432805 89.000678 
L 379.751495 85.320249 
L 378.062355 86.063174 
L 376.335489 80.839669 
L 374.649908 81.594096 
L 373.028391 83.867792 
L 371.423246 80.821557 
L 369.79034 83.572647 
L 368.051373 84.775532 
L 366.407077 80.163737 
L 364.702278 82.009844 
L 363.020968 84.771865 
L 361.348912 85.540697 
L 359.680415 85.838503 
L 357.98131 85.541863 
L 356.255156 80.487411 
L 354.55605 86.014024 
L 352.797153 85.268511 
L 351.041102 83.548852 
L 349.28434 85.358999 
L 347.485581 85.912316 
L 345.671161 85.635309 
L 343.77773 84.18645 
L 342.011714 85.268188 
L 340.163128 83.701845 
L 338.34159 84.789 
L 336.587675 76.437413 
L 334.754749 61.38 
L 332.946024 86.87161 
L 330.770714 77.84675 
L 329.008969 84.848091 
L 327.233699 84.744881 
L 325.266951 85.48785 
L 323.413382 84.377959 
L 321.374741 84.462663 
L 319.564592 84.517811 
L 317.793594 85.083814 
L 315.693736 80.495907 
L 313.835896 85.333052 
L 311.963819 82.225607 
L 310.09459 80.440631 
L 308.102929 85.642322 
L 306.205227 81.240591 
L 304.302542 83.054184 
L 302.411247 86.557514 
L 300.506427 85.111946 
L 298.543238 85.487891 
L 296.496766 82.892964 
L 294.48375 85.029232 
L 292.425178 85.533113 
L 290.509681 85.999251 
L 288.636181 83.354291 
L 286.511409 80.116963 
L 284.645739 85.854194 
L 282.671873 77.926743 
L 280.329286 71.981815 
L 278.258613 84.945984 
L 276.180822 76.35691 
L 273.988428 83.476339 
L 271.848709 85.710696 
L 269.662721 85.534368 
L 267.450397 85.577541 
L 265.218141 86.591022 
L 262.798678 85.867754 
L 260.409111 82.119404 
L 257.867928 85.528879 
L 255.338845 83.778697 
L 252.352064 84.276472 
L 249.820846 85.613184 
L 247.335184 78.679662 
L 244.710006 78.597335 
L 242.082693 83.893163 
L 239.310881 82.795774 
L 236.609538 84.588752 
L 233.901078 81.262586 
L 231.025341 84.25036 
L 228.160281 84.156434 
L 224.924364 79.21889 
L 221.926195 72.588981 
L 218.125808 319.531758 
L 211.414094 319.531758 
L 203.154179 319.531758 
L 194.783933 319.531758 
L 186.272036 319.531758 
L 177.640553 319.531758 
L 168.970632 319.531758 
L 160.134859 319.531758 
L 151.37952 319.531758 
L 142.548729 319.531758 
L 133.651027 319.531758 
L 125.095709 319.531758 
L 116.244275 319.531758 
L 107.436974 319.531758 
L 98.539272 319.531758 
L 89.652247 319.531758 
L 80.754545 319.531758 
z
" clip-path="url(#p7e1aefce16)" style="fill: #1f77b4; fill-opacity: 0.1"/>
   </g>
   <g id="PolyCollection_2">
    <path d="M 80.754545 319.531758 
L 80.754545 319.531758 
L 84.313626 288.743747 
L 87.872707 112.009345 
L 91.431788 117.715335 
L 94.990868 120.677685 
L 98.549949 121.210009 
L 102.10903 108.541871 
L 105.668111 106.138963 
L 109.227191 101.415758 
L 112.786272 107.579908 
L 116.345353 105.736904 
L 119.904434 98.398766 
L 123.463514 101.660917 
L 127.022595 94.509404 
L 130.581676 97.146034 
L 134.140757 99.675101 
L 137.699837 96.455563 
L 141.258918 99.414848 
L 144.817999 99.103878 
L 148.37708 106.335144 
L 151.93616 95.731676 
L 155.495241 99.598772 
L 159.054322 99.492074 
L 162.613402 111.629783 
L 166.172483 99.373935 
L 169.731564 105.526026 
L 173.290645 115.954445 
L 176.849725 101.848574 
L 180.408806 102.380718 
L 183.967887 102.143301 
L 187.526968 100.127189 
L 191.086048 101.214865 
L 194.645129 101.806249 
L 198.20421 96.37036 
L 201.763291 105.717441 
L 205.322371 99.107047 
L 208.881452 99.344455 
L 212.440533 97.974654 
L 215.999614 95.783708 
L 219.558694 94.258434 
L 223.117775 95.406574 
L 226.676856 96.856269 
L 230.235937 94.15037 
L 233.795017 95.417031 
L 237.354098 95.850985 
L 240.913179 103.217511 
L 244.47226 100.158607 
L 248.03134 102.28215 
L 251.590421 104.430869 
L 255.149502 118.91321 
L 258.708582 94.28222 
L 262.267663 114.401751 
L 265.826744 117.186987 
L 269.385825 100.571178 
L 272.944905 95.589849 
L 276.503986 93.422236 
L 280.063067 96.749643 
L 283.622148 95.459389 
L 287.181228 96.718931 
L 290.740309 100.776263 
L 294.29939 93.604478 
L 297.858471 100.398744 
L 301.417551 99.254278 
L 304.976632 96.691881 
L 308.535713 99.35071 
L 312.094794 97.291861 
L 315.653874 95.822611 
L 319.212955 96.567125 
L 322.772036 95.401767 
L 326.331117 100.663383 
L 329.890197 101.496256 
L 333.449278 100.945675 
L 337.008359 95.93819 
L 340.567439 93.51299 
L 344.12652 96.058929 
L 347.685601 94.298058 
L 351.244682 95.857294 
L 354.803762 93.988856 
L 358.362843 94.265203 
L 361.921924 93.136562 
L 365.481005 93.115501 
L 369.040085 95.812443 
L 372.599166 93.476038 
L 376.158247 94.653307 
L 379.717328 94.085285 
L 383.276408 94.48765 
L 386.835489 93.774511 
L 390.39457 94.489153 
L 393.953651 92.611529 
L 397.512731 91.297297 
L 401.071812 95.550211 
L 404.630893 113.90429 
L 408.189974 97.120899 
L 411.749054 94.105553 
L 415.308135 107.492087 
L 418.867216 92.435274 
L 422.426297 100.318575 
L 425.985377 95.942198 
L 429.544458 101.262345 
L 433.103539 96.818657 
L 433.103539 80.289652 
L 433.103539 80.289652 
L 429.544458 75.997396 
L 425.985377 81.122845 
L 422.426297 78.076909 
L 418.867216 81.363157 
L 415.308135 70.048886 
L 411.749054 79.855127 
L 408.189974 80.311908 
L 404.630893 65.854086 
L 401.071812 81.114617 
L 397.512731 81.019259 
L 393.953651 80.765054 
L 390.39457 80.877684 
L 386.835489 80.954147 
L 383.276408 80.90082 
L 379.717328 80.253975 
L 376.158247 81.524775 
L 372.599166 80.430559 
L 369.040085 81.512198 
L 365.481005 81.212943 
L 361.921924 81.300047 
L 358.362843 80.495905 
L 354.803762 80.923684 
L 351.244682 80.483036 
L 347.685601 81.198579 
L 344.12652 80.530183 
L 340.567439 80.620755 
L 337.008359 80.337241 
L 333.449278 79.450879 
L 329.890197 83.248571 
L 326.331117 77.407603 
L 322.772036 81.089996 
L 319.212955 80.205869 
L 315.653874 79.43606 
L 312.094794 80.162579 
L 308.535713 76.567773 
L 304.976632 79.810698 
L 301.417551 82.256386 
L 297.858471 78.905334 
L 294.29939 81.134997 
L 290.740309 78.051885 
L 287.181228 81.546754 
L 283.622148 80.740326 
L 280.063067 79.796203 
L 276.503986 81.198256 
L 272.944905 81.756425 
L 269.385825 78.019005 
L 265.826744 65.848817 
L 262.267663 65.94072 
L 258.708582 80.684403 
L 255.149502 64.67424 
L 251.590421 74.548711 
L 248.03134 76.167417 
L 244.47226 78.507292 
L 240.913179 76.551681 
L 237.354098 80.402813 
L 233.795017 81.507396 
L 230.235937 81.605864 
L 226.676856 80.446739 
L 223.117775 82.350731 
L 219.558694 82.027814 
L 215.999614 80.416007 
L 212.440533 80.723695 
L 208.881452 77.569155 
L 205.322371 81.970953 
L 201.763291 76.388136 
L 198.20421 81.56001 
L 194.645129 78.655205 
L 191.086048 79.722519 
L 187.526968 80.723662 
L 183.967887 81.087202 
L 180.408806 79.692409 
L 176.849725 80.927632 
L 173.290645 72.175976 
L 169.731564 79.045734 
L 166.172483 83.110222 
L 162.613402 73.645057 
L 159.054322 82.743302 
L 155.495241 82.030874 
L 151.93616 85.227341 
L 148.37708 78.528665 
L 144.817999 83.672328 
L 141.258918 83.566873 
L 137.699837 85.033468 
L 134.140757 83.923165 
L 130.581676 86.517133 
L 127.022595 87.498823 
L 123.463514 84.230469 
L 119.904434 87.233021 
L 116.345353 83.832124 
L 112.786272 82.08647 
L 109.227191 85.16789 
L 105.668111 82.510655 
L 102.10903 83.17966 
L 98.549949 70.760303 
L 94.990868 71.692842 
L 91.431788 79.144079 
L 87.872707 81.107527 
L 84.313626 84.058427 
L 80.754545 319.531758 
z
" clip-path="url(#p7e1aefce16)" style="fill: #ff7f0e; fill-opacity: 0.1"/>
   </g>
   <g id="PolyCollection_3">
    <path d="M 80.754545 319.531758 
L 80.754545 319.531758 
L 84.204007 333.860691 
L 87.592251 319.531758 
L 91.04456 319.531758 
L 94.518934 231.558908 
L 97.915721 210.432565 
L 100.493919 319.531758 
L 104.053 319.531758 
L 107.234818 330.766561 
L 110.793899 231.404342 
L 113.986394 319.531758 
L 116.646451 189.028368 
L 119.755664 323.288571 
L 123.251393 319.531758 
L 126.699431 319.531758 
L 129.823592 319.531758 
L 133.327151 319.531758 
L 136.657027 319.531758 
L 139.544865 328.199139 
L 142.735937 319.531758 
L 145.922737 319.531758 
L 149.317389 319.531758 
L 152.647976 323.936485 
L 155.439719 309.514644 
L 158.529713 303.134587 
L 161.215396 332.134517 
L 164.424975 336.968314 
L 167.706447 332.808533 
L 170.913891 334.739172 
L 173.762579 319.531758 
L 176.668924 319.531758 
L 180.132622 319.531758 
L 183.657535 319.531758 
L 186.977446 322.823203 
L 190.23614 328.692517 
L 193.692007 319.531758 
L 197.251088 319.531758 
L 200.713362 319.531758 
L 204.272443 319.531758 
L 207.82227 319.531758 
L 210.912975 319.531758 
L 214.409416 319.531758 
L 217.968497 319.531758 
L 221.310474 319.531758 
L 223.929245 319.531758 
L 227.058389 319.531758 
L 230.490767 319.531758 
L 233.955176 319.531758 
L 237.512833 319.531758 
L 240.851251 319.531758 
L 244.410332 319.531758 
L 247.969412 329.944256 
L 251.262986 175.645223 
L 254.09459 330.102742 
L 257.434432 319.531758 
L 260.993512 319.531758 
L 264.307728 319.531758 
L 267.379215 319.531758 
L 270.766748 319.531758 
L 273.699431 319.531758 
L 277.009376 319.531758 
L 280.302237 319.531758 
L 283.513952 319.531758 
L 286.815355 319.531758 
L 289.76085 319.531758 
L 292.997478 326.989914 
L 295.844031 319.531758 
L 299.403112 330.16554 
L 302.535815 319.531758 
L 306.094895 319.531758 
L 309.653976 322.290763 
L 313.055745 319.531758 
L 316.217633 319.531758 
L 319.741834 326.076516 
L 323.127944 319.531758 
L 326.590218 319.531758 
L 330.149298 319.531758 
L 333.708379 319.531758 
L 337.114419 319.531758 
L 340.236445 294.911815 
L 343.268782 319.531758 
L 346.827863 319.531758 
L 349.986191 319.531758 
L 353.545272 319.531758 
L 356.225259 338.185864 
L 359.657637 319.531758 
L 363.012426 319.531758 
L 366.532357 319.531758 
L 369.529815 315.903298 
L 373.063982 319.531758 
L 376.466463 322.810941 
L 379.448973 319.531758 
L 382.557474 325.001364 
L 385.463108 319.531758 
L 388.545983 319.531758 
L 392.105064 319.531758 
L 395.664145 319.531758 
L 398.974802 333.415998 
L 402.234208 276.136307 
L 405.309965 319.531758 
L 408.869046 319.531758 
L 412.382571 319.531758 
L 415.941651 319.531758 
L 419.500732 338.58 
L 422.725971 335.765821 
L 425.964023 319.531758 
L 429.123775 319.531758 
L 432.682855 321.70992 
L 435.845455 319.531758 
L 435.845455 319.531758 
L 435.845455 319.531758 
L 432.682855 316.86685 
L 429.123775 319.531758 
L 425.964023 319.531758 
L 422.725971 294.255021 
L 419.500732 242.474109 
L 415.941651 319.531758 
L 412.382571 319.531758 
L 408.869046 319.531758 
L 405.309965 319.531758 
L 402.234208 166.216584 
L 398.974802 295.999115 
L 395.664145 319.531758 
L 392.105064 319.531758 
L 388.545983 319.531758 
L 385.463108 319.531758 
L 382.557474 312.839877 
L 379.448973 319.531758 
L 376.466463 314.738252 
L 373.063982 319.531758 
L 369.529815 140.835666 
L 366.532357 319.531758 
L 363.012426 319.531758 
L 359.657637 319.531758 
L 356.225259 184.231475 
L 353.545272 319.531758 
L 349.986191 319.531758 
L 346.827863 319.531758 
L 343.268782 319.531758 
L 340.236445 140.583353 
L 337.114419 319.531758 
L 333.708379 319.531758 
L 330.149298 319.531758 
L 326.590218 319.531758 
L 323.127944 319.531758 
L 319.741834 311.288796 
L 316.217633 319.531758 
L 313.055745 319.531758 
L 309.653976 316.156208 
L 306.094895 319.531758 
L 302.535815 319.531758 
L 299.403112 303.587028 
L 295.844031 319.531758 
L 292.997478 309.499253 
L 289.76085 319.531758 
L 286.815355 319.531758 
L 283.513952 319.531758 
L 280.302237 319.531758 
L 277.009376 319.531758 
L 273.699431 319.531758 
L 270.766748 319.531758 
L 267.379215 319.531758 
L 264.307728 319.531758 
L 260.993512 319.531758 
L 257.434432 319.531758 
L 254.09459 295.81861 
L 251.262986 93.45824 
L 247.969412 294.862987 
L 244.410332 319.531758 
L 240.851251 319.531758 
L 237.512833 319.531758 
L 233.955176 319.531758 
L 230.490767 319.531758 
L 227.058389 319.531758 
L 223.929245 319.531758 
L 221.310474 319.531758 
L 217.968497 319.531758 
L 214.409416 319.531758 
L 210.912975 319.531758 
L 207.82227 319.531758 
L 204.272443 319.531758 
L 200.713362 319.531758 
L 197.251088 319.531758 
L 193.692007 319.531758 
L 190.23614 305.395366 
L 186.977446 315.504786 
L 183.657535 319.531758 
L 180.132622 319.531758 
L 176.668924 319.531758 
L 173.762579 319.531758 
L 170.913891 255.30353 
L 167.706447 289.143129 
L 164.424975 294.8589 
L 161.215396 297.194063 
L 158.529713 179.704825 
L 155.439719 219.760418 
L 152.647976 314.142721 
L 149.317389 319.531758 
L 145.922737 319.531758 
L 142.735937 319.531758 
L 139.544865 304.525852 
L 136.657027 319.531758 
L 133.327151 319.531758 
L 129.823592 319.531758 
L 126.699431 319.531758 
L 123.251393 319.531758 
L 119.755664 314.120007 
L 116.646451 128.825496 
L 113.986394 319.531758 
L 110.793899 71.8363 
L 107.234818 272.450755 
L 104.053 319.531758 
L 100.493919 319.531758 
L 97.915721 134.46279 
L 94.518934 155.391375 
L 91.04456 319.531758 
L 87.592251 319.531758 
L 84.204007 271.682194 
L 80.754545 319.531758 
z
" clip-path="url(#p7e1aefce16)" style="fill: #2ca02c; fill-opacity: 0.1"/>
   </g>
   <g id="matplotlib.axis_1">
    <g id="xtick_1">
     <g id="line2d_1">
      <defs>
       <path id="me115e89c28" d="M 0 0 
L 0 3.5 
" style="stroke: #000000; stroke-width: 0.8"/>
      </defs>
      <g>
       <use xlink:href="#me115e89c28" x="80.754545" y="352.44" style="stroke: #000000; stroke-width: 0.8"/>
      </g>
     </g>
     <g id="text_1">
      <!-- 0 -->
      <g transform="translate(77.573295 367.038437) scale(0.1 -0.1)">
       <defs>
        <path id="DejaVuSans-30" d="M 2034 4250 
Q 1547 4250 1301 3770 
Q 1056 3291 1056 2328 
Q 1056 1369 1301 889 
Q 1547 409 2034 409 
Q 2525 409 2770 889 
Q 3016 1369 3016 2328 
Q 3016 3291 2770 3770 
Q 2525 4250 2034 4250 
z
M 2034 4750 
Q 2819 4750 3233 4129 
Q 3647 3509 3647 2328 
Q 3647 1150 3233 529 
Q 2819 -91 2034 -91 
Q 1250 -91 836 529 
Q 422 1150 422 2328 
Q 422 3509 836 4129 
Q 1250 4750 2034 4750 
z
" transform="scale(0.015625)"/>
       </defs>
       <use xlink:href="#DejaVuSans-30"/>
      </g>
     </g>
    </g>
    <g id="xtick_2">
     <g id="line2d_2">
      <g>
       <use xlink:href="#me115e89c28" x="151.93616" y="352.44" style="stroke: #000000; stroke-width: 0.8"/>
      </g>
     </g>
     <g id="text_2">
      <!-- 100000 -->
      <g transform="translate(132.84866 367.038437) scale(0.1 -0.1)">
       <defs>
        <path id="DejaVuSans-31" d="M 794 531 
L 1825 531 
L 1825 4091 
L 703 3866 
L 703 4441 
L 1819 4666 
L 2450 4666 
L 2450 531 
L 3481 531 
L 3481 0 
L 794 0 
L 794 531 
z
" transform="scale(0.015625)"/>
       </defs>
       <use xlink:href="#DejaVuSans-31"/>
       <use xlink:href="#DejaVuSans-30" x="63.623047"/>
       <use xlink:href="#DejaVuSans-30" x="127.246094"/>
       <use xlink:href="#DejaVuSans-30" x="190.869141"/>
       <use xlink:href="#DejaVuSans-30" x="254.492188"/>
       <use xlink:href="#DejaVuSans-30" x="318.115234"/>
      </g>
     </g>
    </g>
    <g id="xtick_3">
     <g id="line2d_3">
      <g>
       <use xlink:href="#me115e89c28" x="223.117775" y="352.44" style="stroke: #000000; stroke-width: 0.8"/>
      </g>
     </g>
     <g id="text_3">
      <!-- 200000 -->
      <g transform="translate(204.030275 367.038437) scale(0.1 -0.1)">
       <defs>
        <path id="DejaVuSans-32" d="M 1228 531 
L 3431 531 
L 3431 0 
L 469 0 
L 469 531 
Q 828 903 1448 1529 
Q 2069 2156 2228 2338 
Q 2531 2678 2651 2914 
Q 2772 3150 2772 3378 
Q 2772 3750 2511 3984 
Q 2250 4219 1831 4219 
Q 1534 4219 1204 4116 
Q 875 4013 500 3803 
L 500 4441 
Q 881 4594 1212 4672 
Q 1544 4750 1819 4750 
Q 2544 4750 2975 4387 
Q 3406 4025 3406 3419 
Q 3406 3131 3298 2873 
Q 3191 2616 2906 2266 
Q 2828 2175 2409 1742 
Q 1991 1309 1228 531 
z
" transform="scale(0.015625)"/>
       </defs>
       <use xlink:href="#DejaVuSans-32"/>
       <use xlink:href="#DejaVuSans-30" x="63.623047"/>
       <use xlink:href="#DejaVuSans-30" x="127.246094"/>
       <use xlink:href="#DejaVuSans-30" x="190.869141"/>
       <use xlink:href="#DejaVuSans-30" x="254.492188"/>
       <use xlink:href="#DejaVuSans-30" x="318.115234"/>
      </g>
     </g>
    </g>
    <g id="xtick_4">
     <g id="line2d_4">
      <g>
       <use xlink:href="#me115e89c28" x="294.29939" y="352.44" style="stroke: #000000; stroke-width: 0.8"/>
      </g>
     </g>
     <g id="text_4">
      <!-- 300000 -->
      <g transform="translate(275.21189 367.038437) scale(0.1 -0.1)">
       <defs>
        <path id="DejaVuSans-33" d="M 2597 2516 
Q 3050 2419 3304 2112 
Q 3559 1806 3559 1356 
Q 3559 666 3084 287 
Q 2609 -91 1734 -91 
Q 1441 -91 1130 -33 
Q 819 25 488 141 
L 488 750 
Q 750 597 1062 519 
Q 1375 441 1716 441 
Q 2309 441 2620 675 
Q 2931 909 2931 1356 
Q 2931 1769 2642 2001 
Q 2353 2234 1838 2234 
L 1294 2234 
L 1294 2753 
L 1863 2753 
Q 2328 2753 2575 2939 
Q 2822 3125 2822 3475 
Q 2822 3834 2567 4026 
Q 2313 4219 1838 4219 
Q 1578 4219 1281 4162 
Q 984 4106 628 3988 
L 628 4550 
Q 988 4650 1302 4700 
Q 1616 4750 1894 4750 
Q 2613 4750 3031 4423 
Q 3450 4097 3450 3541 
Q 3450 3153 3228 2886 
Q 3006 2619 2597 2516 
z
" transform="scale(0.015625)"/>
       </defs>
       <use xlink:href="#DejaVuSans-33"/>
       <use xlink:href="#DejaVuSans-30" x="63.623047"/>
       <use xlink:href="#DejaVuSans-30" x="127.246094"/>
       <use xlink:href="#DejaVuSans-30" x="190.869141"/>
       <use xlink:href="#DejaVuSans-30" x="254.492188"/>
       <use xlink:href="#DejaVuSans-30" x="318.115234"/>
      </g>
     </g>
    </g>
    <g id="xtick_5">
     <g id="line2d_5">
      <g>
       <use xlink:href="#me115e89c28" x="365.481005" y="352.44" style="stroke: #000000; stroke-width: 0.8"/>
      </g>
     </g>
     <g id="text_5">
      <!-- 400000 -->
      <g transform="translate(346.393505 367.038437) scale(0.1 -0.1)">
       <defs>
        <path id="DejaVuSans-34" d="M 2419 4116 
L 825 1625 
L 2419 1625 
L 2419 4116 
z
M 2253 4666 
L 3047 4666 
L 3047 1625 
L 3713 1625 
L 3713 1100 
L 3047 1100 
L 3047 0 
L 2419 0 
L 2419 1100 
L 313 1100 
L 313 1709 
L 2253 4666 
z
" transform="scale(0.015625)"/>
       </defs>
       <use xlink:href="#DejaVuSans-34"/>
       <use xlink:href="#DejaVuSans-30" x="63.623047"/>
       <use xlink:href="#DejaVuSans-30" x="127.246094"/>
       <use xlink:href="#DejaVuSans-30" x="190.869141"/>
       <use xlink:href="#DejaVuSans-30" x="254.492188"/>
       <use xlink:href="#DejaVuSans-30" x="318.115234"/>
      </g>
     </g>
    </g>
    <g id="xtick_6">
     <g id="line2d_6">
      <g>
       <use xlink:href="#me115e89c28" x="436.662619" y="352.44" style="stroke: #000000; stroke-width: 0.8"/>
      </g>
     </g>
     <g id="text_6">
      <!-- 500000 -->
      <g transform="translate(417.575119 367.038437) scale(0.1 -0.1)">
       <defs>
        <path id="DejaVuSans-35" d="M 691 4666 
L 3169 4666 
L 3169 4134 
L 1269 4134 
L 1269 2991 
Q 1406 3038 1543 3061 
Q 1681 3084 1819 3084 
Q 2600 3084 3056 2656 
Q 3513 2228 3513 1497 
Q 3513 744 3044 326 
Q 2575 -91 1722 -91 
Q 1428 -91 1123 -41 
Q 819 9 494 109 
L 494 744 
Q 775 591 1075 516 
Q 1375 441 1709 441 
Q 2250 441 2565 725 
Q 2881 1009 2881 1497 
Q 2881 1984 2565 2268 
Q 2250 2553 1709 2553 
Q 1456 2553 1204 2497 
Q 953 2441 691 2322 
L 691 4666 
z
" transform="scale(0.015625)"/>
       </defs>
       <use xlink:href="#DejaVuSans-35"/>
       <use xlink:href="#DejaVuSans-30" x="63.623047"/>
       <use xlink:href="#DejaVuSans-30" x="127.246094"/>
       <use xlink:href="#DejaVuSans-30" x="190.869141"/>
       <use xlink:href="#DejaVuSans-30" x="254.492188"/>
       <use xlink:href="#DejaVuSans-30" x="318.115234"/>
      </g>
     </g>
    </g>
    <g id="text_7">
     <!-- Timesteps -->
     <g transform="translate(232.646094 380.716563) scale(0.1 -0.1)">
      <defs>
       <path id="DejaVuSans-54" d="M -19 4666 
L 3928 4666 
L 3928 4134 
L 2272 4134 
L 2272 0 
L 1638 0 
L 1638 4134 
L -19 4134 
L -19 4666 
z
" transform="scale(0.015625)"/>
       <path id="DejaVuSans-69" d="M 603 3500 
L 1178 3500 
L 1178 0 
L 603 0 
L 603 3500 
z
M 603 4863 
L 1178 4863 
L 1178 4134 
L 603 4134 
L 603 4863 
z
" transform="scale(0.015625)"/>
       <path id="DejaVuSans-6d" d="M 3328 2828 
Q 3544 3216 3844 3400 
Q 4144 3584 4550 3584 
Q 5097 3584 5394 3201 
Q 5691 2819 5691 2113 
L 5691 0 
L 5113 0 
L 5113 2094 
Q 5113 2597 4934 2840 
Q 4756 3084 4391 3084 
Q 3944 3084 3684 2787 
Q 3425 2491 3425 1978 
L 3425 0 
L 2847 0 
L 2847 2094 
Q 2847 2600 2669 2842 
Q 2491 3084 2119 3084 
Q 1678 3084 1418 2786 
Q 1159 2488 1159 1978 
L 1159 0 
L 581 0 
L 581 3500 
L 1159 3500 
L 1159 2956 
Q 1356 3278 1631 3431 
Q 1906 3584 2284 3584 
Q 2666 3584 2933 3390 
Q 3200 3197 3328 2828 
z
" transform="scale(0.015625)"/>
       <path id="DejaVuSans-65" d="M 3597 1894 
L 3597 1613 
L 953 1613 
Q 991 1019 1311 708 
Q 1631 397 2203 397 
Q 2534 397 2845 478 
Q 3156 559 3463 722 
L 3463 178 
Q 3153 47 2828 -22 
Q 2503 -91 2169 -91 
Q 1331 -91 842 396 
Q 353 884 353 1716 
Q 353 2575 817 3079 
Q 1281 3584 2069 3584 
Q 2775 3584 3186 3129 
Q 3597 2675 3597 1894 
z
M 3022 2063 
Q 3016 2534 2758 2815 
Q 2500 3097 2075 3097 
Q 1594 3097 1305 2825 
Q 1016 2553 972 2059 
L 3022 2063 
z
" transform="scale(0.015625)"/>
       <path id="DejaVuSans-73" d="M 2834 3397 
L 2834 2853 
Q 2591 2978 2328 3040 
Q 2066 3103 1784 3103 
Q 1356 3103 1142 2972 
Q 928 2841 928 2578 
Q 928 2378 1081 2264 
Q 1234 2150 1697 2047 
L 1894 2003 
Q 2506 1872 2764 1633 
Q 3022 1394 3022 966 
Q 3022 478 2636 193 
Q 2250 -91 1575 -91 
Q 1294 -91 989 -36 
Q 684 19 347 128 
L 347 722 
Q 666 556 975 473 
Q 1284 391 1588 391 
Q 1994 391 2212 530 
Q 2431 669 2431 922 
Q 2431 1156 2273 1281 
Q 2116 1406 1581 1522 
L 1381 1569 
Q 847 1681 609 1914 
Q 372 2147 372 2553 
Q 372 3047 722 3315 
Q 1072 3584 1716 3584 
Q 2034 3584 2315 3537 
Q 2597 3491 2834 3397 
z
" transform="scale(0.015625)"/>
       <path id="DejaVuSans-74" d="M 1172 4494 
L 1172 3500 
L 2356 3500 
L 2356 3053 
L 1172 3053 
L 1172 1153 
Q 1172 725 1289 603 
Q 1406 481 1766 481 
L 2356 481 
L 2356 0 
L 1766 0 
Q 1100 0 847 248 
Q 594 497 594 1153 
L 594 3053 
L 172 3053 
L 172 3500 
L 594 3500 
L 594 4494 
L 1172 4494 
z
" transform="scale(0.015625)"/>
       <path id="DejaVuSans-70" d="M 1159 525 
L 1159 -1331 
L 581 -1331 
L 581 3500 
L 1159 3500 
L 1159 2969 
Q 1341 3281 1617 3432 
Q 1894 3584 2278 3584 
Q 2916 3584 3314 3078 
Q 3713 2572 3713 1747 
Q 3713 922 3314 415 
Q 2916 -91 2278 -91 
Q 1894 -91 1617 61 
Q 1341 213 1159 525 
z
M 3116 1747 
Q 3116 2381 2855 2742 
Q 2594 3103 2138 3103 
Q 1681 3103 1420 2742 
Q 1159 2381 1159 1747 
Q 1159 1113 1420 752 
Q 1681 391 2138 391 
Q 2594 391 2855 752 
Q 3116 1113 3116 1747 
z
" transform="scale(0.015625)"/>
      </defs>
      <use xlink:href="#DejaVuSans-54"/>
      <use xlink:href="#DejaVuSans-69" x="57.958984"/>
      <use xlink:href="#DejaVuSans-6d" x="85.742188"/>
      <use xlink:href="#DejaVuSans-65" x="183.154297"/>
      <use xlink:href="#DejaVuSans-73" x="244.677734"/>
      <use xlink:href="#DejaVuSans-74" x="296.777344"/>
      <use xlink:href="#DejaVuSans-65" x="335.986328"/>
      <use xlink:href="#DejaVuSans-70" x="397.509766"/>
      <use xlink:href="#DejaVuSans-73" x="460.986328"/>
     </g>
    </g>
   </g>
   <g id="matplotlib.axis_2">
    <g id="ytick_1">
     <g id="line2d_7">
      <path d="M 63 319.531758 
L 453.6 319.531758 
" clip-path="url(#p7e1aefce16)" style="fill: none; stroke-dasharray: 2.96,1.28; stroke-dashoffset: 0; stroke: #b0b0b0; stroke-width: 0.8"/>
     </g>
     <g id="line2d_8">
      <defs>
       <path id="m45fb98a488" d="M 0 0 
L -3.5 0 
" style="stroke: #000000; stroke-width: 0.8"/>
      </defs>
      <g>
       <use xlink:href="#m45fb98a488" x="63" y="319.531758" style="stroke: #000000; stroke-width: 0.8"/>
      </g>
     </g>
     <g id="text_8">
      <!-- −500 -->
      <g transform="translate(28.532812 323.330977) scale(0.1 -0.1)">
       <defs>
        <path id="DejaVuSans-2212" d="M 678 2272 
L 4684 2272 
L 4684 1741 
L 678 1741 
L 678 2272 
z
" transform="scale(0.015625)"/>
       </defs>
       <use xlink:href="#DejaVuSans-2212"/>
       <use xlink:href="#DejaVuSans-35" x="83.789062"/>
       <use xlink:href="#DejaVuSans-30" x="147.412109"/>
       <use xlink:href="#DejaVuSans-30" x="211.035156"/>
      </g>
     </g>
    </g>
    <g id="ytick_2">
     <g id="line2d_9">
      <path d="M 63 265.448775 
L 453.6 265.448775 
" clip-path="url(#p7e1aefce16)" style="fill: none; stroke-dasharray: 2.96,1.28; stroke-dashoffset: 0; stroke: #b0b0b0; stroke-width: 0.8"/>
     </g>
     <g id="line2d_10">
      <g>
       <use xlink:href="#m45fb98a488" x="63" y="265.448775" style="stroke: #000000; stroke-width: 0.8"/>
      </g>
     </g>
     <g id="text_9">
      <!-- −400 -->
      <g transform="translate(28.532812 269.247994) scale(0.1 -0.1)">
       <use xlink:href="#DejaVuSans-2212"/>
       <use xlink:href="#DejaVuSans-34" x="83.789062"/>
       <use xlink:href="#DejaVuSans-30" x="147.412109"/>
       <use xlink:href="#DejaVuSans-30" x="211.035156"/>
      </g>
     </g>
    </g>
    <g id="ytick_3">
     <g id="line2d_11">
      <path d="M 63 211.365792 
L 453.6 211.365792 
" clip-path="url(#p7e1aefce16)" style="fill: none; stroke-dasharray: 2.96,1.28; stroke-dashoffset: 0; stroke: #b0b0b0; stroke-width: 0.8"/>
     </g>
     <g id="line2d_12">
      <g>
       <use xlink:href="#m45fb98a488" x="63" y="211.365792" style="stroke: #000000; stroke-width: 0.8"/>
      </g>
     </g>
     <g id="text_10">
      <!-- −300 -->
      <g transform="translate(28.532812 215.165011) scale(0.1 -0.1)">
       <use xlink:href="#DejaVuSans-2212"/>
       <use xlink:href="#DejaVuSans-33" x="83.789062"/>
       <use xlink:href="#DejaVuSans-30" x="147.412109"/>
       <use xlink:href="#DejaVuSans-30" x="211.035156"/>
      </g>
     </g>
    </g>
    <g id="ytick_4">
     <g id="line2d_13">
      <path d="M 63 157.282809 
L 453.6 157.282809 
" clip-path="url(#p7e1aefce16)" style="fill: none; stroke-dasharray: 2.96,1.28; stroke-dashoffset: 0; stroke: #b0b0b0; stroke-width: 0.8"/>
     </g>
     <g id="line2d_14">
      <g>
       <use xlink:href="#m45fb98a488" x="63" y="157.282809" style="stroke: #000000; stroke-width: 0.8"/>
      </g>
     </g>
     <g id="text_11">
      <!-- −200 -->
      <g transform="translate(28.532812 161.082028) scale(0.1 -0.1)">
       <use xlink:href="#DejaVuSans-2212"/>
       <use xlink:href="#DejaVuSans-32" x="83.789062"/>
       <use xlink:href="#DejaVuSans-30" x="147.412109"/>
       <use xlink:href="#DejaVuSans-30" x="211.035156"/>
      </g>
     </g>
    </g>
    <g id="ytick_5">
     <g id="line2d_15">
      <path d="M 63 103.199826 
L 453.6 103.199826 
" clip-path="url(#p7e1aefce16)" style="fill: none; stroke-dasharray: 2.96,1.28; stroke-dashoffset: 0; stroke: #b0b0b0; stroke-width: 0.8"/>
     </g>
     <g id="line2d_16">
      <g>
       <use xlink:href="#m45fb98a488" x="63" y="103.199826" style="stroke: #000000; stroke-width: 0.8"/>
      </g>
     </g>
     <g id="text_12">
      <!-- −100 -->
      <g transform="translate(28.532812 106.999045) scale(0.1 -0.1)">
       <use xlink:href="#DejaVuSans-2212"/>
       <use xlink:href="#DejaVuSans-31" x="83.789062"/>
       <use xlink:href="#DejaVuSans-30" x="147.412109"/>
       <use xlink:href="#DejaVuSans-30" x="211.035156"/>
      </g>
     </g>
    </g>
    <g id="ytick_6">
     <g id="line2d_17">
      <path d="M 63 49.116843 
L 453.6 49.116843 
" clip-path="url(#p7e1aefce16)" style="fill: none; stroke-dasharray: 2.96,1.28; stroke-dashoffset: 0; stroke: #b0b0b0; stroke-width: 0.8"/>
     </g>
     <g id="line2d_18">
      <g>
       <use xlink:href="#m45fb98a488" x="63" y="49.116843" style="stroke: #000000; stroke-width: 0.8"/>
      </g>
     </g>
     <g id="text_13">
      <!-- 0 -->
      <g transform="translate(49.6375 52.916062) scale(0.1 -0.1)">
       <use xlink:href="#DejaVuSans-30"/>
      </g>
     </g>
    </g>
    <g id="text_14">
     <!-- Mean rewards -->
     <g transform="translate(22.453125 235.112031) rotate(-90) scale(0.1 -0.1)">
      <defs>
       <path id="DejaVuSans-4d" d="M 628 4666 
L 1569 4666 
L 2759 1491 
L 3956 4666 
L 4897 4666 
L 4897 0 
L 4281 0 
L 4281 4097 
L 3078 897 
L 2444 897 
L 1241 4097 
L 1241 0 
L 628 0 
L 628 4666 
z
" transform="scale(0.015625)"/>
       <path id="DejaVuSans-61" d="M 2194 1759 
Q 1497 1759 1228 1600 
Q 959 1441 959 1056 
Q 959 750 1161 570 
Q 1363 391 1709 391 
Q 2188 391 2477 730 
Q 2766 1069 2766 1631 
L 2766 1759 
L 2194 1759 
z
M 3341 1997 
L 3341 0 
L 2766 0 
L 2766 531 
Q 2569 213 2275 61 
Q 1981 -91 1556 -91 
Q 1019 -91 701 211 
Q 384 513 384 1019 
Q 384 1609 779 1909 
Q 1175 2209 1959 2209 
L 2766 2209 
L 2766 2266 
Q 2766 2663 2505 2880 
Q 2244 3097 1772 3097 
Q 1472 3097 1187 3025 
Q 903 2953 641 2809 
L 641 3341 
Q 956 3463 1253 3523 
Q 1550 3584 1831 3584 
Q 2591 3584 2966 3190 
Q 3341 2797 3341 1997 
z
" transform="scale(0.015625)"/>
       <path id="DejaVuSans-6e" d="M 3513 2113 
L 3513 0 
L 2938 0 
L 2938 2094 
Q 2938 2591 2744 2837 
Q 2550 3084 2163 3084 
Q 1697 3084 1428 2787 
Q 1159 2491 1159 1978 
L 1159 0 
L 581 0 
L 581 3500 
L 1159 3500 
L 1159 2956 
Q 1366 3272 1645 3428 
Q 1925 3584 2291 3584 
Q 2894 3584 3203 3211 
Q 3513 2838 3513 2113 
z
" transform="scale(0.015625)"/>
       <path id="DejaVuSans-20" transform="scale(0.015625)"/>
       <path id="DejaVuSans-72" d="M 2631 2963 
Q 2534 3019 2420 3045 
Q 2306 3072 2169 3072 
Q 1681 3072 1420 2755 
Q 1159 2438 1159 1844 
L 1159 0 
L 581 0 
L 581 3500 
L 1159 3500 
L 1159 2956 
Q 1341 3275 1631 3429 
Q 1922 3584 2338 3584 
Q 2397 3584 2469 3576 
Q 2541 3569 2628 3553 
L 2631 2963 
z
" transform="scale(0.015625)"/>
       <path id="DejaVuSans-77" d="M 269 3500 
L 844 3500 
L 1563 769 
L 2278 3500 
L 2956 3500 
L 3675 769 
L 4391 3500 
L 4966 3500 
L 4050 0 
L 3372 0 
L 2619 2869 
L 1863 0 
L 1184 0 
L 269 3500 
z
" transform="scale(0.015625)"/>
       <path id="DejaVuSans-64" d="M 2906 2969 
L 2906 4863 
L 3481 4863 
L 3481 0 
L 2906 0 
L 2906 525 
Q 2725 213 2448 61 
Q 2172 -91 1784 -91 
Q 1150 -91 751 415 
Q 353 922 353 1747 
Q 353 2572 751 3078 
Q 1150 3584 1784 3584 
Q 2172 3584 2448 3432 
Q 2725 3281 2906 2969 
z
M 947 1747 
Q 947 1113 1208 752 
Q 1469 391 1925 391 
Q 2381 391 2643 752 
Q 2906 1113 2906 1747 
Q 2906 2381 2643 2742 
Q 2381 3103 1925 3103 
Q 1469 3103 1208 2742 
Q 947 2381 947 1747 
z
" transform="scale(0.015625)"/>
      </defs>
      <use xlink:href="#DejaVuSans-4d"/>
      <use xlink:href="#DejaVuSans-65" x="86.279297"/>
      <use xlink:href="#DejaVuSans-61" x="147.802734"/>
      <use xlink:href="#DejaVuSans-6e" x="209.082031"/>
      <use xlink:href="#DejaVuSans-20" x="272.460938"/>
      <use xlink:href="#DejaVuSans-72" x="304.248047"/>
      <use xlink:href="#DejaVuSans-65" x="343.111328"/>
      <use xlink:href="#DejaVuSans-77" x="404.634766"/>
      <use xlink:href="#DejaVuSans-61" x="486.421875"/>
      <use xlink:href="#DejaVuSans-72" x="547.701172"/>
      <use xlink:href="#DejaVuSans-64" x="587.064453"/>
      <use xlink:href="#DejaVuSans-73" x="650.541016"/>
     </g>
    </g>
   </g>
   <g id="line2d_19">
    <path d="M 80.754545 319.531758 
L 89.652247 319.531758 
L 98.539272 319.531758 
L 107.436974 319.531758 
L 116.244275 319.531758 
L 125.095709 319.531758 
L 133.651027 319.531758 
L 142.548729 319.531758 
L 151.37952 319.531758 
L 160.134859 319.531758 
L 168.970632 319.531758 
L 177.640553 319.531758 
L 186.272036 319.531758 
L 194.783933 319.531758 
L 203.154179 319.531758 
L 211.414094 319.531758 
L 218.125808 319.531758 
L 221.926195 106.758487 
L 224.924364 92.729361 
L 228.160281 93.129575 
L 231.025341 96.039239 
L 233.901078 96.504353 
L 236.609538 92.101998 
L 239.310881 93.605505 
L 242.082693 93.81102 
L 244.710006 94.979213 
L 247.335184 95.309119 
L 249.820846 92.772627 
L 252.352064 94.946763 
L 255.338845 97.293965 
L 257.867928 94.687165 
L 260.409111 98.110618 
L 262.798678 93.286416 
L 265.218141 92.664461 
L 267.450397 92.042507 
L 269.662721 94.95758 
L 271.848709 97.304781 
L 273.988428 94.871047 
L 276.180822 95.40106 
L 278.258613 91.647701 
L 280.329286 98.429707 
L 282.671873 96.650377 
L 284.645739 91.550352 
L 286.511409 94.973805 
L 288.636181 94.562774 
L 290.509681 95.044112 
L 292.425178 91.55576 
L 294.48375 91.274529 
L 296.496766 93.183658 
L 298.543238 92.31833 
L 300.506427 94.833189 
L 302.411247 98.743389 
L 304.302542 95.303711 
L 306.205227 92.913243 
L 308.102929 91.983016 
L 310.09459 94.281542 
L 311.963819 95.130645 
L 313.835896 94.184193 
L 315.693736 97.27774 
L 317.793594 95.130645 
L 319.564592 92.026282 
L 321.374741 93.026817 
L 323.413382 93.248557 
L 325.266951 92.550887 
L 327.233699 92.091182 
L 329.008969 93.870512 
L 330.770714 98.121434 
L 332.946024 92.972734 
L 334.754749 106.607054 
L 336.587675 96.120364 
L 338.34159 94.113885 
L 340.163128 92.853752 
L 342.011714 96.498945 
L 343.77773 92.956509 
L 345.671161 94.146335 
L 347.485581 93.821837 
L 349.28434 92.296697 
L 351.041102 94.303176 
L 352.797153 93.854287 
L 354.55605 92.54007 
L 356.255156 93.578464 
L 357.98131 94.173376 
L 359.680415 95.438918 
L 361.348912 93.264782 
L 363.020968 94.303176 
L 364.702278 93.94082 
L 366.407077 93.892145 
L 368.051373 94.946763 
L 369.79034 91.966791 
L 371.423246 92.394046 
L 373.028391 94.005719 
L 374.649908 93.973269 
L 376.335489 92.020874 
L 378.062355 100.425369 
L 379.751495 96.120364 
L 381.432805 101.014874 
L 383.089913 92.642828 
L 384.994733 93.681221 
L 386.767867 96.023014 
L 388.714684 93.351315 
" clip-path="url(#p7e1aefce16)" style="fill: none; stroke: #1f77b4; stroke-width: 1.5; stroke-linecap: square"/>
   </g>
   <g id="line2d_20">
    <path d="M 80.754545 319.531758 
L 84.313626 186.401087 
L 87.872707 96.558436 
L 91.431788 98.429707 
L 94.990868 96.185263 
L 98.549949 95.985156 
L 102.10903 95.860766 
L 105.668111 94.324809 
L 109.227191 93.291824 
L 112.786272 94.833189 
L 116.345353 94.784514 
L 119.904434 92.815894 
L 123.463514 92.945693 
L 127.022595 91.004114 
L 130.581676 91.831583 
L 134.140757 91.799133 
L 137.699837 90.744515 
L 141.258918 91.49086 
L 144.817999 91.388103 
L 148.37708 92.431904 
L 151.93616 90.479509 
L 155.495241 90.814823 
L 159.054322 91.117688 
L 162.613402 92.63742 
L 166.172483 91.242079 
L 169.731564 92.28588 
L 173.290645 94.06521 
L 176.849725 91.388103 
L 180.408806 91.036563 
L 183.967887 91.615251 
L 187.526968 90.425426 
L 191.086048 90.468692 
L 194.645129 90.230727 
L 198.20421 88.965185 
L 201.763291 91.052788 
L 205.322371 90.539 
L 208.881452 88.456805 
L 212.440533 89.349174 
L 215.999614 88.099857 
L 219.558694 88.143124 
L 223.117775 88.878652 
L 226.676856 88.651504 
L 230.235937 87.878117 
L 233.795017 88.462213 
L 237.354098 88.126899 
L 240.913179 89.884596 
L 244.47226 89.332949 
L 248.03134 89.224783 
L 251.590421 89.48979 
L 255.149502 91.793725 
L 258.708582 87.483311 
L 262.267663 90.171236 
L 265.826744 91.517902 
L 269.385825 89.295091 
L 272.944905 88.673137 
L 276.503986 87.310246 
L 280.063067 88.272923 
L 283.622148 88.099857 
L 287.181228 89.132842 
L 290.740309 89.414074 
L 294.29939 87.369737 
L 297.858471 89.652039 
L 301.417551 90.755332 
L 304.976632 88.25129 
L 308.535713 87.959242 
L 312.094794 88.72722 
L 315.653874 87.629335 
L 319.212955 88.386497 
L 322.772036 88.245881 
L 326.331117 89.035493 
L 329.890197 92.372413 
L 333.449278 90.198277 
L 337.008359 88.137716 
L 340.567439 87.066872 
L 344.12652 88.294556 
L 347.685601 87.748318 
L 351.244682 88.170165 
L 354.803762 87.45627 
L 358.362843 87.380554 
L 361.921924 87.218305 
L 365.481005 87.164222 
L 369.040085 88.66232 
L 372.599166 86.953298 
L 376.158247 88.089041 
L 379.717328 87.16963 
L 383.276408 87.694235 
L 386.835489 87.364329 
L 390.39457 87.683418 
L 393.953651 86.688292 
L 397.512731 86.158278 
L 401.071812 88.332414 
L 404.630893 89.879188 
L 408.189974 88.716403 
L 411.749054 86.98034 
L 415.308135 88.770486 
L 418.867216 86.899215 
L 422.426297 89.197742 
L 425.985377 88.532521 
L 429.544458 88.629871 
L 433.103539 88.554154 
" clip-path="url(#p7e1aefce16)" style="fill: none; stroke: #ff7f0e; stroke-width: 1.5; stroke-linecap: square"/>
   </g>
   <g id="line2d_21">
    <path d="M 80.754545 319.531758 
L 84.204007 302.771442 
L 87.592251 319.531758 
L 91.04456 319.531758 
L 94.518934 193.475142 
L 97.915721 172.447678 
L 100.493919 319.531758 
L 104.053 319.531758 
L 107.234818 301.608658 
L 110.793899 151.620321 
L 113.986394 319.531758 
L 116.646451 158.926932 
L 119.755664 318.704289 
L 123.251393 319.531758 
L 126.699431 319.531758 
L 129.823592 319.531758 
L 133.327151 319.531758 
L 136.657027 319.531758 
L 139.544865 316.362496 
L 142.735937 319.531758 
L 145.922737 319.531758 
L 149.317389 319.531758 
L 152.647976 319.039603 
L 155.439719 264.637531 
L 158.529713 241.419706 
L 161.215396 314.66429 
L 164.424975 315.913607 
L 167.706447 310.975831 
L 170.913891 295.021351 
L 173.762579 319.531758 
L 176.668924 319.531758 
L 180.132622 319.531758 
L 183.657535 319.531758 
L 186.977446 319.163994 
L 190.23614 317.043941 
L 193.692007 319.531758 
L 197.251088 319.531758 
L 200.713362 319.531758 
L 204.272443 319.531758 
L 207.82227 319.531758 
L 210.912975 319.531758 
L 214.409416 319.531758 
L 217.968497 319.531758 
L 221.310474 319.531758 
L 223.929245 319.531758 
L 227.058389 319.531758 
L 230.490767 319.531758 
L 233.955176 319.531758 
L 237.512833 319.531758 
L 240.851251 319.531758 
L 244.410332 319.531758 
L 247.969412 312.403621 
L 251.262986 134.551732 
L 254.09459 312.960676 
L 257.434432 319.531758 
L 260.993512 319.531758 
L 264.307728 319.531758 
L 267.379215 319.531758 
L 270.766748 319.531758 
L 273.699431 319.531758 
L 277.009376 319.531758 
L 280.302237 319.531758 
L 283.513952 319.531758 
L 286.815355 319.531758 
L 289.76085 319.531758 
L 292.997478 318.244584 
L 295.844031 319.531758 
L 299.403112 316.876284 
L 302.535815 319.531758 
L 306.094895 319.531758 
L 309.653976 319.223485 
L 313.055745 319.531758 
L 316.217633 319.531758 
L 319.741834 318.682656 
L 323.127944 319.531758 
L 326.590218 319.531758 
L 330.149298 319.531758 
L 333.708379 319.531758 
L 337.114419 319.531758 
L 340.236445 217.747584 
L 343.268782 319.531758 
L 346.827863 319.531758 
L 349.986191 319.531758 
L 353.545272 319.531758 
L 356.225259 261.20867 
L 359.657637 319.531758 
L 363.012426 319.531758 
L 366.532357 319.531758 
L 369.529815 228.369482 
L 373.063982 319.531758 
L 376.466463 318.774597 
L 379.448973 319.531758 
L 382.557474 318.920621 
L 385.463108 319.531758 
L 388.545983 319.531758 
L 392.105064 319.531758 
L 395.664145 319.531758 
L 398.974802 314.707556 
L 402.234208 221.176446 
L 405.309965 319.531758 
L 408.869046 319.531758 
L 412.382571 319.531758 
L 415.941651 319.531758 
L 419.500732 290.527055 
L 422.725971 315.010421 
L 425.964023 319.531758 
L 429.123775 319.531758 
L 432.682855 319.288385 
L 435.845455 319.531758 
" clip-path="url(#p7e1aefce16)" style="fill: none; stroke: #2ca02c; stroke-width: 1.5; stroke-linecap: square"/>
   </g>
   <g id="patch_3">
    <path d="M 63 352.44 
L 63 47.52 
" style="fill: none; stroke: #000000; stroke-width: 0.8; stroke-linejoin: miter; stroke-linecap: square"/>
   </g>
   <g id="patch_4">
    <path d="M 453.6 352.44 
L 453.6 47.52 
" style="fill: none; stroke: #000000; stroke-width: 0.8; stroke-linejoin: miter; stroke-linecap: square"/>
   </g>
   <g id="patch_5">
    <path d="M 63 352.44 
L 453.6 352.44 
" style="fill: none; stroke: #000000; stroke-width: 0.8; stroke-linejoin: miter; stroke-linecap: square"/>
   </g>
   <g id="patch_6">
    <path d="M 63 47.52 
L 453.6 47.52 
" style="fill: none; stroke: #000000; stroke-width: 0.8; stroke-linejoin: miter; stroke-linecap: square"/>
   </g>
   <g id="text_15">
    <!-- Acrobot - Baselines -->
    <g transform="translate(200.623125 41.52) scale(0.12 -0.12)">
     <defs>
      <path id="DejaVuSans-41" d="M 2188 4044 
L 1331 1722 
L 3047 1722 
L 2188 4044 
z
M 1831 4666 
L 2547 4666 
L 4325 0 
L 3669 0 
L 3244 1197 
L 1141 1197 
L 716 0 
L 50 0 
L 1831 4666 
z
" transform="scale(0.015625)"/>
      <path id="DejaVuSans-63" d="M 3122 3366 
L 3122 2828 
Q 2878 2963 2633 3030 
Q 2388 3097 2138 3097 
Q 1578 3097 1268 2742 
Q 959 2388 959 1747 
Q 959 1106 1268 751 
Q 1578 397 2138 397 
Q 2388 397 2633 464 
Q 2878 531 3122 666 
L 3122 134 
Q 2881 22 2623 -34 
Q 2366 -91 2075 -91 
Q 1284 -91 818 406 
Q 353 903 353 1747 
Q 353 2603 823 3093 
Q 1294 3584 2113 3584 
Q 2378 3584 2631 3529 
Q 2884 3475 3122 3366 
z
" transform="scale(0.015625)"/>
      <path id="DejaVuSans-6f" d="M 1959 3097 
Q 1497 3097 1228 2736 
Q 959 2375 959 1747 
Q 959 1119 1226 758 
Q 1494 397 1959 397 
Q 2419 397 2687 759 
Q 2956 1122 2956 1747 
Q 2956 2369 2687 2733 
Q 2419 3097 1959 3097 
z
M 1959 3584 
Q 2709 3584 3137 3096 
Q 3566 2609 3566 1747 
Q 3566 888 3137 398 
Q 2709 -91 1959 -91 
Q 1206 -91 779 398 
Q 353 888 353 1747 
Q 353 2609 779 3096 
Q 1206 3584 1959 3584 
z
" transform="scale(0.015625)"/>
      <path id="DejaVuSans-62" d="M 3116 1747 
Q 3116 2381 2855 2742 
Q 2594 3103 2138 3103 
Q 1681 3103 1420 2742 
Q 1159 2381 1159 1747 
Q 1159 1113 1420 752 
Q 1681 391 2138 391 
Q 2594 391 2855 752 
Q 3116 1113 3116 1747 
z
M 1159 2969 
Q 1341 3281 1617 3432 
Q 1894 3584 2278 3584 
Q 2916 3584 3314 3078 
Q 3713 2572 3713 1747 
Q 3713 922 3314 415 
Q 2916 -91 2278 -91 
Q 1894 -91 1617 61 
Q 1341 213 1159 525 
L 1159 0 
L 581 0 
L 581 4863 
L 1159 4863 
L 1159 2969 
z
" transform="scale(0.015625)"/>
      <path id="DejaVuSans-2d" d="M 313 2009 
L 1997 2009 
L 1997 1497 
L 313 1497 
L 313 2009 
z
" transform="scale(0.015625)"/>
      <path id="DejaVuSans-42" d="M 1259 2228 
L 1259 519 
L 2272 519 
Q 2781 519 3026 730 
Q 3272 941 3272 1375 
Q 3272 1813 3026 2020 
Q 2781 2228 2272 2228 
L 1259 2228 
z
M 1259 4147 
L 1259 2741 
L 2194 2741 
Q 2656 2741 2882 2914 
Q 3109 3088 3109 3444 
Q 3109 3797 2882 3972 
Q 2656 4147 2194 4147 
L 1259 4147 
z
M 628 4666 
L 2241 4666 
Q 2963 4666 3353 4366 
Q 3744 4066 3744 3513 
Q 3744 3084 3544 2831 
Q 3344 2578 2956 2516 
Q 3422 2416 3680 2098 
Q 3938 1781 3938 1306 
Q 3938 681 3513 340 
Q 3088 0 2303 0 
L 628 0 
L 628 4666 
z
" transform="scale(0.015625)"/>
      <path id="DejaVuSans-6c" d="M 603 4863 
L 1178 4863 
L 1178 0 
L 603 0 
L 603 4863 
z
" transform="scale(0.015625)"/>
     </defs>
     <use xlink:href="#DejaVuSans-41"/>
     <use xlink:href="#DejaVuSans-63" x="66.658203"/>
     <use xlink:href="#DejaVuSans-72" x="121.638672"/>
     <use xlink:href="#DejaVuSans-6f" x="160.501953"/>
     <use xlink:href="#DejaVuSans-62" x="221.683594"/>
     <use xlink:href="#DejaVuSans-6f" x="285.160156"/>
     <use xlink:href="#DejaVuSans-74" x="346.341797"/>
     <use xlink:href="#DejaVuSans-20" x="385.550781"/>
     <use xlink:href="#DejaVuSans-2d" x="417.337891"/>
     <use xlink:href="#DejaVuSans-20" x="453.421875"/>
     <use xlink:href="#DejaVuSans-42" x="485.208984"/>
     <use xlink:href="#DejaVuSans-61" x="553.8125"/>
     <use xlink:href="#DejaVuSans-73" x="615.091797"/>
     <use xlink:href="#DejaVuSans-65" x="667.191406"/>
     <use xlink:href="#DejaVuSans-6c" x="728.714844"/>
     <use xlink:href="#DejaVuSans-69" x="756.498047"/>
     <use xlink:href="#DejaVuSans-6e" x="784.28125"/>
     <use xlink:href="#DejaVuSans-65" x="847.660156"/>
     <use xlink:href="#DejaVuSans-73" x="909.183594"/>
    </g>
   </g>
   <g id="legend_1">
    <g id="patch_7">
     <path d="M 353.65625 223.497187 
L 446.6 223.497187 
Q 448.6 223.497187 448.6 221.497187 
L 448.6 178.462812 
Q 448.6 176.462812 446.6 176.462812 
L 353.65625 176.462812 
Q 351.65625 176.462812 351.65625 178.462812 
L 351.65625 221.497187 
Q 351.65625 223.497187 353.65625 223.497187 
z
" style="fill: #ffffff; opacity: 0.8; stroke: #cccccc; stroke-linejoin: miter"/>
    </g>
    <g id="line2d_22">
     <path d="M 355.65625 184.56125 
L 365.65625 184.56125 
L 375.65625 184.56125 
" style="fill: none; stroke: #1f77b4; stroke-width: 1.5; stroke-linecap: square"/>
    </g>
    <g id="text_16">
     <!-- n-step DQN -->
     <g transform="translate(383.65625 188.06125) scale(0.1 -0.1)">
      <defs>
       <path id="DejaVuSans-44" d="M 1259 4147 
L 1259 519 
L 2022 519 
Q 2988 519 3436 956 
Q 3884 1394 3884 2338 
Q 3884 3275 3436 3711 
Q 2988 4147 2022 4147 
L 1259 4147 
z
M 628 4666 
L 1925 4666 
Q 3281 4666 3915 4102 
Q 4550 3538 4550 2338 
Q 4550 1131 3912 565 
Q 3275 0 1925 0 
L 628 0 
L 628 4666 
z
" transform="scale(0.015625)"/>
       <path id="DejaVuSans-51" d="M 2522 4238 
Q 1834 4238 1429 3725 
Q 1025 3213 1025 2328 
Q 1025 1447 1429 934 
Q 1834 422 2522 422 
Q 3209 422 3611 934 
Q 4013 1447 4013 2328 
Q 4013 3213 3611 3725 
Q 3209 4238 2522 4238 
z
M 3406 84 
L 4238 -825 
L 3475 -825 
L 2784 -78 
Q 2681 -84 2626 -87 
Q 2572 -91 2522 -91 
Q 1538 -91 948 567 
Q 359 1225 359 2328 
Q 359 3434 948 4092 
Q 1538 4750 2522 4750 
Q 3503 4750 4090 4092 
Q 4678 3434 4678 2328 
Q 4678 1516 4351 937 
Q 4025 359 3406 84 
z
" transform="scale(0.015625)"/>
       <path id="DejaVuSans-4e" d="M 628 4666 
L 1478 4666 
L 3547 763 
L 3547 4666 
L 4159 4666 
L 4159 0 
L 3309 0 
L 1241 3903 
L 1241 0 
L 628 0 
L 628 4666 
z
" transform="scale(0.015625)"/>
      </defs>
      <use xlink:href="#DejaVuSans-6e"/>
      <use xlink:href="#DejaVuSans-2d" x="63.378906"/>
      <use xlink:href="#DejaVuSans-73" x="99.462891"/>
      <use xlink:href="#DejaVuSans-74" x="151.5625"/>
      <use xlink:href="#DejaVuSans-65" x="190.771484"/>
      <use xlink:href="#DejaVuSans-70" x="252.294922"/>
      <use xlink:href="#DejaVuSans-20" x="315.771484"/>
      <use xlink:href="#DejaVuSans-44" x="347.558594"/>
      <use xlink:href="#DejaVuSans-51" x="424.560547"/>
      <use xlink:href="#DejaVuSans-4e" x="503.271484"/>
     </g>
    </g>
    <g id="line2d_23">
     <path d="M 355.65625 199.239375 
L 365.65625 199.239375 
L 375.65625 199.239375 
" style="fill: none; stroke: #ff7f0e; stroke-width: 1.5; stroke-linecap: square"/>
    </g>
    <g id="text_17">
     <!-- PPO -->
     <g transform="translate(383.65625 202.739375) scale(0.1 -0.1)">
      <defs>
       <path id="DejaVuSans-50" d="M 1259 4147 
L 1259 2394 
L 2053 2394 
Q 2494 2394 2734 2622 
Q 2975 2850 2975 3272 
Q 2975 3691 2734 3919 
Q 2494 4147 2053 4147 
L 1259 4147 
z
M 628 4666 
L 2053 4666 
Q 2838 4666 3239 4311 
Q 3641 3956 3641 3272 
Q 3641 2581 3239 2228 
Q 2838 1875 2053 1875 
L 1259 1875 
L 1259 0 
L 628 0 
L 628 4666 
z
" transform="scale(0.015625)"/>
       <path id="DejaVuSans-4f" d="M 2522 4238 
Q 1834 4238 1429 3725 
Q 1025 3213 1025 2328 
Q 1025 1447 1429 934 
Q 1834 422 2522 422 
Q 3209 422 3611 934 
Q 4013 1447 4013 2328 
Q 4013 3213 3611 3725 
Q 3209 4238 2522 4238 
z
M 2522 4750 
Q 3503 4750 4090 4092 
Q 4678 3434 4678 2328 
Q 4678 1225 4090 567 
Q 3503 -91 2522 -91 
Q 1538 -91 948 565 
Q 359 1222 359 2328 
Q 359 3434 948 4092 
Q 1538 4750 2522 4750 
z
" transform="scale(0.015625)"/>
      </defs>
      <use xlink:href="#DejaVuSans-50"/>
      <use xlink:href="#DejaVuSans-50" x="60.302734"/>
      <use xlink:href="#DejaVuSans-4f" x="120.605469"/>
     </g>
    </g>
    <g id="line2d_24">
     <path d="M 355.65625 213.9175 
L 365.65625 213.9175 
L 375.65625 213.9175 
" style="fill: none; stroke: #2ca02c; stroke-width: 1.5; stroke-linecap: square"/>
    </g>
    <g id="text_18">
     <!-- TAC random -->
     <g transform="translate(383.65625 217.4175) scale(0.1 -0.1)">
      <defs>
       <path id="DejaVuSans-43" d="M 4122 4306 
L 4122 3641 
Q 3803 3938 3442 4084 
Q 3081 4231 2675 4231 
Q 1875 4231 1450 3742 
Q 1025 3253 1025 2328 
Q 1025 1406 1450 917 
Q 1875 428 2675 428 
Q 3081 428 3442 575 
Q 3803 722 4122 1019 
L 4122 359 
Q 3791 134 3420 21 
Q 3050 -91 2638 -91 
Q 1578 -91 968 557 
Q 359 1206 359 2328 
Q 359 3453 968 4101 
Q 1578 4750 2638 4750 
Q 3056 4750 3426 4639 
Q 3797 4528 4122 4306 
z
" transform="scale(0.015625)"/>
      </defs>
      <use xlink:href="#DejaVuSans-54"/>
      <use xlink:href="#DejaVuSans-41" x="53.333984"/>
      <use xlink:href="#DejaVuSans-43" x="119.992188"/>
      <use xlink:href="#DejaVuSans-20" x="189.816406"/>
      <use xlink:href="#DejaVuSans-72" x="221.603516"/>
      <use xlink:href="#DejaVuSans-61" x="262.716797"/>
      <use xlink:href="#DejaVuSans-6e" x="323.996094"/>
      <use xlink:href="#DejaVuSans-64" x="387.375"/>
      <use xlink:href="#DejaVuSans-6f" x="450.851562"/>
      <use xlink:href="#DejaVuSans-6d" x="512.033203"/>
     </g>
    </g>
   </g>
  </g>
 </g>
 <defs>
  <clipPath id="p7e1aefce16">
   <rect x="63" y="47.52" width="390.6" height="304.92"/>
  </clipPath>
 </defs>
</svg>
