<?xml version="1.0" encoding="utf-8" standalone="no"?>
<!DOCTYPE svg PUBLIC "-//W3C//DTD SVG 1.1//EN"
  "http://www.w3.org/Graphics/SVG/1.1/DTD/svg11.dtd">
<svg xmlns:xlink="http://www.w3.org/1999/xlink" width="504pt" height="396pt" viewBox="0 0 504 396" xmlns="http://www.w3.org/2000/svg" version="1.1">
 <metadata>
  <rdf:RDF xmlns:dc="http://purl.org/dc/elements/1.1/" xmlns:cc="http://creativecommons.org/ns#" xmlns:rdf="http://www.w3.org/1999/02/22-rdf-syntax-ns#">
   <cc:Work>
    <dc:type rdf:resource="http://purl.org/dc/dcmitype/StillImage"/>
    <dc:date>2024-05-10T11:58:17.656328</dc:date>
    <dc:format>image/svg+xml</dc:format>
    <dc:creator>
     <cc:Agent>
      <dc:title>Matplotlib v3.8.2, https://matplotlib.org/</dc:title>
     </cc:Agent>
    </dc:creator>
   </cc:Work>
  </rdf:RDF>
 </metadata>
 <defs>
  <style type="text/css">*{stroke-linejoin: round; stroke-linecap: butt}</style>
 </defs>
 <g id="figure_1">
  <g id="patch_1">
   <path d="M 0 396 
L 504 396 
L 504 0 
L 0 0 
z
" style="fill: #ffffff"/>
  </g>
  <g id="axes_1">
   <g id="patch_2">
    <path d="M 63 352.44 
L 453.6 352.44 
L 453.6 47.52 
L 63 47.52 
z
" style="fill: #ffffff"/>
   </g>
   <g id="PolyCollection_1">
    <path d="M 80.754545 300.547045 
L 80.754545 300.547045 
L 87.836714 300.547045 
L 95.241588 312.618719 
L 101.252062 300.547045 
L 106.493788 300.547045 
L 112.664717 225.922663 
L 118.005231 308.259389 
L 124.795826 301.488528 
L 130.696735 330.314617 
L 135.714543 180.746825 
L 140.178543 322.428253 
L 145.130493 197.370315 
L 149.568747 228.349687 
L 154.494354 300.547045 
L 159.383439 152.589349 
L 164.437769 136.438352 
L 166.745206 223.27756 
L 168.841298 123.025143 
L 170.411122 109.619933 
L 171.877368 128.21549 
L 173.52742 115.630742 
L 174.942776 129.394571 
L 176.671857 136.872974 
L 178.117747 124.133915 
L 179.516339 129.964332 
L 181.103526 134.999592 
L 183.131963 135.152078 
L 185.006532 116.297159 
L 186.594915 113.339159 
L 187.882746 114.406046 
L 189.213085 108.969745 
L 190.532048 114.561958 
L 191.923455 107.796919 
L 193.169975 106.91695 
L 194.685316 107.927179 
L 196.020444 111.771342 
L 197.322045 107.784587 
L 198.623645 106.344293 
L 199.84921 109.975481 
L 201.106506 122.959601 
L 202.405113 123.524422 
L 203.712102 107.670926 
L 204.997537 112.171866 
L 206.579934 109.973885 
L 207.901292 106.253987 
L 209.526796 126.516193 
L 211.167268 119.699259 
L 212.444321 118.295941 
L 213.742929 114.642599 
L 215.054707 116.430966 
L 216.497005 105.388384 
L 217.726162 109.031525 
L 219.057698 145.627689 
L 220.83288 123.593482 
L 222.094966 109.005255 
L 223.445661 111.235013 
L 224.778993 111.167089 
L 226.049461 117.923591 
L 227.497147 113.386282 
L 229.181924 112.595255 
L 230.444608 114.452662 
L 232.0294 115.938364 
L 233.468106 115.995844 
L 234.70744 111.66458 
L 236.034786 203.883773 
L 237.324412 107.622438 
L 238.601465 109.789029 
L 239.853972 112.691968 
L 241.405235 113.133959 
L 243.048102 108.293367 
L 244.770598 111.330197 
L 245.972812 108.656522 
L 247.444447 110.22903 
L 248.761614 106.356402 
L 250.166193 108.362053 
L 251.380981 118.839063 
L 252.720899 105.182724 
L 253.984182 103.811251 
L 255.513892 122.1329 
L 256.789748 108.131053 
L 258.121883 122.808431 
L 259.449827 108.998347 
L 260.672398 111.416555 
L 261.928496 109.433277 
L 263.152863 107.131031 
L 264.440693 108.458053 
L 265.78121 110.417425 
L 267.178605 107.347507 
L 268.479607 107.155012 
L 269.760851 113.406096 
L 271.051675 114.565115 
L 272.257482 123.341927 
L 273.493224 108.222482 
L 274.709808 116.908388 
L 276.009013 113.878456 
L 277.374676 116.988475 
L 278.613412 129.117158 
L 279.906631 260.795797 
L 281.70636 121.724712 
L 283.826999 123.405881 
L 283.826999 94.395502 
L 283.826999 94.395502 
L 281.70636 95.368994 
L 279.906631 79.863904 
L 278.613412 83.347964 
L 277.374676 90.331649 
L 276.009013 90.4197 
L 274.709808 90.057898 
L 273.493224 94.746391 
L 272.257482 81.702158 
L 271.051675 90.593729 
L 269.760851 92.651688 
L 268.479607 94.197682 
L 267.178605 94.665046 
L 265.78121 92.111541 
L 264.440693 94.061349 
L 263.152863 92.921068 
L 261.928496 91.24043 
L 260.672398 92.365189 
L 259.449827 93.540182 
L 258.121883 84.349119 
L 256.789748 94.41704 
L 255.513892 89.471534 
L 253.984182 95.408851 
L 252.720899 94.58248 
L 251.380981 90.489332 
L 250.166193 95.161485 
L 248.761614 94.259925 
L 247.444447 93.045865 
L 245.972812 94.341041 
L 244.770598 90.825805 
L 243.048102 94.484242 
L 241.405235 91.623231 
L 239.853972 93.451884 
L 238.601465 93.151154 
L 237.324412 94.246668 
L 236.034786 75.638446 
L 234.70744 93.570769 
L 233.468106 95.589464 
L 232.0294 96.258989 
L 230.444608 88.650096 
L 229.181924 90.316239 
L 227.497147 89.926866 
L 226.049461 93.346132 
L 224.778993 91.256681 
L 223.445661 91.781676 
L 222.094966 94.020997 
L 220.83288 81.785315 
L 219.057698 75.415615 
L 217.726162 94.72153 
L 216.497005 94.376819 
L 215.054707 95.603813 
L 213.742929 93.385202 
L 212.444321 93.604953 
L 211.167268 90.795846 
L 209.526796 82.372295 
L 207.901292 94.60142 
L 206.579934 93.186251 
L 204.997537 92.700082 
L 203.712102 94.666776 
L 202.405113 81.950007 
L 201.106506 81.816715 
L 199.84921 92.333531 
L 198.623645 94.272034 
L 197.322045 95.566814 
L 196.020444 93.377939 
L 194.685316 95.978887 
L 193.169975 94.885213 
L 191.923455 94.397335 
L 190.532048 88.952017 
L 189.213085 95.060642 
L 187.882746 92.474172 
L 186.594915 92.450855 
L 185.006532 93.987555 
L 183.131963 93.819112 
L 181.103526 87.449501 
L 179.516339 88.735991 
L 178.117747 93.256251 
L 176.671857 84.629363 
L 174.942776 84.638914 
L 173.52742 98.833087 
L 171.877368 83.91492 
L 170.411122 95.137257 
L 168.841298 89.707748 
L 166.745206 98.666976 
L 164.437769 112.79724 
L 159.383439 124.26474 
L 154.494354 300.547045 
L 149.568747 103.464062 
L 145.130493 132.263027 
L 140.178543 242.765616 
L 135.714543 119.058923 
L 130.696735 222.07414 
L 124.795826 299.395172 
L 118.005231 271.355773 
L 112.664717 144.038657 
L 106.493788 300.547045 
L 101.252062 300.547045 
L 95.241588 239.607464 
L 87.836714 300.547045 
L 80.754545 300.547045 
z
" clip-path="url(#p28c322227c)" style="fill: #1f77b4; fill-opacity: 0.1"/>
   </g>
   <g id="PolyCollection_2">
    <path d="M 80.754545 187.061579 
L 80.754545 269.886529 
L 88.23845 300.547045 
L 95.502028 300.547045 
L 102.704538 316.038061 
L 110.140545 300.547045 
L 117.156855 300.547045 
L 123.572058 300.547045 
L 130.798516 300.547045 
L 138.178245 300.547045 
L 144.997579 293.20217 
L 150.929022 223.528735 
L 153.541204 134.440891 
L 155.260107 115.650307 
L 156.652712 112.578926 
L 157.938147 177.210798 
L 159.313988 111.696552 
L 160.830527 176.972507 
L 162.548232 177.326844 
L 164.085726 120.102242 
L 165.446599 115.333168 
L 166.778734 130.182934 
L 168.049202 110.855506 
L 169.317274 115.412246 
L 170.736821 146.733571 
L 172.398248 126.232214 
L 173.971066 119.896237 
L 175.24752 111.568758 
L 176.501224 162.918963 
L 178.141696 122.842355 
L 179.779174 112.283684 
L 181.035273 121.107658 
L 182.415305 117.926611 
L 183.830062 145.386122 
L 185.344205 111.421893 
L 186.66736 110.606522 
L 187.842033 111.491089 
L 189.141838 113.901712 
L 190.700885 145.789707 
L 192.315612 118.191032 
L 193.490286 111.976953 
L 194.858942 117.848634 
L 196.009667 117.841351 
L 197.468729 150.990261 
L 198.937371 124.84046 
L 200.210832 115.620877 
L 201.514827 112.485652 
L 202.779308 114.527204 
L 204.207836 115.043784 
L 205.541767 151.588018 
L 206.743382 108.468315 
L 208.052766 114.72065 
L 209.226243 112.877278 
L 210.672732 109.311678 
L 212.052764 108.130307 
L 213.448362 109.597267 
L 214.699072 106.419377 
L 216.218005 111.482855 
L 217.824351 114.373185 
L 219.216357 108.092378 
L 220.537715 113.00641 
L 221.81417 110.852732 
L 223.152891 115.480119 
L 224.519751 112.705779 
L 225.884815 110.497026 
L 227.199587 114.205581 
L 228.592791 111.28194 
L 229.842902 110.684431 
L 231.131331 112.707412 
L 232.44311 116.710119 
L 233.63335 110.581252 
L 234.973269 113.120051 
L 236.486215 109.495757 
L 237.689627 110.138914 
L 238.873281 112.140692 
L 240.411373 113.099133 
L 241.759074 114.048219 
L 243.054688 105.388948 
L 244.420351 105.304617 
L 245.692615 179.90858 
L 247.132518 108.135237 
L 248.716711 115.898383 
L 250.189543 103.266339 
L 251.46959 106.505486 
L 252.655041 108.294033 
L 253.945266 108.387157 
L 255.181008 103.366562 
L 256.450877 103.592382 
L 257.666862 111.180267 
L 258.910986 110.237134 
L 260.083265 108.886387 
L 261.307632 105.992376 
L 262.578099 180.59966 
L 263.989264 179.070228 
L 265.642309 117.44626 
L 266.821174 114.553007 
L 268.520319 108.180693 
L 269.712954 115.360523 
L 271.004976 112.633319 
L 272.26766 115.580625 
L 273.609374 110.58998 
L 273.609374 90.533197 
L 273.609374 90.533197 
L 272.26766 89.692976 
L 271.004976 91.46401 
L 269.712954 87.780487 
L 268.520319 93.085932 
L 266.821174 87.995085 
L 265.642309 87.712584 
L 263.989264 63.863221 
L 262.578099 63.615257 
L 261.307632 93.581564 
L 260.083265 91.385666 
L 258.910986 91.392892 
L 257.666862 91.26263 
L 256.450877 94.231493 
L 255.181008 94.629452 
L 253.945266 92.812526 
L 252.655041 91.987583 
L 251.46959 93.862199 
L 250.189543 94.586227 
L 248.716711 86.668835 
L 247.132518 93.112261 
L 245.692615 61.38 
L 244.420351 93.676405 
L 243.054688 94.271061 
L 241.759074 90.632465 
L 240.411373 92.576123 
L 238.873281 93.343301 
L 237.689627 94.799976 
L 236.486215 94.764146 
L 234.973269 92.230057 
L 233.63335 92.511942 
L 232.44311 87.664543 
L 231.131331 91.485549 
L 229.842902 91.605455 
L 228.592791 94.536764 
L 227.199587 90.91501 
L 225.884815 92.739616 
L 224.519751 92.739961 
L 223.152891 93.379679 
L 221.81417 95.539763 
L 220.537715 93.51997 
L 219.216357 93.700223 
L 217.824351 92.229701 
L 216.218005 91.744224 
L 214.699072 94.426468 
L 213.448362 92.855194 
L 212.052764 93.729236 
L 210.672732 94.42225 
L 209.226243 90.64626 
L 208.052766 93.249772 
L 206.743382 93.372101 
L 205.541767 70.516801 
L 204.207836 88.929224 
L 202.779308 90.057848 
L 201.514827 91.802941 
L 200.210832 90.255206 
L 198.937371 82.393596 
L 197.468729 69.756585 
L 196.009667 90.415966 
L 194.858942 88.639493 
L 193.490286 91.603964 
L 192.315612 87.885878 
L 190.700885 73.799993 
L 189.141838 89.841779 
L 187.842033 92.453229 
L 186.66736 92.974395 
L 185.344205 91.891255 
L 183.830062 73.773234 
L 182.415305 91.114888 
L 181.035273 86.499363 
L 179.779174 93.047297 
L 178.141696 87.86314 
L 176.501224 67.218936 
L 175.24752 92.222549 
L 173.971066 89.958134 
L 172.398248 83.756041 
L 170.736821 74.204538 
L 169.317274 91.965258 
L 168.049202 94.207706 
L 166.778734 85.648431 
L 165.446599 90.686362 
L 164.085726 86.950113 
L 162.548232 68.67639 
L 160.830527 67.950086 
L 159.313988 92.955442 
L 157.938147 71.049349 
L 156.652712 93.421479 
L 155.260107 99.16736 
L 153.541204 83.590008 
L 150.929022 85.49593 
L 144.997579 138.872076 
L 138.178245 300.547045 
L 130.798516 300.547045 
L 123.572058 300.547045 
L 117.156855 300.547045 
L 110.140545 300.547045 
L 102.704538 272.145721 
L 95.502028 300.547045 
L 88.23845 300.547045 
L 80.754545 187.061579 
z
" clip-path="url(#p28c322227c)" style="fill: #ff7f0e; fill-opacity: 0.1"/>
   </g>
   <g id="PolyCollection_3">
    <path d="M 80.754545 300.547045 
L 80.754545 300.547045 
L 87.672667 300.547045 
L 95.01767 300.547045 
L 102.046553 263.861618 
L 108.968266 300.547045 
L 115.772632 300.547045 
L 121.59032 259.061172 
L 127.108053 262.303482 
L 132.915563 300.547045 
L 137.889067 311.912405 
L 142.64883 141.899019 
L 147.548692 325.655029 
L 151.798951 319.434892 
L 156.022867 300.547045 
L 159.494201 288.323852 
L 163.472644 151.212425 
L 167.075097 276.41659 
L 171.018815 169.213008 
L 173.574718 212.989406 
L 176.386271 327.637366 
L 178.854762 158.337068 
L 181.250809 138.860051 
L 184.173723 128.189962 
L 187.255894 317.679619 
L 189.623801 126.340755 
L 193.082563 143.860647 
L 195.410356 332.693333 
L 199.20739 334.974016 
L 203.614512 337.605922 
L 207.165475 318.105287 
L 210.975081 317.032119 
L 214.098564 313.221977 
L 216.914907 115.114094 
L 219.937805 213.831557 
L 223.110382 120.089872 
L 226.11053 336.218575 
L 230.666731 278.605093 
L 236.585601 337.33237 
L 240.404787 330.983685 
L 244.623314 221.401437 
L 248.379636 309.457631 
L 251.759966 285.149984 
L 256.451476 290.787066 
L 261.553702 173.924786 
L 265.455511 308.121648 
L 268.041349 321.832721 
L 271.919209 172.074839 
L 274.554142 115.645538 
L 277.848258 207.311791 
L 281.720729 218.83641 
L 285.101059 116.975265 
L 288.20658 327.765054 
L 291.148653 117.80291 
L 293.903328 323.304037 
L 298.539757 311.881605 
L 302.105089 132.874235 
L 304.957354 168.304526 
L 308.45144 115.877186 
L 310.675057 181.002477 
L 313.145943 117.657267 
L 315.751539 261.440725 
L 318.448739 148.86385 
L 320.890886 276.302652 
L 324.611884 188.180394 
L 327.578503 260.734259 
L 330.282887 290.085316 
L 334.152964 174.409899 
L 337.74404 201.230587 
L 340.683119 241.033698 
L 343.454559 127.274132 
L 346.48105 112.373418 
L 349.970345 119.571986 
L 352.845961 314.875645 
L 355.097119 164.981143 
L 358.86781 259.597671 
L 362.620539 261.641576 
L 366.00027 264.537273 
L 369.955364 260.210531 
L 372.95611 258.966546 
L 375.844897 260.914488 
L 378.682195 288.213816 
L 382.463064 125.705974 
L 386.856415 338.58 
L 391.563491 129.718336 
L 393.390163 125.062293 
L 396.526817 112.685749 
L 398.849821 136.670597 
L 401.048891 122.808367 
L 404.376534 262.443564 
L 406.797129 124.558014 
L 410.449274 126.983699 
L 413.061456 123.337259 
L 415.042595 275.31701 
L 418.651034 258.821704 
L 421.635616 187.885294 
L 424.968647 115.76845 
L 427.388044 168.612174 
L 430.561818 194.497993 
L 433.026717 145.355313 
L 435.845455 249.688775 
L 435.845455 85.73986 
L 435.845455 85.73986 
L 433.026717 90.721328 
L 430.561818 80.338263 
L 427.388044 72.38951 
L 424.968647 92.13503 
L 421.635616 69.450321 
L 418.651034 81.072941 
L 415.042595 88.208282 
L 413.061456 93.469552 
L 410.449274 87.967852 
L 406.797129 95.777614 
L 404.376534 85.742368 
L 401.048891 94.935636 
L 398.849821 84.506592 
L 396.526817 96.126234 
L 393.390163 97.367674 
L 391.563491 93.151538 
L 386.856415 224.596036 
L 382.463064 95.997191 
L 378.682195 105.703297 
L 375.844897 81.064933 
L 372.95611 81.205432 
L 369.955364 82.074913 
L 366.00027 86.546307 
L 362.620539 86.152265 
L 358.86781 83.538897 
L 355.097119 84.273576 
L 352.845961 134.039382 
L 349.970345 91.994196 
L 346.48105 93.885192 
L 343.454559 93.405771 
L 340.683119 86.304477 
L 337.74404 82.049966 
L 334.152964 71.755909 
L 330.282887 112.084832 
L 327.578503 86.935261 
L 324.611884 81.032705 
L 320.890886 100.43897 
L 318.448739 86.084335 
L 315.751539 87.797159 
L 313.145943 95.716357 
L 310.675057 77.452032 
L 308.45144 94.26408 
L 304.957354 78.808038 
L 302.105089 97.847019 
L 298.539757 145.343835 
L 293.903328 136.752107 
L 291.148653 96.641793 
L 288.20658 150.250764 
L 285.101059 97.08691 
L 281.720729 73.777818 
L 277.848258 95.515925 
L 274.554142 94.161016 
L 271.919209 70.170061 
L 268.041349 136.588117 
L 265.455511 128.399482 
L 261.553702 83.401266 
L 256.451476 101.628627 
L 251.759966 98.410193 
L 248.379636 127.216511 
L 244.623314 72.398627 
L 240.404787 254.503277 
L 236.585601 201.247139 
L 230.666731 109.344589 
L 226.11053 188.972466 
L 223.110382 93.953177 
L 219.937805 91.109624 
L 216.914907 92.588558 
L 214.098564 123.968577 
L 210.975081 142.431108 
L 207.165475 132.712815 
L 203.614512 184.783103 
L 199.20739 204.667007 
L 195.410356 162.469287 
L 193.082563 84.307234 
L 189.623801 98.307872 
L 187.255894 133.740963 
L 184.173723 94.737291 
L 181.250809 97.455669 
L 178.854762 95.699246 
L 176.386271 258.719846 
L 173.574718 95.212824 
L 171.018815 121.15387 
L 167.075097 132.285217 
L 163.472644 98.98905 
L 159.494201 126.307134 
L 156.022867 300.547045 
L 151.798951 262.178978 
L 147.548692 170.789059 
L 142.64883 109.727371 
L 137.889067 222.497552 
L 132.915563 300.547045 
L 127.108053 145.097732 
L 121.59032 171.100436 
L 115.772632 300.547045 
L 108.968266 300.547045 
L 102.046553 168.107434 
L 95.01767 300.547045 
L 87.672667 300.547045 
L 80.754545 300.547045 
z
" clip-path="url(#p28c322227c)" style="fill: #2ca02c; fill-opacity: 0.1"/>
   </g>
   <g id="matplotlib.axis_1">
    <g id="xtick_1">
     <g id="line2d_1">
      <defs>
       <path id="mb1b0aff1e6" d="M 0 0 
L 0 3.5 
" style="stroke: #000000; stroke-width: 0.8"/>
      </defs>
      <g>
       <use xlink:href="#mb1b0aff1e6" x="80.754545" y="352.44" style="stroke: #000000; stroke-width: 0.8"/>
      </g>
     </g>
     <g id="text_1">
      <!-- 0 -->
      <g transform="translate(77.573295 367.038437) scale(0.1 -0.1)">
       <defs>
        <path id="DejaVuSans-30" d="M 2034 4250 
Q 1547 4250 1301 3770 
Q 1056 3291 1056 2328 
Q 1056 1369 1301 889 
Q 1547 409 2034 409 
Q 2525 409 2770 889 
Q 3016 1369 3016 2328 
Q 3016 3291 2770 3770 
Q 2525 4250 2034 4250 
z
M 2034 4750 
Q 2819 4750 3233 4129 
Q 3647 3509 3647 2328 
Q 3647 1150 3233 529 
Q 2819 -91 2034 -91 
Q 1250 -91 836 529 
Q 422 1150 422 2328 
Q 422 3509 836 4129 
Q 1250 4750 2034 4750 
z
" transform="scale(0.015625)"/>
       </defs>
       <use xlink:href="#DejaVuSans-30"/>
      </g>
     </g>
    </g>
    <g id="xtick_2">
     <g id="line2d_2">
      <g>
       <use xlink:href="#mb1b0aff1e6" x="140.625781" y="352.44" style="stroke: #000000; stroke-width: 0.8"/>
      </g>
     </g>
     <g id="text_2">
      <!-- 100000 -->
      <g transform="translate(121.538281 367.038437) scale(0.1 -0.1)">
       <defs>
        <path id="DejaVuSans-31" d="M 794 531 
L 1825 531 
L 1825 4091 
L 703 3866 
L 703 4441 
L 1819 4666 
L 2450 4666 
L 2450 531 
L 3481 531 
L 3481 0 
L 794 0 
L 794 531 
z
" transform="scale(0.015625)"/>
       </defs>
       <use xlink:href="#DejaVuSans-31"/>
       <use xlink:href="#DejaVuSans-30" x="63.623047"/>
       <use xlink:href="#DejaVuSans-30" x="127.246094"/>
       <use xlink:href="#DejaVuSans-30" x="190.869141"/>
       <use xlink:href="#DejaVuSans-30" x="254.492188"/>
       <use xlink:href="#DejaVuSans-30" x="318.115234"/>
      </g>
     </g>
    </g>
    <g id="xtick_3">
     <g id="line2d_3">
      <g>
       <use xlink:href="#mb1b0aff1e6" x="200.497016" y="352.44" style="stroke: #000000; stroke-width: 0.8"/>
      </g>
     </g>
     <g id="text_3">
      <!-- 200000 -->
      <g transform="translate(181.409516 367.038437) scale(0.1 -0.1)">
       <defs>
        <path id="DejaVuSans-32" d="M 1228 531 
L 3431 531 
L 3431 0 
L 469 0 
L 469 531 
Q 828 903 1448 1529 
Q 2069 2156 2228 2338 
Q 2531 2678 2651 2914 
Q 2772 3150 2772 3378 
Q 2772 3750 2511 3984 
Q 2250 4219 1831 4219 
Q 1534 4219 1204 4116 
Q 875 4013 500 3803 
L 500 4441 
Q 881 4594 1212 4672 
Q 1544 4750 1819 4750 
Q 2544 4750 2975 4387 
Q 3406 4025 3406 3419 
Q 3406 3131 3298 2873 
Q 3191 2616 2906 2266 
Q 2828 2175 2409 1742 
Q 1991 1309 1228 531 
z
" transform="scale(0.015625)"/>
       </defs>
       <use xlink:href="#DejaVuSans-32"/>
       <use xlink:href="#DejaVuSans-30" x="63.623047"/>
       <use xlink:href="#DejaVuSans-30" x="127.246094"/>
       <use xlink:href="#DejaVuSans-30" x="190.869141"/>
       <use xlink:href="#DejaVuSans-30" x="254.492188"/>
       <use xlink:href="#DejaVuSans-30" x="318.115234"/>
      </g>
     </g>
    </g>
    <g id="xtick_4">
     <g id="line2d_4">
      <g>
       <use xlink:href="#mb1b0aff1e6" x="260.368252" y="352.44" style="stroke: #000000; stroke-width: 0.8"/>
      </g>
     </g>
     <g id="text_4">
      <!-- 300000 -->
      <g transform="translate(241.280752 367.038437) scale(0.1 -0.1)">
       <defs>
        <path id="DejaVuSans-33" d="M 2597 2516 
Q 3050 2419 3304 2112 
Q 3559 1806 3559 1356 
Q 3559 666 3084 287 
Q 2609 -91 1734 -91 
Q 1441 -91 1130 -33 
Q 819 25 488 141 
L 488 750 
Q 750 597 1062 519 
Q 1375 441 1716 441 
Q 2309 441 2620 675 
Q 2931 909 2931 1356 
Q 2931 1769 2642 2001 
Q 2353 2234 1838 2234 
L 1294 2234 
L 1294 2753 
L 1863 2753 
Q 2328 2753 2575 2939 
Q 2822 3125 2822 3475 
Q 2822 3834 2567 4026 
Q 2313 4219 1838 4219 
Q 1578 4219 1281 4162 
Q 984 4106 628 3988 
L 628 4550 
Q 988 4650 1302 4700 
Q 1616 4750 1894 4750 
Q 2613 4750 3031 4423 
Q 3450 4097 3450 3541 
Q 3450 3153 3228 2886 
Q 3006 2619 2597 2516 
z
" transform="scale(0.015625)"/>
       </defs>
       <use xlink:href="#DejaVuSans-33"/>
       <use xlink:href="#DejaVuSans-30" x="63.623047"/>
       <use xlink:href="#DejaVuSans-30" x="127.246094"/>
       <use xlink:href="#DejaVuSans-30" x="190.869141"/>
       <use xlink:href="#DejaVuSans-30" x="254.492188"/>
       <use xlink:href="#DejaVuSans-30" x="318.115234"/>
      </g>
     </g>
    </g>
    <g id="xtick_5">
     <g id="line2d_5">
      <g>
       <use xlink:href="#mb1b0aff1e6" x="320.239487" y="352.44" style="stroke: #000000; stroke-width: 0.8"/>
      </g>
     </g>
     <g id="text_5">
      <!-- 400000 -->
      <g transform="translate(301.151987 367.038437) scale(0.1 -0.1)">
       <defs>
        <path id="DejaVuSans-34" d="M 2419 4116 
L 825 1625 
L 2419 1625 
L 2419 4116 
z
M 2253 4666 
L 3047 4666 
L 3047 1625 
L 3713 1625 
L 3713 1100 
L 3047 1100 
L 3047 0 
L 2419 0 
L 2419 1100 
L 313 1100 
L 313 1709 
L 2253 4666 
z
" transform="scale(0.015625)"/>
       </defs>
       <use xlink:href="#DejaVuSans-34"/>
       <use xlink:href="#DejaVuSans-30" x="63.623047"/>
       <use xlink:href="#DejaVuSans-30" x="127.246094"/>
       <use xlink:href="#DejaVuSans-30" x="190.869141"/>
       <use xlink:href="#DejaVuSans-30" x="254.492188"/>
       <use xlink:href="#DejaVuSans-30" x="318.115234"/>
      </g>
     </g>
    </g>
    <g id="xtick_6">
     <g id="line2d_6">
      <g>
       <use xlink:href="#mb1b0aff1e6" x="380.110723" y="352.44" style="stroke: #000000; stroke-width: 0.8"/>
      </g>
     </g>
     <g id="text_6">
      <!-- 500000 -->
      <g transform="translate(361.023223 367.038437) scale(0.1 -0.1)">
       <defs>
        <path id="DejaVuSans-35" d="M 691 4666 
L 3169 4666 
L 3169 4134 
L 1269 4134 
L 1269 2991 
Q 1406 3038 1543 3061 
Q 1681 3084 1819 3084 
Q 2600 3084 3056 2656 
Q 3513 2228 3513 1497 
Q 3513 744 3044 326 
Q 2575 -91 1722 -91 
Q 1428 -91 1123 -41 
Q 819 9 494 109 
L 494 744 
Q 775 591 1075 516 
Q 1375 441 1709 441 
Q 2250 441 2565 725 
Q 2881 1009 2881 1497 
Q 2881 1984 2565 2268 
Q 2250 2553 1709 2553 
Q 1456 2553 1204 2497 
Q 953 2441 691 2322 
L 691 4666 
z
" transform="scale(0.015625)"/>
       </defs>
       <use xlink:href="#DejaVuSans-35"/>
       <use xlink:href="#DejaVuSans-30" x="63.623047"/>
       <use xlink:href="#DejaVuSans-30" x="127.246094"/>
       <use xlink:href="#DejaVuSans-30" x="190.869141"/>
       <use xlink:href="#DejaVuSans-30" x="254.492188"/>
       <use xlink:href="#DejaVuSans-30" x="318.115234"/>
      </g>
     </g>
    </g>
    <g id="xtick_7">
     <g id="line2d_7">
      <g>
       <use xlink:href="#mb1b0aff1e6" x="439.981958" y="352.44" style="stroke: #000000; stroke-width: 0.8"/>
      </g>
     </g>
     <g id="text_7">
      <!-- 600000 -->
      <g transform="translate(420.894458 367.038437) scale(0.1 -0.1)">
       <defs>
        <path id="DejaVuSans-36" d="M 2113 2584 
Q 1688 2584 1439 2293 
Q 1191 2003 1191 1497 
Q 1191 994 1439 701 
Q 1688 409 2113 409 
Q 2538 409 2786 701 
Q 3034 994 3034 1497 
Q 3034 2003 2786 2293 
Q 2538 2584 2113 2584 
z
M 3366 4563 
L 3366 3988 
Q 3128 4100 2886 4159 
Q 2644 4219 2406 4219 
Q 1781 4219 1451 3797 
Q 1122 3375 1075 2522 
Q 1259 2794 1537 2939 
Q 1816 3084 2150 3084 
Q 2853 3084 3261 2657 
Q 3669 2231 3669 1497 
Q 3669 778 3244 343 
Q 2819 -91 2113 -91 
Q 1303 -91 875 529 
Q 447 1150 447 2328 
Q 447 3434 972 4092 
Q 1497 4750 2381 4750 
Q 2619 4750 2861 4703 
Q 3103 4656 3366 4563 
z
" transform="scale(0.015625)"/>
       </defs>
       <use xlink:href="#DejaVuSans-36"/>
       <use xlink:href="#DejaVuSans-30" x="63.623047"/>
       <use xlink:href="#DejaVuSans-30" x="127.246094"/>
       <use xlink:href="#DejaVuSans-30" x="190.869141"/>
       <use xlink:href="#DejaVuSans-30" x="254.492188"/>
       <use xlink:href="#DejaVuSans-30" x="318.115234"/>
      </g>
     </g>
    </g>
    <g id="text_8">
     <!-- Timesteps -->
     <g transform="translate(232.646094 380.716563) scale(0.1 -0.1)">
      <defs>
       <path id="DejaVuSans-54" d="M -19 4666 
L 3928 4666 
L 3928 4134 
L 2272 4134 
L 2272 0 
L 1638 0 
L 1638 4134 
L -19 4134 
L -19 4666 
z
" transform="scale(0.015625)"/>
       <path id="DejaVuSans-69" d="M 603 3500 
L 1178 3500 
L 1178 0 
L 603 0 
L 603 3500 
z
M 603 4863 
L 1178 4863 
L 1178 4134 
L 603 4134 
L 603 4863 
z
" transform="scale(0.015625)"/>
       <path id="DejaVuSans-6d" d="M 3328 2828 
Q 3544 3216 3844 3400 
Q 4144 3584 4550 3584 
Q 5097 3584 5394 3201 
Q 5691 2819 5691 2113 
L 5691 0 
L 5113 0 
L 5113 2094 
Q 5113 2597 4934 2840 
Q 4756 3084 4391 3084 
Q 3944 3084 3684 2787 
Q 3425 2491 3425 1978 
L 3425 0 
L 2847 0 
L 2847 2094 
Q 2847 2600 2669 2842 
Q 2491 3084 2119 3084 
Q 1678 3084 1418 2786 
Q 1159 2488 1159 1978 
L 1159 0 
L 581 0 
L 581 3500 
L 1159 3500 
L 1159 2956 
Q 1356 3278 1631 3431 
Q 1906 3584 2284 3584 
Q 2666 3584 2933 3390 
Q 3200 3197 3328 2828 
z
" transform="scale(0.015625)"/>
       <path id="DejaVuSans-65" d="M 3597 1894 
L 3597 1613 
L 953 1613 
Q 991 1019 1311 708 
Q 1631 397 2203 397 
Q 2534 397 2845 478 
Q 3156 559 3463 722 
L 3463 178 
Q 3153 47 2828 -22 
Q 2503 -91 2169 -91 
Q 1331 -91 842 396 
Q 353 884 353 1716 
Q 353 2575 817 3079 
Q 1281 3584 2069 3584 
Q 2775 3584 3186 3129 
Q 3597 2675 3597 1894 
z
M 3022 2063 
Q 3016 2534 2758 2815 
Q 2500 3097 2075 3097 
Q 1594 3097 1305 2825 
Q 1016 2553 972 2059 
L 3022 2063 
z
" transform="scale(0.015625)"/>
       <path id="DejaVuSans-73" d="M 2834 3397 
L 2834 2853 
Q 2591 2978 2328 3040 
Q 2066 3103 1784 3103 
Q 1356 3103 1142 2972 
Q 928 2841 928 2578 
Q 928 2378 1081 2264 
Q 1234 2150 1697 2047 
L 1894 2003 
Q 2506 1872 2764 1633 
Q 3022 1394 3022 966 
Q 3022 478 2636 193 
Q 2250 -91 1575 -91 
Q 1294 -91 989 -36 
Q 684 19 347 128 
L 347 722 
Q 666 556 975 473 
Q 1284 391 1588 391 
Q 1994 391 2212 530 
Q 2431 669 2431 922 
Q 2431 1156 2273 1281 
Q 2116 1406 1581 1522 
L 1381 1569 
Q 847 1681 609 1914 
Q 372 2147 372 2553 
Q 372 3047 722 3315 
Q 1072 3584 1716 3584 
Q 2034 3584 2315 3537 
Q 2597 3491 2834 3397 
z
" transform="scale(0.015625)"/>
       <path id="DejaVuSans-74" d="M 1172 4494 
L 1172 3500 
L 2356 3500 
L 2356 3053 
L 1172 3053 
L 1172 1153 
Q 1172 725 1289 603 
Q 1406 481 1766 481 
L 2356 481 
L 2356 0 
L 1766 0 
Q 1100 0 847 248 
Q 594 497 594 1153 
L 594 3053 
L 172 3053 
L 172 3500 
L 594 3500 
L 594 4494 
L 1172 4494 
z
" transform="scale(0.015625)"/>
       <path id="DejaVuSans-70" d="M 1159 525 
L 1159 -1331 
L 581 -1331 
L 581 3500 
L 1159 3500 
L 1159 2969 
Q 1341 3281 1617 3432 
Q 1894 3584 2278 3584 
Q 2916 3584 3314 3078 
Q 3713 2572 3713 1747 
Q 3713 922 3314 415 
Q 2916 -91 2278 -91 
Q 1894 -91 1617 61 
Q 1341 213 1159 525 
z
M 3116 1747 
Q 3116 2381 2855 2742 
Q 2594 3103 2138 3103 
Q 1681 3103 1420 2742 
Q 1159 2381 1159 1747 
Q 1159 1113 1420 752 
Q 1681 391 2138 391 
Q 2594 391 2855 752 
Q 3116 1113 3116 1747 
z
" transform="scale(0.015625)"/>
      </defs>
      <use xlink:href="#DejaVuSans-54"/>
      <use xlink:href="#DejaVuSans-69" x="57.958984"/>
      <use xlink:href="#DejaVuSans-6d" x="85.742188"/>
      <use xlink:href="#DejaVuSans-65" x="183.154297"/>
      <use xlink:href="#DejaVuSans-73" x="244.677734"/>
      <use xlink:href="#DejaVuSans-74" x="296.777344"/>
      <use xlink:href="#DejaVuSans-65" x="335.986328"/>
      <use xlink:href="#DejaVuSans-70" x="397.509766"/>
      <use xlink:href="#DejaVuSans-73" x="460.986328"/>
     </g>
    </g>
   </g>
   <g id="matplotlib.axis_2">
    <g id="ytick_1">
     <g id="line2d_8">
      <path d="M 63 348.363001 
L 453.6 348.363001 
" clip-path="url(#p28c322227c)" style="fill: none; stroke-dasharray: 2.96,1.28; stroke-dashoffset: 0; stroke: #b0b0b0; stroke-width: 0.8"/>
     </g>
     <g id="line2d_9">
      <defs>
       <path id="mbef4e42e39" d="M 0 0 
L -3.5 0 
" style="stroke: #000000; stroke-width: 0.8"/>
      </defs>
      <g>
       <use xlink:href="#mbef4e42e39" x="63" y="348.363001" style="stroke: #000000; stroke-width: 0.8"/>
      </g>
     </g>
     <g id="text_9">
      <!-- −600 -->
      <g transform="translate(28.532812 352.16222) scale(0.1 -0.1)">
       <defs>
        <path id="DejaVuSans-2212" d="M 678 2272 
L 4684 2272 
L 4684 1741 
L 678 1741 
L 678 2272 
z
" transform="scale(0.015625)"/>
       </defs>
       <use xlink:href="#DejaVuSans-2212"/>
       <use xlink:href="#DejaVuSans-36" x="83.789062"/>
       <use xlink:href="#DejaVuSans-30" x="147.412109"/>
       <use xlink:href="#DejaVuSans-30" x="211.035156"/>
      </g>
     </g>
    </g>
    <g id="ytick_2">
     <g id="line2d_10">
      <path d="M 63 300.547045 
L 453.6 300.547045 
" clip-path="url(#p28c322227c)" style="fill: none; stroke-dasharray: 2.96,1.28; stroke-dashoffset: 0; stroke: #b0b0b0; stroke-width: 0.8"/>
     </g>
     <g id="line2d_11">
      <g>
       <use xlink:href="#mbef4e42e39" x="63" y="300.547045" style="stroke: #000000; stroke-width: 0.8"/>
      </g>
     </g>
     <g id="text_10">
      <!-- −500 -->
      <g transform="translate(28.532812 304.346264) scale(0.1 -0.1)">
       <use xlink:href="#DejaVuSans-2212"/>
       <use xlink:href="#DejaVuSans-35" x="83.789062"/>
       <use xlink:href="#DejaVuSans-30" x="147.412109"/>
       <use xlink:href="#DejaVuSans-30" x="211.035156"/>
      </g>
     </g>
    </g>
    <g id="ytick_3">
     <g id="line2d_12">
      <path d="M 63 252.731088 
L 453.6 252.731088 
" clip-path="url(#p28c322227c)" style="fill: none; stroke-dasharray: 2.96,1.28; stroke-dashoffset: 0; stroke: #b0b0b0; stroke-width: 0.8"/>
     </g>
     <g id="line2d_13">
      <g>
       <use xlink:href="#mbef4e42e39" x="63" y="252.731088" style="stroke: #000000; stroke-width: 0.8"/>
      </g>
     </g>
     <g id="text_11">
      <!-- −400 -->
      <g transform="translate(28.532812 256.530307) scale(0.1 -0.1)">
       <use xlink:href="#DejaVuSans-2212"/>
       <use xlink:href="#DejaVuSans-34" x="83.789062"/>
       <use xlink:href="#DejaVuSans-30" x="147.412109"/>
       <use xlink:href="#DejaVuSans-30" x="211.035156"/>
      </g>
     </g>
    </g>
    <g id="ytick_4">
     <g id="line2d_14">
      <path d="M 63 204.915132 
L 453.6 204.915132 
" clip-path="url(#p28c322227c)" style="fill: none; stroke-dasharray: 2.96,1.28; stroke-dashoffset: 0; stroke: #b0b0b0; stroke-width: 0.8"/>
     </g>
     <g id="line2d_15">
      <g>
       <use xlink:href="#mbef4e42e39" x="63" y="204.915132" style="stroke: #000000; stroke-width: 0.8"/>
      </g>
     </g>
     <g id="text_12">
      <!-- −300 -->
      <g transform="translate(28.532812 208.714351) scale(0.1 -0.1)">
       <use xlink:href="#DejaVuSans-2212"/>
       <use xlink:href="#DejaVuSans-33" x="83.789062"/>
       <use xlink:href="#DejaVuSans-30" x="147.412109"/>
       <use xlink:href="#DejaVuSans-30" x="211.035156"/>
      </g>
     </g>
    </g>
    <g id="ytick_5">
     <g id="line2d_16">
      <path d="M 63 157.099175 
L 453.6 157.099175 
" clip-path="url(#p28c322227c)" style="fill: none; stroke-dasharray: 2.96,1.28; stroke-dashoffset: 0; stroke: #b0b0b0; stroke-width: 0.8"/>
     </g>
     <g id="line2d_17">
      <g>
       <use xlink:href="#mbef4e42e39" x="63" y="157.099175" style="stroke: #000000; stroke-width: 0.8"/>
      </g>
     </g>
     <g id="text_13">
      <!-- −200 -->
      <g transform="translate(28.532812 160.898394) scale(0.1 -0.1)">
       <use xlink:href="#DejaVuSans-2212"/>
       <use xlink:href="#DejaVuSans-32" x="83.789062"/>
       <use xlink:href="#DejaVuSans-30" x="147.412109"/>
       <use xlink:href="#DejaVuSans-30" x="211.035156"/>
      </g>
     </g>
    </g>
    <g id="ytick_6">
     <g id="line2d_18">
      <path d="M 63 109.283219 
L 453.6 109.283219 
" clip-path="url(#p28c322227c)" style="fill: none; stroke-dasharray: 2.96,1.28; stroke-dashoffset: 0; stroke: #b0b0b0; stroke-width: 0.8"/>
     </g>
     <g id="line2d_19">
      <g>
       <use xlink:href="#mbef4e42e39" x="63" y="109.283219" style="stroke: #000000; stroke-width: 0.8"/>
      </g>
     </g>
     <g id="text_14">
      <!-- −100 -->
      <g transform="translate(28.532812 113.082438) scale(0.1 -0.1)">
       <use xlink:href="#DejaVuSans-2212"/>
       <use xlink:href="#DejaVuSans-31" x="83.789062"/>
       <use xlink:href="#DejaVuSans-30" x="147.412109"/>
       <use xlink:href="#DejaVuSans-30" x="211.035156"/>
      </g>
     </g>
    </g>
    <g id="ytick_7">
     <g id="line2d_20">
      <path d="M 63 61.467262 
L 453.6 61.467262 
" clip-path="url(#p28c322227c)" style="fill: none; stroke-dasharray: 2.96,1.28; stroke-dashoffset: 0; stroke: #b0b0b0; stroke-width: 0.8"/>
     </g>
     <g id="line2d_21">
      <g>
       <use xlink:href="#mbef4e42e39" x="63" y="61.467262" style="stroke: #000000; stroke-width: 0.8"/>
      </g>
     </g>
     <g id="text_15">
      <!-- 0 -->
      <g transform="translate(49.6375 65.266481) scale(0.1 -0.1)">
       <use xlink:href="#DejaVuSans-30"/>
      </g>
     </g>
    </g>
    <g id="text_16">
     <!-- Mean rewards -->
     <g transform="translate(22.453125 235.112031) rotate(-90) scale(0.1 -0.1)">
      <defs>
       <path id="DejaVuSans-4d" d="M 628 4666 
L 1569 4666 
L 2759 1491 
L 3956 4666 
L 4897 4666 
L 4897 0 
L 4281 0 
L 4281 4097 
L 3078 897 
L 2444 897 
L 1241 4097 
L 1241 0 
L 628 0 
L 628 4666 
z
" transform="scale(0.015625)"/>
       <path id="DejaVuSans-61" d="M 2194 1759 
Q 1497 1759 1228 1600 
Q 959 1441 959 1056 
Q 959 750 1161 570 
Q 1363 391 1709 391 
Q 2188 391 2477 730 
Q 2766 1069 2766 1631 
L 2766 1759 
L 2194 1759 
z
M 3341 1997 
L 3341 0 
L 2766 0 
L 2766 531 
Q 2569 213 2275 61 
Q 1981 -91 1556 -91 
Q 1019 -91 701 211 
Q 384 513 384 1019 
Q 384 1609 779 1909 
Q 1175 2209 1959 2209 
L 2766 2209 
L 2766 2266 
Q 2766 2663 2505 2880 
Q 2244 3097 1772 3097 
Q 1472 3097 1187 3025 
Q 903 2953 641 2809 
L 641 3341 
Q 956 3463 1253 3523 
Q 1550 3584 1831 3584 
Q 2591 3584 2966 3190 
Q 3341 2797 3341 1997 
z
" transform="scale(0.015625)"/>
       <path id="DejaVuSans-6e" d="M 3513 2113 
L 3513 0 
L 2938 0 
L 2938 2094 
Q 2938 2591 2744 2837 
Q 2550 3084 2163 3084 
Q 1697 3084 1428 2787 
Q 1159 2491 1159 1978 
L 1159 0 
L 581 0 
L 581 3500 
L 1159 3500 
L 1159 2956 
Q 1366 3272 1645 3428 
Q 1925 3584 2291 3584 
Q 2894 3584 3203 3211 
Q 3513 2838 3513 2113 
z
" transform="scale(0.015625)"/>
       <path id="DejaVuSans-20" transform="scale(0.015625)"/>
       <path id="DejaVuSans-72" d="M 2631 2963 
Q 2534 3019 2420 3045 
Q 2306 3072 2169 3072 
Q 1681 3072 1420 2755 
Q 1159 2438 1159 1844 
L 1159 0 
L 581 0 
L 581 3500 
L 1159 3500 
L 1159 2956 
Q 1341 3275 1631 3429 
Q 1922 3584 2338 3584 
Q 2397 3584 2469 3576 
Q 2541 3569 2628 3553 
L 2631 2963 
z
" transform="scale(0.015625)"/>
       <path id="DejaVuSans-77" d="M 269 3500 
L 844 3500 
L 1563 769 
L 2278 3500 
L 2956 3500 
L 3675 769 
L 4391 3500 
L 4966 3500 
L 4050 0 
L 3372 0 
L 2619 2869 
L 1863 0 
L 1184 0 
L 269 3500 
z
" transform="scale(0.015625)"/>
       <path id="DejaVuSans-64" d="M 2906 2969 
L 2906 4863 
L 3481 4863 
L 3481 0 
L 2906 0 
L 2906 525 
Q 2725 213 2448 61 
Q 2172 -91 1784 -91 
Q 1150 -91 751 415 
Q 353 922 353 1747 
Q 353 2572 751 3078 
Q 1150 3584 1784 3584 
Q 2172 3584 2448 3432 
Q 2725 3281 2906 2969 
z
M 947 1747 
Q 947 1113 1208 752 
Q 1469 391 1925 391 
Q 2381 391 2643 752 
Q 2906 1113 2906 1747 
Q 2906 2381 2643 2742 
Q 2381 3103 1925 3103 
Q 1469 3103 1208 2742 
Q 947 2381 947 1747 
z
" transform="scale(0.015625)"/>
      </defs>
      <use xlink:href="#DejaVuSans-4d"/>
      <use xlink:href="#DejaVuSans-65" x="86.279297"/>
      <use xlink:href="#DejaVuSans-61" x="147.802734"/>
      <use xlink:href="#DejaVuSans-6e" x="209.082031"/>
      <use xlink:href="#DejaVuSans-20" x="272.460938"/>
      <use xlink:href="#DejaVuSans-72" x="304.248047"/>
      <use xlink:href="#DejaVuSans-65" x="343.111328"/>
      <use xlink:href="#DejaVuSans-77" x="404.634766"/>
      <use xlink:href="#DejaVuSans-61" x="486.421875"/>
      <use xlink:href="#DejaVuSans-72" x="547.701172"/>
      <use xlink:href="#DejaVuSans-64" x="587.064453"/>
      <use xlink:href="#DejaVuSans-73" x="650.541016"/>
     </g>
    </g>
   </g>
   <g id="line2d_22">
    <path d="M 80.754545 300.547045 
L 87.836714 300.547045 
L 95.241588 276.113091 
L 101.252062 300.547045 
L 106.493788 300.547045 
L 112.664717 184.98066 
L 118.005231 289.807581 
L 124.795826 300.44185 
L 130.696735 276.194378 
L 135.714543 149.902874 
L 140.178543 282.596935 
L 145.130493 164.816671 
L 149.568747 165.906875 
L 154.494354 300.547045 
L 159.383439 138.427044 
L 164.437769 124.617796 
L 166.745206 160.972268 
L 168.841298 106.366446 
L 170.411122 102.378595 
L 171.877368 106.065205 
L 173.52742 107.231914 
L 174.942776 107.016743 
L 176.671857 110.751169 
L 178.117747 108.695083 
L 179.516339 109.350161 
L 181.103526 111.224547 
L 183.131963 114.485595 
L 185.006532 105.142357 
L 186.594915 102.895007 
L 187.882746 103.440109 
L 189.213085 102.015194 
L 190.532048 101.756987 
L 191.923455 101.097127 
L 193.169975 100.901082 
L 194.685316 101.953033 
L 196.020444 102.57464 
L 197.322045 101.6757 
L 198.623645 100.308164 
L 199.84921 101.154506 
L 201.106506 102.388158 
L 202.405113 102.737214 
L 203.712102 101.168851 
L 204.997537 102.435974 
L 206.579934 101.580068 
L 207.901292 100.427704 
L 209.526796 104.444244 
L 211.167268 105.247552 
L 212.444321 105.950447 
L 213.742929 104.0139 
L 215.054707 106.017389 
L 216.497005 99.882602 
L 217.726162 101.876527 
L 219.057698 110.521652 
L 220.83288 102.689398 
L 222.094966 101.513126 
L 223.445661 101.508344 
L 224.778993 101.211885 
L 226.049461 105.634861 
L 227.497147 101.656574 
L 229.181924 101.455747 
L 230.444608 101.551379 
L 232.0294 106.098676 
L 233.468106 105.792654 
L 234.70744 102.617675 
L 236.034786 139.76111 
L 237.324412 100.934553 
L 238.601465 101.470092 
L 239.853972 103.071926 
L 241.405235 102.378595 
L 243.048102 101.388804 
L 244.770598 101.078001 
L 245.972812 101.498781 
L 247.444447 101.637447 
L 248.761614 100.308164 
L 250.166193 101.761769 
L 251.380981 104.664197 
L 252.720899 99.882602 
L 253.984182 99.610051 
L 255.513892 105.802217 
L 256.789748 101.274046 
L 258.121883 103.578775 
L 259.449827 101.269265 
L 260.672398 101.890872 
L 261.928496 100.336853 
L 263.152863 100.02605 
L 264.440693 101.259701 
L 265.78121 101.264483 
L 267.178605 101.006277 
L 268.479607 100.676347 
L 269.760851 103.028892 
L 271.051675 102.579422 
L 272.257482 102.522043 
L 273.493224 101.484436 
L 274.709808 103.483143 
L 276.009013 102.149078 
L 277.374676 103.660062 
L 278.613412 106.232561 
L 279.906631 170.329851 
L 281.70636 108.546853 
L 283.826999 108.900691 
" clip-path="url(#p28c322227c)" style="fill: none; stroke: #1f77b4; stroke-width: 1.5; stroke-linecap: square"/>
   </g>
   <g id="line2d_23">
    <path d="M 80.754545 228.474054 
L 88.23845 300.547045 
L 95.502028 300.547045 
L 102.704538 294.091891 
L 110.140545 300.547045 
L 117.156855 300.547045 
L 123.572058 300.547045 
L 130.798516 300.547045 
L 138.178245 300.547045 
L 144.997579 216.037123 
L 150.929022 154.512332 
L 153.541204 109.01545 
L 155.260107 107.408833 
L 156.652712 103.000202 
L 157.938147 124.130073 
L 159.313988 102.325997 
L 160.830527 122.461297 
L 162.548232 123.001617 
L 164.085726 103.526178 
L 165.446599 103.009765 
L 166.778734 107.915683 
L 168.049202 102.531606 
L 169.317274 103.688752 
L 170.736821 110.469055 
L 172.398248 104.994128 
L 173.971066 104.927185 
L 175.24752 101.895654 
L 176.501224 115.06895 
L 178.141696 105.352747 
L 179.779174 102.665491 
L 181.035273 103.80351 
L 182.415305 104.52075 
L 183.830062 109.579678 
L 185.344205 101.656574 
L 186.66736 101.790459 
L 187.842033 101.972159 
L 189.141838 101.871746 
L 190.700885 109.79485 
L 192.315612 103.038455 
L 193.490286 101.790459 
L 194.858942 103.244064 
L 196.009667 104.128659 
L 197.468729 110.373423 
L 198.937371 103.617028 
L 200.210832 102.938041 
L 201.514827 102.144297 
L 202.779308 102.292526 
L 204.207836 101.986504 
L 205.541767 111.052409 
L 206.743382 100.920208 
L 208.052766 103.985211 
L 209.226243 101.761769 
L 210.672732 101.866964 
L 212.052764 100.929771 
L 213.448362 101.22623 
L 214.699072 100.422922 
L 216.218005 101.613539 
L 217.824351 103.301443 
L 219.216357 100.8963 
L 220.537715 103.26319 
L 221.81417 103.196248 
L 223.152891 104.429899 
L 224.519751 102.72287 
L 225.884815 101.618321 
L 227.199587 102.560295 
L 228.592791 102.909352 
L 229.842902 101.144943 
L 231.131331 102.096481 
L 232.44311 102.187331 
L 233.63335 101.546597 
L 234.973269 102.675054 
L 236.486215 102.129952 
L 237.689627 102.469445 
L 238.873281 102.741996 
L 240.411373 102.837628 
L 241.759074 102.340342 
L 243.054688 99.830004 
L 244.420351 99.490511 
L 245.692615 120.64429 
L 247.132518 100.623749 
L 248.716711 101.283609 
L 250.189543 98.926283 
L 251.46959 100.183842 
L 252.655041 100.140808 
L 253.945266 100.599841 
L 255.181008 98.998007 
L 256.450877 98.911938 
L 257.666862 101.221449 
L 258.910986 100.815013 
L 260.083265 100.136026 
L 261.307632 99.78697 
L 262.578099 122.107458 
L 263.989264 121.466725 
L 265.642309 102.579422 
L 266.821174 101.274046 
L 268.520319 100.633312 
L 269.712954 101.570505 
L 271.004976 102.048665 
L 272.26766 102.636801 
L 273.609374 100.561588 
" clip-path="url(#p28c322227c)" style="fill: none; stroke: #ff7f0e; stroke-width: 1.5; stroke-linecap: square"/>
   </g>
   <g id="line2d_24">
    <path d="M 80.754545 300.547045 
L 87.672667 300.547045 
L 95.01767 300.547045 
L 102.046553 215.984526 
L 108.968266 300.547045 
L 115.772632 300.547045 
L 121.59032 215.080804 
L 127.108053 203.700607 
L 132.915563 300.547045 
L 137.889067 267.204978 
L 142.64883 125.813195 
L 147.548692 248.222044 
L 151.798951 290.806935 
L 156.022867 300.547045 
L 159.494201 207.315493 
L 163.472644 125.100737 
L 167.075097 204.350904 
L 171.018815 145.183439 
L 173.574718 154.101115 
L 176.386271 293.178606 
L 178.854762 127.018157 
L 181.250809 118.15786 
L 184.173723 111.463627 
L 187.255894 225.710291 
L 189.623801 112.324314 
L 193.082563 114.083941 
L 195.410356 247.58131 
L 199.20739 269.820511 
L 203.614512 261.194513 
L 207.165475 225.409051 
L 210.975081 229.731613 
L 214.098564 218.595277 
L 216.914907 103.851326 
L 219.937805 152.470591 
L 223.110382 107.021524 
L 226.11053 262.59552 
L 230.666731 193.974841 
L 236.585601 269.289754 
L 240.404787 292.743481 
L 244.623314 146.900032 
L 248.379636 218.337071 
L 251.759966 191.780089 
L 256.451476 196.207846 
L 261.553702 128.663026 
L 265.455511 218.260565 
L 268.041349 229.210419 
L 271.919209 121.12245 
L 274.554142 104.903277 
L 277.848258 151.413858 
L 281.720729 146.307114 
L 285.101059 107.031087 
L 288.20658 239.007909 
L 291.148653 107.222351 
L 293.903328 230.028072 
L 298.539757 228.61272 
L 302.105089 115.360627 
L 304.957354 123.556282 
L 308.45144 105.070633 
L 310.675057 129.227254 
L 313.145943 106.686812 
L 315.751539 174.618942 
L 318.448739 117.474092 
L 320.890886 188.370811 
L 324.611884 134.606549 
L 327.578503 173.83476 
L 330.282887 201.085074 
L 334.152964 123.082904 
L 337.74404 141.640277 
L 340.683119 163.669088 
L 343.454559 110.339952 
L 346.48105 103.129305 
L 349.970345 105.783091 
L 352.845961 224.457513 
L 355.097119 124.627359 
L 358.86781 171.568284 
L 362.620539 173.896921 
L 366.00027 175.54179 
L 369.955364 171.142722 
L 372.95611 170.085989 
L 375.844897 170.989711 
L 378.682195 196.958557 
L 382.463064 110.851582 
L 386.856415 281.588018 
L 391.563491 111.434937 
L 393.390163 111.214984 
L 396.526817 104.405991 
L 398.849821 110.588595 
L 401.048891 108.872002 
L 404.376534 174.092966 
L 406.797129 110.167814 
L 410.449274 107.475776 
L 413.061456 108.403405 
L 415.042595 181.762646 
L 418.651034 169.947323 
L 421.635616 128.667808 
L 424.968647 103.95174 
L 427.388044 120.500842 
L 430.561818 137.418128 
L 433.026717 118.038321 
L 435.845455 167.714318 
" clip-path="url(#p28c322227c)" style="fill: none; stroke: #2ca02c; stroke-width: 1.5; stroke-linecap: square"/>
   </g>
   <g id="patch_3">
    <path d="M 63 352.44 
L 63 47.52 
" style="fill: none; stroke: #000000; stroke-width: 0.8; stroke-linejoin: miter; stroke-linecap: square"/>
   </g>
   <g id="patch_4">
    <path d="M 453.6 352.44 
L 453.6 47.52 
" style="fill: none; stroke: #000000; stroke-width: 0.8; stroke-linejoin: miter; stroke-linecap: square"/>
   </g>
   <g id="patch_5">
    <path d="M 63 352.44 
L 453.6 352.44 
" style="fill: none; stroke: #000000; stroke-width: 0.8; stroke-linejoin: miter; stroke-linecap: square"/>
   </g>
   <g id="patch_6">
    <path d="M 63 47.52 
L 453.6 47.52 
" style="fill: none; stroke: #000000; stroke-width: 0.8; stroke-linejoin: miter; stroke-linecap: square"/>
   </g>
   <g id="text_17">
    <!-- Acrobot - n-step Q-Tsetlin-Machine -->
    <g transform="translate(155.567813 41.52) scale(0.12 -0.12)">
     <defs>
      <path id="DejaVuSans-41" d="M 2188 4044 
L 1331 1722 
L 3047 1722 
L 2188 4044 
z
M 1831 4666 
L 2547 4666 
L 4325 0 
L 3669 0 
L 3244 1197 
L 1141 1197 
L 716 0 
L 50 0 
L 1831 4666 
z
" transform="scale(0.015625)"/>
      <path id="DejaVuSans-63" d="M 3122 3366 
L 3122 2828 
Q 2878 2963 2633 3030 
Q 2388 3097 2138 3097 
Q 1578 3097 1268 2742 
Q 959 2388 959 1747 
Q 959 1106 1268 751 
Q 1578 397 2138 397 
Q 2388 397 2633 464 
Q 2878 531 3122 666 
L 3122 134 
Q 2881 22 2623 -34 
Q 2366 -91 2075 -91 
Q 1284 -91 818 406 
Q 353 903 353 1747 
Q 353 2603 823 3093 
Q 1294 3584 2113 3584 
Q 2378 3584 2631 3529 
Q 2884 3475 3122 3366 
z
" transform="scale(0.015625)"/>
      <path id="DejaVuSans-6f" d="M 1959 3097 
Q 1497 3097 1228 2736 
Q 959 2375 959 1747 
Q 959 1119 1226 758 
Q 1494 397 1959 397 
Q 2419 397 2687 759 
Q 2956 1122 2956 1747 
Q 2956 2369 2687 2733 
Q 2419 3097 1959 3097 
z
M 1959 3584 
Q 2709 3584 3137 3096 
Q 3566 2609 3566 1747 
Q 3566 888 3137 398 
Q 2709 -91 1959 -91 
Q 1206 -91 779 398 
Q 353 888 353 1747 
Q 353 2609 779 3096 
Q 1206 3584 1959 3584 
z
" transform="scale(0.015625)"/>
      <path id="DejaVuSans-62" d="M 3116 1747 
Q 3116 2381 2855 2742 
Q 2594 3103 2138 3103 
Q 1681 3103 1420 2742 
Q 1159 2381 1159 1747 
Q 1159 1113 1420 752 
Q 1681 391 2138 391 
Q 2594 391 2855 752 
Q 3116 1113 3116 1747 
z
M 1159 2969 
Q 1341 3281 1617 3432 
Q 1894 3584 2278 3584 
Q 2916 3584 3314 3078 
Q 3713 2572 3713 1747 
Q 3713 922 3314 415 
Q 2916 -91 2278 -91 
Q 1894 -91 1617 61 
Q 1341 213 1159 525 
L 1159 0 
L 581 0 
L 581 4863 
L 1159 4863 
L 1159 2969 
z
" transform="scale(0.015625)"/>
      <path id="DejaVuSans-2d" d="M 313 2009 
L 1997 2009 
L 1997 1497 
L 313 1497 
L 313 2009 
z
" transform="scale(0.015625)"/>
      <path id="DejaVuSans-51" d="M 2522 4238 
Q 1834 4238 1429 3725 
Q 1025 3213 1025 2328 
Q 1025 1447 1429 934 
Q 1834 422 2522 422 
Q 3209 422 3611 934 
Q 4013 1447 4013 2328 
Q 4013 3213 3611 3725 
Q 3209 4238 2522 4238 
z
M 3406 84 
L 4238 -825 
L 3475 -825 
L 2784 -78 
Q 2681 -84 2626 -87 
Q 2572 -91 2522 -91 
Q 1538 -91 948 567 
Q 359 1225 359 2328 
Q 359 3434 948 4092 
Q 1538 4750 2522 4750 
Q 3503 4750 4090 4092 
Q 4678 3434 4678 2328 
Q 4678 1516 4351 937 
Q 4025 359 3406 84 
z
" transform="scale(0.015625)"/>
      <path id="DejaVuSans-6c" d="M 603 4863 
L 1178 4863 
L 1178 0 
L 603 0 
L 603 4863 
z
" transform="scale(0.015625)"/>
      <path id="DejaVuSans-68" d="M 3513 2113 
L 3513 0 
L 2938 0 
L 2938 2094 
Q 2938 2591 2744 2837 
Q 2550 3084 2163 3084 
Q 1697 3084 1428 2787 
Q 1159 2491 1159 1978 
L 1159 0 
L 581 0 
L 581 4863 
L 1159 4863 
L 1159 2956 
Q 1366 3272 1645 3428 
Q 1925 3584 2291 3584 
Q 2894 3584 3203 3211 
Q 3513 2838 3513 2113 
z
" transform="scale(0.015625)"/>
     </defs>
     <use xlink:href="#DejaVuSans-41"/>
     <use xlink:href="#DejaVuSans-63" x="66.658203"/>
     <use xlink:href="#DejaVuSans-72" x="121.638672"/>
     <use xlink:href="#DejaVuSans-6f" x="160.501953"/>
     <use xlink:href="#DejaVuSans-62" x="221.683594"/>
     <use xlink:href="#DejaVuSans-6f" x="285.160156"/>
     <use xlink:href="#DejaVuSans-74" x="346.341797"/>
     <use xlink:href="#DejaVuSans-20" x="385.550781"/>
     <use xlink:href="#DejaVuSans-2d" x="417.337891"/>
     <use xlink:href="#DejaVuSans-20" x="453.421875"/>
     <use xlink:href="#DejaVuSans-6e" x="485.208984"/>
     <use xlink:href="#DejaVuSans-2d" x="548.587891"/>
     <use xlink:href="#DejaVuSans-73" x="584.671875"/>
     <use xlink:href="#DejaVuSans-74" x="636.771484"/>
     <use xlink:href="#DejaVuSans-65" x="675.980469"/>
     <use xlink:href="#DejaVuSans-70" x="737.503906"/>
     <use xlink:href="#DejaVuSans-20" x="800.980469"/>
     <use xlink:href="#DejaVuSans-51" x="832.767578"/>
     <use xlink:href="#DejaVuSans-2d" x="914.228516"/>
     <use xlink:href="#DejaVuSans-54" x="941.1875"/>
     <use xlink:href="#DejaVuSans-73" x="985.771484"/>
     <use xlink:href="#DejaVuSans-65" x="1037.871094"/>
     <use xlink:href="#DejaVuSans-74" x="1099.394531"/>
     <use xlink:href="#DejaVuSans-6c" x="1138.603516"/>
     <use xlink:href="#DejaVuSans-69" x="1166.386719"/>
     <use xlink:href="#DejaVuSans-6e" x="1194.169922"/>
     <use xlink:href="#DejaVuSans-2d" x="1257.548828"/>
     <use xlink:href="#DejaVuSans-4d" x="1293.632812"/>
     <use xlink:href="#DejaVuSans-61" x="1379.912109"/>
     <use xlink:href="#DejaVuSans-63" x="1441.191406"/>
     <use xlink:href="#DejaVuSans-68" x="1496.171875"/>
     <use xlink:href="#DejaVuSans-69" x="1559.550781"/>
     <use xlink:href="#DejaVuSans-6e" x="1587.333984"/>
     <use xlink:href="#DejaVuSans-65" x="1650.712891"/>
    </g>
   </g>
   <g id="legend_1">
    <g id="patch_7">
     <path d="M 268.667188 99.554375 
L 446.6 99.554375 
Q 448.6 99.554375 448.6 97.554375 
L 448.6 54.52 
Q 448.6 52.52 446.6 52.52 
L 268.667188 52.52 
Q 266.667188 52.52 266.667188 54.52 
L 266.667188 97.554375 
Q 266.667188 99.554375 268.667188 99.554375 
z
" style="fill: #ffffff; opacity: 0.8; stroke: #cccccc; stroke-linejoin: miter"/>
    </g>
    <g id="line2d_25">
     <path d="M 270.667188 60.618437 
L 280.667188 60.618437 
L 290.667188 60.618437 
" style="fill: none; stroke: #1f77b4; stroke-width: 1.5; stroke-linecap: square"/>
    </g>
    <g id="text_18">
     <!-- n-step QTM -->
     <g transform="translate(298.667188 64.118437) scale(0.1 -0.1)">
      <use xlink:href="#DejaVuSans-6e"/>
      <use xlink:href="#DejaVuSans-2d" x="63.378906"/>
      <use xlink:href="#DejaVuSans-73" x="99.462891"/>
      <use xlink:href="#DejaVuSans-74" x="151.5625"/>
      <use xlink:href="#DejaVuSans-65" x="190.771484"/>
      <use xlink:href="#DejaVuSans-70" x="252.294922"/>
      <use xlink:href="#DejaVuSans-20" x="315.771484"/>
      <use xlink:href="#DejaVuSans-51" x="347.558594"/>
      <use xlink:href="#DejaVuSans-54" x="426.269531"/>
      <use xlink:href="#DejaVuSans-4d" x="487.353516"/>
     </g>
    </g>
    <g id="line2d_26">
     <path d="M 270.667188 75.296562 
L 280.667188 75.296562 
L 290.667188 75.296562 
" style="fill: none; stroke: #ff7f0e; stroke-width: 1.5; stroke-linecap: square"/>
    </g>
    <g id="text_19">
     <!-- n-step DQTM - Type a update -->
     <g transform="translate(298.667188 78.796562) scale(0.1 -0.1)">
      <defs>
       <path id="DejaVuSans-44" d="M 1259 4147 
L 1259 519 
L 2022 519 
Q 2988 519 3436 956 
Q 3884 1394 3884 2338 
Q 3884 3275 3436 3711 
Q 2988 4147 2022 4147 
L 1259 4147 
z
M 628 4666 
L 1925 4666 
Q 3281 4666 3915 4102 
Q 4550 3538 4550 2338 
Q 4550 1131 3912 565 
Q 3275 0 1925 0 
L 628 0 
L 628 4666 
z
" transform="scale(0.015625)"/>
       <path id="DejaVuSans-79" d="M 2059 -325 
Q 1816 -950 1584 -1140 
Q 1353 -1331 966 -1331 
L 506 -1331 
L 506 -850 
L 844 -850 
Q 1081 -850 1212 -737 
Q 1344 -625 1503 -206 
L 1606 56 
L 191 3500 
L 800 3500 
L 1894 763 
L 2988 3500 
L 3597 3500 
L 2059 -325 
z
" transform="scale(0.015625)"/>
       <path id="DejaVuSans-75" d="M 544 1381 
L 544 3500 
L 1119 3500 
L 1119 1403 
Q 1119 906 1312 657 
Q 1506 409 1894 409 
Q 2359 409 2629 706 
Q 2900 1003 2900 1516 
L 2900 3500 
L 3475 3500 
L 3475 0 
L 2900 0 
L 2900 538 
Q 2691 219 2414 64 
Q 2138 -91 1772 -91 
Q 1169 -91 856 284 
Q 544 659 544 1381 
z
M 1991 3584 
L 1991 3584 
z
" transform="scale(0.015625)"/>
      </defs>
      <use xlink:href="#DejaVuSans-6e"/>
      <use xlink:href="#DejaVuSans-2d" x="63.378906"/>
      <use xlink:href="#DejaVuSans-73" x="99.462891"/>
      <use xlink:href="#DejaVuSans-74" x="151.5625"/>
      <use xlink:href="#DejaVuSans-65" x="190.771484"/>
      <use xlink:href="#DejaVuSans-70" x="252.294922"/>
      <use xlink:href="#DejaVuSans-20" x="315.771484"/>
      <use xlink:href="#DejaVuSans-44" x="347.558594"/>
      <use xlink:href="#DejaVuSans-51" x="424.560547"/>
      <use xlink:href="#DejaVuSans-54" x="503.271484"/>
      <use xlink:href="#DejaVuSans-4d" x="564.355469"/>
      <use xlink:href="#DejaVuSans-20" x="650.634766"/>
      <use xlink:href="#DejaVuSans-2d" x="682.421875"/>
      <use xlink:href="#DejaVuSans-20" x="718.505859"/>
      <use xlink:href="#DejaVuSans-54" x="750.292969"/>
      <use xlink:href="#DejaVuSans-79" x="795.751953"/>
      <use xlink:href="#DejaVuSans-70" x="854.931641"/>
      <use xlink:href="#DejaVuSans-65" x="918.408203"/>
      <use xlink:href="#DejaVuSans-20" x="979.931641"/>
      <use xlink:href="#DejaVuSans-61" x="1011.71875"/>
      <use xlink:href="#DejaVuSans-20" x="1072.998047"/>
      <use xlink:href="#DejaVuSans-75" x="1104.785156"/>
      <use xlink:href="#DejaVuSans-70" x="1168.164062"/>
      <use xlink:href="#DejaVuSans-64" x="1231.640625"/>
      <use xlink:href="#DejaVuSans-61" x="1295.117188"/>
      <use xlink:href="#DejaVuSans-74" x="1356.396484"/>
      <use xlink:href="#DejaVuSans-65" x="1395.605469"/>
     </g>
    </g>
    <g id="line2d_27">
     <path d="M 270.667188 89.974687 
L 280.667188 89.974687 
L 290.667188 89.974687 
" style="fill: none; stroke: #2ca02c; stroke-width: 1.5; stroke-linecap: square"/>
    </g>
    <g id="text_20">
     <!-- n-step DQTM - Type b update -->
     <g transform="translate(298.667188 93.474687) scale(0.1 -0.1)">
      <use xlink:href="#DejaVuSans-6e"/>
      <use xlink:href="#DejaVuSans-2d" x="63.378906"/>
      <use xlink:href="#DejaVuSans-73" x="99.462891"/>
      <use xlink:href="#DejaVuSans-74" x="151.5625"/>
      <use xlink:href="#DejaVuSans-65" x="190.771484"/>
      <use xlink:href="#DejaVuSans-70" x="252.294922"/>
      <use xlink:href="#DejaVuSans-20" x="315.771484"/>
      <use xlink:href="#DejaVuSans-44" x="347.558594"/>
      <use xlink:href="#DejaVuSans-51" x="424.560547"/>
      <use xlink:href="#DejaVuSans-54" x="503.271484"/>
      <use xlink:href="#DejaVuSans-4d" x="564.355469"/>
      <use xlink:href="#DejaVuSans-20" x="650.634766"/>
      <use xlink:href="#DejaVuSans-2d" x="682.421875"/>
      <use xlink:href="#DejaVuSans-20" x="718.505859"/>
      <use xlink:href="#DejaVuSans-54" x="750.292969"/>
      <use xlink:href="#DejaVuSans-79" x="795.751953"/>
      <use xlink:href="#DejaVuSans-70" x="854.931641"/>
      <use xlink:href="#DejaVuSans-65" x="918.408203"/>
      <use xlink:href="#DejaVuSans-20" x="979.931641"/>
      <use xlink:href="#DejaVuSans-62" x="1011.71875"/>
      <use xlink:href="#DejaVuSans-20" x="1075.195312"/>
      <use xlink:href="#DejaVuSans-75" x="1106.982422"/>
      <use xlink:href="#DejaVuSans-70" x="1170.361328"/>
      <use xlink:href="#DejaVuSans-64" x="1233.837891"/>
      <use xlink:href="#DejaVuSans-61" x="1297.314453"/>
      <use xlink:href="#DejaVuSans-74" x="1358.59375"/>
      <use xlink:href="#DejaVuSans-65" x="1397.802734"/>
     </g>
    </g>
   </g>
  </g>
 </g>
 <defs>
  <clipPath id="p28c322227c">
   <rect x="63" y="47.52" width="390.6" height="304.92"/>
  </clipPath>
 </defs>
</svg>
