<?xml version="1.0" encoding="utf-8" standalone="no"?>
<!DOCTYPE svg PUBLIC "-//W3C//DTD SVG 1.1//EN"
  "http://www.w3.org/Graphics/SVG/1.1/DTD/svg11.dtd">
<svg xmlns:xlink="http://www.w3.org/1999/xlink" width="504pt" height="396pt" viewBox="0 0 504 396" xmlns="http://www.w3.org/2000/svg" version="1.1">
 <metadata>
  <rdf:RDF xmlns:dc="http://purl.org/dc/elements/1.1/" xmlns:cc="http://creativecommons.org/ns#" xmlns:rdf="http://www.w3.org/1999/02/22-rdf-syntax-ns#">
   <cc:Work>
    <dc:type rdf:resource="http://purl.org/dc/dcmitype/StillImage"/>
    <dc:date>2024-05-10T11:50:46.977631</dc:date>
    <dc:format>image/svg+xml</dc:format>
    <dc:creator>
     <cc:Agent>
      <dc:title>Matplotlib v3.8.2, https://matplotlib.org/</dc:title>
     </cc:Agent>
    </dc:creator>
   </cc:Work>
  </rdf:RDF>
 </metadata>
 <defs>
  <style type="text/css">*{stroke-linejoin: round; stroke-linecap: butt}</style>
 </defs>
 <g id="figure_1">
  <g id="patch_1">
   <path d="M 0 396 
L 504 396 
L 504 0 
L 0 0 
z
" style="fill: #ffffff"/>
  </g>
  <g id="axes_1">
   <g id="patch_2">
    <path d="M 63 352.44 
L 453.6 352.44 
L 453.6 47.52 
L 63 47.52 
z
" style="fill: #ffffff"/>
   </g>
   <g id="PolyCollection_1">
    <path d="M 80.754545 308.823942 
L 80.754545 308.823942 
L 85.34072 308.823942 
L 90.009999 308.823942 
L 94.523506 187.425869 
L 98.583227 279.332897 
L 102.472102 322.264554 
L 106.471912 269.289416 
L 109.950679 328.038637 
L 113.410506 312.689517 
L 117.296676 319.054672 
L 121.237732 308.823942 
L 124.920974 308.823942 
L 128.621609 189.247109 
L 132.206285 308.823942 
L 135.000895 218.202114 
L 139.168071 308.823942 
L 142.826961 175.389853 
L 146.742894 295.686627 
L 150.586545 288.521014 
L 154.761839 206.884611 
L 158.257613 176.33601 
L 162.218769 308.823942 
L 166.765518 308.823942 
L 170.625017 131.417334 
L 174.519304 161.028069 
L 177.910715 308.823942 
L 181.040833 127.287525 
L 183.974593 308.823942 
L 187.591351 149.782113 
L 191.438095 134.76034 
L 194.716639 221.163944 
L 198.291266 308.823942 
L 201.707415 308.823942 
L 205.949192 308.823942 
L 209.502173 308.823942 
L 213.539862 320.101496 
L 217.19566 325.180595 
L 220.948863 143.0933 
L 225.047237 308.823942 
L 228.432078 308.823942 
L 232.065071 308.823942 
L 236.096962 308.823942 
L 240.065849 308.823942 
L 244.439045 183.278403 
L 248.518093 308.823942 
L 252.493551 146.752898 
L 255.509256 308.823942 
L 258.91149 318.744532 
L 262.27971 273.30112 
L 265.714026 308.823942 
L 269.207481 288.820479 
L 272.544006 229.922003 
L 276.726257 308.823942 
L 280.852848 308.060397 
L 284.770326 323.336691 
L 288.857491 313.22767 
L 292.458402 318.500108 
L 295.517398 308.823942 
L 298.883298 208.920464 
L 302.67902 308.823942 
L 306.475128 157.307234 
L 309.61027 256.568328 
L 312.48953 134.495112 
L 315.701205 216.036474 
L 318.474555 207.596549 
L 322.285738 308.823942 
L 325.301056 128.175096 
L 328.879161 173.193775 
L 332.218778 128.000063 
L 335.15795 176.204139 
L 338.414462 168.079941 
L 341.255069 208.63677 
L 344.524337 296.526041 
L 347.888305 323.260687 
L 351.076015 312.390238 
L 354.464334 308.823942 
L 358.219857 152.110505 
L 361.08984 308.823942 
L 364.470429 180.625072 
L 367.572716 233.72609 
L 370.937843 308.823942 
L 374.421249 311.547142 
L 377.108403 156.184786 
L 380.159282 167.06567 
L 383.944567 243.439445 
L 387.581812 251.630879 
L 390.161511 308.823942 
L 393.206592 308.823942 
L 396.780832 308.823942 
L 400.441654 127.194368 
L 404.241241 330.835729 
L 407.469924 311.373469 
L 410.695514 234.574828 
L 414.740934 179.974394 
L 418.284638 322.702621 
L 422.23845 315.37755 
L 425.993199 310.858449 
L 430.003831 263.092416 
L 433.103413 225.695344 
L 435.845455 308.823942 
L 435.845455 308.823942 
L 435.845455 308.823942 
L 433.103413 90.231382 
L 430.003831 183.106747 
L 425.993199 306.323288 
L 422.23845 299.483812 
L 418.284638 254.11082 
L 414.740934 139.64007 
L 410.695514 170.789892 
L 407.469924 305.70468 
L 404.241241 272.330534 
L 400.441654 102.391648 
L 396.780832 308.823942 
L 393.206592 308.823942 
L 390.161511 308.823942 
L 387.581812 129.100583 
L 383.944567 152.623061 
L 380.159282 135.073475 
L 377.108403 100.675986 
L 374.421249 185.689894 
L 370.937843 308.823942 
L 367.572716 162.460722 
L 364.470429 128.630578 
L 361.08984 308.823942 
L 358.219857 123.375413 
L 354.464334 308.823942 
L 351.076015 226.841428 
L 347.888305 287.602174 
L 344.524337 196.898952 
L 341.255069 126.961342 
L 338.414462 89.640612 
L 335.15795 112.623931 
L 332.218778 101.803488 
L 328.879161 141.842093 
L 325.301056 84.681436 
L 322.285738 308.823942 
L 318.474555 151.194947 
L 315.701205 144.360638 
L 312.48953 100.549999 
L 309.61027 160.284317 
L 306.475128 98.165457 
L 302.67902 308.823942 
L 298.883298 141.718646 
L 295.517398 308.823942 
L 292.458402 263.534175 
L 288.857491 303.436126 
L 284.770326 271.45965 
L 280.852848 242.534887 
L 276.726257 308.823942 
L 272.544006 162.432049 
L 269.207481 214.082828 
L 265.714026 308.823942 
L 262.27971 152.23221 
L 258.91149 292.491246 
L 255.509256 308.823942 
L 252.493551 90.747252 
L 248.518093 308.823942 
L 244.439045 132.1511 
L 240.065849 308.823942 
L 236.096962 308.823942 
L 232.065071 308.823942 
L 228.432078 308.823942 
L 225.047237 308.823942 
L 220.948863 104.413463 
L 217.19566 276.804763 
L 213.539862 267.101835 
L 209.502173 308.823942 
L 205.949192 308.823942 
L 201.707415 308.823942 
L 198.291266 308.823942 
L 194.716639 149.488393 
L 191.438095 110.488202 
L 187.591351 93.104619 
L 183.974593 308.823942 
L 181.040833 98.455371 
L 177.910715 308.823942 
L 174.519304 128.452606 
L 170.625017 109.304407 
L 166.765518 308.823942 
L 162.218769 308.823942 
L 158.257613 120.281888 
L 154.761839 132.017963 
L 150.586545 214.744852 
L 146.742894 214.871844 
L 142.826961 117.043084 
L 139.168071 308.823942 
L 135.000895 133.18283 
L 132.206285 308.823942 
L 128.621609 144.6418 
L 124.920974 308.823942 
L 121.237732 308.823942 
L 117.296676 254.464667 
L 113.410506 303.736026 
L 109.950679 276.122071 
L 106.471912 178.214958 
L 102.472102 283.315312 
L 98.583227 184.03082 
L 94.523506 104.665228 
L 90.009999 308.823942 
L 85.34072 308.823942 
L 80.754545 308.823942 
z
" clip-path="url(#p99fdc7d794)" style="fill: #1f77b4; fill-opacity: 0.1"/>
   </g>
   <g id="PolyCollection_2">
    <path d="M 80.754545 308.823942 
L 80.754545 308.823942 
L 85.501517 308.823942 
L 90.225682 162.50372 
L 94.779389 308.823942 
L 98.91371 332.2138 
L 102.903083 308.823942 
L 106.844526 204.219436 
L 110.453554 308.823942 
L 114.375671 167.215541 
L 118.312862 337.086652 
L 121.847676 108.32036 
L 125.338039 282.418342 
L 127.78168 308.823942 
L 131.21329 308.823942 
L 135.179085 338.58 
L 138.907937 149.21698 
L 142.250259 308.823942 
L 145.809038 287.354392 
L 149.140537 315.777198 
L 152.976845 321.372947 
L 156.578528 317.399624 
L 159.773196 308.823942 
L 163.013088 178.350983 
L 165.934093 153.03444 
L 169.889838 308.823942 
L 173.388318 308.823942 
L 176.337926 177.543892 
L 179.777654 308.823942 
L 182.578448 295.687506 
L 185.337497 133.037058 
L 189.120076 308.823942 
L 192.611599 308.823942 
L 195.792738 123.417338 
L 199.159798 315.545422 
L 202.13569 323.527042 
L 205.607113 315.297174 
L 209.260592 308.823942 
L 213.171886 308.823942 
L 215.970361 308.823942 
L 219.8287 259.367412 
L 223.294325 174.723821 
L 225.957128 308.823942 
L 228.866924 124.135978 
L 231.783677 308.823942 
L 235.694198 195.871362 
L 238.646125 168.868388 
L 242.408991 308.823942 
L 246.03348 274.880086 
L 249.852394 308.823942 
L 253.434751 312.02144 
L 256.757747 314.928005 
L 259.698851 308.823942 
L 263.441231 308.823942 
L 266.477809 265.353086 
L 270.351996 178.962232 
L 274.473175 308.823942 
L 277.915995 155.536676 
L 280.597738 275.343757 
L 284.258947 196.892376 
L 287.24257 131.656811 
L 290.129174 161.255527 
L 293.854547 265.110248 
L 297.860927 172.987736 
L 300.84223 264.139867 
L 304.680084 124.6631 
L 307.522623 308.823942 
L 311.378643 308.823942 
L 315.046037 317.333529 
L 318.99869 122.520583 
L 322.187946 176.09975 
L 325.218339 308.823942 
L 328.029569 308.823942 
L 331.466205 320.054018 
L 335.016866 133.057887 
L 338.140413 148.45706 
L 341.27169 324.509376 
L 344.977736 308.823942 
L 349.289089 308.823942 
L 353.434619 308.823942 
L 357.061427 175.486181 
L 360.726115 158.175967 
L 363.92117 162.516845 
L 367.345436 167.442179 
L 371.085498 119.579169 
L 373.825607 330.767481 
L 376.622149 162.879359 
L 379.885232 169.550739 
L 383.524796 336.897813 
L 386.884126 321.781918 
L 391.096526 134.80447 
L 394.719469 308.823942 
L 397.856157 298.755523 
L 400.794556 308.823942 
L 404.839203 205.922829 
L 408.506596 308.823942 
L 411.2038 112.366067 
L 413.880905 309.843753 
L 417.070935 150.690738 
L 420.352958 143.7731 
L 423.29097 167.279697 
L 423.29097 118.295705 
L 423.29097 118.295705 
L 420.352958 106.074755 
L 417.070935 109.215525 
L 413.880905 307.576237 
L 411.2038 87.894149 
L 408.506596 308.823942 
L 404.839203 90.985116 
L 400.794556 308.823942 
L 397.856157 186.890002 
L 394.719469 308.823942 
L 391.096526 97.27802 
L 386.884126 284.429835 
L 383.524796 249.538966 
L 379.885232 110.399828 
L 376.622149 91.412427 
L 373.825607 217.279535 
L 371.085498 98.881482 
L 367.345436 127.07288 
L 363.92117 93.163022 
L 360.726115 124.312509 
L 357.061427 128.704009 
L 353.434619 308.823942 
L 349.289089 308.823942 
L 344.977736 308.823942 
L 341.27169 247.621881 
L 338.140413 120.699623 
L 335.016866 111.952403 
L 331.466205 292.331588 
L 328.029569 308.823942 
L 325.218339 308.823942 
L 322.187946 104.793469 
L 318.99869 95.163157 
L 315.046037 276.882719 
L 311.378643 308.823942 
L 307.522623 308.823942 
L 304.680084 101.318049 
L 300.84223 100.255747 
L 297.860927 114.949477 
L 293.854547 146.811601 
L 290.129174 116.405742 
L 287.24257 94.676538 
L 284.258947 113.554538 
L 280.597738 150.914691 
L 277.915995 87.422568 
L 274.473175 308.823942 
L 270.351996 116.630143 
L 266.477809 170.404393 
L 263.441231 308.823942 
L 259.698851 308.823942 
L 256.757747 300.244122 
L 253.434751 185.00842 
L 249.852394 308.823942 
L 246.03348 207.813176 
L 242.408991 308.823942 
L 238.646125 113.77547 
L 235.694198 133.811868 
L 231.783677 308.823942 
L 228.866924 88.865578 
L 225.957128 308.823942 
L 223.294325 99.487963 
L 219.8287 161.349071 
L 215.970361 308.823942 
L 213.171886 308.823942 
L 209.260592 308.823942 
L 205.607113 256.160761 
L 202.13569 237.965714 
L 199.159798 300.600433 
L 195.792738 103.672204 
L 192.611599 308.823942 
L 189.120076 308.823942 
L 185.337497 92.757633 
L 182.578448 177.568878 
L 179.777654 308.823942 
L 176.337926 127.423209 
L 173.388318 308.823942 
L 169.889838 308.823942 
L 165.934093 121.974973 
L 163.013088 128.615369 
L 159.773196 308.823942 
L 156.578528 298.331879 
L 152.976845 288.692285 
L 149.140537 300.316864 
L 145.809038 209.92408 
L 142.250259 308.823942 
L 138.907937 88.842545 
L 135.179085 223.990073 
L 131.21329 308.823942 
L 127.78168 308.823942 
L 125.338039 176.159603 
L 121.847676 88.987594 
L 118.312862 248.407475 
L 114.375671 110.829004 
L 110.453554 308.823942 
L 106.844526 134.962826 
L 102.903083 308.823942 
L 98.91371 216.361516 
L 94.779389 308.823942 
L 90.225682 110.578954 
L 85.501517 308.823942 
L 80.754545 308.823942 
z
" clip-path="url(#p99fdc7d794)" style="fill: #ff7f0e; fill-opacity: 0.1"/>
   </g>
   <g id="PolyCollection_3">
    <path d="M 80.754545 308.823942 
L 80.754545 308.823942 
L 85.543648 308.823942 
L 90.12905 308.823942 
L 94.68237 308.823942 
L 99.248445 256.578195 
L 103.780505 318.788227 
L 108.078329 280.503694 
L 112.619666 272.178952 
L 116.980108 320.33632 
L 121.241211 308.823942 
L 125.554882 322.240361 
L 129.538457 325.130625 
L 133.827777 238.131861 
L 138.248517 307.729902 
L 142.194212 320.544141 
L 146.656698 312.12661 
L 150.586545 309.24152 
L 154.703473 308.266224 
L 158.814216 294.105469 
L 163.039758 323.153203 
L 167.564088 305.903453 
L 172.218292 324.411836 
L 176.765041 318.373808 
L 180.805822 306.483786 
L 184.872501 272.591588 
L 189.111186 292.31446 
L 193.414034 324.74441 
L 197.610974 319.485426 
L 202.005043 312.625055 
L 206.572665 316.978558 
L 210.739068 310.168238 
L 214.760136 313.519546 
L 218.89871 295.365825 
L 223.32718 308.823942 
L 228.101595 308.823942 
L 232.307811 320.322652 
L 236.849535 313.215504 
L 241.533115 311.102881 
L 246.244912 318.542617 
L 250.904914 318.735256 
L 255.649179 322.052639 
L 260.268209 311.520982 
L 264.576856 296.555733 
L 268.72316 302.744677 
L 273.018277 313.599835 
L 277.416985 318.129031 
L 281.737228 270.239198 
L 285.520194 312.458461 
L 289.423757 298.071527 
L 293.656257 284.166229 
L 297.670368 265.852068 
L 300.960895 298.829053 
L 305.008634 267.803028 
L 308.845714 319.868289 
L 312.950659 313.944025 
L 316.457643 324.43202 
L 320.884181 224.521316 
L 324.666761 243.692922 
L 327.795719 238.967213 
L 331.440694 320.781028 
L 334.171526 283.789113 
L 337.581491 304.61197 
L 340.451474 199.894615 
L 343.148291 240.877673 
L 346.36847 286.568846 
L 348.824866 192.241578 
L 351.619863 279.876157 
L 353.992382 314.129891 
L 356.936965 323.973226 
L 359.432401 296.521162 
L 361.85169 208.512912 
L 364.764964 290.498468 
L 366.870778 272.969759 
L 368.861406 137.552579 
L 370.51498 181.116657 
L 372.421344 267.066929 
L 373.762602 313.932287 
L 375.958091 303.164228 
L 378.01984 332.724431 
L 380.169332 295.650916 
L 382.088452 299.256815 
L 383.876151 315.405266 
L 385.279641 261.761625 
L 386.916207 131.860378 
L 388.245483 277.946832 
L 390.555771 261.998168 
L 391.747442 277.976723 
L 392.949163 262.28518 
L 394.806438 260.917697 
L 396.517991 259.919511 
L 398.108561 260.485897 
L 400.089526 263.112693 
L 401.930567 260.754023 
L 403.710922 262.494242 
L 405.265545 261.089361 
L 407.434363 260.311242 
L 409.528194 262.827221 
L 411.557089 127.819401 
L 414.042474 260.378738 
L 415.883902 260.473174 
L 415.883902 62.518263 
L 415.883902 62.518263 
L 414.042474 61.38 
L 411.557089 74.160377 
L 409.528194 68.865619 
L 407.434363 62.110459 
L 405.265545 65.289407 
L 403.710922 69.146803 
L 401.930567 63.221501 
L 400.089526 70.548321 
L 398.108561 63.852186 
L 396.517991 61.600974 
L 394.806438 63.63792 
L 392.949163 66.237863 
L 391.747442 72.703822 
L 390.555771 67.156763 
L 388.245483 75.002293 
L 386.916207 75.112349 
L 385.279641 64.990061 
L 383.876151 104.047441 
L 382.088452 96.526004 
L 380.169332 98.847409 
L 378.01984 145.504183 
L 375.958091 108.177528 
L 373.762602 143.381883 
L 372.421344 79.697985 
L 370.51498 99.113598 
L 368.861406 100.009724 
L 366.870778 92.855371 
L 364.764964 123.836985 
L 361.85169 120.963142 
L 359.432401 132.358065 
L 356.936965 277.193785 
L 353.992382 163.197506 
L 351.619863 125.747534 
L 348.824866 128.346614 
L 346.36847 125.912379 
L 343.148291 132.374726 
L 340.451474 109.972205 
L 337.581491 157.550125 
L 334.171526 128.453859 
L 331.440694 227.120964 
L 327.795719 162.585465 
L 324.666761 156.254139 
L 320.884181 155.588617 
L 316.457643 239.722951 
L 312.950659 202.280716 
L 308.845714 216.19358 
L 305.008634 184.383529 
L 300.960895 209.864831 
L 297.670368 179.052243 
L 293.656257 207.435613 
L 289.423757 174.439022 
L 285.520194 222.204968 
L 281.737228 167.807579 
L 277.416985 293.396794 
L 273.018277 232.09573 
L 268.72316 227.070827 
L 264.576856 217.814781 
L 260.268209 305.277479 
L 255.649179 271.36598 
L 250.904914 264.355626 
L 246.244912 288.073131 
L 241.533115 305.819886 
L 236.849535 276.328919 
L 232.307811 267.118931 
L 228.101595 308.823942 
L 223.32718 308.823942 
L 218.89871 215.430898 
L 214.760136 302.564157 
L 210.739068 307.17924 
L 206.572665 293.759997 
L 202.005043 304.173406 
L 197.610974 266.599153 
L 193.414034 238.322885 
L 189.111186 205.202265 
L 184.872501 177.098495 
L 180.805822 231.981328 
L 176.765041 292.716947 
L 172.218292 265.350122 
L 167.564088 205.349058 
L 163.039758 280.158082 
L 158.814216 189.447575 
L 154.703473 204.457238 
L 150.586545 188.48238 
L 146.656698 231.031047 
L 142.194212 283.67872 
L 138.248517 232.071499 
L 133.827777 155.102689 
L 129.538457 271.084873 
L 125.554882 270.888211 
L 121.241211 308.823942 
L 116.980108 239.488667 
L 112.619666 195.017526 
L 108.078329 215.987508 
L 103.780505 246.236885 
L 99.248445 126.484001 
L 94.68237 308.823942 
L 90.12905 308.823942 
L 85.543648 308.823942 
L 80.754545 308.823942 
z
" clip-path="url(#p99fdc7d794)" style="fill: #2ca02c; fill-opacity: 0.1"/>
   </g>
   <g id="matplotlib.axis_1">
    <g id="xtick_1">
     <g id="line2d_1">
      <defs>
       <path id="md109ded44f" d="M 0 0 
L 0 3.5 
" style="stroke: #000000; stroke-width: 0.8"/>
      </defs>
      <g>
       <use xlink:href="#md109ded44f" x="80.754545" y="352.44" style="stroke: #000000; stroke-width: 0.8"/>
      </g>
     </g>
     <g id="text_1">
      <!-- 0 -->
      <g transform="translate(77.573295 367.038437) scale(0.1 -0.1)">
       <defs>
        <path id="DejaVuSans-30" d="M 2034 4250 
Q 1547 4250 1301 3770 
Q 1056 3291 1056 2328 
Q 1056 1369 1301 889 
Q 1547 409 2034 409 
Q 2525 409 2770 889 
Q 3016 1369 3016 2328 
Q 3016 3291 2770 3770 
Q 2525 4250 2034 4250 
z
M 2034 4750 
Q 2819 4750 3233 4129 
Q 3647 3509 3647 2328 
Q 3647 1150 3233 529 
Q 2819 -91 2034 -91 
Q 1250 -91 836 529 
Q 422 1150 422 2328 
Q 422 3509 836 4129 
Q 1250 4750 2034 4750 
z
" transform="scale(0.015625)"/>
       </defs>
       <use xlink:href="#DejaVuSans-30"/>
      </g>
     </g>
    </g>
    <g id="xtick_2">
     <g id="line2d_2">
      <g>
       <use xlink:href="#md109ded44f" x="158.060483" y="352.44" style="stroke: #000000; stroke-width: 0.8"/>
      </g>
     </g>
     <g id="text_2">
      <!-- 200000 -->
      <g transform="translate(138.972983 367.038437) scale(0.1 -0.1)">
       <defs>
        <path id="DejaVuSans-32" d="M 1228 531 
L 3431 531 
L 3431 0 
L 469 0 
L 469 531 
Q 828 903 1448 1529 
Q 2069 2156 2228 2338 
Q 2531 2678 2651 2914 
Q 2772 3150 2772 3378 
Q 2772 3750 2511 3984 
Q 2250 4219 1831 4219 
Q 1534 4219 1204 4116 
Q 875 4013 500 3803 
L 500 4441 
Q 881 4594 1212 4672 
Q 1544 4750 1819 4750 
Q 2544 4750 2975 4387 
Q 3406 4025 3406 3419 
Q 3406 3131 3298 2873 
Q 3191 2616 2906 2266 
Q 2828 2175 2409 1742 
Q 1991 1309 1228 531 
z
" transform="scale(0.015625)"/>
       </defs>
       <use xlink:href="#DejaVuSans-32"/>
       <use xlink:href="#DejaVuSans-30" x="63.623047"/>
       <use xlink:href="#DejaVuSans-30" x="127.246094"/>
       <use xlink:href="#DejaVuSans-30" x="190.869141"/>
       <use xlink:href="#DejaVuSans-30" x="254.492188"/>
       <use xlink:href="#DejaVuSans-30" x="318.115234"/>
      </g>
     </g>
    </g>
    <g id="xtick_3">
     <g id="line2d_3">
      <g>
       <use xlink:href="#md109ded44f" x="235.366421" y="352.44" style="stroke: #000000; stroke-width: 0.8"/>
      </g>
     </g>
     <g id="text_3">
      <!-- 400000 -->
      <g transform="translate(216.278921 367.038437) scale(0.1 -0.1)">
       <defs>
        <path id="DejaVuSans-34" d="M 2419 4116 
L 825 1625 
L 2419 1625 
L 2419 4116 
z
M 2253 4666 
L 3047 4666 
L 3047 1625 
L 3713 1625 
L 3713 1100 
L 3047 1100 
L 3047 0 
L 2419 0 
L 2419 1100 
L 313 1100 
L 313 1709 
L 2253 4666 
z
" transform="scale(0.015625)"/>
       </defs>
       <use xlink:href="#DejaVuSans-34"/>
       <use xlink:href="#DejaVuSans-30" x="63.623047"/>
       <use xlink:href="#DejaVuSans-30" x="127.246094"/>
       <use xlink:href="#DejaVuSans-30" x="190.869141"/>
       <use xlink:href="#DejaVuSans-30" x="254.492188"/>
       <use xlink:href="#DejaVuSans-30" x="318.115234"/>
      </g>
     </g>
    </g>
    <g id="xtick_4">
     <g id="line2d_4">
      <g>
       <use xlink:href="#md109ded44f" x="312.672358" y="352.44" style="stroke: #000000; stroke-width: 0.8"/>
      </g>
     </g>
     <g id="text_4">
      <!-- 600000 -->
      <g transform="translate(293.584858 367.038437) scale(0.1 -0.1)">
       <defs>
        <path id="DejaVuSans-36" d="M 2113 2584 
Q 1688 2584 1439 2293 
Q 1191 2003 1191 1497 
Q 1191 994 1439 701 
Q 1688 409 2113 409 
Q 2538 409 2786 701 
Q 3034 994 3034 1497 
Q 3034 2003 2786 2293 
Q 2538 2584 2113 2584 
z
M 3366 4563 
L 3366 3988 
Q 3128 4100 2886 4159 
Q 2644 4219 2406 4219 
Q 1781 4219 1451 3797 
Q 1122 3375 1075 2522 
Q 1259 2794 1537 2939 
Q 1816 3084 2150 3084 
Q 2853 3084 3261 2657 
Q 3669 2231 3669 1497 
Q 3669 778 3244 343 
Q 2819 -91 2113 -91 
Q 1303 -91 875 529 
Q 447 1150 447 2328 
Q 447 3434 972 4092 
Q 1497 4750 2381 4750 
Q 2619 4750 2861 4703 
Q 3103 4656 3366 4563 
z
" transform="scale(0.015625)"/>
       </defs>
       <use xlink:href="#DejaVuSans-36"/>
       <use xlink:href="#DejaVuSans-30" x="63.623047"/>
       <use xlink:href="#DejaVuSans-30" x="127.246094"/>
       <use xlink:href="#DejaVuSans-30" x="190.869141"/>
       <use xlink:href="#DejaVuSans-30" x="254.492188"/>
       <use xlink:href="#DejaVuSans-30" x="318.115234"/>
      </g>
     </g>
    </g>
    <g id="xtick_5">
     <g id="line2d_5">
      <g>
       <use xlink:href="#md109ded44f" x="389.978296" y="352.44" style="stroke: #000000; stroke-width: 0.8"/>
      </g>
     </g>
     <g id="text_5">
      <!-- 800000 -->
      <g transform="translate(370.890796 367.038437) scale(0.1 -0.1)">
       <defs>
        <path id="DejaVuSans-38" d="M 2034 2216 
Q 1584 2216 1326 1975 
Q 1069 1734 1069 1313 
Q 1069 891 1326 650 
Q 1584 409 2034 409 
Q 2484 409 2743 651 
Q 3003 894 3003 1313 
Q 3003 1734 2745 1975 
Q 2488 2216 2034 2216 
z
M 1403 2484 
Q 997 2584 770 2862 
Q 544 3141 544 3541 
Q 544 4100 942 4425 
Q 1341 4750 2034 4750 
Q 2731 4750 3128 4425 
Q 3525 4100 3525 3541 
Q 3525 3141 3298 2862 
Q 3072 2584 2669 2484 
Q 3125 2378 3379 2068 
Q 3634 1759 3634 1313 
Q 3634 634 3220 271 
Q 2806 -91 2034 -91 
Q 1263 -91 848 271 
Q 434 634 434 1313 
Q 434 1759 690 2068 
Q 947 2378 1403 2484 
z
M 1172 3481 
Q 1172 3119 1398 2916 
Q 1625 2713 2034 2713 
Q 2441 2713 2670 2916 
Q 2900 3119 2900 3481 
Q 2900 3844 2670 4047 
Q 2441 4250 2034 4250 
Q 1625 4250 1398 4047 
Q 1172 3844 1172 3481 
z
" transform="scale(0.015625)"/>
       </defs>
       <use xlink:href="#DejaVuSans-38"/>
       <use xlink:href="#DejaVuSans-30" x="63.623047"/>
       <use xlink:href="#DejaVuSans-30" x="127.246094"/>
       <use xlink:href="#DejaVuSans-30" x="190.869141"/>
       <use xlink:href="#DejaVuSans-30" x="254.492188"/>
       <use xlink:href="#DejaVuSans-30" x="318.115234"/>
      </g>
     </g>
    </g>
    <g id="text_6">
     <!-- Timesteps -->
     <g transform="translate(232.646094 380.716563) scale(0.1 -0.1)">
      <defs>
       <path id="DejaVuSans-54" d="M -19 4666 
L 3928 4666 
L 3928 4134 
L 2272 4134 
L 2272 0 
L 1638 0 
L 1638 4134 
L -19 4134 
L -19 4666 
z
" transform="scale(0.015625)"/>
       <path id="DejaVuSans-69" d="M 603 3500 
L 1178 3500 
L 1178 0 
L 603 0 
L 603 3500 
z
M 603 4863 
L 1178 4863 
L 1178 4134 
L 603 4134 
L 603 4863 
z
" transform="scale(0.015625)"/>
       <path id="DejaVuSans-6d" d="M 3328 2828 
Q 3544 3216 3844 3400 
Q 4144 3584 4550 3584 
Q 5097 3584 5394 3201 
Q 5691 2819 5691 2113 
L 5691 0 
L 5113 0 
L 5113 2094 
Q 5113 2597 4934 2840 
Q 4756 3084 4391 3084 
Q 3944 3084 3684 2787 
Q 3425 2491 3425 1978 
L 3425 0 
L 2847 0 
L 2847 2094 
Q 2847 2600 2669 2842 
Q 2491 3084 2119 3084 
Q 1678 3084 1418 2786 
Q 1159 2488 1159 1978 
L 1159 0 
L 581 0 
L 581 3500 
L 1159 3500 
L 1159 2956 
Q 1356 3278 1631 3431 
Q 1906 3584 2284 3584 
Q 2666 3584 2933 3390 
Q 3200 3197 3328 2828 
z
" transform="scale(0.015625)"/>
       <path id="DejaVuSans-65" d="M 3597 1894 
L 3597 1613 
L 953 1613 
Q 991 1019 1311 708 
Q 1631 397 2203 397 
Q 2534 397 2845 478 
Q 3156 559 3463 722 
L 3463 178 
Q 3153 47 2828 -22 
Q 2503 -91 2169 -91 
Q 1331 -91 842 396 
Q 353 884 353 1716 
Q 353 2575 817 3079 
Q 1281 3584 2069 3584 
Q 2775 3584 3186 3129 
Q 3597 2675 3597 1894 
z
M 3022 2063 
Q 3016 2534 2758 2815 
Q 2500 3097 2075 3097 
Q 1594 3097 1305 2825 
Q 1016 2553 972 2059 
L 3022 2063 
z
" transform="scale(0.015625)"/>
       <path id="DejaVuSans-73" d="M 2834 3397 
L 2834 2853 
Q 2591 2978 2328 3040 
Q 2066 3103 1784 3103 
Q 1356 3103 1142 2972 
Q 928 2841 928 2578 
Q 928 2378 1081 2264 
Q 1234 2150 1697 2047 
L 1894 2003 
Q 2506 1872 2764 1633 
Q 3022 1394 3022 966 
Q 3022 478 2636 193 
Q 2250 -91 1575 -91 
Q 1294 -91 989 -36 
Q 684 19 347 128 
L 347 722 
Q 666 556 975 473 
Q 1284 391 1588 391 
Q 1994 391 2212 530 
Q 2431 669 2431 922 
Q 2431 1156 2273 1281 
Q 2116 1406 1581 1522 
L 1381 1569 
Q 847 1681 609 1914 
Q 372 2147 372 2553 
Q 372 3047 722 3315 
Q 1072 3584 1716 3584 
Q 2034 3584 2315 3537 
Q 2597 3491 2834 3397 
z
" transform="scale(0.015625)"/>
       <path id="DejaVuSans-74" d="M 1172 4494 
L 1172 3500 
L 2356 3500 
L 2356 3053 
L 1172 3053 
L 1172 1153 
Q 1172 725 1289 603 
Q 1406 481 1766 481 
L 2356 481 
L 2356 0 
L 1766 0 
Q 1100 0 847 248 
Q 594 497 594 1153 
L 594 3053 
L 172 3053 
L 172 3500 
L 594 3500 
L 594 4494 
L 1172 4494 
z
" transform="scale(0.015625)"/>
       <path id="DejaVuSans-70" d="M 1159 525 
L 1159 -1331 
L 581 -1331 
L 581 3500 
L 1159 3500 
L 1159 2969 
Q 1341 3281 1617 3432 
Q 1894 3584 2278 3584 
Q 2916 3584 3314 3078 
Q 3713 2572 3713 1747 
Q 3713 922 3314 415 
Q 2916 -91 2278 -91 
Q 1894 -91 1617 61 
Q 1341 213 1159 525 
z
M 3116 1747 
Q 3116 2381 2855 2742 
Q 2594 3103 2138 3103 
Q 1681 3103 1420 2742 
Q 1159 2381 1159 1747 
Q 1159 1113 1420 752 
Q 1681 391 2138 391 
Q 2594 391 2855 752 
Q 3116 1113 3116 1747 
z
" transform="scale(0.015625)"/>
      </defs>
      <use xlink:href="#DejaVuSans-54"/>
      <use xlink:href="#DejaVuSans-69" x="57.958984"/>
      <use xlink:href="#DejaVuSans-6d" x="85.742188"/>
      <use xlink:href="#DejaVuSans-65" x="183.154297"/>
      <use xlink:href="#DejaVuSans-73" x="244.677734"/>
      <use xlink:href="#DejaVuSans-74" x="296.777344"/>
      <use xlink:href="#DejaVuSans-65" x="335.986328"/>
      <use xlink:href="#DejaVuSans-70" x="397.509766"/>
      <use xlink:href="#DejaVuSans-73" x="460.986328"/>
     </g>
    </g>
   </g>
   <g id="matplotlib.axis_2">
    <g id="ytick_1">
     <g id="line2d_6">
      <path d="M 63 308.823942 
L 453.6 308.823942 
" clip-path="url(#p99fdc7d794)" style="fill: none; stroke-dasharray: 2.96,1.28; stroke-dashoffset: 0; stroke: #b0b0b0; stroke-width: 0.8"/>
     </g>
     <g id="line2d_7">
      <defs>
       <path id="m6228f3aa1d" d="M 0 0 
L -3.5 0 
" style="stroke: #000000; stroke-width: 0.8"/>
      </defs>
      <g>
       <use xlink:href="#m6228f3aa1d" x="63" y="308.823942" style="stroke: #000000; stroke-width: 0.8"/>
      </g>
     </g>
     <g id="text_7">
      <!-- −500 -->
      <g transform="translate(28.532812 312.62316) scale(0.1 -0.1)">
       <defs>
        <path id="DejaVuSans-2212" d="M 678 2272 
L 4684 2272 
L 4684 1741 
L 678 1741 
L 678 2272 
z
" transform="scale(0.015625)"/>
        <path id="DejaVuSans-35" d="M 691 4666 
L 3169 4666 
L 3169 4134 
L 1269 4134 
L 1269 2991 
Q 1406 3038 1543 3061 
Q 1681 3084 1819 3084 
Q 2600 3084 3056 2656 
Q 3513 2228 3513 1497 
Q 3513 744 3044 326 
Q 2575 -91 1722 -91 
Q 1428 -91 1123 -41 
Q 819 9 494 109 
L 494 744 
Q 775 591 1075 516 
Q 1375 441 1709 441 
Q 2250 441 2565 725 
Q 2881 1009 2881 1497 
Q 2881 1984 2565 2268 
Q 2250 2553 1709 2553 
Q 1456 2553 1204 2497 
Q 953 2441 691 2322 
L 691 4666 
z
" transform="scale(0.015625)"/>
       </defs>
       <use xlink:href="#DejaVuSans-2212"/>
       <use xlink:href="#DejaVuSans-35" x="83.789062"/>
       <use xlink:href="#DejaVuSans-30" x="147.412109"/>
       <use xlink:href="#DejaVuSans-30" x="211.035156"/>
      </g>
     </g>
    </g>
    <g id="ytick_2">
     <g id="line2d_8">
      <path d="M 63 257.029875 
L 453.6 257.029875 
" clip-path="url(#p99fdc7d794)" style="fill: none; stroke-dasharray: 2.96,1.28; stroke-dashoffset: 0; stroke: #b0b0b0; stroke-width: 0.8"/>
     </g>
     <g id="line2d_9">
      <g>
       <use xlink:href="#m6228f3aa1d" x="63" y="257.029875" style="stroke: #000000; stroke-width: 0.8"/>
      </g>
     </g>
     <g id="text_8">
      <!-- −400 -->
      <g transform="translate(28.532812 260.829094) scale(0.1 -0.1)">
       <use xlink:href="#DejaVuSans-2212"/>
       <use xlink:href="#DejaVuSans-34" x="83.789062"/>
       <use xlink:href="#DejaVuSans-30" x="147.412109"/>
       <use xlink:href="#DejaVuSans-30" x="211.035156"/>
      </g>
     </g>
    </g>
    <g id="ytick_3">
     <g id="line2d_10">
      <path d="M 63 205.235808 
L 453.6 205.235808 
" clip-path="url(#p99fdc7d794)" style="fill: none; stroke-dasharray: 2.96,1.28; stroke-dashoffset: 0; stroke: #b0b0b0; stroke-width: 0.8"/>
     </g>
     <g id="line2d_11">
      <g>
       <use xlink:href="#m6228f3aa1d" x="63" y="205.235808" style="stroke: #000000; stroke-width: 0.8"/>
      </g>
     </g>
     <g id="text_9">
      <!-- −300 -->
      <g transform="translate(28.532812 209.035027) scale(0.1 -0.1)">
       <defs>
        <path id="DejaVuSans-33" d="M 2597 2516 
Q 3050 2419 3304 2112 
Q 3559 1806 3559 1356 
Q 3559 666 3084 287 
Q 2609 -91 1734 -91 
Q 1441 -91 1130 -33 
Q 819 25 488 141 
L 488 750 
Q 750 597 1062 519 
Q 1375 441 1716 441 
Q 2309 441 2620 675 
Q 2931 909 2931 1356 
Q 2931 1769 2642 2001 
Q 2353 2234 1838 2234 
L 1294 2234 
L 1294 2753 
L 1863 2753 
Q 2328 2753 2575 2939 
Q 2822 3125 2822 3475 
Q 2822 3834 2567 4026 
Q 2313 4219 1838 4219 
Q 1578 4219 1281 4162 
Q 984 4106 628 3988 
L 628 4550 
Q 988 4650 1302 4700 
Q 1616 4750 1894 4750 
Q 2613 4750 3031 4423 
Q 3450 4097 3450 3541 
Q 3450 3153 3228 2886 
Q 3006 2619 2597 2516 
z
" transform="scale(0.015625)"/>
       </defs>
       <use xlink:href="#DejaVuSans-2212"/>
       <use xlink:href="#DejaVuSans-33" x="83.789062"/>
       <use xlink:href="#DejaVuSans-30" x="147.412109"/>
       <use xlink:href="#DejaVuSans-30" x="211.035156"/>
      </g>
     </g>
    </g>
    <g id="ytick_4">
     <g id="line2d_12">
      <path d="M 63 153.441741 
L 453.6 153.441741 
" clip-path="url(#p99fdc7d794)" style="fill: none; stroke-dasharray: 2.96,1.28; stroke-dashoffset: 0; stroke: #b0b0b0; stroke-width: 0.8"/>
     </g>
     <g id="line2d_13">
      <g>
       <use xlink:href="#m6228f3aa1d" x="63" y="153.441741" style="stroke: #000000; stroke-width: 0.8"/>
      </g>
     </g>
     <g id="text_10">
      <!-- −200 -->
      <g transform="translate(28.532812 157.24096) scale(0.1 -0.1)">
       <use xlink:href="#DejaVuSans-2212"/>
       <use xlink:href="#DejaVuSans-32" x="83.789062"/>
       <use xlink:href="#DejaVuSans-30" x="147.412109"/>
       <use xlink:href="#DejaVuSans-30" x="211.035156"/>
      </g>
     </g>
    </g>
    <g id="ytick_5">
     <g id="line2d_14">
      <path d="M 63 101.647674 
L 453.6 101.647674 
" clip-path="url(#p99fdc7d794)" style="fill: none; stroke-dasharray: 2.96,1.28; stroke-dashoffset: 0; stroke: #b0b0b0; stroke-width: 0.8"/>
     </g>
     <g id="line2d_15">
      <g>
       <use xlink:href="#m6228f3aa1d" x="63" y="101.647674" style="stroke: #000000; stroke-width: 0.8"/>
      </g>
     </g>
     <g id="text_11">
      <!-- −100 -->
      <g transform="translate(28.532812 105.446893) scale(0.1 -0.1)">
       <defs>
        <path id="DejaVuSans-31" d="M 794 531 
L 1825 531 
L 1825 4091 
L 703 3866 
L 703 4441 
L 1819 4666 
L 2450 4666 
L 2450 531 
L 3481 531 
L 3481 0 
L 794 0 
L 794 531 
z
" transform="scale(0.015625)"/>
       </defs>
       <use xlink:href="#DejaVuSans-2212"/>
       <use xlink:href="#DejaVuSans-31" x="83.789062"/>
       <use xlink:href="#DejaVuSans-30" x="147.412109"/>
       <use xlink:href="#DejaVuSans-30" x="211.035156"/>
      </g>
     </g>
    </g>
    <g id="ytick_6">
     <g id="line2d_16">
      <path d="M 63 49.853607 
L 453.6 49.853607 
" clip-path="url(#p99fdc7d794)" style="fill: none; stroke-dasharray: 2.96,1.28; stroke-dashoffset: 0; stroke: #b0b0b0; stroke-width: 0.8"/>
     </g>
     <g id="line2d_17">
      <g>
       <use xlink:href="#m6228f3aa1d" x="63" y="49.853607" style="stroke: #000000; stroke-width: 0.8"/>
      </g>
     </g>
     <g id="text_12">
      <!-- 0 -->
      <g transform="translate(49.6375 53.652826) scale(0.1 -0.1)">
       <use xlink:href="#DejaVuSans-30"/>
      </g>
     </g>
    </g>
    <g id="text_13">
     <!-- Mean rewards -->
     <g transform="translate(22.453125 235.112031) rotate(-90) scale(0.1 -0.1)">
      <defs>
       <path id="DejaVuSans-4d" d="M 628 4666 
L 1569 4666 
L 2759 1491 
L 3956 4666 
L 4897 4666 
L 4897 0 
L 4281 0 
L 4281 4097 
L 3078 897 
L 2444 897 
L 1241 4097 
L 1241 0 
L 628 0 
L 628 4666 
z
" transform="scale(0.015625)"/>
       <path id="DejaVuSans-61" d="M 2194 1759 
Q 1497 1759 1228 1600 
Q 959 1441 959 1056 
Q 959 750 1161 570 
Q 1363 391 1709 391 
Q 2188 391 2477 730 
Q 2766 1069 2766 1631 
L 2766 1759 
L 2194 1759 
z
M 3341 1997 
L 3341 0 
L 2766 0 
L 2766 531 
Q 2569 213 2275 61 
Q 1981 -91 1556 -91 
Q 1019 -91 701 211 
Q 384 513 384 1019 
Q 384 1609 779 1909 
Q 1175 2209 1959 2209 
L 2766 2209 
L 2766 2266 
Q 2766 2663 2505 2880 
Q 2244 3097 1772 3097 
Q 1472 3097 1187 3025 
Q 903 2953 641 2809 
L 641 3341 
Q 956 3463 1253 3523 
Q 1550 3584 1831 3584 
Q 2591 3584 2966 3190 
Q 3341 2797 3341 1997 
z
" transform="scale(0.015625)"/>
       <path id="DejaVuSans-6e" d="M 3513 2113 
L 3513 0 
L 2938 0 
L 2938 2094 
Q 2938 2591 2744 2837 
Q 2550 3084 2163 3084 
Q 1697 3084 1428 2787 
Q 1159 2491 1159 1978 
L 1159 0 
L 581 0 
L 581 3500 
L 1159 3500 
L 1159 2956 
Q 1366 3272 1645 3428 
Q 1925 3584 2291 3584 
Q 2894 3584 3203 3211 
Q 3513 2838 3513 2113 
z
" transform="scale(0.015625)"/>
       <path id="DejaVuSans-20" transform="scale(0.015625)"/>
       <path id="DejaVuSans-72" d="M 2631 2963 
Q 2534 3019 2420 3045 
Q 2306 3072 2169 3072 
Q 1681 3072 1420 2755 
Q 1159 2438 1159 1844 
L 1159 0 
L 581 0 
L 581 3500 
L 1159 3500 
L 1159 2956 
Q 1341 3275 1631 3429 
Q 1922 3584 2338 3584 
Q 2397 3584 2469 3576 
Q 2541 3569 2628 3553 
L 2631 2963 
z
" transform="scale(0.015625)"/>
       <path id="DejaVuSans-77" d="M 269 3500 
L 844 3500 
L 1563 769 
L 2278 3500 
L 2956 3500 
L 3675 769 
L 4391 3500 
L 4966 3500 
L 4050 0 
L 3372 0 
L 2619 2869 
L 1863 0 
L 1184 0 
L 269 3500 
z
" transform="scale(0.015625)"/>
       <path id="DejaVuSans-64" d="M 2906 2969 
L 2906 4863 
L 3481 4863 
L 3481 0 
L 2906 0 
L 2906 525 
Q 2725 213 2448 61 
Q 2172 -91 1784 -91 
Q 1150 -91 751 415 
Q 353 922 353 1747 
Q 353 2572 751 3078 
Q 1150 3584 1784 3584 
Q 2172 3584 2448 3432 
Q 2725 3281 2906 2969 
z
M 947 1747 
Q 947 1113 1208 752 
Q 1469 391 1925 391 
Q 2381 391 2643 752 
Q 2906 1113 2906 1747 
Q 2906 2381 2643 2742 
Q 2381 3103 1925 3103 
Q 1469 3103 1208 2742 
Q 947 2381 947 1747 
z
" transform="scale(0.015625)"/>
      </defs>
      <use xlink:href="#DejaVuSans-4d"/>
      <use xlink:href="#DejaVuSans-65" x="86.279297"/>
      <use xlink:href="#DejaVuSans-61" x="147.802734"/>
      <use xlink:href="#DejaVuSans-6e" x="209.082031"/>
      <use xlink:href="#DejaVuSans-20" x="272.460938"/>
      <use xlink:href="#DejaVuSans-72" x="304.248047"/>
      <use xlink:href="#DejaVuSans-65" x="343.111328"/>
      <use xlink:href="#DejaVuSans-77" x="404.634766"/>
      <use xlink:href="#DejaVuSans-61" x="486.421875"/>
      <use xlink:href="#DejaVuSans-72" x="547.701172"/>
      <use xlink:href="#DejaVuSans-64" x="587.064453"/>
      <use xlink:href="#DejaVuSans-73" x="650.541016"/>
     </g>
    </g>
   </g>
   <g id="line2d_18">
    <path d="M 80.754545 308.823942 
L 85.34072 308.823942 
L 90.009999 308.823942 
L 94.523506 146.045548 
L 98.583227 231.681858 
L 102.472102 302.789933 
L 106.471912 223.752187 
L 109.950679 302.080354 
L 113.410506 308.212772 
L 117.296676 286.759669 
L 121.237732 308.823942 
L 124.920974 308.823942 
L 128.621609 166.944454 
L 132.206285 308.823942 
L 135.000895 175.692472 
L 139.168071 308.823942 
L 142.826961 146.216469 
L 146.742894 255.279235 
L 150.586545 251.632933 
L 154.761839 169.451287 
L 158.257613 148.308949 
L 162.218769 308.823942 
L 166.765518 308.823942 
L 170.625017 120.36087 
L 174.519304 144.740338 
L 177.910715 308.823942 
L 181.040833 112.871448 
L 183.974593 308.823942 
L 187.591351 121.443366 
L 191.438095 122.624271 
L 194.716639 185.326168 
L 198.291266 308.823942 
L 201.707415 308.823942 
L 205.949192 308.823942 
L 209.502173 308.823942 
L 213.539862 293.601665 
L 217.19566 300.992679 
L 220.948863 123.753382 
L 225.047237 308.823942 
L 228.432078 308.823942 
L 232.065071 308.823942 
L 236.096962 308.823942 
L 240.065849 308.823942 
L 244.439045 157.714751 
L 248.518093 308.823942 
L 252.493551 118.750075 
L 255.509256 308.823942 
L 258.91149 305.617889 
L 262.27971 212.766665 
L 265.714026 308.823942 
L 269.207481 251.451654 
L 272.544006 196.177026 
L 276.726257 308.823942 
L 280.852848 275.297642 
L 284.770326 297.398171 
L 288.857491 308.331898 
L 292.458402 291.017141 
L 295.517398 308.823942 
L 298.883298 175.319555 
L 302.67902 308.823942 
L 306.475128 127.736345 
L 309.61027 208.426322 
L 312.48953 117.522555 
L 315.701205 180.198556 
L 318.474555 179.395748 
L 322.285738 308.823942 
L 325.301056 106.428266 
L 328.879161 157.517934 
L 332.218778 114.901776 
L 335.15795 144.414035 
L 338.414462 128.860277 
L 341.255069 167.799056 
L 344.524337 246.712497 
L 347.888305 305.43143 
L 351.076015 269.615833 
L 354.464334 308.823942 
L 358.219857 137.742959 
L 361.08984 308.823942 
L 364.470429 154.627825 
L 367.572716 198.093406 
L 370.937843 308.823942 
L 374.421249 248.618518 
L 377.108403 128.430386 
L 380.159282 151.069573 
L 383.944567 198.031253 
L 387.581812 190.365731 
L 390.161511 308.823942 
L 393.206592 308.823942 
L 396.780832 308.823942 
L 400.441654 114.793008 
L 404.241241 301.583131 
L 407.469924 308.539074 
L 410.695514 202.68236 
L 414.740934 159.807232 
L 418.284638 288.406721 
L 422.23845 307.430681 
L 425.993199 308.590868 
L 430.003831 223.099582 
L 433.103413 157.963363 
L 435.845455 308.823942 
" clip-path="url(#p99fdc7d794)" style="fill: none; stroke: #1f77b4; stroke-width: 1.5; stroke-linecap: square"/>
   </g>
   <g id="line2d_19">
    <path d="M 80.754545 308.823942 
L 85.501517 308.823942 
L 90.225682 136.541337 
L 94.779389 308.823942 
L 98.91371 274.287658 
L 102.903083 308.823942 
L 106.844526 169.591131 
L 110.453554 308.823942 
L 114.375671 139.022273 
L 118.312862 292.747063 
L 121.847676 98.653977 
L 125.338039 229.288973 
L 127.78168 308.823942 
L 131.21329 308.823942 
L 135.179085 281.285036 
L 138.907937 119.029763 
L 142.250259 308.823942 
L 145.809038 248.639236 
L 149.140537 308.047031 
L 152.976845 305.032616 
L 156.578528 307.865751 
L 159.773196 308.823942 
L 163.013088 153.483176 
L 165.934093 137.504706 
L 169.889838 308.823942 
L 173.388318 308.823942 
L 176.337926 152.483551 
L 179.777654 308.823942 
L 182.578448 236.628192 
L 185.337497 112.897345 
L 189.120076 308.823942 
L 192.611599 308.823942 
L 195.792738 113.544771 
L 199.159798 308.072928 
L 202.13569 280.746378 
L 205.607113 285.728967 
L 209.260592 308.823942 
L 213.171886 308.823942 
L 215.970361 308.823942 
L 219.8287 210.358241 
L 223.294325 137.105892 
L 225.957128 308.823942 
L 228.866924 106.500778 
L 231.783677 308.823942 
L 235.694198 164.841615 
L 238.646125 141.321929 
L 242.408991 308.823942 
L 246.03348 241.346631 
L 249.852394 308.823942 
L 253.434751 248.51493 
L 256.757747 307.586063 
L 259.698851 308.823942 
L 263.441231 308.823942 
L 266.477809 217.87874 
L 270.351996 147.796188 
L 274.473175 308.823942 
L 277.915995 121.479622 
L 280.597738 213.129224 
L 284.258947 155.223457 
L 287.24257 113.166674 
L 290.129174 138.830635 
L 293.854547 205.960925 
L 297.860927 143.968606 
L 300.84223 182.197807 
L 304.680084 112.990575 
L 307.522623 308.823942 
L 311.378643 308.823942 
L 315.046037 297.108124 
L 318.99869 108.84187 
L 322.187946 140.446609 
L 325.218339 308.823942 
L 328.029569 308.823942 
L 331.466205 306.192803 
L 335.016866 122.505145 
L 338.140413 134.578342 
L 341.27169 286.065629 
L 344.977736 308.823942 
L 349.289089 308.823942 
L 353.434619 308.823942 
L 357.061427 152.095095 
L 360.726115 141.244238 
L 363.92117 127.839934 
L 367.345436 147.257529 
L 371.085498 109.230325 
L 373.825607 274.023508 
L 376.622149 127.145893 
L 379.885232 139.975283 
L 383.524796 293.218389 
L 386.884126 303.105877 
L 391.096526 116.041245 
L 394.719469 308.823942 
L 397.856157 242.822762 
L 400.794556 308.823942 
L 404.839203 148.453972 
L 408.506596 308.823942 
L 411.2038 100.130108 
L 413.880905 308.709995 
L 417.070935 129.953132 
L 420.352958 124.923928 
L 423.29097 142.787701 
" clip-path="url(#p99fdc7d794)" style="fill: none; stroke: #ff7f0e; stroke-width: 1.5; stroke-linecap: square"/>
   </g>
   <g id="line2d_20">
    <path d="M 80.754545 308.823942 
L 85.543648 308.823942 
L 90.12905 308.823942 
L 94.68237 308.823942 
L 99.248445 191.531098 
L 103.780505 282.512556 
L 108.078329 248.245601 
L 112.619666 233.598239 
L 116.980108 279.912494 
L 121.241211 308.823942 
L 125.554882 296.564286 
L 129.538457 298.107749 
L 133.827777 196.617275 
L 138.248517 269.9007 
L 142.194212 302.111431 
L 146.656698 271.578828 
L 150.586545 248.86195 
L 154.703473 256.361731 
L 158.814216 241.776522 
L 163.039758 301.655643 
L 167.564088 255.626256 
L 172.218292 294.880979 
L 176.765041 305.545377 
L 180.805822 269.232557 
L 184.872501 224.845042 
L 189.111186 248.758362 
L 193.414034 281.533648 
L 197.610974 293.04229 
L 202.005043 308.39923 
L 206.572665 305.369277 
L 210.739068 308.673739 
L 214.760136 308.041851 
L 218.89871 255.398362 
L 223.32718 308.823942 
L 228.101595 308.823942 
L 232.307811 293.720792 
L 236.849535 294.772211 
L 241.533115 308.461383 
L 246.244912 303.307874 
L 250.904914 291.545441 
L 255.649179 296.709309 
L 260.268209 308.39923 
L 264.576856 257.185257 
L 268.72316 264.907752 
L 273.018277 272.847783 
L 277.416985 305.762912 
L 281.737228 219.023388 
L 285.520194 267.331715 
L 289.423757 236.255275 
L 293.656257 245.800921 
L 297.670368 222.452156 
L 300.960895 254.346942 
L 305.008634 226.093279 
L 308.845714 268.030935 
L 312.950659 258.112371 
L 316.457643 282.077486 
L 320.884181 190.054967 
L 324.666761 199.973531 
L 327.795719 200.776339 
L 331.440694 273.950996 
L 334.171526 206.121486 
L 337.581491 231.081047 
L 340.451474 154.93341 
L 343.148291 186.6262 
L 346.36847 206.240613 
L 348.824866 160.294096 
L 351.619863 202.811845 
L 353.992382 238.663699 
L 356.936965 300.583506 
L 359.432401 214.439614 
L 361.85169 164.738027 
L 364.764964 207.167727 
L 366.870778 182.912565 
L 368.861406 118.781151 
L 370.51498 140.115127 
L 372.421344 173.382457 
L 373.762602 228.657085 
L 375.958091 205.670878 
L 378.01984 239.114307 
L 380.169332 197.249163 
L 382.088452 197.891409 
L 383.876151 209.726353 
L 385.279641 163.375843 
L 386.916207 103.486363 
L 388.245483 176.474562 
L 390.555771 164.577465 
L 391.747442 175.340272 
L 392.949163 164.261521 
L 394.806438 162.277809 
L 396.517991 160.760243 
L 398.108561 162.169041 
L 400.089526 166.830507 
L 401.930567 161.987762 
L 403.710922 165.820523 
L 405.265545 163.189384 
L 407.434363 161.210851 
L 409.528194 165.84642 
L 411.557089 100.989889 
L 414.042474 160.879369 
L 415.883902 161.495718 
" clip-path="url(#p99fdc7d794)" style="fill: none; stroke: #2ca02c; stroke-width: 1.5; stroke-linecap: square"/>
   </g>
   <g id="patch_3">
    <path d="M 63 352.44 
L 63 47.52 
" style="fill: none; stroke: #000000; stroke-width: 0.8; stroke-linejoin: miter; stroke-linecap: square"/>
   </g>
   <g id="patch_4">
    <path d="M 453.6 352.44 
L 453.6 47.52 
" style="fill: none; stroke: #000000; stroke-width: 0.8; stroke-linejoin: miter; stroke-linecap: square"/>
   </g>
   <g id="patch_5">
    <path d="M 63 352.44 
L 453.6 352.44 
" style="fill: none; stroke: #000000; stroke-width: 0.8; stroke-linejoin: miter; stroke-linecap: square"/>
   </g>
   <g id="patch_6">
    <path d="M 63 47.52 
L 453.6 47.52 
" style="fill: none; stroke: #000000; stroke-width: 0.8; stroke-linejoin: miter; stroke-linecap: square"/>
   </g>
   <g id="text_14">
    <!-- Acrobot - Q-Tsetlin-Machine -->
    <g transform="translate(176.420625 41.52) scale(0.12 -0.12)">
     <defs>
      <path id="DejaVuSans-41" d="M 2188 4044 
L 1331 1722 
L 3047 1722 
L 2188 4044 
z
M 1831 4666 
L 2547 4666 
L 4325 0 
L 3669 0 
L 3244 1197 
L 1141 1197 
L 716 0 
L 50 0 
L 1831 4666 
z
" transform="scale(0.015625)"/>
      <path id="DejaVuSans-63" d="M 3122 3366 
L 3122 2828 
Q 2878 2963 2633 3030 
Q 2388 3097 2138 3097 
Q 1578 3097 1268 2742 
Q 959 2388 959 1747 
Q 959 1106 1268 751 
Q 1578 397 2138 397 
Q 2388 397 2633 464 
Q 2878 531 3122 666 
L 3122 134 
Q 2881 22 2623 -34 
Q 2366 -91 2075 -91 
Q 1284 -91 818 406 
Q 353 903 353 1747 
Q 353 2603 823 3093 
Q 1294 3584 2113 3584 
Q 2378 3584 2631 3529 
Q 2884 3475 3122 3366 
z
" transform="scale(0.015625)"/>
      <path id="DejaVuSans-6f" d="M 1959 3097 
Q 1497 3097 1228 2736 
Q 959 2375 959 1747 
Q 959 1119 1226 758 
Q 1494 397 1959 397 
Q 2419 397 2687 759 
Q 2956 1122 2956 1747 
Q 2956 2369 2687 2733 
Q 2419 3097 1959 3097 
z
M 1959 3584 
Q 2709 3584 3137 3096 
Q 3566 2609 3566 1747 
Q 3566 888 3137 398 
Q 2709 -91 1959 -91 
Q 1206 -91 779 398 
Q 353 888 353 1747 
Q 353 2609 779 3096 
Q 1206 3584 1959 3584 
z
" transform="scale(0.015625)"/>
      <path id="DejaVuSans-62" d="M 3116 1747 
Q 3116 2381 2855 2742 
Q 2594 3103 2138 3103 
Q 1681 3103 1420 2742 
Q 1159 2381 1159 1747 
Q 1159 1113 1420 752 
Q 1681 391 2138 391 
Q 2594 391 2855 752 
Q 3116 1113 3116 1747 
z
M 1159 2969 
Q 1341 3281 1617 3432 
Q 1894 3584 2278 3584 
Q 2916 3584 3314 3078 
Q 3713 2572 3713 1747 
Q 3713 922 3314 415 
Q 2916 -91 2278 -91 
Q 1894 -91 1617 61 
Q 1341 213 1159 525 
L 1159 0 
L 581 0 
L 581 4863 
L 1159 4863 
L 1159 2969 
z
" transform="scale(0.015625)"/>
      <path id="DejaVuSans-2d" d="M 313 2009 
L 1997 2009 
L 1997 1497 
L 313 1497 
L 313 2009 
z
" transform="scale(0.015625)"/>
      <path id="DejaVuSans-51" d="M 2522 4238 
Q 1834 4238 1429 3725 
Q 1025 3213 1025 2328 
Q 1025 1447 1429 934 
Q 1834 422 2522 422 
Q 3209 422 3611 934 
Q 4013 1447 4013 2328 
Q 4013 3213 3611 3725 
Q 3209 4238 2522 4238 
z
M 3406 84 
L 4238 -825 
L 3475 -825 
L 2784 -78 
Q 2681 -84 2626 -87 
Q 2572 -91 2522 -91 
Q 1538 -91 948 567 
Q 359 1225 359 2328 
Q 359 3434 948 4092 
Q 1538 4750 2522 4750 
Q 3503 4750 4090 4092 
Q 4678 3434 4678 2328 
Q 4678 1516 4351 937 
Q 4025 359 3406 84 
z
" transform="scale(0.015625)"/>
      <path id="DejaVuSans-6c" d="M 603 4863 
L 1178 4863 
L 1178 0 
L 603 0 
L 603 4863 
z
" transform="scale(0.015625)"/>
      <path id="DejaVuSans-68" d="M 3513 2113 
L 3513 0 
L 2938 0 
L 2938 2094 
Q 2938 2591 2744 2837 
Q 2550 3084 2163 3084 
Q 1697 3084 1428 2787 
Q 1159 2491 1159 1978 
L 1159 0 
L 581 0 
L 581 4863 
L 1159 4863 
L 1159 2956 
Q 1366 3272 1645 3428 
Q 1925 3584 2291 3584 
Q 2894 3584 3203 3211 
Q 3513 2838 3513 2113 
z
" transform="scale(0.015625)"/>
     </defs>
     <use xlink:href="#DejaVuSans-41"/>
     <use xlink:href="#DejaVuSans-63" x="66.658203"/>
     <use xlink:href="#DejaVuSans-72" x="121.638672"/>
     <use xlink:href="#DejaVuSans-6f" x="160.501953"/>
     <use xlink:href="#DejaVuSans-62" x="221.683594"/>
     <use xlink:href="#DejaVuSans-6f" x="285.160156"/>
     <use xlink:href="#DejaVuSans-74" x="346.341797"/>
     <use xlink:href="#DejaVuSans-20" x="385.550781"/>
     <use xlink:href="#DejaVuSans-2d" x="417.337891"/>
     <use xlink:href="#DejaVuSans-20" x="453.421875"/>
     <use xlink:href="#DejaVuSans-51" x="485.208984"/>
     <use xlink:href="#DejaVuSans-2d" x="566.669922"/>
     <use xlink:href="#DejaVuSans-54" x="593.628906"/>
     <use xlink:href="#DejaVuSans-73" x="638.212891"/>
     <use xlink:href="#DejaVuSans-65" x="690.3125"/>
     <use xlink:href="#DejaVuSans-74" x="751.835938"/>
     <use xlink:href="#DejaVuSans-6c" x="791.044922"/>
     <use xlink:href="#DejaVuSans-69" x="818.828125"/>
     <use xlink:href="#DejaVuSans-6e" x="846.611328"/>
     <use xlink:href="#DejaVuSans-2d" x="909.990234"/>
     <use xlink:href="#DejaVuSans-4d" x="946.074219"/>
     <use xlink:href="#DejaVuSans-61" x="1032.353516"/>
     <use xlink:href="#DejaVuSans-63" x="1093.632812"/>
     <use xlink:href="#DejaVuSans-68" x="1148.613281"/>
     <use xlink:href="#DejaVuSans-69" x="1211.992188"/>
     <use xlink:href="#DejaVuSans-6e" x="1239.775391"/>
     <use xlink:href="#DejaVuSans-65" x="1303.154297"/>
    </g>
   </g>
   <g id="legend_1">
    <g id="patch_7">
     <path d="M 303.421875 99.554375 
L 446.6 99.554375 
Q 448.6 99.554375 448.6 97.554375 
L 448.6 54.52 
Q 448.6 52.52 446.6 52.52 
L 303.421875 52.52 
Q 301.421875 52.52 301.421875 54.52 
L 301.421875 97.554375 
Q 301.421875 99.554375 303.421875 99.554375 
z
" style="fill: #ffffff; opacity: 0.8; stroke: #cccccc; stroke-linejoin: miter"/>
    </g>
    <g id="line2d_21">
     <path d="M 305.421875 60.618437 
L 315.421875 60.618437 
L 325.421875 60.618437 
" style="fill: none; stroke: #1f77b4; stroke-width: 1.5; stroke-linecap: square"/>
    </g>
    <g id="text_15">
     <!-- QTM -->
     <g transform="translate(333.421875 64.118437) scale(0.1 -0.1)">
      <use xlink:href="#DejaVuSans-51"/>
      <use xlink:href="#DejaVuSans-54" x="78.710938"/>
      <use xlink:href="#DejaVuSans-4d" x="139.794922"/>
     </g>
    </g>
    <g id="line2d_22">
     <path d="M 305.421875 75.296562 
L 315.421875 75.296562 
L 325.421875 75.296562 
" style="fill: none; stroke: #ff7f0e; stroke-width: 1.5; stroke-linecap: square"/>
    </g>
    <g id="text_16">
     <!-- DQTM - Type a update -->
     <g transform="translate(333.421875 78.796562) scale(0.1 -0.1)">
      <defs>
       <path id="DejaVuSans-44" d="M 1259 4147 
L 1259 519 
L 2022 519 
Q 2988 519 3436 956 
Q 3884 1394 3884 2338 
Q 3884 3275 3436 3711 
Q 2988 4147 2022 4147 
L 1259 4147 
z
M 628 4666 
L 1925 4666 
Q 3281 4666 3915 4102 
Q 4550 3538 4550 2338 
Q 4550 1131 3912 565 
Q 3275 0 1925 0 
L 628 0 
L 628 4666 
z
" transform="scale(0.015625)"/>
       <path id="DejaVuSans-79" d="M 2059 -325 
Q 1816 -950 1584 -1140 
Q 1353 -1331 966 -1331 
L 506 -1331 
L 506 -850 
L 844 -850 
Q 1081 -850 1212 -737 
Q 1344 -625 1503 -206 
L 1606 56 
L 191 3500 
L 800 3500 
L 1894 763 
L 2988 3500 
L 3597 3500 
L 2059 -325 
z
" transform="scale(0.015625)"/>
       <path id="DejaVuSans-75" d="M 544 1381 
L 544 3500 
L 1119 3500 
L 1119 1403 
Q 1119 906 1312 657 
Q 1506 409 1894 409 
Q 2359 409 2629 706 
Q 2900 1003 2900 1516 
L 2900 3500 
L 3475 3500 
L 3475 0 
L 2900 0 
L 2900 538 
Q 2691 219 2414 64 
Q 2138 -91 1772 -91 
Q 1169 -91 856 284 
Q 544 659 544 1381 
z
M 1991 3584 
L 1991 3584 
z
" transform="scale(0.015625)"/>
      </defs>
      <use xlink:href="#DejaVuSans-44"/>
      <use xlink:href="#DejaVuSans-51" x="77.001953"/>
      <use xlink:href="#DejaVuSans-54" x="155.712891"/>
      <use xlink:href="#DejaVuSans-4d" x="216.796875"/>
      <use xlink:href="#DejaVuSans-20" x="303.076172"/>
      <use xlink:href="#DejaVuSans-2d" x="334.863281"/>
      <use xlink:href="#DejaVuSans-20" x="370.947266"/>
      <use xlink:href="#DejaVuSans-54" x="402.734375"/>
      <use xlink:href="#DejaVuSans-79" x="448.193359"/>
      <use xlink:href="#DejaVuSans-70" x="507.373047"/>
      <use xlink:href="#DejaVuSans-65" x="570.849609"/>
      <use xlink:href="#DejaVuSans-20" x="632.373047"/>
      <use xlink:href="#DejaVuSans-61" x="664.160156"/>
      <use xlink:href="#DejaVuSans-20" x="725.439453"/>
      <use xlink:href="#DejaVuSans-75" x="757.226562"/>
      <use xlink:href="#DejaVuSans-70" x="820.605469"/>
      <use xlink:href="#DejaVuSans-64" x="884.082031"/>
      <use xlink:href="#DejaVuSans-61" x="947.558594"/>
      <use xlink:href="#DejaVuSans-74" x="1008.837891"/>
      <use xlink:href="#DejaVuSans-65" x="1048.046875"/>
     </g>
    </g>
    <g id="line2d_23">
     <path d="M 305.421875 89.974687 
L 315.421875 89.974687 
L 325.421875 89.974687 
" style="fill: none; stroke: #2ca02c; stroke-width: 1.5; stroke-linecap: square"/>
    </g>
    <g id="text_17">
     <!-- DQTM - Type b update -->
     <g transform="translate(333.421875 93.474687) scale(0.1 -0.1)">
      <use xlink:href="#DejaVuSans-44"/>
      <use xlink:href="#DejaVuSans-51" x="77.001953"/>
      <use xlink:href="#DejaVuSans-54" x="155.712891"/>
      <use xlink:href="#DejaVuSans-4d" x="216.796875"/>
      <use xlink:href="#DejaVuSans-20" x="303.076172"/>
      <use xlink:href="#DejaVuSans-2d" x="334.863281"/>
      <use xlink:href="#DejaVuSans-20" x="370.947266"/>
      <use xlink:href="#DejaVuSans-54" x="402.734375"/>
      <use xlink:href="#DejaVuSans-79" x="448.193359"/>
      <use xlink:href="#DejaVuSans-70" x="507.373047"/>
      <use xlink:href="#DejaVuSans-65" x="570.849609"/>
      <use xlink:href="#DejaVuSans-20" x="632.373047"/>
      <use xlink:href="#DejaVuSans-62" x="664.160156"/>
      <use xlink:href="#DejaVuSans-20" x="727.636719"/>
      <use xlink:href="#DejaVuSans-75" x="759.423828"/>
      <use xlink:href="#DejaVuSans-70" x="822.802734"/>
      <use xlink:href="#DejaVuSans-64" x="886.279297"/>
      <use xlink:href="#DejaVuSans-61" x="949.755859"/>
      <use xlink:href="#DejaVuSans-74" x="1011.035156"/>
      <use xlink:href="#DejaVuSans-65" x="1050.244141"/>
     </g>
    </g>
   </g>
  </g>
 </g>
 <defs>
  <clipPath id="p99fdc7d794">
   <rect x="63" y="47.52" width="390.6" height="304.92"/>
  </clipPath>
 </defs>
</svg>
