<?xml version="1.0" encoding="utf-8" standalone="no"?>
<!DOCTYPE svg PUBLIC "-//W3C//DTD SVG 1.1//EN"
  "http://www.w3.org/Graphics/SVG/1.1/DTD/svg11.dtd">
<svg xmlns:xlink="http://www.w3.org/1999/xlink" width="504pt" height="396pt" viewBox="0 0 504 396" xmlns="http://www.w3.org/2000/svg" version="1.1">
 <metadata>
  <rdf:RDF xmlns:dc="http://purl.org/dc/elements/1.1/" xmlns:cc="http://creativecommons.org/ns#" xmlns:rdf="http://www.w3.org/1999/02/22-rdf-syntax-ns#">
   <cc:Work>
    <dc:type rdf:resource="http://purl.org/dc/dcmitype/StillImage"/>
    <dc:date>2024-05-10T18:50:26.784528</dc:date>
    <dc:format>image/svg+xml</dc:format>
    <dc:creator>
     <cc:Agent>
      <dc:title>Matplotlib v3.8.2, https://matplotlib.org/</dc:title>
     </cc:Agent>
    </dc:creator>
   </cc:Work>
  </rdf:RDF>
 </metadata>
 <defs>
  <style type="text/css">*{stroke-linejoin: round; stroke-linecap: butt}</style>
 </defs>
 <g id="figure_1">
  <g id="patch_1">
   <path d="M 0 396 
L 504 396 
L 504 0 
L 0 0 
z
" style="fill: #ffffff"/>
  </g>
  <g id="axes_1">
   <g id="patch_2">
    <path d="M 63 352.44 
L 453.6 352.44 
L 453.6 47.52 
L 63 47.52 
z
" style="fill: #ffffff"/>
   </g>
   <g id="PolyCollection_1">
    <defs>
     <path id="m6a8cc875f1" d="M 128.304925 -57.42 
L 127.895075 -57.42 
L 127.764395 -60.22 
L 127.576165 -63.02 
L 127.319481 -65.82 
L 126.987737 -68.62 
L 126.580845 -71.42 
L 126.10651 -74.22 
L 125.580149 -77.02 
L 125.023501 -79.82 
L 124.46241 -82.62 
L 123.924418 -85.42 
L 123.436583 -88.22 
L 123.023599 -91.02 
L 122.705954 -93.82 
L 122.497928 -96.62 
L 122.40559 -99.42 
L 122.42536 -102.22 
L 122.543864 -105.02 
L 122.739523 -107.82 
L 122.985718 -110.62 
L 123.254814 -113.42 
L 123.522002 -116.22 
L 123.768068 -119.02 
L 123.980646 -121.82 
L 124.153983 -124.62 
L 124.28766 -127.42 
L 124.384841 -130.22 
L 124.450574 -133.02 
L 124.490516 -135.82 
L 124.510232 -138.62 
L 124.515045 -141.42 
L 124.510241 -144.22 
L 124.501364 -147.02 
L 124.494323 -149.82 
L 124.495108 -152.62 
L 124.509114 -155.42 
L 124.540235 -158.22 
L 124.590053 -161.02 
L 124.657437 -163.82 
L 124.738754 -166.62 
L 124.828643 -169.42 
L 124.92111 -172.22 
L 125.010603 -175.02 
L 125.09278 -177.82 
L 125.164888 -180.62 
L 125.22583 -183.42 
L 125.276098 -186.22 
L 125.317687 -189.02 
L 125.353977 -191.82 
L 125.389466 -194.62 
L 125.429237 -197.42 
L 125.478139 -200.22 
L 125.539833 -203.02 
L 125.615938 -205.82 
L 125.705529 -208.62 
L 125.805147 -211.42 
L 125.909309 -214.22 
L 126.011424 -217.02 
L 126.104903 -219.82 
L 126.184281 -222.62 
L 126.246111 -225.42 
L 126.289497 -228.22 
L 126.316151 -231.02 
L 126.329963 -233.82 
L 126.336199 -236.62 
L 126.340502 -239.42 
L 126.347912 -242.22 
L 126.362125 -245.02 
L 126.385104 -247.82 
L 126.417081 -250.62 
L 126.456874 -253.42 
L 126.502381 -256.22 
L 126.551072 -259.02 
L 126.600357 -261.82 
L 126.64776 -264.62 
L 126.690957 -267.42 
L 126.72778 -270.22 
L 126.756298 -273.02 
L 126.77503 -275.82 
L 126.783254 -278.62 
L 126.781278 -281.42 
L 126.770602 -284.22 
L 126.753918 -287.02 
L 126.73501 -289.82 
L 126.718621 -292.62 
L 126.710311 -295.42 
L 126.716186 -298.22 
L 126.742347 -301.02 
L 126.793958 -303.82 
L 126.874033 -306.62 
L 126.982291 -309.42 
L 127.114535 -312.22 
L 127.262929 -315.02 
L 127.417237 -317.82 
L 127.566695 -320.62 
L 127.701983 -323.42 
L 127.816695 -326.22 
L 127.907959 -329.02 
L 127.976175 -331.82 
L 128.024127 -334.62 
L 128.175873 -334.62 
L 128.175873 -334.62 
L 128.223825 -331.82 
L 128.292041 -329.02 
L 128.383305 -326.22 
L 128.498017 -323.42 
L 128.633305 -320.62 
L 128.782763 -317.82 
L 128.937071 -315.02 
L 129.085465 -312.22 
L 129.217709 -309.42 
L 129.325967 -306.62 
L 129.406042 -303.82 
L 129.457653 -301.02 
L 129.483814 -298.22 
L 129.489689 -295.42 
L 129.481379 -292.62 
L 129.46499 -289.82 
L 129.446082 -287.02 
L 129.429398 -284.22 
L 129.418722 -281.42 
L 129.416746 -278.62 
L 129.42497 -275.82 
L 129.443702 -273.02 
L 129.47222 -270.22 
L 129.509043 -267.42 
L 129.55224 -264.62 
L 129.599643 -261.82 
L 129.648928 -259.02 
L 129.697619 -256.22 
L 129.743126 -253.42 
L 129.782919 -250.62 
L 129.814896 -247.82 
L 129.837875 -245.02 
L 129.852088 -242.22 
L 129.859498 -239.42 
L 129.863801 -236.62 
L 129.870037 -233.82 
L 129.883849 -231.02 
L 129.910503 -228.22 
L 129.953889 -225.42 
L 130.015719 -222.62 
L 130.095097 -219.82 
L 130.188576 -217.02 
L 130.290691 -214.22 
L 130.394853 -211.42 
L 130.494471 -208.62 
L 130.584062 -205.82 
L 130.660167 -203.02 
L 130.721861 -200.22 
L 130.770763 -197.42 
L 130.810534 -194.62 
L 130.846023 -191.82 
L 130.882313 -189.02 
L 130.923902 -186.22 
L 130.97417 -183.42 
L 131.035112 -180.62 
L 131.10722 -177.82 
L 131.189397 -175.02 
L 131.27889 -172.22 
L 131.371357 -169.42 
L 131.461246 -166.62 
L 131.542563 -163.82 
L 131.609947 -161.02 
L 131.659765 -158.22 
L 131.690886 -155.42 
L 131.704892 -152.62 
L 131.705677 -149.82 
L 131.698636 -147.02 
L 131.689759 -144.22 
L 131.684955 -141.42 
L 131.689768 -138.62 
L 131.709484 -135.82 
L 131.749426 -133.02 
L 131.815159 -130.22 
L 131.91234 -127.42 
L 132.046017 -124.62 
L 132.219354 -121.82 
L 132.431932 -119.02 
L 132.677998 -116.22 
L 132.945186 -113.42 
L 133.214282 -110.62 
L 133.460477 -107.82 
L 133.656136 -105.02 
L 133.77464 -102.22 
L 133.79441 -99.42 
L 133.702072 -96.62 
L 133.494046 -93.82 
L 133.176401 -91.02 
L 132.763417 -88.22 
L 132.275582 -85.42 
L 131.73759 -82.62 
L 131.176499 -79.82 
L 130.619851 -77.02 
L 130.09349 -74.22 
L 129.619155 -71.42 
L 129.212263 -68.62 
L 128.880519 -65.82 
L 128.623835 -63.02 
L 128.435605 -60.22 
L 128.304925 -57.42 
z
" style="stroke: #3d3d3d; stroke-width: 1.5"/>
    </defs>
    <g clip-path="url(#p6c4931dca6)">
     <use xlink:href="#m6a8cc875f1" x="0" y="396" style="fill: #3274a1; stroke: #3d3d3d; stroke-width: 1.5"/>
    </g>
   </g>
   <g id="PolyCollection_2">
    <defs>
     <path id="m42ad7d2bb8" d="M 258.936271 -66.379306 
L 257.663729 -66.379306 
L 257.007979 -68.995755 
L 255.975573 -71.612204 
L 254.581132 -74.228653 
L 252.979065 -76.845103 
L 251.434685 -79.461552 
L 250.215475 -82.078001 
L 249.466645 -84.694451 
L 249.158895 -87.3109 
L 249.139263 -89.927349 
L 249.233669 -92.543799 
L 249.327103 -95.160248 
L 249.393411 -97.776697 
L 249.491078 -100.393147 
L 249.737261 -103.009596 
L 250.253281 -105.626045 
L 251.090904 -108.242494 
L 252.183963 -110.858944 
L 253.36715 -113.475393 
L 254.452866 -116.091842 
L 255.311258 -118.708292 
L 255.903816 -121.324741 
L 256.262837 -123.94119 
L 256.442129 -126.55764 
L 256.466934 -129.174089 
L 256.297395 -131.790538 
L 255.813526 -134.406987 
L 254.837659 -137.023437 
L 253.216211 -139.639886 
L 250.957703 -142.256335 
L 248.361874 -144.872785 
L 246.024216 -147.489234 
L 244.640755 -150.105683 
L 244.682583 -152.722133 
L 246.144722 -155.338582 
L 248.551389 -157.955031 
L 251.21333 -160.57148 
L 253.550422 -163.18793 
L 255.277957 -165.804379 
L 256.394427 -168.420828 
L 257.051813 -171.037278 
L 257.425476 -173.653727 
L 257.645782 -176.270176 
L 257.787754 -178.886626 
L 257.887625 -181.503075 
L 257.961621 -184.119524 
L 258.017719 -186.735973 
L 258.060606 -189.352423 
L 258.092848 -191.968872 
L 258.11508 -194.585321 
L 258.126835 -197.201771 
L 258.128071 -199.81822 
L 258.120376 -202.434669 
L 258.106957 -205.051119 
L 258.091573 -207.667568 
L 258.077299 -210.284017 
L 258.065952 -212.900466 
L 258.058268 -215.516916 
L 258.054352 -218.133365 
L 258.053982 -220.749814 
L 258.056734 -223.366264 
L 258.062105 -225.982713 
L 258.069641 -228.599162 
L 258.078949 -231.215612 
L 258.089637 -233.832061 
L 258.101338 -236.44851 
L 258.113778 -239.064959 
L 258.12669 -241.681409 
L 258.13956 -244.297858 
L 258.151513 -246.914307 
L 258.161526 -249.530757 
L 258.16879 -252.147206 
L 258.172865 -254.763655 
L 258.173606 -257.380105 
L 258.171093 -259.996554 
L 258.165724 -262.613003 
L 258.158319 -265.229453 
L 258.150027 -267.845902 
L 258.141979 -270.462351 
L 258.134753 -273.0788 
L 258.12775 -275.69525 
L 258.118716 -278.311699 
L 258.103861 -280.928148 
L 258.079155 -283.544598 
L 258.04284 -286.161047 
L 257.998046 -288.777496 
L 257.953452 -291.393946 
L 257.920605 -294.010395 
L 257.908836 -296.626844 
L 257.921002 -299.243293 
L 257.953025 -301.859743 
L 257.997244 -304.476192 
L 258.046622 -307.092641 
L 258.096767 -309.709091 
L 258.145167 -312.32554 
L 258.189554 -314.941989 
L 258.227357 -317.558439 
L 258.256527 -320.174888 
L 258.276568 -322.791337 
L 258.288708 -325.407786 
L 258.311292 -325.407786 
L 258.311292 -325.407786 
L 258.323432 -322.791337 
L 258.343473 -320.174888 
L 258.372643 -317.558439 
L 258.410446 -314.941989 
L 258.454833 -312.32554 
L 258.503233 -309.709091 
L 258.553378 -307.092641 
L 258.602756 -304.476192 
L 258.646975 -301.859743 
L 258.678998 -299.243293 
L 258.691164 -296.626844 
L 258.679395 -294.010395 
L 258.646548 -291.393946 
L 258.601954 -288.777496 
L 258.55716 -286.161047 
L 258.520845 -283.544598 
L 258.496139 -280.928148 
L 258.481284 -278.311699 
L 258.47225 -275.69525 
L 258.465247 -273.0788 
L 258.458021 -270.462351 
L 258.449973 -267.845902 
L 258.441681 -265.229453 
L 258.434276 -262.613003 
L 258.428907 -259.996554 
L 258.426394 -257.380105 
L 258.427135 -254.763655 
L 258.43121 -252.147206 
L 258.438474 -249.530757 
L 258.448487 -246.914307 
L 258.46044 -244.297858 
L 258.47331 -241.681409 
L 258.486222 -239.064959 
L 258.498662 -236.44851 
L 258.510363 -233.832061 
L 258.521051 -231.215612 
L 258.530359 -228.599162 
L 258.537895 -225.982713 
L 258.543266 -223.366264 
L 258.546018 -220.749814 
L 258.545648 -218.133365 
L 258.541732 -215.516916 
L 258.534048 -212.900466 
L 258.522701 -210.284017 
L 258.508427 -207.667568 
L 258.493043 -205.051119 
L 258.479624 -202.434669 
L 258.471929 -199.81822 
L 258.473165 -197.201771 
L 258.48492 -194.585321 
L 258.507152 -191.968872 
L 258.539394 -189.352423 
L 258.582281 -186.735973 
L 258.638379 -184.119524 
L 258.712375 -181.503075 
L 258.812246 -178.886626 
L 258.954218 -176.270176 
L 259.174524 -173.653727 
L 259.548187 -171.037278 
L 260.205573 -168.420828 
L 261.322043 -165.804379 
L 263.049578 -163.18793 
L 265.38667 -160.57148 
L 268.048611 -157.955031 
L 270.455278 -155.338582 
L 271.917417 -152.722133 
L 271.959245 -150.105683 
L 270.575784 -147.489234 
L 268.238126 -144.872785 
L 265.642297 -142.256335 
L 263.383789 -139.639886 
L 261.762341 -137.023437 
L 260.786474 -134.406987 
L 260.302605 -131.790538 
L 260.133066 -129.174089 
L 260.157871 -126.55764 
L 260.337163 -123.94119 
L 260.696184 -121.324741 
L 261.288742 -118.708292 
L 262.147134 -116.091842 
L 263.23285 -113.475393 
L 264.416037 -110.858944 
L 265.509096 -108.242494 
L 266.346719 -105.626045 
L 266.862739 -103.009596 
L 267.108922 -100.393147 
L 267.206589 -97.776697 
L 267.272897 -95.160248 
L 267.366331 -92.543799 
L 267.460737 -89.927349 
L 267.441105 -87.3109 
L 267.133355 -84.694451 
L 266.384525 -82.078001 
L 265.165315 -79.461552 
L 263.620935 -76.845103 
L 262.018868 -74.228653 
L 260.624427 -71.612204 
L 259.592021 -68.995755 
L 258.936271 -66.379306 
z
" style="stroke: #3d3d3d; stroke-width: 1.5"/>
    </defs>
    <g clip-path="url(#p6c4931dca6)">
     <use xlink:href="#m42ad7d2bb8" x="0" y="396" style="fill: #e1812c; stroke: #3d3d3d; stroke-width: 1.5"/>
    </g>
   </g>
   <g id="PolyCollection_3">
    <defs>
     <path id="m6b64e0a209" d="M 392.760406 -73.477733 
L 384.239594 -73.477733 
L 373.741017 -75.950496 
L 355.081822 -78.423259 
L 338.185242 -80.896022 
L 336.42 -83.368785 
L 348.908252 -85.841548 
L 363.571607 -88.31431 
L 373.267971 -90.787073 
L 378.555466 -93.259836 
L 381.660871 -95.732599 
L 383.697166 -98.205362 
L 385.070259 -100.678125 
L 386.035311 -103.150888 
L 386.738517 -105.623651 
L 387.223109 -108.096413 
L 387.516876 -110.569176 
L 387.668265 -113.041939 
L 387.739804 -115.514702 
L 387.790091 -117.987465 
L 387.851376 -120.460228 
L 387.931041 -122.932991 
L 388.023501 -125.405754 
L 388.105799 -127.878516 
L 388.152528 -130.351279 
L 388.164695 -132.824042 
L 388.167157 -135.296805 
L 388.1822 -137.769568 
L 388.197894 -140.242331 
L 388.179755 -142.715094 
L 388.134704 -145.187857 
L 388.11532 -147.660619 
L 388.151995 -150.133382 
L 388.222402 -152.606145 
L 388.279746 -155.078908 
L 388.295248 -157.551671 
L 388.276193 -160.024434 
L 388.251038 -162.497197 
L 388.248837 -164.96996 
L 388.279972 -167.442723 
L 388.325259 -169.915485 
L 388.353161 -172.388248 
L 388.351465 -174.861011 
L 388.336934 -177.333774 
L 388.334853 -179.806537 
L 388.353382 -182.2793 
L 388.37693 -184.752063 
L 388.387131 -187.224826 
L 388.388439 -189.697588 
L 388.39808 -192.170351 
L 388.414259 -194.643114 
L 388.419487 -197.115877 
L 388.414344 -199.58864 
L 388.417416 -202.061403 
L 388.430828 -204.534166 
L 388.43936 -207.006929 
L 388.437708 -209.479691 
L 388.432678 -211.952454 
L 388.42912 -214.425217 
L 388.427777 -216.89798 
L 388.430844 -219.370743 
L 388.438292 -221.843506 
L 388.445601 -224.316269 
L 388.451309 -226.789032 
L 388.455684 -229.261794 
L 388.453329 -231.734557 
L 388.437457 -234.20732 
L 388.414179 -236.680083 
L 388.404013 -239.152846 
L 388.418039 -241.625609 
L 388.441353 -244.098372 
L 388.454286 -246.571135 
L 388.456404 -249.043897 
L 388.454987 -251.51666 
L 388.451165 -253.989423 
L 388.448146 -256.462186 
L 388.452895 -258.934949 
L 388.464641 -261.407712 
L 388.472775 -263.880475 
L 388.470294 -266.353238 
L 388.462795 -268.826 
L 388.45605 -271.298763 
L 388.446888 -273.771526 
L 388.438653 -276.244289 
L 388.442578 -278.717052 
L 388.455056 -281.189815 
L 388.461446 -283.662578 
L 388.459508 -286.135341 
L 388.454362 -288.608103 
L 388.444679 -291.080866 
L 388.431478 -293.553629 
L 388.425297 -296.026392 
L 388.436154 -298.499155 
L 388.459552 -300.971918 
L 388.478143 -303.444681 
L 388.480767 -305.917444 
L 388.473314 -308.390206 
L 388.470466 -310.862969 
L 388.478424 -313.335732 
L 388.489836 -315.808495 
L 388.496922 -318.281258 
L 388.503078 -318.281258 
L 388.503078 -318.281258 
L 388.510164 -315.808495 
L 388.521576 -313.335732 
L 388.529534 -310.862969 
L 388.526686 -308.390206 
L 388.519233 -305.917444 
L 388.521857 -303.444681 
L 388.540448 -300.971918 
L 388.563846 -298.499155 
L 388.574703 -296.026392 
L 388.568522 -293.553629 
L 388.555321 -291.080866 
L 388.545638 -288.608103 
L 388.540492 -286.135341 
L 388.538554 -283.662578 
L 388.544944 -281.189815 
L 388.557422 -278.717052 
L 388.561347 -276.244289 
L 388.553112 -273.771526 
L 388.54395 -271.298763 
L 388.537205 -268.826 
L 388.529706 -266.353238 
L 388.527225 -263.880475 
L 388.535359 -261.407712 
L 388.547105 -258.934949 
L 388.551854 -256.462186 
L 388.548835 -253.989423 
L 388.545013 -251.51666 
L 388.543596 -249.043897 
L 388.545714 -246.571135 
L 388.558647 -244.098372 
L 388.581961 -241.625609 
L 388.595987 -239.152846 
L 388.585821 -236.680083 
L 388.562543 -234.20732 
L 388.546671 -231.734557 
L 388.544316 -229.261794 
L 388.548691 -226.789032 
L 388.554399 -224.316269 
L 388.561708 -221.843506 
L 388.569156 -219.370743 
L 388.572223 -216.89798 
L 388.57088 -214.425217 
L 388.567322 -211.952454 
L 388.562292 -209.479691 
L 388.56064 -207.006929 
L 388.569172 -204.534166 
L 388.582584 -202.061403 
L 388.585656 -199.58864 
L 388.580513 -197.115877 
L 388.585741 -194.643114 
L 388.60192 -192.170351 
L 388.611561 -189.697588 
L 388.612869 -187.224826 
L 388.62307 -184.752063 
L 388.646618 -182.2793 
L 388.665147 -179.806537 
L 388.663066 -177.333774 
L 388.648535 -174.861011 
L 388.646839 -172.388248 
L 388.674741 -169.915485 
L 388.720028 -167.442723 
L 388.751163 -164.96996 
L 388.748962 -162.497197 
L 388.723807 -160.024434 
L 388.704752 -157.551671 
L 388.720254 -155.078908 
L 388.777598 -152.606145 
L 388.848005 -150.133382 
L 388.88468 -147.660619 
L 388.865296 -145.187857 
L 388.820245 -142.715094 
L 388.802106 -140.242331 
L 388.8178 -137.769568 
L 388.832843 -135.296805 
L 388.835305 -132.824042 
L 388.847472 -130.351279 
L 388.894201 -127.878516 
L 388.976499 -125.405754 
L 389.068959 -122.932991 
L 389.148624 -120.460228 
L 389.209909 -117.987465 
L 389.260196 -115.514702 
L 389.331735 -113.041939 
L 389.483124 -110.569176 
L 389.776891 -108.096413 
L 390.261483 -105.623651 
L 390.964689 -103.150888 
L 391.929741 -100.678125 
L 393.302834 -98.205362 
L 395.339129 -95.732599 
L 398.444534 -93.259836 
L 403.732029 -90.787073 
L 413.428393 -88.31431 
L 428.091748 -85.841548 
L 440.58 -83.368785 
L 438.814758 -80.896022 
L 421.918178 -78.423259 
L 403.258983 -75.950496 
L 392.760406 -73.477733 
z
" style="stroke: #3d3d3d; stroke-width: 1.5"/>
    </defs>
    <g clip-path="url(#p6c4931dca6)">
     <use xlink:href="#m6b64e0a209" x="0" y="396" style="fill: #3a923a; stroke: #3d3d3d; stroke-width: 1.5"/>
    </g>
   </g>
   <g id="matplotlib.axis_1">
    <g id="xtick_1">
     <g id="line2d_1">
      <defs>
       <path id="m5dc4ea9da4" d="M 0 0 
L 0 3.5 
" style="stroke: #000000; stroke-width: 0.8"/>
      </defs>
      <g>
       <use xlink:href="#m5dc4ea9da4" x="128.1" y="352.44" style="stroke: #000000; stroke-width: 0.8"/>
      </g>
     </g>
     <g id="text_1">
      <!-- TPPO -->
      <g transform="translate(115.080469 367.038437) scale(0.1 -0.1)">
       <defs>
        <path id="DejaVuSans-54" d="M -19 4666 
L 3928 4666 
L 3928 4134 
L 2272 4134 
L 2272 0 
L 1638 0 
L 1638 4134 
L -19 4134 
L -19 4666 
z
" transform="scale(0.015625)"/>
        <path id="DejaVuSans-50" d="M 1259 4147 
L 1259 2394 
L 2053 2394 
Q 2494 2394 2734 2622 
Q 2975 2850 2975 3272 
Q 2975 3691 2734 3919 
Q 2494 4147 2053 4147 
L 1259 4147 
z
M 628 4666 
L 2053 4666 
Q 2838 4666 3239 4311 
Q 3641 3956 3641 3272 
Q 3641 2581 3239 2228 
Q 2838 1875 2053 1875 
L 1259 1875 
L 1259 0 
L 628 0 
L 628 4666 
z
" transform="scale(0.015625)"/>
        <path id="DejaVuSans-4f" d="M 2522 4238 
Q 1834 4238 1429 3725 
Q 1025 3213 1025 2328 
Q 1025 1447 1429 934 
Q 1834 422 2522 422 
Q 3209 422 3611 934 
Q 4013 1447 4013 2328 
Q 4013 3213 3611 3725 
Q 3209 4238 2522 4238 
z
M 2522 4750 
Q 3503 4750 4090 4092 
Q 4678 3434 4678 2328 
Q 4678 1225 4090 567 
Q 3503 -91 2522 -91 
Q 1538 -91 948 565 
Q 359 1222 359 2328 
Q 359 3434 948 4092 
Q 1538 4750 2522 4750 
z
" transform="scale(0.015625)"/>
       </defs>
       <use xlink:href="#DejaVuSans-54"/>
       <use xlink:href="#DejaVuSans-50" x="61.083984"/>
       <use xlink:href="#DejaVuSans-50" x="121.386719"/>
       <use xlink:href="#DejaVuSans-4f" x="181.689453"/>
      </g>
     </g>
    </g>
    <g id="xtick_2">
     <g id="line2d_2">
      <g>
       <use xlink:href="#m5dc4ea9da4" x="258.3" y="352.44" style="stroke: #000000; stroke-width: 0.8"/>
      </g>
     </g>
     <g id="text_2">
      <!-- TAC  -->
      <g transform="translate(247.220312 367.038437) scale(0.1 -0.1)">
       <defs>
        <path id="DejaVuSans-41" d="M 2188 4044 
L 1331 1722 
L 3047 1722 
L 2188 4044 
z
M 1831 4666 
L 2547 4666 
L 4325 0 
L 3669 0 
L 3244 1197 
L 1141 1197 
L 716 0 
L 50 0 
L 1831 4666 
z
" transform="scale(0.015625)"/>
        <path id="DejaVuSans-43" d="M 4122 4306 
L 4122 3641 
Q 3803 3938 3442 4084 
Q 3081 4231 2675 4231 
Q 1875 4231 1450 3742 
Q 1025 3253 1025 2328 
Q 1025 1406 1450 917 
Q 1875 428 2675 428 
Q 3081 428 3442 575 
Q 3803 722 4122 1019 
L 4122 359 
Q 3791 134 3420 21 
Q 3050 -91 2638 -91 
Q 1578 -91 968 557 
Q 359 1206 359 2328 
Q 359 3453 968 4101 
Q 1578 4750 2638 4750 
Q 3056 4750 3426 4639 
Q 3797 4528 4122 4306 
z
" transform="scale(0.015625)"/>
        <path id="DejaVuSans-20" transform="scale(0.015625)"/>
       </defs>
       <use xlink:href="#DejaVuSans-54"/>
       <use xlink:href="#DejaVuSans-41" x="53.333984"/>
       <use xlink:href="#DejaVuSans-43" x="119.992188"/>
       <use xlink:href="#DejaVuSans-20" x="189.816406"/>
      </g>
      <!--  Update type a -->
      <g transform="translate(221.189844 378.23625) scale(0.1 -0.1)">
       <defs>
        <path id="DejaVuSans-55" d="M 556 4666 
L 1191 4666 
L 1191 1831 
Q 1191 1081 1462 751 
Q 1734 422 2344 422 
Q 2950 422 3222 751 
Q 3494 1081 3494 1831 
L 3494 4666 
L 4128 4666 
L 4128 1753 
Q 4128 841 3676 375 
Q 3225 -91 2344 -91 
Q 1459 -91 1007 375 
Q 556 841 556 1753 
L 556 4666 
z
" transform="scale(0.015625)"/>
        <path id="DejaVuSans-70" d="M 1159 525 
L 1159 -1331 
L 581 -1331 
L 581 3500 
L 1159 3500 
L 1159 2969 
Q 1341 3281 1617 3432 
Q 1894 3584 2278 3584 
Q 2916 3584 3314 3078 
Q 3713 2572 3713 1747 
Q 3713 922 3314 415 
Q 2916 -91 2278 -91 
Q 1894 -91 1617 61 
Q 1341 213 1159 525 
z
M 3116 1747 
Q 3116 2381 2855 2742 
Q 2594 3103 2138 3103 
Q 1681 3103 1420 2742 
Q 1159 2381 1159 1747 
Q 1159 1113 1420 752 
Q 1681 391 2138 391 
Q 2594 391 2855 752 
Q 3116 1113 3116 1747 
z
" transform="scale(0.015625)"/>
        <path id="DejaVuSans-64" d="M 2906 2969 
L 2906 4863 
L 3481 4863 
L 3481 0 
L 2906 0 
L 2906 525 
Q 2725 213 2448 61 
Q 2172 -91 1784 -91 
Q 1150 -91 751 415 
Q 353 922 353 1747 
Q 353 2572 751 3078 
Q 1150 3584 1784 3584 
Q 2172 3584 2448 3432 
Q 2725 3281 2906 2969 
z
M 947 1747 
Q 947 1113 1208 752 
Q 1469 391 1925 391 
Q 2381 391 2643 752 
Q 2906 1113 2906 1747 
Q 2906 2381 2643 2742 
Q 2381 3103 1925 3103 
Q 1469 3103 1208 2742 
Q 947 2381 947 1747 
z
" transform="scale(0.015625)"/>
        <path id="DejaVuSans-61" d="M 2194 1759 
Q 1497 1759 1228 1600 
Q 959 1441 959 1056 
Q 959 750 1161 570 
Q 1363 391 1709 391 
Q 2188 391 2477 730 
Q 2766 1069 2766 1631 
L 2766 1759 
L 2194 1759 
z
M 3341 1997 
L 3341 0 
L 2766 0 
L 2766 531 
Q 2569 213 2275 61 
Q 1981 -91 1556 -91 
Q 1019 -91 701 211 
Q 384 513 384 1019 
Q 384 1609 779 1909 
Q 1175 2209 1959 2209 
L 2766 2209 
L 2766 2266 
Q 2766 2663 2505 2880 
Q 2244 3097 1772 3097 
Q 1472 3097 1187 3025 
Q 903 2953 641 2809 
L 641 3341 
Q 956 3463 1253 3523 
Q 1550 3584 1831 3584 
Q 2591 3584 2966 3190 
Q 3341 2797 3341 1997 
z
" transform="scale(0.015625)"/>
        <path id="DejaVuSans-74" d="M 1172 4494 
L 1172 3500 
L 2356 3500 
L 2356 3053 
L 1172 3053 
L 1172 1153 
Q 1172 725 1289 603 
Q 1406 481 1766 481 
L 2356 481 
L 2356 0 
L 1766 0 
Q 1100 0 847 248 
Q 594 497 594 1153 
L 594 3053 
L 172 3053 
L 172 3500 
L 594 3500 
L 594 4494 
L 1172 4494 
z
" transform="scale(0.015625)"/>
        <path id="DejaVuSans-65" d="M 3597 1894 
L 3597 1613 
L 953 1613 
Q 991 1019 1311 708 
Q 1631 397 2203 397 
Q 2534 397 2845 478 
Q 3156 559 3463 722 
L 3463 178 
Q 3153 47 2828 -22 
Q 2503 -91 2169 -91 
Q 1331 -91 842 396 
Q 353 884 353 1716 
Q 353 2575 817 3079 
Q 1281 3584 2069 3584 
Q 2775 3584 3186 3129 
Q 3597 2675 3597 1894 
z
M 3022 2063 
Q 3016 2534 2758 2815 
Q 2500 3097 2075 3097 
Q 1594 3097 1305 2825 
Q 1016 2553 972 2059 
L 3022 2063 
z
" transform="scale(0.015625)"/>
        <path id="DejaVuSans-79" d="M 2059 -325 
Q 1816 -950 1584 -1140 
Q 1353 -1331 966 -1331 
L 506 -1331 
L 506 -850 
L 844 -850 
Q 1081 -850 1212 -737 
Q 1344 -625 1503 -206 
L 1606 56 
L 191 3500 
L 800 3500 
L 1894 763 
L 2988 3500 
L 3597 3500 
L 2059 -325 
z
" transform="scale(0.015625)"/>
       </defs>
       <use xlink:href="#DejaVuSans-20"/>
       <use xlink:href="#DejaVuSans-55" x="31.787109"/>
       <use xlink:href="#DejaVuSans-70" x="104.980469"/>
       <use xlink:href="#DejaVuSans-64" x="168.457031"/>
       <use xlink:href="#DejaVuSans-61" x="231.933594"/>
       <use xlink:href="#DejaVuSans-74" x="293.212891"/>
       <use xlink:href="#DejaVuSans-65" x="332.421875"/>
       <use xlink:href="#DejaVuSans-20" x="393.945312"/>
       <use xlink:href="#DejaVuSans-74" x="425.732422"/>
       <use xlink:href="#DejaVuSans-79" x="464.941406"/>
       <use xlink:href="#DejaVuSans-70" x="524.121094"/>
       <use xlink:href="#DejaVuSans-65" x="587.597656"/>
       <use xlink:href="#DejaVuSans-20" x="649.121094"/>
       <use xlink:href="#DejaVuSans-61" x="680.908203"/>
      </g>
     </g>
    </g>
    <g id="xtick_3">
     <g id="line2d_3">
      <g>
       <use xlink:href="#m5dc4ea9da4" x="388.5" y="352.44" style="stroke: #000000; stroke-width: 0.8"/>
      </g>
     </g>
     <g id="text_3">
      <!-- TAC  -->
      <g transform="translate(377.420313 367.038437) scale(0.1 -0.1)">
       <use xlink:href="#DejaVuSans-54"/>
       <use xlink:href="#DejaVuSans-41" x="53.333984"/>
       <use xlink:href="#DejaVuSans-43" x="119.992188"/>
       <use xlink:href="#DejaVuSans-20" x="189.816406"/>
      </g>
      <!--  Update type b -->
      <g transform="translate(351.279688 378.23625) scale(0.1 -0.1)">
       <defs>
        <path id="DejaVuSans-62" d="M 3116 1747 
Q 3116 2381 2855 2742 
Q 2594 3103 2138 3103 
Q 1681 3103 1420 2742 
Q 1159 2381 1159 1747 
Q 1159 1113 1420 752 
Q 1681 391 2138 391 
Q 2594 391 2855 752 
Q 3116 1113 3116 1747 
z
M 1159 2969 
Q 1341 3281 1617 3432 
Q 1894 3584 2278 3584 
Q 2916 3584 3314 3078 
Q 3713 2572 3713 1747 
Q 3713 922 3314 415 
Q 2916 -91 2278 -91 
Q 1894 -91 1617 61 
Q 1341 213 1159 525 
L 1159 0 
L 581 0 
L 581 4863 
L 1159 4863 
L 1159 2969 
z
" transform="scale(0.015625)"/>
       </defs>
       <use xlink:href="#DejaVuSans-20"/>
       <use xlink:href="#DejaVuSans-55" x="31.787109"/>
       <use xlink:href="#DejaVuSans-70" x="104.980469"/>
       <use xlink:href="#DejaVuSans-64" x="168.457031"/>
       <use xlink:href="#DejaVuSans-61" x="231.933594"/>
       <use xlink:href="#DejaVuSans-74" x="293.212891"/>
       <use xlink:href="#DejaVuSans-65" x="332.421875"/>
       <use xlink:href="#DejaVuSans-20" x="393.945312"/>
       <use xlink:href="#DejaVuSans-74" x="425.732422"/>
       <use xlink:href="#DejaVuSans-79" x="464.941406"/>
       <use xlink:href="#DejaVuSans-70" x="524.121094"/>
       <use xlink:href="#DejaVuSans-65" x="587.597656"/>
       <use xlink:href="#DejaVuSans-20" x="649.121094"/>
       <use xlink:href="#DejaVuSans-62" x="680.908203"/>
      </g>
     </g>
    </g>
    <g id="text_4">
     <!-- Algorithm -->
     <g transform="translate(233.813281 391.914375) scale(0.1 -0.1)">
      <defs>
       <path id="DejaVuSans-6c" d="M 603 4863 
L 1178 4863 
L 1178 0 
L 603 0 
L 603 4863 
z
" transform="scale(0.015625)"/>
       <path id="DejaVuSans-67" d="M 2906 1791 
Q 2906 2416 2648 2759 
Q 2391 3103 1925 3103 
Q 1463 3103 1205 2759 
Q 947 2416 947 1791 
Q 947 1169 1205 825 
Q 1463 481 1925 481 
Q 2391 481 2648 825 
Q 2906 1169 2906 1791 
z
M 3481 434 
Q 3481 -459 3084 -895 
Q 2688 -1331 1869 -1331 
Q 1566 -1331 1297 -1286 
Q 1028 -1241 775 -1147 
L 775 -588 
Q 1028 -725 1275 -790 
Q 1522 -856 1778 -856 
Q 2344 -856 2625 -561 
Q 2906 -266 2906 331 
L 2906 616 
Q 2728 306 2450 153 
Q 2172 0 1784 0 
Q 1141 0 747 490 
Q 353 981 353 1791 
Q 353 2603 747 3093 
Q 1141 3584 1784 3584 
Q 2172 3584 2450 3431 
Q 2728 3278 2906 2969 
L 2906 3500 
L 3481 3500 
L 3481 434 
z
" transform="scale(0.015625)"/>
       <path id="DejaVuSans-6f" d="M 1959 3097 
Q 1497 3097 1228 2736 
Q 959 2375 959 1747 
Q 959 1119 1226 758 
Q 1494 397 1959 397 
Q 2419 397 2687 759 
Q 2956 1122 2956 1747 
Q 2956 2369 2687 2733 
Q 2419 3097 1959 3097 
z
M 1959 3584 
Q 2709 3584 3137 3096 
Q 3566 2609 3566 1747 
Q 3566 888 3137 398 
Q 2709 -91 1959 -91 
Q 1206 -91 779 398 
Q 353 888 353 1747 
Q 353 2609 779 3096 
Q 1206 3584 1959 3584 
z
" transform="scale(0.015625)"/>
       <path id="DejaVuSans-72" d="M 2631 2963 
Q 2534 3019 2420 3045 
Q 2306 3072 2169 3072 
Q 1681 3072 1420 2755 
Q 1159 2438 1159 1844 
L 1159 0 
L 581 0 
L 581 3500 
L 1159 3500 
L 1159 2956 
Q 1341 3275 1631 3429 
Q 1922 3584 2338 3584 
Q 2397 3584 2469 3576 
Q 2541 3569 2628 3553 
L 2631 2963 
z
" transform="scale(0.015625)"/>
       <path id="DejaVuSans-69" d="M 603 3500 
L 1178 3500 
L 1178 0 
L 603 0 
L 603 3500 
z
M 603 4863 
L 1178 4863 
L 1178 4134 
L 603 4134 
L 603 4863 
z
" transform="scale(0.015625)"/>
       <path id="DejaVuSans-68" d="M 3513 2113 
L 3513 0 
L 2938 0 
L 2938 2094 
Q 2938 2591 2744 2837 
Q 2550 3084 2163 3084 
Q 1697 3084 1428 2787 
Q 1159 2491 1159 1978 
L 1159 0 
L 581 0 
L 581 4863 
L 1159 4863 
L 1159 2956 
Q 1366 3272 1645 3428 
Q 1925 3584 2291 3584 
Q 2894 3584 3203 3211 
Q 3513 2838 3513 2113 
z
" transform="scale(0.015625)"/>
       <path id="DejaVuSans-6d" d="M 3328 2828 
Q 3544 3216 3844 3400 
Q 4144 3584 4550 3584 
Q 5097 3584 5394 3201 
Q 5691 2819 5691 2113 
L 5691 0 
L 5113 0 
L 5113 2094 
Q 5113 2597 4934 2840 
Q 4756 3084 4391 3084 
Q 3944 3084 3684 2787 
Q 3425 2491 3425 1978 
L 3425 0 
L 2847 0 
L 2847 2094 
Q 2847 2600 2669 2842 
Q 2491 3084 2119 3084 
Q 1678 3084 1418 2786 
Q 1159 2488 1159 1978 
L 1159 0 
L 581 0 
L 581 3500 
L 1159 3500 
L 1159 2956 
Q 1356 3278 1631 3431 
Q 1906 3584 2284 3584 
Q 2666 3584 2933 3390 
Q 3200 3197 3328 2828 
z
" transform="scale(0.015625)"/>
      </defs>
      <use xlink:href="#DejaVuSans-41"/>
      <use xlink:href="#DejaVuSans-6c" x="68.408203"/>
      <use xlink:href="#DejaVuSans-67" x="96.191406"/>
      <use xlink:href="#DejaVuSans-6f" x="159.667969"/>
      <use xlink:href="#DejaVuSans-72" x="220.849609"/>
      <use xlink:href="#DejaVuSans-69" x="261.962891"/>
      <use xlink:href="#DejaVuSans-74" x="289.746094"/>
      <use xlink:href="#DejaVuSans-68" x="328.955078"/>
      <use xlink:href="#DejaVuSans-6d" x="392.333984"/>
     </g>
    </g>
   </g>
   <g id="matplotlib.axis_2">
    <g id="ytick_1">
     <g id="line2d_4">
      <path d="M 63 319.247183 
L 453.6 319.247183 
" clip-path="url(#p6c4931dca6)" style="fill: none; stroke-dasharray: 2.96,1.28; stroke-dashoffset: 0; stroke: #b0b0b0; stroke-width: 0.8"/>
     </g>
     <g id="line2d_5">
      <defs>
       <path id="mde37bea90f" d="M 0 0 
L -3.5 0 
" style="stroke: #000000; stroke-width: 0.8"/>
      </defs>
      <g>
       <use xlink:href="#mde37bea90f" x="63" y="319.247183" style="stroke: #000000; stroke-width: 0.8"/>
      </g>
     </g>
     <g id="text_5">
      <!-- 0 -->
      <g transform="translate(49.6375 323.046401) scale(0.1 -0.1)">
       <defs>
        <path id="DejaVuSans-30" d="M 2034 4250 
Q 1547 4250 1301 3770 
Q 1056 3291 1056 2328 
Q 1056 1369 1301 889 
Q 1547 409 2034 409 
Q 2525 409 2770 889 
Q 3016 1369 3016 2328 
Q 3016 3291 2770 3770 
Q 2525 4250 2034 4250 
z
M 2034 4750 
Q 2819 4750 3233 4129 
Q 3647 3509 3647 2328 
Q 3647 1150 3233 529 
Q 2819 -91 2034 -91 
Q 1250 -91 836 529 
Q 422 1150 422 2328 
Q 422 3509 836 4129 
Q 1250 4750 2034 4750 
z
" transform="scale(0.015625)"/>
       </defs>
       <use xlink:href="#DejaVuSans-30"/>
      </g>
     </g>
    </g>
    <g id="ytick_2">
     <g id="line2d_6">
      <path d="M 63 272.412374 
L 453.6 272.412374 
" clip-path="url(#p6c4931dca6)" style="fill: none; stroke-dasharray: 2.96,1.28; stroke-dashoffset: 0; stroke: #b0b0b0; stroke-width: 0.8"/>
     </g>
     <g id="line2d_7">
      <g>
       <use xlink:href="#mde37bea90f" x="63" y="272.412374" style="stroke: #000000; stroke-width: 0.8"/>
      </g>
     </g>
     <g id="text_6">
      <!-- 100 -->
      <g transform="translate(36.9125 276.211592) scale(0.1 -0.1)">
       <defs>
        <path id="DejaVuSans-31" d="M 794 531 
L 1825 531 
L 1825 4091 
L 703 3866 
L 703 4441 
L 1819 4666 
L 2450 4666 
L 2450 531 
L 3481 531 
L 3481 0 
L 794 0 
L 794 531 
z
" transform="scale(0.015625)"/>
       </defs>
       <use xlink:href="#DejaVuSans-31"/>
       <use xlink:href="#DejaVuSans-30" x="63.623047"/>
       <use xlink:href="#DejaVuSans-30" x="127.246094"/>
      </g>
     </g>
    </g>
    <g id="ytick_3">
     <g id="line2d_8">
      <path d="M 63 225.577565 
L 453.6 225.577565 
" clip-path="url(#p6c4931dca6)" style="fill: none; stroke-dasharray: 2.96,1.28; stroke-dashoffset: 0; stroke: #b0b0b0; stroke-width: 0.8"/>
     </g>
     <g id="line2d_9">
      <g>
       <use xlink:href="#mde37bea90f" x="63" y="225.577565" style="stroke: #000000; stroke-width: 0.8"/>
      </g>
     </g>
     <g id="text_7">
      <!-- 200 -->
      <g transform="translate(36.9125 229.376784) scale(0.1 -0.1)">
       <defs>
        <path id="DejaVuSans-32" d="M 1228 531 
L 3431 531 
L 3431 0 
L 469 0 
L 469 531 
Q 828 903 1448 1529 
Q 2069 2156 2228 2338 
Q 2531 2678 2651 2914 
Q 2772 3150 2772 3378 
Q 2772 3750 2511 3984 
Q 2250 4219 1831 4219 
Q 1534 4219 1204 4116 
Q 875 4013 500 3803 
L 500 4441 
Q 881 4594 1212 4672 
Q 1544 4750 1819 4750 
Q 2544 4750 2975 4387 
Q 3406 4025 3406 3419 
Q 3406 3131 3298 2873 
Q 3191 2616 2906 2266 
Q 2828 2175 2409 1742 
Q 1991 1309 1228 531 
z
" transform="scale(0.015625)"/>
       </defs>
       <use xlink:href="#DejaVuSans-32"/>
       <use xlink:href="#DejaVuSans-30" x="63.623047"/>
       <use xlink:href="#DejaVuSans-30" x="127.246094"/>
      </g>
     </g>
    </g>
    <g id="ytick_4">
     <g id="line2d_10">
      <path d="M 63 178.742756 
L 453.6 178.742756 
" clip-path="url(#p6c4931dca6)" style="fill: none; stroke-dasharray: 2.96,1.28; stroke-dashoffset: 0; stroke: #b0b0b0; stroke-width: 0.8"/>
     </g>
     <g id="line2d_11">
      <g>
       <use xlink:href="#mde37bea90f" x="63" y="178.742756" style="stroke: #000000; stroke-width: 0.8"/>
      </g>
     </g>
     <g id="text_8">
      <!-- 300 -->
      <g transform="translate(36.9125 182.541975) scale(0.1 -0.1)">
       <defs>
        <path id="DejaVuSans-33" d="M 2597 2516 
Q 3050 2419 3304 2112 
Q 3559 1806 3559 1356 
Q 3559 666 3084 287 
Q 2609 -91 1734 -91 
Q 1441 -91 1130 -33 
Q 819 25 488 141 
L 488 750 
Q 750 597 1062 519 
Q 1375 441 1716 441 
Q 2309 441 2620 675 
Q 2931 909 2931 1356 
Q 2931 1769 2642 2001 
Q 2353 2234 1838 2234 
L 1294 2234 
L 1294 2753 
L 1863 2753 
Q 2328 2753 2575 2939 
Q 2822 3125 2822 3475 
Q 2822 3834 2567 4026 
Q 2313 4219 1838 4219 
Q 1578 4219 1281 4162 
Q 984 4106 628 3988 
L 628 4550 
Q 988 4650 1302 4700 
Q 1616 4750 1894 4750 
Q 2613 4750 3031 4423 
Q 3450 4097 3450 3541 
Q 3450 3153 3228 2886 
Q 3006 2619 2597 2516 
z
" transform="scale(0.015625)"/>
       </defs>
       <use xlink:href="#DejaVuSans-33"/>
       <use xlink:href="#DejaVuSans-30" x="63.623047"/>
       <use xlink:href="#DejaVuSans-30" x="127.246094"/>
      </g>
     </g>
    </g>
    <g id="ytick_5">
     <g id="line2d_12">
      <path d="M 63 131.907947 
L 453.6 131.907947 
" clip-path="url(#p6c4931dca6)" style="fill: none; stroke-dasharray: 2.96,1.28; stroke-dashoffset: 0; stroke: #b0b0b0; stroke-width: 0.8"/>
     </g>
     <g id="line2d_13">
      <g>
       <use xlink:href="#mde37bea90f" x="63" y="131.907947" style="stroke: #000000; stroke-width: 0.8"/>
      </g>
     </g>
     <g id="text_9">
      <!-- 400 -->
      <g transform="translate(36.9125 135.707166) scale(0.1 -0.1)">
       <defs>
        <path id="DejaVuSans-34" d="M 2419 4116 
L 825 1625 
L 2419 1625 
L 2419 4116 
z
M 2253 4666 
L 3047 4666 
L 3047 1625 
L 3713 1625 
L 3713 1100 
L 3047 1100 
L 3047 0 
L 2419 0 
L 2419 1100 
L 313 1100 
L 313 1709 
L 2253 4666 
z
" transform="scale(0.015625)"/>
       </defs>
       <use xlink:href="#DejaVuSans-34"/>
       <use xlink:href="#DejaVuSans-30" x="63.623047"/>
       <use xlink:href="#DejaVuSans-30" x="127.246094"/>
      </g>
     </g>
    </g>
    <g id="ytick_6">
     <g id="line2d_14">
      <path d="M 63 85.073138 
L 453.6 85.073138 
" clip-path="url(#p6c4931dca6)" style="fill: none; stroke-dasharray: 2.96,1.28; stroke-dashoffset: 0; stroke: #b0b0b0; stroke-width: 0.8"/>
     </g>
     <g id="line2d_15">
      <g>
       <use xlink:href="#mde37bea90f" x="63" y="85.073138" style="stroke: #000000; stroke-width: 0.8"/>
      </g>
     </g>
     <g id="text_10">
      <!-- 500 -->
      <g transform="translate(36.9125 88.872357) scale(0.1 -0.1)">
       <defs>
        <path id="DejaVuSans-35" d="M 691 4666 
L 3169 4666 
L 3169 4134 
L 1269 4134 
L 1269 2991 
Q 1406 3038 1543 3061 
Q 1681 3084 1819 3084 
Q 2600 3084 3056 2656 
Q 3513 2228 3513 1497 
Q 3513 744 3044 326 
Q 2575 -91 1722 -91 
Q 1428 -91 1123 -41 
Q 819 9 494 109 
L 494 744 
Q 775 591 1075 516 
Q 1375 441 1709 441 
Q 2250 441 2565 725 
Q 2881 1009 2881 1497 
Q 2881 1984 2565 2268 
Q 2250 2553 1709 2553 
Q 1456 2553 1204 2497 
Q 953 2441 691 2322 
L 691 4666 
z
" transform="scale(0.015625)"/>
       </defs>
       <use xlink:href="#DejaVuSans-35"/>
       <use xlink:href="#DejaVuSans-30" x="63.623047"/>
       <use xlink:href="#DejaVuSans-30" x="127.246094"/>
      </g>
     </g>
    </g>
    <g id="text_11">
     <!-- Mean rewards -->
     <g transform="translate(30.832812 235.112031) rotate(-90) scale(0.1 -0.1)">
      <defs>
       <path id="DejaVuSans-4d" d="M 628 4666 
L 1569 4666 
L 2759 1491 
L 3956 4666 
L 4897 4666 
L 4897 0 
L 4281 0 
L 4281 4097 
L 3078 897 
L 2444 897 
L 1241 4097 
L 1241 0 
L 628 0 
L 628 4666 
z
" transform="scale(0.015625)"/>
       <path id="DejaVuSans-6e" d="M 3513 2113 
L 3513 0 
L 2938 0 
L 2938 2094 
Q 2938 2591 2744 2837 
Q 2550 3084 2163 3084 
Q 1697 3084 1428 2787 
Q 1159 2491 1159 1978 
L 1159 0 
L 581 0 
L 581 3500 
L 1159 3500 
L 1159 2956 
Q 1366 3272 1645 3428 
Q 1925 3584 2291 3584 
Q 2894 3584 3203 3211 
Q 3513 2838 3513 2113 
z
" transform="scale(0.015625)"/>
       <path id="DejaVuSans-77" d="M 269 3500 
L 844 3500 
L 1563 769 
L 2278 3500 
L 2956 3500 
L 3675 769 
L 4391 3500 
L 4966 3500 
L 4050 0 
L 3372 0 
L 2619 2869 
L 1863 0 
L 1184 0 
L 269 3500 
z
" transform="scale(0.015625)"/>
       <path id="DejaVuSans-73" d="M 2834 3397 
L 2834 2853 
Q 2591 2978 2328 3040 
Q 2066 3103 1784 3103 
Q 1356 3103 1142 2972 
Q 928 2841 928 2578 
Q 928 2378 1081 2264 
Q 1234 2150 1697 2047 
L 1894 2003 
Q 2506 1872 2764 1633 
Q 3022 1394 3022 966 
Q 3022 478 2636 193 
Q 2250 -91 1575 -91 
Q 1294 -91 989 -36 
Q 684 19 347 128 
L 347 722 
Q 666 556 975 473 
Q 1284 391 1588 391 
Q 1994 391 2212 530 
Q 2431 669 2431 922 
Q 2431 1156 2273 1281 
Q 2116 1406 1581 1522 
L 1381 1569 
Q 847 1681 609 1914 
Q 372 2147 372 2553 
Q 372 3047 722 3315 
Q 1072 3584 1716 3584 
Q 2034 3584 2315 3537 
Q 2597 3491 2834 3397 
z
" transform="scale(0.015625)"/>
      </defs>
      <use xlink:href="#DejaVuSans-4d"/>
      <use xlink:href="#DejaVuSans-65" x="86.279297"/>
      <use xlink:href="#DejaVuSans-61" x="147.802734"/>
      <use xlink:href="#DejaVuSans-6e" x="209.082031"/>
      <use xlink:href="#DejaVuSans-20" x="272.460938"/>
      <use xlink:href="#DejaVuSans-72" x="304.248047"/>
      <use xlink:href="#DejaVuSans-65" x="343.111328"/>
      <use xlink:href="#DejaVuSans-77" x="404.634766"/>
      <use xlink:href="#DejaVuSans-61" x="486.421875"/>
      <use xlink:href="#DejaVuSans-72" x="547.701172"/>
      <use xlink:href="#DejaVuSans-64" x="587.064453"/>
      <use xlink:href="#DejaVuSans-73" x="650.541016"/>
     </g>
    </g>
   </g>
   <g id="line2d_16">
    <path d="M 128.1 314.886862 
L 128.1 85.073138 
" clip-path="url(#p6c4931dca6)" style="fill: none; stroke: #3d3d3d; stroke-width: 1.5; stroke-linecap: square"/>
   </g>
   <g id="line2d_17">
    <path d="M 128.1 290.153399 
L 128.1 188.283006 
" clip-path="url(#p6c4931dca6)" style="fill: none; stroke: #3d3d3d; stroke-width: 4.5; stroke-linecap: square"/>
   </g>
   <g id="line2d_18">
    <path d="M 258.3 315.13977 
L 258.3 162.762719 
" clip-path="url(#p6c4931dca6)" style="fill: none; stroke: #3d3d3d; stroke-width: 1.5; stroke-linecap: square"/>
   </g>
   <g id="line2d_19">
    <path d="M 258.3 302.250831 
L 258.3 245.974124 
" clip-path="url(#p6c4931dca6)" style="fill: none; stroke: #3d3d3d; stroke-width: 4.5; stroke-linecap: square"/>
   </g>
   <g id="line2d_20">
    <path d="M 388.5 315.167871 
L 388.5 300.297819 
" clip-path="url(#p6c4931dca6)" style="fill: none; stroke: #3d3d3d; stroke-width: 1.5; stroke-linecap: square"/>
   </g>
   <g id="line2d_21">
    <path d="M 388.5 314.840027 
L 388.5 309.016119 
" clip-path="url(#p6c4931dca6)" style="fill: none; stroke: #3d3d3d; stroke-width: 4.5; stroke-linecap: square"/>
   </g>
   <g id="patch_3">
    <path d="M 63 352.44 
L 63 47.52 
" style="fill: none; stroke: #000000; stroke-width: 0.8; stroke-linejoin: miter; stroke-linecap: square"/>
   </g>
   <g id="patch_4">
    <path d="M 453.6 352.44 
L 453.6 47.52 
" style="fill: none; stroke: #000000; stroke-width: 0.8; stroke-linejoin: miter; stroke-linecap: square"/>
   </g>
   <g id="patch_5">
    <path d="M 63 352.44 
L 453.6 352.44 
" style="fill: none; stroke: #000000; stroke-width: 0.8; stroke-linejoin: miter; stroke-linecap: square"/>
   </g>
   <g id="patch_6">
    <path d="M 63 47.52 
L 453.6 47.52 
" style="fill: none; stroke: #000000; stroke-width: 0.8; stroke-linejoin: miter; stroke-linecap: square"/>
   </g>
   <g id="PathCollection_1">
    <defs>
     <path id="mf8a474939f" d="M 0 1.5 
C 0.397805 1.5 0.77937 1.341951 1.06066 1.06066 
C 1.341951 0.77937 1.5 0.397805 1.5 0 
C 1.5 -0.397805 1.341951 -0.77937 1.06066 -1.06066 
C 0.77937 -1.341951 0.397805 -1.5 0 -1.5 
C -0.397805 -1.5 -0.77937 -1.341951 -1.06066 -1.06066 
C -1.341951 -0.77937 -1.5 -0.397805 -1.5 0 
C -1.5 0.397805 -1.341951 0.77937 -1.06066 1.06066 
C -0.77937 1.341951 -0.397805 1.5 0 1.5 
z
" style="stroke: #3d3d3d"/>
    </defs>
    <g clip-path="url(#p6c4931dca6)">
     <use xlink:href="#mf8a474939f" x="128.1" y="243.934468" style="fill: #ffffff; stroke: #3d3d3d"/>
    </g>
   </g>
   <g id="PathCollection_2">
    <g clip-path="url(#p6c4931dca6)">
     <use xlink:href="#mf8a474939f" x="258.3" y="279.505506" style="fill: #ffffff; stroke: #3d3d3d"/>
    </g>
   </g>
   <g id="PathCollection_3">
    <g clip-path="url(#p6c4931dca6)">
     <use xlink:href="#mf8a474939f" x="388.5" y="313.547386" style="fill: #ffffff; stroke: #3d3d3d"/>
    </g>
   </g>
   <g id="text_12">
    <!-- Cartpole - Actor-Critics -->
    <g transform="translate(190.459688 41.52) scale(0.12 -0.12)">
     <defs>
      <path id="DejaVuSans-2d" d="M 313 2009 
L 1997 2009 
L 1997 1497 
L 313 1497 
L 313 2009 
z
" transform="scale(0.015625)"/>
      <path id="DejaVuSans-63" d="M 3122 3366 
L 3122 2828 
Q 2878 2963 2633 3030 
Q 2388 3097 2138 3097 
Q 1578 3097 1268 2742 
Q 959 2388 959 1747 
Q 959 1106 1268 751 
Q 1578 397 2138 397 
Q 2388 397 2633 464 
Q 2878 531 3122 666 
L 3122 134 
Q 2881 22 2623 -34 
Q 2366 -91 2075 -91 
Q 1284 -91 818 406 
Q 353 903 353 1747 
Q 353 2603 823 3093 
Q 1294 3584 2113 3584 
Q 2378 3584 2631 3529 
Q 2884 3475 3122 3366 
z
" transform="scale(0.015625)"/>
     </defs>
     <use xlink:href="#DejaVuSans-43"/>
     <use xlink:href="#DejaVuSans-61" x="69.824219"/>
     <use xlink:href="#DejaVuSans-72" x="131.103516"/>
     <use xlink:href="#DejaVuSans-74" x="172.216797"/>
     <use xlink:href="#DejaVuSans-70" x="211.425781"/>
     <use xlink:href="#DejaVuSans-6f" x="274.902344"/>
     <use xlink:href="#DejaVuSans-6c" x="336.083984"/>
     <use xlink:href="#DejaVuSans-65" x="363.867188"/>
     <use xlink:href="#DejaVuSans-20" x="425.390625"/>
     <use xlink:href="#DejaVuSans-2d" x="457.177734"/>
     <use xlink:href="#DejaVuSans-20" x="493.261719"/>
     <use xlink:href="#DejaVuSans-41" x="525.048828"/>
     <use xlink:href="#DejaVuSans-63" x="591.707031"/>
     <use xlink:href="#DejaVuSans-74" x="646.6875"/>
     <use xlink:href="#DejaVuSans-6f" x="685.896484"/>
     <use xlink:href="#DejaVuSans-72" x="747.078125"/>
     <use xlink:href="#DejaVuSans-2d" x="781.816406"/>
     <use xlink:href="#DejaVuSans-43" x="817.900391"/>
     <use xlink:href="#DejaVuSans-72" x="887.724609"/>
     <use xlink:href="#DejaVuSans-69" x="928.837891"/>
     <use xlink:href="#DejaVuSans-74" x="956.621094"/>
     <use xlink:href="#DejaVuSans-69" x="995.830078"/>
     <use xlink:href="#DejaVuSans-63" x="1023.613281"/>
     <use xlink:href="#DejaVuSans-73" x="1078.59375"/>
    </g>
   </g>
  </g>
 </g>
 <defs>
  <clipPath id="p6c4931dca6">
   <rect x="63" y="47.52" width="390.6" height="304.92"/>
  </clipPath>
 </defs>
</svg>
