<?xml version="1.0" encoding="utf-8" standalone="no"?>
<!DOCTYPE svg PUBLIC "-//W3C//DTD SVG 1.1//EN"
  "http://www.w3.org/Graphics/SVG/1.1/DTD/svg11.dtd">
<svg xmlns:xlink="http://www.w3.org/1999/xlink" width="504pt" height="396pt" viewBox="0 0 504 396" xmlns="http://www.w3.org/2000/svg" version="1.1">
 <metadata>
  <rdf:RDF xmlns:dc="http://purl.org/dc/elements/1.1/" xmlns:cc="http://creativecommons.org/ns#" xmlns:rdf="http://www.w3.org/1999/02/22-rdf-syntax-ns#">
   <cc:Work>
    <dc:type rdf:resource="http://purl.org/dc/dcmitype/StillImage"/>
    <dc:date>2024-05-10T18:55:23.986094</dc:date>
    <dc:format>image/svg+xml</dc:format>
    <dc:creator>
     <cc:Agent>
      <dc:title>Matplotlib v3.8.2, https://matplotlib.org/</dc:title>
     </cc:Agent>
    </dc:creator>
   </cc:Work>
  </rdf:RDF>
 </metadata>
 <defs>
  <style type="text/css">*{stroke-linejoin: round; stroke-linecap: butt}</style>
 </defs>
 <g id="figure_1">
  <g id="patch_1">
   <path d="M 0 396 
L 504 396 
L 504 0 
L 0 0 
z
" style="fill: #ffffff"/>
  </g>
  <g id="axes_1">
   <g id="patch_2">
    <path d="M 63 352.44 
L 453.6 352.44 
L 453.6 47.52 
L 63 47.52 
z
" style="fill: #ffffff"/>
   </g>
   <g id="PolyCollection_1">
    <defs>
     <path id="m06900cefbc" d="M 128.153738 -57.42 
L 128.046262 -57.42 
L 128.023374 -60.22 
L 127.99388 -63.02 
L 127.957185 -65.82 
L 127.913098 -68.62 
L 127.861892 -71.42 
L 127.804271 -74.22 
L 127.741172 -77.02 
L 127.673413 -79.82 
L 127.601181 -82.62 
L 127.523444 -85.42 
L 127.437393 -88.22 
L 127.338076 -91.02 
L 127.218379 -93.82 
L 127.069498 -96.62 
L 126.881972 -99.42 
L 126.647238 -102.22 
L 126.359533 -105.02 
L 126.017874 -107.82 
L 125.627701 -110.62 
L 125.201816 -113.42 
L 124.760249 -116.22 
L 124.328903 -119.02 
L 123.937027 -121.82 
L 123.613816 -124.62 
L 123.384682 -127.42 
L 123.26782 -130.22 
L 123.271705 -133.02 
L 123.393968 -135.82 
L 123.621863 -138.62 
L 123.934195 -141.42 
L 124.30434 -144.22 
L 124.703773 -147.02 
L 125.105496 -149.82 
L 125.486837 -152.62 
L 125.831278 -155.42 
L 126.129166 -158.22 
L 126.377408 -161.02 
L 126.578379 -163.82 
L 126.738361 -166.62 
L 126.865836 -169.42 
L 126.969903 -172.22 
L 127.059004 -175.02 
L 127.140065 -177.82 
L 127.218044 -180.62 
L 127.29586 -183.42 
L 127.374604 -186.22 
L 127.453919 -189.02 
L 127.532483 -191.82 
L 127.608471 -194.62 
L 127.679962 -197.42 
L 127.745254 -200.22 
L 127.803054 -203.02 
L 127.852577 -205.82 
L 127.893548 -208.62 
L 127.926147 -211.42 
L 127.95092 -214.22 
L 127.968678 -217.02 
L 127.980395 -219.82 
L 127.98713 -222.62 
L 127.989956 -225.42 
L 127.989909 -228.22 
L 127.987948 -231.02 
L 127.984917 -233.82 
L 127.981511 -236.62 
L 127.978239 -239.42 
L 127.975389 -242.22 
L 127.972983 -245.02 
L 127.970735 -247.82 
L 127.968003 -250.62 
L 127.963738 -253.42 
L 127.956428 -256.22 
L 127.944069 -259.02 
L 127.924155 -261.82 
L 127.893743 -264.62 
L 127.849614 -267.42 
L 127.788564 -270.22 
L 127.707841 -273.02 
L 127.605701 -275.82 
L 127.482032 -278.62 
L 127.338933 -281.42 
L 127.181116 -284.22 
L 127.015988 -287.02 
L 126.85331 -289.82 
L 126.704396 -292.62 
L 126.580902 -295.42 
L 126.493394 -298.22 
L 126.449907 -301.02 
L 126.454786 -303.82 
L 126.508032 -306.62 
L 126.605287 -309.42 
L 126.738465 -312.22 
L 126.896912 -315.02 
L 127.068841 -317.82 
L 127.242797 -320.62 
L 127.40889 -323.42 
L 127.559622 -326.22 
L 127.69025 -329.02 
L 127.798701 -331.82 
L 127.885155 -334.62 
L 128.314845 -334.62 
L 128.314845 -334.62 
L 128.401299 -331.82 
L 128.50975 -329.02 
L 128.640378 -326.22 
L 128.79111 -323.42 
L 128.957203 -320.62 
L 129.131159 -317.82 
L 129.303088 -315.02 
L 129.461535 -312.22 
L 129.594713 -309.42 
L 129.691968 -306.62 
L 129.745214 -303.82 
L 129.750093 -301.02 
L 129.706606 -298.22 
L 129.619098 -295.42 
L 129.495604 -292.62 
L 129.34669 -289.82 
L 129.184012 -287.02 
L 129.018884 -284.22 
L 128.861067 -281.42 
L 128.717968 -278.62 
L 128.594299 -275.82 
L 128.492159 -273.02 
L 128.411436 -270.22 
L 128.350386 -267.42 
L 128.306257 -264.62 
L 128.275845 -261.82 
L 128.255931 -259.02 
L 128.243572 -256.22 
L 128.236262 -253.42 
L 128.231997 -250.62 
L 128.229265 -247.82 
L 128.227017 -245.02 
L 128.224611 -242.22 
L 128.221761 -239.42 
L 128.218489 -236.62 
L 128.215083 -233.82 
L 128.212052 -231.02 
L 128.210091 -228.22 
L 128.210044 -225.42 
L 128.21287 -222.62 
L 128.219605 -219.82 
L 128.231322 -217.02 
L 128.24908 -214.22 
L 128.273853 -211.42 
L 128.306452 -208.62 
L 128.347423 -205.82 
L 128.396946 -203.02 
L 128.454746 -200.22 
L 128.520038 -197.42 
L 128.591529 -194.62 
L 128.667517 -191.82 
L 128.746081 -189.02 
L 128.825396 -186.22 
L 128.90414 -183.42 
L 128.981956 -180.62 
L 129.059935 -177.82 
L 129.140996 -175.02 
L 129.230097 -172.22 
L 129.334164 -169.42 
L 129.461639 -166.62 
L 129.621621 -163.82 
L 129.822592 -161.02 
L 130.070834 -158.22 
L 130.368722 -155.42 
L 130.713163 -152.62 
L 131.094504 -149.82 
L 131.496227 -147.02 
L 131.89566 -144.22 
L 132.265805 -141.42 
L 132.578137 -138.62 
L 132.806032 -135.82 
L 132.928295 -133.02 
L 132.93218 -130.22 
L 132.815318 -127.42 
L 132.586184 -124.62 
L 132.262973 -121.82 
L 131.871097 -119.02 
L 131.439751 -116.22 
L 130.998184 -113.42 
L 130.572299 -110.62 
L 130.182126 -107.82 
L 129.840467 -105.02 
L 129.552762 -102.22 
L 129.318028 -99.42 
L 129.130502 -96.62 
L 128.981621 -93.82 
L 128.861924 -91.02 
L 128.762607 -88.22 
L 128.676556 -85.42 
L 128.598819 -82.62 
L 128.526587 -79.82 
L 128.458828 -77.02 
L 128.395729 -74.22 
L 128.338108 -71.42 
L 128.286902 -68.62 
L 128.242815 -65.82 
L 128.20612 -63.02 
L 128.176626 -60.22 
L 128.153738 -57.42 
z
" style="stroke: #3d3d3d; stroke-width: 1.5"/>
    </defs>
    <g clip-path="url(#pf45a008cf6)">
     <use xlink:href="#m06900cefbc" x="0" y="396" style="fill: #3274a1; stroke: #3d3d3d; stroke-width: 1.5"/>
    </g>
   </g>
   <g id="PolyCollection_2">
    <defs>
     <path id="m4a20332fe4" d="M 258.307383 -123.196151 
L 258.292617 -123.196151 
L 258.274783 -125.059727 
L 258.251491 -126.923304 
L 258.247447 -128.78688 
L 258.267936 -130.650457 
L 258.288982 -132.514033 
L 258.297867 -134.37761 
L 258.299736 -136.241186 
L 258.299539 -138.104763 
L 258.296485 -139.968339 
L 258.284446 -141.831916 
L 258.261232 -143.695492 
L 258.245578 -145.559069 
L 258.256975 -147.422645 
L 258.280844 -149.286222 
L 258.295197 -151.149798 
L 258.299322 -153.013375 
L 258.299946 -154.876951 
L 258.299998 -156.740528 
L 258.3 -158.604104 
L 258.3 -160.467681 
L 258.3 -162.331257 
L 258.3 -164.194834 
L 258.3 -166.05841 
L 258.3 -167.921987 
L 258.3 -169.785563 
L 258.3 -171.64914 
L 258.3 -173.512716 
L 258.3 -175.376293 
L 258.3 -177.239869 
L 258.299989 -179.103446 
L 258.299816 -180.967022 
L 258.29822 -182.830599 
L 258.2903 -184.694175 
L 258.270236 -186.557751 
L 258.248566 -188.421328 
L 258.249944 -190.284904 
L 258.272565 -192.148481 
L 258.291531 -194.012057 
L 258.298522 -195.875634 
L 258.299742 -197.73921 
L 258.29873 -199.602787 
L 258.291891 -201.466363 
L 258.269407 -203.32994 
L 258.230472 -205.193516 
L 258.202249 -207.057093 
L 258.213671 -208.920669 
L 258.252392 -210.784246 
L 258.283981 -212.647822 
L 258.296799 -214.511399 
L 258.299628 -216.374975 
L 258.299975 -218.238552 
L 258.299981 -220.102128 
L 258.299723 -221.965705 
L 258.297561 -223.829281 
L 258.287895 -225.692858 
L 258.266165 -227.556434 
L 258.246666 -229.420011 
L 258.251829 -231.283587 
L 258.270186 -233.147164 
L 258.270665 -235.01074 
L 258.252478 -236.874317 
L 258.246347 -238.737893 
L 258.265233 -240.60147 
L 258.287293 -242.465046 
L 258.297384 -244.328623 
L 258.299697 -246.192199 
L 258.29998 -248.055776 
L 258.299999 -249.919352 
L 258.3 -251.782929 
L 258.3 -253.646505 
L 258.3 -255.510082 
L 258.3 -257.373658 
L 258.3 -259.237234 
L 258.3 -261.100811 
L 258.3 -262.964387 
L 258.3 -264.827964 
L 258.299989 -266.69154 
L 258.299808 -268.555117 
L 258.298159 -270.418693 
L 258.290067 -272.28227 
L 258.269816 -274.145846 
L 258.248344 -276.009423 
L 258.250213 -277.872999 
L 258.272975 -279.736576 
L 258.291739 -281.600152 
L 258.298572 -283.463729 
L 258.299759 -285.327305 
L 258.298862 -287.190882 
L 258.292993 -289.054458 
L 258.275124 -290.918035 
L 258.237996 -292.781611 
L 258.016809 -294.645188 
L 256.154154 -296.508764 
L 247.369985 -298.372341 
L 226.522289 -300.235917 
L 206.22 -302.099494 
L 210.227804 -303.96307 
L 233.309997 -305.826647 
L 250.983787 -307.690223 
L 265.616213 -307.690223 
L 265.616213 -307.690223 
L 283.290003 -305.826647 
L 306.372196 -303.96307 
L 310.38 -302.099494 
L 290.077711 -300.235917 
L 269.230015 -298.372341 
L 260.445846 -296.508764 
L 258.583191 -294.645188 
L 258.362004 -292.781611 
L 258.324876 -290.918035 
L 258.307007 -289.054458 
L 258.301138 -287.190882 
L 258.300241 -285.327305 
L 258.301428 -283.463729 
L 258.308261 -281.600152 
L 258.327025 -279.736576 
L 258.349787 -277.872999 
L 258.351656 -276.009423 
L 258.330184 -274.145846 
L 258.309933 -272.28227 
L 258.301841 -270.418693 
L 258.300192 -268.555117 
L 258.300011 -266.69154 
L 258.3 -264.827964 
L 258.3 -262.964387 
L 258.3 -261.100811 
L 258.3 -259.237234 
L 258.3 -257.373658 
L 258.3 -255.510082 
L 258.3 -253.646505 
L 258.3 -251.782929 
L 258.300001 -249.919352 
L 258.30002 -248.055776 
L 258.300303 -246.192199 
L 258.302616 -244.328623 
L 258.312707 -242.465046 
L 258.334767 -240.60147 
L 258.353653 -238.737893 
L 258.347522 -236.874317 
L 258.329335 -235.01074 
L 258.329814 -233.147164 
L 258.348171 -231.283587 
L 258.353334 -229.420011 
L 258.333835 -227.556434 
L 258.312105 -225.692858 
L 258.302439 -223.829281 
L 258.300277 -221.965705 
L 258.300019 -220.102128 
L 258.300025 -218.238552 
L 258.300372 -216.374975 
L 258.303201 -214.511399 
L 258.316019 -212.647822 
L 258.347608 -210.784246 
L 258.386329 -208.920669 
L 258.397751 -207.057093 
L 258.369528 -205.193516 
L 258.330593 -203.32994 
L 258.308109 -201.466363 
L 258.30127 -199.602787 
L 258.300258 -197.73921 
L 258.301478 -195.875634 
L 258.308469 -194.012057 
L 258.327435 -192.148481 
L 258.350056 -190.284904 
L 258.351434 -188.421328 
L 258.329764 -186.557751 
L 258.3097 -184.694175 
L 258.30178 -182.830599 
L 258.300184 -180.967022 
L 258.300011 -179.103446 
L 258.3 -177.239869 
L 258.3 -175.376293 
L 258.3 -173.512716 
L 258.3 -171.64914 
L 258.3 -169.785563 
L 258.3 -167.921987 
L 258.3 -166.05841 
L 258.3 -164.194834 
L 258.3 -162.331257 
L 258.3 -160.467681 
L 258.3 -158.604104 
L 258.300002 -156.740528 
L 258.300054 -154.876951 
L 258.300678 -153.013375 
L 258.304803 -151.149798 
L 258.319156 -149.286222 
L 258.343025 -147.422645 
L 258.354422 -145.559069 
L 258.338768 -143.695492 
L 258.315554 -141.831916 
L 258.303515 -139.968339 
L 258.300461 -138.104763 
L 258.300264 -136.241186 
L 258.302133 -134.37761 
L 258.311018 -132.514033 
L 258.332064 -130.650457 
L 258.352553 -128.78688 
L 258.348509 -126.923304 
L 258.325217 -125.059727 
L 258.307383 -123.196151 
z
" style="stroke: #3d3d3d; stroke-width: 1.5"/>
    </defs>
    <g clip-path="url(#pf45a008cf6)">
     <use xlink:href="#m4a20332fe4" x="0" y="396" style="fill: #e1812c; stroke: #3d3d3d; stroke-width: 1.5"/>
    </g>
   </g>
   <g id="PolyCollection_3">
    <defs>
     <path id="m43b8865be9" d="M 389.986186 -77.59518 
L 387.013814 -77.59518 
L 385.182668 -79.985008 
L 382.240002 -82.374835 
L 378.485947 -84.764663 
L 374.863455 -87.15449 
L 372.588882 -89.544318 
L 372.425198 -91.934145 
L 374.201567 -94.323973 
L 377.012339 -96.7138 
L 379.863977 -99.103628 
L 382.177473 -101.493455 
L 383.845367 -103.883283 
L 385.006885 -106.273111 
L 385.83158 -108.662938 
L 386.433541 -111.052766 
L 386.876131 -113.442593 
L 387.197867 -115.832421 
L 387.42857 -118.222248 
L 387.594414 -120.612076 
L 387.717267 -123.001903 
L 387.812407 -125.391731 
L 387.887618 -127.781558 
L 387.945295 -130.171386 
L 387.986634 -132.561213 
L 388.014873 -134.951041 
L 388.035267 -137.340869 
L 388.052466 -139.730696 
L 388.068466 -142.120524 
L 388.083293 -144.510351 
L 388.097328 -146.900179 
L 388.112445 -149.290006 
L 388.130843 -151.679834 
L 388.153099 -154.069661 
L 388.177549 -156.459489 
L 388.201544 -158.849316 
L 388.223478 -161.239144 
L 388.243868 -163.628972 
L 388.264404 -166.018799 
L 388.285603 -168.408627 
L 388.305442 -170.798454 
L 388.320614 -173.188282 
L 388.329215 -175.578109 
L 388.331972 -177.967937 
L 388.331097 -180.357764 
L 388.32857 -182.747592 
L 388.325715 -185.137419 
L 388.323766 -187.527247 
L 388.323942 -189.917075 
L 388.326719 -192.306902 
L 388.331418 -194.69673 
L 388.336939 -197.086557 
L 388.342915 -199.476385 
L 388.349963 -201.866212 
L 388.358735 -204.25604 
L 388.36876 -206.645867 
L 388.37823 -209.035695 
L 388.385127 -211.425522 
L 388.38898 -213.81535 
L 388.391687 -216.205177 
L 388.396266 -218.595005 
L 388.404339 -220.984833 
L 388.414689 -223.37466 
L 388.424272 -225.764488 
L 388.430595 -228.154315 
L 388.433176 -230.544143 
L 388.43308 -232.93397 
L 388.431501 -235.323798 
L 388.428874 -237.713625 
L 388.425143 -240.103453 
L 388.420622 -242.49328 
L 388.4164 -244.883108 
L 388.413892 -247.272936 
L 388.41413 -249.662763 
L 388.417524 -252.052591 
L 388.423855 -254.442418 
L 388.431945 -256.832246 
L 388.439434 -259.222073 
L 388.443638 -261.611901 
L 388.443246 -264.001728 
L 388.439345 -266.391556 
L 388.434763 -268.781383 
L 388.432307 -271.171211 
L 388.433225 -273.561039 
L 388.436742 -275.950866 
L 388.44068 -278.340694 
L 388.442678 -280.730521 
L 388.441396 -283.120349 
L 388.43701 -285.510176 
L 388.430537 -287.900004 
L 388.422381 -290.289831 
L 388.411649 -292.679659 
L 388.397627 -295.069486 
L 388.382627 -297.459314 
L 388.372986 -299.849141 
L 388.375808 -302.238969 
L 388.3935 -304.628797 
L 388.421301 -307.018624 
L 388.450378 -309.408452 
L 388.473452 -311.798279 
L 388.487987 -314.188107 
L 388.512013 -314.188107 
L 388.512013 -314.188107 
L 388.526548 -311.798279 
L 388.549622 -309.408452 
L 388.578699 -307.018624 
L 388.6065 -304.628797 
L 388.624192 -302.238969 
L 388.627014 -299.849141 
L 388.617373 -297.459314 
L 388.602373 -295.069486 
L 388.588351 -292.679659 
L 388.577619 -290.289831 
L 388.569463 -287.900004 
L 388.56299 -285.510176 
L 388.558604 -283.120349 
L 388.557322 -280.730521 
L 388.55932 -278.340694 
L 388.563258 -275.950866 
L 388.566775 -273.561039 
L 388.567693 -271.171211 
L 388.565237 -268.781383 
L 388.560655 -266.391556 
L 388.556754 -264.001728 
L 388.556362 -261.611901 
L 388.560566 -259.222073 
L 388.568055 -256.832246 
L 388.576145 -254.442418 
L 388.582476 -252.052591 
L 388.58587 -249.662763 
L 388.586108 -247.272936 
L 388.5836 -244.883108 
L 388.579378 -242.49328 
L 388.574857 -240.103453 
L 388.571126 -237.713625 
L 388.568499 -235.323798 
L 388.56692 -232.93397 
L 388.566824 -230.544143 
L 388.569405 -228.154315 
L 388.575728 -225.764488 
L 388.585311 -223.37466 
L 388.595661 -220.984833 
L 388.603734 -218.595005 
L 388.608313 -216.205177 
L 388.61102 -213.81535 
L 388.614873 -211.425522 
L 388.62177 -209.035695 
L 388.63124 -206.645867 
L 388.641265 -204.25604 
L 388.650037 -201.866212 
L 388.657085 -199.476385 
L 388.663061 -197.086557 
L 388.668582 -194.69673 
L 388.673281 -192.306902 
L 388.676058 -189.917075 
L 388.676234 -187.527247 
L 388.674285 -185.137419 
L 388.67143 -182.747592 
L 388.668903 -180.357764 
L 388.668028 -177.967937 
L 388.670785 -175.578109 
L 388.679386 -173.188282 
L 388.694558 -170.798454 
L 388.714397 -168.408627 
L 388.735596 -166.018799 
L 388.756132 -163.628972 
L 388.776522 -161.239144 
L 388.798456 -158.849316 
L 388.822451 -156.459489 
L 388.846901 -154.069661 
L 388.869157 -151.679834 
L 388.887555 -149.290006 
L 388.902672 -146.900179 
L 388.916707 -144.510351 
L 388.931534 -142.120524 
L 388.947534 -139.730696 
L 388.964733 -137.340869 
L 388.985127 -134.951041 
L 389.013366 -132.561213 
L 389.054705 -130.171386 
L 389.112382 -127.781558 
L 389.187593 -125.391731 
L 389.282733 -123.001903 
L 389.405586 -120.612076 
L 389.57143 -118.222248 
L 389.802133 -115.832421 
L 390.123869 -113.442593 
L 390.566459 -111.052766 
L 391.16842 -108.662938 
L 391.993115 -106.273111 
L 393.154633 -103.883283 
L 394.822527 -101.493455 
L 397.136023 -99.103628 
L 399.987661 -96.7138 
L 402.798433 -94.323973 
L 404.574802 -91.934145 
L 404.411118 -89.544318 
L 402.136545 -87.15449 
L 398.514053 -84.764663 
L 394.759998 -82.374835 
L 391.817332 -79.985008 
L 389.986186 -77.59518 
z
" style="stroke: #3d3d3d; stroke-width: 1.5"/>
    </defs>
    <g clip-path="url(#pf45a008cf6)">
     <use xlink:href="#m43b8865be9" x="0" y="396" style="fill: #3a923a; stroke: #3d3d3d; stroke-width: 1.5"/>
    </g>
   </g>
   <g id="matplotlib.axis_1">
    <g id="xtick_1">
     <g id="line2d_1">
      <defs>
       <path id="m96605108ac" d="M 0 0 
L 0 3.5 
" style="stroke: #000000; stroke-width: 0.8"/>
      </defs>
      <g>
       <use xlink:href="#m96605108ac" x="128.1" y="352.44" style="stroke: #000000; stroke-width: 0.8"/>
      </g>
     </g>
     <g id="text_1">
      <!-- DQN -->
      <g transform="translate(116.573437 367.038437) scale(0.1 -0.1)">
       <defs>
        <path id="DejaVuSans-44" d="M 1259 4147 
L 1259 519 
L 2022 519 
Q 2988 519 3436 956 
Q 3884 1394 3884 2338 
Q 3884 3275 3436 3711 
Q 2988 4147 2022 4147 
L 1259 4147 
z
M 628 4666 
L 1925 4666 
Q 3281 4666 3915 4102 
Q 4550 3538 4550 2338 
Q 4550 1131 3912 565 
Q 3275 0 1925 0 
L 628 0 
L 628 4666 
z
" transform="scale(0.015625)"/>
        <path id="DejaVuSans-51" d="M 2522 4238 
Q 1834 4238 1429 3725 
Q 1025 3213 1025 2328 
Q 1025 1447 1429 934 
Q 1834 422 2522 422 
Q 3209 422 3611 934 
Q 4013 1447 4013 2328 
Q 4013 3213 3611 3725 
Q 3209 4238 2522 4238 
z
M 3406 84 
L 4238 -825 
L 3475 -825 
L 2784 -78 
Q 2681 -84 2626 -87 
Q 2572 -91 2522 -91 
Q 1538 -91 948 567 
Q 359 1225 359 2328 
Q 359 3434 948 4092 
Q 1538 4750 2522 4750 
Q 3503 4750 4090 4092 
Q 4678 3434 4678 2328 
Q 4678 1516 4351 937 
Q 4025 359 3406 84 
z
" transform="scale(0.015625)"/>
        <path id="DejaVuSans-4e" d="M 628 4666 
L 1478 4666 
L 3547 763 
L 3547 4666 
L 4159 4666 
L 4159 0 
L 3309 0 
L 1241 3903 
L 1241 0 
L 628 0 
L 628 4666 
z
" transform="scale(0.015625)"/>
       </defs>
       <use xlink:href="#DejaVuSans-44"/>
       <use xlink:href="#DejaVuSans-51" x="77.001953"/>
       <use xlink:href="#DejaVuSans-4e" x="155.712891"/>
      </g>
     </g>
    </g>
    <g id="xtick_2">
     <g id="line2d_2">
      <g>
       <use xlink:href="#m96605108ac" x="258.3" y="352.44" style="stroke: #000000; stroke-width: 0.8"/>
      </g>
     </g>
     <g id="text_2">
      <!-- PPO -->
      <g transform="translate(248.334375 367.038437) scale(0.1 -0.1)">
       <defs>
        <path id="DejaVuSans-50" d="M 1259 4147 
L 1259 2394 
L 2053 2394 
Q 2494 2394 2734 2622 
Q 2975 2850 2975 3272 
Q 2975 3691 2734 3919 
Q 2494 4147 2053 4147 
L 1259 4147 
z
M 628 4666 
L 2053 4666 
Q 2838 4666 3239 4311 
Q 3641 3956 3641 3272 
Q 3641 2581 3239 2228 
Q 2838 1875 2053 1875 
L 1259 1875 
L 1259 0 
L 628 0 
L 628 4666 
z
" transform="scale(0.015625)"/>
        <path id="DejaVuSans-4f" d="M 2522 4238 
Q 1834 4238 1429 3725 
Q 1025 3213 1025 2328 
Q 1025 1447 1429 934 
Q 1834 422 2522 422 
Q 3209 422 3611 934 
Q 4013 1447 4013 2328 
Q 4013 3213 3611 3725 
Q 3209 4238 2522 4238 
z
M 2522 4750 
Q 3503 4750 4090 4092 
Q 4678 3434 4678 2328 
Q 4678 1225 4090 567 
Q 3503 -91 2522 -91 
Q 1538 -91 948 565 
Q 359 1222 359 2328 
Q 359 3434 948 4092 
Q 1538 4750 2522 4750 
z
" transform="scale(0.015625)"/>
       </defs>
       <use xlink:href="#DejaVuSans-50"/>
       <use xlink:href="#DejaVuSans-50" x="60.302734"/>
       <use xlink:href="#DejaVuSans-4f" x="120.605469"/>
      </g>
     </g>
    </g>
    <g id="xtick_3">
     <g id="line2d_3">
      <g>
       <use xlink:href="#m96605108ac" x="388.5" y="352.44" style="stroke: #000000; stroke-width: 0.8"/>
      </g>
     </g>
     <g id="text_3">
      <!-- TAC random -->
      <g transform="translate(358.028125 367.038437) scale(0.1 -0.1)">
       <defs>
        <path id="DejaVuSans-54" d="M -19 4666 
L 3928 4666 
L 3928 4134 
L 2272 4134 
L 2272 0 
L 1638 0 
L 1638 4134 
L -19 4134 
L -19 4666 
z
" transform="scale(0.015625)"/>
        <path id="DejaVuSans-41" d="M 2188 4044 
L 1331 1722 
L 3047 1722 
L 2188 4044 
z
M 1831 4666 
L 2547 4666 
L 4325 0 
L 3669 0 
L 3244 1197 
L 1141 1197 
L 716 0 
L 50 0 
L 1831 4666 
z
" transform="scale(0.015625)"/>
        <path id="DejaVuSans-43" d="M 4122 4306 
L 4122 3641 
Q 3803 3938 3442 4084 
Q 3081 4231 2675 4231 
Q 1875 4231 1450 3742 
Q 1025 3253 1025 2328 
Q 1025 1406 1450 917 
Q 1875 428 2675 428 
Q 3081 428 3442 575 
Q 3803 722 4122 1019 
L 4122 359 
Q 3791 134 3420 21 
Q 3050 -91 2638 -91 
Q 1578 -91 968 557 
Q 359 1206 359 2328 
Q 359 3453 968 4101 
Q 1578 4750 2638 4750 
Q 3056 4750 3426 4639 
Q 3797 4528 4122 4306 
z
" transform="scale(0.015625)"/>
        <path id="DejaVuSans-20" transform="scale(0.015625)"/>
        <path id="DejaVuSans-72" d="M 2631 2963 
Q 2534 3019 2420 3045 
Q 2306 3072 2169 3072 
Q 1681 3072 1420 2755 
Q 1159 2438 1159 1844 
L 1159 0 
L 581 0 
L 581 3500 
L 1159 3500 
L 1159 2956 
Q 1341 3275 1631 3429 
Q 1922 3584 2338 3584 
Q 2397 3584 2469 3576 
Q 2541 3569 2628 3553 
L 2631 2963 
z
" transform="scale(0.015625)"/>
        <path id="DejaVuSans-61" d="M 2194 1759 
Q 1497 1759 1228 1600 
Q 959 1441 959 1056 
Q 959 750 1161 570 
Q 1363 391 1709 391 
Q 2188 391 2477 730 
Q 2766 1069 2766 1631 
L 2766 1759 
L 2194 1759 
z
M 3341 1997 
L 3341 0 
L 2766 0 
L 2766 531 
Q 2569 213 2275 61 
Q 1981 -91 1556 -91 
Q 1019 -91 701 211 
Q 384 513 384 1019 
Q 384 1609 779 1909 
Q 1175 2209 1959 2209 
L 2766 2209 
L 2766 2266 
Q 2766 2663 2505 2880 
Q 2244 3097 1772 3097 
Q 1472 3097 1187 3025 
Q 903 2953 641 2809 
L 641 3341 
Q 956 3463 1253 3523 
Q 1550 3584 1831 3584 
Q 2591 3584 2966 3190 
Q 3341 2797 3341 1997 
z
" transform="scale(0.015625)"/>
        <path id="DejaVuSans-6e" d="M 3513 2113 
L 3513 0 
L 2938 0 
L 2938 2094 
Q 2938 2591 2744 2837 
Q 2550 3084 2163 3084 
Q 1697 3084 1428 2787 
Q 1159 2491 1159 1978 
L 1159 0 
L 581 0 
L 581 3500 
L 1159 3500 
L 1159 2956 
Q 1366 3272 1645 3428 
Q 1925 3584 2291 3584 
Q 2894 3584 3203 3211 
Q 3513 2838 3513 2113 
z
" transform="scale(0.015625)"/>
        <path id="DejaVuSans-64" d="M 2906 2969 
L 2906 4863 
L 3481 4863 
L 3481 0 
L 2906 0 
L 2906 525 
Q 2725 213 2448 61 
Q 2172 -91 1784 -91 
Q 1150 -91 751 415 
Q 353 922 353 1747 
Q 353 2572 751 3078 
Q 1150 3584 1784 3584 
Q 2172 3584 2448 3432 
Q 2725 3281 2906 2969 
z
M 947 1747 
Q 947 1113 1208 752 
Q 1469 391 1925 391 
Q 2381 391 2643 752 
Q 2906 1113 2906 1747 
Q 2906 2381 2643 2742 
Q 2381 3103 1925 3103 
Q 1469 3103 1208 2742 
Q 947 2381 947 1747 
z
" transform="scale(0.015625)"/>
        <path id="DejaVuSans-6f" d="M 1959 3097 
Q 1497 3097 1228 2736 
Q 959 2375 959 1747 
Q 959 1119 1226 758 
Q 1494 397 1959 397 
Q 2419 397 2687 759 
Q 2956 1122 2956 1747 
Q 2956 2369 2687 2733 
Q 2419 3097 1959 3097 
z
M 1959 3584 
Q 2709 3584 3137 3096 
Q 3566 2609 3566 1747 
Q 3566 888 3137 398 
Q 2709 -91 1959 -91 
Q 1206 -91 779 398 
Q 353 888 353 1747 
Q 353 2609 779 3096 
Q 1206 3584 1959 3584 
z
" transform="scale(0.015625)"/>
        <path id="DejaVuSans-6d" d="M 3328 2828 
Q 3544 3216 3844 3400 
Q 4144 3584 4550 3584 
Q 5097 3584 5394 3201 
Q 5691 2819 5691 2113 
L 5691 0 
L 5113 0 
L 5113 2094 
Q 5113 2597 4934 2840 
Q 4756 3084 4391 3084 
Q 3944 3084 3684 2787 
Q 3425 2491 3425 1978 
L 3425 0 
L 2847 0 
L 2847 2094 
Q 2847 2600 2669 2842 
Q 2491 3084 2119 3084 
Q 1678 3084 1418 2786 
Q 1159 2488 1159 1978 
L 1159 0 
L 581 0 
L 581 3500 
L 1159 3500 
L 1159 2956 
Q 1356 3278 1631 3431 
Q 1906 3584 2284 3584 
Q 2666 3584 2933 3390 
Q 3200 3197 3328 2828 
z
" transform="scale(0.015625)"/>
       </defs>
       <use xlink:href="#DejaVuSans-54"/>
       <use xlink:href="#DejaVuSans-41" x="53.333984"/>
       <use xlink:href="#DejaVuSans-43" x="119.992188"/>
       <use xlink:href="#DejaVuSans-20" x="189.816406"/>
       <use xlink:href="#DejaVuSans-72" x="221.603516"/>
       <use xlink:href="#DejaVuSans-61" x="262.716797"/>
       <use xlink:href="#DejaVuSans-6e" x="323.996094"/>
       <use xlink:href="#DejaVuSans-64" x="387.375"/>
       <use xlink:href="#DejaVuSans-6f" x="450.851562"/>
       <use xlink:href="#DejaVuSans-6d" x="512.033203"/>
      </g>
     </g>
    </g>
    <g id="text_4">
     <!-- Algorithm -->
     <g transform="translate(233.813281 380.716563) scale(0.1 -0.1)">
      <defs>
       <path id="DejaVuSans-6c" d="M 603 4863 
L 1178 4863 
L 1178 0 
L 603 0 
L 603 4863 
z
" transform="scale(0.015625)"/>
       <path id="DejaVuSans-67" d="M 2906 1791 
Q 2906 2416 2648 2759 
Q 2391 3103 1925 3103 
Q 1463 3103 1205 2759 
Q 947 2416 947 1791 
Q 947 1169 1205 825 
Q 1463 481 1925 481 
Q 2391 481 2648 825 
Q 2906 1169 2906 1791 
z
M 3481 434 
Q 3481 -459 3084 -895 
Q 2688 -1331 1869 -1331 
Q 1566 -1331 1297 -1286 
Q 1028 -1241 775 -1147 
L 775 -588 
Q 1028 -725 1275 -790 
Q 1522 -856 1778 -856 
Q 2344 -856 2625 -561 
Q 2906 -266 2906 331 
L 2906 616 
Q 2728 306 2450 153 
Q 2172 0 1784 0 
Q 1141 0 747 490 
Q 353 981 353 1791 
Q 353 2603 747 3093 
Q 1141 3584 1784 3584 
Q 2172 3584 2450 3431 
Q 2728 3278 2906 2969 
L 2906 3500 
L 3481 3500 
L 3481 434 
z
" transform="scale(0.015625)"/>
       <path id="DejaVuSans-69" d="M 603 3500 
L 1178 3500 
L 1178 0 
L 603 0 
L 603 3500 
z
M 603 4863 
L 1178 4863 
L 1178 4134 
L 603 4134 
L 603 4863 
z
" transform="scale(0.015625)"/>
       <path id="DejaVuSans-74" d="M 1172 4494 
L 1172 3500 
L 2356 3500 
L 2356 3053 
L 1172 3053 
L 1172 1153 
Q 1172 725 1289 603 
Q 1406 481 1766 481 
L 2356 481 
L 2356 0 
L 1766 0 
Q 1100 0 847 248 
Q 594 497 594 1153 
L 594 3053 
L 172 3053 
L 172 3500 
L 594 3500 
L 594 4494 
L 1172 4494 
z
" transform="scale(0.015625)"/>
       <path id="DejaVuSans-68" d="M 3513 2113 
L 3513 0 
L 2938 0 
L 2938 2094 
Q 2938 2591 2744 2837 
Q 2550 3084 2163 3084 
Q 1697 3084 1428 2787 
Q 1159 2491 1159 1978 
L 1159 0 
L 581 0 
L 581 4863 
L 1159 4863 
L 1159 2956 
Q 1366 3272 1645 3428 
Q 1925 3584 2291 3584 
Q 2894 3584 3203 3211 
Q 3513 2838 3513 2113 
z
" transform="scale(0.015625)"/>
      </defs>
      <use xlink:href="#DejaVuSans-41"/>
      <use xlink:href="#DejaVuSans-6c" x="68.408203"/>
      <use xlink:href="#DejaVuSans-67" x="96.191406"/>
      <use xlink:href="#DejaVuSans-6f" x="159.667969"/>
      <use xlink:href="#DejaVuSans-72" x="220.849609"/>
      <use xlink:href="#DejaVuSans-69" x="261.962891"/>
      <use xlink:href="#DejaVuSans-74" x="289.746094"/>
      <use xlink:href="#DejaVuSans-68" x="328.955078"/>
      <use xlink:href="#DejaVuSans-6d" x="392.333984"/>
     </g>
    </g>
   </g>
   <g id="matplotlib.axis_2">
    <g id="ytick_1">
     <g id="line2d_4">
      <path d="M 63 310.782233 
L 453.6 310.782233 
" clip-path="url(#pf45a008cf6)" style="fill: none; stroke-dasharray: 2.96,1.28; stroke-dashoffset: 0; stroke: #b0b0b0; stroke-width: 0.8"/>
     </g>
     <g id="line2d_5">
      <defs>
       <path id="mc95f98d44b" d="M 0 0 
L -3.5 0 
" style="stroke: #000000; stroke-width: 0.8"/>
      </defs>
      <g>
       <use xlink:href="#mc95f98d44b" x="63" y="310.782233" style="stroke: #000000; stroke-width: 0.8"/>
      </g>
     </g>
     <g id="text_5">
      <!-- 0 -->
      <g transform="translate(49.6375 314.581452) scale(0.1 -0.1)">
       <defs>
        <path id="DejaVuSans-30" d="M 2034 4250 
Q 1547 4250 1301 3770 
Q 1056 3291 1056 2328 
Q 1056 1369 1301 889 
Q 1547 409 2034 409 
Q 2525 409 2770 889 
Q 3016 1369 3016 2328 
Q 3016 3291 2770 3770 
Q 2525 4250 2034 4250 
z
M 2034 4750 
Q 2819 4750 3233 4129 
Q 3647 3509 3647 2328 
Q 3647 1150 3233 529 
Q 2819 -91 2034 -91 
Q 1250 -91 836 529 
Q 422 1150 422 2328 
Q 422 3509 836 4129 
Q 1250 4750 2034 4750 
z
" transform="scale(0.015625)"/>
       </defs>
       <use xlink:href="#DejaVuSans-30"/>
      </g>
     </g>
    </g>
    <g id="ytick_2">
     <g id="line2d_6">
      <path d="M 63 267.27151 
L 453.6 267.27151 
" clip-path="url(#pf45a008cf6)" style="fill: none; stroke-dasharray: 2.96,1.28; stroke-dashoffset: 0; stroke: #b0b0b0; stroke-width: 0.8"/>
     </g>
     <g id="line2d_7">
      <g>
       <use xlink:href="#mc95f98d44b" x="63" y="267.27151" style="stroke: #000000; stroke-width: 0.8"/>
      </g>
     </g>
     <g id="text_6">
      <!-- 100 -->
      <g transform="translate(36.9125 271.070728) scale(0.1 -0.1)">
       <defs>
        <path id="DejaVuSans-31" d="M 794 531 
L 1825 531 
L 1825 4091 
L 703 3866 
L 703 4441 
L 1819 4666 
L 2450 4666 
L 2450 531 
L 3481 531 
L 3481 0 
L 794 0 
L 794 531 
z
" transform="scale(0.015625)"/>
       </defs>
       <use xlink:href="#DejaVuSans-31"/>
       <use xlink:href="#DejaVuSans-30" x="63.623047"/>
       <use xlink:href="#DejaVuSans-30" x="127.246094"/>
      </g>
     </g>
    </g>
    <g id="ytick_3">
     <g id="line2d_8">
      <path d="M 63 223.760786 
L 453.6 223.760786 
" clip-path="url(#pf45a008cf6)" style="fill: none; stroke-dasharray: 2.96,1.28; stroke-dashoffset: 0; stroke: #b0b0b0; stroke-width: 0.8"/>
     </g>
     <g id="line2d_9">
      <g>
       <use xlink:href="#mc95f98d44b" x="63" y="223.760786" style="stroke: #000000; stroke-width: 0.8"/>
      </g>
     </g>
     <g id="text_7">
      <!-- 200 -->
      <g transform="translate(36.9125 227.560005) scale(0.1 -0.1)">
       <defs>
        <path id="DejaVuSans-32" d="M 1228 531 
L 3431 531 
L 3431 0 
L 469 0 
L 469 531 
Q 828 903 1448 1529 
Q 2069 2156 2228 2338 
Q 2531 2678 2651 2914 
Q 2772 3150 2772 3378 
Q 2772 3750 2511 3984 
Q 2250 4219 1831 4219 
Q 1534 4219 1204 4116 
Q 875 4013 500 3803 
L 500 4441 
Q 881 4594 1212 4672 
Q 1544 4750 1819 4750 
Q 2544 4750 2975 4387 
Q 3406 4025 3406 3419 
Q 3406 3131 3298 2873 
Q 3191 2616 2906 2266 
Q 2828 2175 2409 1742 
Q 1991 1309 1228 531 
z
" transform="scale(0.015625)"/>
       </defs>
       <use xlink:href="#DejaVuSans-32"/>
       <use xlink:href="#DejaVuSans-30" x="63.623047"/>
       <use xlink:href="#DejaVuSans-30" x="127.246094"/>
      </g>
     </g>
    </g>
    <g id="ytick_4">
     <g id="line2d_10">
      <path d="M 63 180.250062 
L 453.6 180.250062 
" clip-path="url(#pf45a008cf6)" style="fill: none; stroke-dasharray: 2.96,1.28; stroke-dashoffset: 0; stroke: #b0b0b0; stroke-width: 0.8"/>
     </g>
     <g id="line2d_11">
      <g>
       <use xlink:href="#mc95f98d44b" x="63" y="180.250062" style="stroke: #000000; stroke-width: 0.8"/>
      </g>
     </g>
     <g id="text_8">
      <!-- 300 -->
      <g transform="translate(36.9125 184.049281) scale(0.1 -0.1)">
       <defs>
        <path id="DejaVuSans-33" d="M 2597 2516 
Q 3050 2419 3304 2112 
Q 3559 1806 3559 1356 
Q 3559 666 3084 287 
Q 2609 -91 1734 -91 
Q 1441 -91 1130 -33 
Q 819 25 488 141 
L 488 750 
Q 750 597 1062 519 
Q 1375 441 1716 441 
Q 2309 441 2620 675 
Q 2931 909 2931 1356 
Q 2931 1769 2642 2001 
Q 2353 2234 1838 2234 
L 1294 2234 
L 1294 2753 
L 1863 2753 
Q 2328 2753 2575 2939 
Q 2822 3125 2822 3475 
Q 2822 3834 2567 4026 
Q 2313 4219 1838 4219 
Q 1578 4219 1281 4162 
Q 984 4106 628 3988 
L 628 4550 
Q 988 4650 1302 4700 
Q 1616 4750 1894 4750 
Q 2613 4750 3031 4423 
Q 3450 4097 3450 3541 
Q 3450 3153 3228 2886 
Q 3006 2619 2597 2516 
z
" transform="scale(0.015625)"/>
       </defs>
       <use xlink:href="#DejaVuSans-33"/>
       <use xlink:href="#DejaVuSans-30" x="63.623047"/>
       <use xlink:href="#DejaVuSans-30" x="127.246094"/>
      </g>
     </g>
    </g>
    <g id="ytick_5">
     <g id="line2d_12">
      <path d="M 63 136.739339 
L 453.6 136.739339 
" clip-path="url(#pf45a008cf6)" style="fill: none; stroke-dasharray: 2.96,1.28; stroke-dashoffset: 0; stroke: #b0b0b0; stroke-width: 0.8"/>
     </g>
     <g id="line2d_13">
      <g>
       <use xlink:href="#mc95f98d44b" x="63" y="136.739339" style="stroke: #000000; stroke-width: 0.8"/>
      </g>
     </g>
     <g id="text_9">
      <!-- 400 -->
      <g transform="translate(36.9125 140.538557) scale(0.1 -0.1)">
       <defs>
        <path id="DejaVuSans-34" d="M 2419 4116 
L 825 1625 
L 2419 1625 
L 2419 4116 
z
M 2253 4666 
L 3047 4666 
L 3047 1625 
L 3713 1625 
L 3713 1100 
L 3047 1100 
L 3047 0 
L 2419 0 
L 2419 1100 
L 313 1100 
L 313 1709 
L 2253 4666 
z
" transform="scale(0.015625)"/>
       </defs>
       <use xlink:href="#DejaVuSans-34"/>
       <use xlink:href="#DejaVuSans-30" x="63.623047"/>
       <use xlink:href="#DejaVuSans-30" x="127.246094"/>
      </g>
     </g>
    </g>
    <g id="ytick_6">
     <g id="line2d_14">
      <path d="M 63 93.228615 
L 453.6 93.228615 
" clip-path="url(#pf45a008cf6)" style="fill: none; stroke-dasharray: 2.96,1.28; stroke-dashoffset: 0; stroke: #b0b0b0; stroke-width: 0.8"/>
     </g>
     <g id="line2d_15">
      <g>
       <use xlink:href="#mc95f98d44b" x="63" y="93.228615" style="stroke: #000000; stroke-width: 0.8"/>
      </g>
     </g>
     <g id="text_10">
      <!-- 500 -->
      <g transform="translate(36.9125 97.027834) scale(0.1 -0.1)">
       <defs>
        <path id="DejaVuSans-35" d="M 691 4666 
L 3169 4666 
L 3169 4134 
L 1269 4134 
L 1269 2991 
Q 1406 3038 1543 3061 
Q 1681 3084 1819 3084 
Q 2600 3084 3056 2656 
Q 3513 2228 3513 1497 
Q 3513 744 3044 326 
Q 2575 -91 1722 -91 
Q 1428 -91 1123 -41 
Q 819 9 494 109 
L 494 744 
Q 775 591 1075 516 
Q 1375 441 1709 441 
Q 2250 441 2565 725 
Q 2881 1009 2881 1497 
Q 2881 1984 2565 2268 
Q 2250 2553 1709 2553 
Q 1456 2553 1204 2497 
Q 953 2441 691 2322 
L 691 4666 
z
" transform="scale(0.015625)"/>
       </defs>
       <use xlink:href="#DejaVuSans-35"/>
       <use xlink:href="#DejaVuSans-30" x="63.623047"/>
       <use xlink:href="#DejaVuSans-30" x="127.246094"/>
      </g>
     </g>
    </g>
    <g id="ytick_7">
     <g id="line2d_16">
      <path d="M 63 49.717891 
L 453.6 49.717891 
" clip-path="url(#pf45a008cf6)" style="fill: none; stroke-dasharray: 2.96,1.28; stroke-dashoffset: 0; stroke: #b0b0b0; stroke-width: 0.8"/>
     </g>
     <g id="line2d_17">
      <g>
       <use xlink:href="#mc95f98d44b" x="63" y="49.717891" style="stroke: #000000; stroke-width: 0.8"/>
      </g>
     </g>
     <g id="text_11">
      <!-- 600 -->
      <g transform="translate(36.9125 53.51711) scale(0.1 -0.1)">
       <defs>
        <path id="DejaVuSans-36" d="M 2113 2584 
Q 1688 2584 1439 2293 
Q 1191 2003 1191 1497 
Q 1191 994 1439 701 
Q 1688 409 2113 409 
Q 2538 409 2786 701 
Q 3034 994 3034 1497 
Q 3034 2003 2786 2293 
Q 2538 2584 2113 2584 
z
M 3366 4563 
L 3366 3988 
Q 3128 4100 2886 4159 
Q 2644 4219 2406 4219 
Q 1781 4219 1451 3797 
Q 1122 3375 1075 2522 
Q 1259 2794 1537 2939 
Q 1816 3084 2150 3084 
Q 2853 3084 3261 2657 
Q 3669 2231 3669 1497 
Q 3669 778 3244 343 
Q 2819 -91 2113 -91 
Q 1303 -91 875 529 
Q 447 1150 447 2328 
Q 447 3434 972 4092 
Q 1497 4750 2381 4750 
Q 2619 4750 2861 4703 
Q 3103 4656 3366 4563 
z
" transform="scale(0.015625)"/>
       </defs>
       <use xlink:href="#DejaVuSans-36"/>
       <use xlink:href="#DejaVuSans-30" x="63.623047"/>
       <use xlink:href="#DejaVuSans-30" x="127.246094"/>
      </g>
     </g>
    </g>
    <g id="text_12">
     <!-- Mean rewards -->
     <g transform="translate(30.832812 235.112031) rotate(-90) scale(0.1 -0.1)">
      <defs>
       <path id="DejaVuSans-4d" d="M 628 4666 
L 1569 4666 
L 2759 1491 
L 3956 4666 
L 4897 4666 
L 4897 0 
L 4281 0 
L 4281 4097 
L 3078 897 
L 2444 897 
L 1241 4097 
L 1241 0 
L 628 0 
L 628 4666 
z
" transform="scale(0.015625)"/>
       <path id="DejaVuSans-65" d="M 3597 1894 
L 3597 1613 
L 953 1613 
Q 991 1019 1311 708 
Q 1631 397 2203 397 
Q 2534 397 2845 478 
Q 3156 559 3463 722 
L 3463 178 
Q 3153 47 2828 -22 
Q 2503 -91 2169 -91 
Q 1331 -91 842 396 
Q 353 884 353 1716 
Q 353 2575 817 3079 
Q 1281 3584 2069 3584 
Q 2775 3584 3186 3129 
Q 3597 2675 3597 1894 
z
M 3022 2063 
Q 3016 2534 2758 2815 
Q 2500 3097 2075 3097 
Q 1594 3097 1305 2825 
Q 1016 2553 972 2059 
L 3022 2063 
z
" transform="scale(0.015625)"/>
       <path id="DejaVuSans-77" d="M 269 3500 
L 844 3500 
L 1563 769 
L 2278 3500 
L 2956 3500 
L 3675 769 
L 4391 3500 
L 4966 3500 
L 4050 0 
L 3372 0 
L 2619 2869 
L 1863 0 
L 1184 0 
L 269 3500 
z
" transform="scale(0.015625)"/>
       <path id="DejaVuSans-73" d="M 2834 3397 
L 2834 2853 
Q 2591 2978 2328 3040 
Q 2066 3103 1784 3103 
Q 1356 3103 1142 2972 
Q 928 2841 928 2578 
Q 928 2378 1081 2264 
Q 1234 2150 1697 2047 
L 1894 2003 
Q 2506 1872 2764 1633 
Q 3022 1394 3022 966 
Q 3022 478 2636 193 
Q 2250 -91 1575 -91 
Q 1294 -91 989 -36 
Q 684 19 347 128 
L 347 722 
Q 666 556 975 473 
Q 1284 391 1588 391 
Q 1994 391 2212 530 
Q 2431 669 2431 922 
Q 2431 1156 2273 1281 
Q 2116 1406 1581 1522 
L 1381 1569 
Q 847 1681 609 1914 
Q 372 2147 372 2553 
Q 372 3047 722 3315 
Q 1072 3584 1716 3584 
Q 2034 3584 2315 3537 
Q 2597 3491 2834 3397 
z
" transform="scale(0.015625)"/>
      </defs>
      <use xlink:href="#DejaVuSans-4d"/>
      <use xlink:href="#DejaVuSans-65" x="86.279297"/>
      <use xlink:href="#DejaVuSans-61" x="147.802734"/>
      <use xlink:href="#DejaVuSans-6e" x="209.082031"/>
      <use xlink:href="#DejaVuSans-20" x="272.460938"/>
      <use xlink:href="#DejaVuSans-72" x="304.248047"/>
      <use xlink:href="#DejaVuSans-65" x="343.111328"/>
      <use xlink:href="#DejaVuSans-77" x="404.634766"/>
      <use xlink:href="#DejaVuSans-61" x="486.421875"/>
      <use xlink:href="#DejaVuSans-72" x="547.701172"/>
      <use xlink:href="#DejaVuSans-64" x="587.064453"/>
      <use xlink:href="#DejaVuSans-73" x="650.541016"/>
     </g>
    </g>
   </g>
   <g id="line2d_18">
    <path d="M 128.1 306.731385 
L 128.1 137.422457 
" clip-path="url(#pf45a008cf6)" style="fill: none; stroke: #3d3d3d; stroke-width: 1.5; stroke-linecap: square"/>
   </g>
   <g id="line2d_19">
    <path d="M 128.1 267.163821 
L 128.1 214.598515 
" clip-path="url(#pf45a008cf6)" style="fill: none; stroke: #3d3d3d; stroke-width: 4.5; stroke-linecap: square"/>
   </g>
   <g id="line2d_20">
    <path d="M 258.3 93.228615 
L 258.3 93.228615 
" clip-path="url(#pf45a008cf6)" style="fill: none; stroke: #3d3d3d; stroke-width: 1.5; stroke-linecap: square"/>
   </g>
   <g id="line2d_21">
    <path d="M 258.3 93.228615 
L 258.3 93.228615 
" clip-path="url(#pf45a008cf6)" style="fill: none; stroke: #3d3d3d; stroke-width: 4.5; stroke-linecap: square"/>
   </g>
   <g id="line2d_22">
    <path d="M 388.5 306.988098 
L 388.5 280.54228 
" clip-path="url(#pf45a008cf6)" style="fill: none; stroke: #3d3d3d; stroke-width: 1.5; stroke-linecap: square"/>
   </g>
   <g id="line2d_23">
    <path d="M 388.5 306.696576 
L 388.5 296.23116 
" clip-path="url(#pf45a008cf6)" style="fill: none; stroke: #3d3d3d; stroke-width: 4.5; stroke-linecap: square"/>
   </g>
   <g id="patch_3">
    <path d="M 63 352.44 
L 63 47.52 
" style="fill: none; stroke: #000000; stroke-width: 0.8; stroke-linejoin: miter; stroke-linecap: square"/>
   </g>
   <g id="patch_4">
    <path d="M 453.6 352.44 
L 453.6 47.52 
" style="fill: none; stroke: #000000; stroke-width: 0.8; stroke-linejoin: miter; stroke-linecap: square"/>
   </g>
   <g id="patch_5">
    <path d="M 63 352.44 
L 453.6 352.44 
" style="fill: none; stroke: #000000; stroke-width: 0.8; stroke-linejoin: miter; stroke-linecap: square"/>
   </g>
   <g id="patch_6">
    <path d="M 63 47.52 
L 453.6 47.52 
" style="fill: none; stroke: #000000; stroke-width: 0.8; stroke-linejoin: miter; stroke-linecap: square"/>
   </g>
   <g id="PathCollection_1">
    <defs>
     <path id="m78676cd2eb" d="M 0 1.5 
C 0.397805 1.5 0.77937 1.341951 1.06066 1.06066 
C 1.341951 0.77937 1.5 0.397805 1.5 0 
C 1.5 -0.397805 1.341951 -0.77937 1.06066 -1.06066 
C 0.77937 -1.341951 0.397805 -1.5 0 -1.5 
C -0.397805 -1.5 -0.77937 -1.341951 -1.06066 -1.06066 
C -1.341951 -0.77937 -1.5 -0.397805 -1.5 0 
C -1.5 0.397805 -1.341951 0.77937 -1.06066 1.06066 
C -0.77937 1.341951 -0.397805 1.5 0 1.5 
z
" style="stroke: #3d3d3d"/>
    </defs>
    <g clip-path="url(#pf45a008cf6)">
     <use xlink:href="#m78676cd2eb" x="128.1" y="262.968299" style="fill: #ffffff; stroke: #3d3d3d"/>
    </g>
   </g>
   <g id="PathCollection_2">
    <g clip-path="url(#pf45a008cf6)">
     <use xlink:href="#m78676cd2eb" x="258.3" y="93.228615" style="fill: #ffffff; stroke: #3d3d3d"/>
    </g>
   </g>
   <g id="PathCollection_3">
    <g clip-path="url(#pf45a008cf6)">
     <use xlink:href="#m78676cd2eb" x="388.5" y="305.134541" style="fill: #ffffff; stroke: #3d3d3d"/>
    </g>
   </g>
   <g id="text_13">
    <!-- Cartpole - Baselines -->
    <g transform="translate(198.2325 41.52) scale(0.12 -0.12)">
     <defs>
      <path id="DejaVuSans-70" d="M 1159 525 
L 1159 -1331 
L 581 -1331 
L 581 3500 
L 1159 3500 
L 1159 2969 
Q 1341 3281 1617 3432 
Q 1894 3584 2278 3584 
Q 2916 3584 3314 3078 
Q 3713 2572 3713 1747 
Q 3713 922 3314 415 
Q 2916 -91 2278 -91 
Q 1894 -91 1617 61 
Q 1341 213 1159 525 
z
M 3116 1747 
Q 3116 2381 2855 2742 
Q 2594 3103 2138 3103 
Q 1681 3103 1420 2742 
Q 1159 2381 1159 1747 
Q 1159 1113 1420 752 
Q 1681 391 2138 391 
Q 2594 391 2855 752 
Q 3116 1113 3116 1747 
z
" transform="scale(0.015625)"/>
      <path id="DejaVuSans-2d" d="M 313 2009 
L 1997 2009 
L 1997 1497 
L 313 1497 
L 313 2009 
z
" transform="scale(0.015625)"/>
      <path id="DejaVuSans-42" d="M 1259 2228 
L 1259 519 
L 2272 519 
Q 2781 519 3026 730 
Q 3272 941 3272 1375 
Q 3272 1813 3026 2020 
Q 2781 2228 2272 2228 
L 1259 2228 
z
M 1259 4147 
L 1259 2741 
L 2194 2741 
Q 2656 2741 2882 2914 
Q 3109 3088 3109 3444 
Q 3109 3797 2882 3972 
Q 2656 4147 2194 4147 
L 1259 4147 
z
M 628 4666 
L 2241 4666 
Q 2963 4666 3353 4366 
Q 3744 4066 3744 3513 
Q 3744 3084 3544 2831 
Q 3344 2578 2956 2516 
Q 3422 2416 3680 2098 
Q 3938 1781 3938 1306 
Q 3938 681 3513 340 
Q 3088 0 2303 0 
L 628 0 
L 628 4666 
z
" transform="scale(0.015625)"/>
     </defs>
     <use xlink:href="#DejaVuSans-43"/>
     <use xlink:href="#DejaVuSans-61" x="69.824219"/>
     <use xlink:href="#DejaVuSans-72" x="131.103516"/>
     <use xlink:href="#DejaVuSans-74" x="172.216797"/>
     <use xlink:href="#DejaVuSans-70" x="211.425781"/>
     <use xlink:href="#DejaVuSans-6f" x="274.902344"/>
     <use xlink:href="#DejaVuSans-6c" x="336.083984"/>
     <use xlink:href="#DejaVuSans-65" x="363.867188"/>
     <use xlink:href="#DejaVuSans-20" x="425.390625"/>
     <use xlink:href="#DejaVuSans-2d" x="457.177734"/>
     <use xlink:href="#DejaVuSans-20" x="493.261719"/>
     <use xlink:href="#DejaVuSans-42" x="525.048828"/>
     <use xlink:href="#DejaVuSans-61" x="593.652344"/>
     <use xlink:href="#DejaVuSans-73" x="654.931641"/>
     <use xlink:href="#DejaVuSans-65" x="707.03125"/>
     <use xlink:href="#DejaVuSans-6c" x="768.554688"/>
     <use xlink:href="#DejaVuSans-69" x="796.337891"/>
     <use xlink:href="#DejaVuSans-6e" x="824.121094"/>
     <use xlink:href="#DejaVuSans-65" x="887.5"/>
     <use xlink:href="#DejaVuSans-73" x="949.023438"/>
    </g>
   </g>
  </g>
 </g>
 <defs>
  <clipPath id="pf45a008cf6">
   <rect x="63" y="47.52" width="390.6" height="304.92"/>
  </clipPath>
 </defs>
</svg>
