<?xml version="1.0" encoding="utf-8" standalone="no"?>
<!DOCTYPE svg PUBLIC "-//W3C//DTD SVG 1.1//EN"
  "http://www.w3.org/Graphics/SVG/1.1/DTD/svg11.dtd">
<svg xmlns:xlink="http://www.w3.org/1999/xlink" width="504pt" height="396pt" viewBox="0 0 504 396" xmlns="http://www.w3.org/2000/svg" version="1.1">
 <metadata>
  <rdf:RDF xmlns:dc="http://purl.org/dc/elements/1.1/" xmlns:cc="http://creativecommons.org/ns#" xmlns:rdf="http://www.w3.org/1999/02/22-rdf-syntax-ns#">
   <cc:Work>
    <dc:type rdf:resource="http://purl.org/dc/dcmitype/StillImage"/>
    <dc:date>2024-05-10T18:47:42.223706</dc:date>
    <dc:format>image/svg+xml</dc:format>
    <dc:creator>
     <cc:Agent>
      <dc:title>Matplotlib v3.8.2, https://matplotlib.org/</dc:title>
     </cc:Agent>
    </dc:creator>
   </cc:Work>
  </rdf:RDF>
 </metadata>
 <defs>
  <style type="text/css">*{stroke-linejoin: round; stroke-linecap: butt}</style>
 </defs>
 <g id="figure_1">
  <g id="patch_1">
   <path d="M 0 396 
L 504 396 
L 504 0 
L 0 0 
z
" style="fill: #ffffff"/>
  </g>
  <g id="axes_1">
   <g id="patch_2">
    <path d="M 63 352.44 
L 453.6 352.44 
L 453.6 47.52 
L 63 47.52 
z
" style="fill: #ffffff"/>
   </g>
   <g id="PolyCollection_1">
    <defs>
     <path id="m671fafb712" d="M 128.349093 -58.484441 
L 127.850907 -58.484441 
L 127.661684 -61.262937 
L 127.385517 -64.041433 
L 127.01974 -66.819929 
L 126.582465 -69.598425 
L 126.114717 -72.376921 
L 125.673841 -75.155417 
L 125.318954 -77.933914 
L 125.093884 -80.71241 
L 125.015163 -83.490906 
L 125.07028 -86.269402 
L 125.226005 -89.047898 
L 125.441637 -91.826394 
L 125.680692 -94.60489 
L 125.917069 -97.383387 
L 126.135558 -100.161883 
L 126.329097 -102.940379 
L 126.495376 -105.718875 
L 126.634242 -108.497371 
L 126.7462 -111.275867 
L 126.831811 -114.054364 
L 126.891715 -116.83286 
L 126.927033 -119.611356 
L 126.939869 -122.389852 
L 126.933743 -125.168348 
L 126.913879 -127.946844 
L 126.887242 -130.72534 
L 126.862129 -133.503837 
L 126.847026 -136.282333 
L 126.848734 -139.060829 
L 126.870313 -141.839325 
L 126.909788 -144.617821 
L 126.960426 -147.396317 
L 127.012703 -150.174814 
L 127.057237 -152.95331 
L 127.087498 -155.731806 
L 127.101223 -158.510302 
L 127.100114 -161.288798 
L 127.088132 -164.067294 
L 127.069223 -166.84579 
L 127.04543 -169.624287 
L 127.016043 -172.402783 
L 126.978081 -175.181279 
L 126.9279 -177.959775 
L 126.863436 -180.738271 
L 126.786206 -183.516767 
L 126.702125 -186.295263 
L 126.620486 -189.07376 
L 126.551252 -191.852256 
L 126.501687 -194.630752 
L 126.473859 -197.409248 
L 126.464173 -200.187744 
L 126.465066 -202.96624 
L 126.467925 -205.744737 
L 126.465789 -208.523233 
L 126.454651 -211.301729 
L 126.432961 -214.080225 
L 126.39979 -216.858721 
L 126.352662 -219.637217 
L 126.286132 -222.415713 
L 126.191799 -225.19421 
L 126.059664 -227.972706 
L 125.880104 -230.751202 
L 125.645451 -233.529698 
L 125.350489 -236.308194 
L 124.991815 -239.08669 
L 124.566426 -241.865186 
L 124.069958 -244.643683 
L 123.49477 -247.422179 
L 122.827979 -250.200675 
L 122.049732 -252.979171 
L 121.132305 -255.757667 
L 120.040767 -258.536163 
L 118.735945 -261.31466 
L 117.180361 -264.093156 
L 115.347412 -266.871652 
L 113.232691 -269.650148 
L 110.863615 -272.428644 
L 108.300646 -275.20714 
L 105.623168 -277.985636 
L 102.898371 -280.764133 
L 100.1422 -283.542629 
L 97.293046 -286.321125 
L 94.223503 -289.099621 
L 90.805844 -291.878117 
L 87.021902 -294.656613 
L 83.076281 -297.43511 
L 79.451182 -300.213606 
L 76.8499 -302.992102 
L 76.02 -305.770598 
L 77.509257 -308.549094 
L 81.453144 -311.32759 
L 87.490535 -314.106086 
L 94.849743 -316.884583 
L 102.568728 -319.663079 
L 109.755477 -322.441575 
L 115.787584 -325.220071 
L 120.391664 -327.998567 
L 123.604028 -330.777063 
L 125.659619 -333.555559 
L 130.540381 -333.555559 
L 130.540381 -333.555559 
L 132.595972 -330.777063 
L 135.808336 -327.998567 
L 140.412416 -325.220071 
L 146.444523 -322.441575 
L 153.631272 -319.663079 
L 161.350257 -316.884583 
L 168.709465 -314.106086 
L 174.746856 -311.32759 
L 178.690743 -308.549094 
L 180.18 -305.770598 
L 179.3501 -302.992102 
L 176.748818 -300.213606 
L 173.123719 -297.43511 
L 169.178098 -294.656613 
L 165.394156 -291.878117 
L 161.976497 -289.099621 
L 158.906954 -286.321125 
L 156.0578 -283.542629 
L 153.301629 -280.764133 
L 150.576832 -277.985636 
L 147.899354 -275.20714 
L 145.336385 -272.428644 
L 142.967309 -269.650148 
L 140.852588 -266.871652 
L 139.019639 -264.093156 
L 137.464055 -261.31466 
L 136.159233 -258.536163 
L 135.067695 -255.757667 
L 134.150268 -252.979171 
L 133.372021 -250.200675 
L 132.70523 -247.422179 
L 132.130042 -244.643683 
L 131.633574 -241.865186 
L 131.208185 -239.08669 
L 130.849511 -236.308194 
L 130.554549 -233.529698 
L 130.319896 -230.751202 
L 130.140336 -227.972706 
L 130.008201 -225.19421 
L 129.913868 -222.415713 
L 129.847338 -219.637217 
L 129.80021 -216.858721 
L 129.767039 -214.080225 
L 129.745349 -211.301729 
L 129.734211 -208.523233 
L 129.732075 -205.744737 
L 129.734934 -202.96624 
L 129.735827 -200.187744 
L 129.726141 -197.409248 
L 129.698313 -194.630752 
L 129.648748 -191.852256 
L 129.579514 -189.07376 
L 129.497875 -186.295263 
L 129.413794 -183.516767 
L 129.336564 -180.738271 
L 129.2721 -177.959775 
L 129.221919 -175.181279 
L 129.183957 -172.402783 
L 129.15457 -169.624287 
L 129.130777 -166.84579 
L 129.111868 -164.067294 
L 129.099886 -161.288798 
L 129.098777 -158.510302 
L 129.112502 -155.731806 
L 129.142763 -152.95331 
L 129.187297 -150.174814 
L 129.239574 -147.396317 
L 129.290212 -144.617821 
L 129.329687 -141.839325 
L 129.351266 -139.060829 
L 129.352974 -136.282333 
L 129.337871 -133.503837 
L 129.312758 -130.72534 
L 129.286121 -127.946844 
L 129.266257 -125.168348 
L 129.260131 -122.389852 
L 129.272967 -119.611356 
L 129.308285 -116.83286 
L 129.368189 -114.054364 
L 129.4538 -111.275867 
L 129.565758 -108.497371 
L 129.704624 -105.718875 
L 129.870903 -102.940379 
L 130.064442 -100.161883 
L 130.282931 -97.383387 
L 130.519308 -94.60489 
L 130.758363 -91.826394 
L 130.973995 -89.047898 
L 131.12972 -86.269402 
L 131.184837 -83.490906 
L 131.106116 -80.71241 
L 130.881046 -77.933914 
L 130.526159 -75.155417 
L 130.085283 -72.376921 
L 129.617535 -69.598425 
L 129.18026 -66.819929 
L 128.814483 -64.041433 
L 128.538316 -61.262937 
L 128.349093 -58.484441 
z
" style="stroke: #3d3d3d; stroke-width: 1.5"/>
    </defs>
    <g clip-path="url(#p0b17e14eee)">
     <use xlink:href="#m671fafb712" x="0" y="396" style="fill: #3274a1; stroke: #3d3d3d; stroke-width: 1.5"/>
    </g>
   </g>
   <g id="PolyCollection_2">
    <defs>
     <path id="m5ac5fec9a5" d="M 258.38465 -57.42 
L 258.21535 -57.42 
L 258.147691 -60.22 
L 258.043387 -63.02 
L 257.894576 -65.82 
L 257.698309 -68.62 
L 257.459399 -71.42 
L 257.191627 -74.22 
L 256.916271 -77.02 
L 256.657896 -79.82 
L 256.438566 -82.62 
L 256.272489 -85.42 
L 256.163031 -88.22 
L 256.103074 -91.02 
L 256.078296 -93.82 
L 256.071885 -96.62 
L 256.068912 -99.42 
L 256.059057 -102.22 
L 256.03737 -105.02 
L 256.003504 -107.82 
L 255.960292 -110.62 
L 255.912318 -113.42 
L 255.864737 -116.22 
L 255.822256 -119.02 
L 255.788167 -121.82 
L 255.763589 -124.62 
L 255.747295 -127.42 
L 255.736419 -130.22 
L 255.727906 -133.02 
L 255.720045 -135.82 
L 255.71324 -138.62 
L 255.709527 -141.42 
L 255.711058 -144.22 
L 255.718406 -147.02 
L 255.729648 -149.82 
L 255.740683 -152.62 
L 255.746511 -155.42 
L 255.742724 -158.22 
L 255.726535 -161.02 
L 255.697134 -163.82 
L 255.655621 -166.62 
L 255.604874 -169.42 
L 255.549381 -172.22 
L 255.494784 -175.02 
L 255.446839 -177.82 
L 255.40988 -180.62 
L 255.385383 -183.42 
L 255.37137 -186.22 
L 255.363082 -189.02 
L 255.354706 -191.82 
L 255.341381 -194.62 
L 255.320608 -197.42 
L 255.292541 -200.22 
L 255.259201 -203.02 
L 255.223117 -205.82 
L 255.186007 -208.62 
L 255.148035 -211.42 
L 255.107826 -214.22 
L 255.063136 -217.02 
L 255.011765 -219.82 
L 254.952148 -222.62 
L 254.883163 -225.42 
L 254.803002 -228.22 
L 254.707463 -231.02 
L 254.588327 -233.82 
L 254.432571 -236.62 
L 254.222818 -239.42 
L 253.938889 -242.22 
L 253.559844 -245.02 
L 253.065681 -247.82 
L 252.43808 -250.62 
L 251.660124 -253.42 
L 250.715638 -256.22 
L 249.589135 -259.02 
L 248.266997 -261.82 
L 246.739395 -264.62 
L 245.001208 -267.42 
L 243.049944 -270.22 
L 240.880183 -273.02 
L 238.477047 -275.82 
L 235.813996 -278.62 
L 232.860744 -281.42 
L 229.604151 -284.22 
L 226.079349 -287.02 
L 222.402545 -289.82 
L 218.793368 -292.62 
L 215.574732 -295.42 
L 213.142229 -298.22 
L 211.902329 -301.02 
L 212.188475 -303.82 
L 214.174246 -306.62 
L 217.809502 -309.42 
L 222.803966 -312.22 
L 228.670551 -315.02 
L 234.820697 -317.82 
L 240.684209 -320.62 
L 245.816486 -323.42 
L 249.961921 -326.22 
L 253.060729 -329.02 
L 255.208084 -331.82 
L 256.588806 -334.62 
L 260.011194 -334.62 
L 260.011194 -334.62 
L 261.391916 -331.82 
L 263.539271 -329.02 
L 266.638079 -326.22 
L 270.783514 -323.42 
L 275.915791 -320.62 
L 281.779303 -317.82 
L 287.929449 -315.02 
L 293.796034 -312.22 
L 298.790498 -309.42 
L 302.425754 -306.62 
L 304.411525 -303.82 
L 304.697671 -301.02 
L 303.457771 -298.22 
L 301.025268 -295.42 
L 297.806632 -292.62 
L 294.197455 -289.82 
L 290.520651 -287.02 
L 286.995849 -284.22 
L 283.739256 -281.42 
L 280.786004 -278.62 
L 278.122953 -275.82 
L 275.719817 -273.02 
L 273.550056 -270.22 
L 271.598792 -267.42 
L 269.860605 -264.62 
L 268.333003 -261.82 
L 267.010865 -259.02 
L 265.884362 -256.22 
L 264.939876 -253.42 
L 264.16192 -250.62 
L 263.534319 -247.82 
L 263.040156 -245.02 
L 262.661111 -242.22 
L 262.377182 -239.42 
L 262.167429 -236.62 
L 262.011673 -233.82 
L 261.892537 -231.02 
L 261.796998 -228.22 
L 261.716837 -225.42 
L 261.647852 -222.62 
L 261.588235 -219.82 
L 261.536864 -217.02 
L 261.492174 -214.22 
L 261.451965 -211.42 
L 261.413993 -208.62 
L 261.376883 -205.82 
L 261.340799 -203.02 
L 261.307459 -200.22 
L 261.279392 -197.42 
L 261.258619 -194.62 
L 261.245294 -191.82 
L 261.236918 -189.02 
L 261.22863 -186.22 
L 261.214617 -183.42 
L 261.19012 -180.62 
L 261.153161 -177.82 
L 261.105216 -175.02 
L 261.050619 -172.22 
L 260.995126 -169.42 
L 260.944379 -166.62 
L 260.902866 -163.82 
L 260.873465 -161.02 
L 260.857276 -158.22 
L 260.853489 -155.42 
L 260.859317 -152.62 
L 260.870352 -149.82 
L 260.881594 -147.02 
L 260.888942 -144.22 
L 260.890473 -141.42 
L 260.88676 -138.62 
L 260.879955 -135.82 
L 260.872094 -133.02 
L 260.863581 -130.22 
L 260.852705 -127.42 
L 260.836411 -124.62 
L 260.811833 -121.82 
L 260.777744 -119.02 
L 260.735263 -116.22 
L 260.687682 -113.42 
L 260.639708 -110.62 
L 260.596496 -107.82 
L 260.56263 -105.02 
L 260.540943 -102.22 
L 260.531088 -99.42 
L 260.528115 -96.62 
L 260.521704 -93.82 
L 260.496926 -91.02 
L 260.436969 -88.22 
L 260.327511 -85.42 
L 260.161434 -82.62 
L 259.942104 -79.82 
L 259.683729 -77.02 
L 259.408373 -74.22 
L 259.140601 -71.42 
L 258.901691 -68.62 
L 258.705424 -65.82 
L 258.556613 -63.02 
L 258.452309 -60.22 
L 258.38465 -57.42 
z
" style="stroke: #3d3d3d; stroke-width: 1.5"/>
    </defs>
    <g clip-path="url(#p0b17e14eee)">
     <use xlink:href="#m5ac5fec9a5" x="0" y="396" style="fill: #e1812c; stroke: #3d3d3d; stroke-width: 1.5"/>
    </g>
   </g>
   <g id="PolyCollection_3">
    <defs>
     <path id="mc425292a07" d="M 388.594722 -59.46956 
L 388.405278 -59.46956 
L 388.325444 -62.228155 
L 388.202734 -64.98675 
L 388.030896 -67.745345 
L 387.811567 -70.503939 
L 387.556085 -73.262534 
L 387.283709 -76.021129 
L 387.016406 -78.779723 
L 386.772491 -81.538318 
L 386.562359 -84.296913 
L 386.388401 -87.055508 
L 386.248638 -89.814102 
L 386.141381 -92.572697 
L 386.067902 -95.331292 
L 386.031791 -98.089887 
L 386.035991 -100.848481 
L 386.079826 -103.607076 
L 386.157915 -106.365671 
L 386.261242 -109.124266 
L 386.379265 -111.88286 
L 386.501636 -114.641455 
L 386.618977 -117.40005 
L 386.723085 -120.158645 
L 386.807297 -122.917239 
L 386.867332 -125.675834 
L 386.902284 -128.434429 
L 386.915225 -131.193024 
L 386.912988 -133.951618 
L 386.905041 -136.710213 
L 386.901516 -139.468808 
L 386.910703 -142.227403 
L 386.936718 -144.985997 
L 386.978347 -147.744592 
L 387.029813 -150.503187 
L 387.083295 -153.261782 
L 387.132021 -156.020376 
L 387.172451 -158.778971 
L 387.204809 -161.537566 
L 387.2322 -164.29616 
L 387.259174 -167.054755 
L 387.290325 -169.81335 
L 387.329017 -172.571945 
L 387.376217 -175.330539 
L 387.429703 -178.089134 
L 387.484148 -180.847729 
L 387.53228 -183.606324 
L 387.566728 -186.364918 
L 387.581793 -189.123513 
L 387.574617 -191.882108 
L 387.545689 -194.640703 
L 387.498731 -197.399297 
L 387.439831 -200.157892 
L 387.375522 -202.916487 
L 387.309927 -205.675082 
L 387.241954 -208.433676 
L 387.163999 -211.192271 
L 387.063307 -213.950866 
L 386.92593 -216.709461 
L 386.741994 -219.468055 
L 386.51021 -222.22665 
L 386.239637 -224.985245 
L 385.947327 -227.74384 
L 385.651662 -230.502434 
L 385.362697 -233.261029 
L 385.072626 -236.019624 
L 384.750437 -238.778218 
L 384.344122 -241.536813 
L 383.790812 -244.295408 
L 383.03121 -247.054003 
L 382.022224 -249.812597 
L 380.74312 -252.571192 
L 379.195531 -255.329787 
L 377.402602 -258.088382 
L 375.412548 -260.846976 
L 373.305188 -263.605571 
L 371.190943 -266.364166 
L 369.189026 -269.122761 
L 367.381117 -271.881355 
L 365.755707 -274.63995 
L 364.174331 -277.398545 
L 362.390085 -280.15714 
L 360.127005 -282.915734 
L 357.196335 -285.674329 
L 353.601977 -288.432924 
L 349.587812 -291.191519 
L 345.604904 -293.950113 
L 342.212438 -296.708708 
L 339.952779 -299.467303 
L 339.244614 -302.225898 
L 340.319269 -304.984492 
L 343.198611 -307.743087 
L 347.69761 -310.501682 
L 353.440597 -313.260277 
L 359.898015 -316.018871 
L 366.45853 -318.777466 
L 372.536275 -321.536061 
L 377.68494 -324.294655 
L 381.674765 -327.05325 
L 384.501762 -329.811845 
L 386.332189 -332.57044 
L 390.667811 -332.57044 
L 390.667811 -332.57044 
L 392.498238 -329.811845 
L 395.325235 -327.05325 
L 399.31506 -324.294655 
L 404.463725 -321.536061 
L 410.54147 -318.777466 
L 417.101985 -316.018871 
L 423.559403 -313.260277 
L 429.30239 -310.501682 
L 433.801389 -307.743087 
L 436.680731 -304.984492 
L 437.755386 -302.225898 
L 437.047221 -299.467303 
L 434.787562 -296.708708 
L 431.395096 -293.950113 
L 427.412188 -291.191519 
L 423.398023 -288.432924 
L 419.803665 -285.674329 
L 416.872995 -282.915734 
L 414.609915 -280.15714 
L 412.825669 -277.398545 
L 411.244293 -274.63995 
L 409.618883 -271.881355 
L 407.810974 -269.122761 
L 405.809057 -266.364166 
L 403.694812 -263.605571 
L 401.587452 -260.846976 
L 399.597398 -258.088382 
L 397.804469 -255.329787 
L 396.25688 -252.571192 
L 394.977776 -249.812597 
L 393.96879 -247.054003 
L 393.209188 -244.295408 
L 392.655878 -241.536813 
L 392.249563 -238.778218 
L 391.927374 -236.019624 
L 391.637303 -233.261029 
L 391.348338 -230.502434 
L 391.052673 -227.74384 
L 390.760363 -224.985245 
L 390.48979 -222.22665 
L 390.258006 -219.468055 
L 390.07407 -216.709461 
L 389.936693 -213.950866 
L 389.836001 -211.192271 
L 389.758046 -208.433676 
L 389.690073 -205.675082 
L 389.624478 -202.916487 
L 389.560169 -200.157892 
L 389.501269 -197.399297 
L 389.454311 -194.640703 
L 389.425383 -191.882108 
L 389.418207 -189.123513 
L 389.433272 -186.364918 
L 389.46772 -183.606324 
L 389.515852 -180.847729 
L 389.570297 -178.089134 
L 389.623783 -175.330539 
L 389.670983 -172.571945 
L 389.709675 -169.81335 
L 389.740826 -167.054755 
L 389.7678 -164.29616 
L 389.795191 -161.537566 
L 389.827549 -158.778971 
L 389.867979 -156.020376 
L 389.916705 -153.261782 
L 389.970187 -150.503187 
L 390.021653 -147.744592 
L 390.063282 -144.985997 
L 390.089297 -142.227403 
L 390.098484 -139.468808 
L 390.094959 -136.710213 
L 390.087012 -133.951618 
L 390.084775 -131.193024 
L 390.097716 -128.434429 
L 390.132668 -125.675834 
L 390.192703 -122.917239 
L 390.276915 -120.158645 
L 390.381023 -117.40005 
L 390.498364 -114.641455 
L 390.620735 -111.88286 
L 390.738758 -109.124266 
L 390.842085 -106.365671 
L 390.920174 -103.607076 
L 390.964009 -100.848481 
L 390.968209 -98.089887 
L 390.932098 -95.331292 
L 390.858619 -92.572697 
L 390.751362 -89.814102 
L 390.611599 -87.055508 
L 390.437641 -84.296913 
L 390.227509 -81.538318 
L 389.983594 -78.779723 
L 389.716291 -76.021129 
L 389.443915 -73.262534 
L 389.188433 -70.503939 
L 388.969104 -67.745345 
L 388.797266 -64.98675 
L 388.674556 -62.228155 
L 388.594722 -59.46956 
z
" style="stroke: #3d3d3d; stroke-width: 1.5"/>
    </defs>
    <g clip-path="url(#p0b17e14eee)">
     <use xlink:href="#mc425292a07" x="0" y="396" style="fill: #3a923a; stroke: #3d3d3d; stroke-width: 1.5"/>
    </g>
   </g>
   <g id="matplotlib.axis_1">
    <g id="xtick_1">
     <g id="line2d_1">
      <defs>
       <path id="m92e7eeba12" d="M 0 0 
L 0 3.5 
" style="stroke: #000000; stroke-width: 0.8"/>
      </defs>
      <g>
       <use xlink:href="#m92e7eeba12" x="128.1" y="352.44" style="stroke: #000000; stroke-width: 0.8"/>
      </g>
     </g>
     <g id="text_1">
      <!-- n-step QTM -->
      <g transform="translate(99.41875 367.038437) scale(0.1 -0.1)">
       <defs>
        <path id="DejaVuSans-6e" d="M 3513 2113 
L 3513 0 
L 2938 0 
L 2938 2094 
Q 2938 2591 2744 2837 
Q 2550 3084 2163 3084 
Q 1697 3084 1428 2787 
Q 1159 2491 1159 1978 
L 1159 0 
L 581 0 
L 581 3500 
L 1159 3500 
L 1159 2956 
Q 1366 3272 1645 3428 
Q 1925 3584 2291 3584 
Q 2894 3584 3203 3211 
Q 3513 2838 3513 2113 
z
" transform="scale(0.015625)"/>
        <path id="DejaVuSans-2d" d="M 313 2009 
L 1997 2009 
L 1997 1497 
L 313 1497 
L 313 2009 
z
" transform="scale(0.015625)"/>
        <path id="DejaVuSans-73" d="M 2834 3397 
L 2834 2853 
Q 2591 2978 2328 3040 
Q 2066 3103 1784 3103 
Q 1356 3103 1142 2972 
Q 928 2841 928 2578 
Q 928 2378 1081 2264 
Q 1234 2150 1697 2047 
L 1894 2003 
Q 2506 1872 2764 1633 
Q 3022 1394 3022 966 
Q 3022 478 2636 193 
Q 2250 -91 1575 -91 
Q 1294 -91 989 -36 
Q 684 19 347 128 
L 347 722 
Q 666 556 975 473 
Q 1284 391 1588 391 
Q 1994 391 2212 530 
Q 2431 669 2431 922 
Q 2431 1156 2273 1281 
Q 2116 1406 1581 1522 
L 1381 1569 
Q 847 1681 609 1914 
Q 372 2147 372 2553 
Q 372 3047 722 3315 
Q 1072 3584 1716 3584 
Q 2034 3584 2315 3537 
Q 2597 3491 2834 3397 
z
" transform="scale(0.015625)"/>
        <path id="DejaVuSans-74" d="M 1172 4494 
L 1172 3500 
L 2356 3500 
L 2356 3053 
L 1172 3053 
L 1172 1153 
Q 1172 725 1289 603 
Q 1406 481 1766 481 
L 2356 481 
L 2356 0 
L 1766 0 
Q 1100 0 847 248 
Q 594 497 594 1153 
L 594 3053 
L 172 3053 
L 172 3500 
L 594 3500 
L 594 4494 
L 1172 4494 
z
" transform="scale(0.015625)"/>
        <path id="DejaVuSans-65" d="M 3597 1894 
L 3597 1613 
L 953 1613 
Q 991 1019 1311 708 
Q 1631 397 2203 397 
Q 2534 397 2845 478 
Q 3156 559 3463 722 
L 3463 178 
Q 3153 47 2828 -22 
Q 2503 -91 2169 -91 
Q 1331 -91 842 396 
Q 353 884 353 1716 
Q 353 2575 817 3079 
Q 1281 3584 2069 3584 
Q 2775 3584 3186 3129 
Q 3597 2675 3597 1894 
z
M 3022 2063 
Q 3016 2534 2758 2815 
Q 2500 3097 2075 3097 
Q 1594 3097 1305 2825 
Q 1016 2553 972 2059 
L 3022 2063 
z
" transform="scale(0.015625)"/>
        <path id="DejaVuSans-70" d="M 1159 525 
L 1159 -1331 
L 581 -1331 
L 581 3500 
L 1159 3500 
L 1159 2969 
Q 1341 3281 1617 3432 
Q 1894 3584 2278 3584 
Q 2916 3584 3314 3078 
Q 3713 2572 3713 1747 
Q 3713 922 3314 415 
Q 2916 -91 2278 -91 
Q 1894 -91 1617 61 
Q 1341 213 1159 525 
z
M 3116 1747 
Q 3116 2381 2855 2742 
Q 2594 3103 2138 3103 
Q 1681 3103 1420 2742 
Q 1159 2381 1159 1747 
Q 1159 1113 1420 752 
Q 1681 391 2138 391 
Q 2594 391 2855 752 
Q 3116 1113 3116 1747 
z
" transform="scale(0.015625)"/>
        <path id="DejaVuSans-20" transform="scale(0.015625)"/>
        <path id="DejaVuSans-51" d="M 2522 4238 
Q 1834 4238 1429 3725 
Q 1025 3213 1025 2328 
Q 1025 1447 1429 934 
Q 1834 422 2522 422 
Q 3209 422 3611 934 
Q 4013 1447 4013 2328 
Q 4013 3213 3611 3725 
Q 3209 4238 2522 4238 
z
M 3406 84 
L 4238 -825 
L 3475 -825 
L 2784 -78 
Q 2681 -84 2626 -87 
Q 2572 -91 2522 -91 
Q 1538 -91 948 567 
Q 359 1225 359 2328 
Q 359 3434 948 4092 
Q 1538 4750 2522 4750 
Q 3503 4750 4090 4092 
Q 4678 3434 4678 2328 
Q 4678 1516 4351 937 
Q 4025 359 3406 84 
z
" transform="scale(0.015625)"/>
        <path id="DejaVuSans-54" d="M -19 4666 
L 3928 4666 
L 3928 4134 
L 2272 4134 
L 2272 0 
L 1638 0 
L 1638 4134 
L -19 4134 
L -19 4666 
z
" transform="scale(0.015625)"/>
        <path id="DejaVuSans-4d" d="M 628 4666 
L 1569 4666 
L 2759 1491 
L 3956 4666 
L 4897 4666 
L 4897 0 
L 4281 0 
L 4281 4097 
L 3078 897 
L 2444 897 
L 1241 4097 
L 1241 0 
L 628 0 
L 628 4666 
z
" transform="scale(0.015625)"/>
       </defs>
       <use xlink:href="#DejaVuSans-6e"/>
       <use xlink:href="#DejaVuSans-2d" x="63.378906"/>
       <use xlink:href="#DejaVuSans-73" x="99.462891"/>
       <use xlink:href="#DejaVuSans-74" x="151.5625"/>
       <use xlink:href="#DejaVuSans-65" x="190.771484"/>
       <use xlink:href="#DejaVuSans-70" x="252.294922"/>
       <use xlink:href="#DejaVuSans-20" x="315.771484"/>
       <use xlink:href="#DejaVuSans-51" x="347.558594"/>
       <use xlink:href="#DejaVuSans-54" x="426.269531"/>
       <use xlink:href="#DejaVuSans-4d" x="487.353516"/>
      </g>
     </g>
    </g>
    <g id="xtick_2">
     <g id="line2d_2">
      <g>
       <use xlink:href="#m92e7eeba12" x="258.3" y="352.44" style="stroke: #000000; stroke-width: 0.8"/>
      </g>
     </g>
     <g id="text_2">
      <!-- n-step DQTM  -->
      <g transform="translate(224.179687 367.038437) scale(0.1 -0.1)">
       <defs>
        <path id="DejaVuSans-44" d="M 1259 4147 
L 1259 519 
L 2022 519 
Q 2988 519 3436 956 
Q 3884 1394 3884 2338 
Q 3884 3275 3436 3711 
Q 2988 4147 2022 4147 
L 1259 4147 
z
M 628 4666 
L 1925 4666 
Q 3281 4666 3915 4102 
Q 4550 3538 4550 2338 
Q 4550 1131 3912 565 
Q 3275 0 1925 0 
L 628 0 
L 628 4666 
z
" transform="scale(0.015625)"/>
       </defs>
       <use xlink:href="#DejaVuSans-6e"/>
       <use xlink:href="#DejaVuSans-2d" x="63.378906"/>
       <use xlink:href="#DejaVuSans-73" x="99.462891"/>
       <use xlink:href="#DejaVuSans-74" x="151.5625"/>
       <use xlink:href="#DejaVuSans-65" x="190.771484"/>
       <use xlink:href="#DejaVuSans-70" x="252.294922"/>
       <use xlink:href="#DejaVuSans-20" x="315.771484"/>
       <use xlink:href="#DejaVuSans-44" x="347.558594"/>
       <use xlink:href="#DejaVuSans-51" x="424.560547"/>
       <use xlink:href="#DejaVuSans-54" x="503.271484"/>
       <use xlink:href="#DejaVuSans-4d" x="564.355469"/>
       <use xlink:href="#DejaVuSans-20" x="650.634766"/>
      </g>
      <!--  Update type a -->
      <g transform="translate(221.189844 378.23625) scale(0.1 -0.1)">
       <defs>
        <path id="DejaVuSans-55" d="M 556 4666 
L 1191 4666 
L 1191 1831 
Q 1191 1081 1462 751 
Q 1734 422 2344 422 
Q 2950 422 3222 751 
Q 3494 1081 3494 1831 
L 3494 4666 
L 4128 4666 
L 4128 1753 
Q 4128 841 3676 375 
Q 3225 -91 2344 -91 
Q 1459 -91 1007 375 
Q 556 841 556 1753 
L 556 4666 
z
" transform="scale(0.015625)"/>
        <path id="DejaVuSans-64" d="M 2906 2969 
L 2906 4863 
L 3481 4863 
L 3481 0 
L 2906 0 
L 2906 525 
Q 2725 213 2448 61 
Q 2172 -91 1784 -91 
Q 1150 -91 751 415 
Q 353 922 353 1747 
Q 353 2572 751 3078 
Q 1150 3584 1784 3584 
Q 2172 3584 2448 3432 
Q 2725 3281 2906 2969 
z
M 947 1747 
Q 947 1113 1208 752 
Q 1469 391 1925 391 
Q 2381 391 2643 752 
Q 2906 1113 2906 1747 
Q 2906 2381 2643 2742 
Q 2381 3103 1925 3103 
Q 1469 3103 1208 2742 
Q 947 2381 947 1747 
z
" transform="scale(0.015625)"/>
        <path id="DejaVuSans-61" d="M 2194 1759 
Q 1497 1759 1228 1600 
Q 959 1441 959 1056 
Q 959 750 1161 570 
Q 1363 391 1709 391 
Q 2188 391 2477 730 
Q 2766 1069 2766 1631 
L 2766 1759 
L 2194 1759 
z
M 3341 1997 
L 3341 0 
L 2766 0 
L 2766 531 
Q 2569 213 2275 61 
Q 1981 -91 1556 -91 
Q 1019 -91 701 211 
Q 384 513 384 1019 
Q 384 1609 779 1909 
Q 1175 2209 1959 2209 
L 2766 2209 
L 2766 2266 
Q 2766 2663 2505 2880 
Q 2244 3097 1772 3097 
Q 1472 3097 1187 3025 
Q 903 2953 641 2809 
L 641 3341 
Q 956 3463 1253 3523 
Q 1550 3584 1831 3584 
Q 2591 3584 2966 3190 
Q 3341 2797 3341 1997 
z
" transform="scale(0.015625)"/>
        <path id="DejaVuSans-79" d="M 2059 -325 
Q 1816 -950 1584 -1140 
Q 1353 -1331 966 -1331 
L 506 -1331 
L 506 -850 
L 844 -850 
Q 1081 -850 1212 -737 
Q 1344 -625 1503 -206 
L 1606 56 
L 191 3500 
L 800 3500 
L 1894 763 
L 2988 3500 
L 3597 3500 
L 2059 -325 
z
" transform="scale(0.015625)"/>
       </defs>
       <use xlink:href="#DejaVuSans-20"/>
       <use xlink:href="#DejaVuSans-55" x="31.787109"/>
       <use xlink:href="#DejaVuSans-70" x="104.980469"/>
       <use xlink:href="#DejaVuSans-64" x="168.457031"/>
       <use xlink:href="#DejaVuSans-61" x="231.933594"/>
       <use xlink:href="#DejaVuSans-74" x="293.212891"/>
       <use xlink:href="#DejaVuSans-65" x="332.421875"/>
       <use xlink:href="#DejaVuSans-20" x="393.945312"/>
       <use xlink:href="#DejaVuSans-74" x="425.732422"/>
       <use xlink:href="#DejaVuSans-79" x="464.941406"/>
       <use xlink:href="#DejaVuSans-70" x="524.121094"/>
       <use xlink:href="#DejaVuSans-65" x="587.597656"/>
       <use xlink:href="#DejaVuSans-20" x="649.121094"/>
       <use xlink:href="#DejaVuSans-61" x="680.908203"/>
      </g>
     </g>
    </g>
    <g id="xtick_3">
     <g id="line2d_3">
      <g>
       <use xlink:href="#m92e7eeba12" x="388.5" y="352.44" style="stroke: #000000; stroke-width: 0.8"/>
      </g>
     </g>
     <g id="text_3">
      <!-- n-step DQTM  -->
      <g transform="translate(354.379687 367.038437) scale(0.1 -0.1)">
       <use xlink:href="#DejaVuSans-6e"/>
       <use xlink:href="#DejaVuSans-2d" x="63.378906"/>
       <use xlink:href="#DejaVuSans-73" x="99.462891"/>
       <use xlink:href="#DejaVuSans-74" x="151.5625"/>
       <use xlink:href="#DejaVuSans-65" x="190.771484"/>
       <use xlink:href="#DejaVuSans-70" x="252.294922"/>
       <use xlink:href="#DejaVuSans-20" x="315.771484"/>
       <use xlink:href="#DejaVuSans-44" x="347.558594"/>
       <use xlink:href="#DejaVuSans-51" x="424.560547"/>
       <use xlink:href="#DejaVuSans-54" x="503.271484"/>
       <use xlink:href="#DejaVuSans-4d" x="564.355469"/>
       <use xlink:href="#DejaVuSans-20" x="650.634766"/>
      </g>
      <!--  Update type b -->
      <g transform="translate(351.279688 378.23625) scale(0.1 -0.1)">
       <defs>
        <path id="DejaVuSans-62" d="M 3116 1747 
Q 3116 2381 2855 2742 
Q 2594 3103 2138 3103 
Q 1681 3103 1420 2742 
Q 1159 2381 1159 1747 
Q 1159 1113 1420 752 
Q 1681 391 2138 391 
Q 2594 391 2855 752 
Q 3116 1113 3116 1747 
z
M 1159 2969 
Q 1341 3281 1617 3432 
Q 1894 3584 2278 3584 
Q 2916 3584 3314 3078 
Q 3713 2572 3713 1747 
Q 3713 922 3314 415 
Q 2916 -91 2278 -91 
Q 1894 -91 1617 61 
Q 1341 213 1159 525 
L 1159 0 
L 581 0 
L 581 4863 
L 1159 4863 
L 1159 2969 
z
" transform="scale(0.015625)"/>
       </defs>
       <use xlink:href="#DejaVuSans-20"/>
       <use xlink:href="#DejaVuSans-55" x="31.787109"/>
       <use xlink:href="#DejaVuSans-70" x="104.980469"/>
       <use xlink:href="#DejaVuSans-64" x="168.457031"/>
       <use xlink:href="#DejaVuSans-61" x="231.933594"/>
       <use xlink:href="#DejaVuSans-74" x="293.212891"/>
       <use xlink:href="#DejaVuSans-65" x="332.421875"/>
       <use xlink:href="#DejaVuSans-20" x="393.945312"/>
       <use xlink:href="#DejaVuSans-74" x="425.732422"/>
       <use xlink:href="#DejaVuSans-79" x="464.941406"/>
       <use xlink:href="#DejaVuSans-70" x="524.121094"/>
       <use xlink:href="#DejaVuSans-65" x="587.597656"/>
       <use xlink:href="#DejaVuSans-20" x="649.121094"/>
       <use xlink:href="#DejaVuSans-62" x="680.908203"/>
      </g>
     </g>
    </g>
    <g id="text_4">
     <!-- Algorithm -->
     <g transform="translate(233.813281 391.914375) scale(0.1 -0.1)">
      <defs>
       <path id="DejaVuSans-41" d="M 2188 4044 
L 1331 1722 
L 3047 1722 
L 2188 4044 
z
M 1831 4666 
L 2547 4666 
L 4325 0 
L 3669 0 
L 3244 1197 
L 1141 1197 
L 716 0 
L 50 0 
L 1831 4666 
z
" transform="scale(0.015625)"/>
       <path id="DejaVuSans-6c" d="M 603 4863 
L 1178 4863 
L 1178 0 
L 603 0 
L 603 4863 
z
" transform="scale(0.015625)"/>
       <path id="DejaVuSans-67" d="M 2906 1791 
Q 2906 2416 2648 2759 
Q 2391 3103 1925 3103 
Q 1463 3103 1205 2759 
Q 947 2416 947 1791 
Q 947 1169 1205 825 
Q 1463 481 1925 481 
Q 2391 481 2648 825 
Q 2906 1169 2906 1791 
z
M 3481 434 
Q 3481 -459 3084 -895 
Q 2688 -1331 1869 -1331 
Q 1566 -1331 1297 -1286 
Q 1028 -1241 775 -1147 
L 775 -588 
Q 1028 -725 1275 -790 
Q 1522 -856 1778 -856 
Q 2344 -856 2625 -561 
Q 2906 -266 2906 331 
L 2906 616 
Q 2728 306 2450 153 
Q 2172 0 1784 0 
Q 1141 0 747 490 
Q 353 981 353 1791 
Q 353 2603 747 3093 
Q 1141 3584 1784 3584 
Q 2172 3584 2450 3431 
Q 2728 3278 2906 2969 
L 2906 3500 
L 3481 3500 
L 3481 434 
z
" transform="scale(0.015625)"/>
       <path id="DejaVuSans-6f" d="M 1959 3097 
Q 1497 3097 1228 2736 
Q 959 2375 959 1747 
Q 959 1119 1226 758 
Q 1494 397 1959 397 
Q 2419 397 2687 759 
Q 2956 1122 2956 1747 
Q 2956 2369 2687 2733 
Q 2419 3097 1959 3097 
z
M 1959 3584 
Q 2709 3584 3137 3096 
Q 3566 2609 3566 1747 
Q 3566 888 3137 398 
Q 2709 -91 1959 -91 
Q 1206 -91 779 398 
Q 353 888 353 1747 
Q 353 2609 779 3096 
Q 1206 3584 1959 3584 
z
" transform="scale(0.015625)"/>
       <path id="DejaVuSans-72" d="M 2631 2963 
Q 2534 3019 2420 3045 
Q 2306 3072 2169 3072 
Q 1681 3072 1420 2755 
Q 1159 2438 1159 1844 
L 1159 0 
L 581 0 
L 581 3500 
L 1159 3500 
L 1159 2956 
Q 1341 3275 1631 3429 
Q 1922 3584 2338 3584 
Q 2397 3584 2469 3576 
Q 2541 3569 2628 3553 
L 2631 2963 
z
" transform="scale(0.015625)"/>
       <path id="DejaVuSans-69" d="M 603 3500 
L 1178 3500 
L 1178 0 
L 603 0 
L 603 3500 
z
M 603 4863 
L 1178 4863 
L 1178 4134 
L 603 4134 
L 603 4863 
z
" transform="scale(0.015625)"/>
       <path id="DejaVuSans-68" d="M 3513 2113 
L 3513 0 
L 2938 0 
L 2938 2094 
Q 2938 2591 2744 2837 
Q 2550 3084 2163 3084 
Q 1697 3084 1428 2787 
Q 1159 2491 1159 1978 
L 1159 0 
L 581 0 
L 581 4863 
L 1159 4863 
L 1159 2956 
Q 1366 3272 1645 3428 
Q 1925 3584 2291 3584 
Q 2894 3584 3203 3211 
Q 3513 2838 3513 2113 
z
" transform="scale(0.015625)"/>
       <path id="DejaVuSans-6d" d="M 3328 2828 
Q 3544 3216 3844 3400 
Q 4144 3584 4550 3584 
Q 5097 3584 5394 3201 
Q 5691 2819 5691 2113 
L 5691 0 
L 5113 0 
L 5113 2094 
Q 5113 2597 4934 2840 
Q 4756 3084 4391 3084 
Q 3944 3084 3684 2787 
Q 3425 2491 3425 1978 
L 3425 0 
L 2847 0 
L 2847 2094 
Q 2847 2600 2669 2842 
Q 2491 3084 2119 3084 
Q 1678 3084 1418 2786 
Q 1159 2488 1159 1978 
L 1159 0 
L 581 0 
L 581 3500 
L 1159 3500 
L 1159 2956 
Q 1356 3278 1631 3431 
Q 1906 3584 2284 3584 
Q 2666 3584 2933 3390 
Q 3200 3197 3328 2828 
z
" transform="scale(0.015625)"/>
      </defs>
      <use xlink:href="#DejaVuSans-41"/>
      <use xlink:href="#DejaVuSans-6c" x="68.408203"/>
      <use xlink:href="#DejaVuSans-67" x="96.191406"/>
      <use xlink:href="#DejaVuSans-6f" x="159.667969"/>
      <use xlink:href="#DejaVuSans-72" x="220.849609"/>
      <use xlink:href="#DejaVuSans-69" x="261.962891"/>
      <use xlink:href="#DejaVuSans-74" x="289.746094"/>
      <use xlink:href="#DejaVuSans-68" x="328.955078"/>
      <use xlink:href="#DejaVuSans-6d" x="392.333984"/>
     </g>
    </g>
   </g>
   <g id="matplotlib.axis_2">
    <g id="ytick_1">
     <g id="line2d_4">
      <path d="M 63 322.53015 
L 453.6 322.53015 
" clip-path="url(#p0b17e14eee)" style="fill: none; stroke-dasharray: 2.96,1.28; stroke-dashoffset: 0; stroke: #b0b0b0; stroke-width: 0.8"/>
     </g>
     <g id="line2d_5">
      <defs>
       <path id="m094a2778bf" d="M 0 0 
L -3.5 0 
" style="stroke: #000000; stroke-width: 0.8"/>
      </defs>
      <g>
       <use xlink:href="#m094a2778bf" x="63" y="322.53015" style="stroke: #000000; stroke-width: 0.8"/>
      </g>
     </g>
     <g id="text_5">
      <!-- 0 -->
      <g transform="translate(49.6375 326.329369) scale(0.1 -0.1)">
       <defs>
        <path id="DejaVuSans-30" d="M 2034 4250 
Q 1547 4250 1301 3770 
Q 1056 3291 1056 2328 
Q 1056 1369 1301 889 
Q 1547 409 2034 409 
Q 2525 409 2770 889 
Q 3016 1369 3016 2328 
Q 3016 3291 2770 3770 
Q 2525 4250 2034 4250 
z
M 2034 4750 
Q 2819 4750 3233 4129 
Q 3647 3509 3647 2328 
Q 3647 1150 3233 529 
Q 2819 -91 2034 -91 
Q 1250 -91 836 529 
Q 422 1150 422 2328 
Q 422 3509 836 4129 
Q 1250 4750 2034 4750 
z
" transform="scale(0.015625)"/>
       </defs>
       <use xlink:href="#DejaVuSans-30"/>
      </g>
     </g>
    </g>
    <g id="ytick_2">
     <g id="line2d_6">
      <path d="M 63 274.406159 
L 453.6 274.406159 
" clip-path="url(#p0b17e14eee)" style="fill: none; stroke-dasharray: 2.96,1.28; stroke-dashoffset: 0; stroke: #b0b0b0; stroke-width: 0.8"/>
     </g>
     <g id="line2d_7">
      <g>
       <use xlink:href="#m094a2778bf" x="63" y="274.406159" style="stroke: #000000; stroke-width: 0.8"/>
      </g>
     </g>
     <g id="text_6">
      <!-- 100 -->
      <g transform="translate(36.9125 278.205377) scale(0.1 -0.1)">
       <defs>
        <path id="DejaVuSans-31" d="M 794 531 
L 1825 531 
L 1825 4091 
L 703 3866 
L 703 4441 
L 1819 4666 
L 2450 4666 
L 2450 531 
L 3481 531 
L 3481 0 
L 794 0 
L 794 531 
z
" transform="scale(0.015625)"/>
       </defs>
       <use xlink:href="#DejaVuSans-31"/>
       <use xlink:href="#DejaVuSans-30" x="63.623047"/>
       <use xlink:href="#DejaVuSans-30" x="127.246094"/>
      </g>
     </g>
    </g>
    <g id="ytick_3">
     <g id="line2d_8">
      <path d="M 63 226.282167 
L 453.6 226.282167 
" clip-path="url(#p0b17e14eee)" style="fill: none; stroke-dasharray: 2.96,1.28; stroke-dashoffset: 0; stroke: #b0b0b0; stroke-width: 0.8"/>
     </g>
     <g id="line2d_9">
      <g>
       <use xlink:href="#m094a2778bf" x="63" y="226.282167" style="stroke: #000000; stroke-width: 0.8"/>
      </g>
     </g>
     <g id="text_7">
      <!-- 200 -->
      <g transform="translate(36.9125 230.081386) scale(0.1 -0.1)">
       <defs>
        <path id="DejaVuSans-32" d="M 1228 531 
L 3431 531 
L 3431 0 
L 469 0 
L 469 531 
Q 828 903 1448 1529 
Q 2069 2156 2228 2338 
Q 2531 2678 2651 2914 
Q 2772 3150 2772 3378 
Q 2772 3750 2511 3984 
Q 2250 4219 1831 4219 
Q 1534 4219 1204 4116 
Q 875 4013 500 3803 
L 500 4441 
Q 881 4594 1212 4672 
Q 1544 4750 1819 4750 
Q 2544 4750 2975 4387 
Q 3406 4025 3406 3419 
Q 3406 3131 3298 2873 
Q 3191 2616 2906 2266 
Q 2828 2175 2409 1742 
Q 1991 1309 1228 531 
z
" transform="scale(0.015625)"/>
       </defs>
       <use xlink:href="#DejaVuSans-32"/>
       <use xlink:href="#DejaVuSans-30" x="63.623047"/>
       <use xlink:href="#DejaVuSans-30" x="127.246094"/>
      </g>
     </g>
    </g>
    <g id="ytick_4">
     <g id="line2d_10">
      <path d="M 63 178.158176 
L 453.6 178.158176 
" clip-path="url(#p0b17e14eee)" style="fill: none; stroke-dasharray: 2.96,1.28; stroke-dashoffset: 0; stroke: #b0b0b0; stroke-width: 0.8"/>
     </g>
     <g id="line2d_11">
      <g>
       <use xlink:href="#m094a2778bf" x="63" y="178.158176" style="stroke: #000000; stroke-width: 0.8"/>
      </g>
     </g>
     <g id="text_8">
      <!-- 300 -->
      <g transform="translate(36.9125 181.957395) scale(0.1 -0.1)">
       <defs>
        <path id="DejaVuSans-33" d="M 2597 2516 
Q 3050 2419 3304 2112 
Q 3559 1806 3559 1356 
Q 3559 666 3084 287 
Q 2609 -91 1734 -91 
Q 1441 -91 1130 -33 
Q 819 25 488 141 
L 488 750 
Q 750 597 1062 519 
Q 1375 441 1716 441 
Q 2309 441 2620 675 
Q 2931 909 2931 1356 
Q 2931 1769 2642 2001 
Q 2353 2234 1838 2234 
L 1294 2234 
L 1294 2753 
L 1863 2753 
Q 2328 2753 2575 2939 
Q 2822 3125 2822 3475 
Q 2822 3834 2567 4026 
Q 2313 4219 1838 4219 
Q 1578 4219 1281 4162 
Q 984 4106 628 3988 
L 628 4550 
Q 988 4650 1302 4700 
Q 1616 4750 1894 4750 
Q 2613 4750 3031 4423 
Q 3450 4097 3450 3541 
Q 3450 3153 3228 2886 
Q 3006 2619 2597 2516 
z
" transform="scale(0.015625)"/>
       </defs>
       <use xlink:href="#DejaVuSans-33"/>
       <use xlink:href="#DejaVuSans-30" x="63.623047"/>
       <use xlink:href="#DejaVuSans-30" x="127.246094"/>
      </g>
     </g>
    </g>
    <g id="ytick_5">
     <g id="line2d_12">
      <path d="M 63 130.034185 
L 453.6 130.034185 
" clip-path="url(#p0b17e14eee)" style="fill: none; stroke-dasharray: 2.96,1.28; stroke-dashoffset: 0; stroke: #b0b0b0; stroke-width: 0.8"/>
     </g>
     <g id="line2d_13">
      <g>
       <use xlink:href="#m094a2778bf" x="63" y="130.034185" style="stroke: #000000; stroke-width: 0.8"/>
      </g>
     </g>
     <g id="text_9">
      <!-- 400 -->
      <g transform="translate(36.9125 133.833404) scale(0.1 -0.1)">
       <defs>
        <path id="DejaVuSans-34" d="M 2419 4116 
L 825 1625 
L 2419 1625 
L 2419 4116 
z
M 2253 4666 
L 3047 4666 
L 3047 1625 
L 3713 1625 
L 3713 1100 
L 3047 1100 
L 3047 0 
L 2419 0 
L 2419 1100 
L 313 1100 
L 313 1709 
L 2253 4666 
z
" transform="scale(0.015625)"/>
       </defs>
       <use xlink:href="#DejaVuSans-34"/>
       <use xlink:href="#DejaVuSans-30" x="63.623047"/>
       <use xlink:href="#DejaVuSans-30" x="127.246094"/>
      </g>
     </g>
    </g>
    <g id="ytick_6">
     <g id="line2d_14">
      <path d="M 63 81.910194 
L 453.6 81.910194 
" clip-path="url(#p0b17e14eee)" style="fill: none; stroke-dasharray: 2.96,1.28; stroke-dashoffset: 0; stroke: #b0b0b0; stroke-width: 0.8"/>
     </g>
     <g id="line2d_15">
      <g>
       <use xlink:href="#m094a2778bf" x="63" y="81.910194" style="stroke: #000000; stroke-width: 0.8"/>
      </g>
     </g>
     <g id="text_10">
      <!-- 500 -->
      <g transform="translate(36.9125 85.709412) scale(0.1 -0.1)">
       <defs>
        <path id="DejaVuSans-35" d="M 691 4666 
L 3169 4666 
L 3169 4134 
L 1269 4134 
L 1269 2991 
Q 1406 3038 1543 3061 
Q 1681 3084 1819 3084 
Q 2600 3084 3056 2656 
Q 3513 2228 3513 1497 
Q 3513 744 3044 326 
Q 2575 -91 1722 -91 
Q 1428 -91 1123 -41 
Q 819 9 494 109 
L 494 744 
Q 775 591 1075 516 
Q 1375 441 1709 441 
Q 2250 441 2565 725 
Q 2881 1009 2881 1497 
Q 2881 1984 2565 2268 
Q 2250 2553 1709 2553 
Q 1456 2553 1204 2497 
Q 953 2441 691 2322 
L 691 4666 
z
" transform="scale(0.015625)"/>
       </defs>
       <use xlink:href="#DejaVuSans-35"/>
       <use xlink:href="#DejaVuSans-30" x="63.623047"/>
       <use xlink:href="#DejaVuSans-30" x="127.246094"/>
      </g>
     </g>
    </g>
    <g id="text_11">
     <!-- Mean rewards -->
     <g transform="translate(30.832812 235.112031) rotate(-90) scale(0.1 -0.1)">
      <defs>
       <path id="DejaVuSans-77" d="M 269 3500 
L 844 3500 
L 1563 769 
L 2278 3500 
L 2956 3500 
L 3675 769 
L 4391 3500 
L 4966 3500 
L 4050 0 
L 3372 0 
L 2619 2869 
L 1863 0 
L 1184 0 
L 269 3500 
z
" transform="scale(0.015625)"/>
      </defs>
      <use xlink:href="#DejaVuSans-4d"/>
      <use xlink:href="#DejaVuSans-65" x="86.279297"/>
      <use xlink:href="#DejaVuSans-61" x="147.802734"/>
      <use xlink:href="#DejaVuSans-6e" x="209.082031"/>
      <use xlink:href="#DejaVuSans-20" x="272.460938"/>
      <use xlink:href="#DejaVuSans-72" x="304.248047"/>
      <use xlink:href="#DejaVuSans-65" x="343.111328"/>
      <use xlink:href="#DejaVuSans-77" x="404.634766"/>
      <use xlink:href="#DejaVuSans-61" x="486.421875"/>
      <use xlink:href="#DejaVuSans-72" x="547.701172"/>
      <use xlink:href="#DejaVuSans-64" x="587.064453"/>
      <use xlink:href="#DejaVuSans-73" x="650.541016"/>
     </g>
    </g>
   </g>
   <g id="line2d_16">
    <path d="M 128.1 160.780603 
L 128.1 81.910194 
" clip-path="url(#p0b17e14eee)" style="fill: none; stroke: #3d3d3d; stroke-width: 1.5; stroke-linecap: square"/>
   </g>
   <g id="line2d_17">
    <path d="M 128.1 117.443746 
L 128.1 88.492353 
" clip-path="url(#p0b17e14eee)" style="fill: none; stroke: #3d3d3d; stroke-width: 4.5; stroke-linecap: square"/>
   </g>
   <g id="line2d_18">
    <path d="M 258.3 185.150592 
L 258.3 81.910194 
" clip-path="url(#p0b17e14eee)" style="fill: none; stroke: #3d3d3d; stroke-width: 1.5; stroke-linecap: square"/>
   </g>
   <g id="line2d_19">
    <path d="M 258.3 128.831085 
L 258.3 91.01405 
" clip-path="url(#p0b17e14eee)" style="fill: none; stroke: #3d3d3d; stroke-width: 4.5; stroke-linecap: square"/>
   </g>
   <g id="line2d_20">
    <path d="M 388.5 171.329382 
L 388.5 81.910194 
" clip-path="url(#p0b17e14eee)" style="fill: none; stroke: #3d3d3d; stroke-width: 1.5; stroke-linecap: square"/>
   </g>
   <g id="line2d_21">
    <path d="M 388.5 123.485713 
L 388.5 91.449572 
" clip-path="url(#p0b17e14eee)" style="fill: none; stroke: #3d3d3d; stroke-width: 4.5; stroke-linecap: square"/>
   </g>
   <g id="patch_3">
    <path d="M 63 352.44 
L 63 47.52 
" style="fill: none; stroke: #000000; stroke-width: 0.8; stroke-linejoin: miter; stroke-linecap: square"/>
   </g>
   <g id="patch_4">
    <path d="M 453.6 352.44 
L 453.6 47.52 
" style="fill: none; stroke: #000000; stroke-width: 0.8; stroke-linejoin: miter; stroke-linecap: square"/>
   </g>
   <g id="patch_5">
    <path d="M 63 352.44 
L 453.6 352.44 
" style="fill: none; stroke: #000000; stroke-width: 0.8; stroke-linejoin: miter; stroke-linecap: square"/>
   </g>
   <g id="patch_6">
    <path d="M 63 47.52 
L 453.6 47.52 
" style="fill: none; stroke: #000000; stroke-width: 0.8; stroke-linejoin: miter; stroke-linecap: square"/>
   </g>
   <g id="PathCollection_1">
    <defs>
     <path id="me8db928bf3" d="M 0 1.5 
C 0.397805 1.5 0.77937 1.341951 1.06066 1.06066 
C 1.341951 0.77937 1.5 0.397805 1.5 0 
C 1.5 -0.397805 1.341951 -0.77937 1.06066 -1.06066 
C 0.77937 -1.341951 0.397805 -1.5 0 -1.5 
C -0.397805 -1.5 -0.77937 -1.341951 -1.06066 -1.06066 
C -1.341951 -0.77937 -1.5 -0.397805 -1.5 0 
C -1.5 0.397805 -1.341951 0.77937 -1.06066 1.06066 
C -0.77937 1.341951 -0.397805 1.5 0 1.5 
z
" style="stroke: #3d3d3d"/>
    </defs>
    <g clip-path="url(#p0b17e14eee)">
     <use xlink:href="#me8db928bf3" x="128.1" y="98.034137" style="fill: #ffffff; stroke: #3d3d3d"/>
    </g>
   </g>
   <g id="PathCollection_2">
    <g clip-path="url(#p0b17e14eee)">
     <use xlink:href="#me8db928bf3" x="258.3" y="102.146332" style="fill: #ffffff; stroke: #3d3d3d"/>
    </g>
   </g>
   <g id="PathCollection_3">
    <g clip-path="url(#p0b17e14eee)">
     <use xlink:href="#me8db928bf3" x="388.5" y="101.191071" style="fill: #ffffff; stroke: #3d3d3d"/>
    </g>
   </g>
   <g id="text_12">
    <!-- Cartpole - n-step Q-Tsetlin-Machine -->
    <g transform="translate(153.177188 41.52) scale(0.12 -0.12)">
     <defs>
      <path id="DejaVuSans-43" d="M 4122 4306 
L 4122 3641 
Q 3803 3938 3442 4084 
Q 3081 4231 2675 4231 
Q 1875 4231 1450 3742 
Q 1025 3253 1025 2328 
Q 1025 1406 1450 917 
Q 1875 428 2675 428 
Q 3081 428 3442 575 
Q 3803 722 4122 1019 
L 4122 359 
Q 3791 134 3420 21 
Q 3050 -91 2638 -91 
Q 1578 -91 968 557 
Q 359 1206 359 2328 
Q 359 3453 968 4101 
Q 1578 4750 2638 4750 
Q 3056 4750 3426 4639 
Q 3797 4528 4122 4306 
z
" transform="scale(0.015625)"/>
      <path id="DejaVuSans-63" d="M 3122 3366 
L 3122 2828 
Q 2878 2963 2633 3030 
Q 2388 3097 2138 3097 
Q 1578 3097 1268 2742 
Q 959 2388 959 1747 
Q 959 1106 1268 751 
Q 1578 397 2138 397 
Q 2388 397 2633 464 
Q 2878 531 3122 666 
L 3122 134 
Q 2881 22 2623 -34 
Q 2366 -91 2075 -91 
Q 1284 -91 818 406 
Q 353 903 353 1747 
Q 353 2603 823 3093 
Q 1294 3584 2113 3584 
Q 2378 3584 2631 3529 
Q 2884 3475 3122 3366 
z
" transform="scale(0.015625)"/>
     </defs>
     <use xlink:href="#DejaVuSans-43"/>
     <use xlink:href="#DejaVuSans-61" x="69.824219"/>
     <use xlink:href="#DejaVuSans-72" x="131.103516"/>
     <use xlink:href="#DejaVuSans-74" x="172.216797"/>
     <use xlink:href="#DejaVuSans-70" x="211.425781"/>
     <use xlink:href="#DejaVuSans-6f" x="274.902344"/>
     <use xlink:href="#DejaVuSans-6c" x="336.083984"/>
     <use xlink:href="#DejaVuSans-65" x="363.867188"/>
     <use xlink:href="#DejaVuSans-20" x="425.390625"/>
     <use xlink:href="#DejaVuSans-2d" x="457.177734"/>
     <use xlink:href="#DejaVuSans-20" x="493.261719"/>
     <use xlink:href="#DejaVuSans-6e" x="525.048828"/>
     <use xlink:href="#DejaVuSans-2d" x="588.427734"/>
     <use xlink:href="#DejaVuSans-73" x="624.511719"/>
     <use xlink:href="#DejaVuSans-74" x="676.611328"/>
     <use xlink:href="#DejaVuSans-65" x="715.820312"/>
     <use xlink:href="#DejaVuSans-70" x="777.34375"/>
     <use xlink:href="#DejaVuSans-20" x="840.820312"/>
     <use xlink:href="#DejaVuSans-51" x="872.607422"/>
     <use xlink:href="#DejaVuSans-2d" x="954.068359"/>
     <use xlink:href="#DejaVuSans-54" x="981.027344"/>
     <use xlink:href="#DejaVuSans-73" x="1025.611328"/>
     <use xlink:href="#DejaVuSans-65" x="1077.710938"/>
     <use xlink:href="#DejaVuSans-74" x="1139.234375"/>
     <use xlink:href="#DejaVuSans-6c" x="1178.443359"/>
     <use xlink:href="#DejaVuSans-69" x="1206.226562"/>
     <use xlink:href="#DejaVuSans-6e" x="1234.009766"/>
     <use xlink:href="#DejaVuSans-2d" x="1297.388672"/>
     <use xlink:href="#DejaVuSans-4d" x="1333.472656"/>
     <use xlink:href="#DejaVuSans-61" x="1419.751953"/>
     <use xlink:href="#DejaVuSans-63" x="1481.03125"/>
     <use xlink:href="#DejaVuSans-68" x="1536.011719"/>
     <use xlink:href="#DejaVuSans-69" x="1599.390625"/>
     <use xlink:href="#DejaVuSans-6e" x="1627.173828"/>
     <use xlink:href="#DejaVuSans-65" x="1690.552734"/>
    </g>
   </g>
  </g>
 </g>
 <defs>
  <clipPath id="p0b17e14eee">
   <rect x="63" y="47.52" width="390.6" height="304.92"/>
  </clipPath>
 </defs>
</svg>
