<?xml version="1.0" encoding="utf-8" standalone="no"?>
<!DOCTYPE svg PUBLIC "-//W3C//DTD SVG 1.1//EN"
  "http://www.w3.org/Graphics/SVG/1.1/DTD/svg11.dtd">
<svg xmlns:xlink="http://www.w3.org/1999/xlink" width="504pt" height="396pt" viewBox="0 0 504 396" xmlns="http://www.w3.org/2000/svg" version="1.1">
 <metadata>
  <rdf:RDF xmlns:dc="http://purl.org/dc/elements/1.1/" xmlns:cc="http://creativecommons.org/ns#" xmlns:rdf="http://www.w3.org/1999/02/22-rdf-syntax-ns#">
   <cc:Work>
    <dc:type rdf:resource="http://purl.org/dc/dcmitype/StillImage"/>
    <dc:date>2024-05-10T18:49:40.723762</dc:date>
    <dc:format>image/svg+xml</dc:format>
    <dc:creator>
     <cc:Agent>
      <dc:title>Matplotlib v3.8.2, https://matplotlib.org/</dc:title>
     </cc:Agent>
    </dc:creator>
   </cc:Work>
  </rdf:RDF>
 </metadata>
 <defs>
  <style type="text/css">*{stroke-linejoin: round; stroke-linecap: butt}</style>
 </defs>
 <g id="figure_1">
  <g id="patch_1">
   <path d="M 0 396 
L 504 396 
L 504 0 
L 0 0 
z
" style="fill: #ffffff"/>
  </g>
  <g id="axes_1">
   <g id="patch_2">
    <path d="M 63 352.44 
L 453.6 352.44 
L 453.6 47.52 
L 63 47.52 
z
" style="fill: #ffffff"/>
   </g>
   <g id="PolyCollection_1">
    <defs>
     <path id="m324403f850" d="M 128.180976 -68.431032 
L 128.019024 -68.431032 
L 127.924658 -71.008822 
L 127.766898 -73.586612 
L 127.541609 -76.164402 
L 127.267427 -78.742192 
L 126.983929 -81.319982 
L 126.735975 -83.897771 
L 126.55396 -86.475561 
L 126.444366 -89.053351 
L 126.396005 -91.631141 
L 126.394045 -94.208931 
L 126.429601 -96.786721 
L 126.499618 -99.364511 
L 126.60096 -101.942301 
L 126.725686 -104.520091 
L 126.861219 -107.097881 
L 126.994424 -109.675671 
L 127.11621 -112.253461 
L 127.223504 -114.831251 
L 127.317145 -117.409041 
L 127.397261 -119.98683 
L 127.460378 -122.56462 
L 127.501694 -125.14241 
L 127.520772 -127.7202 
L 127.524622 -130.29799 
L 127.524241 -132.87578 
L 127.527245 -135.45357 
L 127.533108 -138.03136 
L 127.534912 -140.60915 
L 127.525924 -143.18694 
L 127.505856 -145.76473 
L 127.482389 -148.34252 
L 127.467131 -150.92031 
L 127.46903 -153.4981 
L 127.489788 -156.075889 
L 127.52379 -158.653679 
L 127.561466 -161.231469 
L 127.593036 -163.809259 
L 127.610766 -166.387049 
L 127.609867 -168.964839 
L 127.588583 -171.542629 
L 127.54715 -174.120419 
L 127.485443 -176.698209 
L 127.400716 -179.275999 
L 127.287574 -181.853789 
L 127.14076 -184.431579 
L 126.959004 -187.009369 
L 126.74724 -189.587159 
L 126.515184 -192.164948 
L 126.272169 -194.742738 
L 126.02112 -197.320528 
L 125.756843 -199.898318 
L 125.471701 -202.476108 
L 125.165469 -205.053898 
L 124.851694 -207.631688 
L 124.555619 -210.209478 
L 124.306 -212.787268 
L 124.127204 -215.365058 
L 124.035427 -217.942848 
L 124.037025 -220.520638 
L 124.12358 -223.098428 
L 124.261408 -225.676217 
L 124.381684 -228.254007 
L 124.382911 -230.831797 
L 124.150997 -233.409587 
L 123.586692 -235.987377 
L 122.621037 -238.565167 
L 121.207344 -241.142957 
L 119.296018 -243.720747 
L 116.812625 -246.298537 
L 113.662929 -248.876327 
L 109.779278 -251.454117 
L 105.199653 -254.031907 
L 100.140335 -256.609697 
L 95.00481 -259.187487 
L 90.287577 -261.765276 
L 86.389518 -264.343066 
L 83.437318 -266.920856 
L 81.236185 -269.498646 
L 79.428582 -272.076436 
L 77.791851 -274.654226 
L 76.480217 -277.232016 
L 76.02 -279.809806 
L 77.030225 -282.387596 
L 79.849023 -284.965386 
L 84.319857 -287.543176 
L 89.861727 -290.120966 
L 95.73614 -292.698756 
L 101.31801 -295.276546 
L 106.237703 -297.854335 
L 110.387023 -300.432125 
L 113.849733 -303.009915 
L 116.804399 -305.587705 
L 119.419668 -308.165495 
L 121.769929 -310.743285 
L 123.815043 -313.321075 
L 125.458786 -315.898865 
L 126.639607 -318.476655 
L 127.383528 -321.054445 
L 127.790503 -323.632235 
L 128.409497 -323.632235 
L 128.409497 -323.632235 
L 128.816472 -321.054445 
L 129.560393 -318.476655 
L 130.741214 -315.898865 
L 132.384957 -313.321075 
L 134.430071 -310.743285 
L 136.780332 -308.165495 
L 139.395601 -305.587705 
L 142.350267 -303.009915 
L 145.812977 -300.432125 
L 149.962297 -297.854335 
L 154.88199 -295.276546 
L 160.46386 -292.698756 
L 166.338273 -290.120966 
L 171.880143 -287.543176 
L 176.350977 -284.965386 
L 179.169775 -282.387596 
L 180.18 -279.809806 
L 179.719783 -277.232016 
L 178.408149 -274.654226 
L 176.771418 -272.076436 
L 174.963815 -269.498646 
L 172.762682 -266.920856 
L 169.810482 -264.343066 
L 165.912423 -261.765276 
L 161.19519 -259.187487 
L 156.059665 -256.609697 
L 151.000347 -254.031907 
L 146.420722 -251.454117 
L 142.537071 -248.876327 
L 139.387375 -246.298537 
L 136.903982 -243.720747 
L 134.992656 -241.142957 
L 133.578963 -238.565167 
L 132.613308 -235.987377 
L 132.049003 -233.409587 
L 131.817089 -230.831797 
L 131.818316 -228.254007 
L 131.938592 -225.676217 
L 132.07642 -223.098428 
L 132.162975 -220.520638 
L 132.164573 -217.942848 
L 132.072796 -215.365058 
L 131.894 -212.787268 
L 131.644381 -210.209478 
L 131.348306 -207.631688 
L 131.034531 -205.053898 
L 130.728299 -202.476108 
L 130.443157 -199.898318 
L 130.17888 -197.320528 
L 129.927831 -194.742738 
L 129.684816 -192.164948 
L 129.45276 -189.587159 
L 129.240996 -187.009369 
L 129.05924 -184.431579 
L 128.912426 -181.853789 
L 128.799284 -179.275999 
L 128.714557 -176.698209 
L 128.65285 -174.120419 
L 128.611417 -171.542629 
L 128.590133 -168.964839 
L 128.589234 -166.387049 
L 128.606964 -163.809259 
L 128.638534 -161.231469 
L 128.67621 -158.653679 
L 128.710212 -156.075889 
L 128.73097 -153.4981 
L 128.732869 -150.92031 
L 128.717611 -148.34252 
L 128.694144 -145.76473 
L 128.674076 -143.18694 
L 128.665088 -140.60915 
L 128.666892 -138.03136 
L 128.672755 -135.45357 
L 128.675759 -132.87578 
L 128.675378 -130.29799 
L 128.679228 -127.7202 
L 128.698306 -125.14241 
L 128.739622 -122.56462 
L 128.802739 -119.98683 
L 128.882855 -117.409041 
L 128.976496 -114.831251 
L 129.08379 -112.253461 
L 129.205576 -109.675671 
L 129.338781 -107.097881 
L 129.474314 -104.520091 
L 129.59904 -101.942301 
L 129.700382 -99.364511 
L 129.770399 -96.786721 
L 129.805955 -94.208931 
L 129.803995 -91.631141 
L 129.755634 -89.053351 
L 129.64604 -86.475561 
L 129.464025 -83.897771 
L 129.216071 -81.319982 
L 128.932573 -78.742192 
L 128.658391 -76.164402 
L 128.433102 -73.586612 
L 128.275342 -71.008822 
L 128.180976 -68.431032 
z
" style="stroke: #3d3d3d; stroke-width: 1.5"/>
    </defs>
    <g clip-path="url(#pf8560be2d3)">
     <use xlink:href="#m324403f850" x="0" y="396" style="fill: #3274a1; stroke: #3d3d3d; stroke-width: 1.5"/>
    </g>
   </g>
   <g id="PolyCollection_2">
    <defs>
     <path id="m5492cfbd60" d="M 258.341569 -66.887342 
L 258.258431 -66.887342 
L 258.21053 -69.497257 
L 258.126346 -72.107173 
L 257.995244 -74.717089 
L 257.814866 -77.327004 
L 257.596726 -79.93692 
L 257.36688 -82.546836 
L 257.159196 -85.156751 
L 257.003341 -87.766667 
L 256.913903 -90.376583 
L 256.88715 -92.986498 
L 256.906843 -95.596414 
L 256.954155 -98.20633 
L 257.014608 -100.816245 
L 257.078807 -103.426161 
L 257.13961 -106.036077 
L 257.190515 -108.645992 
L 257.227161 -111.255908 
L 257.249715 -113.865823 
L 257.263012 -116.475739 
L 257.273793 -119.085655 
L 257.287124 -121.69557 
L 257.3044 -124.305486 
L 257.323422 -126.915402 
L 257.339437 -129.525317 
L 257.346105 -132.135233 
L 257.336608 -134.745149 
L 257.305485 -137.355064 
L 257.250901 -139.96498 
L 257.176003 -142.574896 
L 257.088389 -145.184811 
L 256.997979 -147.794727 
L 256.914386 -150.404643 
L 256.844681 -153.014558 
L 256.791933 -155.624474 
L 256.754792 -158.23439 
L 256.728197 -160.844305 
L 256.704966 -163.454221 
L 256.677805 -166.064137 
L 256.641354 -168.674052 
L 256.593977 -171.283968 
L 256.538693 -173.893884 
L 256.482501 -176.503799 
L 256.43384 -179.113715 
L 256.398833 -181.723631 
L 256.377867 -184.333546 
L 256.364308 -186.943462 
L 256.346338 -189.553377 
L 256.311176 -192.163293 
L 256.249177 -194.773209 
L 256.154783 -197.383124 
L 256.023088 -199.99304 
L 255.84416 -202.602956 
L 255.600089 -205.212871 
L 255.269208 -207.822787 
L 254.83731 -210.432703 
L 254.309171 -213.042618 
L 253.710707 -215.652534 
L 253.076553 -218.26245 
L 252.428239 -220.872365 
L 251.756817 -223.482281 
L 251.022797 -226.092197 
L 250.17484 -228.702112 
L 249.174877 -231.312028 
L 248.012414 -233.921944 
L 246.699346 -236.531859 
L 245.252199 -239.141775 
L 243.678514 -241.751691 
L 241.979964 -244.361606 
L 240.170543 -246.971522 
L 238.296185 -249.581438 
L 236.441125 -252.191353 
L 234.714536 -254.801269 
L 233.220476 -257.411185 
L 232.020902 -260.0211 
L 231.106149 -262.631016 
L 230.389025 -265.240931 
L 229.732548 -267.850847 
L 229.005297 -270.460763 
L 228.13988 -273.070678 
L 227.162869 -275.680594 
L 226.176812 -278.29051 
L 225.301993 -280.900425 
L 224.611705 -283.510341 
L 224.102555 -286.120257 
L 223.7233 -288.730172 
L 223.451188 -291.340088 
L 223.374279 -293.950004 
L 223.728983 -296.559919 
L 224.857481 -299.169835 
L 227.083644 -301.779751 
L 230.549531 -304.389666 
L 235.091098 -306.999582 
L 240.232705 -309.609498 
L 245.325382 -312.219413 
L 249.767334 -314.829329 
L 253.191208 -317.439245 
L 255.52813 -320.04916 
L 256.942161 -322.659076 
L 257.701209 -325.268992 
L 258.898791 -325.268992 
L 258.898791 -325.268992 
L 259.657839 -322.659076 
L 261.07187 -320.04916 
L 263.408792 -317.439245 
L 266.832666 -314.829329 
L 271.274618 -312.219413 
L 276.367295 -309.609498 
L 281.508902 -306.999582 
L 286.050469 -304.389666 
L 289.516356 -301.779751 
L 291.742519 -299.169835 
L 292.871017 -296.559919 
L 293.225721 -293.950004 
L 293.148812 -291.340088 
L 292.8767 -288.730172 
L 292.497445 -286.120257 
L 291.988295 -283.510341 
L 291.298007 -280.900425 
L 290.423188 -278.29051 
L 289.437131 -275.680594 
L 288.46012 -273.070678 
L 287.594703 -270.460763 
L 286.867452 -267.850847 
L 286.210975 -265.240931 
L 285.493851 -262.631016 
L 284.579098 -260.0211 
L 283.379524 -257.411185 
L 281.885464 -254.801269 
L 280.158875 -252.191353 
L 278.303815 -249.581438 
L 276.429457 -246.971522 
L 274.620036 -244.361606 
L 272.921486 -241.751691 
L 271.347801 -239.141775 
L 269.900654 -236.531859 
L 268.587586 -233.921944 
L 267.425123 -231.312028 
L 266.42516 -228.702112 
L 265.577203 -226.092197 
L 264.843183 -223.482281 
L 264.171761 -220.872365 
L 263.523447 -218.26245 
L 262.889293 -215.652534 
L 262.290829 -213.042618 
L 261.76269 -210.432703 
L 261.330792 -207.822787 
L 260.999911 -205.212871 
L 260.75584 -202.602956 
L 260.576912 -199.99304 
L 260.445217 -197.383124 
L 260.350823 -194.773209 
L 260.288824 -192.163293 
L 260.253662 -189.553377 
L 260.235692 -186.943462 
L 260.222133 -184.333546 
L 260.201167 -181.723631 
L 260.16616 -179.113715 
L 260.117499 -176.503799 
L 260.061307 -173.893884 
L 260.006023 -171.283968 
L 259.958646 -168.674052 
L 259.922195 -166.064137 
L 259.895034 -163.454221 
L 259.871803 -160.844305 
L 259.845208 -158.23439 
L 259.808067 -155.624474 
L 259.755319 -153.014558 
L 259.685614 -150.404643 
L 259.602021 -147.794727 
L 259.511611 -145.184811 
L 259.423997 -142.574896 
L 259.349099 -139.96498 
L 259.294515 -137.355064 
L 259.263392 -134.745149 
L 259.253895 -132.135233 
L 259.260563 -129.525317 
L 259.276578 -126.915402 
L 259.2956 -124.305486 
L 259.312876 -121.69557 
L 259.326207 -119.085655 
L 259.336988 -116.475739 
L 259.350285 -113.865823 
L 259.372839 -111.255908 
L 259.409485 -108.645992 
L 259.46039 -106.036077 
L 259.521193 -103.426161 
L 259.585392 -100.816245 
L 259.645845 -98.20633 
L 259.693157 -95.596414 
L 259.71285 -92.986498 
L 259.686097 -90.376583 
L 259.596659 -87.766667 
L 259.440804 -85.156751 
L 259.23312 -82.546836 
L 259.003274 -79.93692 
L 258.785134 -77.327004 
L 258.604756 -74.717089 
L 258.473654 -72.107173 
L 258.38947 -69.497257 
L 258.341569 -66.887342 
z
" style="stroke: #3d3d3d; stroke-width: 1.5"/>
    </defs>
    <g clip-path="url(#pf8560be2d3)">
     <use xlink:href="#m5492cfbd60" x="0" y="396" style="fill: #e1812c; stroke: #3d3d3d; stroke-width: 1.5"/>
    </g>
   </g>
   <g id="PolyCollection_3">
    <defs>
     <path id="m9c373cb212" d="M 388.737762 -57.42 
L 388.262238 -57.42 
L 388.112757 -60.22 
L 387.899132 -63.02 
L 387.611134 -65.82 
L 387.245315 -68.62 
L 386.808219 -71.42 
L 386.318036 -74.22 
L 385.803694 -77.02 
L 385.301077 -79.82 
L 384.847001 -82.62 
L 384.472502 -85.42 
L 384.197333 -88.22 
L 384.02726 -91.02 
L 383.954746 -93.82 
L 383.96248 -96.62 
L 384.028366 -99.42 
L 384.130316 -102.22 
L 384.249622 -105.02 
L 384.372422 -107.82 
L 384.489512 -110.62 
L 384.595239 -113.42 
L 384.686228 -116.22 
L 384.760512 -119.02 
L 384.817211 -121.82 
L 384.856618 -124.62 
L 384.880361 -127.42 
L 384.891317 -130.22 
L 384.893143 -133.02 
L 384.889498 -135.82 
L 384.883216 -138.62 
L 384.875713 -141.42 
L 384.866846 -144.22 
L 384.855231 -147.02 
L 384.838876 -149.82 
L 384.815897 -152.62 
L 384.785155 -155.42 
L 384.746702 -158.22 
L 384.702033 -161.02 
L 384.654131 -163.82 
L 384.607248 -166.62 
L 384.566374 -169.42 
L 384.536392 -172.22 
L 384.521046 -175.02 
L 384.522012 -177.82 
L 384.538367 -180.62 
L 384.566666 -183.42 
L 384.601646 -186.22 
L 384.637307 -189.02 
L 384.668033 -191.82 
L 384.689398 -194.62 
L 384.698452 -197.42 
L 384.693496 -200.22 
L 384.673552 -203.02 
L 384.637787 -205.82 
L 384.585133 -208.62 
L 384.514208 -211.42 
L 384.423476 -214.22 
L 384.311498 -217.02 
L 384.177103 -219.82 
L 384.019358 -222.62 
L 383.837294 -225.42 
L 383.629455 -228.22 
L 383.393349 -231.02 
L 383.124948 -233.82 
L 382.818361 -236.62 
L 382.465817 -239.42 
L 382.058013 -242.22 
L 381.584769 -245.02 
L 381.03582 -247.82 
L 380.401479 -250.62 
L 379.672922 -253.42 
L 378.841944 -256.22 
L 377.90024 -259.02 
L 376.838448 -261.82 
L 375.645344 -264.62 
L 374.307629 -267.42 
L 372.81068 -270.22 
L 371.140542 -273.02 
L 369.287326 -275.82 
L 367.25016 -278.62 
L 365.043823 -281.42 
L 362.70696 -284.22 
L 360.311124 -287.02 
L 357.968668 -289.82 
L 355.836022 -292.62 
L 354.108025 -295.42 
L 352.999673 -298.22 
L 352.71471 -301.02 
L 353.405415 -303.82 
L 355.133031 -306.62 
L 357.840934 -309.42 
L 361.35097 -312.22 
L 365.387055 -315.02 
L 369.621406 -317.82 
L 373.731188 -320.62 
L 377.450216 -323.42 
L 380.602859 -326.22 
L 383.11411 -329.02 
L 384.9977 -331.82 
L 386.330025 -334.62 
L 390.669975 -334.62 
L 390.669975 -334.62 
L 392.0023 -331.82 
L 393.88589 -329.02 
L 396.397141 -326.22 
L 399.549784 -323.42 
L 403.268812 -320.62 
L 407.378594 -317.82 
L 411.612945 -315.02 
L 415.64903 -312.22 
L 419.159066 -309.42 
L 421.866969 -306.62 
L 423.594585 -303.82 
L 424.28529 -301.02 
L 424.000327 -298.22 
L 422.891975 -295.42 
L 421.163978 -292.62 
L 419.031332 -289.82 
L 416.688876 -287.02 
L 414.29304 -284.22 
L 411.956177 -281.42 
L 409.74984 -278.62 
L 407.712674 -275.82 
L 405.859458 -273.02 
L 404.18932 -270.22 
L 402.692371 -267.42 
L 401.354656 -264.62 
L 400.161552 -261.82 
L 399.09976 -259.02 
L 398.158056 -256.22 
L 397.327078 -253.42 
L 396.598521 -250.62 
L 395.96418 -247.82 
L 395.415231 -245.02 
L 394.941987 -242.22 
L 394.534183 -239.42 
L 394.181639 -236.62 
L 393.875052 -233.82 
L 393.606651 -231.02 
L 393.370545 -228.22 
L 393.162706 -225.42 
L 392.980642 -222.62 
L 392.822897 -219.82 
L 392.688502 -217.02 
L 392.576524 -214.22 
L 392.485792 -211.42 
L 392.414867 -208.62 
L 392.362213 -205.82 
L 392.326448 -203.02 
L 392.306504 -200.22 
L 392.301548 -197.42 
L 392.310602 -194.62 
L 392.331967 -191.82 
L 392.362693 -189.02 
L 392.398354 -186.22 
L 392.433334 -183.42 
L 392.461633 -180.62 
L 392.477988 -177.82 
L 392.478954 -175.02 
L 392.463608 -172.22 
L 392.433626 -169.42 
L 392.392752 -166.62 
L 392.345869 -163.82 
L 392.297967 -161.02 
L 392.253298 -158.22 
L 392.214845 -155.42 
L 392.184103 -152.62 
L 392.161124 -149.82 
L 392.144769 -147.02 
L 392.133154 -144.22 
L 392.124287 -141.42 
L 392.116784 -138.62 
L 392.110502 -135.82 
L 392.106857 -133.02 
L 392.108683 -130.22 
L 392.119639 -127.42 
L 392.143382 -124.62 
L 392.182789 -121.82 
L 392.239488 -119.02 
L 392.313772 -116.22 
L 392.404761 -113.42 
L 392.510488 -110.62 
L 392.627578 -107.82 
L 392.750378 -105.02 
L 392.869684 -102.22 
L 392.971634 -99.42 
L 393.03752 -96.62 
L 393.045254 -93.82 
L 392.97274 -91.02 
L 392.802667 -88.22 
L 392.527498 -85.42 
L 392.152999 -82.62 
L 391.698923 -79.82 
L 391.196306 -77.02 
L 390.681964 -74.22 
L 390.191781 -71.42 
L 389.754685 -68.62 
L 389.388866 -65.82 
L 389.100868 -63.02 
L 388.887243 -60.22 
L 388.737762 -57.42 
z
" style="stroke: #3d3d3d; stroke-width: 1.5"/>
    </defs>
    <g clip-path="url(#pf8560be2d3)">
     <use xlink:href="#m9c373cb212" x="0" y="396" style="fill: #3a923a; stroke: #3d3d3d; stroke-width: 1.5"/>
    </g>
   </g>
   <g id="matplotlib.axis_1">
    <g id="xtick_1">
     <g id="line2d_1">
      <defs>
       <path id="m9e1d817357" d="M 0 0 
L 0 3.5 
" style="stroke: #000000; stroke-width: 0.8"/>
      </defs>
      <g>
       <use xlink:href="#m9e1d817357" x="128.1" y="352.44" style="stroke: #000000; stroke-width: 0.8"/>
      </g>
     </g>
     <g id="text_1">
      <!-- QTM -->
      <g transform="translate(116.796094 367.038437) scale(0.1 -0.1)">
       <defs>
        <path id="DejaVuSans-51" d="M 2522 4238 
Q 1834 4238 1429 3725 
Q 1025 3213 1025 2328 
Q 1025 1447 1429 934 
Q 1834 422 2522 422 
Q 3209 422 3611 934 
Q 4013 1447 4013 2328 
Q 4013 3213 3611 3725 
Q 3209 4238 2522 4238 
z
M 3406 84 
L 4238 -825 
L 3475 -825 
L 2784 -78 
Q 2681 -84 2626 -87 
Q 2572 -91 2522 -91 
Q 1538 -91 948 567 
Q 359 1225 359 2328 
Q 359 3434 948 4092 
Q 1538 4750 2522 4750 
Q 3503 4750 4090 4092 
Q 4678 3434 4678 2328 
Q 4678 1516 4351 937 
Q 4025 359 3406 84 
z
" transform="scale(0.015625)"/>
        <path id="DejaVuSans-54" d="M -19 4666 
L 3928 4666 
L 3928 4134 
L 2272 4134 
L 2272 0 
L 1638 0 
L 1638 4134 
L -19 4134 
L -19 4666 
z
" transform="scale(0.015625)"/>
        <path id="DejaVuSans-4d" d="M 628 4666 
L 1569 4666 
L 2759 1491 
L 3956 4666 
L 4897 4666 
L 4897 0 
L 4281 0 
L 4281 4097 
L 3078 897 
L 2444 897 
L 1241 4097 
L 1241 0 
L 628 0 
L 628 4666 
z
" transform="scale(0.015625)"/>
       </defs>
       <use xlink:href="#DejaVuSans-51"/>
       <use xlink:href="#DejaVuSans-54" x="78.710938"/>
       <use xlink:href="#DejaVuSans-4d" x="139.794922"/>
      </g>
     </g>
    </g>
    <g id="xtick_2">
     <g id="line2d_2">
      <g>
       <use xlink:href="#m9e1d817357" x="258.3" y="352.44" style="stroke: #000000; stroke-width: 0.8"/>
      </g>
     </g>
     <g id="text_2">
      <!-- DQTM  -->
      <g transform="translate(241.557031 367.038437) scale(0.1 -0.1)">
       <defs>
        <path id="DejaVuSans-44" d="M 1259 4147 
L 1259 519 
L 2022 519 
Q 2988 519 3436 956 
Q 3884 1394 3884 2338 
Q 3884 3275 3436 3711 
Q 2988 4147 2022 4147 
L 1259 4147 
z
M 628 4666 
L 1925 4666 
Q 3281 4666 3915 4102 
Q 4550 3538 4550 2338 
Q 4550 1131 3912 565 
Q 3275 0 1925 0 
L 628 0 
L 628 4666 
z
" transform="scale(0.015625)"/>
        <path id="DejaVuSans-20" transform="scale(0.015625)"/>
       </defs>
       <use xlink:href="#DejaVuSans-44"/>
       <use xlink:href="#DejaVuSans-51" x="77.001953"/>
       <use xlink:href="#DejaVuSans-54" x="155.712891"/>
       <use xlink:href="#DejaVuSans-4d" x="216.796875"/>
       <use xlink:href="#DejaVuSans-20" x="303.076172"/>
      </g>
      <!--  Update type a -->
      <g transform="translate(221.189844 378.23625) scale(0.1 -0.1)">
       <defs>
        <path id="DejaVuSans-55" d="M 556 4666 
L 1191 4666 
L 1191 1831 
Q 1191 1081 1462 751 
Q 1734 422 2344 422 
Q 2950 422 3222 751 
Q 3494 1081 3494 1831 
L 3494 4666 
L 4128 4666 
L 4128 1753 
Q 4128 841 3676 375 
Q 3225 -91 2344 -91 
Q 1459 -91 1007 375 
Q 556 841 556 1753 
L 556 4666 
z
" transform="scale(0.015625)"/>
        <path id="DejaVuSans-70" d="M 1159 525 
L 1159 -1331 
L 581 -1331 
L 581 3500 
L 1159 3500 
L 1159 2969 
Q 1341 3281 1617 3432 
Q 1894 3584 2278 3584 
Q 2916 3584 3314 3078 
Q 3713 2572 3713 1747 
Q 3713 922 3314 415 
Q 2916 -91 2278 -91 
Q 1894 -91 1617 61 
Q 1341 213 1159 525 
z
M 3116 1747 
Q 3116 2381 2855 2742 
Q 2594 3103 2138 3103 
Q 1681 3103 1420 2742 
Q 1159 2381 1159 1747 
Q 1159 1113 1420 752 
Q 1681 391 2138 391 
Q 2594 391 2855 752 
Q 3116 1113 3116 1747 
z
" transform="scale(0.015625)"/>
        <path id="DejaVuSans-64" d="M 2906 2969 
L 2906 4863 
L 3481 4863 
L 3481 0 
L 2906 0 
L 2906 525 
Q 2725 213 2448 61 
Q 2172 -91 1784 -91 
Q 1150 -91 751 415 
Q 353 922 353 1747 
Q 353 2572 751 3078 
Q 1150 3584 1784 3584 
Q 2172 3584 2448 3432 
Q 2725 3281 2906 2969 
z
M 947 1747 
Q 947 1113 1208 752 
Q 1469 391 1925 391 
Q 2381 391 2643 752 
Q 2906 1113 2906 1747 
Q 2906 2381 2643 2742 
Q 2381 3103 1925 3103 
Q 1469 3103 1208 2742 
Q 947 2381 947 1747 
z
" transform="scale(0.015625)"/>
        <path id="DejaVuSans-61" d="M 2194 1759 
Q 1497 1759 1228 1600 
Q 959 1441 959 1056 
Q 959 750 1161 570 
Q 1363 391 1709 391 
Q 2188 391 2477 730 
Q 2766 1069 2766 1631 
L 2766 1759 
L 2194 1759 
z
M 3341 1997 
L 3341 0 
L 2766 0 
L 2766 531 
Q 2569 213 2275 61 
Q 1981 -91 1556 -91 
Q 1019 -91 701 211 
Q 384 513 384 1019 
Q 384 1609 779 1909 
Q 1175 2209 1959 2209 
L 2766 2209 
L 2766 2266 
Q 2766 2663 2505 2880 
Q 2244 3097 1772 3097 
Q 1472 3097 1187 3025 
Q 903 2953 641 2809 
L 641 3341 
Q 956 3463 1253 3523 
Q 1550 3584 1831 3584 
Q 2591 3584 2966 3190 
Q 3341 2797 3341 1997 
z
" transform="scale(0.015625)"/>
        <path id="DejaVuSans-74" d="M 1172 4494 
L 1172 3500 
L 2356 3500 
L 2356 3053 
L 1172 3053 
L 1172 1153 
Q 1172 725 1289 603 
Q 1406 481 1766 481 
L 2356 481 
L 2356 0 
L 1766 0 
Q 1100 0 847 248 
Q 594 497 594 1153 
L 594 3053 
L 172 3053 
L 172 3500 
L 594 3500 
L 594 4494 
L 1172 4494 
z
" transform="scale(0.015625)"/>
        <path id="DejaVuSans-65" d="M 3597 1894 
L 3597 1613 
L 953 1613 
Q 991 1019 1311 708 
Q 1631 397 2203 397 
Q 2534 397 2845 478 
Q 3156 559 3463 722 
L 3463 178 
Q 3153 47 2828 -22 
Q 2503 -91 2169 -91 
Q 1331 -91 842 396 
Q 353 884 353 1716 
Q 353 2575 817 3079 
Q 1281 3584 2069 3584 
Q 2775 3584 3186 3129 
Q 3597 2675 3597 1894 
z
M 3022 2063 
Q 3016 2534 2758 2815 
Q 2500 3097 2075 3097 
Q 1594 3097 1305 2825 
Q 1016 2553 972 2059 
L 3022 2063 
z
" transform="scale(0.015625)"/>
        <path id="DejaVuSans-79" d="M 2059 -325 
Q 1816 -950 1584 -1140 
Q 1353 -1331 966 -1331 
L 506 -1331 
L 506 -850 
L 844 -850 
Q 1081 -850 1212 -737 
Q 1344 -625 1503 -206 
L 1606 56 
L 191 3500 
L 800 3500 
L 1894 763 
L 2988 3500 
L 3597 3500 
L 2059 -325 
z
" transform="scale(0.015625)"/>
       </defs>
       <use xlink:href="#DejaVuSans-20"/>
       <use xlink:href="#DejaVuSans-55" x="31.787109"/>
       <use xlink:href="#DejaVuSans-70" x="104.980469"/>
       <use xlink:href="#DejaVuSans-64" x="168.457031"/>
       <use xlink:href="#DejaVuSans-61" x="231.933594"/>
       <use xlink:href="#DejaVuSans-74" x="293.212891"/>
       <use xlink:href="#DejaVuSans-65" x="332.421875"/>
       <use xlink:href="#DejaVuSans-20" x="393.945312"/>
       <use xlink:href="#DejaVuSans-74" x="425.732422"/>
       <use xlink:href="#DejaVuSans-79" x="464.941406"/>
       <use xlink:href="#DejaVuSans-70" x="524.121094"/>
       <use xlink:href="#DejaVuSans-65" x="587.597656"/>
       <use xlink:href="#DejaVuSans-20" x="649.121094"/>
       <use xlink:href="#DejaVuSans-61" x="680.908203"/>
      </g>
     </g>
    </g>
    <g id="xtick_3">
     <g id="line2d_3">
      <g>
       <use xlink:href="#m9e1d817357" x="388.5" y="352.44" style="stroke: #000000; stroke-width: 0.8"/>
      </g>
     </g>
     <g id="text_3">
      <!-- DQTM  -->
      <g transform="translate(371.757031 367.038437) scale(0.1 -0.1)">
       <use xlink:href="#DejaVuSans-44"/>
       <use xlink:href="#DejaVuSans-51" x="77.001953"/>
       <use xlink:href="#DejaVuSans-54" x="155.712891"/>
       <use xlink:href="#DejaVuSans-4d" x="216.796875"/>
       <use xlink:href="#DejaVuSans-20" x="303.076172"/>
      </g>
      <!--  Update type b -->
      <g transform="translate(351.279688 378.23625) scale(0.1 -0.1)">
       <defs>
        <path id="DejaVuSans-62" d="M 3116 1747 
Q 3116 2381 2855 2742 
Q 2594 3103 2138 3103 
Q 1681 3103 1420 2742 
Q 1159 2381 1159 1747 
Q 1159 1113 1420 752 
Q 1681 391 2138 391 
Q 2594 391 2855 752 
Q 3116 1113 3116 1747 
z
M 1159 2969 
Q 1341 3281 1617 3432 
Q 1894 3584 2278 3584 
Q 2916 3584 3314 3078 
Q 3713 2572 3713 1747 
Q 3713 922 3314 415 
Q 2916 -91 2278 -91 
Q 1894 -91 1617 61 
Q 1341 213 1159 525 
L 1159 0 
L 581 0 
L 581 4863 
L 1159 4863 
L 1159 2969 
z
" transform="scale(0.015625)"/>
       </defs>
       <use xlink:href="#DejaVuSans-20"/>
       <use xlink:href="#DejaVuSans-55" x="31.787109"/>
       <use xlink:href="#DejaVuSans-70" x="104.980469"/>
       <use xlink:href="#DejaVuSans-64" x="168.457031"/>
       <use xlink:href="#DejaVuSans-61" x="231.933594"/>
       <use xlink:href="#DejaVuSans-74" x="293.212891"/>
       <use xlink:href="#DejaVuSans-65" x="332.421875"/>
       <use xlink:href="#DejaVuSans-20" x="393.945312"/>
       <use xlink:href="#DejaVuSans-74" x="425.732422"/>
       <use xlink:href="#DejaVuSans-79" x="464.941406"/>
       <use xlink:href="#DejaVuSans-70" x="524.121094"/>
       <use xlink:href="#DejaVuSans-65" x="587.597656"/>
       <use xlink:href="#DejaVuSans-20" x="649.121094"/>
       <use xlink:href="#DejaVuSans-62" x="680.908203"/>
      </g>
     </g>
    </g>
    <g id="text_4">
     <!-- Algorithm -->
     <g transform="translate(233.813281 391.914375) scale(0.1 -0.1)">
      <defs>
       <path id="DejaVuSans-41" d="M 2188 4044 
L 1331 1722 
L 3047 1722 
L 2188 4044 
z
M 1831 4666 
L 2547 4666 
L 4325 0 
L 3669 0 
L 3244 1197 
L 1141 1197 
L 716 0 
L 50 0 
L 1831 4666 
z
" transform="scale(0.015625)"/>
       <path id="DejaVuSans-6c" d="M 603 4863 
L 1178 4863 
L 1178 0 
L 603 0 
L 603 4863 
z
" transform="scale(0.015625)"/>
       <path id="DejaVuSans-67" d="M 2906 1791 
Q 2906 2416 2648 2759 
Q 2391 3103 1925 3103 
Q 1463 3103 1205 2759 
Q 947 2416 947 1791 
Q 947 1169 1205 825 
Q 1463 481 1925 481 
Q 2391 481 2648 825 
Q 2906 1169 2906 1791 
z
M 3481 434 
Q 3481 -459 3084 -895 
Q 2688 -1331 1869 -1331 
Q 1566 -1331 1297 -1286 
Q 1028 -1241 775 -1147 
L 775 -588 
Q 1028 -725 1275 -790 
Q 1522 -856 1778 -856 
Q 2344 -856 2625 -561 
Q 2906 -266 2906 331 
L 2906 616 
Q 2728 306 2450 153 
Q 2172 0 1784 0 
Q 1141 0 747 490 
Q 353 981 353 1791 
Q 353 2603 747 3093 
Q 1141 3584 1784 3584 
Q 2172 3584 2450 3431 
Q 2728 3278 2906 2969 
L 2906 3500 
L 3481 3500 
L 3481 434 
z
" transform="scale(0.015625)"/>
       <path id="DejaVuSans-6f" d="M 1959 3097 
Q 1497 3097 1228 2736 
Q 959 2375 959 1747 
Q 959 1119 1226 758 
Q 1494 397 1959 397 
Q 2419 397 2687 759 
Q 2956 1122 2956 1747 
Q 2956 2369 2687 2733 
Q 2419 3097 1959 3097 
z
M 1959 3584 
Q 2709 3584 3137 3096 
Q 3566 2609 3566 1747 
Q 3566 888 3137 398 
Q 2709 -91 1959 -91 
Q 1206 -91 779 398 
Q 353 888 353 1747 
Q 353 2609 779 3096 
Q 1206 3584 1959 3584 
z
" transform="scale(0.015625)"/>
       <path id="DejaVuSans-72" d="M 2631 2963 
Q 2534 3019 2420 3045 
Q 2306 3072 2169 3072 
Q 1681 3072 1420 2755 
Q 1159 2438 1159 1844 
L 1159 0 
L 581 0 
L 581 3500 
L 1159 3500 
L 1159 2956 
Q 1341 3275 1631 3429 
Q 1922 3584 2338 3584 
Q 2397 3584 2469 3576 
Q 2541 3569 2628 3553 
L 2631 2963 
z
" transform="scale(0.015625)"/>
       <path id="DejaVuSans-69" d="M 603 3500 
L 1178 3500 
L 1178 0 
L 603 0 
L 603 3500 
z
M 603 4863 
L 1178 4863 
L 1178 4134 
L 603 4134 
L 603 4863 
z
" transform="scale(0.015625)"/>
       <path id="DejaVuSans-68" d="M 3513 2113 
L 3513 0 
L 2938 0 
L 2938 2094 
Q 2938 2591 2744 2837 
Q 2550 3084 2163 3084 
Q 1697 3084 1428 2787 
Q 1159 2491 1159 1978 
L 1159 0 
L 581 0 
L 581 4863 
L 1159 4863 
L 1159 2956 
Q 1366 3272 1645 3428 
Q 1925 3584 2291 3584 
Q 2894 3584 3203 3211 
Q 3513 2838 3513 2113 
z
" transform="scale(0.015625)"/>
       <path id="DejaVuSans-6d" d="M 3328 2828 
Q 3544 3216 3844 3400 
Q 4144 3584 4550 3584 
Q 5097 3584 5394 3201 
Q 5691 2819 5691 2113 
L 5691 0 
L 5113 0 
L 5113 2094 
Q 5113 2597 4934 2840 
Q 4756 3084 4391 3084 
Q 3944 3084 3684 2787 
Q 3425 2491 3425 1978 
L 3425 0 
L 2847 0 
L 2847 2094 
Q 2847 2600 2669 2842 
Q 2491 3084 2119 3084 
Q 1678 3084 1418 2786 
Q 1159 2488 1159 1978 
L 1159 0 
L 581 0 
L 581 3500 
L 1159 3500 
L 1159 2956 
Q 1356 3278 1631 3431 
Q 1906 3584 2284 3584 
Q 2666 3584 2933 3390 
Q 3200 3197 3328 2828 
z
" transform="scale(0.015625)"/>
      </defs>
      <use xlink:href="#DejaVuSans-41"/>
      <use xlink:href="#DejaVuSans-6c" x="68.408203"/>
      <use xlink:href="#DejaVuSans-67" x="96.191406"/>
      <use xlink:href="#DejaVuSans-6f" x="159.667969"/>
      <use xlink:href="#DejaVuSans-72" x="220.849609"/>
      <use xlink:href="#DejaVuSans-69" x="261.962891"/>
      <use xlink:href="#DejaVuSans-74" x="289.746094"/>
      <use xlink:href="#DejaVuSans-68" x="328.955078"/>
      <use xlink:href="#DejaVuSans-6d" x="392.333984"/>
     </g>
    </g>
   </g>
   <g id="matplotlib.axis_2">
    <g id="ytick_1">
     <g id="line2d_4">
      <path d="M 63 318.421172 
L 453.6 318.421172 
" clip-path="url(#pf8560be2d3)" style="fill: none; stroke-dasharray: 2.96,1.28; stroke-dashoffset: 0; stroke: #b0b0b0; stroke-width: 0.8"/>
     </g>
     <g id="line2d_5">
      <defs>
       <path id="mb75dfae527" d="M 0 0 
L -3.5 0 
" style="stroke: #000000; stroke-width: 0.8"/>
      </defs>
      <g>
       <use xlink:href="#mb75dfae527" x="63" y="318.421172" style="stroke: #000000; stroke-width: 0.8"/>
      </g>
     </g>
     <g id="text_5">
      <!-- 0 -->
      <g transform="translate(49.6375 322.22039) scale(0.1 -0.1)">
       <defs>
        <path id="DejaVuSans-30" d="M 2034 4250 
Q 1547 4250 1301 3770 
Q 1056 3291 1056 2328 
Q 1056 1369 1301 889 
Q 1547 409 2034 409 
Q 2525 409 2770 889 
Q 3016 1369 3016 2328 
Q 3016 3291 2770 3770 
Q 2525 4250 2034 4250 
z
M 2034 4750 
Q 2819 4750 3233 4129 
Q 3647 3509 3647 2328 
Q 3647 1150 3233 529 
Q 2819 -91 2034 -91 
Q 1250 -91 836 529 
Q 422 1150 422 2328 
Q 422 3509 836 4129 
Q 1250 4750 2034 4750 
z
" transform="scale(0.015625)"/>
       </defs>
       <use xlink:href="#DejaVuSans-30"/>
      </g>
     </g>
    </g>
    <g id="ytick_2">
     <g id="line2d_6">
      <path d="M 63 271.887886 
L 453.6 271.887886 
" clip-path="url(#pf8560be2d3)" style="fill: none; stroke-dasharray: 2.96,1.28; stroke-dashoffset: 0; stroke: #b0b0b0; stroke-width: 0.8"/>
     </g>
     <g id="line2d_7">
      <g>
       <use xlink:href="#mb75dfae527" x="63" y="271.887886" style="stroke: #000000; stroke-width: 0.8"/>
      </g>
     </g>
     <g id="text_6">
      <!-- 100 -->
      <g transform="translate(36.9125 275.687105) scale(0.1 -0.1)">
       <defs>
        <path id="DejaVuSans-31" d="M 794 531 
L 1825 531 
L 1825 4091 
L 703 3866 
L 703 4441 
L 1819 4666 
L 2450 4666 
L 2450 531 
L 3481 531 
L 3481 0 
L 794 0 
L 794 531 
z
" transform="scale(0.015625)"/>
       </defs>
       <use xlink:href="#DejaVuSans-31"/>
       <use xlink:href="#DejaVuSans-30" x="63.623047"/>
       <use xlink:href="#DejaVuSans-30" x="127.246094"/>
      </g>
     </g>
    </g>
    <g id="ytick_3">
     <g id="line2d_8">
      <path d="M 63 225.354601 
L 453.6 225.354601 
" clip-path="url(#pf8560be2d3)" style="fill: none; stroke-dasharray: 2.96,1.28; stroke-dashoffset: 0; stroke: #b0b0b0; stroke-width: 0.8"/>
     </g>
     <g id="line2d_9">
      <g>
       <use xlink:href="#mb75dfae527" x="63" y="225.354601" style="stroke: #000000; stroke-width: 0.8"/>
      </g>
     </g>
     <g id="text_7">
      <!-- 200 -->
      <g transform="translate(36.9125 229.153819) scale(0.1 -0.1)">
       <defs>
        <path id="DejaVuSans-32" d="M 1228 531 
L 3431 531 
L 3431 0 
L 469 0 
L 469 531 
Q 828 903 1448 1529 
Q 2069 2156 2228 2338 
Q 2531 2678 2651 2914 
Q 2772 3150 2772 3378 
Q 2772 3750 2511 3984 
Q 2250 4219 1831 4219 
Q 1534 4219 1204 4116 
Q 875 4013 500 3803 
L 500 4441 
Q 881 4594 1212 4672 
Q 1544 4750 1819 4750 
Q 2544 4750 2975 4387 
Q 3406 4025 3406 3419 
Q 3406 3131 3298 2873 
Q 3191 2616 2906 2266 
Q 2828 2175 2409 1742 
Q 1991 1309 1228 531 
z
" transform="scale(0.015625)"/>
       </defs>
       <use xlink:href="#DejaVuSans-32"/>
       <use xlink:href="#DejaVuSans-30" x="63.623047"/>
       <use xlink:href="#DejaVuSans-30" x="127.246094"/>
      </g>
     </g>
    </g>
    <g id="ytick_4">
     <g id="line2d_10">
      <path d="M 63 178.821315 
L 453.6 178.821315 
" clip-path="url(#pf8560be2d3)" style="fill: none; stroke-dasharray: 2.96,1.28; stroke-dashoffset: 0; stroke: #b0b0b0; stroke-width: 0.8"/>
     </g>
     <g id="line2d_11">
      <g>
       <use xlink:href="#mb75dfae527" x="63" y="178.821315" style="stroke: #000000; stroke-width: 0.8"/>
      </g>
     </g>
     <g id="text_8">
      <!-- 300 -->
      <g transform="translate(36.9125 182.620534) scale(0.1 -0.1)">
       <defs>
        <path id="DejaVuSans-33" d="M 2597 2516 
Q 3050 2419 3304 2112 
Q 3559 1806 3559 1356 
Q 3559 666 3084 287 
Q 2609 -91 1734 -91 
Q 1441 -91 1130 -33 
Q 819 25 488 141 
L 488 750 
Q 750 597 1062 519 
Q 1375 441 1716 441 
Q 2309 441 2620 675 
Q 2931 909 2931 1356 
Q 2931 1769 2642 2001 
Q 2353 2234 1838 2234 
L 1294 2234 
L 1294 2753 
L 1863 2753 
Q 2328 2753 2575 2939 
Q 2822 3125 2822 3475 
Q 2822 3834 2567 4026 
Q 2313 4219 1838 4219 
Q 1578 4219 1281 4162 
Q 984 4106 628 3988 
L 628 4550 
Q 988 4650 1302 4700 
Q 1616 4750 1894 4750 
Q 2613 4750 3031 4423 
Q 3450 4097 3450 3541 
Q 3450 3153 3228 2886 
Q 3006 2619 2597 2516 
z
" transform="scale(0.015625)"/>
       </defs>
       <use xlink:href="#DejaVuSans-33"/>
       <use xlink:href="#DejaVuSans-30" x="63.623047"/>
       <use xlink:href="#DejaVuSans-30" x="127.246094"/>
      </g>
     </g>
    </g>
    <g id="ytick_5">
     <g id="line2d_12">
      <path d="M 63 132.28803 
L 453.6 132.28803 
" clip-path="url(#pf8560be2d3)" style="fill: none; stroke-dasharray: 2.96,1.28; stroke-dashoffset: 0; stroke: #b0b0b0; stroke-width: 0.8"/>
     </g>
     <g id="line2d_13">
      <g>
       <use xlink:href="#mb75dfae527" x="63" y="132.28803" style="stroke: #000000; stroke-width: 0.8"/>
      </g>
     </g>
     <g id="text_9">
      <!-- 400 -->
      <g transform="translate(36.9125 136.087248) scale(0.1 -0.1)">
       <defs>
        <path id="DejaVuSans-34" d="M 2419 4116 
L 825 1625 
L 2419 1625 
L 2419 4116 
z
M 2253 4666 
L 3047 4666 
L 3047 1625 
L 3713 1625 
L 3713 1100 
L 3047 1100 
L 3047 0 
L 2419 0 
L 2419 1100 
L 313 1100 
L 313 1709 
L 2253 4666 
z
" transform="scale(0.015625)"/>
       </defs>
       <use xlink:href="#DejaVuSans-34"/>
       <use xlink:href="#DejaVuSans-30" x="63.623047"/>
       <use xlink:href="#DejaVuSans-30" x="127.246094"/>
      </g>
     </g>
    </g>
    <g id="ytick_6">
     <g id="line2d_14">
      <path d="M 63 85.754744 
L 453.6 85.754744 
" clip-path="url(#pf8560be2d3)" style="fill: none; stroke-dasharray: 2.96,1.28; stroke-dashoffset: 0; stroke: #b0b0b0; stroke-width: 0.8"/>
     </g>
     <g id="line2d_15">
      <g>
       <use xlink:href="#mb75dfae527" x="63" y="85.754744" style="stroke: #000000; stroke-width: 0.8"/>
      </g>
     </g>
     <g id="text_10">
      <!-- 500 -->
      <g transform="translate(36.9125 89.553963) scale(0.1 -0.1)">
       <defs>
        <path id="DejaVuSans-35" d="M 691 4666 
L 3169 4666 
L 3169 4134 
L 1269 4134 
L 1269 2991 
Q 1406 3038 1543 3061 
Q 1681 3084 1819 3084 
Q 2600 3084 3056 2656 
Q 3513 2228 3513 1497 
Q 3513 744 3044 326 
Q 2575 -91 1722 -91 
Q 1428 -91 1123 -41 
Q 819 9 494 109 
L 494 744 
Q 775 591 1075 516 
Q 1375 441 1709 441 
Q 2250 441 2565 725 
Q 2881 1009 2881 1497 
Q 2881 1984 2565 2268 
Q 2250 2553 1709 2553 
Q 1456 2553 1204 2497 
Q 953 2441 691 2322 
L 691 4666 
z
" transform="scale(0.015625)"/>
       </defs>
       <use xlink:href="#DejaVuSans-35"/>
       <use xlink:href="#DejaVuSans-30" x="63.623047"/>
       <use xlink:href="#DejaVuSans-30" x="127.246094"/>
      </g>
     </g>
    </g>
    <g id="text_11">
     <!-- Mean rewards -->
     <g transform="translate(30.832812 235.112031) rotate(-90) scale(0.1 -0.1)">
      <defs>
       <path id="DejaVuSans-6e" d="M 3513 2113 
L 3513 0 
L 2938 0 
L 2938 2094 
Q 2938 2591 2744 2837 
Q 2550 3084 2163 3084 
Q 1697 3084 1428 2787 
Q 1159 2491 1159 1978 
L 1159 0 
L 581 0 
L 581 3500 
L 1159 3500 
L 1159 2956 
Q 1366 3272 1645 3428 
Q 1925 3584 2291 3584 
Q 2894 3584 3203 3211 
Q 3513 2838 3513 2113 
z
" transform="scale(0.015625)"/>
       <path id="DejaVuSans-77" d="M 269 3500 
L 844 3500 
L 1563 769 
L 2278 3500 
L 2956 3500 
L 3675 769 
L 4391 3500 
L 4966 3500 
L 4050 0 
L 3372 0 
L 2619 2869 
L 1863 0 
L 1184 0 
L 269 3500 
z
" transform="scale(0.015625)"/>
       <path id="DejaVuSans-73" d="M 2834 3397 
L 2834 2853 
Q 2591 2978 2328 3040 
Q 2066 3103 1784 3103 
Q 1356 3103 1142 2972 
Q 928 2841 928 2578 
Q 928 2378 1081 2264 
Q 1234 2150 1697 2047 
L 1894 2003 
Q 2506 1872 2764 1633 
Q 3022 1394 3022 966 
Q 3022 478 2636 193 
Q 2250 -91 1575 -91 
Q 1294 -91 989 -36 
Q 684 19 347 128 
L 347 722 
Q 666 556 975 473 
Q 1284 391 1588 391 
Q 1994 391 2212 530 
Q 2431 669 2431 922 
Q 2431 1156 2273 1281 
Q 2116 1406 1581 1522 
L 1381 1569 
Q 847 1681 609 1914 
Q 372 2147 372 2553 
Q 372 3047 722 3315 
Q 1072 3584 1716 3584 
Q 2034 3584 2315 3537 
Q 2597 3491 2834 3397 
z
" transform="scale(0.015625)"/>
      </defs>
      <use xlink:href="#DejaVuSans-4d"/>
      <use xlink:href="#DejaVuSans-65" x="86.279297"/>
      <use xlink:href="#DejaVuSans-61" x="147.802734"/>
      <use xlink:href="#DejaVuSans-6e" x="209.082031"/>
      <use xlink:href="#DejaVuSans-20" x="272.460938"/>
      <use xlink:href="#DejaVuSans-72" x="304.248047"/>
      <use xlink:href="#DejaVuSans-65" x="343.111328"/>
      <use xlink:href="#DejaVuSans-77" x="404.634766"/>
      <use xlink:href="#DejaVuSans-61" x="486.421875"/>
      <use xlink:href="#DejaVuSans-72" x="547.701172"/>
      <use xlink:href="#DejaVuSans-64" x="587.064453"/>
      <use xlink:href="#DejaVuSans-73" x="650.541016"/>
     </g>
    </g>
   </g>
   <g id="line2d_16">
    <path d="M 128.1 170.259191 
L 128.1 85.754744 
" clip-path="url(#pf8560be2d3)" style="fill: none; stroke: #3d3d3d; stroke-width: 1.5; stroke-linecap: square"/>
   </g>
   <g id="line2d_17">
    <path d="M 128.1 134.81246 
L 128.1 111.171225 
" clip-path="url(#pf8560be2d3)" style="fill: none; stroke: #3d3d3d; stroke-width: 4.5; stroke-linecap: square"/>
   </g>
   <g id="line2d_18">
    <path d="M 258.3 204.014436 
L 258.3 85.754744 
" clip-path="url(#pf8560be2d3)" style="fill: none; stroke: #3d3d3d; stroke-width: 1.5; stroke-linecap: square"/>
   </g>
   <g id="line2d_19">
    <path d="M 258.3 143.785241 
L 258.3 103.050003 
" clip-path="url(#pf8560be2d3)" style="fill: none; stroke: #3d3d3d; stroke-width: 4.5; stroke-linecap: square"/>
   </g>
   <g id="line2d_20">
    <path d="M 388.5 279.603105 
L 388.5 85.754744 
" clip-path="url(#pf8560be2d3)" style="fill: none; stroke: #3d3d3d; stroke-width: 1.5; stroke-linecap: square"/>
   </g>
   <g id="line2d_21">
    <path d="M 388.5 167.45207 
L 388.5 92.654467 
" clip-path="url(#pf8560be2d3)" style="fill: none; stroke: #3d3d3d; stroke-width: 4.5; stroke-linecap: square"/>
   </g>
   <g id="patch_3">
    <path d="M 63 352.44 
L 63 47.52 
" style="fill: none; stroke: #000000; stroke-width: 0.8; stroke-linejoin: miter; stroke-linecap: square"/>
   </g>
   <g id="patch_4">
    <path d="M 453.6 352.44 
L 453.6 47.52 
" style="fill: none; stroke: #000000; stroke-width: 0.8; stroke-linejoin: miter; stroke-linecap: square"/>
   </g>
   <g id="patch_5">
    <path d="M 63 352.44 
L 453.6 352.44 
" style="fill: none; stroke: #000000; stroke-width: 0.8; stroke-linejoin: miter; stroke-linecap: square"/>
   </g>
   <g id="patch_6">
    <path d="M 63 47.52 
L 453.6 47.52 
" style="fill: none; stroke: #000000; stroke-width: 0.8; stroke-linejoin: miter; stroke-linecap: square"/>
   </g>
   <g id="PathCollection_1">
    <defs>
     <path id="m1c000eb5fc" d="M 0 1.5 
C 0.397805 1.5 0.77937 1.341951 1.06066 1.06066 
C 1.341951 0.77937 1.5 0.397805 1.5 0 
C 1.5 -0.397805 1.341951 -0.77937 1.06066 -1.06066 
C 0.77937 -1.341951 0.397805 -1.5 0 -1.5 
C -0.397805 -1.5 -0.77937 -1.341951 -1.06066 -1.06066 
C -1.341951 -0.77937 -1.5 -0.397805 -1.5 0 
C -1.5 0.397805 -1.341951 0.77937 -1.06066 1.06066 
C -0.77937 1.341951 -0.397805 1.5 0 1.5 
z
" style="stroke: #3d3d3d"/>
    </defs>
    <g clip-path="url(#pf8560be2d3)">
     <use xlink:href="#m1c000eb5fc" x="128.1" y="121.966947" style="fill: #ffffff; stroke: #3d3d3d"/>
    </g>
   </g>
   <g id="PathCollection_2">
    <g clip-path="url(#pf8560be2d3)">
     <use xlink:href="#m1c000eb5fc" x="258.3" y="121.206128" style="fill: #ffffff; stroke: #3d3d3d"/>
    </g>
   </g>
   <g id="PathCollection_3">
    <g clip-path="url(#pf8560be2d3)">
     <use xlink:href="#m1c000eb5fc" x="388.5" y="110.366199" style="fill: #ffffff; stroke: #3d3d3d"/>
    </g>
   </g>
   <g id="text_12">
    <!-- Cartpole - Q-Tsetlin-Machine -->
    <g transform="translate(174.03 41.52) scale(0.12 -0.12)">
     <defs>
      <path id="DejaVuSans-43" d="M 4122 4306 
L 4122 3641 
Q 3803 3938 3442 4084 
Q 3081 4231 2675 4231 
Q 1875 4231 1450 3742 
Q 1025 3253 1025 2328 
Q 1025 1406 1450 917 
Q 1875 428 2675 428 
Q 3081 428 3442 575 
Q 3803 722 4122 1019 
L 4122 359 
Q 3791 134 3420 21 
Q 3050 -91 2638 -91 
Q 1578 -91 968 557 
Q 359 1206 359 2328 
Q 359 3453 968 4101 
Q 1578 4750 2638 4750 
Q 3056 4750 3426 4639 
Q 3797 4528 4122 4306 
z
" transform="scale(0.015625)"/>
      <path id="DejaVuSans-2d" d="M 313 2009 
L 1997 2009 
L 1997 1497 
L 313 1497 
L 313 2009 
z
" transform="scale(0.015625)"/>
      <path id="DejaVuSans-63" d="M 3122 3366 
L 3122 2828 
Q 2878 2963 2633 3030 
Q 2388 3097 2138 3097 
Q 1578 3097 1268 2742 
Q 959 2388 959 1747 
Q 959 1106 1268 751 
Q 1578 397 2138 397 
Q 2388 397 2633 464 
Q 2878 531 3122 666 
L 3122 134 
Q 2881 22 2623 -34 
Q 2366 -91 2075 -91 
Q 1284 -91 818 406 
Q 353 903 353 1747 
Q 353 2603 823 3093 
Q 1294 3584 2113 3584 
Q 2378 3584 2631 3529 
Q 2884 3475 3122 3366 
z
" transform="scale(0.015625)"/>
     </defs>
     <use xlink:href="#DejaVuSans-43"/>
     <use xlink:href="#DejaVuSans-61" x="69.824219"/>
     <use xlink:href="#DejaVuSans-72" x="131.103516"/>
     <use xlink:href="#DejaVuSans-74" x="172.216797"/>
     <use xlink:href="#DejaVuSans-70" x="211.425781"/>
     <use xlink:href="#DejaVuSans-6f" x="274.902344"/>
     <use xlink:href="#DejaVuSans-6c" x="336.083984"/>
     <use xlink:href="#DejaVuSans-65" x="363.867188"/>
     <use xlink:href="#DejaVuSans-20" x="425.390625"/>
     <use xlink:href="#DejaVuSans-2d" x="457.177734"/>
     <use xlink:href="#DejaVuSans-20" x="493.261719"/>
     <use xlink:href="#DejaVuSans-51" x="525.048828"/>
     <use xlink:href="#DejaVuSans-2d" x="606.509766"/>
     <use xlink:href="#DejaVuSans-54" x="633.46875"/>
     <use xlink:href="#DejaVuSans-73" x="678.052734"/>
     <use xlink:href="#DejaVuSans-65" x="730.152344"/>
     <use xlink:href="#DejaVuSans-74" x="791.675781"/>
     <use xlink:href="#DejaVuSans-6c" x="830.884766"/>
     <use xlink:href="#DejaVuSans-69" x="858.667969"/>
     <use xlink:href="#DejaVuSans-6e" x="886.451172"/>
     <use xlink:href="#DejaVuSans-2d" x="949.830078"/>
     <use xlink:href="#DejaVuSans-4d" x="985.914062"/>
     <use xlink:href="#DejaVuSans-61" x="1072.193359"/>
     <use xlink:href="#DejaVuSans-63" x="1133.472656"/>
     <use xlink:href="#DejaVuSans-68" x="1188.453125"/>
     <use xlink:href="#DejaVuSans-69" x="1251.832031"/>
     <use xlink:href="#DejaVuSans-6e" x="1279.615234"/>
     <use xlink:href="#DejaVuSans-65" x="1342.994141"/>
    </g>
   </g>
  </g>
 </g>
 <defs>
  <clipPath id="pf8560be2d3">
   <rect x="63" y="47.52" width="390.6" height="304.92"/>
  </clipPath>
 </defs>
</svg>
