<?xml version="1.0" encoding="utf-8" standalone="no"?>
<!DOCTYPE svg PUBLIC "-//W3C//DTD SVG 1.1//EN"
  "http://www.w3.org/Graphics/SVG/1.1/DTD/svg11.dtd">
<svg xmlns:xlink="http://www.w3.org/1999/xlink" width="504pt" height="396pt" viewBox="0 0 504 396" xmlns="http://www.w3.org/2000/svg" version="1.1">
 <metadata>
  <rdf:RDF xmlns:dc="http://purl.org/dc/elements/1.1/" xmlns:cc="http://creativecommons.org/ns#" xmlns:rdf="http://www.w3.org/1999/02/22-rdf-syntax-ns#">
   <cc:Work>
    <dc:type rdf:resource="http://purl.org/dc/dcmitype/StillImage"/>
    <dc:date>2024-05-10T10:50:02.908849</dc:date>
    <dc:format>image/svg+xml</dc:format>
    <dc:creator>
     <cc:Agent>
      <dc:title>Matplotlib v3.8.2, https://matplotlib.org/</dc:title>
     </cc:Agent>
    </dc:creator>
   </cc:Work>
  </rdf:RDF>
 </metadata>
 <defs>
  <style type="text/css">*{stroke-linejoin: round; stroke-linecap: butt}</style>
 </defs>
 <g id="figure_1">
  <g id="patch_1">
   <path d="M 0 396 
L 504 396 
L 504 0 
L 0 0 
z
" style="fill: #ffffff"/>
  </g>
  <g id="axes_1">
   <g id="patch_2">
    <path d="M 63 352.44 
L 453.6 352.44 
L 453.6 47.52 
L 63 47.52 
z
" style="fill: #ffffff"/>
   </g>
   <g id="PolyCollection_1">
    <path d="M 80.754545 316.768769 
L 80.754545 317.545219 
L 81.413767 315.203364 
L 82.151261 317.475607 
L 82.730471 317.48219 
L 83.464486 317.545219 
L 84.097617 314.296914 
L 84.659434 309.756509 
L 85.429975 286.618451 
L 86.306619 284.292109 
L 87.144996 275.354256 
L 87.978154 266.804313 
L 89.110485 275.171813 
L 90.39762 276.320443 
L 91.194252 273.797655 
L 92.008278 275.882976 
L 92.808388 281.20805 
L 93.528488 276.193134 
L 94.699085 276.751417 
L 95.751405 277.015396 
L 96.671532 278.909133 
L 97.610793 280.185404 
L 98.572665 278.57086 
L 99.254498 275.019246 
L 100.188541 282.415263 
L 101.169546 273.122116 
L 102.385367 273.26616 
L 103.385505 275.58545 
L 104.023855 279.42739 
L 104.900498 274.117998 
L 106.479847 272.19074 
L 107.49564 266.487805 
L 108.633188 269.560927 
L 109.295889 274.071661 
L 109.918584 274.298525 
L 110.767397 274.824888 
L 112.066707 273.860339 
L 112.913781 273.0599 
L 113.769552 269.605874 
L 115.013202 274.626041 
L 115.907239 277.465 
L 117.582254 277.31082 
L 118.577174 275.398541 
L 119.626015 273.61007 
L 120.947937 271.99302 
L 121.838495 272.517532 
L 122.696005 273.726692 
L 123.701362 274.68207 
L 124.605835 258.384615 
L 126.406084 245.056357 
L 128.241121 273.187011 
L 129.982232 250.91043 
L 132.396479 251.709489 
L 134.777678 237.271463 
L 136.143085 271.733883 
L 137.626768 272.99054 
L 139.738365 271.632602 
L 141.561226 270.655885 
L 142.987511 270.461017 
L 144.817329 270.112078 
L 146.871527 269.330106 
L 148.55002 265.755542 
L 151.042539 264.461346 
L 153.122827 265.129016 
L 155.152674 264.25639 
L 157.059024 264.022369 
L 159.059301 264.038434 
L 161.089148 262.165876 
L 163.934759 259.659642 
L 166.491635 258.647119 
L 170.173884 256.383458 
L 174.426647 251.178963 
L 179.133386 239.442217 
L 183.678363 234.953616 
L 188.496421 229.379991 
L 193.625827 231.071263 
L 198.666525 229.610505 
L 204.124672 225.15953 
L 210.083758 220.748364 
L 216.101983 212.539829 
L 222.546353 204.405893 
L 230.072613 161.553965 
L 241.376787 106.18307 
L 250.195399 179.809932 
L 258.845293 94.059246 
L 269.50416 77.891195 
L 281.295358 77.891195 
L 292.015103 77.891195 
L 302.672231 77.891195 
L 313.889437 77.891195 
L 324.53265 77.891195 
L 334.71319 77.891195 
L 344.330174 77.891195 
L 352.465213 77.891195 
L 361.943047 77.891195 
L 372.434935 77.891195 
L 378.802773 77.891195 
L 388.489332 77.891195 
L 396.088645 77.891195 
L 405.133376 77.891195 
L 414.85994 77.891195 
L 425.043959 77.891195 
L 435.845455 77.891195 
L 435.845455 77.891195 
L 435.845455 77.891195 
L 425.043959 77.891195 
L 414.85994 77.891195 
L 405.133376 77.891195 
L 396.088645 77.891195 
L 388.489332 77.891195 
L 378.802773 77.891195 
L 372.434935 77.891195 
L 361.943047 77.891195 
L 352.465213 77.891195 
L 344.330174 77.891195 
L 334.71319 77.891195 
L 324.53265 77.891195 
L 313.889437 77.891195 
L 302.672231 77.891195 
L 292.015103 77.891195 
L 281.295358 77.891195 
L 269.50416 77.891195 
L 258.845293 67.574476 
L 250.195399 89.488279 
L 241.376787 61.38 
L 230.072613 140.560461 
L 222.546353 189.340376 
L 216.101983 198.087529 
L 210.083758 209.081112 
L 204.124672 215.309616 
L 198.666525 220.250027 
L 193.625827 221.032279 
L 188.496421 219.115231 
L 183.678363 224.795666 
L 179.133386 229.376628 
L 174.426647 242.478782 
L 170.173884 248.411319 
L 166.491635 253.666619 
L 163.934759 255.209178 
L 161.089148 258.75907 
L 159.059301 260.241276 
L 157.059024 260.481642 
L 155.152674 260.969285 
L 153.122827 261.783792 
L 151.042539 261.076399 
L 148.55002 262.668861 
L 146.871527 266.00862 
L 144.817329 266.474932 
L 142.987511 267.062205 
L 141.561226 267.306187 
L 139.738365 268.30917 
L 137.626768 269.818385 
L 136.143085 268.315164 
L 134.777678 188.208524 
L 132.396479 222.999695 
L 129.982232 191.606682 
L 128.241121 269.758444 
L 126.406084 182.84218 
L 124.605835 204.514633 
L 123.701362 271.481618 
L 122.696005 270.203738 
L 121.838495 269.013852 
L 120.947937 268.309585 
L 119.626015 270.115563 
L 118.577174 272.130457 
L 117.582254 274.177579 
L 115.907239 274.354975 
L 115.013202 271.254833 
L 113.769552 264.991683 
L 112.913781 269.280918 
L 112.066707 269.93356 
L 110.767397 271.319295 
L 109.918584 270.733905 
L 109.295889 270.443901 
L 108.633188 265.007373 
L 107.49564 260.620048 
L 106.479847 267.624254 
L 104.900498 270.007476 
L 104.023855 275.201223 
L 103.385505 271.592468 
L 102.385367 268.050675 
L 101.169546 266.722134 
L 100.188541 277.889141 
L 99.254498 270.178972 
L 98.572665 272.800512 
L 97.610793 275.155121 
L 96.671532 273.642258 
L 95.751405 271.362045 
L 94.699085 271.313954 
L 93.528488 270.477669 
L 92.808388 275.790352 
L 92.008278 268.42779 
L 91.194252 264.622771 
L 90.39762 268.5462 
L 89.110485 264.799216 
L 87.978154 253.525748 
L 87.144996 268.498156 
L 86.306619 254.030795 
L 85.429975 279.683567 
L 84.659434 305.043291 
L 84.097617 311.912981 
L 83.464486 316.768769 
L 82.730471 316.724524 
L 82.151261 316.760363 
L 81.413767 313.259294 
L 80.754545 316.768769 
z
" clip-path="url(#p10761e93de)" style="fill: #1f77b4; fill-opacity: 0.1"/>
   </g>
   <g id="PolyCollection_2">
    <path d="M 80.754545 259.652534 
L 80.754545 287.59365 
L 84.233288 77.891195 
L 87.712031 77.891195 
L 91.190773 77.891195 
L 94.669516 77.891195 
L 98.148258 77.891195 
L 101.627001 77.891195 
L 105.105743 77.891195 
L 108.584486 77.891195 
L 112.063229 77.891195 
L 115.541971 77.891195 
L 119.020714 77.891195 
L 122.499456 77.891195 
L 125.978199 77.891195 
L 129.456942 77.891195 
L 132.935684 77.891195 
L 136.414427 77.891195 
L 139.893169 77.891195 
L 143.371912 77.891195 
L 146.850654 77.891195 
L 150.329397 77.891195 
L 153.80814 77.891195 
L 157.286882 77.891195 
L 160.765625 77.891195 
L 164.244367 77.891195 
L 167.72311 77.891195 
L 171.201852 77.891195 
L 174.680595 77.891195 
L 178.159338 77.891195 
L 181.63808 77.891195 
L 185.116823 77.891195 
L 188.595565 77.891195 
L 192.074308 77.891195 
L 195.55305 77.891195 
L 199.031793 77.891195 
L 202.510536 77.891195 
L 205.989278 77.891195 
L 209.468021 77.891195 
L 212.946763 77.891195 
L 216.425506 77.891195 
L 219.904249 77.891195 
L 223.382991 77.891195 
L 226.861734 77.891195 
L 230.340476 77.891195 
L 233.819219 77.891195 
L 237.297961 77.891195 
L 240.776704 77.891195 
L 244.255447 77.891195 
L 247.734189 77.891195 
L 251.212932 77.891195 
L 254.691674 77.891195 
L 258.170417 77.891195 
L 261.649159 77.891195 
L 265.127902 77.891195 
L 268.606645 77.891195 
L 272.085387 77.891195 
L 275.56413 77.891195 
L 279.042872 77.891195 
L 282.521615 77.891195 
L 286.000357 77.891195 
L 289.4791 77.891195 
L 292.957843 77.891195 
L 296.436585 77.891195 
L 299.915328 77.891195 
L 303.39407 77.891195 
L 306.872813 77.891195 
L 310.351555 77.891195 
L 313.830298 77.891195 
L 317.309041 77.891195 
L 320.787783 77.891195 
L 324.266526 77.891195 
L 327.745268 77.891195 
L 331.224011 77.891195 
L 334.702754 77.891195 
L 338.181496 77.891195 
L 341.660239 77.891195 
L 345.138981 77.891195 
L 348.617724 77.891195 
L 352.096466 77.891195 
L 355.575209 77.891195 
L 359.053952 77.891195 
L 362.532694 77.891195 
L 366.011437 77.891195 
L 369.490179 77.891195 
L 372.968922 77.891195 
L 376.447664 77.891195 
L 379.926407 77.891195 
L 383.40515 77.891195 
L 386.883892 77.891195 
L 390.362635 77.891195 
L 393.841377 77.891195 
L 397.32012 77.891195 
L 400.798862 77.891195 
L 404.277605 77.891195 
L 407.756348 77.891195 
L 411.23509 77.891195 
L 414.713833 77.891195 
L 418.192575 77.891195 
L 421.671318 77.891195 
L 425.15006 77.891195 
L 425.15006 77.891195 
L 425.15006 77.891195 
L 421.671318 77.891195 
L 418.192575 77.891195 
L 414.713833 77.891195 
L 411.23509 77.891195 
L 407.756348 77.891195 
L 404.277605 77.891195 
L 400.798862 77.891195 
L 397.32012 77.891195 
L 393.841377 77.891195 
L 390.362635 77.891195 
L 386.883892 77.891195 
L 383.40515 77.891195 
L 379.926407 77.891195 
L 376.447664 77.891195 
L 372.968922 77.891195 
L 369.490179 77.891195 
L 366.011437 77.891195 
L 362.532694 77.891195 
L 359.053952 77.891195 
L 355.575209 77.891195 
L 352.096466 77.891195 
L 348.617724 77.891195 
L 345.138981 77.891195 
L 341.660239 77.891195 
L 338.181496 77.891195 
L 334.702754 77.891195 
L 331.224011 77.891195 
L 327.745268 77.891195 
L 324.266526 77.891195 
L 320.787783 77.891195 
L 317.309041 77.891195 
L 313.830298 77.891195 
L 310.351555 77.891195 
L 306.872813 77.891195 
L 303.39407 77.891195 
L 299.915328 77.891195 
L 296.436585 77.891195 
L 292.957843 77.891195 
L 289.4791 77.891195 
L 286.000357 77.891195 
L 282.521615 77.891195 
L 279.042872 77.891195 
L 275.56413 77.891195 
L 272.085387 77.891195 
L 268.606645 77.891195 
L 265.127902 77.891195 
L 261.649159 77.891195 
L 258.170417 77.891195 
L 254.691674 77.891195 
L 251.212932 77.891195 
L 247.734189 77.891195 
L 244.255447 77.891195 
L 240.776704 77.891195 
L 237.297961 77.891195 
L 233.819219 77.891195 
L 230.340476 77.891195 
L 226.861734 77.891195 
L 223.382991 77.891195 
L 219.904249 77.891195 
L 216.425506 77.891195 
L 212.946763 77.891195 
L 209.468021 77.891195 
L 205.989278 77.891195 
L 202.510536 77.891195 
L 199.031793 77.891195 
L 195.55305 77.891195 
L 192.074308 77.891195 
L 188.595565 77.891195 
L 185.116823 77.891195 
L 181.63808 77.891195 
L 178.159338 77.891195 
L 174.680595 77.891195 
L 171.201852 77.891195 
L 167.72311 77.891195 
L 164.244367 77.891195 
L 160.765625 77.891195 
L 157.286882 77.891195 
L 153.80814 77.891195 
L 150.329397 77.891195 
L 146.850654 77.891195 
L 143.371912 77.891195 
L 139.893169 77.891195 
L 136.414427 77.891195 
L 132.935684 77.891195 
L 129.456942 77.891195 
L 125.978199 77.891195 
L 122.499456 77.891195 
L 119.020714 77.891195 
L 115.541971 77.891195 
L 112.063229 77.891195 
L 108.584486 77.891195 
L 105.105743 77.891195 
L 101.627001 77.891195 
L 98.148258 77.891195 
L 94.669516 77.891195 
L 91.190773 77.891195 
L 87.712031 77.891195 
L 84.233288 77.891195 
L 80.754545 259.652534 
z
" clip-path="url(#p10761e93de)" style="fill: #ff7f0e; fill-opacity: 0.1"/>
   </g>
   <g id="PolyCollection_3">
    <path d="M 80.754545 316.768769 
L 80.754545 317.545219 
L 83.139223 314.420822 
L 85.55521 313.410025 
L 89.221805 317.475607 
L 91.136853 317.545219 
L 94.686909 308.485431 
L 97.391632 317.440302 
L 101.030397 317.61494 
L 105.034429 285.105988 
L 109.349809 311.991444 
L 113.887829 338.58 
L 119.989544 320.30531 
L 125.541617 321.831796 
L 131.0102 317.700112 
L 132.966993 317.291682 
L 135.122074 317.807643 
L 137.952031 317.471463 
L 139.720971 317.67451 
L 143.164927 305.286181 
L 146.791516 317.99225 
L 152.764517 317.475607 
L 155.71449 317.598532 
L 158.443564 316.142598 
L 160.80563 317.475607 
L 163.973025 311.310072 
L 168.394507 317.471429 
L 172.810771 317.475607 
L 174.990203 313.121193 
L 177.162678 317.545219 
L 179.277753 317.753375 
L 181.827672 305.826352 
L 185.292499 317.867636 
L 187.44758 317.699937 
L 191.048079 312.156798 
L 195.44347 318.971783 
L 197.751616 312.459669 
L 199.285741 314.91044 
L 202.58185 317.475607 
L 205.387456 298.840886 
L 208.951428 312.779528 
L 212.995466 318.797398 
L 216.561177 317.957787 
L 218.947594 317.680241 
L 220.464326 317.545219 
L 224.597072 317.351859 
L 227.964495 317.816567 
L 232.312923 314.571412 
L 235.344647 319.405359 
L 237.692799 302.615146 
L 240.919332 317.530557 
L 244.359809 320.745019 
L 247.762019 316.988155 
L 251.115527 279.357498 
L 254.987367 317.475607 
L 256.768484 317.513542 
L 259.657579 317.549326 
L 263.296344 297.858206 
L 266.832486 317.30838 
L 270.119898 317.475607 
L 274.647481 317.513903 
L 277.940111 151.39136 
L 283.408694 287.100682 
L 285.998618 317.305034 
L 288.971204 308.81656 
L 291.794203 313.702544 
L 297.72372 317.635756 
L 300.395394 316.256317 
L 303.848046 318.422719 
L 307.392885 318.405956 
L 311.226459 319.839675 
L 314.953932 311.063202 
L 317.150758 315.282284 
L 320.946066 317.475607 
L 324.831821 267.407124 
L 328.305346 317.545219 
L 330.717854 317.545219 
L 332.801621 318.247535 
L 335.838563 317.475607 
L 340.552259 318.552335 
L 344.730229 317.949021 
L 348.299419 311.89888 
L 352.505219 312.895575 
L 356.497076 309.024463 
L 364.021596 319.211743 
L 366.686313 317.830562 
L 370.191146 317.545219 
L 372.410584 316.490139 
L 375.63016 317.462829 
L 381.731874 318.092387 
L 384.365283 317.112012 
L 388.706753 307.904679 
L 391.37147 316.082685 
L 393.794414 306.287127 
L 396.316503 317.610377 
L 399.355184 317.545219 
L 403.289642 175.283976 
L 407.154525 317.475607 
L 410.79329 318.206272 
L 412.845748 309.172168 
L 416.143596 310.556863 
L 416.143596 301.327023 
L 416.143596 301.327023 
L 412.845748 300.605239 
L 410.79329 314.459592 
L 407.154525 316.760363 
L 403.289642 93.877704 
L 399.355184 316.768769 
L 396.316503 316.615842 
L 393.794414 293.981868 
L 391.37147 312.058149 
L 388.706753 295.553291 
L 384.365283 316.636348 
L 381.731874 315.743742 
L 375.63016 295.093961 
L 372.410584 277.537436 
L 370.191146 316.768769 
L 366.686313 312.289972 
L 364.021596 306.393514 
L 356.497076 301.503865 
L 352.505219 301.260578 
L 348.299419 278.374091 
L 344.730229 312.28854 
L 340.552259 315.26429 
L 335.838563 316.760363 
L 332.801621 313.667407 
L 330.717854 316.768769 
L 328.305346 316.768769 
L 324.831821 255.107434 
L 320.946066 316.760363 
L 317.150758 311.151912 
L 314.953932 283.549506 
L 311.226459 241.225402 
L 307.392885 313.947837 
L 303.848046 313.804295 
L 300.395394 313.815456 
L 297.72372 316.502692 
L 291.794203 300.297574 
L 288.971204 301.28267 
L 285.998618 312.06458 
L 283.408694 222.853019 
L 277.940111 87.372656 
L 274.647481 316.614793 
L 270.119898 316.760363 
L 266.832486 316.469236 
L 263.296344 280.009944 
L 259.657579 296.616579 
L 256.768484 316.468871 
L 254.987367 316.760363 
L 251.115527 224.315775 
L 247.762019 302.990073 
L 244.359809 311.228437 
L 240.919332 310.766313 
L 237.692799 292.134093 
L 235.344647 304.893101 
L 232.312923 301.564442 
L 227.964495 314.995579 
L 224.597072 316.689067 
L 220.464326 316.768769 
L 218.947594 317.140863 
L 216.561177 307.364656 
L 212.995466 312.064305 
L 208.951428 309.675763 
L 205.387456 267.431875 
L 202.58185 316.760363 
L 199.285741 307.769152 
L 197.751616 294.314055 
L 195.44347 308.681441 
L 191.048079 308.065234 
L 187.44758 315.90214 
L 185.292499 315.529644 
L 181.827672 279.863076 
L 179.277753 316.814171 
L 177.162678 316.768769 
L 174.990203 308.017549 
L 172.810771 316.760363 
L 168.394507 316.75479 
L 163.973025 296.448626 
L 160.80563 316.760363 
L 158.443564 305.630037 
L 155.71449 286.503084 
L 152.764517 316.760363 
L 146.791516 315.05395 
L 143.164927 296.104319 
L 139.720971 315.215655 
L 137.952031 316.725498 
L 135.122074 316.798912 
L 132.966993 316.661474 
L 131.0102 317.062478 
L 125.541617 308.805606 
L 119.989544 252.998801 
L 113.887829 161.416686 
L 109.349809 305.636499 
L 105.034429 193.123747 
L 101.030397 315.928623 
L 97.391632 316.71765 
L 94.686909 299.175745 
L 91.136853 316.768769 
L 89.221805 316.760363 
L 85.55521 308.235832 
L 83.139223 257.196155 
L 80.754545 316.768769 
z
" clip-path="url(#p10761e93de)" style="fill: #2ca02c; fill-opacity: 0.1"/>
   </g>
   <g id="matplotlib.axis_1">
    <g id="xtick_1">
     <g id="line2d_1">
      <defs>
       <path id="m423a3fc671" d="M 0 0 
L 0 3.5 
" style="stroke: #000000; stroke-width: 0.8"/>
      </defs>
      <g>
       <use xlink:href="#m423a3fc671" x="80.754545" y="352.44" style="stroke: #000000; stroke-width: 0.8"/>
      </g>
     </g>
     <g id="text_1">
      <!-- 0 -->
      <g transform="translate(77.573295 367.038437) scale(0.1 -0.1)">
       <defs>
        <path id="DejaVuSans-30" d="M 2034 4250 
Q 1547 4250 1301 3770 
Q 1056 3291 1056 2328 
Q 1056 1369 1301 889 
Q 1547 409 2034 409 
Q 2525 409 2770 889 
Q 3016 1369 3016 2328 
Q 3016 3291 2770 3770 
Q 2525 4250 2034 4250 
z
M 2034 4750 
Q 2819 4750 3233 4129 
Q 3647 3509 3647 2328 
Q 3647 1150 3233 529 
Q 2819 -91 2034 -91 
Q 1250 -91 836 529 
Q 422 1150 422 2328 
Q 422 3509 836 4129 
Q 1250 4750 2034 4750 
z
" transform="scale(0.015625)"/>
       </defs>
       <use xlink:href="#DejaVuSans-30"/>
      </g>
     </g>
    </g>
    <g id="xtick_2">
     <g id="line2d_2">
      <g>
       <use xlink:href="#m423a3fc671" x="124.238828" y="352.44" style="stroke: #000000; stroke-width: 0.8"/>
      </g>
     </g>
     <g id="text_2">
      <!-- 25000 -->
      <g transform="translate(108.332578 367.038437) scale(0.1 -0.1)">
       <defs>
        <path id="DejaVuSans-32" d="M 1228 531 
L 3431 531 
L 3431 0 
L 469 0 
L 469 531 
Q 828 903 1448 1529 
Q 2069 2156 2228 2338 
Q 2531 2678 2651 2914 
Q 2772 3150 2772 3378 
Q 2772 3750 2511 3984 
Q 2250 4219 1831 4219 
Q 1534 4219 1204 4116 
Q 875 4013 500 3803 
L 500 4441 
Q 881 4594 1212 4672 
Q 1544 4750 1819 4750 
Q 2544 4750 2975 4387 
Q 3406 4025 3406 3419 
Q 3406 3131 3298 2873 
Q 3191 2616 2906 2266 
Q 2828 2175 2409 1742 
Q 1991 1309 1228 531 
z
" transform="scale(0.015625)"/>
        <path id="DejaVuSans-35" d="M 691 4666 
L 3169 4666 
L 3169 4134 
L 1269 4134 
L 1269 2991 
Q 1406 3038 1543 3061 
Q 1681 3084 1819 3084 
Q 2600 3084 3056 2656 
Q 3513 2228 3513 1497 
Q 3513 744 3044 326 
Q 2575 -91 1722 -91 
Q 1428 -91 1123 -41 
Q 819 9 494 109 
L 494 744 
Q 775 591 1075 516 
Q 1375 441 1709 441 
Q 2250 441 2565 725 
Q 2881 1009 2881 1497 
Q 2881 1984 2565 2268 
Q 2250 2553 1709 2553 
Q 1456 2553 1204 2497 
Q 953 2441 691 2322 
L 691 4666 
z
" transform="scale(0.015625)"/>
       </defs>
       <use xlink:href="#DejaVuSans-32"/>
       <use xlink:href="#DejaVuSans-35" x="63.623047"/>
       <use xlink:href="#DejaVuSans-30" x="127.246094"/>
       <use xlink:href="#DejaVuSans-30" x="190.869141"/>
       <use xlink:href="#DejaVuSans-30" x="254.492188"/>
      </g>
     </g>
    </g>
    <g id="xtick_3">
     <g id="line2d_3">
      <g>
       <use xlink:href="#m423a3fc671" x="167.72311" y="352.44" style="stroke: #000000; stroke-width: 0.8"/>
      </g>
     </g>
     <g id="text_3">
      <!-- 50000 -->
      <g transform="translate(151.81686 367.038437) scale(0.1 -0.1)">
       <use xlink:href="#DejaVuSans-35"/>
       <use xlink:href="#DejaVuSans-30" x="63.623047"/>
       <use xlink:href="#DejaVuSans-30" x="127.246094"/>
       <use xlink:href="#DejaVuSans-30" x="190.869141"/>
       <use xlink:href="#DejaVuSans-30" x="254.492188"/>
      </g>
     </g>
    </g>
    <g id="xtick_4">
     <g id="line2d_4">
      <g>
       <use xlink:href="#m423a3fc671" x="211.207392" y="352.44" style="stroke: #000000; stroke-width: 0.8"/>
      </g>
     </g>
     <g id="text_4">
      <!-- 75000 -->
      <g transform="translate(195.301142 367.038437) scale(0.1 -0.1)">
       <defs>
        <path id="DejaVuSans-37" d="M 525 4666 
L 3525 4666 
L 3525 4397 
L 1831 0 
L 1172 0 
L 2766 4134 
L 525 4134 
L 525 4666 
z
" transform="scale(0.015625)"/>
       </defs>
       <use xlink:href="#DejaVuSans-37"/>
       <use xlink:href="#DejaVuSans-35" x="63.623047"/>
       <use xlink:href="#DejaVuSans-30" x="127.246094"/>
       <use xlink:href="#DejaVuSans-30" x="190.869141"/>
       <use xlink:href="#DejaVuSans-30" x="254.492188"/>
      </g>
     </g>
    </g>
    <g id="xtick_5">
     <g id="line2d_5">
      <g>
       <use xlink:href="#m423a3fc671" x="254.691674" y="352.44" style="stroke: #000000; stroke-width: 0.8"/>
      </g>
     </g>
     <g id="text_5">
      <!-- 100000 -->
      <g transform="translate(235.604174 367.038437) scale(0.1 -0.1)">
       <defs>
        <path id="DejaVuSans-31" d="M 794 531 
L 1825 531 
L 1825 4091 
L 703 3866 
L 703 4441 
L 1819 4666 
L 2450 4666 
L 2450 531 
L 3481 531 
L 3481 0 
L 794 0 
L 794 531 
z
" transform="scale(0.015625)"/>
       </defs>
       <use xlink:href="#DejaVuSans-31"/>
       <use xlink:href="#DejaVuSans-30" x="63.623047"/>
       <use xlink:href="#DejaVuSans-30" x="127.246094"/>
       <use xlink:href="#DejaVuSans-30" x="190.869141"/>
       <use xlink:href="#DejaVuSans-30" x="254.492188"/>
       <use xlink:href="#DejaVuSans-30" x="318.115234"/>
      </g>
     </g>
    </g>
    <g id="xtick_6">
     <g id="line2d_6">
      <g>
       <use xlink:href="#m423a3fc671" x="298.175956" y="352.44" style="stroke: #000000; stroke-width: 0.8"/>
      </g>
     </g>
     <g id="text_6">
      <!-- 125000 -->
      <g transform="translate(279.088456 367.038437) scale(0.1 -0.1)">
       <use xlink:href="#DejaVuSans-31"/>
       <use xlink:href="#DejaVuSans-32" x="63.623047"/>
       <use xlink:href="#DejaVuSans-35" x="127.246094"/>
       <use xlink:href="#DejaVuSans-30" x="190.869141"/>
       <use xlink:href="#DejaVuSans-30" x="254.492188"/>
       <use xlink:href="#DejaVuSans-30" x="318.115234"/>
      </g>
     </g>
    </g>
    <g id="xtick_7">
     <g id="line2d_7">
      <g>
       <use xlink:href="#m423a3fc671" x="341.660239" y="352.44" style="stroke: #000000; stroke-width: 0.8"/>
      </g>
     </g>
     <g id="text_7">
      <!-- 150000 -->
      <g transform="translate(322.572739 367.038437) scale(0.1 -0.1)">
       <use xlink:href="#DejaVuSans-31"/>
       <use xlink:href="#DejaVuSans-35" x="63.623047"/>
       <use xlink:href="#DejaVuSans-30" x="127.246094"/>
       <use xlink:href="#DejaVuSans-30" x="190.869141"/>
       <use xlink:href="#DejaVuSans-30" x="254.492188"/>
       <use xlink:href="#DejaVuSans-30" x="318.115234"/>
      </g>
     </g>
    </g>
    <g id="xtick_8">
     <g id="line2d_8">
      <g>
       <use xlink:href="#m423a3fc671" x="385.144521" y="352.44" style="stroke: #000000; stroke-width: 0.8"/>
      </g>
     </g>
     <g id="text_8">
      <!-- 175000 -->
      <g transform="translate(366.057021 367.038437) scale(0.1 -0.1)">
       <use xlink:href="#DejaVuSans-31"/>
       <use xlink:href="#DejaVuSans-37" x="63.623047"/>
       <use xlink:href="#DejaVuSans-35" x="127.246094"/>
       <use xlink:href="#DejaVuSans-30" x="190.869141"/>
       <use xlink:href="#DejaVuSans-30" x="254.492188"/>
       <use xlink:href="#DejaVuSans-30" x="318.115234"/>
      </g>
     </g>
    </g>
    <g id="xtick_9">
     <g id="line2d_9">
      <g>
       <use xlink:href="#m423a3fc671" x="428.628803" y="352.44" style="stroke: #000000; stroke-width: 0.8"/>
      </g>
     </g>
     <g id="text_9">
      <!-- 200000 -->
      <g transform="translate(409.541303 367.038437) scale(0.1 -0.1)">
       <use xlink:href="#DejaVuSans-32"/>
       <use xlink:href="#DejaVuSans-30" x="63.623047"/>
       <use xlink:href="#DejaVuSans-30" x="127.246094"/>
       <use xlink:href="#DejaVuSans-30" x="190.869141"/>
       <use xlink:href="#DejaVuSans-30" x="254.492188"/>
       <use xlink:href="#DejaVuSans-30" x="318.115234"/>
      </g>
     </g>
    </g>
    <g id="text_10">
     <!-- Timesteps -->
     <g transform="translate(232.646094 380.716563) scale(0.1 -0.1)">
      <defs>
       <path id="DejaVuSans-54" d="M -19 4666 
L 3928 4666 
L 3928 4134 
L 2272 4134 
L 2272 0 
L 1638 0 
L 1638 4134 
L -19 4134 
L -19 4666 
z
" transform="scale(0.015625)"/>
       <path id="DejaVuSans-69" d="M 603 3500 
L 1178 3500 
L 1178 0 
L 603 0 
L 603 3500 
z
M 603 4863 
L 1178 4863 
L 1178 4134 
L 603 4134 
L 603 4863 
z
" transform="scale(0.015625)"/>
       <path id="DejaVuSans-6d" d="M 3328 2828 
Q 3544 3216 3844 3400 
Q 4144 3584 4550 3584 
Q 5097 3584 5394 3201 
Q 5691 2819 5691 2113 
L 5691 0 
L 5113 0 
L 5113 2094 
Q 5113 2597 4934 2840 
Q 4756 3084 4391 3084 
Q 3944 3084 3684 2787 
Q 3425 2491 3425 1978 
L 3425 0 
L 2847 0 
L 2847 2094 
Q 2847 2600 2669 2842 
Q 2491 3084 2119 3084 
Q 1678 3084 1418 2786 
Q 1159 2488 1159 1978 
L 1159 0 
L 581 0 
L 581 3500 
L 1159 3500 
L 1159 2956 
Q 1356 3278 1631 3431 
Q 1906 3584 2284 3584 
Q 2666 3584 2933 3390 
Q 3200 3197 3328 2828 
z
" transform="scale(0.015625)"/>
       <path id="DejaVuSans-65" d="M 3597 1894 
L 3597 1613 
L 953 1613 
Q 991 1019 1311 708 
Q 1631 397 2203 397 
Q 2534 397 2845 478 
Q 3156 559 3463 722 
L 3463 178 
Q 3153 47 2828 -22 
Q 2503 -91 2169 -91 
Q 1331 -91 842 396 
Q 353 884 353 1716 
Q 353 2575 817 3079 
Q 1281 3584 2069 3584 
Q 2775 3584 3186 3129 
Q 3597 2675 3597 1894 
z
M 3022 2063 
Q 3016 2534 2758 2815 
Q 2500 3097 2075 3097 
Q 1594 3097 1305 2825 
Q 1016 2553 972 2059 
L 3022 2063 
z
" transform="scale(0.015625)"/>
       <path id="DejaVuSans-73" d="M 2834 3397 
L 2834 2853 
Q 2591 2978 2328 3040 
Q 2066 3103 1784 3103 
Q 1356 3103 1142 2972 
Q 928 2841 928 2578 
Q 928 2378 1081 2264 
Q 1234 2150 1697 2047 
L 1894 2003 
Q 2506 1872 2764 1633 
Q 3022 1394 3022 966 
Q 3022 478 2636 193 
Q 2250 -91 1575 -91 
Q 1294 -91 989 -36 
Q 684 19 347 128 
L 347 722 
Q 666 556 975 473 
Q 1284 391 1588 391 
Q 1994 391 2212 530 
Q 2431 669 2431 922 
Q 2431 1156 2273 1281 
Q 2116 1406 1581 1522 
L 1381 1569 
Q 847 1681 609 1914 
Q 372 2147 372 2553 
Q 372 3047 722 3315 
Q 1072 3584 1716 3584 
Q 2034 3584 2315 3537 
Q 2597 3491 2834 3397 
z
" transform="scale(0.015625)"/>
       <path id="DejaVuSans-74" d="M 1172 4494 
L 1172 3500 
L 2356 3500 
L 2356 3053 
L 1172 3053 
L 1172 1153 
Q 1172 725 1289 603 
Q 1406 481 1766 481 
L 2356 481 
L 2356 0 
L 1766 0 
Q 1100 0 847 248 
Q 594 497 594 1153 
L 594 3053 
L 172 3053 
L 172 3500 
L 594 3500 
L 594 4494 
L 1172 4494 
z
" transform="scale(0.015625)"/>
       <path id="DejaVuSans-70" d="M 1159 525 
L 1159 -1331 
L 581 -1331 
L 581 3500 
L 1159 3500 
L 1159 2969 
Q 1341 3281 1617 3432 
Q 1894 3584 2278 3584 
Q 2916 3584 3314 3078 
Q 3713 2572 3713 1747 
Q 3713 922 3314 415 
Q 2916 -91 2278 -91 
Q 1894 -91 1617 61 
Q 1341 213 1159 525 
z
M 3116 1747 
Q 3116 2381 2855 2742 
Q 2594 3103 2138 3103 
Q 1681 3103 1420 2742 
Q 1159 2381 1159 1747 
Q 1159 1113 1420 752 
Q 1681 391 2138 391 
Q 2594 391 2855 752 
Q 3116 1113 3116 1747 
z
" transform="scale(0.015625)"/>
      </defs>
      <use xlink:href="#DejaVuSans-54"/>
      <use xlink:href="#DejaVuSans-69" x="57.958984"/>
      <use xlink:href="#DejaVuSans-6d" x="85.742188"/>
      <use xlink:href="#DejaVuSans-65" x="183.154297"/>
      <use xlink:href="#DejaVuSans-73" x="244.677734"/>
      <use xlink:href="#DejaVuSans-74" x="296.777344"/>
      <use xlink:href="#DejaVuSans-65" x="335.986328"/>
      <use xlink:href="#DejaVuSans-70" x="397.509766"/>
      <use xlink:href="#DejaVuSans-73" x="460.986328"/>
     </g>
    </g>
   </g>
   <g id="matplotlib.axis_2">
    <g id="ytick_1">
     <g id="line2d_10">
      <path d="M 63 321.696652 
L 453.6 321.696652 
" clip-path="url(#p10761e93de)" style="fill: none; stroke-dasharray: 2.96,1.28; stroke-dashoffset: 0; stroke: #b0b0b0; stroke-width: 0.8"/>
     </g>
     <g id="line2d_11">
      <defs>
       <path id="m98bd0ba695" d="M 0 0 
L -3.5 0 
" style="stroke: #000000; stroke-width: 0.8"/>
      </defs>
      <g>
       <use xlink:href="#m98bd0ba695" x="63" y="321.696652" style="stroke: #000000; stroke-width: 0.8"/>
      </g>
     </g>
     <g id="text_11">
      <!-- 0 -->
      <g transform="translate(49.6375 325.49587) scale(0.1 -0.1)">
       <use xlink:href="#DejaVuSans-30"/>
      </g>
     </g>
    </g>
    <g id="ytick_2">
     <g id="line2d_12">
      <path d="M 63 272.93556 
L 453.6 272.93556 
" clip-path="url(#p10761e93de)" style="fill: none; stroke-dasharray: 2.96,1.28; stroke-dashoffset: 0; stroke: #b0b0b0; stroke-width: 0.8"/>
     </g>
     <g id="line2d_13">
      <g>
       <use xlink:href="#m98bd0ba695" x="63" y="272.93556" style="stroke: #000000; stroke-width: 0.8"/>
      </g>
     </g>
     <g id="text_12">
      <!-- 100 -->
      <g transform="translate(36.9125 276.734779) scale(0.1 -0.1)">
       <use xlink:href="#DejaVuSans-31"/>
       <use xlink:href="#DejaVuSans-30" x="63.623047"/>
       <use xlink:href="#DejaVuSans-30" x="127.246094"/>
      </g>
     </g>
    </g>
    <g id="ytick_3">
     <g id="line2d_14">
      <path d="M 63 224.174469 
L 453.6 224.174469 
" clip-path="url(#p10761e93de)" style="fill: none; stroke-dasharray: 2.96,1.28; stroke-dashoffset: 0; stroke: #b0b0b0; stroke-width: 0.8"/>
     </g>
     <g id="line2d_15">
      <g>
       <use xlink:href="#m98bd0ba695" x="63" y="224.174469" style="stroke: #000000; stroke-width: 0.8"/>
      </g>
     </g>
     <g id="text_13">
      <!-- 200 -->
      <g transform="translate(36.9125 227.973688) scale(0.1 -0.1)">
       <use xlink:href="#DejaVuSans-32"/>
       <use xlink:href="#DejaVuSans-30" x="63.623047"/>
       <use xlink:href="#DejaVuSans-30" x="127.246094"/>
      </g>
     </g>
    </g>
    <g id="ytick_4">
     <g id="line2d_16">
      <path d="M 63 175.413378 
L 453.6 175.413378 
" clip-path="url(#p10761e93de)" style="fill: none; stroke-dasharray: 2.96,1.28; stroke-dashoffset: 0; stroke: #b0b0b0; stroke-width: 0.8"/>
     </g>
     <g id="line2d_17">
      <g>
       <use xlink:href="#m98bd0ba695" x="63" y="175.413378" style="stroke: #000000; stroke-width: 0.8"/>
      </g>
     </g>
     <g id="text_14">
      <!-- 300 -->
      <g transform="translate(36.9125 179.212597) scale(0.1 -0.1)">
       <defs>
        <path id="DejaVuSans-33" d="M 2597 2516 
Q 3050 2419 3304 2112 
Q 3559 1806 3559 1356 
Q 3559 666 3084 287 
Q 2609 -91 1734 -91 
Q 1441 -91 1130 -33 
Q 819 25 488 141 
L 488 750 
Q 750 597 1062 519 
Q 1375 441 1716 441 
Q 2309 441 2620 675 
Q 2931 909 2931 1356 
Q 2931 1769 2642 2001 
Q 2353 2234 1838 2234 
L 1294 2234 
L 1294 2753 
L 1863 2753 
Q 2328 2753 2575 2939 
Q 2822 3125 2822 3475 
Q 2822 3834 2567 4026 
Q 2313 4219 1838 4219 
Q 1578 4219 1281 4162 
Q 984 4106 628 3988 
L 628 4550 
Q 988 4650 1302 4700 
Q 1616 4750 1894 4750 
Q 2613 4750 3031 4423 
Q 3450 4097 3450 3541 
Q 3450 3153 3228 2886 
Q 3006 2619 2597 2516 
z
" transform="scale(0.015625)"/>
       </defs>
       <use xlink:href="#DejaVuSans-33"/>
       <use xlink:href="#DejaVuSans-30" x="63.623047"/>
       <use xlink:href="#DejaVuSans-30" x="127.246094"/>
      </g>
     </g>
    </g>
    <g id="ytick_5">
     <g id="line2d_18">
      <path d="M 63 126.652287 
L 453.6 126.652287 
" clip-path="url(#p10761e93de)" style="fill: none; stroke-dasharray: 2.96,1.28; stroke-dashoffset: 0; stroke: #b0b0b0; stroke-width: 0.8"/>
     </g>
     <g id="line2d_19">
      <g>
       <use xlink:href="#m98bd0ba695" x="63" y="126.652287" style="stroke: #000000; stroke-width: 0.8"/>
      </g>
     </g>
     <g id="text_15">
      <!-- 400 -->
      <g transform="translate(36.9125 130.451505) scale(0.1 -0.1)">
       <defs>
        <path id="DejaVuSans-34" d="M 2419 4116 
L 825 1625 
L 2419 1625 
L 2419 4116 
z
M 2253 4666 
L 3047 4666 
L 3047 1625 
L 3713 1625 
L 3713 1100 
L 3047 1100 
L 3047 0 
L 2419 0 
L 2419 1100 
L 313 1100 
L 313 1709 
L 2253 4666 
z
" transform="scale(0.015625)"/>
       </defs>
       <use xlink:href="#DejaVuSans-34"/>
       <use xlink:href="#DejaVuSans-30" x="63.623047"/>
       <use xlink:href="#DejaVuSans-30" x="127.246094"/>
      </g>
     </g>
    </g>
    <g id="ytick_6">
     <g id="line2d_20">
      <path d="M 63 77.891195 
L 453.6 77.891195 
" clip-path="url(#p10761e93de)" style="fill: none; stroke-dasharray: 2.96,1.28; stroke-dashoffset: 0; stroke: #b0b0b0; stroke-width: 0.8"/>
     </g>
     <g id="line2d_21">
      <g>
       <use xlink:href="#m98bd0ba695" x="63" y="77.891195" style="stroke: #000000; stroke-width: 0.8"/>
      </g>
     </g>
     <g id="text_16">
      <!-- 500 -->
      <g transform="translate(36.9125 81.690414) scale(0.1 -0.1)">
       <use xlink:href="#DejaVuSans-35"/>
       <use xlink:href="#DejaVuSans-30" x="63.623047"/>
       <use xlink:href="#DejaVuSans-30" x="127.246094"/>
      </g>
     </g>
    </g>
    <g id="text_17">
     <!-- Mean rewards -->
     <g transform="translate(30.832812 235.112031) rotate(-90) scale(0.1 -0.1)">
      <defs>
       <path id="DejaVuSans-4d" d="M 628 4666 
L 1569 4666 
L 2759 1491 
L 3956 4666 
L 4897 4666 
L 4897 0 
L 4281 0 
L 4281 4097 
L 3078 897 
L 2444 897 
L 1241 4097 
L 1241 0 
L 628 0 
L 628 4666 
z
" transform="scale(0.015625)"/>
       <path id="DejaVuSans-61" d="M 2194 1759 
Q 1497 1759 1228 1600 
Q 959 1441 959 1056 
Q 959 750 1161 570 
Q 1363 391 1709 391 
Q 2188 391 2477 730 
Q 2766 1069 2766 1631 
L 2766 1759 
L 2194 1759 
z
M 3341 1997 
L 3341 0 
L 2766 0 
L 2766 531 
Q 2569 213 2275 61 
Q 1981 -91 1556 -91 
Q 1019 -91 701 211 
Q 384 513 384 1019 
Q 384 1609 779 1909 
Q 1175 2209 1959 2209 
L 2766 2209 
L 2766 2266 
Q 2766 2663 2505 2880 
Q 2244 3097 1772 3097 
Q 1472 3097 1187 3025 
Q 903 2953 641 2809 
L 641 3341 
Q 956 3463 1253 3523 
Q 1550 3584 1831 3584 
Q 2591 3584 2966 3190 
Q 3341 2797 3341 1997 
z
" transform="scale(0.015625)"/>
       <path id="DejaVuSans-6e" d="M 3513 2113 
L 3513 0 
L 2938 0 
L 2938 2094 
Q 2938 2591 2744 2837 
Q 2550 3084 2163 3084 
Q 1697 3084 1428 2787 
Q 1159 2491 1159 1978 
L 1159 0 
L 581 0 
L 581 3500 
L 1159 3500 
L 1159 2956 
Q 1366 3272 1645 3428 
Q 1925 3584 2291 3584 
Q 2894 3584 3203 3211 
Q 3513 2838 3513 2113 
z
" transform="scale(0.015625)"/>
       <path id="DejaVuSans-20" transform="scale(0.015625)"/>
       <path id="DejaVuSans-72" d="M 2631 2963 
Q 2534 3019 2420 3045 
Q 2306 3072 2169 3072 
Q 1681 3072 1420 2755 
Q 1159 2438 1159 1844 
L 1159 0 
L 581 0 
L 581 3500 
L 1159 3500 
L 1159 2956 
Q 1341 3275 1631 3429 
Q 1922 3584 2338 3584 
Q 2397 3584 2469 3576 
Q 2541 3569 2628 3553 
L 2631 2963 
z
" transform="scale(0.015625)"/>
       <path id="DejaVuSans-77" d="M 269 3500 
L 844 3500 
L 1563 769 
L 2278 3500 
L 2956 3500 
L 3675 769 
L 4391 3500 
L 4966 3500 
L 4050 0 
L 3372 0 
L 2619 2869 
L 1863 0 
L 1184 0 
L 269 3500 
z
" transform="scale(0.015625)"/>
       <path id="DejaVuSans-64" d="M 2906 2969 
L 2906 4863 
L 3481 4863 
L 3481 0 
L 2906 0 
L 2906 525 
Q 2725 213 2448 61 
Q 2172 -91 1784 -91 
Q 1150 -91 751 415 
Q 353 922 353 1747 
Q 353 2572 751 3078 
Q 1150 3584 1784 3584 
Q 2172 3584 2448 3432 
Q 2725 3281 2906 2969 
z
M 947 1747 
Q 947 1113 1208 752 
Q 1469 391 1925 391 
Q 2381 391 2643 752 
Q 2906 1113 2906 1747 
Q 2906 2381 2643 2742 
Q 2381 3103 1925 3103 
Q 1469 3103 1208 2742 
Q 947 2381 947 1747 
z
" transform="scale(0.015625)"/>
      </defs>
      <use xlink:href="#DejaVuSans-4d"/>
      <use xlink:href="#DejaVuSans-65" x="86.279297"/>
      <use xlink:href="#DejaVuSans-61" x="147.802734"/>
      <use xlink:href="#DejaVuSans-6e" x="209.082031"/>
      <use xlink:href="#DejaVuSans-20" x="272.460938"/>
      <use xlink:href="#DejaVuSans-72" x="304.248047"/>
      <use xlink:href="#DejaVuSans-65" x="343.111328"/>
      <use xlink:href="#DejaVuSans-77" x="404.634766"/>
      <use xlink:href="#DejaVuSans-61" x="486.421875"/>
      <use xlink:href="#DejaVuSans-72" x="547.701172"/>
      <use xlink:href="#DejaVuSans-64" x="587.064453"/>
      <use xlink:href="#DejaVuSans-73" x="650.541016"/>
     </g>
    </g>
   </g>
   <g id="line2d_22">
    <path d="M 80.754545 317.156994 
L 81.413767 314.231329 
L 82.151261 317.117985 
L 82.730471 317.103357 
L 83.464486 317.156994 
L 84.097617 313.104947 
L 84.659434 307.3999 
L 85.429975 283.151009 
L 86.306619 269.161452 
L 87.144996 271.926206 
L 87.978154 260.165031 
L 89.110485 269.985514 
L 90.39762 272.433321 
L 91.194252 269.210213 
L 92.008278 272.155383 
L 92.808388 278.499201 
L 93.528488 273.335401 
L 94.699085 274.032685 
L 95.751405 274.188721 
L 96.671532 276.275695 
L 97.610793 277.670262 
L 98.572665 275.685686 
L 99.254498 272.599109 
L 100.188541 280.152202 
L 101.169546 269.922125 
L 102.385367 270.658418 
L 103.385505 273.588959 
L 104.023855 277.314306 
L 104.900498 272.062737 
L 106.479847 269.907497 
L 107.49564 263.553927 
L 108.633188 267.28415 
L 109.295889 272.257781 
L 109.918584 272.516215 
L 110.767397 273.072092 
L 112.066707 271.896949 
L 112.913781 271.170409 
L 113.769552 267.298778 
L 115.013202 272.940437 
L 115.907239 275.909987 
L 117.582254 275.744199 
L 118.577174 273.764499 
L 119.626015 271.862816 
L 120.947937 270.151302 
L 121.838495 270.765692 
L 122.696005 271.965215 
L 123.701362 273.081844 
L 124.605835 231.449624 
L 126.406084 213.949268 
L 128.241121 271.472728 
L 129.982232 221.258556 
L 132.396479 237.354592 
L 134.777678 212.739993 
L 136.143085 270.024523 
L 137.626768 271.404462 
L 139.738365 269.970886 
L 141.561226 268.981036 
L 142.987511 268.761611 
L 144.817329 268.293505 
L 146.871527 267.669363 
L 148.55002 264.212201 
L 151.042539 262.768873 
L 153.122827 263.456404 
L 155.152674 262.612837 
L 157.059024 262.252005 
L 159.059301 262.139855 
L 161.089148 260.462473 
L 163.934759 257.43441 
L 166.491635 256.156869 
L 170.173884 252.397389 
L 174.426647 246.828872 
L 179.133386 234.409422 
L 183.678363 229.874641 
L 188.496421 224.247611 
L 193.625827 226.051771 
L 198.666525 224.930266 
L 204.124672 220.234573 
L 210.083758 214.914738 
L 216.101983 205.313679 
L 222.546353 196.873134 
L 230.072613 151.057213 
L 241.376787 83.781535 
L 250.195399 134.649106 
L 258.845293 80.816861 
L 269.50416 77.891195 
L 281.295358 77.891195 
L 292.015103 77.891195 
L 302.672231 77.891195 
L 313.889437 77.891195 
L 324.53265 77.891195 
L 334.71319 77.891195 
L 344.330174 77.891195 
L 352.465213 77.891195 
L 361.943047 77.891195 
L 372.434935 77.891195 
L 378.802773 77.891195 
L 388.489332 77.891195 
L 396.088645 77.891195 
L 405.133376 77.891195 
L 414.85994 77.891195 
L 425.043959 77.891195 
L 435.845455 77.891195 
" clip-path="url(#p10761e93de)" style="fill: none; stroke: #1f77b4; stroke-width: 1.5; stroke-linecap: square"/>
   </g>
   <g id="line2d_23">
    <path d="M 80.754545 273.623092 
L 84.233288 77.891195 
L 87.712031 77.891195 
L 91.190773 77.891195 
L 94.669516 77.891195 
L 98.148258 77.891195 
L 101.627001 77.891195 
L 105.105743 77.891195 
L 108.584486 77.891195 
L 112.063229 77.891195 
L 115.541971 77.891195 
L 119.020714 77.891195 
L 122.499456 77.891195 
L 125.978199 77.891195 
L 129.456942 77.891195 
L 132.935684 77.891195 
L 136.414427 77.891195 
L 139.893169 77.891195 
L 143.371912 77.891195 
L 146.850654 77.891195 
L 150.329397 77.891195 
L 153.80814 77.891195 
L 157.286882 77.891195 
L 160.765625 77.891195 
L 164.244367 77.891195 
L 167.72311 77.891195 
L 171.201852 77.891195 
L 174.680595 77.891195 
L 178.159338 77.891195 
L 181.63808 77.891195 
L 185.116823 77.891195 
L 188.595565 77.891195 
L 192.074308 77.891195 
L 195.55305 77.891195 
L 199.031793 77.891195 
L 202.510536 77.891195 
L 205.989278 77.891195 
L 209.468021 77.891195 
L 212.946763 77.891195 
L 216.425506 77.891195 
L 219.904249 77.891195 
L 223.382991 77.891195 
L 226.861734 77.891195 
L 230.340476 77.891195 
L 233.819219 77.891195 
L 237.297961 77.891195 
L 240.776704 77.891195 
L 244.255447 77.891195 
L 247.734189 77.891195 
L 251.212932 77.891195 
L 254.691674 77.891195 
L 258.170417 77.891195 
L 261.649159 77.891195 
L 265.127902 77.891195 
L 268.606645 77.891195 
L 272.085387 77.891195 
L 275.56413 77.891195 
L 279.042872 77.891195 
L 282.521615 77.891195 
L 286.000357 77.891195 
L 289.4791 77.891195 
L 292.957843 77.891195 
L 296.436585 77.891195 
L 299.915328 77.891195 
L 303.39407 77.891195 
L 306.872813 77.891195 
L 310.351555 77.891195 
L 313.830298 77.891195 
L 317.309041 77.891195 
L 320.787783 77.891195 
L 324.266526 77.891195 
L 327.745268 77.891195 
L 331.224011 77.891195 
L 334.702754 77.891195 
L 338.181496 77.891195 
L 341.660239 77.891195 
L 345.138981 77.891195 
L 348.617724 77.891195 
L 352.096466 77.891195 
L 355.575209 77.891195 
L 359.053952 77.891195 
L 362.532694 77.891195 
L 366.011437 77.891195 
L 369.490179 77.891195 
L 372.968922 77.891195 
L 376.447664 77.891195 
L 379.926407 77.891195 
L 383.40515 77.891195 
L 386.883892 77.891195 
L 390.362635 77.891195 
L 393.841377 77.891195 
L 397.32012 77.891195 
L 400.798862 77.891195 
L 404.277605 77.891195 
L 407.756348 77.891195 
L 411.23509 77.891195 
L 414.713833 77.891195 
L 418.192575 77.891195 
L 421.671318 77.891195 
L 425.15006 77.891195 
" clip-path="url(#p10761e93de)" style="fill: none; stroke: #ff7f0e; stroke-width: 1.5; stroke-linecap: square"/>
   </g>
   <g id="line2d_24">
    <path d="M 80.754545 317.156994 
L 83.139223 285.808489 
L 85.55521 310.822928 
L 89.221805 317.117985 
L 91.136853 317.156994 
L 94.686909 303.830588 
L 97.391632 317.078976 
L 101.030397 316.771782 
L 105.034429 239.114868 
L 109.349809 308.813971 
L 113.887829 249.998343 
L 119.989544 286.652055 
L 125.541617 315.318701 
L 131.0102 317.381295 
L 132.966993 316.976578 
L 135.122074 317.303277 
L 137.952031 317.098481 
L 139.720971 316.445082 
L 143.164927 300.69525 
L 146.791516 316.5231 
L 152.764517 317.117985 
L 155.71449 302.050808 
L 158.443564 310.886318 
L 160.80563 317.117985 
L 163.973025 303.879349 
L 168.394507 317.113109 
L 172.810771 317.117985 
L 174.990203 310.569371 
L 177.162678 317.156994 
L 179.277753 317.283773 
L 181.827672 292.844714 
L 185.292499 316.69864 
L 187.44758 316.801038 
L 191.048079 310.111016 
L 195.44347 313.826612 
L 197.751616 303.386862 
L 199.285741 311.339796 
L 202.58185 317.117985 
L 205.387456 283.136381 
L 208.951428 311.227645 
L 212.995466 315.430852 
L 216.561177 312.661222 
L 218.947594 317.410552 
L 220.464326 317.156994 
L 224.597072 317.020463 
L 227.964495 316.406073 
L 232.312923 308.067927 
L 235.344647 312.14923 
L 237.692799 297.374619 
L 240.919332 314.148435 
L 244.359809 315.986728 
L 247.762019 309.989114 
L 251.115527 251.836636 
L 254.987367 317.117985 
L 256.768484 316.991206 
L 259.657579 307.082953 
L 263.296344 288.934075 
L 266.832486 316.888808 
L 270.119898 317.117985 
L 274.647481 317.064348 
L 277.940111 119.382008 
L 283.408694 254.976851 
L 285.998618 314.684807 
L 288.971204 305.049615 
L 291.794203 307.000059 
L 297.72372 317.069224 
L 300.395394 315.035887 
L 303.848046 316.113507 
L 307.392885 316.176896 
L 311.226459 280.532539 
L 314.953932 297.306354 
L 317.150758 313.217098 
L 320.946066 317.117985 
L 324.831821 261.257279 
L 328.305346 317.156994 
L 330.717854 317.156994 
L 332.801621 315.957471 
L 335.838563 317.117985 
L 340.552259 316.908313 
L 344.730229 315.118781 
L 348.299419 295.136485 
L 352.505219 307.078077 
L 356.497076 305.264164 
L 364.021596 312.802629 
L 366.686313 315.060267 
L 370.191146 317.156994 
L 372.410584 297.013787 
L 375.63016 306.278395 
L 381.731874 316.918065 
L 384.365283 316.87418 
L 388.706753 301.728985 
L 391.37147 314.070417 
L 393.794414 300.134497 
L 396.316503 317.113109 
L 399.355184 317.156994 
L 403.289642 134.58084 
L 407.154525 317.117985 
L 410.79329 316.332932 
L 412.845748 304.888704 
L 416.143596 305.941943 
" clip-path="url(#p10761e93de)" style="fill: none; stroke: #2ca02c; stroke-width: 1.5; stroke-linecap: square"/>
   </g>
   <g id="patch_3">
    <path d="M 63 352.44 
L 63 47.52 
" style="fill: none; stroke: #000000; stroke-width: 0.8; stroke-linejoin: miter; stroke-linecap: square"/>
   </g>
   <g id="patch_4">
    <path d="M 453.6 352.44 
L 453.6 47.52 
" style="fill: none; stroke: #000000; stroke-width: 0.8; stroke-linejoin: miter; stroke-linecap: square"/>
   </g>
   <g id="patch_5">
    <path d="M 63 352.44 
L 453.6 352.44 
" style="fill: none; stroke: #000000; stroke-width: 0.8; stroke-linejoin: miter; stroke-linecap: square"/>
   </g>
   <g id="patch_6">
    <path d="M 63 47.52 
L 453.6 47.52 
" style="fill: none; stroke: #000000; stroke-width: 0.8; stroke-linejoin: miter; stroke-linecap: square"/>
   </g>
   <g id="text_18">
    <!-- Cartpole - Baselines -->
    <g transform="translate(198.2325 41.52) scale(0.12 -0.12)">
     <defs>
      <path id="DejaVuSans-43" d="M 4122 4306 
L 4122 3641 
Q 3803 3938 3442 4084 
Q 3081 4231 2675 4231 
Q 1875 4231 1450 3742 
Q 1025 3253 1025 2328 
Q 1025 1406 1450 917 
Q 1875 428 2675 428 
Q 3081 428 3442 575 
Q 3803 722 4122 1019 
L 4122 359 
Q 3791 134 3420 21 
Q 3050 -91 2638 -91 
Q 1578 -91 968 557 
Q 359 1206 359 2328 
Q 359 3453 968 4101 
Q 1578 4750 2638 4750 
Q 3056 4750 3426 4639 
Q 3797 4528 4122 4306 
z
" transform="scale(0.015625)"/>
      <path id="DejaVuSans-6f" d="M 1959 3097 
Q 1497 3097 1228 2736 
Q 959 2375 959 1747 
Q 959 1119 1226 758 
Q 1494 397 1959 397 
Q 2419 397 2687 759 
Q 2956 1122 2956 1747 
Q 2956 2369 2687 2733 
Q 2419 3097 1959 3097 
z
M 1959 3584 
Q 2709 3584 3137 3096 
Q 3566 2609 3566 1747 
Q 3566 888 3137 398 
Q 2709 -91 1959 -91 
Q 1206 -91 779 398 
Q 353 888 353 1747 
Q 353 2609 779 3096 
Q 1206 3584 1959 3584 
z
" transform="scale(0.015625)"/>
      <path id="DejaVuSans-6c" d="M 603 4863 
L 1178 4863 
L 1178 0 
L 603 0 
L 603 4863 
z
" transform="scale(0.015625)"/>
      <path id="DejaVuSans-2d" d="M 313 2009 
L 1997 2009 
L 1997 1497 
L 313 1497 
L 313 2009 
z
" transform="scale(0.015625)"/>
      <path id="DejaVuSans-42" d="M 1259 2228 
L 1259 519 
L 2272 519 
Q 2781 519 3026 730 
Q 3272 941 3272 1375 
Q 3272 1813 3026 2020 
Q 2781 2228 2272 2228 
L 1259 2228 
z
M 1259 4147 
L 1259 2741 
L 2194 2741 
Q 2656 2741 2882 2914 
Q 3109 3088 3109 3444 
Q 3109 3797 2882 3972 
Q 2656 4147 2194 4147 
L 1259 4147 
z
M 628 4666 
L 2241 4666 
Q 2963 4666 3353 4366 
Q 3744 4066 3744 3513 
Q 3744 3084 3544 2831 
Q 3344 2578 2956 2516 
Q 3422 2416 3680 2098 
Q 3938 1781 3938 1306 
Q 3938 681 3513 340 
Q 3088 0 2303 0 
L 628 0 
L 628 4666 
z
" transform="scale(0.015625)"/>
     </defs>
     <use xlink:href="#DejaVuSans-43"/>
     <use xlink:href="#DejaVuSans-61" x="69.824219"/>
     <use xlink:href="#DejaVuSans-72" x="131.103516"/>
     <use xlink:href="#DejaVuSans-74" x="172.216797"/>
     <use xlink:href="#DejaVuSans-70" x="211.425781"/>
     <use xlink:href="#DejaVuSans-6f" x="274.902344"/>
     <use xlink:href="#DejaVuSans-6c" x="336.083984"/>
     <use xlink:href="#DejaVuSans-65" x="363.867188"/>
     <use xlink:href="#DejaVuSans-20" x="425.390625"/>
     <use xlink:href="#DejaVuSans-2d" x="457.177734"/>
     <use xlink:href="#DejaVuSans-20" x="493.261719"/>
     <use xlink:href="#DejaVuSans-42" x="525.048828"/>
     <use xlink:href="#DejaVuSans-61" x="593.652344"/>
     <use xlink:href="#DejaVuSans-73" x="654.931641"/>
     <use xlink:href="#DejaVuSans-65" x="707.03125"/>
     <use xlink:href="#DejaVuSans-6c" x="768.554688"/>
     <use xlink:href="#DejaVuSans-69" x="796.337891"/>
     <use xlink:href="#DejaVuSans-6e" x="824.121094"/>
     <use xlink:href="#DejaVuSans-65" x="887.5"/>
     <use xlink:href="#DejaVuSans-73" x="949.023438"/>
    </g>
   </g>
   <g id="legend_1">
    <g id="patch_7">
     <path d="M 353.65625 223.497187 
L 446.6 223.497187 
Q 448.6 223.497187 448.6 221.497187 
L 448.6 178.462812 
Q 448.6 176.462812 446.6 176.462812 
L 353.65625 176.462812 
Q 351.65625 176.462812 351.65625 178.462812 
L 351.65625 221.497187 
Q 351.65625 223.497187 353.65625 223.497187 
z
" style="fill: #ffffff; opacity: 0.8; stroke: #cccccc; stroke-linejoin: miter"/>
    </g>
    <g id="line2d_25">
     <path d="M 355.65625 184.56125 
L 365.65625 184.56125 
L 375.65625 184.56125 
" style="fill: none; stroke: #1f77b4; stroke-width: 1.5; stroke-linecap: square"/>
    </g>
    <g id="text_19">
     <!-- DQN -->
     <g transform="translate(383.65625 188.06125) scale(0.1 -0.1)">
      <defs>
       <path id="DejaVuSans-44" d="M 1259 4147 
L 1259 519 
L 2022 519 
Q 2988 519 3436 956 
Q 3884 1394 3884 2338 
Q 3884 3275 3436 3711 
Q 2988 4147 2022 4147 
L 1259 4147 
z
M 628 4666 
L 1925 4666 
Q 3281 4666 3915 4102 
Q 4550 3538 4550 2338 
Q 4550 1131 3912 565 
Q 3275 0 1925 0 
L 628 0 
L 628 4666 
z
" transform="scale(0.015625)"/>
       <path id="DejaVuSans-51" d="M 2522 4238 
Q 1834 4238 1429 3725 
Q 1025 3213 1025 2328 
Q 1025 1447 1429 934 
Q 1834 422 2522 422 
Q 3209 422 3611 934 
Q 4013 1447 4013 2328 
Q 4013 3213 3611 3725 
Q 3209 4238 2522 4238 
z
M 3406 84 
L 4238 -825 
L 3475 -825 
L 2784 -78 
Q 2681 -84 2626 -87 
Q 2572 -91 2522 -91 
Q 1538 -91 948 567 
Q 359 1225 359 2328 
Q 359 3434 948 4092 
Q 1538 4750 2522 4750 
Q 3503 4750 4090 4092 
Q 4678 3434 4678 2328 
Q 4678 1516 4351 937 
Q 4025 359 3406 84 
z
" transform="scale(0.015625)"/>
       <path id="DejaVuSans-4e" d="M 628 4666 
L 1478 4666 
L 3547 763 
L 3547 4666 
L 4159 4666 
L 4159 0 
L 3309 0 
L 1241 3903 
L 1241 0 
L 628 0 
L 628 4666 
z
" transform="scale(0.015625)"/>
      </defs>
      <use xlink:href="#DejaVuSans-44"/>
      <use xlink:href="#DejaVuSans-51" x="77.001953"/>
      <use xlink:href="#DejaVuSans-4e" x="155.712891"/>
     </g>
    </g>
    <g id="line2d_26">
     <path d="M 355.65625 199.239375 
L 365.65625 199.239375 
L 375.65625 199.239375 
" style="fill: none; stroke: #ff7f0e; stroke-width: 1.5; stroke-linecap: square"/>
    </g>
    <g id="text_20">
     <!-- PPO -->
     <g transform="translate(383.65625 202.739375) scale(0.1 -0.1)">
      <defs>
       <path id="DejaVuSans-50" d="M 1259 4147 
L 1259 2394 
L 2053 2394 
Q 2494 2394 2734 2622 
Q 2975 2850 2975 3272 
Q 2975 3691 2734 3919 
Q 2494 4147 2053 4147 
L 1259 4147 
z
M 628 4666 
L 2053 4666 
Q 2838 4666 3239 4311 
Q 3641 3956 3641 3272 
Q 3641 2581 3239 2228 
Q 2838 1875 2053 1875 
L 1259 1875 
L 1259 0 
L 628 0 
L 628 4666 
z
" transform="scale(0.015625)"/>
       <path id="DejaVuSans-4f" d="M 2522 4238 
Q 1834 4238 1429 3725 
Q 1025 3213 1025 2328 
Q 1025 1447 1429 934 
Q 1834 422 2522 422 
Q 3209 422 3611 934 
Q 4013 1447 4013 2328 
Q 4013 3213 3611 3725 
Q 3209 4238 2522 4238 
z
M 2522 4750 
Q 3503 4750 4090 4092 
Q 4678 3434 4678 2328 
Q 4678 1225 4090 567 
Q 3503 -91 2522 -91 
Q 1538 -91 948 565 
Q 359 1222 359 2328 
Q 359 3434 948 4092 
Q 1538 4750 2522 4750 
z
" transform="scale(0.015625)"/>
      </defs>
      <use xlink:href="#DejaVuSans-50"/>
      <use xlink:href="#DejaVuSans-50" x="60.302734"/>
      <use xlink:href="#DejaVuSans-4f" x="120.605469"/>
     </g>
    </g>
    <g id="line2d_27">
     <path d="M 355.65625 213.9175 
L 365.65625 213.9175 
L 375.65625 213.9175 
" style="fill: none; stroke: #2ca02c; stroke-width: 1.5; stroke-linecap: square"/>
    </g>
    <g id="text_21">
     <!-- TAC random -->
     <g transform="translate(383.65625 217.4175) scale(0.1 -0.1)">
      <defs>
       <path id="DejaVuSans-41" d="M 2188 4044 
L 1331 1722 
L 3047 1722 
L 2188 4044 
z
M 1831 4666 
L 2547 4666 
L 4325 0 
L 3669 0 
L 3244 1197 
L 1141 1197 
L 716 0 
L 50 0 
L 1831 4666 
z
" transform="scale(0.015625)"/>
      </defs>
      <use xlink:href="#DejaVuSans-54"/>
      <use xlink:href="#DejaVuSans-41" x="53.333984"/>
      <use xlink:href="#DejaVuSans-43" x="119.992188"/>
      <use xlink:href="#DejaVuSans-20" x="189.816406"/>
      <use xlink:href="#DejaVuSans-72" x="221.603516"/>
      <use xlink:href="#DejaVuSans-61" x="262.716797"/>
      <use xlink:href="#DejaVuSans-6e" x="323.996094"/>
      <use xlink:href="#DejaVuSans-64" x="387.375"/>
      <use xlink:href="#DejaVuSans-6f" x="450.851562"/>
      <use xlink:href="#DejaVuSans-6d" x="512.033203"/>
     </g>
    </g>
   </g>
  </g>
 </g>
 <defs>
  <clipPath id="p10761e93de">
   <rect x="63" y="47.52" width="390.6" height="304.92"/>
  </clipPath>
 </defs>
</svg>
