<?xml version="1.0" encoding="utf-8" standalone="no"?>
<!DOCTYPE svg PUBLIC "-//W3C//DTD SVG 1.1//EN"
  "http://www.w3.org/Graphics/SVG/1.1/DTD/svg11.dtd">
<svg xmlns:xlink="http://www.w3.org/1999/xlink" width="504pt" height="396pt" viewBox="0 0 504 396" xmlns="http://www.w3.org/2000/svg" version="1.1">
 <metadata>
  <rdf:RDF xmlns:dc="http://purl.org/dc/elements/1.1/" xmlns:cc="http://creativecommons.org/ns#" xmlns:rdf="http://www.w3.org/1999/02/22-rdf-syntax-ns#">
   <cc:Work>
    <dc:type rdf:resource="http://purl.org/dc/dcmitype/StillImage"/>
    <dc:date>2024-05-10T11:22:24.805641</dc:date>
    <dc:format>image/svg+xml</dc:format>
    <dc:creator>
     <cc:Agent>
      <dc:title>Matplotlib v3.8.2, https://matplotlib.org/</dc:title>
     </cc:Agent>
    </dc:creator>
   </cc:Work>
  </rdf:RDF>
 </metadata>
 <defs>
  <style type="text/css">*{stroke-linejoin: round; stroke-linecap: butt}</style>
 </defs>
 <g id="figure_1">
  <g id="patch_1">
   <path d="M 0 396 
L 504 396 
L 504 0 
L 0 0 
z
" style="fill: #ffffff"/>
  </g>
  <g id="axes_1">
   <g id="patch_2">
    <path d="M 63 352.44 
L 453.6 352.44 
L 453.6 47.52 
L 63 47.52 
z
" style="fill: #ffffff"/>
   </g>
   <g id="PolyCollection_1">
    <path d="M 80.754545 313.347409 
L 80.754545 329.34886 
L 80.953107 262.996935 
L 81.167005 324.914266 
L 81.487936 228.335001 
L 81.874998 230.091198 
L 82.841253 338.58 
L 83.687118 328.315544 
L 84.600598 230.112182 
L 85.923736 322.45947 
L 87.223949 265.886875 
L 89.698709 198.817174 
L 92.889048 247.900482 
L 95.26832 121.933864 
L 98.772828 206.073267 
L 101.142205 322.768874 
L 103.49542 146.446615 
L 107.013781 172.626465 
L 110.725591 119.260253 
L 114.465271 118.910574 
L 118.493394 106.085972 
L 122.429822 116.784219 
L 126.389668 109.694415 
L 130.464957 120.760943 
L 134.507098 123.318627 
L 138.630048 110.767195 
L 142.651739 106.085972 
L 146.770566 106.085972 
L 150.663786 180.389126 
L 154.49681 145.959922 
L 158.517181 115.009554 
L 162.378242 114.376031 
L 166.366619 120.994458 
L 170.4269 148.169508 
L 174.420555 127.872585 
L 178.364569 146.989811 
L 181.69311 224.357946 
L 185.460167 139.714061 
L 189.518139 126.134237 
L 193.64109 138.091799 
L 197.763215 140.763987 
L 201.71663 192.16513 
L 205.12532 186.303284 
L 209.040309 167.877915 
L 212.765312 189.612588 
L 216.653749 132.499756 
L 220.320371 129.29287 
L 224.290443 145.694646 
L 228.271728 133.546704 
L 232.206177 149.23136 
L 235.922605 208.933478 
L 239.93506 143.771127 
L 243.84807 148.012207 
L 247.726776 137.605815 
L 251.849727 175.393733 
L 255.96575 134.172725 
L 259.691248 236.313561 
L 263.403718 144.767213 
L 267.395228 142.823657 
L 271.086423 235.454492 
L 275.097889 182.856195 
L 279.075547 136.437283 
L 283.098721 198.499135 
L 286.933395 132.40116 
L 290.943871 182.695084 
L 294.883433 169.1731 
L 298.971585 170.012236 
L 302.960787 141.206707 
L 306.912882 182.67715 
L 310.84997 140.969524 
L 314.840986 135.262948 
L 318.904896 213.434246 
L 322.70708 184.98112 
L 326.716732 139.346028 
L 330.772891 173.008327 
L 334.839439 193.463443 
L 338.630574 144.697086 
L 342.473659 169.690724 
L 346.484795 139.177251 
L 350.442002 134.488385 
L 354.31939 236.903339 
L 357.509399 154.123741 
L 360.910338 188.735547 
L 364.389119 150.592767 
L 367.799953 145.651237 
L 371.568329 154.887192 
L 375.627621 140.203852 
L 379.538817 147.207643 
L 383.479698 155.171971 
L 387.460489 167.715317 
L 391.454473 229.393899 
L 395.420916 199.429912 
L 399.437 147.908342 
L 403.555003 148.021103 
L 407.610336 147.336574 
L 411.398668 194.981587 
L 415.085245 188.411457 
L 418.803322 165.559567 
L 422.878281 194.91609 
L 426.784859 149.293358 
L 430.860313 214.7216 
L 430.860313 69.81598 
L 430.860313 69.81598 
L 426.784859 78.456124 
L 422.878281 69.563962 
L 418.803322 74.748136 
L 415.085245 75.02653 
L 411.398668 75.118492 
L 407.610336 79.442095 
L 403.555003 79.122734 
L 399.437 80.188495 
L 395.420916 69.770607 
L 391.454473 87.982093 
L 387.460489 71.594854 
L 383.479698 83.113948 
L 379.538817 82.795194 
L 375.627621 84.187864 
L 371.568329 80.130026 
L 367.799953 81.510413 
L 364.389119 87.488301 
L 360.910338 98.393837 
L 357.509399 76.520366 
L 354.31939 85.469223 
L 350.442002 87.169023 
L 346.484795 84.653353 
L 342.473659 74.446792 
L 338.630574 81.021705 
L 334.839439 73.038394 
L 330.772891 77.639869 
L 326.716732 84.68052 
L 322.70708 76.141167 
L 318.904896 68.048391 
L 314.840986 89.672067 
L 310.84997 87.510294 
L 306.912882 76.81524 
L 302.960787 83.665962 
L 298.971585 76.245036 
L 294.883433 71.588837 
L 290.943871 75.728522 
L 286.933395 88.668417 
L 283.098721 71.20015 
L 279.075547 86.235471 
L 275.097889 70.330364 
L 271.086423 80.193632 
L 267.395228 82.476526 
L 263.403718 81.387998 
L 259.691248 75.495845 
L 255.96575 87.128422 
L 251.849727 74.550846 
L 247.726776 86.055565 
L 243.84807 82.24892 
L 239.93506 82.588934 
L 235.922605 82.141502 
L 232.206177 84.084709 
L 228.271728 88.351182 
L 224.290443 82.740639 
L 220.320371 90.013212 
L 216.653749 89.05968 
L 212.765312 77.726464 
L 209.040309 73.988433 
L 205.12532 69.501798 
L 201.71663 68.467297 
L 197.763215 83.868205 
L 193.64109 89.025319 
L 189.518139 91.016462 
L 185.460167 84.927039 
L 181.69311 74.385566 
L 178.364569 84.010558 
L 174.420555 88.975292 
L 170.4269 82.39444 
L 166.366619 94.588691 
L 162.378242 99.764258 
L 158.517181 98.792286 
L 154.49681 85.824223 
L 150.663786 90.468009 
L 146.770566 106.085972 
L 142.651739 106.085972 
L 138.630048 102.259776 
L 134.507098 92.469371 
L 130.464957 95.062682 
L 126.389668 103.136612 
L 122.429822 98.585172 
L 118.493394 106.085972 
L 114.465271 95.603789 
L 110.725591 95.334269 
L 107.013781 83.098459 
L 103.49542 95.303948 
L 101.142205 318.582507 
L 98.772828 104.159681 
L 95.26832 93.132705 
L 92.889048 151.46021 
L 89.698709 167.188527 
L 87.223949 128.806791 
L 85.923736 316.237762 
L 84.600598 201.499091 
L 83.687118 184.461028 
L 82.841253 196.222445 
L 81.874998 102.933585 
L 81.487936 113.747734 
L 81.167005 323.624693 
L 80.953107 117.731276 
L 80.754545 313.347409 
z
" clip-path="url(#pf7916fcc1a)" style="fill: #1f77b4; fill-opacity: 0.1"/>
   </g>
   <g id="PolyCollection_2">
    <path d="M 80.754545 324.248915 
L 80.754545 324.958034 
L 80.93612 306.659938 
L 81.190919 318.22136 
L 81.555387 264.164179 
L 81.923979 127.568398 
L 82.4156 322.350746 
L 83.130354 277.876693 
L 83.757043 305.478144 
L 84.631768 275.364861 
L 85.570976 278.52775 
L 86.646901 130.194812 
L 87.751687 281.341551 
L 89.086039 244.383855 
L 90.362504 269.951504 
L 92.10041 317.225212 
L 94.478858 217.494443 
L 95.86252 275.811185 
L 97.412419 302.574795 
L 99.278466 299.741796 
L 101.291126 325.374509 
L 103.942843 264.08116 
L 106.855954 106.085972 
L 109.878242 198.577796 
L 111.975174 106.085972 
L 114.473682 166.568707 
L 116.608051 148.61746 
L 119.833683 238.987316 
L 123.313123 148.074832 
L 126.9494 231.520652 
L 129.660157 153.851201 
L 132.508127 198.117316 
L 135.842934 160.650188 
L 139.619721 150.259813 
L 143.379027 142.069081 
L 147.076324 129.551227 
L 150.992137 106.281023 
L 155.01894 106.085972 
L 158.918427 129.789982 
L 162.637988 221.946103 
L 166.569138 172.645143 
L 170.511009 110.733022 
L 174.362999 161.427344 
L 178.294479 188.484117 
L 182.171042 160.948866 
L 186.061128 106.085972 
L 190.031199 129.87039 
L 194.004569 205.133144 
L 197.903396 158.835138 
L 201.721907 150.198636 
L 205.811379 148.334516 
L 209.643249 168.087431 
L 213.589408 183.528251 
L 217.467455 150.401875 
L 221.50976 180.256469 
L 225.494674 126.970445 
L 229.2741 259.827604 
L 233.102837 124.275433 
L 237.073568 196.461352 
L 241.088991 184.552767 
L 244.847473 150.837107 
L 248.727334 143.537454 
L 252.237119 194.34325 
L 256.141718 158.333917 
L 260.159451 174.229657 
L 264.257333 172.607493 
L 268.296175 151.153327 
L 272.325947 172.859456 
L 276.294204 195.884334 
L 280.070332 136.030436 
L 284.136221 153.238636 
L 288.209696 167.975843 
L 292.225779 152.450852 
L 296.045115 178.636835 
L 299.953013 166.813184 
L 303.854973 152.722332 
L 307.968193 153.704643 
L 312.05717 193.591781 
L 315.982713 171.077797 
L 319.869996 176.423885 
L 323.691806 166.190916 
L 327.798429 113.237399 
L 331.70979 194.01385 
L 335.623789 173.808007 
L 339.597159 179.758675 
L 343.48708 122.163936 
L 347.300809 200.935025 
L 351.23097 142.243002 
L 354.60074 193.463558 
L 358.697633 178.304431 
L 362.684361 224.68865 
L 366.4783 236.381136 
L 370.251294 194.515725 
L 374.125053 182.323621 
L 378.057358 159.682686 
L 382.180309 133.410458 
L 386.123498 170.251255 
L 390.070481 141.414174 
L 394.193432 179.533289 
L 398.011448 212.580288 
L 401.774548 244.186446 
L 401.774548 71.800127 
L 401.774548 71.800127 
L 398.011448 71.182423 
L 394.193432 79.273297 
L 390.070481 88.668821 
L 386.123498 79.052053 
L 382.180309 91.453305 
L 378.057358 81.33754 
L 374.125053 75.236049 
L 370.251294 76.466102 
L 366.4783 87.247248 
L 362.684361 70.340834 
L 358.697633 73.038475 
L 354.60074 81.526212 
L 351.23097 87.777647 
L 347.300809 77.804398 
L 343.48708 95.726007 
L 339.597159 70.800455 
L 335.623789 72.992563 
L 331.70979 71.187632 
L 327.798429 101.891516 
L 323.691806 77.66159 
L 319.869996 77.724581 
L 315.982713 73.505045 
L 312.05717 79.474176 
L 307.968193 84.403145 
L 303.854973 81.12813 
L 299.953013 79.203611 
L 296.045115 76.74964 
L 292.225779 81.746965 
L 288.209696 76.75841 
L 284.136221 83.925058 
L 280.070332 90.276186 
L 276.294204 74.001988 
L 272.325947 76.328067 
L 268.296175 81.744135 
L 264.257333 76.107983 
L 260.159451 74.272063 
L 256.141718 78.108348 
L 252.237119 73.245185 
L 248.727334 86.091308 
L 244.847473 82.737252 
L 241.088991 76.07966 
L 237.073568 78.474978 
L 233.102837 95.707547 
L 229.2741 80.277878 
L 225.494674 91.498422 
L 221.50976 72.938997 
L 217.467455 83.163577 
L 213.589408 75.500999 
L 209.643249 74.714103 
L 205.811379 80.555003 
L 201.721907 84.150592 
L 197.903396 78.29293 
L 194.004569 71.352924 
L 190.031199 91.484196 
L 186.061128 106.085972 
L 182.171042 83.651789 
L 178.294479 76.85987 
L 174.362999 76.502313 
L 170.511009 103.255856 
L 166.569138 84.451388 
L 162.637988 83.878108 
L 158.918427 90.709576 
L 155.01894 106.085972 
L 150.992137 105.926547 
L 147.076324 88.784042 
L 143.379027 87.390456 
L 139.619721 92.59516 
L 135.842934 92.465119 
L 132.508127 67.636372 
L 129.660157 86.999801 
L 126.9494 86.897405 
L 123.313123 88.973077 
L 119.833683 103.086512 
L 116.608051 94.575962 
L 114.473682 87.953834 
L 111.975174 106.085972 
L 109.878242 107.157349 
L 106.855954 106.085972 
L 103.942843 116.932061 
L 101.291126 308.370688 
L 99.278466 228.888416 
L 97.412419 230.669005 
L 95.86252 226.375511 
L 94.478858 88.89088 
L 92.10041 228.621342 
L 90.362504 252.551009 
L 89.086039 230.780399 
L 87.751687 153.538422 
L 86.646901 86.724317 
L 85.570976 267.060515 
L 84.631768 109.905685 
L 83.757043 268.165721 
L 83.130354 143.999732 
L 82.4156 203.509532 
L 81.923979 95.620935 
L 81.555387 168.551506 
L 81.190919 192.070286 
L 80.93612 297.016779 
L 80.754545 324.248915 
z
" clip-path="url(#pf7916fcc1a)" style="fill: #ff7f0e; fill-opacity: 0.1"/>
   </g>
   <g id="PolyCollection_3">
    <path d="M 80.754545 254.947113 
L 80.754545 321.315275 
L 80.985761 314.441759 
L 81.379915 321.269907 
L 82.127323 280.031892 
L 82.5759 313.138033 
L 83.368166 307.284234 
L 84.246355 306.237321 
L 85.825939 239.683437 
L 86.821714 316.963401 
L 87.881972 271.777445 
L 89.72757 245.104928 
L 91.959405 181.003218 
L 95.457976 264.567362 
L 98.853967 158.787811 
L 101.656749 235.915173 
L 105.650733 106.085972 
L 109.773684 106.085972 
L 113.88476 170.065969 
L 118.00771 106.085972 
L 122.086133 135.4464 
L 125.90415 124.24501 
L 129.932272 111.600434 
L 134.055222 107.012464 
L 137.728606 291.306379 
L 141.676249 137.36353 
L 145.549843 109.160467 
L 149.421623 179.314392 
L 153.132773 179.148995 
L 157.082724 150.457337 
L 161.098643 135.498513 
L 165.157605 171.101794 
L 168.945772 157.702733 
L 172.944704 106.085972 
L 177.047204 106.085972 
L 181.170155 106.085972 
L 185.204544 142.769273 
L 189.30589 147.747012 
L 193.382828 163.437554 
L 197.376648 175.518919 
L 201.402791 161.609753 
L 205.373027 175.123118 
L 209.333368 168.111571 
L 212.883394 155.084227 
L 216.745114 164.92293 
L 220.513985 106.085972 
L 224.616156 106.085972 
L 228.609151 175.633806 
L 232.657558 150.291301 
L 236.524061 172.364297 
L 240.440699 160.251098 
L 244.382569 138.11509 
L 248.032699 178.067317 
L 252.088528 135.930127 
L 256.125226 143.71515 
L 260.239601 157.405362 
L 264.362551 197.562902 
L 268.27787 230.970591 
L 272.045422 224.298359 
L 276.01137 220.004665 
L 279.97303 128.73634 
L 284.089714 107.815211 
L 287.974523 138.734264 
L 292.063994 110.142765 
L 296.186945 201.804845 
L 300.229085 156.293 
L 304.265783 151.765916 
L 308.372077 185.040788 
L 312.45017 175.24886 
L 316.422055 146.627292 
L 320.425935 165.622658 
L 324.349994 188.289427 
L 328.368716 178.574268 
L 332.293765 218.222341 
L 335.69157 255.6146 
L 339.426798 250.739297 
L 342.981441 230.733092 
L 346.918364 241.117296 
L 350.20485 235.546025 
L 354.084381 124.285068 
L 358.13048 203.132268 
L 361.864554 164.920527 
L 365.94512 130.133232 
L 370.033767 151.667763 
L 374.112849 139.809869 
L 378.120852 152.140206 
L 381.909348 158.527954 
L 385.749959 211.998659 
L 389.60129 217.763794 
L 393.468947 222.645214 
L 397.387729 221.982426 
L 401.415521 218.786565 
L 405.339086 224.635768 
L 409.25226 161.354168 
L 413.299513 229.98418 
L 417.202793 177.933314 
L 421.07985 218.53875 
L 424.800236 177.996924 
L 428.446243 225.064149 
L 432.069492 221.201693 
L 435.845455 230.205366 
L 435.845455 73.258612 
L 435.845455 73.258612 
L 432.069492 73.774352 
L 428.446243 73.136064 
L 424.800236 77.042196 
L 421.07985 72.162155 
L 417.202793 75.271059 
L 413.299513 64.840454 
L 409.25226 81.803628 
L 405.339086 67.169549 
L 401.415521 64.219091 
L 397.387729 67.204368 
L 393.468947 65.927029 
L 389.60129 66.488777 
L 385.749959 67.658137 
L 381.909348 92.725887 
L 378.120852 87.793422 
L 374.112849 90.941117 
L 370.033767 84.819034 
L 365.94512 92.682026 
L 361.864554 79.787007 
L 358.13048 76.702659 
L 354.084381 96.356995 
L 350.20485 99.081935 
L 346.918364 68.296251 
L 342.981441 64.750626 
L 339.426798 67.981584 
L 335.69157 72.948007 
L 332.293765 77.430601 
L 328.368716 70.533096 
L 324.349994 69.288056 
L 320.425935 79.45895 
L 316.422055 86.06532 
L 312.45017 72.486898 
L 308.372077 69.223463 
L 304.265783 84.845573 
L 300.229085 82.687628 
L 296.186945 69.809346 
L 292.063994 103.578917 
L 287.974523 91.562488 
L 284.089714 104.77534 
L 279.97303 88.120444 
L 276.01137 61.38 
L 272.045422 61.521763 
L 268.27787 64.73579 
L 264.362551 72.047317 
L 260.239601 80.310538 
L 256.125226 81.870043 
L 252.088528 92.086551 
L 248.032699 95.720069 
L 244.382569 91.62055 
L 240.440699 82.033857 
L 236.524061 79.655506 
L 232.657558 85.705636 
L 228.609151 78.906548 
L 224.616156 106.085972 
L 220.513985 106.085972 
L 216.745114 83.765827 
L 212.883394 82.729645 
L 209.333368 82.3674 
L 205.373027 80.557273 
L 201.402791 82.153687 
L 197.376648 80.312883 
L 193.382828 82.605961 
L 189.30589 84.188544 
L 185.204544 93.05844 
L 181.170155 106.085972 
L 177.047204 106.085972 
L 172.944704 106.085972 
L 168.945772 87.628258 
L 165.157605 84.39156 
L 161.098643 91.8858 
L 157.082724 85.655385 
L 153.132773 92.465195 
L 149.421623 92.647154 
L 145.549843 103.661654 
L 141.676249 92.078194 
L 137.728606 183.172071 
L 134.055222 105.328704 
L 129.932272 102.121247 
L 125.90415 96.922539 
L 122.086133 99.143305 
L 118.00771 106.085972 
L 113.88476 81.740077 
L 109.773684 106.085972 
L 105.650733 106.085972 
L 101.656749 85.967529 
L 98.853967 79.987967 
L 95.457976 83.019614 
L 91.959405 92.579318 
L 89.72757 131.873629 
L 87.881972 230.854578 
L 86.821714 268.909143 
L 85.825939 122.251975 
L 84.246355 235.512225 
L 83.368166 180.126512 
L 82.5759 303.72927 
L 82.127323 116.728091 
L 81.379915 286.352408 
L 80.985761 231.761056 
L 80.754545 254.947113 
z
" clip-path="url(#pf7916fcc1a)" style="fill: #2ca02c; fill-opacity: 0.1"/>
   </g>
   <g id="matplotlib.axis_1">
    <g id="xtick_1">
     <g id="line2d_1">
      <defs>
       <path id="m6c849a33e7" d="M 0 0 
L 0 3.5 
" style="stroke: #000000; stroke-width: 0.8"/>
      </defs>
      <g>
       <use xlink:href="#m6c849a33e7" x="80.754545" y="352.44" style="stroke: #000000; stroke-width: 0.8"/>
      </g>
     </g>
     <g id="text_1">
      <!-- 0.0 -->
      <g transform="translate(72.802983 367.038437) scale(0.1 -0.1)">
       <defs>
        <path id="DejaVuSans-30" d="M 2034 4250 
Q 1547 4250 1301 3770 
Q 1056 3291 1056 2328 
Q 1056 1369 1301 889 
Q 1547 409 2034 409 
Q 2525 409 2770 889 
Q 3016 1369 3016 2328 
Q 3016 3291 2770 3770 
Q 2525 4250 2034 4250 
z
M 2034 4750 
Q 2819 4750 3233 4129 
Q 3647 3509 3647 2328 
Q 3647 1150 3233 529 
Q 2819 -91 2034 -91 
Q 1250 -91 836 529 
Q 422 1150 422 2328 
Q 422 3509 836 4129 
Q 1250 4750 2034 4750 
z
" transform="scale(0.015625)"/>
        <path id="DejaVuSans-2e" d="M 684 794 
L 1344 794 
L 1344 0 
L 684 0 
L 684 794 
z
" transform="scale(0.015625)"/>
       </defs>
       <use xlink:href="#DejaVuSans-30"/>
       <use xlink:href="#DejaVuSans-2e" x="63.623047"/>
       <use xlink:href="#DejaVuSans-30" x="95.410156"/>
      </g>
     </g>
    </g>
    <g id="xtick_2">
     <g id="line2d_2">
      <g>
       <use xlink:href="#m6c849a33e7" x="163.213552" y="352.44" style="stroke: #000000; stroke-width: 0.8"/>
      </g>
     </g>
     <g id="text_2">
      <!-- 0.5 -->
      <g transform="translate(155.261989 367.038437) scale(0.1 -0.1)">
       <defs>
        <path id="DejaVuSans-35" d="M 691 4666 
L 3169 4666 
L 3169 4134 
L 1269 4134 
L 1269 2991 
Q 1406 3038 1543 3061 
Q 1681 3084 1819 3084 
Q 2600 3084 3056 2656 
Q 3513 2228 3513 1497 
Q 3513 744 3044 326 
Q 2575 -91 1722 -91 
Q 1428 -91 1123 -41 
Q 819 9 494 109 
L 494 744 
Q 775 591 1075 516 
Q 1375 441 1709 441 
Q 2250 441 2565 725 
Q 2881 1009 2881 1497 
Q 2881 1984 2565 2268 
Q 2250 2553 1709 2553 
Q 1456 2553 1204 2497 
Q 953 2441 691 2322 
L 691 4666 
z
" transform="scale(0.015625)"/>
       </defs>
       <use xlink:href="#DejaVuSans-30"/>
       <use xlink:href="#DejaVuSans-2e" x="63.623047"/>
       <use xlink:href="#DejaVuSans-35" x="95.410156"/>
      </g>
     </g>
    </g>
    <g id="xtick_3">
     <g id="line2d_3">
      <g>
       <use xlink:href="#m6c849a33e7" x="245.672558" y="352.44" style="stroke: #000000; stroke-width: 0.8"/>
      </g>
     </g>
     <g id="text_3">
      <!-- 1.0 -->
      <g transform="translate(237.720995 367.038437) scale(0.1 -0.1)">
       <defs>
        <path id="DejaVuSans-31" d="M 794 531 
L 1825 531 
L 1825 4091 
L 703 3866 
L 703 4441 
L 1819 4666 
L 2450 4666 
L 2450 531 
L 3481 531 
L 3481 0 
L 794 0 
L 794 531 
z
" transform="scale(0.015625)"/>
       </defs>
       <use xlink:href="#DejaVuSans-31"/>
       <use xlink:href="#DejaVuSans-2e" x="63.623047"/>
       <use xlink:href="#DejaVuSans-30" x="95.410156"/>
      </g>
     </g>
    </g>
    <g id="xtick_4">
     <g id="line2d_4">
      <g>
       <use xlink:href="#m6c849a33e7" x="328.131564" y="352.44" style="stroke: #000000; stroke-width: 0.8"/>
      </g>
     </g>
     <g id="text_4">
      <!-- 1.5 -->
      <g transform="translate(320.180001 367.038437) scale(0.1 -0.1)">
       <use xlink:href="#DejaVuSans-31"/>
       <use xlink:href="#DejaVuSans-2e" x="63.623047"/>
       <use xlink:href="#DejaVuSans-35" x="95.410156"/>
      </g>
     </g>
    </g>
    <g id="xtick_5">
     <g id="line2d_5">
      <g>
       <use xlink:href="#m6c849a33e7" x="410.59057" y="352.44" style="stroke: #000000; stroke-width: 0.8"/>
      </g>
     </g>
     <g id="text_5">
      <!-- 2.0 -->
      <g transform="translate(402.639007 367.038437) scale(0.1 -0.1)">
       <defs>
        <path id="DejaVuSans-32" d="M 1228 531 
L 3431 531 
L 3431 0 
L 469 0 
L 469 531 
Q 828 903 1448 1529 
Q 2069 2156 2228 2338 
Q 2531 2678 2651 2914 
Q 2772 3150 2772 3378 
Q 2772 3750 2511 3984 
Q 2250 4219 1831 4219 
Q 1534 4219 1204 4116 
Q 875 4013 500 3803 
L 500 4441 
Q 881 4594 1212 4672 
Q 1544 4750 1819 4750 
Q 2544 4750 2975 4387 
Q 3406 4025 3406 3419 
Q 3406 3131 3298 2873 
Q 3191 2616 2906 2266 
Q 2828 2175 2409 1742 
Q 1991 1309 1228 531 
z
" transform="scale(0.015625)"/>
       </defs>
       <use xlink:href="#DejaVuSans-32"/>
       <use xlink:href="#DejaVuSans-2e" x="63.623047"/>
       <use xlink:href="#DejaVuSans-30" x="95.410156"/>
      </g>
     </g>
    </g>
    <g id="text_6">
     <!-- Timesteps -->
     <g transform="translate(232.646094 380.716563) scale(0.1 -0.1)">
      <defs>
       <path id="DejaVuSans-54" d="M -19 4666 
L 3928 4666 
L 3928 4134 
L 2272 4134 
L 2272 0 
L 1638 0 
L 1638 4134 
L -19 4134 
L -19 4666 
z
" transform="scale(0.015625)"/>
       <path id="DejaVuSans-69" d="M 603 3500 
L 1178 3500 
L 1178 0 
L 603 0 
L 603 3500 
z
M 603 4863 
L 1178 4863 
L 1178 4134 
L 603 4134 
L 603 4863 
z
" transform="scale(0.015625)"/>
       <path id="DejaVuSans-6d" d="M 3328 2828 
Q 3544 3216 3844 3400 
Q 4144 3584 4550 3584 
Q 5097 3584 5394 3201 
Q 5691 2819 5691 2113 
L 5691 0 
L 5113 0 
L 5113 2094 
Q 5113 2597 4934 2840 
Q 4756 3084 4391 3084 
Q 3944 3084 3684 2787 
Q 3425 2491 3425 1978 
L 3425 0 
L 2847 0 
L 2847 2094 
Q 2847 2600 2669 2842 
Q 2491 3084 2119 3084 
Q 1678 3084 1418 2786 
Q 1159 2488 1159 1978 
L 1159 0 
L 581 0 
L 581 3500 
L 1159 3500 
L 1159 2956 
Q 1356 3278 1631 3431 
Q 1906 3584 2284 3584 
Q 2666 3584 2933 3390 
Q 3200 3197 3328 2828 
z
" transform="scale(0.015625)"/>
       <path id="DejaVuSans-65" d="M 3597 1894 
L 3597 1613 
L 953 1613 
Q 991 1019 1311 708 
Q 1631 397 2203 397 
Q 2534 397 2845 478 
Q 3156 559 3463 722 
L 3463 178 
Q 3153 47 2828 -22 
Q 2503 -91 2169 -91 
Q 1331 -91 842 396 
Q 353 884 353 1716 
Q 353 2575 817 3079 
Q 1281 3584 2069 3584 
Q 2775 3584 3186 3129 
Q 3597 2675 3597 1894 
z
M 3022 2063 
Q 3016 2534 2758 2815 
Q 2500 3097 2075 3097 
Q 1594 3097 1305 2825 
Q 1016 2553 972 2059 
L 3022 2063 
z
" transform="scale(0.015625)"/>
       <path id="DejaVuSans-73" d="M 2834 3397 
L 2834 2853 
Q 2591 2978 2328 3040 
Q 2066 3103 1784 3103 
Q 1356 3103 1142 2972 
Q 928 2841 928 2578 
Q 928 2378 1081 2264 
Q 1234 2150 1697 2047 
L 1894 2003 
Q 2506 1872 2764 1633 
Q 3022 1394 3022 966 
Q 3022 478 2636 193 
Q 2250 -91 1575 -91 
Q 1294 -91 989 -36 
Q 684 19 347 128 
L 347 722 
Q 666 556 975 473 
Q 1284 391 1588 391 
Q 1994 391 2212 530 
Q 2431 669 2431 922 
Q 2431 1156 2273 1281 
Q 2116 1406 1581 1522 
L 1381 1569 
Q 847 1681 609 1914 
Q 372 2147 372 2553 
Q 372 3047 722 3315 
Q 1072 3584 1716 3584 
Q 2034 3584 2315 3537 
Q 2597 3491 2834 3397 
z
" transform="scale(0.015625)"/>
       <path id="DejaVuSans-74" d="M 1172 4494 
L 1172 3500 
L 2356 3500 
L 2356 3053 
L 1172 3053 
L 1172 1153 
Q 1172 725 1289 603 
Q 1406 481 1766 481 
L 2356 481 
L 2356 0 
L 1766 0 
Q 1100 0 847 248 
Q 594 497 594 1153 
L 594 3053 
L 172 3053 
L 172 3500 
L 594 3500 
L 594 4494 
L 1172 4494 
z
" transform="scale(0.015625)"/>
       <path id="DejaVuSans-70" d="M 1159 525 
L 1159 -1331 
L 581 -1331 
L 581 3500 
L 1159 3500 
L 1159 2969 
Q 1341 3281 1617 3432 
Q 1894 3584 2278 3584 
Q 2916 3584 3314 3078 
Q 3713 2572 3713 1747 
Q 3713 922 3314 415 
Q 2916 -91 2278 -91 
Q 1894 -91 1617 61 
Q 1341 213 1159 525 
z
M 3116 1747 
Q 3116 2381 2855 2742 
Q 2594 3103 2138 3103 
Q 1681 3103 1420 2742 
Q 1159 2381 1159 1747 
Q 1159 1113 1420 752 
Q 1681 391 2138 391 
Q 2594 391 2855 752 
Q 3116 1113 3116 1747 
z
" transform="scale(0.015625)"/>
      </defs>
      <use xlink:href="#DejaVuSans-54"/>
      <use xlink:href="#DejaVuSans-69" x="57.958984"/>
      <use xlink:href="#DejaVuSans-6d" x="85.742188"/>
      <use xlink:href="#DejaVuSans-65" x="183.154297"/>
      <use xlink:href="#DejaVuSans-73" x="244.677734"/>
      <use xlink:href="#DejaVuSans-74" x="296.777344"/>
      <use xlink:href="#DejaVuSans-65" x="335.986328"/>
      <use xlink:href="#DejaVuSans-70" x="397.509766"/>
      <use xlink:href="#DejaVuSans-73" x="460.986328"/>
     </g>
    </g>
    <g id="text_7">
     <!-- 1e6 -->
     <g transform="translate(434.721875 379.716563) scale(0.1 -0.1)">
      <defs>
       <path id="DejaVuSans-36" d="M 2113 2584 
Q 1688 2584 1439 2293 
Q 1191 2003 1191 1497 
Q 1191 994 1439 701 
Q 1688 409 2113 409 
Q 2538 409 2786 701 
Q 3034 994 3034 1497 
Q 3034 2003 2786 2293 
Q 2538 2584 2113 2584 
z
M 3366 4563 
L 3366 3988 
Q 3128 4100 2886 4159 
Q 2644 4219 2406 4219 
Q 1781 4219 1451 3797 
Q 1122 3375 1075 2522 
Q 1259 2794 1537 2939 
Q 1816 3084 2150 3084 
Q 2853 3084 3261 2657 
Q 3669 2231 3669 1497 
Q 3669 778 3244 343 
Q 2819 -91 2113 -91 
Q 1303 -91 875 529 
Q 447 1150 447 2328 
Q 447 3434 972 4092 
Q 1497 4750 2381 4750 
Q 2619 4750 2861 4703 
Q 3103 4656 3366 4563 
z
" transform="scale(0.015625)"/>
      </defs>
      <use xlink:href="#DejaVuSans-31"/>
      <use xlink:href="#DejaVuSans-65" x="63.623047"/>
      <use xlink:href="#DejaVuSans-36" x="125.146484"/>
     </g>
    </g>
   </g>
   <g id="matplotlib.axis_2">
    <g id="ytick_1">
     <g id="line2d_6">
      <path d="M 63 328.749469 
L 453.6 328.749469 
" clip-path="url(#pf7916fcc1a)" style="fill: none; stroke-dasharray: 2.96,1.28; stroke-dashoffset: 0; stroke: #b0b0b0; stroke-width: 0.8"/>
     </g>
     <g id="line2d_7">
      <defs>
       <path id="mdcab5ea853" d="M 0 0 
L -3.5 0 
" style="stroke: #000000; stroke-width: 0.8"/>
      </defs>
      <g>
       <use xlink:href="#mdcab5ea853" x="63" y="328.749469" style="stroke: #000000; stroke-width: 0.8"/>
      </g>
     </g>
     <g id="text_8">
      <!-- 0 -->
      <g transform="translate(49.6375 332.548688) scale(0.1 -0.1)">
       <use xlink:href="#DejaVuSans-30"/>
      </g>
     </g>
    </g>
    <g id="ytick_2">
     <g id="line2d_8">
      <path d="M 63 284.21677 
L 453.6 284.21677 
" clip-path="url(#pf7916fcc1a)" style="fill: none; stroke-dasharray: 2.96,1.28; stroke-dashoffset: 0; stroke: #b0b0b0; stroke-width: 0.8"/>
     </g>
     <g id="line2d_9">
      <g>
       <use xlink:href="#mdcab5ea853" x="63" y="284.21677" style="stroke: #000000; stroke-width: 0.8"/>
      </g>
     </g>
     <g id="text_9">
      <!-- 100 -->
      <g transform="translate(36.9125 288.015988) scale(0.1 -0.1)">
       <use xlink:href="#DejaVuSans-31"/>
       <use xlink:href="#DejaVuSans-30" x="63.623047"/>
       <use xlink:href="#DejaVuSans-30" x="127.246094"/>
      </g>
     </g>
    </g>
    <g id="ytick_3">
     <g id="line2d_10">
      <path d="M 63 239.68407 
L 453.6 239.68407 
" clip-path="url(#pf7916fcc1a)" style="fill: none; stroke-dasharray: 2.96,1.28; stroke-dashoffset: 0; stroke: #b0b0b0; stroke-width: 0.8"/>
     </g>
     <g id="line2d_11">
      <g>
       <use xlink:href="#mdcab5ea853" x="63" y="239.68407" style="stroke: #000000; stroke-width: 0.8"/>
      </g>
     </g>
     <g id="text_10">
      <!-- 200 -->
      <g transform="translate(36.9125 243.483289) scale(0.1 -0.1)">
       <use xlink:href="#DejaVuSans-32"/>
       <use xlink:href="#DejaVuSans-30" x="63.623047"/>
       <use xlink:href="#DejaVuSans-30" x="127.246094"/>
      </g>
     </g>
    </g>
    <g id="ytick_4">
     <g id="line2d_12">
      <path d="M 63 195.151371 
L 453.6 195.151371 
" clip-path="url(#pf7916fcc1a)" style="fill: none; stroke-dasharray: 2.96,1.28; stroke-dashoffset: 0; stroke: #b0b0b0; stroke-width: 0.8"/>
     </g>
     <g id="line2d_13">
      <g>
       <use xlink:href="#mdcab5ea853" x="63" y="195.151371" style="stroke: #000000; stroke-width: 0.8"/>
      </g>
     </g>
     <g id="text_11">
      <!-- 300 -->
      <g transform="translate(36.9125 198.950589) scale(0.1 -0.1)">
       <defs>
        <path id="DejaVuSans-33" d="M 2597 2516 
Q 3050 2419 3304 2112 
Q 3559 1806 3559 1356 
Q 3559 666 3084 287 
Q 2609 -91 1734 -91 
Q 1441 -91 1130 -33 
Q 819 25 488 141 
L 488 750 
Q 750 597 1062 519 
Q 1375 441 1716 441 
Q 2309 441 2620 675 
Q 2931 909 2931 1356 
Q 2931 1769 2642 2001 
Q 2353 2234 1838 2234 
L 1294 2234 
L 1294 2753 
L 1863 2753 
Q 2328 2753 2575 2939 
Q 2822 3125 2822 3475 
Q 2822 3834 2567 4026 
Q 2313 4219 1838 4219 
Q 1578 4219 1281 4162 
Q 984 4106 628 3988 
L 628 4550 
Q 988 4650 1302 4700 
Q 1616 4750 1894 4750 
Q 2613 4750 3031 4423 
Q 3450 4097 3450 3541 
Q 3450 3153 3228 2886 
Q 3006 2619 2597 2516 
z
" transform="scale(0.015625)"/>
       </defs>
       <use xlink:href="#DejaVuSans-33"/>
       <use xlink:href="#DejaVuSans-30" x="63.623047"/>
       <use xlink:href="#DejaVuSans-30" x="127.246094"/>
      </g>
     </g>
    </g>
    <g id="ytick_5">
     <g id="line2d_14">
      <path d="M 63 150.618671 
L 453.6 150.618671 
" clip-path="url(#pf7916fcc1a)" style="fill: none; stroke-dasharray: 2.96,1.28; stroke-dashoffset: 0; stroke: #b0b0b0; stroke-width: 0.8"/>
     </g>
     <g id="line2d_15">
      <g>
       <use xlink:href="#mdcab5ea853" x="63" y="150.618671" style="stroke: #000000; stroke-width: 0.8"/>
      </g>
     </g>
     <g id="text_12">
      <!-- 400 -->
      <g transform="translate(36.9125 154.41789) scale(0.1 -0.1)">
       <defs>
        <path id="DejaVuSans-34" d="M 2419 4116 
L 825 1625 
L 2419 1625 
L 2419 4116 
z
M 2253 4666 
L 3047 4666 
L 3047 1625 
L 3713 1625 
L 3713 1100 
L 3047 1100 
L 3047 0 
L 2419 0 
L 2419 1100 
L 313 1100 
L 313 1709 
L 2253 4666 
z
" transform="scale(0.015625)"/>
       </defs>
       <use xlink:href="#DejaVuSans-34"/>
       <use xlink:href="#DejaVuSans-30" x="63.623047"/>
       <use xlink:href="#DejaVuSans-30" x="127.246094"/>
      </g>
     </g>
    </g>
    <g id="ytick_6">
     <g id="line2d_16">
      <path d="M 63 106.085972 
L 453.6 106.085972 
" clip-path="url(#pf7916fcc1a)" style="fill: none; stroke-dasharray: 2.96,1.28; stroke-dashoffset: 0; stroke: #b0b0b0; stroke-width: 0.8"/>
     </g>
     <g id="line2d_17">
      <g>
       <use xlink:href="#mdcab5ea853" x="63" y="106.085972" style="stroke: #000000; stroke-width: 0.8"/>
      </g>
     </g>
     <g id="text_13">
      <!-- 500 -->
      <g transform="translate(36.9125 109.885191) scale(0.1 -0.1)">
       <use xlink:href="#DejaVuSans-35"/>
       <use xlink:href="#DejaVuSans-30" x="63.623047"/>
       <use xlink:href="#DejaVuSans-30" x="127.246094"/>
      </g>
     </g>
    </g>
    <g id="ytick_7">
     <g id="line2d_18">
      <path d="M 63 61.553272 
L 453.6 61.553272 
" clip-path="url(#pf7916fcc1a)" style="fill: none; stroke-dasharray: 2.96,1.28; stroke-dashoffset: 0; stroke: #b0b0b0; stroke-width: 0.8"/>
     </g>
     <g id="line2d_19">
      <g>
       <use xlink:href="#mdcab5ea853" x="63" y="61.553272" style="stroke: #000000; stroke-width: 0.8"/>
      </g>
     </g>
     <g id="text_14">
      <!-- 600 -->
      <g transform="translate(36.9125 65.352491) scale(0.1 -0.1)">
       <use xlink:href="#DejaVuSans-36"/>
       <use xlink:href="#DejaVuSans-30" x="63.623047"/>
       <use xlink:href="#DejaVuSans-30" x="127.246094"/>
      </g>
     </g>
    </g>
    <g id="text_15">
     <!-- Mean rewards -->
     <g transform="translate(30.832812 235.112031) rotate(-90) scale(0.1 -0.1)">
      <defs>
       <path id="DejaVuSans-4d" d="M 628 4666 
L 1569 4666 
L 2759 1491 
L 3956 4666 
L 4897 4666 
L 4897 0 
L 4281 0 
L 4281 4097 
L 3078 897 
L 2444 897 
L 1241 4097 
L 1241 0 
L 628 0 
L 628 4666 
z
" transform="scale(0.015625)"/>
       <path id="DejaVuSans-61" d="M 2194 1759 
Q 1497 1759 1228 1600 
Q 959 1441 959 1056 
Q 959 750 1161 570 
Q 1363 391 1709 391 
Q 2188 391 2477 730 
Q 2766 1069 2766 1631 
L 2766 1759 
L 2194 1759 
z
M 3341 1997 
L 3341 0 
L 2766 0 
L 2766 531 
Q 2569 213 2275 61 
Q 1981 -91 1556 -91 
Q 1019 -91 701 211 
Q 384 513 384 1019 
Q 384 1609 779 1909 
Q 1175 2209 1959 2209 
L 2766 2209 
L 2766 2266 
Q 2766 2663 2505 2880 
Q 2244 3097 1772 3097 
Q 1472 3097 1187 3025 
Q 903 2953 641 2809 
L 641 3341 
Q 956 3463 1253 3523 
Q 1550 3584 1831 3584 
Q 2591 3584 2966 3190 
Q 3341 2797 3341 1997 
z
" transform="scale(0.015625)"/>
       <path id="DejaVuSans-6e" d="M 3513 2113 
L 3513 0 
L 2938 0 
L 2938 2094 
Q 2938 2591 2744 2837 
Q 2550 3084 2163 3084 
Q 1697 3084 1428 2787 
Q 1159 2491 1159 1978 
L 1159 0 
L 581 0 
L 581 3500 
L 1159 3500 
L 1159 2956 
Q 1366 3272 1645 3428 
Q 1925 3584 2291 3584 
Q 2894 3584 3203 3211 
Q 3513 2838 3513 2113 
z
" transform="scale(0.015625)"/>
       <path id="DejaVuSans-20" transform="scale(0.015625)"/>
       <path id="DejaVuSans-72" d="M 2631 2963 
Q 2534 3019 2420 3045 
Q 2306 3072 2169 3072 
Q 1681 3072 1420 2755 
Q 1159 2438 1159 1844 
L 1159 0 
L 581 0 
L 581 3500 
L 1159 3500 
L 1159 2956 
Q 1341 3275 1631 3429 
Q 1922 3584 2338 3584 
Q 2397 3584 2469 3576 
Q 2541 3569 2628 3553 
L 2631 2963 
z
" transform="scale(0.015625)"/>
       <path id="DejaVuSans-77" d="M 269 3500 
L 844 3500 
L 1563 769 
L 2278 3500 
L 2956 3500 
L 3675 769 
L 4391 3500 
L 4966 3500 
L 4050 0 
L 3372 0 
L 2619 2869 
L 1863 0 
L 1184 0 
L 269 3500 
z
" transform="scale(0.015625)"/>
       <path id="DejaVuSans-64" d="M 2906 2969 
L 2906 4863 
L 3481 4863 
L 3481 0 
L 2906 0 
L 2906 525 
Q 2725 213 2448 61 
Q 2172 -91 1784 -91 
Q 1150 -91 751 415 
Q 353 922 353 1747 
Q 353 2572 751 3078 
Q 1150 3584 1784 3584 
Q 2172 3584 2448 3432 
Q 2725 3281 2906 2969 
z
M 947 1747 
Q 947 1113 1208 752 
Q 1469 391 1925 391 
Q 2381 391 2643 752 
Q 2906 1113 2906 1747 
Q 2906 2381 2643 2742 
Q 2381 3103 1925 3103 
Q 1469 3103 1208 2742 
Q 947 2381 947 1747 
z
" transform="scale(0.015625)"/>
      </defs>
      <use xlink:href="#DejaVuSans-4d"/>
      <use xlink:href="#DejaVuSans-65" x="86.279297"/>
      <use xlink:href="#DejaVuSans-61" x="147.802734"/>
      <use xlink:href="#DejaVuSans-6e" x="209.082031"/>
      <use xlink:href="#DejaVuSans-20" x="272.460938"/>
      <use xlink:href="#DejaVuSans-72" x="304.248047"/>
      <use xlink:href="#DejaVuSans-65" x="343.111328"/>
      <use xlink:href="#DejaVuSans-77" x="404.634766"/>
      <use xlink:href="#DejaVuSans-61" x="486.421875"/>
      <use xlink:href="#DejaVuSans-72" x="547.701172"/>
      <use xlink:href="#DejaVuSans-64" x="587.064453"/>
      <use xlink:href="#DejaVuSans-73" x="650.541016"/>
     </g>
    </g>
   </g>
   <g id="line2d_20">
    <path d="M 80.754545 321.348134 
L 80.953107 190.364105 
L 81.167005 324.269479 
L 81.487936 171.041367 
L 81.874998 166.512392 
L 82.841253 267.401222 
L 83.687118 256.388286 
L 84.600598 215.805637 
L 85.923736 319.348616 
L 87.223949 197.346833 
L 89.698709 183.00285 
L 92.889048 199.680346 
L 95.26832 107.533285 
L 98.772828 155.116474 
L 101.142205 320.675691 
L 103.49542 120.875281 
L 107.013781 127.862462 
L 110.725591 107.297261 
L 114.465271 107.257182 
L 118.493394 106.085972 
L 122.429822 107.684696 
L 126.389668 106.415514 
L 130.464957 107.911812 
L 134.507098 107.893999 
L 138.630048 106.513486 
L 142.651739 106.085972 
L 146.770566 106.085972 
L 150.663786 135.428567 
L 154.49681 115.892072 
L 158.517181 106.90092 
L 162.378242 107.070144 
L 166.366619 107.791574 
L 170.4269 115.281974 
L 174.420555 108.423939 
L 178.364569 115.500184 
L 181.69311 149.371756 
L 185.460167 112.32055 
L 189.518139 108.57535 
L 193.64109 113.558559 
L 197.763215 112.316096 
L 201.71663 130.316214 
L 205.12532 127.902541 
L 209.040309 120.933174 
L 212.765312 133.669526 
L 216.653749 110.779718 
L 220.320371 109.653041 
L 224.290443 114.217643 
L 228.271728 110.948943 
L 232.206177 116.658035 
L 235.922605 145.53749 
L 239.93506 113.180031 
L 243.84807 115.130563 
L 247.726776 111.83069 
L 251.849727 124.97229 
L 255.96575 110.650573 
L 259.691248 155.904703 
L 263.403718 113.077606 
L 267.395228 112.650092 
L 271.086423 157.824062 
L 275.097889 126.59328 
L 279.075547 111.336377 
L 283.098721 134.849642 
L 286.933395 110.534788 
L 290.943871 129.211803 
L 294.883433 120.380968 
L 298.971585 123.128636 
L 302.960787 112.436335 
L 306.912882 129.746195 
L 310.84997 114.239909 
L 314.840986 112.467508 
L 318.904896 140.741318 
L 322.70708 130.561143 
L 326.716732 112.013274 
L 330.772891 125.324098 
L 334.839439 133.250918 
L 338.630574 112.859395 
L 342.473659 122.068758 
L 346.484795 111.915302 
L 350.442002 110.828704 
L 354.31939 161.186281 
L 357.509399 115.322054 
L 360.910338 143.564692 
L 364.389119 119.040534 
L 367.799953 113.580825 
L 371.568329 117.508609 
L 375.627621 112.195858 
L 379.538817 115.001418 
L 383.479698 119.142959 
L 387.460489 119.655085 
L 391.454473 158.687996 
L 395.420916 134.600259 
L 399.437 114.048418 
L 403.555003 113.571919 
L 407.610336 113.389334 
L 411.398668 135.05004 
L 415.085245 131.718994 
L 418.803322 120.153852 
L 422.878281 132.240026 
L 426.784859 113.874741 
L 430.860313 142.26879 
" clip-path="url(#pf7916fcc1a)" style="fill: none; stroke: #1f77b4; stroke-width: 1.5; stroke-linecap: square"/>
   </g>
   <g id="line2d_21">
    <path d="M 80.754545 324.603475 
L 80.93612 301.838359 
L 81.190919 255.145823 
L 81.555387 216.357842 
L 81.923979 111.594667 
L 82.4156 262.930139 
L 83.130354 210.938213 
L 83.757043 286.821933 
L 84.631768 192.635273 
L 85.570976 272.794132 
L 86.646901 108.459565 
L 87.751687 217.439987 
L 89.086039 237.582127 
L 90.362504 261.251256 
L 92.10041 272.923277 
L 94.478858 153.192661 
L 95.86252 251.093348 
L 97.412419 266.6219 
L 99.278466 264.315106 
L 101.291126 316.872598 
L 103.942843 190.50661 
L 106.855954 106.085972 
L 109.878242 152.867573 
L 111.975174 106.085972 
L 114.473682 127.26127 
L 116.608051 121.596711 
L 119.833683 171.036914 
L 123.313123 118.523955 
L 126.9494 159.209029 
L 129.660157 120.425501 
L 132.508127 132.876844 
L 135.842934 126.557654 
L 139.619721 121.427487 
L 143.379027 114.729769 
L 147.076324 109.167635 
L 150.992137 106.103785 
L 155.01894 106.085972 
L 158.918427 110.249779 
L 162.637988 152.912105 
L 166.569138 128.548265 
L 170.511009 106.994439 
L 174.362999 118.964828 
L 178.294479 132.671993 
L 182.171042 122.300328 
L 186.061128 106.085972 
L 190.031199 110.677293 
L 194.004569 138.243034 
L 197.903396 118.564034 
L 201.721907 117.174614 
L 205.811379 114.444759 
L 209.643249 121.400767 
L 213.589408 129.514625 
L 217.467455 116.782726 
L 221.50976 126.597733 
L 225.494674 109.234434 
L 229.2741 170.052741 
L 233.102837 109.99149 
L 237.073568 137.468165 
L 241.088991 130.316214 
L 244.847473 116.787179 
L 248.727334 114.814381 
L 252.237119 133.794217 
L 256.141718 118.221132 
L 260.159451 124.25086 
L 264.257333 124.357738 
L 268.296175 116.448731 
L 272.325947 124.593762 
L 276.294204 134.943161 
L 280.070332 113.153311 
L 284.136221 118.581847 
L 288.209696 122.367127 
L 292.225779 117.098908 
L 296.045115 127.693238 
L 299.953013 123.008398 
L 303.854973 116.925231 
L 307.968193 119.053894 
L 312.05717 136.532978 
L 315.982713 122.291421 
L 319.869996 127.074233 
L 323.691806 121.926253 
L 327.798429 107.564457 
L 331.70979 132.600741 
L 335.623789 123.400285 
L 339.597159 125.279565 
L 343.48708 108.944971 
L 347.300809 139.369711 
L 351.23097 115.010325 
L 354.60074 137.494885 
L 358.697633 125.671453 
L 362.684361 147.514742 
L 366.4783 161.814192 
L 370.251294 135.490913 
L 374.125053 128.779835 
L 378.057358 120.510113 
L 382.180309 112.431881 
L 386.123498 124.651654 
L 390.070481 115.041498 
L 394.193432 129.403293 
L 398.011448 141.881356 
L 401.774548 157.993286 
" clip-path="url(#pf7916fcc1a)" style="fill: none; stroke: #ff7f0e; stroke-width: 1.5; stroke-linecap: square"/>
   </g>
   <g id="line2d_22">
    <path d="M 80.754545 288.131194 
L 80.985761 273.101408 
L 81.379915 303.811157 
L 82.127323 198.379991 
L 82.5759 308.433652 
L 83.368166 243.705373 
L 84.246355 270.874773 
L 85.825939 180.967706 
L 86.821714 292.936272 
L 87.881972 251.316011 
L 89.72757 188.489279 
L 91.959405 136.791268 
L 95.457976 173.793488 
L 98.853967 119.387889 
L 101.656749 160.941351 
L 105.650733 106.085972 
L 109.773684 106.085972 
L 113.88476 125.903023 
L 118.00771 106.085972 
L 122.086133 117.294852 
L 125.90415 110.583774 
L 129.932272 106.860841 
L 134.055222 106.170584 
L 137.728606 237.239225 
L 141.676249 114.720862 
L 145.549843 106.41106 
L 149.421623 135.980773 
L 153.132773 135.807095 
L 157.082724 118.056361 
L 161.098643 113.692157 
L 165.157605 127.746677 
L 168.945772 122.665496 
L 172.944704 106.085972 
L 177.047204 106.085972 
L 181.170155 106.085972 
L 185.204544 117.913857 
L 189.30589 115.967778 
L 193.382828 123.021757 
L 197.376648 127.915901 
L 201.402791 121.88172 
L 205.373027 127.840195 
L 209.333368 125.239486 
L 212.883394 118.906936 
L 216.745114 124.344379 
L 220.513985 106.085972 
L 224.616156 106.085972 
L 228.609151 127.270177 
L 232.657558 117.998469 
L 236.524061 126.009902 
L 240.440699 121.142477 
L 244.382569 114.86782 
L 248.032699 136.893693 
L 252.088528 114.008339 
L 256.125226 112.792596 
L 260.239601 118.85795 
L 264.362551 134.80511 
L 268.27787 147.853191 
L 272.045422 142.910061 
L 276.01137 140.692333 
L 279.97303 108.428392 
L 284.089714 106.295275 
L 287.974523 115.148376 
L 292.063994 106.860841 
L 296.186945 135.807095 
L 300.229085 119.490314 
L 304.265783 118.305745 
L 308.372077 127.132126 
L 312.45017 123.867879 
L 316.422055 116.346306 
L 320.425935 122.540804 
L 324.349994 128.788742 
L 328.368716 124.553682 
L 332.293765 147.826471 
L 335.69157 164.281303 
L 339.426798 159.36044 
L 342.981441 147.741859 
L 346.918364 154.706773 
L 350.20485 167.31398 
L 354.084381 110.321032 
L 358.13048 139.917464 
L 361.864554 122.353767 
L 365.94512 111.407629 
L 370.033767 118.243399 
L 374.112849 115.375493 
L 378.120852 119.966814 
L 381.909348 125.62692 
L 385.749959 139.828398 
L 389.60129 142.126285 
L 393.468947 144.286121 
L 397.387729 144.593397 
L 401.415521 141.502828 
L 405.339086 145.902658 
L 409.25226 121.578898 
L 413.299513 147.412317 
L 417.202793 126.602186 
L 421.07985 145.350453 
L 424.800236 127.51956 
L 428.446243 149.100106 
L 432.069492 147.488022 
L 435.845455 151.731989 
" clip-path="url(#pf7916fcc1a)" style="fill: none; stroke: #2ca02c; stroke-width: 1.5; stroke-linecap: square"/>
   </g>
   <g id="patch_3">
    <path d="M 63 352.44 
L 63 47.52 
" style="fill: none; stroke: #000000; stroke-width: 0.8; stroke-linejoin: miter; stroke-linecap: square"/>
   </g>
   <g id="patch_4">
    <path d="M 453.6 352.44 
L 453.6 47.52 
" style="fill: none; stroke: #000000; stroke-width: 0.8; stroke-linejoin: miter; stroke-linecap: square"/>
   </g>
   <g id="patch_5">
    <path d="M 63 352.44 
L 453.6 352.44 
" style="fill: none; stroke: #000000; stroke-width: 0.8; stroke-linejoin: miter; stroke-linecap: square"/>
   </g>
   <g id="patch_6">
    <path d="M 63 47.52 
L 453.6 47.52 
" style="fill: none; stroke: #000000; stroke-width: 0.8; stroke-linejoin: miter; stroke-linecap: square"/>
   </g>
   <g id="text_16">
    <!-- Cartpole - n-step Q-Tsetlin-Machine -->
    <g transform="translate(153.177188 41.52) scale(0.12 -0.12)">
     <defs>
      <path id="DejaVuSans-43" d="M 4122 4306 
L 4122 3641 
Q 3803 3938 3442 4084 
Q 3081 4231 2675 4231 
Q 1875 4231 1450 3742 
Q 1025 3253 1025 2328 
Q 1025 1406 1450 917 
Q 1875 428 2675 428 
Q 3081 428 3442 575 
Q 3803 722 4122 1019 
L 4122 359 
Q 3791 134 3420 21 
Q 3050 -91 2638 -91 
Q 1578 -91 968 557 
Q 359 1206 359 2328 
Q 359 3453 968 4101 
Q 1578 4750 2638 4750 
Q 3056 4750 3426 4639 
Q 3797 4528 4122 4306 
z
" transform="scale(0.015625)"/>
      <path id="DejaVuSans-6f" d="M 1959 3097 
Q 1497 3097 1228 2736 
Q 959 2375 959 1747 
Q 959 1119 1226 758 
Q 1494 397 1959 397 
Q 2419 397 2687 759 
Q 2956 1122 2956 1747 
Q 2956 2369 2687 2733 
Q 2419 3097 1959 3097 
z
M 1959 3584 
Q 2709 3584 3137 3096 
Q 3566 2609 3566 1747 
Q 3566 888 3137 398 
Q 2709 -91 1959 -91 
Q 1206 -91 779 398 
Q 353 888 353 1747 
Q 353 2609 779 3096 
Q 1206 3584 1959 3584 
z
" transform="scale(0.015625)"/>
      <path id="DejaVuSans-6c" d="M 603 4863 
L 1178 4863 
L 1178 0 
L 603 0 
L 603 4863 
z
" transform="scale(0.015625)"/>
      <path id="DejaVuSans-2d" d="M 313 2009 
L 1997 2009 
L 1997 1497 
L 313 1497 
L 313 2009 
z
" transform="scale(0.015625)"/>
      <path id="DejaVuSans-51" d="M 2522 4238 
Q 1834 4238 1429 3725 
Q 1025 3213 1025 2328 
Q 1025 1447 1429 934 
Q 1834 422 2522 422 
Q 3209 422 3611 934 
Q 4013 1447 4013 2328 
Q 4013 3213 3611 3725 
Q 3209 4238 2522 4238 
z
M 3406 84 
L 4238 -825 
L 3475 -825 
L 2784 -78 
Q 2681 -84 2626 -87 
Q 2572 -91 2522 -91 
Q 1538 -91 948 567 
Q 359 1225 359 2328 
Q 359 3434 948 4092 
Q 1538 4750 2522 4750 
Q 3503 4750 4090 4092 
Q 4678 3434 4678 2328 
Q 4678 1516 4351 937 
Q 4025 359 3406 84 
z
" transform="scale(0.015625)"/>
      <path id="DejaVuSans-63" d="M 3122 3366 
L 3122 2828 
Q 2878 2963 2633 3030 
Q 2388 3097 2138 3097 
Q 1578 3097 1268 2742 
Q 959 2388 959 1747 
Q 959 1106 1268 751 
Q 1578 397 2138 397 
Q 2388 397 2633 464 
Q 2878 531 3122 666 
L 3122 134 
Q 2881 22 2623 -34 
Q 2366 -91 2075 -91 
Q 1284 -91 818 406 
Q 353 903 353 1747 
Q 353 2603 823 3093 
Q 1294 3584 2113 3584 
Q 2378 3584 2631 3529 
Q 2884 3475 3122 3366 
z
" transform="scale(0.015625)"/>
      <path id="DejaVuSans-68" d="M 3513 2113 
L 3513 0 
L 2938 0 
L 2938 2094 
Q 2938 2591 2744 2837 
Q 2550 3084 2163 3084 
Q 1697 3084 1428 2787 
Q 1159 2491 1159 1978 
L 1159 0 
L 581 0 
L 581 4863 
L 1159 4863 
L 1159 2956 
Q 1366 3272 1645 3428 
Q 1925 3584 2291 3584 
Q 2894 3584 3203 3211 
Q 3513 2838 3513 2113 
z
" transform="scale(0.015625)"/>
     </defs>
     <use xlink:href="#DejaVuSans-43"/>
     <use xlink:href="#DejaVuSans-61" x="69.824219"/>
     <use xlink:href="#DejaVuSans-72" x="131.103516"/>
     <use xlink:href="#DejaVuSans-74" x="172.216797"/>
     <use xlink:href="#DejaVuSans-70" x="211.425781"/>
     <use xlink:href="#DejaVuSans-6f" x="274.902344"/>
     <use xlink:href="#DejaVuSans-6c" x="336.083984"/>
     <use xlink:href="#DejaVuSans-65" x="363.867188"/>
     <use xlink:href="#DejaVuSans-20" x="425.390625"/>
     <use xlink:href="#DejaVuSans-2d" x="457.177734"/>
     <use xlink:href="#DejaVuSans-20" x="493.261719"/>
     <use xlink:href="#DejaVuSans-6e" x="525.048828"/>
     <use xlink:href="#DejaVuSans-2d" x="588.427734"/>
     <use xlink:href="#DejaVuSans-73" x="624.511719"/>
     <use xlink:href="#DejaVuSans-74" x="676.611328"/>
     <use xlink:href="#DejaVuSans-65" x="715.820312"/>
     <use xlink:href="#DejaVuSans-70" x="777.34375"/>
     <use xlink:href="#DejaVuSans-20" x="840.820312"/>
     <use xlink:href="#DejaVuSans-51" x="872.607422"/>
     <use xlink:href="#DejaVuSans-2d" x="954.068359"/>
     <use xlink:href="#DejaVuSans-54" x="981.027344"/>
     <use xlink:href="#DejaVuSans-73" x="1025.611328"/>
     <use xlink:href="#DejaVuSans-65" x="1077.710938"/>
     <use xlink:href="#DejaVuSans-74" x="1139.234375"/>
     <use xlink:href="#DejaVuSans-6c" x="1178.443359"/>
     <use xlink:href="#DejaVuSans-69" x="1206.226562"/>
     <use xlink:href="#DejaVuSans-6e" x="1234.009766"/>
     <use xlink:href="#DejaVuSans-2d" x="1297.388672"/>
     <use xlink:href="#DejaVuSans-4d" x="1333.472656"/>
     <use xlink:href="#DejaVuSans-61" x="1419.751953"/>
     <use xlink:href="#DejaVuSans-63" x="1481.03125"/>
     <use xlink:href="#DejaVuSans-68" x="1536.011719"/>
     <use xlink:href="#DejaVuSans-69" x="1599.390625"/>
     <use xlink:href="#DejaVuSans-6e" x="1627.173828"/>
     <use xlink:href="#DejaVuSans-65" x="1690.552734"/>
    </g>
   </g>
   <g id="legend_1">
    <g id="patch_7">
     <path d="M 268.667188 99.554375 
L 446.6 99.554375 
Q 448.6 99.554375 448.6 97.554375 
L 448.6 54.52 
Q 448.6 52.52 446.6 52.52 
L 268.667188 52.52 
Q 266.667188 52.52 266.667188 54.52 
L 266.667188 97.554375 
Q 266.667188 99.554375 268.667188 99.554375 
z
" style="fill: #ffffff; opacity: 0.8; stroke: #cccccc; stroke-linejoin: miter"/>
    </g>
    <g id="line2d_23">
     <path d="M 270.667188 60.618437 
L 280.667188 60.618437 
L 290.667188 60.618437 
" style="fill: none; stroke: #1f77b4; stroke-width: 1.5; stroke-linecap: square"/>
    </g>
    <g id="text_17">
     <!-- n-step QTM -->
     <g transform="translate(298.667188 64.118437) scale(0.1 -0.1)">
      <use xlink:href="#DejaVuSans-6e"/>
      <use xlink:href="#DejaVuSans-2d" x="63.378906"/>
      <use xlink:href="#DejaVuSans-73" x="99.462891"/>
      <use xlink:href="#DejaVuSans-74" x="151.5625"/>
      <use xlink:href="#DejaVuSans-65" x="190.771484"/>
      <use xlink:href="#DejaVuSans-70" x="252.294922"/>
      <use xlink:href="#DejaVuSans-20" x="315.771484"/>
      <use xlink:href="#DejaVuSans-51" x="347.558594"/>
      <use xlink:href="#DejaVuSans-54" x="426.269531"/>
      <use xlink:href="#DejaVuSans-4d" x="487.353516"/>
     </g>
    </g>
    <g id="line2d_24">
     <path d="M 270.667188 75.296562 
L 280.667188 75.296562 
L 290.667188 75.296562 
" style="fill: none; stroke: #ff7f0e; stroke-width: 1.5; stroke-linecap: square"/>
    </g>
    <g id="text_18">
     <!-- n-step DQTM - Type a update -->
     <g transform="translate(298.667188 78.796562) scale(0.1 -0.1)">
      <defs>
       <path id="DejaVuSans-44" d="M 1259 4147 
L 1259 519 
L 2022 519 
Q 2988 519 3436 956 
Q 3884 1394 3884 2338 
Q 3884 3275 3436 3711 
Q 2988 4147 2022 4147 
L 1259 4147 
z
M 628 4666 
L 1925 4666 
Q 3281 4666 3915 4102 
Q 4550 3538 4550 2338 
Q 4550 1131 3912 565 
Q 3275 0 1925 0 
L 628 0 
L 628 4666 
z
" transform="scale(0.015625)"/>
       <path id="DejaVuSans-79" d="M 2059 -325 
Q 1816 -950 1584 -1140 
Q 1353 -1331 966 -1331 
L 506 -1331 
L 506 -850 
L 844 -850 
Q 1081 -850 1212 -737 
Q 1344 -625 1503 -206 
L 1606 56 
L 191 3500 
L 800 3500 
L 1894 763 
L 2988 3500 
L 3597 3500 
L 2059 -325 
z
" transform="scale(0.015625)"/>
       <path id="DejaVuSans-75" d="M 544 1381 
L 544 3500 
L 1119 3500 
L 1119 1403 
Q 1119 906 1312 657 
Q 1506 409 1894 409 
Q 2359 409 2629 706 
Q 2900 1003 2900 1516 
L 2900 3500 
L 3475 3500 
L 3475 0 
L 2900 0 
L 2900 538 
Q 2691 219 2414 64 
Q 2138 -91 1772 -91 
Q 1169 -91 856 284 
Q 544 659 544 1381 
z
M 1991 3584 
L 1991 3584 
z
" transform="scale(0.015625)"/>
      </defs>
      <use xlink:href="#DejaVuSans-6e"/>
      <use xlink:href="#DejaVuSans-2d" x="63.378906"/>
      <use xlink:href="#DejaVuSans-73" x="99.462891"/>
      <use xlink:href="#DejaVuSans-74" x="151.5625"/>
      <use xlink:href="#DejaVuSans-65" x="190.771484"/>
      <use xlink:href="#DejaVuSans-70" x="252.294922"/>
      <use xlink:href="#DejaVuSans-20" x="315.771484"/>
      <use xlink:href="#DejaVuSans-44" x="347.558594"/>
      <use xlink:href="#DejaVuSans-51" x="424.560547"/>
      <use xlink:href="#DejaVuSans-54" x="503.271484"/>
      <use xlink:href="#DejaVuSans-4d" x="564.355469"/>
      <use xlink:href="#DejaVuSans-20" x="650.634766"/>
      <use xlink:href="#DejaVuSans-2d" x="682.421875"/>
      <use xlink:href="#DejaVuSans-20" x="718.505859"/>
      <use xlink:href="#DejaVuSans-54" x="750.292969"/>
      <use xlink:href="#DejaVuSans-79" x="795.751953"/>
      <use xlink:href="#DejaVuSans-70" x="854.931641"/>
      <use xlink:href="#DejaVuSans-65" x="918.408203"/>
      <use xlink:href="#DejaVuSans-20" x="979.931641"/>
      <use xlink:href="#DejaVuSans-61" x="1011.71875"/>
      <use xlink:href="#DejaVuSans-20" x="1072.998047"/>
      <use xlink:href="#DejaVuSans-75" x="1104.785156"/>
      <use xlink:href="#DejaVuSans-70" x="1168.164062"/>
      <use xlink:href="#DejaVuSans-64" x="1231.640625"/>
      <use xlink:href="#DejaVuSans-61" x="1295.117188"/>
      <use xlink:href="#DejaVuSans-74" x="1356.396484"/>
      <use xlink:href="#DejaVuSans-65" x="1395.605469"/>
     </g>
    </g>
    <g id="line2d_25">
     <path d="M 270.667188 89.974687 
L 280.667188 89.974687 
L 290.667188 89.974687 
" style="fill: none; stroke: #2ca02c; stroke-width: 1.5; stroke-linecap: square"/>
    </g>
    <g id="text_19">
     <!-- n-step DQTM - Type b update -->
     <g transform="translate(298.667188 93.474687) scale(0.1 -0.1)">
      <defs>
       <path id="DejaVuSans-62" d="M 3116 1747 
Q 3116 2381 2855 2742 
Q 2594 3103 2138 3103 
Q 1681 3103 1420 2742 
Q 1159 2381 1159 1747 
Q 1159 1113 1420 752 
Q 1681 391 2138 391 
Q 2594 391 2855 752 
Q 3116 1113 3116 1747 
z
M 1159 2969 
Q 1341 3281 1617 3432 
Q 1894 3584 2278 3584 
Q 2916 3584 3314 3078 
Q 3713 2572 3713 1747 
Q 3713 922 3314 415 
Q 2916 -91 2278 -91 
Q 1894 -91 1617 61 
Q 1341 213 1159 525 
L 1159 0 
L 581 0 
L 581 4863 
L 1159 4863 
L 1159 2969 
z
" transform="scale(0.015625)"/>
      </defs>
      <use xlink:href="#DejaVuSans-6e"/>
      <use xlink:href="#DejaVuSans-2d" x="63.378906"/>
      <use xlink:href="#DejaVuSans-73" x="99.462891"/>
      <use xlink:href="#DejaVuSans-74" x="151.5625"/>
      <use xlink:href="#DejaVuSans-65" x="190.771484"/>
      <use xlink:href="#DejaVuSans-70" x="252.294922"/>
      <use xlink:href="#DejaVuSans-20" x="315.771484"/>
      <use xlink:href="#DejaVuSans-44" x="347.558594"/>
      <use xlink:href="#DejaVuSans-51" x="424.560547"/>
      <use xlink:href="#DejaVuSans-54" x="503.271484"/>
      <use xlink:href="#DejaVuSans-4d" x="564.355469"/>
      <use xlink:href="#DejaVuSans-20" x="650.634766"/>
      <use xlink:href="#DejaVuSans-2d" x="682.421875"/>
      <use xlink:href="#DejaVuSans-20" x="718.505859"/>
      <use xlink:href="#DejaVuSans-54" x="750.292969"/>
      <use xlink:href="#DejaVuSans-79" x="795.751953"/>
      <use xlink:href="#DejaVuSans-70" x="854.931641"/>
      <use xlink:href="#DejaVuSans-65" x="918.408203"/>
      <use xlink:href="#DejaVuSans-20" x="979.931641"/>
      <use xlink:href="#DejaVuSans-62" x="1011.71875"/>
      <use xlink:href="#DejaVuSans-20" x="1075.195312"/>
      <use xlink:href="#DejaVuSans-75" x="1106.982422"/>
      <use xlink:href="#DejaVuSans-70" x="1170.361328"/>
      <use xlink:href="#DejaVuSans-64" x="1233.837891"/>
      <use xlink:href="#DejaVuSans-61" x="1297.314453"/>
      <use xlink:href="#DejaVuSans-74" x="1358.59375"/>
      <use xlink:href="#DejaVuSans-65" x="1397.802734"/>
     </g>
    </g>
   </g>
  </g>
 </g>
 <defs>
  <clipPath id="pf7916fcc1a">
   <rect x="63" y="47.52" width="390.6" height="304.92"/>
  </clipPath>
 </defs>
</svg>
