<?xml version="1.0" encoding="utf-8" standalone="no"?>
<!DOCTYPE svg PUBLIC "-//W3C//DTD SVG 1.1//EN"
  "http://www.w3.org/Graphics/SVG/1.1/DTD/svg11.dtd">
<svg xmlns:xlink="http://www.w3.org/1999/xlink" width="504pt" height="396pt" viewBox="0 0 504 396" xmlns="http://www.w3.org/2000/svg" version="1.1">
 <metadata>
  <rdf:RDF xmlns:dc="http://purl.org/dc/elements/1.1/" xmlns:cc="http://creativecommons.org/ns#" xmlns:rdf="http://www.w3.org/1999/02/22-rdf-syntax-ns#">
   <cc:Work>
    <dc:type rdf:resource="http://purl.org/dc/dcmitype/StillImage"/>
    <dc:date>2024-05-10T11:21:02.447692</dc:date>
    <dc:format>image/svg+xml</dc:format>
    <dc:creator>
     <cc:Agent>
      <dc:title>Matplotlib v3.8.2, https://matplotlib.org/</dc:title>
     </cc:Agent>
    </dc:creator>
   </cc:Work>
  </rdf:RDF>
 </metadata>
 <defs>
  <style type="text/css">*{stroke-linejoin: round; stroke-linecap: butt}</style>
 </defs>
 <g id="figure_1">
  <g id="patch_1">
   <path d="M 0 396 
L 504 396 
L 504 0 
L 0 0 
z
" style="fill: #ffffff"/>
  </g>
  <g id="axes_1">
   <g id="patch_2">
    <path d="M 63 352.44 
L 453.6 352.44 
L 453.6 47.52 
L 63 47.52 
z
" style="fill: #ffffff"/>
   </g>
   <g id="PolyCollection_1">
    <path d="M 80.754545 313.737932 
L 80.754545 314.375941 
L 81.034553 294.717984 
L 81.510685 307.486133 
L 82.317735 298.787715 
L 83.521306 288.290427 
L 85.238081 228.209538 
L 87.822896 134.630424 
L 91.522616 140.295278 
L 95.127519 200.165505 
L 98.493075 289.837007 
L 102.010508 213.224496 
L 105.877822 168.236975 
L 109.379196 175.094879 
L 112.807962 191.787765 
L 116.827666 253.091899 
L 120.40216 215.054694 
L 124.162527 202.929462 
L 128.113553 183.672461 
L 131.702227 187.266463 
L 135.41493 172.352558 
L 138.753152 165.625321 
L 142.264434 258.750006 
L 146.093138 197.938488 
L 150.151794 196.813199 
L 154.276906 156.303141 
L 158.056066 201.982927 
L 161.646277 138.50476 
L 165.328913 165.918842 
L 169.294289 215.851637 
L 172.926527 196.742374 
L 176.657169 208.590607 
L 180.515599 190.290847 
L 184.389405 194.396229 
L 188.117142 177.541533 
L 192.049376 241.950068 
L 195.761738 119.300397 
L 199.942373 226.313399 
L 203.650293 163.406196 
L 207.777455 141.867679 
L 211.883262 214.202732 
L 215.831555 195.70944 
L 219.296027 227.234599 
L 223.046315 208.448321 
L 226.914142 231.306148 
L 230.634704 167.65997 
L 234.469388 171.093796 
L 238.566311 175.511985 
L 242.643076 144.183114 
L 246.456404 113.392746 
L 250.545127 261.673169 
L 254.248264 172.890853 
L 258.144108 189.239434 
L 261.702372 181.610925 
L 265.603342 149.194285 
L 269.308016 206.713329 
L 272.467709 234.591377 
L 276.068341 195.068212 
L 279.814187 216.937374 
L 283.676205 155.438845 
L 287.636798 235.552413 
L 290.795979 218.025191 
L 294.370472 179.864389 
L 297.599698 277.699297 
L 301.10483 272.090708 
L 304.962406 232.046181 
L 308.794698 177.078333 
L 312.488609 199.207287 
L 316.542481 184.932487 
L 320.394761 178.144753 
L 324.167771 250.344574 
L 327.614818 225.852565 
L 331.234413 285.877117 
L 334.935499 201.166107 
L 338.871662 234.017657 
L 342.479128 194.338745 
L 346.444846 223.975058 
L 349.889501 205.372323 
L 353.504484 195.598598 
L 357.40682 219.14942 
L 360.876418 193.2449 
L 364.442198 171.018857 
L 368.061452 173.0956 
L 371.538909 184.022339 
L 375.581847 194.264809 
L 379.256623 160.812006 
L 383.176898 185.467074 
L 386.555609 175.000202 
L 390.488184 304.513568 
L 394.037051 212.365725 
L 397.961255 174.486204 
L 401.875379 174.236988 
L 405.001929 221.749796 
L 409.073056 176.839815 
L 412.815486 226.076657 
L 416.852103 217.089143 
L 420.495787 228.976676 
L 424.030133 230.200017 
L 428.245961 202.156664 
L 432.064244 217.580173 
L 435.845455 193.876906 
L 435.845455 71.64843 
L 435.845455 71.64843 
L 432.064244 67.265936 
L 428.245961 64.951914 
L 424.030133 65.89407 
L 420.495787 66.125711 
L 416.852103 62.937647 
L 412.815486 75.071626 
L 409.073056 68.129471 
L 405.001929 71.386586 
L 401.875379 73.429029 
L 397.961255 69.204309 
L 394.037051 68.583173 
L 390.488184 110.549854 
L 386.555609 68.986082 
L 383.176898 78.831684 
L 379.256623 77.53724 
L 375.581847 63.866265 
L 371.538909 66.601383 
L 368.061452 72.439129 
L 364.442198 70.705652 
L 360.876418 67.321931 
L 357.40682 68.349925 
L 353.504484 66.455784 
L 349.889501 69.756855 
L 346.444846 77.903952 
L 342.479128 64.27078 
L 338.871662 76.830159 
L 334.935499 62.54111 
L 331.234413 166.801353 
L 327.614818 86.682882 
L 324.167771 91.872313 
L 320.394761 63.94512 
L 316.542481 70.771529 
L 312.488609 62.629616 
L 308.794698 69.291513 
L 304.962406 70.998513 
L 301.10483 91.908806 
L 297.599698 97.896161 
L 294.370472 63.460761 
L 290.795979 65.977102 
L 287.636798 67.326998 
L 283.676205 78.952296 
L 279.814187 68.2567 
L 276.068341 65.394229 
L 272.467709 81.85868 
L 269.308016 75.218571 
L 265.603342 83.865888 
L 261.702372 77.772823 
L 258.144108 64.681259 
L 254.248264 67.833257 
L 250.545127 95.280049 
L 246.456404 91.212566 
L 242.643076 81.160929 
L 238.566311 78.313018 
L 234.469388 76.38954 
L 230.634704 76.874359 
L 226.914142 68.554663 
L 223.046315 68.498975 
L 219.296027 65.840889 
L 215.831555 61.812694 
L 211.883262 68.242417 
L 207.777455 73.68984 
L 203.650293 80.066839 
L 199.942373 62.464717 
L 195.761738 86.401006 
L 192.049376 72.542685 
L 188.117142 77.562242 
L 184.389405 62.299488 
L 180.515599 64.943415 
L 176.657169 71.349191 
L 172.926527 61.38 
L 169.294289 67.524318 
L 165.328913 75.188029 
L 161.646277 80.419323 
L 158.056066 68.909773 
L 154.276906 74.182089 
L 150.151794 66.859222 
L 146.093138 66.386368 
L 142.264434 88.573272 
L 138.753152 70.235973 
L 135.41493 72.373153 
L 131.702227 74.596538 
L 128.113553 73.719186 
L 124.162527 72.295406 
L 120.40216 78.525344 
L 116.827666 95.866816 
L 112.807962 73.215623 
L 109.379196 72.971299 
L 105.877822 75.592725 
L 102.010508 68.394235 
L 98.493075 125.939744 
L 95.127519 72.336535 
L 91.522616 72.852582 
L 87.822896 84.824306 
L 85.238081 75.374502 
L 83.521306 165.945188 
L 82.317735 283.577422 
L 81.510685 283.291065 
L 81.034553 260.514558 
L 80.754545 313.737932 
z
" clip-path="url(#peac754f747)" style="fill: #1f77b4; fill-opacity: 0.1"/>
   </g>
   <g id="PolyCollection_2">
    <path d="M 80.754545 300.155054 
L 80.754545 313.805331 
L 80.967071 312.092033 
L 81.41416 312.027041 
L 82.335161 312.536216 
L 83.226435 183.962116 
L 84.408992 273.430997 
L 86.011988 260.931262 
L 88.362752 190.166928 
L 91.061005 172.843505 
L 94.13579 148.041908 
L 97.492292 238.72447 
L 100.70187 159.837539 
L 104.423116 149.470142 
L 108.125227 232.166418 
L 111.667944 207.986057 
L 115.428654 166.929308 
L 119.32894 192.994325 
L 123.405363 169.065381 
L 127.635884 170.449728 
L 131.678309 250.575876 
L 135.601488 162.247414 
L 139.545338 187.584476 
L 143.680872 169.325404 
L 147.604051 152.758656 
L 151.738047 144.352096 
L 155.743912 211.958451 
L 159.615839 128.643339 
L 163.555077 146.285205 
L 167.541125 129.513817 
L 171.539474 154.497665 
L 175.26909 226.418848 
L 178.832308 176.560652 
L 182.338978 170.457747 
L 185.764328 209.031848 
L 189.36479 235.325737 
L 193.203061 189.005912 
L 197.078575 228.803839 
L 200.790595 187.678343 
L 204.56036 179.706928 
L 208.153304 165.766935 
L 211.823468 282.341535 
L 214.644214 227.035608 
L 218.284481 197.35997 
L 222.250883 217.044067 
L 225.862107 153.824188 
L 229.862847 214.72991 
L 233.671392 240.595929 
L 237.382387 239.420407 
L 241.223392 216.838107 
L 244.785756 210.052792 
L 248.931027 200.859588 
L 252.684562 142.096247 
L 256.321412 231.512633 
L 259.977738 219.62681 
L 264.185195 133.86001 
L 267.639076 208.568312 
L 271.159584 318.080028 
L 274.843928 173.22579 
L 278.9019 180.756887 
L 282.208686 187.950158 
L 285.777713 166.034907 
L 289.324701 241.653743 
L 292.77414 139.377476 
L 296.880972 247.505516 
L 300.670554 225.537825 
L 304.336105 209.246089 
L 308.305582 202.727424 
L 312.292143 126.558215 
L 315.427918 253.580149 
L 318.799966 142.747068 
L 322.778155 247.0446 
L 326.401509 254.330698 
L 330.030501 238.905154 
L 333.981868 198.890138 
L 337.972358 170.301115 
L 341.700437 266.264319 
L 345.626008 193.130841 
L 348.969355 298.843603 
L 352.624656 223.286379 
L 356.005587 253.873974 
L 359.57376 243.104926 
L 363.505481 255.44374 
L 367.313171 155.197646 
L 371.120862 123.896517 
L 375.148083 148.506852 
L 378.878554 157.02511 
L 382.155272 175.509209 
L 385.959034 233.515628 
L 389.932952 165.050684 
L 393.835801 194.222295 
L 397.959888 127.916612 
L 402.165466 252.603186 
L 406.165865 226.385268 
L 410.020708 233.257608 
L 413.605793 235.830061 
L 417.053865 217.932445 
L 420.499033 260.634328 
L 424.256155 185.192372 
L 427.662029 244.397858 
L 430.993075 160.482805 
L 430.993075 74.786948 
L 430.993075 74.786948 
L 427.662029 80.86442 
L 424.256155 82.490349 
L 420.499033 97.580264 
L 417.053865 89.51401 
L 413.605793 83.629896 
L 410.020708 78.120855 
L 406.165865 76.354956 
L 402.165466 74.79038 
L 397.959888 82.012568 
L 393.835801 66.005269 
L 389.932952 74.594733 
L 385.959034 76.201301 
L 382.155272 67.12001 
L 378.878554 73.912475 
L 375.148083 76.062968 
L 371.120862 83.988368 
L 367.313171 76.809933 
L 363.505481 90.687757 
L 359.57376 75.815685 
L 356.005587 91.631185 
L 352.624656 75.09558 
L 348.969355 157.366716 
L 345.626008 67.13152 
L 341.700437 107.225949 
L 337.972358 89.865555 
L 333.981868 78.761789 
L 330.030501 115.255642 
L 326.401509 85.17206 
L 322.778155 78.19158 
L 318.799966 76.229211 
L 315.427918 83.739127 
L 312.292143 87.607444 
L 308.305582 72.279967 
L 304.336105 80.871694 
L 300.670554 95.209603 
L 296.880972 100.357108 
L 292.77414 81.799683 
L 289.324701 80.75522 
L 285.777713 72.244746 
L 282.208686 81.959541 
L 278.9019 74.442579 
L 274.843928 67.124257 
L 271.159584 194.761642 
L 267.639076 78.148111 
L 264.185195 83.880992 
L 259.977738 73.205103 
L 256.321412 69.061507 
L 252.684562 83.178203 
L 248.931027 70.468069 
L 244.785756 72.783818 
L 241.223392 75.637141 
L 237.382387 79.891664 
L 233.671392 74.096903 
L 229.862847 75.074704 
L 225.862107 76.156493 
L 222.250883 67.358386 
L 218.284481 72.749809 
L 214.644214 76.67022 
L 211.823468 133.000259 
L 208.153304 71.851585 
L 204.56036 78.537234 
L 200.790595 73.871489 
L 197.078575 80.573824 
L 193.203061 78.528924 
L 189.36479 95.443092 
L 185.764328 69.550886 
L 182.338978 84.472046 
L 178.832308 81.561722 
L 175.26909 67.15249 
L 171.539474 70.594104 
L 167.541125 79.162689 
L 163.555077 77.188525 
L 159.615839 82.660305 
L 155.743912 63.396905 
L 151.738047 74.337111 
L 147.604051 78.535594 
L 143.680872 75.609085 
L 139.545338 67.249626 
L 135.601488 75.82346 
L 131.678309 82.802693 
L 127.635884 70.944215 
L 123.405363 71.519542 
L 119.32894 64.588703 
L 115.428654 76.187063 
L 111.667944 88.656075 
L 108.125227 98.645907 
L 104.423116 94.03769 
L 100.70187 74.571001 
L 97.492292 117.39363 
L 94.13579 83.435024 
L 91.061005 99.153985 
L 88.362752 118.010254 
L 86.011988 135.977071 
L 84.408992 147.365153 
L 83.226435 90.010077 
L 82.335161 255.266572 
L 81.41416 302.229114 
L 80.967071 245.959028 
L 80.754545 300.155054 
z
" clip-path="url(#peac754f747)" style="fill: #ff7f0e; fill-opacity: 0.1"/>
   </g>
   <g id="PolyCollection_3">
    <path d="M 80.754545 313.74543 
L 80.754545 314.438036 
L 80.917869 323.069884 
L 81.160804 316.616497 
L 81.372304 315.150014 
L 81.770192 311.365765 
L 82.273487 291.30627 
L 83.079342 314.970419 
L 83.664982 301.613171 
L 84.24174 300.223666 
L 84.893154 282.770118 
L 86.369215 248.273784 
L 87.920275 282.453512 
L 89.420766 267.945516 
L 90.635441 265.924588 
L 92.162925 270.33205 
L 93.800089 288.776005 
L 95.554107 274.760665 
L 98.198033 214.392867 
L 100.624309 248.503081 
L 103.058955 309.506523 
L 104.988426 254.189841 
L 106.899447 147.002452 
L 109.221681 248.401225 
L 111.908146 284.050846 
L 114.053218 246.638691 
L 116.924703 254.441812 
L 119.851541 167.755659 
L 122.801442 212.820057 
L 126.573598 132.4527 
L 130.377359 223.331644 
L 133.796901 185.429368 
L 137.250098 221.647554 
L 140.596519 130.512247 
L 143.51994 256.522216 
L 147.225127 213.502102 
L 151.200754 275.410358 
L 154.290402 151.348011 
L 158.429523 241.050877 
L 161.393946 234.15334 
L 165.195999 134.068621 
L 169.0628 221.753605 
L 172.22386 173.99756 
L 175.25081 215.401797 
L 179.219262 225.968972 
L 182.669213 125.133203 
L 186.915963 141.668658 
L 190.945918 148.509465 
L 195.16653 142.791547 
L 199.288567 150.571068 
L 203.397278 155.947076 
L 207.608494 151.230118 
L 211.735144 150.382318 
L 215.611683 187.293519 
L 219.461059 121.90946 
L 223.515443 178.963463 
L 227.530193 184.312688 
L 231.312428 121.662909 
L 235.505364 124.453183 
L 239.491241 100.662869 
L 243.729279 170.732899 
L 247.799893 143.714784 
L 251.667207 204.519972 
L 255.013116 224.568904 
L 259.066817 161.950924 
L 263.203888 100.662869 
L 267.357702 115.885949 
L 271.49426 145.353716 
L 275.738961 142.732252 
L 279.975802 120.190023 
L 283.920507 205.182274 
L 287.818231 174.078815 
L 291.867661 168.554361 
L 295.676376 165.161729 
L 299.674554 124.300765 
L 303.890554 204.039758 
L 307.789131 189.79544 
L 311.923981 122.243655 
L 316.194991 168.187742 
L 320.275002 137.494593 
L 324.4705 100.662869 
L 328.724426 100.662869 
L 332.826646 248.067356 
L 336.812181 183.26939 
L 340.9853 140.579137 
L 344.945038 150.012634 
L 349.198281 154.370063 
L 353.294179 216.385254 
L 357.422708 123.251371 
L 361.458642 158.935828 
L 365.66832 101.377277 
L 369.724584 338.58 
L 373.662284 171.15008 
L 377.631248 160.500922 
L 381.707158 105.282708 
L 385.962621 100.662869 
L 390.233631 103.12694 
L 394.440234 115.73094 
L 398.69826 113.818835 
L 402.93254 118.816309 
L 406.809592 117.671041 
L 406.809592 94.041462 
L 406.809592 94.041462 
L 402.93254 89.138169 
L 398.69826 93.039552 
L 394.440234 92.762884 
L 390.233631 99.077412 
L 385.962621 100.662869 
L 381.707158 96.886846 
L 377.631248 67.009205 
L 373.662284 70.400447 
L 369.724584 150.713119 
L 365.66832 100.078948 
L 361.458642 68.66999 
L 357.422708 82.476129 
L 353.294179 81.405164 
L 349.198281 74.705908 
L 344.945038 81.046739 
L 340.9853 80.136968 
L 336.812181 68.87668 
L 332.826646 80.039538 
L 328.724426 100.662869 
L 324.4705 100.662869 
L 320.275002 74.835548 
L 316.194991 72.588562 
L 311.923981 85.423752 
L 307.789131 64.595007 
L 303.890554 72.942335 
L 299.674554 91.856995 
L 295.676376 82.808758 
L 291.867661 71.456419 
L 287.818231 78.91977 
L 283.920507 63.152882 
L 279.975802 84.70236 
L 275.738961 76.635488 
L 271.49426 77.476278 
L 267.357702 93.416895 
L 263.203888 100.662869 
L 259.066817 77.02466 
L 255.013116 71.142421 
L 251.667207 66.45102 
L 247.799893 74.530767 
L 243.729279 66.920417 
L 239.491241 100.662869 
L 235.505364 87.85086 
L 231.312428 84.351662 
L 227.530193 71.078158 
L 223.515443 70.712054 
L 219.461059 91.481975 
L 215.611683 85.252017 
L 211.735144 80.120311 
L 207.608494 82.726066 
L 203.397278 80.009909 
L 199.288567 75.32972 
L 195.16653 78.237727 
L 190.945918 88.160849 
L 186.915963 84.658388 
L 182.669213 88.136445 
L 179.219262 118.579282 
L 175.25081 95.150249 
L 172.22386 90.17941 
L 169.0628 99.254797 
L 165.195999 82.750273 
L 161.393946 115.066348 
L 158.429523 120.260606 
L 154.290402 88.967239 
L 151.200754 91.572959 
L 147.225127 100.155534 
L 143.51994 124.597191 
L 140.596519 85.323644 
L 137.250098 91.479434 
L 133.796901 92.892391 
L 130.377359 88.107713 
L 126.573598 78.442085 
L 122.801442 102.246838 
L 119.851541 77.039644 
L 116.924703 133.071458 
L 114.053218 209.267158 
L 111.908146 174.943194 
L 109.221681 132.796474 
L 106.899447 87.023326 
L 104.988426 224.090176 
L 103.058955 275.685832 
L 100.624309 168.752523 
L 98.198033 90.165476 
L 95.554107 233.400872 
L 93.800089 167.756181 
L 92.162925 188.748982 
L 90.635441 214.495415 
L 89.420766 246.662078 
L 87.920275 171.747306 
L 86.369215 143.79783 
L 84.893154 212.107844 
L 84.24174 256.748703 
L 83.664982 224.251101 
L 83.079342 311.081761 
L 82.273487 177.839658 
L 81.770192 293.06907 
L 81.372304 306.961459 
L 81.160804 308.287397 
L 80.917869 272.978987 
L 80.754545 313.74543 
z
" clip-path="url(#peac754f747)" style="fill: #2ca02c; fill-opacity: 0.1"/>
   </g>
   <g id="matplotlib.axis_1">
    <g id="xtick_1">
     <g id="line2d_1">
      <defs>
       <path id="m93b3e852c6" d="M 0 0 
L 0 3.5 
" style="stroke: #000000; stroke-width: 0.8"/>
      </defs>
      <g>
       <use xlink:href="#m93b3e852c6" x="80.754545" y="352.44" style="stroke: #000000; stroke-width: 0.8"/>
      </g>
     </g>
     <g id="text_1">
      <!-- 0.0 -->
      <g transform="translate(72.802983 367.038437) scale(0.1 -0.1)">
       <defs>
        <path id="DejaVuSans-30" d="M 2034 4250 
Q 1547 4250 1301 3770 
Q 1056 3291 1056 2328 
Q 1056 1369 1301 889 
Q 1547 409 2034 409 
Q 2525 409 2770 889 
Q 3016 1369 3016 2328 
Q 3016 3291 2770 3770 
Q 2525 4250 2034 4250 
z
M 2034 4750 
Q 2819 4750 3233 4129 
Q 3647 3509 3647 2328 
Q 3647 1150 3233 529 
Q 2819 -91 2034 -91 
Q 1250 -91 836 529 
Q 422 1150 422 2328 
Q 422 3509 836 4129 
Q 1250 4750 2034 4750 
z
" transform="scale(0.015625)"/>
        <path id="DejaVuSans-2e" d="M 684 794 
L 1344 794 
L 1344 0 
L 684 0 
L 684 794 
z
" transform="scale(0.015625)"/>
       </defs>
       <use xlink:href="#DejaVuSans-30"/>
       <use xlink:href="#DejaVuSans-2e" x="63.623047"/>
       <use xlink:href="#DejaVuSans-30" x="95.410156"/>
      </g>
     </g>
    </g>
    <g id="xtick_2">
     <g id="line2d_2">
      <g>
       <use xlink:href="#m93b3e852c6" x="166.174744" y="352.44" style="stroke: #000000; stroke-width: 0.8"/>
      </g>
     </g>
     <g id="text_2">
      <!-- 0.5 -->
      <g transform="translate(158.223181 367.038437) scale(0.1 -0.1)">
       <defs>
        <path id="DejaVuSans-35" d="M 691 4666 
L 3169 4666 
L 3169 4134 
L 1269 4134 
L 1269 2991 
Q 1406 3038 1543 3061 
Q 1681 3084 1819 3084 
Q 2600 3084 3056 2656 
Q 3513 2228 3513 1497 
Q 3513 744 3044 326 
Q 2575 -91 1722 -91 
Q 1428 -91 1123 -41 
Q 819 9 494 109 
L 494 744 
Q 775 591 1075 516 
Q 1375 441 1709 441 
Q 2250 441 2565 725 
Q 2881 1009 2881 1497 
Q 2881 1984 2565 2268 
Q 2250 2553 1709 2553 
Q 1456 2553 1204 2497 
Q 953 2441 691 2322 
L 691 4666 
z
" transform="scale(0.015625)"/>
       </defs>
       <use xlink:href="#DejaVuSans-30"/>
       <use xlink:href="#DejaVuSans-2e" x="63.623047"/>
       <use xlink:href="#DejaVuSans-35" x="95.410156"/>
      </g>
     </g>
    </g>
    <g id="xtick_3">
     <g id="line2d_3">
      <g>
       <use xlink:href="#m93b3e852c6" x="251.594942" y="352.44" style="stroke: #000000; stroke-width: 0.8"/>
      </g>
     </g>
     <g id="text_3">
      <!-- 1.0 -->
      <g transform="translate(243.643379 367.038437) scale(0.1 -0.1)">
       <defs>
        <path id="DejaVuSans-31" d="M 794 531 
L 1825 531 
L 1825 4091 
L 703 3866 
L 703 4441 
L 1819 4666 
L 2450 4666 
L 2450 531 
L 3481 531 
L 3481 0 
L 794 0 
L 794 531 
z
" transform="scale(0.015625)"/>
       </defs>
       <use xlink:href="#DejaVuSans-31"/>
       <use xlink:href="#DejaVuSans-2e" x="63.623047"/>
       <use xlink:href="#DejaVuSans-30" x="95.410156"/>
      </g>
     </g>
    </g>
    <g id="xtick_4">
     <g id="line2d_4">
      <g>
       <use xlink:href="#m93b3e852c6" x="337.01514" y="352.44" style="stroke: #000000; stroke-width: 0.8"/>
      </g>
     </g>
     <g id="text_4">
      <!-- 1.5 -->
      <g transform="translate(329.063577 367.038437) scale(0.1 -0.1)">
       <use xlink:href="#DejaVuSans-31"/>
       <use xlink:href="#DejaVuSans-2e" x="63.623047"/>
       <use xlink:href="#DejaVuSans-35" x="95.410156"/>
      </g>
     </g>
    </g>
    <g id="xtick_5">
     <g id="line2d_5">
      <g>
       <use xlink:href="#m93b3e852c6" x="422.435338" y="352.44" style="stroke: #000000; stroke-width: 0.8"/>
      </g>
     </g>
     <g id="text_5">
      <!-- 2.0 -->
      <g transform="translate(414.483775 367.038437) scale(0.1 -0.1)">
       <defs>
        <path id="DejaVuSans-32" d="M 1228 531 
L 3431 531 
L 3431 0 
L 469 0 
L 469 531 
Q 828 903 1448 1529 
Q 2069 2156 2228 2338 
Q 2531 2678 2651 2914 
Q 2772 3150 2772 3378 
Q 2772 3750 2511 3984 
Q 2250 4219 1831 4219 
Q 1534 4219 1204 4116 
Q 875 4013 500 3803 
L 500 4441 
Q 881 4594 1212 4672 
Q 1544 4750 1819 4750 
Q 2544 4750 2975 4387 
Q 3406 4025 3406 3419 
Q 3406 3131 3298 2873 
Q 3191 2616 2906 2266 
Q 2828 2175 2409 1742 
Q 1991 1309 1228 531 
z
" transform="scale(0.015625)"/>
       </defs>
       <use xlink:href="#DejaVuSans-32"/>
       <use xlink:href="#DejaVuSans-2e" x="63.623047"/>
       <use xlink:href="#DejaVuSans-30" x="95.410156"/>
      </g>
     </g>
    </g>
    <g id="text_6">
     <!-- Timesteps -->
     <g transform="translate(232.646094 380.716563) scale(0.1 -0.1)">
      <defs>
       <path id="DejaVuSans-54" d="M -19 4666 
L 3928 4666 
L 3928 4134 
L 2272 4134 
L 2272 0 
L 1638 0 
L 1638 4134 
L -19 4134 
L -19 4666 
z
" transform="scale(0.015625)"/>
       <path id="DejaVuSans-69" d="M 603 3500 
L 1178 3500 
L 1178 0 
L 603 0 
L 603 3500 
z
M 603 4863 
L 1178 4863 
L 1178 4134 
L 603 4134 
L 603 4863 
z
" transform="scale(0.015625)"/>
       <path id="DejaVuSans-6d" d="M 3328 2828 
Q 3544 3216 3844 3400 
Q 4144 3584 4550 3584 
Q 5097 3584 5394 3201 
Q 5691 2819 5691 2113 
L 5691 0 
L 5113 0 
L 5113 2094 
Q 5113 2597 4934 2840 
Q 4756 3084 4391 3084 
Q 3944 3084 3684 2787 
Q 3425 2491 3425 1978 
L 3425 0 
L 2847 0 
L 2847 2094 
Q 2847 2600 2669 2842 
Q 2491 3084 2119 3084 
Q 1678 3084 1418 2786 
Q 1159 2488 1159 1978 
L 1159 0 
L 581 0 
L 581 3500 
L 1159 3500 
L 1159 2956 
Q 1356 3278 1631 3431 
Q 1906 3584 2284 3584 
Q 2666 3584 2933 3390 
Q 3200 3197 3328 2828 
z
" transform="scale(0.015625)"/>
       <path id="DejaVuSans-65" d="M 3597 1894 
L 3597 1613 
L 953 1613 
Q 991 1019 1311 708 
Q 1631 397 2203 397 
Q 2534 397 2845 478 
Q 3156 559 3463 722 
L 3463 178 
Q 3153 47 2828 -22 
Q 2503 -91 2169 -91 
Q 1331 -91 842 396 
Q 353 884 353 1716 
Q 353 2575 817 3079 
Q 1281 3584 2069 3584 
Q 2775 3584 3186 3129 
Q 3597 2675 3597 1894 
z
M 3022 2063 
Q 3016 2534 2758 2815 
Q 2500 3097 2075 3097 
Q 1594 3097 1305 2825 
Q 1016 2553 972 2059 
L 3022 2063 
z
" transform="scale(0.015625)"/>
       <path id="DejaVuSans-73" d="M 2834 3397 
L 2834 2853 
Q 2591 2978 2328 3040 
Q 2066 3103 1784 3103 
Q 1356 3103 1142 2972 
Q 928 2841 928 2578 
Q 928 2378 1081 2264 
Q 1234 2150 1697 2047 
L 1894 2003 
Q 2506 1872 2764 1633 
Q 3022 1394 3022 966 
Q 3022 478 2636 193 
Q 2250 -91 1575 -91 
Q 1294 -91 989 -36 
Q 684 19 347 128 
L 347 722 
Q 666 556 975 473 
Q 1284 391 1588 391 
Q 1994 391 2212 530 
Q 2431 669 2431 922 
Q 2431 1156 2273 1281 
Q 2116 1406 1581 1522 
L 1381 1569 
Q 847 1681 609 1914 
Q 372 2147 372 2553 
Q 372 3047 722 3315 
Q 1072 3584 1716 3584 
Q 2034 3584 2315 3537 
Q 2597 3491 2834 3397 
z
" transform="scale(0.015625)"/>
       <path id="DejaVuSans-74" d="M 1172 4494 
L 1172 3500 
L 2356 3500 
L 2356 3053 
L 1172 3053 
L 1172 1153 
Q 1172 725 1289 603 
Q 1406 481 1766 481 
L 2356 481 
L 2356 0 
L 1766 0 
Q 1100 0 847 248 
Q 594 497 594 1153 
L 594 3053 
L 172 3053 
L 172 3500 
L 594 3500 
L 594 4494 
L 1172 4494 
z
" transform="scale(0.015625)"/>
       <path id="DejaVuSans-70" d="M 1159 525 
L 1159 -1331 
L 581 -1331 
L 581 3500 
L 1159 3500 
L 1159 2969 
Q 1341 3281 1617 3432 
Q 1894 3584 2278 3584 
Q 2916 3584 3314 3078 
Q 3713 2572 3713 1747 
Q 3713 922 3314 415 
Q 2916 -91 2278 -91 
Q 1894 -91 1617 61 
Q 1341 213 1159 525 
z
M 3116 1747 
Q 3116 2381 2855 2742 
Q 2594 3103 2138 3103 
Q 1681 3103 1420 2742 
Q 1159 2381 1159 1747 
Q 1159 1113 1420 752 
Q 1681 391 2138 391 
Q 2594 391 2855 752 
Q 3116 1113 3116 1747 
z
" transform="scale(0.015625)"/>
      </defs>
      <use xlink:href="#DejaVuSans-54"/>
      <use xlink:href="#DejaVuSans-69" x="57.958984"/>
      <use xlink:href="#DejaVuSans-6d" x="85.742188"/>
      <use xlink:href="#DejaVuSans-65" x="183.154297"/>
      <use xlink:href="#DejaVuSans-73" x="244.677734"/>
      <use xlink:href="#DejaVuSans-74" x="296.777344"/>
      <use xlink:href="#DejaVuSans-65" x="335.986328"/>
      <use xlink:href="#DejaVuSans-70" x="397.509766"/>
      <use xlink:href="#DejaVuSans-73" x="460.986328"/>
     </g>
    </g>
    <g id="text_7">
     <!-- 1e6 -->
     <g transform="translate(434.721875 379.716563) scale(0.1 -0.1)">
      <defs>
       <path id="DejaVuSans-36" d="M 2113 2584 
Q 1688 2584 1439 2293 
Q 1191 2003 1191 1497 
Q 1191 994 1439 701 
Q 1688 409 2113 409 
Q 2538 409 2786 701 
Q 3034 994 3034 1497 
Q 3034 2003 2786 2293 
Q 2538 2584 2113 2584 
z
M 3366 4563 
L 3366 3988 
Q 3128 4100 2886 4159 
Q 2644 4219 2406 4219 
Q 1781 4219 1451 3797 
Q 1122 3375 1075 2522 
Q 1259 2794 1537 2939 
Q 1816 3084 2150 3084 
Q 2853 3084 3261 2657 
Q 3669 2231 3669 1497 
Q 3669 778 3244 343 
Q 2819 -91 2113 -91 
Q 1303 -91 875 529 
Q 447 1150 447 2328 
Q 447 3434 972 4092 
Q 1497 4750 2381 4750 
Q 2619 4750 2861 4703 
Q 3103 4656 3366 4563 
z
" transform="scale(0.015625)"/>
      </defs>
      <use xlink:href="#DejaVuSans-31"/>
      <use xlink:href="#DejaVuSans-65" x="63.623047"/>
      <use xlink:href="#DejaVuSans-36" x="125.146484"/>
     </g>
    </g>
   </g>
   <g id="matplotlib.axis_2">
    <g id="ytick_1">
     <g id="line2d_6">
      <path d="M 63 318.141179 
L 453.6 318.141179 
" clip-path="url(#peac754f747)" style="fill: none; stroke-dasharray: 2.96,1.28; stroke-dashoffset: 0; stroke: #b0b0b0; stroke-width: 0.8"/>
     </g>
     <g id="line2d_7">
      <defs>
       <path id="m7350f4c938" d="M 0 0 
L -3.5 0 
" style="stroke: #000000; stroke-width: 0.8"/>
      </defs>
      <g>
       <use xlink:href="#m7350f4c938" x="63" y="318.141179" style="stroke: #000000; stroke-width: 0.8"/>
      </g>
     </g>
     <g id="text_8">
      <!-- 0 -->
      <g transform="translate(49.6375 321.940398) scale(0.1 -0.1)">
       <use xlink:href="#DejaVuSans-30"/>
      </g>
     </g>
    </g>
    <g id="ytick_2">
     <g id="line2d_8">
      <path d="M 63 274.645517 
L 453.6 274.645517 
" clip-path="url(#peac754f747)" style="fill: none; stroke-dasharray: 2.96,1.28; stroke-dashoffset: 0; stroke: #b0b0b0; stroke-width: 0.8"/>
     </g>
     <g id="line2d_9">
      <g>
       <use xlink:href="#m7350f4c938" x="63" y="274.645517" style="stroke: #000000; stroke-width: 0.8"/>
      </g>
     </g>
     <g id="text_9">
      <!-- 100 -->
      <g transform="translate(36.9125 278.444736) scale(0.1 -0.1)">
       <use xlink:href="#DejaVuSans-31"/>
       <use xlink:href="#DejaVuSans-30" x="63.623047"/>
       <use xlink:href="#DejaVuSans-30" x="127.246094"/>
      </g>
     </g>
    </g>
    <g id="ytick_3">
     <g id="line2d_10">
      <path d="M 63 231.149855 
L 453.6 231.149855 
" clip-path="url(#peac754f747)" style="fill: none; stroke-dasharray: 2.96,1.28; stroke-dashoffset: 0; stroke: #b0b0b0; stroke-width: 0.8"/>
     </g>
     <g id="line2d_11">
      <g>
       <use xlink:href="#m7350f4c938" x="63" y="231.149855" style="stroke: #000000; stroke-width: 0.8"/>
      </g>
     </g>
     <g id="text_10">
      <!-- 200 -->
      <g transform="translate(36.9125 234.949074) scale(0.1 -0.1)">
       <use xlink:href="#DejaVuSans-32"/>
       <use xlink:href="#DejaVuSans-30" x="63.623047"/>
       <use xlink:href="#DejaVuSans-30" x="127.246094"/>
      </g>
     </g>
    </g>
    <g id="ytick_4">
     <g id="line2d_12">
      <path d="M 63 187.654193 
L 453.6 187.654193 
" clip-path="url(#peac754f747)" style="fill: none; stroke-dasharray: 2.96,1.28; stroke-dashoffset: 0; stroke: #b0b0b0; stroke-width: 0.8"/>
     </g>
     <g id="line2d_13">
      <g>
       <use xlink:href="#m7350f4c938" x="63" y="187.654193" style="stroke: #000000; stroke-width: 0.8"/>
      </g>
     </g>
     <g id="text_11">
      <!-- 300 -->
      <g transform="translate(36.9125 191.453412) scale(0.1 -0.1)">
       <defs>
        <path id="DejaVuSans-33" d="M 2597 2516 
Q 3050 2419 3304 2112 
Q 3559 1806 3559 1356 
Q 3559 666 3084 287 
Q 2609 -91 1734 -91 
Q 1441 -91 1130 -33 
Q 819 25 488 141 
L 488 750 
Q 750 597 1062 519 
Q 1375 441 1716 441 
Q 2309 441 2620 675 
Q 2931 909 2931 1356 
Q 2931 1769 2642 2001 
Q 2353 2234 1838 2234 
L 1294 2234 
L 1294 2753 
L 1863 2753 
Q 2328 2753 2575 2939 
Q 2822 3125 2822 3475 
Q 2822 3834 2567 4026 
Q 2313 4219 1838 4219 
Q 1578 4219 1281 4162 
Q 984 4106 628 3988 
L 628 4550 
Q 988 4650 1302 4700 
Q 1616 4750 1894 4750 
Q 2613 4750 3031 4423 
Q 3450 4097 3450 3541 
Q 3450 3153 3228 2886 
Q 3006 2619 2597 2516 
z
" transform="scale(0.015625)"/>
       </defs>
       <use xlink:href="#DejaVuSans-33"/>
       <use xlink:href="#DejaVuSans-30" x="63.623047"/>
       <use xlink:href="#DejaVuSans-30" x="127.246094"/>
      </g>
     </g>
    </g>
    <g id="ytick_5">
     <g id="line2d_14">
      <path d="M 63 144.158531 
L 453.6 144.158531 
" clip-path="url(#peac754f747)" style="fill: none; stroke-dasharray: 2.96,1.28; stroke-dashoffset: 0; stroke: #b0b0b0; stroke-width: 0.8"/>
     </g>
     <g id="line2d_15">
      <g>
       <use xlink:href="#m7350f4c938" x="63" y="144.158531" style="stroke: #000000; stroke-width: 0.8"/>
      </g>
     </g>
     <g id="text_12">
      <!-- 400 -->
      <g transform="translate(36.9125 147.95775) scale(0.1 -0.1)">
       <defs>
        <path id="DejaVuSans-34" d="M 2419 4116 
L 825 1625 
L 2419 1625 
L 2419 4116 
z
M 2253 4666 
L 3047 4666 
L 3047 1625 
L 3713 1625 
L 3713 1100 
L 3047 1100 
L 3047 0 
L 2419 0 
L 2419 1100 
L 313 1100 
L 313 1709 
L 2253 4666 
z
" transform="scale(0.015625)"/>
       </defs>
       <use xlink:href="#DejaVuSans-34"/>
       <use xlink:href="#DejaVuSans-30" x="63.623047"/>
       <use xlink:href="#DejaVuSans-30" x="127.246094"/>
      </g>
     </g>
    </g>
    <g id="ytick_6">
     <g id="line2d_16">
      <path d="M 63 100.662869 
L 453.6 100.662869 
" clip-path="url(#peac754f747)" style="fill: none; stroke-dasharray: 2.96,1.28; stroke-dashoffset: 0; stroke: #b0b0b0; stroke-width: 0.8"/>
     </g>
     <g id="line2d_17">
      <g>
       <use xlink:href="#m7350f4c938" x="63" y="100.662869" style="stroke: #000000; stroke-width: 0.8"/>
      </g>
     </g>
     <g id="text_13">
      <!-- 500 -->
      <g transform="translate(36.9125 104.462088) scale(0.1 -0.1)">
       <use xlink:href="#DejaVuSans-35"/>
       <use xlink:href="#DejaVuSans-30" x="63.623047"/>
       <use xlink:href="#DejaVuSans-30" x="127.246094"/>
      </g>
     </g>
    </g>
    <g id="ytick_7">
     <g id="line2d_18">
      <path d="M 63 57.167207 
L 453.6 57.167207 
" clip-path="url(#peac754f747)" style="fill: none; stroke-dasharray: 2.96,1.28; stroke-dashoffset: 0; stroke: #b0b0b0; stroke-width: 0.8"/>
     </g>
     <g id="line2d_19">
      <g>
       <use xlink:href="#m7350f4c938" x="63" y="57.167207" style="stroke: #000000; stroke-width: 0.8"/>
      </g>
     </g>
     <g id="text_14">
      <!-- 600 -->
      <g transform="translate(36.9125 60.966426) scale(0.1 -0.1)">
       <use xlink:href="#DejaVuSans-36"/>
       <use xlink:href="#DejaVuSans-30" x="63.623047"/>
       <use xlink:href="#DejaVuSans-30" x="127.246094"/>
      </g>
     </g>
    </g>
    <g id="text_15">
     <!-- Mean rewards -->
     <g transform="translate(30.832812 235.112031) rotate(-90) scale(0.1 -0.1)">
      <defs>
       <path id="DejaVuSans-4d" d="M 628 4666 
L 1569 4666 
L 2759 1491 
L 3956 4666 
L 4897 4666 
L 4897 0 
L 4281 0 
L 4281 4097 
L 3078 897 
L 2444 897 
L 1241 4097 
L 1241 0 
L 628 0 
L 628 4666 
z
" transform="scale(0.015625)"/>
       <path id="DejaVuSans-61" d="M 2194 1759 
Q 1497 1759 1228 1600 
Q 959 1441 959 1056 
Q 959 750 1161 570 
Q 1363 391 1709 391 
Q 2188 391 2477 730 
Q 2766 1069 2766 1631 
L 2766 1759 
L 2194 1759 
z
M 3341 1997 
L 3341 0 
L 2766 0 
L 2766 531 
Q 2569 213 2275 61 
Q 1981 -91 1556 -91 
Q 1019 -91 701 211 
Q 384 513 384 1019 
Q 384 1609 779 1909 
Q 1175 2209 1959 2209 
L 2766 2209 
L 2766 2266 
Q 2766 2663 2505 2880 
Q 2244 3097 1772 3097 
Q 1472 3097 1187 3025 
Q 903 2953 641 2809 
L 641 3341 
Q 956 3463 1253 3523 
Q 1550 3584 1831 3584 
Q 2591 3584 2966 3190 
Q 3341 2797 3341 1997 
z
" transform="scale(0.015625)"/>
       <path id="DejaVuSans-6e" d="M 3513 2113 
L 3513 0 
L 2938 0 
L 2938 2094 
Q 2938 2591 2744 2837 
Q 2550 3084 2163 3084 
Q 1697 3084 1428 2787 
Q 1159 2491 1159 1978 
L 1159 0 
L 581 0 
L 581 3500 
L 1159 3500 
L 1159 2956 
Q 1366 3272 1645 3428 
Q 1925 3584 2291 3584 
Q 2894 3584 3203 3211 
Q 3513 2838 3513 2113 
z
" transform="scale(0.015625)"/>
       <path id="DejaVuSans-20" transform="scale(0.015625)"/>
       <path id="DejaVuSans-72" d="M 2631 2963 
Q 2534 3019 2420 3045 
Q 2306 3072 2169 3072 
Q 1681 3072 1420 2755 
Q 1159 2438 1159 1844 
L 1159 0 
L 581 0 
L 581 3500 
L 1159 3500 
L 1159 2956 
Q 1341 3275 1631 3429 
Q 1922 3584 2338 3584 
Q 2397 3584 2469 3576 
Q 2541 3569 2628 3553 
L 2631 2963 
z
" transform="scale(0.015625)"/>
       <path id="DejaVuSans-77" d="M 269 3500 
L 844 3500 
L 1563 769 
L 2278 3500 
L 2956 3500 
L 3675 769 
L 4391 3500 
L 4966 3500 
L 4050 0 
L 3372 0 
L 2619 2869 
L 1863 0 
L 1184 0 
L 269 3500 
z
" transform="scale(0.015625)"/>
       <path id="DejaVuSans-64" d="M 2906 2969 
L 2906 4863 
L 3481 4863 
L 3481 0 
L 2906 0 
L 2906 525 
Q 2725 213 2448 61 
Q 2172 -91 1784 -91 
Q 1150 -91 751 415 
Q 353 922 353 1747 
Q 353 2572 751 3078 
Q 1150 3584 1784 3584 
Q 2172 3584 2448 3432 
Q 2725 3281 2906 2969 
z
M 947 1747 
Q 947 1113 1208 752 
Q 1469 391 1925 391 
Q 2381 391 2643 752 
Q 2906 1113 2906 1747 
Q 2906 2381 2643 2742 
Q 2381 3103 1925 3103 
Q 1469 3103 1208 2742 
Q 947 2381 947 1747 
z
" transform="scale(0.015625)"/>
      </defs>
      <use xlink:href="#DejaVuSans-4d"/>
      <use xlink:href="#DejaVuSans-65" x="86.279297"/>
      <use xlink:href="#DejaVuSans-61" x="147.802734"/>
      <use xlink:href="#DejaVuSans-6e" x="209.082031"/>
      <use xlink:href="#DejaVuSans-20" x="272.460938"/>
      <use xlink:href="#DejaVuSans-72" x="304.248047"/>
      <use xlink:href="#DejaVuSans-65" x="343.111328"/>
      <use xlink:href="#DejaVuSans-77" x="404.634766"/>
      <use xlink:href="#DejaVuSans-61" x="486.421875"/>
      <use xlink:href="#DejaVuSans-72" x="547.701172"/>
      <use xlink:href="#DejaVuSans-64" x="587.064453"/>
      <use xlink:href="#DejaVuSans-73" x="650.541016"/>
     </g>
    </g>
   </g>
   <g id="line2d_20">
    <path d="M 80.754545 314.056937 
L 81.034553 277.616271 
L 81.510685 295.388599 
L 82.317735 291.182568 
L 83.521306 227.117808 
L 85.238081 151.79202 
L 87.822896 109.727365 
L 91.522616 106.57393 
L 95.127519 136.25102 
L 98.493075 207.888375 
L 102.010508 140.809365 
L 105.877822 121.91485 
L 109.379196 124.033089 
L 112.807962 132.501694 
L 116.827666 174.479357 
L 120.40216 146.790019 
L 124.162527 137.612434 
L 128.113553 128.695824 
L 131.702227 130.931501 
L 135.41493 122.362855 
L 138.753152 117.930647 
L 142.264434 173.661639 
L 146.093138 132.162428 
L 150.151794 131.83621 
L 154.276906 115.242615 
L 158.056066 135.44635 
L 161.646277 109.462042 
L 165.328913 120.553436 
L 169.294289 141.687978 
L 172.926527 129.061187 
L 176.657169 139.969899 
L 180.515599 127.617131 
L 184.389405 128.347858 
L 188.117142 127.551888 
L 192.049376 157.246376 
L 195.761738 102.850701 
L 199.942373 144.389058 
L 203.650293 121.736518 
L 207.777455 107.77876 
L 211.883262 141.222574 
L 215.831555 128.761067 
L 219.296027 146.537744 
L 223.046315 138.473648 
L 226.914142 149.930406 
L 230.634704 122.267165 
L 234.469388 123.741668 
L 238.566311 126.912501 
L 242.643076 112.672022 
L 246.456404 102.302656 
L 250.545127 178.476609 
L 254.248264 120.362055 
L 258.144108 126.960347 
L 261.702372 129.691874 
L 265.603342 116.530087 
L 269.308016 140.96595 
L 272.467709 158.225028 
L 276.068341 130.23122 
L 279.814187 142.597037 
L 283.676205 117.195571 
L 287.636798 151.439705 
L 290.795979 142.001147 
L 294.370472 121.662575 
L 297.599698 187.797729 
L 301.10483 181.999757 
L 304.962406 151.522347 
L 308.794698 123.184923 
L 312.488609 130.918452 
L 316.542481 127.852008 
L 320.394761 121.044937 
L 324.167771 171.108444 
L 327.614818 156.267724 
L 331.234413 226.339235 
L 334.935499 131.853609 
L 338.871662 155.423908 
L 342.479128 129.304763 
L 346.444846 150.939505 
L 349.889501 137.564589 
L 353.504484 131.027191 
L 357.40682 143.749672 
L 360.876418 130.283415 
L 364.442198 120.862255 
L 368.061452 122.767365 
L 371.538909 125.311861 
L 375.581847 129.065537 
L 379.256623 119.174623 
L 383.176898 132.149379 
L 386.555609 121.993142 
L 390.488184 207.531711 
L 394.037051 140.474449 
L 397.961255 121.845257 
L 401.875379 123.833009 
L 405.001929 146.568191 
L 409.073056 122.484643 
L 412.815486 150.574142 
L 416.852103 140.013395 
L 420.495787 147.551193 
L 424.030133 148.047044 
L 428.245961 133.554289 
L 432.064244 142.423054 
L 435.845455 132.762668 
" clip-path="url(#peac754f747)" style="fill: none; stroke: #1f77b4; stroke-width: 1.5; stroke-linecap: square"/>
   </g>
   <g id="line2d_21">
    <path d="M 80.754545 306.980193 
L 80.967071 279.025531 
L 81.41416 307.128078 
L 82.335161 283.901394 
L 83.226435 136.986097 
L 84.408992 210.398075 
L 86.011988 198.454166 
L 88.362752 154.088591 
L 91.061005 135.998745 
L 94.13579 115.738466 
L 97.492292 178.05905 
L 100.70187 117.20427 
L 104.423116 121.753916 
L 108.125227 165.406162 
L 111.667944 148.321066 
L 115.428654 121.558185 
L 119.32894 128.791514 
L 123.405363 120.292462 
L 127.635884 120.696971 
L 131.678309 166.689284 
L 135.601488 119.035437 
L 139.545338 127.417051 
L 143.680872 122.467245 
L 147.604051 115.647125 
L 151.738047 109.344604 
L 155.743912 137.677678 
L 159.615839 105.651822 
L 163.555077 111.736865 
L 167.541125 104.338253 
L 171.539474 112.545884 
L 175.26909 146.785669 
L 178.832308 129.061187 
L 182.338978 127.464896 
L 185.764328 139.291367 
L 189.36479 165.384414 
L 193.203061 133.767418 
L 197.078575 154.688831 
L 200.790595 130.774916 
L 204.56036 129.122081 
L 208.153304 118.80926 
L 211.823468 207.670897 
L 214.644214 151.852914 
L 218.284481 135.054889 
L 222.250883 142.201227 
L 225.862107 114.99034 
L 229.862847 144.902307 
L 233.671392 157.346416 
L 237.382387 159.656036 
L 241.223392 146.237624 
L 244.785756 141.418305 
L 248.931027 135.663829 
L 252.684562 112.637225 
L 256.321412 150.28707 
L 259.977738 146.415956 
L 264.185195 108.870501 
L 267.639076 143.358211 
L 271.159584 256.420835 
L 274.843928 120.175023 
L 278.9019 127.599733 
L 282.208686 134.954849 
L 285.777713 119.139827 
L 289.324701 161.204481 
L 292.77414 110.588579 
L 296.880972 173.931312 
L 300.670554 160.373714 
L 304.336105 145.058892 
L 308.305582 137.503695 
L 312.292143 107.082829 
L 315.427918 168.659638 
L 318.799966 109.488139 
L 322.778155 162.61809 
L 326.401509 169.751379 
L 330.030501 177.080398 
L 333.981868 138.825963 
L 337.972358 130.083335 
L 341.700437 186.745134 
L 345.626008 130.13118 
L 348.969355 228.105159 
L 352.624656 149.190979 
L 356.005587 172.75258 
L 359.57376 159.460305 
L 363.505481 173.065748 
L 367.313171 116.003789 
L 371.120862 103.942442 
L 375.148083 112.28491 
L 378.878554 115.468793 
L 382.155272 121.31461 
L 385.959034 154.858464 
L 389.932952 119.822708 
L 393.835801 130.113782 
L 397.959888 104.96459 
L 402.165466 163.696783 
L 406.165865 151.370112 
L 410.020708 155.689231 
L 413.605793 159.729978 
L 417.053865 153.723227 
L 420.499033 179.107296 
L 424.256155 133.84136 
L 427.662029 162.631139 
L 430.993075 117.634877 
" clip-path="url(#peac754f747)" style="fill: none; stroke: #ff7f0e; stroke-width: 1.5; stroke-linecap: square"/>
   </g>
   <g id="line2d_22">
    <path d="M 80.754545 314.091733 
L 80.917869 298.024436 
L 81.160804 312.451947 
L 81.372304 311.055736 
L 81.770192 302.217418 
L 82.273487 234.572964 
L 83.079342 313.02609 
L 83.664982 262.932136 
L 84.24174 278.486184 
L 84.893154 247.438981 
L 86.369215 196.035807 
L 87.920275 227.100409 
L 89.420766 257.303797 
L 90.635441 240.210002 
L 92.162925 229.540516 
L 93.800089 228.266093 
L 95.554107 254.080768 
L 98.198033 152.279171 
L 100.624309 208.627802 
L 103.058955 292.596177 
L 104.988426 239.140009 
L 106.899447 117.012889 
L 109.221681 190.59885 
L 111.908146 229.49702 
L 114.053218 227.952924 
L 116.924703 193.756635 
L 119.851541 122.397652 
L 122.801442 157.533447 
L 126.573598 105.447392 
L 130.377359 155.719678 
L 133.796901 139.16088 
L 137.250098 156.563494 
L 140.596519 107.917946 
L 143.51994 190.559704 
L 147.225127 156.828818 
L 151.200754 183.491659 
L 154.290402 120.157625 
L 158.429523 180.655741 
L 161.393946 174.609844 
L 165.195999 108.409447 
L 169.0628 160.504201 
L 172.22386 132.088485 
L 175.25081 155.276023 
L 179.219262 172.274127 
L 182.669213 106.634824 
L 186.915963 113.163523 
L 190.945918 118.335157 
L 195.16653 110.514637 
L 199.288567 112.950394 
L 203.397278 117.978492 
L 207.608494 116.978092 
L 211.735144 115.251314 
L 215.611683 136.272768 
L 219.461059 106.695718 
L 223.515443 124.837758 
L 227.530193 127.695423 
L 231.312428 103.007286 
L 235.505364 106.152022 
L 239.491241 100.662869 
L 243.729279 118.826658 
L 247.799893 109.122776 
L 251.667207 135.485496 
L 255.013116 147.855663 
L 259.066817 119.487792 
L 263.203888 100.662869 
L 267.357702 104.651422 
L 271.49426 111.414997 
L 275.738961 109.68387 
L 279.975802 102.446192 
L 283.920507 134.167578 
L 287.818231 126.499293 
L 291.867661 120.00539 
L 295.676376 123.985243 
L 299.674554 108.07888 
L 303.890554 138.491047 
L 307.789131 127.195223 
L 311.923981 103.833703 
L 316.194991 120.388152 
L 320.275002 106.165071 
L 324.4705 100.662869 
L 328.724426 100.662869 
L 332.826646 164.053447 
L 336.812181 126.073035 
L 340.9853 110.358052 
L 344.945038 115.529687 
L 349.198281 114.537986 
L 353.294179 148.895209 
L 357.422708 102.86375 
L 361.458642 113.802909 
L 365.66832 100.728113 
L 369.724584 244.646559 
L 373.662284 120.775263 
L 377.631248 113.755064 
L 381.707158 101.084777 
L 385.962621 100.662869 
L 390.233631 101.102176 
L 394.440234 104.246912 
L 398.69826 103.429193 
L 402.93254 103.977239 
L 406.809592 105.856251 
" clip-path="url(#peac754f747)" style="fill: none; stroke: #2ca02c; stroke-width: 1.5; stroke-linecap: square"/>
   </g>
   <g id="patch_3">
    <path d="M 63 352.44 
L 63 47.52 
" style="fill: none; stroke: #000000; stroke-width: 0.8; stroke-linejoin: miter; stroke-linecap: square"/>
   </g>
   <g id="patch_4">
    <path d="M 453.6 352.44 
L 453.6 47.52 
" style="fill: none; stroke: #000000; stroke-width: 0.8; stroke-linejoin: miter; stroke-linecap: square"/>
   </g>
   <g id="patch_5">
    <path d="M 63 352.44 
L 453.6 352.44 
" style="fill: none; stroke: #000000; stroke-width: 0.8; stroke-linejoin: miter; stroke-linecap: square"/>
   </g>
   <g id="patch_6">
    <path d="M 63 47.52 
L 453.6 47.52 
" style="fill: none; stroke: #000000; stroke-width: 0.8; stroke-linejoin: miter; stroke-linecap: square"/>
   </g>
   <g id="text_16">
    <!-- Cartpole - Q-Tsetlin-Machine -->
    <g transform="translate(174.03 41.52) scale(0.12 -0.12)">
     <defs>
      <path id="DejaVuSans-43" d="M 4122 4306 
L 4122 3641 
Q 3803 3938 3442 4084 
Q 3081 4231 2675 4231 
Q 1875 4231 1450 3742 
Q 1025 3253 1025 2328 
Q 1025 1406 1450 917 
Q 1875 428 2675 428 
Q 3081 428 3442 575 
Q 3803 722 4122 1019 
L 4122 359 
Q 3791 134 3420 21 
Q 3050 -91 2638 -91 
Q 1578 -91 968 557 
Q 359 1206 359 2328 
Q 359 3453 968 4101 
Q 1578 4750 2638 4750 
Q 3056 4750 3426 4639 
Q 3797 4528 4122 4306 
z
" transform="scale(0.015625)"/>
      <path id="DejaVuSans-6f" d="M 1959 3097 
Q 1497 3097 1228 2736 
Q 959 2375 959 1747 
Q 959 1119 1226 758 
Q 1494 397 1959 397 
Q 2419 397 2687 759 
Q 2956 1122 2956 1747 
Q 2956 2369 2687 2733 
Q 2419 3097 1959 3097 
z
M 1959 3584 
Q 2709 3584 3137 3096 
Q 3566 2609 3566 1747 
Q 3566 888 3137 398 
Q 2709 -91 1959 -91 
Q 1206 -91 779 398 
Q 353 888 353 1747 
Q 353 2609 779 3096 
Q 1206 3584 1959 3584 
z
" transform="scale(0.015625)"/>
      <path id="DejaVuSans-6c" d="M 603 4863 
L 1178 4863 
L 1178 0 
L 603 0 
L 603 4863 
z
" transform="scale(0.015625)"/>
      <path id="DejaVuSans-2d" d="M 313 2009 
L 1997 2009 
L 1997 1497 
L 313 1497 
L 313 2009 
z
" transform="scale(0.015625)"/>
      <path id="DejaVuSans-51" d="M 2522 4238 
Q 1834 4238 1429 3725 
Q 1025 3213 1025 2328 
Q 1025 1447 1429 934 
Q 1834 422 2522 422 
Q 3209 422 3611 934 
Q 4013 1447 4013 2328 
Q 4013 3213 3611 3725 
Q 3209 4238 2522 4238 
z
M 3406 84 
L 4238 -825 
L 3475 -825 
L 2784 -78 
Q 2681 -84 2626 -87 
Q 2572 -91 2522 -91 
Q 1538 -91 948 567 
Q 359 1225 359 2328 
Q 359 3434 948 4092 
Q 1538 4750 2522 4750 
Q 3503 4750 4090 4092 
Q 4678 3434 4678 2328 
Q 4678 1516 4351 937 
Q 4025 359 3406 84 
z
" transform="scale(0.015625)"/>
      <path id="DejaVuSans-63" d="M 3122 3366 
L 3122 2828 
Q 2878 2963 2633 3030 
Q 2388 3097 2138 3097 
Q 1578 3097 1268 2742 
Q 959 2388 959 1747 
Q 959 1106 1268 751 
Q 1578 397 2138 397 
Q 2388 397 2633 464 
Q 2878 531 3122 666 
L 3122 134 
Q 2881 22 2623 -34 
Q 2366 -91 2075 -91 
Q 1284 -91 818 406 
Q 353 903 353 1747 
Q 353 2603 823 3093 
Q 1294 3584 2113 3584 
Q 2378 3584 2631 3529 
Q 2884 3475 3122 3366 
z
" transform="scale(0.015625)"/>
      <path id="DejaVuSans-68" d="M 3513 2113 
L 3513 0 
L 2938 0 
L 2938 2094 
Q 2938 2591 2744 2837 
Q 2550 3084 2163 3084 
Q 1697 3084 1428 2787 
Q 1159 2491 1159 1978 
L 1159 0 
L 581 0 
L 581 4863 
L 1159 4863 
L 1159 2956 
Q 1366 3272 1645 3428 
Q 1925 3584 2291 3584 
Q 2894 3584 3203 3211 
Q 3513 2838 3513 2113 
z
" transform="scale(0.015625)"/>
     </defs>
     <use xlink:href="#DejaVuSans-43"/>
     <use xlink:href="#DejaVuSans-61" x="69.824219"/>
     <use xlink:href="#DejaVuSans-72" x="131.103516"/>
     <use xlink:href="#DejaVuSans-74" x="172.216797"/>
     <use xlink:href="#DejaVuSans-70" x="211.425781"/>
     <use xlink:href="#DejaVuSans-6f" x="274.902344"/>
     <use xlink:href="#DejaVuSans-6c" x="336.083984"/>
     <use xlink:href="#DejaVuSans-65" x="363.867188"/>
     <use xlink:href="#DejaVuSans-20" x="425.390625"/>
     <use xlink:href="#DejaVuSans-2d" x="457.177734"/>
     <use xlink:href="#DejaVuSans-20" x="493.261719"/>
     <use xlink:href="#DejaVuSans-51" x="525.048828"/>
     <use xlink:href="#DejaVuSans-2d" x="606.509766"/>
     <use xlink:href="#DejaVuSans-54" x="633.46875"/>
     <use xlink:href="#DejaVuSans-73" x="678.052734"/>
     <use xlink:href="#DejaVuSans-65" x="730.152344"/>
     <use xlink:href="#DejaVuSans-74" x="791.675781"/>
     <use xlink:href="#DejaVuSans-6c" x="830.884766"/>
     <use xlink:href="#DejaVuSans-69" x="858.667969"/>
     <use xlink:href="#DejaVuSans-6e" x="886.451172"/>
     <use xlink:href="#DejaVuSans-2d" x="949.830078"/>
     <use xlink:href="#DejaVuSans-4d" x="985.914062"/>
     <use xlink:href="#DejaVuSans-61" x="1072.193359"/>
     <use xlink:href="#DejaVuSans-63" x="1133.472656"/>
     <use xlink:href="#DejaVuSans-68" x="1188.453125"/>
     <use xlink:href="#DejaVuSans-69" x="1251.832031"/>
     <use xlink:href="#DejaVuSans-6e" x="1279.615234"/>
     <use xlink:href="#DejaVuSans-65" x="1342.994141"/>
    </g>
   </g>
   <g id="legend_1">
    <g id="patch_7">
     <path d="M 303.421875 99.554375 
L 446.6 99.554375 
Q 448.6 99.554375 448.6 97.554375 
L 448.6 54.52 
Q 448.6 52.52 446.6 52.52 
L 303.421875 52.52 
Q 301.421875 52.52 301.421875 54.52 
L 301.421875 97.554375 
Q 301.421875 99.554375 303.421875 99.554375 
z
" style="fill: #ffffff; opacity: 0.8; stroke: #cccccc; stroke-linejoin: miter"/>
    </g>
    <g id="line2d_23">
     <path d="M 305.421875 60.618437 
L 315.421875 60.618437 
L 325.421875 60.618437 
" style="fill: none; stroke: #1f77b4; stroke-width: 1.5; stroke-linecap: square"/>
    </g>
    <g id="text_17">
     <!-- QTM -->
     <g transform="translate(333.421875 64.118437) scale(0.1 -0.1)">
      <use xlink:href="#DejaVuSans-51"/>
      <use xlink:href="#DejaVuSans-54" x="78.710938"/>
      <use xlink:href="#DejaVuSans-4d" x="139.794922"/>
     </g>
    </g>
    <g id="line2d_24">
     <path d="M 305.421875 75.296562 
L 315.421875 75.296562 
L 325.421875 75.296562 
" style="fill: none; stroke: #ff7f0e; stroke-width: 1.5; stroke-linecap: square"/>
    </g>
    <g id="text_18">
     <!-- DQTM - Type a update -->
     <g transform="translate(333.421875 78.796562) scale(0.1 -0.1)">
      <defs>
       <path id="DejaVuSans-44" d="M 1259 4147 
L 1259 519 
L 2022 519 
Q 2988 519 3436 956 
Q 3884 1394 3884 2338 
Q 3884 3275 3436 3711 
Q 2988 4147 2022 4147 
L 1259 4147 
z
M 628 4666 
L 1925 4666 
Q 3281 4666 3915 4102 
Q 4550 3538 4550 2338 
Q 4550 1131 3912 565 
Q 3275 0 1925 0 
L 628 0 
L 628 4666 
z
" transform="scale(0.015625)"/>
       <path id="DejaVuSans-79" d="M 2059 -325 
Q 1816 -950 1584 -1140 
Q 1353 -1331 966 -1331 
L 506 -1331 
L 506 -850 
L 844 -850 
Q 1081 -850 1212 -737 
Q 1344 -625 1503 -206 
L 1606 56 
L 191 3500 
L 800 3500 
L 1894 763 
L 2988 3500 
L 3597 3500 
L 2059 -325 
z
" transform="scale(0.015625)"/>
       <path id="DejaVuSans-75" d="M 544 1381 
L 544 3500 
L 1119 3500 
L 1119 1403 
Q 1119 906 1312 657 
Q 1506 409 1894 409 
Q 2359 409 2629 706 
Q 2900 1003 2900 1516 
L 2900 3500 
L 3475 3500 
L 3475 0 
L 2900 0 
L 2900 538 
Q 2691 219 2414 64 
Q 2138 -91 1772 -91 
Q 1169 -91 856 284 
Q 544 659 544 1381 
z
M 1991 3584 
L 1991 3584 
z
" transform="scale(0.015625)"/>
      </defs>
      <use xlink:href="#DejaVuSans-44"/>
      <use xlink:href="#DejaVuSans-51" x="77.001953"/>
      <use xlink:href="#DejaVuSans-54" x="155.712891"/>
      <use xlink:href="#DejaVuSans-4d" x="216.796875"/>
      <use xlink:href="#DejaVuSans-20" x="303.076172"/>
      <use xlink:href="#DejaVuSans-2d" x="334.863281"/>
      <use xlink:href="#DejaVuSans-20" x="370.947266"/>
      <use xlink:href="#DejaVuSans-54" x="402.734375"/>
      <use xlink:href="#DejaVuSans-79" x="448.193359"/>
      <use xlink:href="#DejaVuSans-70" x="507.373047"/>
      <use xlink:href="#DejaVuSans-65" x="570.849609"/>
      <use xlink:href="#DejaVuSans-20" x="632.373047"/>
      <use xlink:href="#DejaVuSans-61" x="664.160156"/>
      <use xlink:href="#DejaVuSans-20" x="725.439453"/>
      <use xlink:href="#DejaVuSans-75" x="757.226562"/>
      <use xlink:href="#DejaVuSans-70" x="820.605469"/>
      <use xlink:href="#DejaVuSans-64" x="884.082031"/>
      <use xlink:href="#DejaVuSans-61" x="947.558594"/>
      <use xlink:href="#DejaVuSans-74" x="1008.837891"/>
      <use xlink:href="#DejaVuSans-65" x="1048.046875"/>
     </g>
    </g>
    <g id="line2d_25">
     <path d="M 305.421875 89.974687 
L 315.421875 89.974687 
L 325.421875 89.974687 
" style="fill: none; stroke: #2ca02c; stroke-width: 1.5; stroke-linecap: square"/>
    </g>
    <g id="text_19">
     <!-- DQTM - Type b update -->
     <g transform="translate(333.421875 93.474687) scale(0.1 -0.1)">
      <defs>
       <path id="DejaVuSans-62" d="M 3116 1747 
Q 3116 2381 2855 2742 
Q 2594 3103 2138 3103 
Q 1681 3103 1420 2742 
Q 1159 2381 1159 1747 
Q 1159 1113 1420 752 
Q 1681 391 2138 391 
Q 2594 391 2855 752 
Q 3116 1113 3116 1747 
z
M 1159 2969 
Q 1341 3281 1617 3432 
Q 1894 3584 2278 3584 
Q 2916 3584 3314 3078 
Q 3713 2572 3713 1747 
Q 3713 922 3314 415 
Q 2916 -91 2278 -91 
Q 1894 -91 1617 61 
Q 1341 213 1159 525 
L 1159 0 
L 581 0 
L 581 4863 
L 1159 4863 
L 1159 2969 
z
" transform="scale(0.015625)"/>
      </defs>
      <use xlink:href="#DejaVuSans-44"/>
      <use xlink:href="#DejaVuSans-51" x="77.001953"/>
      <use xlink:href="#DejaVuSans-54" x="155.712891"/>
      <use xlink:href="#DejaVuSans-4d" x="216.796875"/>
      <use xlink:href="#DejaVuSans-20" x="303.076172"/>
      <use xlink:href="#DejaVuSans-2d" x="334.863281"/>
      <use xlink:href="#DejaVuSans-20" x="370.947266"/>
      <use xlink:href="#DejaVuSans-54" x="402.734375"/>
      <use xlink:href="#DejaVuSans-79" x="448.193359"/>
      <use xlink:href="#DejaVuSans-70" x="507.373047"/>
      <use xlink:href="#DejaVuSans-65" x="570.849609"/>
      <use xlink:href="#DejaVuSans-20" x="632.373047"/>
      <use xlink:href="#DejaVuSans-62" x="664.160156"/>
      <use xlink:href="#DejaVuSans-20" x="727.636719"/>
      <use xlink:href="#DejaVuSans-75" x="759.423828"/>
      <use xlink:href="#DejaVuSans-70" x="822.802734"/>
      <use xlink:href="#DejaVuSans-64" x="886.279297"/>
      <use xlink:href="#DejaVuSans-61" x="949.755859"/>
      <use xlink:href="#DejaVuSans-74" x="1011.035156"/>
      <use xlink:href="#DejaVuSans-65" x="1050.244141"/>
     </g>
    </g>
   </g>
  </g>
 </g>
 <defs>
  <clipPath id="peac754f747">
   <rect x="63" y="47.52" width="390.6" height="304.92"/>
  </clipPath>
 </defs>
</svg>
