<?xml version="1.0" encoding="utf-8" standalone="no"?>
<!DOCTYPE svg PUBLIC "-//W3C//DTD SVG 1.1//EN"
  "http://www.w3.org/Graphics/SVG/1.1/DTD/svg11.dtd">
<svg xmlns:xlink="http://www.w3.org/1999/xlink" width="504pt" height="396pt" viewBox="0 0 504 396" xmlns="http://www.w3.org/2000/svg" version="1.1">
 <metadata>
  <rdf:RDF xmlns:dc="http://purl.org/dc/elements/1.1/" xmlns:cc="http://creativecommons.org/ns#" xmlns:rdf="http://www.w3.org/1999/02/22-rdf-syntax-ns#">
   <cc:Work>
    <dc:type rdf:resource="http://purl.org/dc/dcmitype/StillImage"/>
    <dc:date>2024-05-10T14:29:42.792401</dc:date>
    <dc:format>image/svg+xml</dc:format>
    <dc:creator>
     <cc:Agent>
      <dc:title>Matplotlib v3.8.2, https://matplotlib.org/</dc:title>
     </cc:Agent>
    </dc:creator>
   </cc:Work>
  </rdf:RDF>
 </metadata>
 <defs>
  <style type="text/css">*{stroke-linejoin: round; stroke-linecap: butt}</style>
 </defs>
 <g id="figure_1">
  <g id="patch_1">
   <path d="M 0 396 
L 504 396 
L 504 0 
L 0 0 
z
" style="fill: #ffffff"/>
  </g>
  <g id="axes_1">
   <g id="patch_2">
    <path d="M 63 352.44 
L 453.6 352.44 
L 453.6 47.52 
L 63 47.52 
z
" style="fill: #ffffff"/>
   </g>
   <g id="PolyCollection_1">
    <defs>
     <path id="m0faa991d44" d="M 129.765455 -57.42 
L 126.434545 -57.42 
L 125.900924 -60.22 
L 125.254308 -63.02 
L 124.490902 -65.82 
L 123.61358 -68.62 
L 122.633317 -71.42 
L 121.570057 -74.22 
L 120.4528 -77.02 
L 119.318716 -79.82 
L 118.211244 -82.62 
L 117.177262 -85.42 
L 116.263576 -88.22 
L 115.513086 -91.02 
L 114.961105 -93.82 
L 114.63227 -96.62 
L 114.538463 -99.42 
L 114.677998 -102.22 
L 115.03616 -105.02 
L 115.586992 -107.82 
L 116.296048 -110.62 
L 117.123715 -113.42 
L 118.02867 -116.22 
L 118.971048 -119.02 
L 119.915001 -121.82 
L 120.830455 -124.62 
L 121.694008 -127.42 
L 122.489044 -130.22 
L 123.205224 -133.02 
L 123.837564 -135.82 
L 124.385311 -138.62 
L 124.850797 -141.42 
L 125.238411 -144.22 
L 125.553741 -147.02 
L 125.802936 -149.82 
L 125.992258 -152.62 
L 126.127785 -155.42 
L 126.215237 -158.22 
L 126.25988 -161.02 
L 126.266469 -163.82 
L 126.239231 -166.62 
L 126.181854 -169.42 
L 126.097503 -172.22 
L 125.988838 -175.02 
L 125.85804 -177.82 
L 125.706842 -180.62 
L 125.536557 -183.42 
L 125.348098 -186.22 
L 125.14198 -189.02 
L 124.918311 -191.82 
L 124.676773 -194.62 
L 124.416601 -197.42 
L 124.136577 -200.22 
L 123.835042 -203.02 
L 123.50996 -205.82 
L 123.159023 -208.62 
L 122.779814 -211.42 
L 122.370026 -214.22 
L 121.927704 -217.02 
L 121.451515 -219.82 
L 120.941004 -222.62 
L 120.396821 -225.42 
L 119.820886 -228.22 
L 119.216502 -231.02 
L 118.588388 -233.82 
L 117.942667 -236.62 
L 117.286803 -239.42 
L 116.629535 -242.22 
L 115.980797 -245.02 
L 115.351657 -247.82 
L 114.754265 -250.62 
L 114.201776 -253.42 
L 113.708236 -256.22 
L 113.288363 -259.02 
L 112.957195 -261.82 
L 112.729563 -264.62 
L 112.619383 -267.42 
L 112.63879 -270.22 
L 112.797161 -273.02 
L 113.100136 -275.82 
L 113.548729 -278.62 
L 114.138672 -281.42 
L 114.860089 -284.22 
L 115.697595 -287.02 
L 116.630839 -289.82 
L 117.635497 -292.62 
L 118.684607 -295.42 
L 119.750155 -298.22 
L 120.804726 -301.02 
L 121.823082 -303.82 
L 122.783497 -306.62 
L 123.668737 -309.42 
L 124.46662 -312.22 
L 125.17013 -315.02 
L 125.77714 -317.82 
L 126.289792 -320.62 
L 126.713669 -323.42 
L 127.056843 -326.22 
L 127.328927 -329.02 
L 127.540205 -331.82 
L 127.700899 -334.62 
L 128.499101 -334.62 
L 128.499101 -334.62 
L 128.659795 -331.82 
L 128.871073 -329.02 
L 129.143157 -326.22 
L 129.486331 -323.42 
L 129.910208 -320.62 
L 130.42286 -317.82 
L 131.02987 -315.02 
L 131.73338 -312.22 
L 132.531263 -309.42 
L 133.416503 -306.62 
L 134.376918 -303.82 
L 135.395274 -301.02 
L 136.449845 -298.22 
L 137.515393 -295.42 
L 138.564503 -292.62 
L 139.569161 -289.82 
L 140.502405 -287.02 
L 141.339911 -284.22 
L 142.061328 -281.42 
L 142.651271 -278.62 
L 143.099864 -275.82 
L 143.402839 -273.02 
L 143.56121 -270.22 
L 143.580617 -267.42 
L 143.470437 -264.62 
L 143.242805 -261.82 
L 142.911637 -259.02 
L 142.491764 -256.22 
L 141.998224 -253.42 
L 141.445735 -250.62 
L 140.848343 -247.82 
L 140.219203 -245.02 
L 139.570465 -242.22 
L 138.913197 -239.42 
L 138.257333 -236.62 
L 137.611612 -233.82 
L 136.983498 -231.02 
L 136.379114 -228.22 
L 135.803179 -225.42 
L 135.258996 -222.62 
L 134.748485 -219.82 
L 134.272296 -217.02 
L 133.829974 -214.22 
L 133.420186 -211.42 
L 133.040977 -208.62 
L 132.69004 -205.82 
L 132.364958 -203.02 
L 132.063423 -200.22 
L 131.783399 -197.42 
L 131.523227 -194.62 
L 131.281689 -191.82 
L 131.05802 -189.02 
L 130.851902 -186.22 
L 130.663443 -183.42 
L 130.493158 -180.62 
L 130.34196 -177.82 
L 130.211162 -175.02 
L 130.102497 -172.22 
L 130.018146 -169.42 
L 129.960769 -166.62 
L 129.933531 -163.82 
L 129.94012 -161.02 
L 129.984763 -158.22 
L 130.072215 -155.42 
L 130.207742 -152.62 
L 130.397064 -149.82 
L 130.646259 -147.02 
L 130.961589 -144.22 
L 131.349203 -141.42 
L 131.814689 -138.62 
L 132.362436 -135.82 
L 132.994776 -133.02 
L 133.710956 -130.22 
L 134.505992 -127.42 
L 135.369545 -124.62 
L 136.284999 -121.82 
L 137.228952 -119.02 
L 138.17133 -116.22 
L 139.076285 -113.42 
L 139.903952 -110.62 
L 140.613008 -107.82 
L 141.16384 -105.02 
L 141.522002 -102.22 
L 141.661537 -99.42 
L 141.56773 -96.62 
L 141.238895 -93.82 
L 140.686914 -91.02 
L 139.936424 -88.22 
L 139.022738 -85.42 
L 137.988756 -82.62 
L 136.881284 -79.82 
L 135.7472 -77.02 
L 134.629943 -74.22 
L 133.566683 -71.42 
L 132.58642 -68.62 
L 131.709098 -65.82 
L 130.945692 -63.02 
L 130.299076 -60.22 
L 129.765455 -57.42 
z
" style="stroke: #3d3d3d; stroke-width: 1.5"/>
    </defs>
    <g clip-path="url(#p7ead54e115)">
     <use xlink:href="#m0faa991d44" x="0" y="396" style="fill: #3274a1; stroke: #3d3d3d; stroke-width: 1.5"/>
    </g>
   </g>
   <g id="PolyCollection_2">
    <defs>
     <path id="m2e5585feb7" d="M 261.752975 -62.606844 
L 254.847025 -62.606844 
L 253.609859 -65.281403 
L 252.083854 -67.955962 
L 250.260757 -70.630521 
L 248.154192 -73.30508 
L 245.804375 -75.979639 
L 243.280479 -78.654198 
L 240.679694 -81.328758 
L 238.122387 -84.003317 
L 235.743391 -86.677876 
L 233.680118 -89.352435 
L 232.058913 -92.026994 
L 230.98151 -94.701553 
L 230.513625 -97.376112 
L 230.677488 -100.050671 
L 231.449516 -102.72523 
L 232.763479 -105.39979 
L 234.518614 -108.074349 
L 236.591315 -110.748908 
L 238.848551 -113.423467 
L 241.161025 -116.098026 
L 243.414311 -118.772585 
L 245.51676 -121.447144 
L 247.403622 -124.121703 
L 249.037494 -126.796263 
L 250.405748 -129.470822 
L 251.515889 -132.145381 
L 252.389892 -134.81994 
L 253.058478 -137.494499 
L 253.556032 -140.169058 
L 253.916607 -142.843617 
L 254.171183 -145.518176 
L 254.34613 -148.192735 
L 254.462685 -150.867295 
L 254.537181 -153.541854 
L 254.581751 -156.216413 
L 254.605237 -158.890972 
L 254.614121 -161.565531 
L 254.613309 -164.24009 
L 254.606692 -166.914649 
L 254.597463 -169.589208 
L 254.588201 -172.263768 
L 254.580793 -174.938327 
L 254.576272 -177.612886 
L 254.574663 -180.287445 
L 254.574911 -182.962004 
L 254.574943 -185.636563 
L 254.571876 -188.311122 
L 254.56237 -190.985681 
L 254.543054 -193.660241 
L 254.510973 -196.3348 
L 254.46397 -199.009359 
L 254.400947 -201.683918 
L 254.321951 -204.358477 
L 254.228075 -207.033036 
L 254.121194 -209.707595 
L 254.003579 -212.382154 
L 253.877469 -215.056713 
L 253.744659 -217.731273 
L 253.606199 -220.405832 
L 253.462239 -223.080391 
L 253.31206 -225.75495 
L 253.154291 -228.429509 
L 252.987279 -231.104068 
L 252.809572 -233.778627 
L 252.620442 -236.453186 
L 252.420396 -239.127746 
L 252.211595 -241.802305 
L 251.998145 -244.476864 
L 251.786216 -247.151423 
L 251.583956 -249.825982 
L 251.401202 -252.500541 
L 251.248991 -255.1751 
L 251.13889 -257.849659 
L 251.082184 -260.524218 
L 251.08899 -263.198778 
L 251.167362 -265.873337 
L 251.322471 -268.547896 
L 251.555962 -271.222455 
L 251.865565 -273.897014 
L 252.245019 -276.571573 
L 252.684357 -279.246132 
L 253.17051 -281.920691 
L 253.688213 -284.595251 
L 254.221096 -287.26981 
L 254.752838 -289.944369 
L 255.268288 -292.618928 
L 255.754391 -295.293487 
L 256.200876 -297.968046 
L 256.600621 -300.642605 
L 256.949713 -303.317164 
L 257.247221 -305.991724 
L 257.494758 -308.666283 
L 257.695903 -311.340842 
L 257.855572 -314.015401 
L 257.979419 -316.68996 
L 258.0733 -319.364519 
L 258.142862 -322.039078 
L 258.193249 -324.713637 
L 258.228934 -327.388196 
L 258.371066 -327.388196 
L 258.371066 -327.388196 
L 258.406751 -324.713637 
L 258.457138 -322.039078 
L 258.5267 -319.364519 
L 258.620581 -316.68996 
L 258.744428 -314.015401 
L 258.904097 -311.340842 
L 259.105242 -308.666283 
L 259.352779 -305.991724 
L 259.650287 -303.317164 
L 259.999379 -300.642605 
L 260.399124 -297.968046 
L 260.845609 -295.293487 
L 261.331712 -292.618928 
L 261.847162 -289.944369 
L 262.378904 -287.26981 
L 262.911787 -284.595251 
L 263.42949 -281.920691 
L 263.915643 -279.246132 
L 264.354981 -276.571573 
L 264.734435 -273.897014 
L 265.044038 -271.222455 
L 265.277529 -268.547896 
L 265.432638 -265.873337 
L 265.51101 -263.198778 
L 265.517816 -260.524218 
L 265.46111 -257.849659 
L 265.351009 -255.1751 
L 265.198798 -252.500541 
L 265.016044 -249.825982 
L 264.813784 -247.151423 
L 264.601855 -244.476864 
L 264.388405 -241.802305 
L 264.179604 -239.127746 
L 263.979558 -236.453186 
L 263.790428 -233.778627 
L 263.612721 -231.104068 
L 263.445709 -228.429509 
L 263.28794 -225.75495 
L 263.137761 -223.080391 
L 262.993801 -220.405832 
L 262.855341 -217.731273 
L 262.722531 -215.056713 
L 262.596421 -212.382154 
L 262.478806 -209.707595 
L 262.371925 -207.033036 
L 262.278049 -204.358477 
L 262.199053 -201.683918 
L 262.13603 -199.009359 
L 262.089027 -196.3348 
L 262.056946 -193.660241 
L 262.03763 -190.985681 
L 262.028124 -188.311122 
L 262.025057 -185.636563 
L 262.025089 -182.962004 
L 262.025337 -180.287445 
L 262.023728 -177.612886 
L 262.019207 -174.938327 
L 262.011799 -172.263768 
L 262.002537 -169.589208 
L 261.993308 -166.914649 
L 261.986691 -164.24009 
L 261.985879 -161.565531 
L 261.994763 -158.890972 
L 262.018249 -156.216413 
L 262.062819 -153.541854 
L 262.137315 -150.867295 
L 262.25387 -148.192735 
L 262.428817 -145.518176 
L 262.683393 -142.843617 
L 263.043968 -140.169058 
L 263.541522 -137.494499 
L 264.210108 -134.81994 
L 265.084111 -132.145381 
L 266.194252 -129.470822 
L 267.562506 -126.796263 
L 269.196378 -124.121703 
L 271.08324 -121.447144 
L 273.185689 -118.772585 
L 275.438975 -116.098026 
L 277.751449 -113.423467 
L 280.008685 -110.748908 
L 282.081386 -108.074349 
L 283.836521 -105.39979 
L 285.150484 -102.72523 
L 285.922512 -100.050671 
L 286.086375 -97.376112 
L 285.61849 -94.701553 
L 284.541087 -92.026994 
L 282.919882 -89.352435 
L 280.856609 -86.677876 
L 278.477613 -84.003317 
L 275.920306 -81.328758 
L 273.319521 -78.654198 
L 270.795625 -75.979639 
L 268.445808 -73.30508 
L 266.339243 -70.630521 
L 264.516146 -67.955962 
L 262.990141 -65.281403 
L 261.752975 -62.606844 
z
" style="stroke: #3d3d3d; stroke-width: 1.5"/>
    </defs>
    <g clip-path="url(#p7ead54e115)">
     <use xlink:href="#m2e5585feb7" x="0" y="396" style="fill: #e1812c; stroke: #3d3d3d; stroke-width: 1.5"/>
    </g>
   </g>
   <g id="PolyCollection_3">
    <defs>
     <path id="mfcdf9457e5" d="M 395.224654 -72.2279 
L 381.775346 -72.2279 
L 378.59408 -74.693367 
L 374.491169 -77.158835 
L 369.47995 -79.624302 
L 363.705838 -82.089769 
L 357.465318 -84.555236 
L 351.196806 -87.020704 
L 345.437626 -89.486171 
L 340.750227 -91.951638 
L 337.6307 -94.417106 
L 336.42 -96.882573 
L 337.239975 -99.34804 
L 339.970978 -101.813507 
L 344.276895 -104.278975 
L 349.67053 -106.744442 
L 355.601875 -109.209909 
L 361.547322 -111.675376 
L 367.080255 -114.140844 
L 371.911197 -116.606311 
L 375.895367 -119.071778 
L 379.013843 -121.537245 
L 381.339152 -124.002713 
L 382.996672 -126.46818 
L 384.130571 -128.933647 
L 384.879055 -131.399114 
L 385.359923 -133.864582 
L 385.664845 -136.330049 
L 385.859683 -138.795516 
L 385.988175 -141.260984 
L 386.076915 -143.726451 
L 386.140349 -146.191918 
L 386.185147 -148.657385 
L 386.213716 -151.122853 
L 386.226841 -153.58832 
L 386.225506 -156.053787 
L 386.211969 -158.519254 
L 386.190162 -160.984722 
L 386.16552 -163.450189 
L 386.144322 -165.915656 
L 386.132746 -168.381123 
L 386.135806 -170.846591 
L 386.156427 -173.312058 
L 386.194843 -175.777525 
L 386.248485 -178.242993 
L 386.312366 -180.70846 
L 386.379899 -183.173927 
L 386.443966 -185.639394 
L 386.497995 -188.104862 
L 386.536853 -190.570329 
L 386.557387 -193.035796 
L 386.558567 -195.501263 
L 386.541249 -197.966731 
L 386.507664 -200.432198 
L 386.46078 -202.897665 
L 386.403666 -205.363132 
L 386.338998 -207.8286 
L 386.268772 -210.294067 
L 386.194243 -212.759534 
L 386.116037 -215.225001 
L 386.034372 -217.690469 
L 385.949271 -220.155936 
L 385.860737 -222.621403 
L 385.768873 -225.086871 
L 385.674001 -227.552338 
L 385.576851 -230.017805 
L 385.478846 -232.483272 
L 385.382458 -234.94874 
L 385.291533 -237.414207 
L 385.211406 -239.879674 
L 385.14868 -242.345141 
L 385.110596 -244.810609 
L 385.104044 -247.276076 
L 385.134403 -249.741543 
L 385.204473 -252.20701 
L 385.313773 -254.672478 
L 385.458387 -257.137945 
L 385.631445 -259.603412 
L 385.824128 -262.06888 
L 386.026985 -264.534347 
L 386.231284 -266.999814 
L 386.430109 -269.465281 
L 386.619004 -271.930749 
L 386.796075 -274.396216 
L 386.9616 -276.861683 
L 387.117279 -279.32715 
L 387.265345 -281.792618 
L 387.407745 -284.258085 
L 387.545553 -286.723552 
L 387.67871 -289.189019 
L 387.806094 -291.654487 
L 387.925838 -294.119954 
L 388.035794 -296.585421 
L 388.133998 -299.050888 
L 388.219051 -301.516356 
L 388.290339 -303.981823 
L 388.34808 -306.44729 
L 388.393233 -308.912758 
L 388.427297 -311.378225 
L 388.452074 -313.843692 
L 388.469441 -316.309159 
L 388.530559 -316.309159 
L 388.530559 -316.309159 
L 388.547926 -313.843692 
L 388.572703 -311.378225 
L 388.606767 -308.912758 
L 388.65192 -306.44729 
L 388.709661 -303.981823 
L 388.780949 -301.516356 
L 388.866002 -299.050888 
L 388.964206 -296.585421 
L 389.074162 -294.119954 
L 389.193906 -291.654487 
L 389.32129 -289.189019 
L 389.454447 -286.723552 
L 389.592255 -284.258085 
L 389.734655 -281.792618 
L 389.882721 -279.32715 
L 390.0384 -276.861683 
L 390.203925 -274.396216 
L 390.380996 -271.930749 
L 390.569891 -269.465281 
L 390.768716 -266.999814 
L 390.973015 -264.534347 
L 391.175872 -262.06888 
L 391.368555 -259.603412 
L 391.541613 -257.137945 
L 391.686227 -254.672478 
L 391.795527 -252.20701 
L 391.865597 -249.741543 
L 391.895956 -247.276076 
L 391.889404 -244.810609 
L 391.85132 -242.345141 
L 391.788594 -239.879674 
L 391.708467 -237.414207 
L 391.617542 -234.94874 
L 391.521154 -232.483272 
L 391.423149 -230.017805 
L 391.325999 -227.552338 
L 391.231127 -225.086871 
L 391.139263 -222.621403 
L 391.050729 -220.155936 
L 390.965628 -217.690469 
L 390.883963 -215.225001 
L 390.805757 -212.759534 
L 390.731228 -210.294067 
L 390.661002 -207.8286 
L 390.596334 -205.363132 
L 390.53922 -202.897665 
L 390.492336 -200.432198 
L 390.458751 -197.966731 
L 390.441433 -195.501263 
L 390.442613 -193.035796 
L 390.463147 -190.570329 
L 390.502005 -188.104862 
L 390.556034 -185.639394 
L 390.620101 -183.173927 
L 390.687634 -180.70846 
L 390.751515 -178.242993 
L 390.805157 -175.777525 
L 390.843573 -173.312058 
L 390.864194 -170.846591 
L 390.867254 -168.381123 
L 390.855678 -165.915656 
L 390.83448 -163.450189 
L 390.809838 -160.984722 
L 390.788031 -158.519254 
L 390.774494 -156.053787 
L 390.773159 -153.58832 
L 390.786284 -151.122853 
L 390.814853 -148.657385 
L 390.859651 -146.191918 
L 390.923085 -143.726451 
L 391.011825 -141.260984 
L 391.140317 -138.795516 
L 391.335155 -136.330049 
L 391.640077 -133.864582 
L 392.120945 -131.399114 
L 392.869429 -128.933647 
L 394.003328 -126.46818 
L 395.660848 -124.002713 
L 397.986157 -121.537245 
L 401.104633 -119.071778 
L 405.088803 -116.606311 
L 409.919745 -114.140844 
L 415.452678 -111.675376 
L 421.398125 -109.209909 
L 427.32947 -106.744442 
L 432.723105 -104.278975 
L 437.029022 -101.813507 
L 439.760025 -99.34804 
L 440.58 -96.882573 
L 439.3693 -94.417106 
L 436.249773 -91.951638 
L 431.562374 -89.486171 
L 425.803194 -87.020704 
L 419.534682 -84.555236 
L 413.294162 -82.089769 
L 407.52005 -79.624302 
L 402.508831 -77.158835 
L 398.40592 -74.693367 
L 395.224654 -72.2279 
z
" style="stroke: #3d3d3d; stroke-width: 1.5"/>
    </defs>
    <g clip-path="url(#p7ead54e115)">
     <use xlink:href="#mfcdf9457e5" x="0" y="396" style="fill: #3a923a; stroke: #3d3d3d; stroke-width: 1.5"/>
    </g>
   </g>
   <g id="matplotlib.axis_1">
    <g id="xtick_1">
     <g id="line2d_1">
      <defs>
       <path id="mf743371e69" d="M 0 0 
L 0 3.5 
" style="stroke: #000000; stroke-width: 0.8"/>
      </defs>
      <g>
       <use xlink:href="#mf743371e69" x="128.1" y="352.44" style="stroke: #000000; stroke-width: 0.8"/>
      </g>
     </g>
     <g id="text_1">
      <!-- TPPO -->
      <g transform="translate(115.080469 367.038437) scale(0.1 -0.1)">
       <defs>
        <path id="DejaVuSans-54" d="M -19 4666 
L 3928 4666 
L 3928 4134 
L 2272 4134 
L 2272 0 
L 1638 0 
L 1638 4134 
L -19 4134 
L -19 4666 
z
" transform="scale(0.015625)"/>
        <path id="DejaVuSans-50" d="M 1259 4147 
L 1259 2394 
L 2053 2394 
Q 2494 2394 2734 2622 
Q 2975 2850 2975 3272 
Q 2975 3691 2734 3919 
Q 2494 4147 2053 4147 
L 1259 4147 
z
M 628 4666 
L 2053 4666 
Q 2838 4666 3239 4311 
Q 3641 3956 3641 3272 
Q 3641 2581 3239 2228 
Q 2838 1875 2053 1875 
L 1259 1875 
L 1259 0 
L 628 0 
L 628 4666 
z
" transform="scale(0.015625)"/>
        <path id="DejaVuSans-4f" d="M 2522 4238 
Q 1834 4238 1429 3725 
Q 1025 3213 1025 2328 
Q 1025 1447 1429 934 
Q 1834 422 2522 422 
Q 3209 422 3611 934 
Q 4013 1447 4013 2328 
Q 4013 3213 3611 3725 
Q 3209 4238 2522 4238 
z
M 2522 4750 
Q 3503 4750 4090 4092 
Q 4678 3434 4678 2328 
Q 4678 1225 4090 567 
Q 3503 -91 2522 -91 
Q 1538 -91 948 565 
Q 359 1222 359 2328 
Q 359 3434 948 4092 
Q 1538 4750 2522 4750 
z
" transform="scale(0.015625)"/>
       </defs>
       <use xlink:href="#DejaVuSans-54"/>
       <use xlink:href="#DejaVuSans-50" x="61.083984"/>
       <use xlink:href="#DejaVuSans-50" x="121.386719"/>
       <use xlink:href="#DejaVuSans-4f" x="181.689453"/>
      </g>
     </g>
    </g>
    <g id="xtick_2">
     <g id="line2d_2">
      <g>
       <use xlink:href="#mf743371e69" x="258.3" y="352.44" style="stroke: #000000; stroke-width: 0.8"/>
      </g>
     </g>
     <g id="text_2">
      <!-- TAC  -->
      <g transform="translate(247.220312 367.038437) scale(0.1 -0.1)">
       <defs>
        <path id="DejaVuSans-41" d="M 2188 4044 
L 1331 1722 
L 3047 1722 
L 2188 4044 
z
M 1831 4666 
L 2547 4666 
L 4325 0 
L 3669 0 
L 3244 1197 
L 1141 1197 
L 716 0 
L 50 0 
L 1831 4666 
z
" transform="scale(0.015625)"/>
        <path id="DejaVuSans-43" d="M 4122 4306 
L 4122 3641 
Q 3803 3938 3442 4084 
Q 3081 4231 2675 4231 
Q 1875 4231 1450 3742 
Q 1025 3253 1025 2328 
Q 1025 1406 1450 917 
Q 1875 428 2675 428 
Q 3081 428 3442 575 
Q 3803 722 4122 1019 
L 4122 359 
Q 3791 134 3420 21 
Q 3050 -91 2638 -91 
Q 1578 -91 968 557 
Q 359 1206 359 2328 
Q 359 3453 968 4101 
Q 1578 4750 2638 4750 
Q 3056 4750 3426 4639 
Q 3797 4528 4122 4306 
z
" transform="scale(0.015625)"/>
        <path id="DejaVuSans-20" transform="scale(0.015625)"/>
       </defs>
       <use xlink:href="#DejaVuSans-54"/>
       <use xlink:href="#DejaVuSans-41" x="53.333984"/>
       <use xlink:href="#DejaVuSans-43" x="119.992188"/>
       <use xlink:href="#DejaVuSans-20" x="189.816406"/>
      </g>
      <!--  Update type a -->
      <g transform="translate(221.189844 378.23625) scale(0.1 -0.1)">
       <defs>
        <path id="DejaVuSans-55" d="M 556 4666 
L 1191 4666 
L 1191 1831 
Q 1191 1081 1462 751 
Q 1734 422 2344 422 
Q 2950 422 3222 751 
Q 3494 1081 3494 1831 
L 3494 4666 
L 4128 4666 
L 4128 1753 
Q 4128 841 3676 375 
Q 3225 -91 2344 -91 
Q 1459 -91 1007 375 
Q 556 841 556 1753 
L 556 4666 
z
" transform="scale(0.015625)"/>
        <path id="DejaVuSans-70" d="M 1159 525 
L 1159 -1331 
L 581 -1331 
L 581 3500 
L 1159 3500 
L 1159 2969 
Q 1341 3281 1617 3432 
Q 1894 3584 2278 3584 
Q 2916 3584 3314 3078 
Q 3713 2572 3713 1747 
Q 3713 922 3314 415 
Q 2916 -91 2278 -91 
Q 1894 -91 1617 61 
Q 1341 213 1159 525 
z
M 3116 1747 
Q 3116 2381 2855 2742 
Q 2594 3103 2138 3103 
Q 1681 3103 1420 2742 
Q 1159 2381 1159 1747 
Q 1159 1113 1420 752 
Q 1681 391 2138 391 
Q 2594 391 2855 752 
Q 3116 1113 3116 1747 
z
" transform="scale(0.015625)"/>
        <path id="DejaVuSans-64" d="M 2906 2969 
L 2906 4863 
L 3481 4863 
L 3481 0 
L 2906 0 
L 2906 525 
Q 2725 213 2448 61 
Q 2172 -91 1784 -91 
Q 1150 -91 751 415 
Q 353 922 353 1747 
Q 353 2572 751 3078 
Q 1150 3584 1784 3584 
Q 2172 3584 2448 3432 
Q 2725 3281 2906 2969 
z
M 947 1747 
Q 947 1113 1208 752 
Q 1469 391 1925 391 
Q 2381 391 2643 752 
Q 2906 1113 2906 1747 
Q 2906 2381 2643 2742 
Q 2381 3103 1925 3103 
Q 1469 3103 1208 2742 
Q 947 2381 947 1747 
z
" transform="scale(0.015625)"/>
        <path id="DejaVuSans-61" d="M 2194 1759 
Q 1497 1759 1228 1600 
Q 959 1441 959 1056 
Q 959 750 1161 570 
Q 1363 391 1709 391 
Q 2188 391 2477 730 
Q 2766 1069 2766 1631 
L 2766 1759 
L 2194 1759 
z
M 3341 1997 
L 3341 0 
L 2766 0 
L 2766 531 
Q 2569 213 2275 61 
Q 1981 -91 1556 -91 
Q 1019 -91 701 211 
Q 384 513 384 1019 
Q 384 1609 779 1909 
Q 1175 2209 1959 2209 
L 2766 2209 
L 2766 2266 
Q 2766 2663 2505 2880 
Q 2244 3097 1772 3097 
Q 1472 3097 1187 3025 
Q 903 2953 641 2809 
L 641 3341 
Q 956 3463 1253 3523 
Q 1550 3584 1831 3584 
Q 2591 3584 2966 3190 
Q 3341 2797 3341 1997 
z
" transform="scale(0.015625)"/>
        <path id="DejaVuSans-74" d="M 1172 4494 
L 1172 3500 
L 2356 3500 
L 2356 3053 
L 1172 3053 
L 1172 1153 
Q 1172 725 1289 603 
Q 1406 481 1766 481 
L 2356 481 
L 2356 0 
L 1766 0 
Q 1100 0 847 248 
Q 594 497 594 1153 
L 594 3053 
L 172 3053 
L 172 3500 
L 594 3500 
L 594 4494 
L 1172 4494 
z
" transform="scale(0.015625)"/>
        <path id="DejaVuSans-65" d="M 3597 1894 
L 3597 1613 
L 953 1613 
Q 991 1019 1311 708 
Q 1631 397 2203 397 
Q 2534 397 2845 478 
Q 3156 559 3463 722 
L 3463 178 
Q 3153 47 2828 -22 
Q 2503 -91 2169 -91 
Q 1331 -91 842 396 
Q 353 884 353 1716 
Q 353 2575 817 3079 
Q 1281 3584 2069 3584 
Q 2775 3584 3186 3129 
Q 3597 2675 3597 1894 
z
M 3022 2063 
Q 3016 2534 2758 2815 
Q 2500 3097 2075 3097 
Q 1594 3097 1305 2825 
Q 1016 2553 972 2059 
L 3022 2063 
z
" transform="scale(0.015625)"/>
        <path id="DejaVuSans-79" d="M 2059 -325 
Q 1816 -950 1584 -1140 
Q 1353 -1331 966 -1331 
L 506 -1331 
L 506 -850 
L 844 -850 
Q 1081 -850 1212 -737 
Q 1344 -625 1503 -206 
L 1606 56 
L 191 3500 
L 800 3500 
L 1894 763 
L 2988 3500 
L 3597 3500 
L 2059 -325 
z
" transform="scale(0.015625)"/>
       </defs>
       <use xlink:href="#DejaVuSans-20"/>
       <use xlink:href="#DejaVuSans-55" x="31.787109"/>
       <use xlink:href="#DejaVuSans-70" x="104.980469"/>
       <use xlink:href="#DejaVuSans-64" x="168.457031"/>
       <use xlink:href="#DejaVuSans-61" x="231.933594"/>
       <use xlink:href="#DejaVuSans-74" x="293.212891"/>
       <use xlink:href="#DejaVuSans-65" x="332.421875"/>
       <use xlink:href="#DejaVuSans-20" x="393.945312"/>
       <use xlink:href="#DejaVuSans-74" x="425.732422"/>
       <use xlink:href="#DejaVuSans-79" x="464.941406"/>
       <use xlink:href="#DejaVuSans-70" x="524.121094"/>
       <use xlink:href="#DejaVuSans-65" x="587.597656"/>
       <use xlink:href="#DejaVuSans-20" x="649.121094"/>
       <use xlink:href="#DejaVuSans-61" x="680.908203"/>
      </g>
     </g>
    </g>
    <g id="xtick_3">
     <g id="line2d_3">
      <g>
       <use xlink:href="#mf743371e69" x="388.5" y="352.44" style="stroke: #000000; stroke-width: 0.8"/>
      </g>
     </g>
     <g id="text_3">
      <!-- TAC  -->
      <g transform="translate(377.420313 367.038437) scale(0.1 -0.1)">
       <use xlink:href="#DejaVuSans-54"/>
       <use xlink:href="#DejaVuSans-41" x="53.333984"/>
       <use xlink:href="#DejaVuSans-43" x="119.992188"/>
       <use xlink:href="#DejaVuSans-20" x="189.816406"/>
      </g>
      <!--  Update type b -->
      <g transform="translate(351.279688 378.23625) scale(0.1 -0.1)">
       <defs>
        <path id="DejaVuSans-62" d="M 3116 1747 
Q 3116 2381 2855 2742 
Q 2594 3103 2138 3103 
Q 1681 3103 1420 2742 
Q 1159 2381 1159 1747 
Q 1159 1113 1420 752 
Q 1681 391 2138 391 
Q 2594 391 2855 752 
Q 3116 1113 3116 1747 
z
M 1159 2969 
Q 1341 3281 1617 3432 
Q 1894 3584 2278 3584 
Q 2916 3584 3314 3078 
Q 3713 2572 3713 1747 
Q 3713 922 3314 415 
Q 2916 -91 2278 -91 
Q 1894 -91 1617 61 
Q 1341 213 1159 525 
L 1159 0 
L 581 0 
L 581 4863 
L 1159 4863 
L 1159 2969 
z
" transform="scale(0.015625)"/>
       </defs>
       <use xlink:href="#DejaVuSans-20"/>
       <use xlink:href="#DejaVuSans-55" x="31.787109"/>
       <use xlink:href="#DejaVuSans-70" x="104.980469"/>
       <use xlink:href="#DejaVuSans-64" x="168.457031"/>
       <use xlink:href="#DejaVuSans-61" x="231.933594"/>
       <use xlink:href="#DejaVuSans-74" x="293.212891"/>
       <use xlink:href="#DejaVuSans-65" x="332.421875"/>
       <use xlink:href="#DejaVuSans-20" x="393.945312"/>
       <use xlink:href="#DejaVuSans-74" x="425.732422"/>
       <use xlink:href="#DejaVuSans-79" x="464.941406"/>
       <use xlink:href="#DejaVuSans-70" x="524.121094"/>
       <use xlink:href="#DejaVuSans-65" x="587.597656"/>
       <use xlink:href="#DejaVuSans-20" x="649.121094"/>
       <use xlink:href="#DejaVuSans-62" x="680.908203"/>
      </g>
     </g>
    </g>
    <g id="text_4">
     <!-- Algorithm -->
     <g transform="translate(233.813281 391.914375) scale(0.1 -0.1)">
      <defs>
       <path id="DejaVuSans-6c" d="M 603 4863 
L 1178 4863 
L 1178 0 
L 603 0 
L 603 4863 
z
" transform="scale(0.015625)"/>
       <path id="DejaVuSans-67" d="M 2906 1791 
Q 2906 2416 2648 2759 
Q 2391 3103 1925 3103 
Q 1463 3103 1205 2759 
Q 947 2416 947 1791 
Q 947 1169 1205 825 
Q 1463 481 1925 481 
Q 2391 481 2648 825 
Q 2906 1169 2906 1791 
z
M 3481 434 
Q 3481 -459 3084 -895 
Q 2688 -1331 1869 -1331 
Q 1566 -1331 1297 -1286 
Q 1028 -1241 775 -1147 
L 775 -588 
Q 1028 -725 1275 -790 
Q 1522 -856 1778 -856 
Q 2344 -856 2625 -561 
Q 2906 -266 2906 331 
L 2906 616 
Q 2728 306 2450 153 
Q 2172 0 1784 0 
Q 1141 0 747 490 
Q 353 981 353 1791 
Q 353 2603 747 3093 
Q 1141 3584 1784 3584 
Q 2172 3584 2450 3431 
Q 2728 3278 2906 2969 
L 2906 3500 
L 3481 3500 
L 3481 434 
z
" transform="scale(0.015625)"/>
       <path id="DejaVuSans-6f" d="M 1959 3097 
Q 1497 3097 1228 2736 
Q 959 2375 959 1747 
Q 959 1119 1226 758 
Q 1494 397 1959 397 
Q 2419 397 2687 759 
Q 2956 1122 2956 1747 
Q 2956 2369 2687 2733 
Q 2419 3097 1959 3097 
z
M 1959 3584 
Q 2709 3584 3137 3096 
Q 3566 2609 3566 1747 
Q 3566 888 3137 398 
Q 2709 -91 1959 -91 
Q 1206 -91 779 398 
Q 353 888 353 1747 
Q 353 2609 779 3096 
Q 1206 3584 1959 3584 
z
" transform="scale(0.015625)"/>
       <path id="DejaVuSans-72" d="M 2631 2963 
Q 2534 3019 2420 3045 
Q 2306 3072 2169 3072 
Q 1681 3072 1420 2755 
Q 1159 2438 1159 1844 
L 1159 0 
L 581 0 
L 581 3500 
L 1159 3500 
L 1159 2956 
Q 1341 3275 1631 3429 
Q 1922 3584 2338 3584 
Q 2397 3584 2469 3576 
Q 2541 3569 2628 3553 
L 2631 2963 
z
" transform="scale(0.015625)"/>
       <path id="DejaVuSans-69" d="M 603 3500 
L 1178 3500 
L 1178 0 
L 603 0 
L 603 3500 
z
M 603 4863 
L 1178 4863 
L 1178 4134 
L 603 4134 
L 603 4863 
z
" transform="scale(0.015625)"/>
       <path id="DejaVuSans-68" d="M 3513 2113 
L 3513 0 
L 2938 0 
L 2938 2094 
Q 2938 2591 2744 2837 
Q 2550 3084 2163 3084 
Q 1697 3084 1428 2787 
Q 1159 2491 1159 1978 
L 1159 0 
L 581 0 
L 581 4863 
L 1159 4863 
L 1159 2956 
Q 1366 3272 1645 3428 
Q 1925 3584 2291 3584 
Q 2894 3584 3203 3211 
Q 3513 2838 3513 2113 
z
" transform="scale(0.015625)"/>
       <path id="DejaVuSans-6d" d="M 3328 2828 
Q 3544 3216 3844 3400 
Q 4144 3584 4550 3584 
Q 5097 3584 5394 3201 
Q 5691 2819 5691 2113 
L 5691 0 
L 5113 0 
L 5113 2094 
Q 5113 2597 4934 2840 
Q 4756 3084 4391 3084 
Q 3944 3084 3684 2787 
Q 3425 2491 3425 1978 
L 3425 0 
L 2847 0 
L 2847 2094 
Q 2847 2600 2669 2842 
Q 2491 3084 2119 3084 
Q 1678 3084 1418 2786 
Q 1159 2488 1159 1978 
L 1159 0 
L 581 0 
L 581 3500 
L 1159 3500 
L 1159 2956 
Q 1356 3278 1631 3431 
Q 1906 3584 2284 3584 
Q 2666 3584 2933 3390 
Q 3200 3197 3328 2828 
z
" transform="scale(0.015625)"/>
      </defs>
      <use xlink:href="#DejaVuSans-41"/>
      <use xlink:href="#DejaVuSans-6c" x="68.408203"/>
      <use xlink:href="#DejaVuSans-67" x="96.191406"/>
      <use xlink:href="#DejaVuSans-6f" x="159.667969"/>
      <use xlink:href="#DejaVuSans-72" x="220.849609"/>
      <use xlink:href="#DejaVuSans-69" x="261.962891"/>
      <use xlink:href="#DejaVuSans-74" x="289.746094"/>
      <use xlink:href="#DejaVuSans-68" x="328.955078"/>
      <use xlink:href="#DejaVuSans-6d" x="392.333984"/>
     </g>
    </g>
   </g>
   <g id="matplotlib.axis_2">
    <g id="ytick_1">
     <g id="line2d_4">
      <path d="M 63 346.774509 
L 453.6 346.774509 
" clip-path="url(#p7ead54e115)" style="fill: none; stroke-dasharray: 2.96,1.28; stroke-dashoffset: 0; stroke: #b0b0b0; stroke-width: 0.8"/>
     </g>
     <g id="line2d_5">
      <defs>
       <path id="m716c08fbcc" d="M 0 0 
L -3.5 0 
" style="stroke: #000000; stroke-width: 0.8"/>
      </defs>
      <g>
       <use xlink:href="#m716c08fbcc" x="63" y="346.774509" style="stroke: #000000; stroke-width: 0.8"/>
      </g>
     </g>
     <g id="text_5">
      <!-- −600 -->
      <g transform="translate(28.532812 350.573728) scale(0.1 -0.1)">
       <defs>
        <path id="DejaVuSans-2212" d="M 678 2272 
L 4684 2272 
L 4684 1741 
L 678 1741 
L 678 2272 
z
" transform="scale(0.015625)"/>
        <path id="DejaVuSans-36" d="M 2113 2584 
Q 1688 2584 1439 2293 
Q 1191 2003 1191 1497 
Q 1191 994 1439 701 
Q 1688 409 2113 409 
Q 2538 409 2786 701 
Q 3034 994 3034 1497 
Q 3034 2003 2786 2293 
Q 2538 2584 2113 2584 
z
M 3366 4563 
L 3366 3988 
Q 3128 4100 2886 4159 
Q 2644 4219 2406 4219 
Q 1781 4219 1451 3797 
Q 1122 3375 1075 2522 
Q 1259 2794 1537 2939 
Q 1816 3084 2150 3084 
Q 2853 3084 3261 2657 
Q 3669 2231 3669 1497 
Q 3669 778 3244 343 
Q 2819 -91 2113 -91 
Q 1303 -91 875 529 
Q 447 1150 447 2328 
Q 447 3434 972 4092 
Q 1497 4750 2381 4750 
Q 2619 4750 2861 4703 
Q 3103 4656 3366 4563 
z
" transform="scale(0.015625)"/>
        <path id="DejaVuSans-30" d="M 2034 4250 
Q 1547 4250 1301 3770 
Q 1056 3291 1056 2328 
Q 1056 1369 1301 889 
Q 1547 409 2034 409 
Q 2525 409 2770 889 
Q 3016 1369 3016 2328 
Q 3016 3291 2770 3770 
Q 2525 4250 2034 4250 
z
M 2034 4750 
Q 2819 4750 3233 4129 
Q 3647 3509 3647 2328 
Q 3647 1150 3233 529 
Q 2819 -91 2034 -91 
Q 1250 -91 836 529 
Q 422 1150 422 2328 
Q 422 3509 836 4129 
Q 1250 4750 2034 4750 
z
" transform="scale(0.015625)"/>
       </defs>
       <use xlink:href="#DejaVuSans-2212"/>
       <use xlink:href="#DejaVuSans-36" x="83.789062"/>
       <use xlink:href="#DejaVuSans-30" x="147.412109"/>
       <use xlink:href="#DejaVuSans-30" x="211.035156"/>
      </g>
     </g>
    </g>
    <g id="ytick_2">
     <g id="line2d_6">
      <path d="M 63 299.437475 
L 453.6 299.437475 
" clip-path="url(#p7ead54e115)" style="fill: none; stroke-dasharray: 2.96,1.28; stroke-dashoffset: 0; stroke: #b0b0b0; stroke-width: 0.8"/>
     </g>
     <g id="line2d_7">
      <g>
       <use xlink:href="#m716c08fbcc" x="63" y="299.437475" style="stroke: #000000; stroke-width: 0.8"/>
      </g>
     </g>
     <g id="text_6">
      <!-- −500 -->
      <g transform="translate(28.532812 303.236694) scale(0.1 -0.1)">
       <defs>
        <path id="DejaVuSans-35" d="M 691 4666 
L 3169 4666 
L 3169 4134 
L 1269 4134 
L 1269 2991 
Q 1406 3038 1543 3061 
Q 1681 3084 1819 3084 
Q 2600 3084 3056 2656 
Q 3513 2228 3513 1497 
Q 3513 744 3044 326 
Q 2575 -91 1722 -91 
Q 1428 -91 1123 -41 
Q 819 9 494 109 
L 494 744 
Q 775 591 1075 516 
Q 1375 441 1709 441 
Q 2250 441 2565 725 
Q 2881 1009 2881 1497 
Q 2881 1984 2565 2268 
Q 2250 2553 1709 2553 
Q 1456 2553 1204 2497 
Q 953 2441 691 2322 
L 691 4666 
z
" transform="scale(0.015625)"/>
       </defs>
       <use xlink:href="#DejaVuSans-2212"/>
       <use xlink:href="#DejaVuSans-35" x="83.789062"/>
       <use xlink:href="#DejaVuSans-30" x="147.412109"/>
       <use xlink:href="#DejaVuSans-30" x="211.035156"/>
      </g>
     </g>
    </g>
    <g id="ytick_3">
     <g id="line2d_8">
      <path d="M 63 252.100441 
L 453.6 252.100441 
" clip-path="url(#p7ead54e115)" style="fill: none; stroke-dasharray: 2.96,1.28; stroke-dashoffset: 0; stroke: #b0b0b0; stroke-width: 0.8"/>
     </g>
     <g id="line2d_9">
      <g>
       <use xlink:href="#m716c08fbcc" x="63" y="252.100441" style="stroke: #000000; stroke-width: 0.8"/>
      </g>
     </g>
     <g id="text_7">
      <!-- −400 -->
      <g transform="translate(28.532812 255.89966) scale(0.1 -0.1)">
       <defs>
        <path id="DejaVuSans-34" d="M 2419 4116 
L 825 1625 
L 2419 1625 
L 2419 4116 
z
M 2253 4666 
L 3047 4666 
L 3047 1625 
L 3713 1625 
L 3713 1100 
L 3047 1100 
L 3047 0 
L 2419 0 
L 2419 1100 
L 313 1100 
L 313 1709 
L 2253 4666 
z
" transform="scale(0.015625)"/>
       </defs>
       <use xlink:href="#DejaVuSans-2212"/>
       <use xlink:href="#DejaVuSans-34" x="83.789062"/>
       <use xlink:href="#DejaVuSans-30" x="147.412109"/>
       <use xlink:href="#DejaVuSans-30" x="211.035156"/>
      </g>
     </g>
    </g>
    <g id="ytick_4">
     <g id="line2d_10">
      <path d="M 63 204.763407 
L 453.6 204.763407 
" clip-path="url(#p7ead54e115)" style="fill: none; stroke-dasharray: 2.96,1.28; stroke-dashoffset: 0; stroke: #b0b0b0; stroke-width: 0.8"/>
     </g>
     <g id="line2d_11">
      <g>
       <use xlink:href="#m716c08fbcc" x="63" y="204.763407" style="stroke: #000000; stroke-width: 0.8"/>
      </g>
     </g>
     <g id="text_8">
      <!-- −300 -->
      <g transform="translate(28.532812 208.562626) scale(0.1 -0.1)">
       <defs>
        <path id="DejaVuSans-33" d="M 2597 2516 
Q 3050 2419 3304 2112 
Q 3559 1806 3559 1356 
Q 3559 666 3084 287 
Q 2609 -91 1734 -91 
Q 1441 -91 1130 -33 
Q 819 25 488 141 
L 488 750 
Q 750 597 1062 519 
Q 1375 441 1716 441 
Q 2309 441 2620 675 
Q 2931 909 2931 1356 
Q 2931 1769 2642 2001 
Q 2353 2234 1838 2234 
L 1294 2234 
L 1294 2753 
L 1863 2753 
Q 2328 2753 2575 2939 
Q 2822 3125 2822 3475 
Q 2822 3834 2567 4026 
Q 2313 4219 1838 4219 
Q 1578 4219 1281 4162 
Q 984 4106 628 3988 
L 628 4550 
Q 988 4650 1302 4700 
Q 1616 4750 1894 4750 
Q 2613 4750 3031 4423 
Q 3450 4097 3450 3541 
Q 3450 3153 3228 2886 
Q 3006 2619 2597 2516 
z
" transform="scale(0.015625)"/>
       </defs>
       <use xlink:href="#DejaVuSans-2212"/>
       <use xlink:href="#DejaVuSans-33" x="83.789062"/>
       <use xlink:href="#DejaVuSans-30" x="147.412109"/>
       <use xlink:href="#DejaVuSans-30" x="211.035156"/>
      </g>
     </g>
    </g>
    <g id="ytick_5">
     <g id="line2d_12">
      <path d="M 63 157.426373 
L 453.6 157.426373 
" clip-path="url(#p7ead54e115)" style="fill: none; stroke-dasharray: 2.96,1.28; stroke-dashoffset: 0; stroke: #b0b0b0; stroke-width: 0.8"/>
     </g>
     <g id="line2d_13">
      <g>
       <use xlink:href="#m716c08fbcc" x="63" y="157.426373" style="stroke: #000000; stroke-width: 0.8"/>
      </g>
     </g>
     <g id="text_9">
      <!-- −200 -->
      <g transform="translate(28.532812 161.225592) scale(0.1 -0.1)">
       <defs>
        <path id="DejaVuSans-32" d="M 1228 531 
L 3431 531 
L 3431 0 
L 469 0 
L 469 531 
Q 828 903 1448 1529 
Q 2069 2156 2228 2338 
Q 2531 2678 2651 2914 
Q 2772 3150 2772 3378 
Q 2772 3750 2511 3984 
Q 2250 4219 1831 4219 
Q 1534 4219 1204 4116 
Q 875 4013 500 3803 
L 500 4441 
Q 881 4594 1212 4672 
Q 1544 4750 1819 4750 
Q 2544 4750 2975 4387 
Q 3406 4025 3406 3419 
Q 3406 3131 3298 2873 
Q 3191 2616 2906 2266 
Q 2828 2175 2409 1742 
Q 1991 1309 1228 531 
z
" transform="scale(0.015625)"/>
       </defs>
       <use xlink:href="#DejaVuSans-2212"/>
       <use xlink:href="#DejaVuSans-32" x="83.789062"/>
       <use xlink:href="#DejaVuSans-30" x="147.412109"/>
       <use xlink:href="#DejaVuSans-30" x="211.035156"/>
      </g>
     </g>
    </g>
    <g id="ytick_6">
     <g id="line2d_14">
      <path d="M 63 110.089339 
L 453.6 110.089339 
" clip-path="url(#p7ead54e115)" style="fill: none; stroke-dasharray: 2.96,1.28; stroke-dashoffset: 0; stroke: #b0b0b0; stroke-width: 0.8"/>
     </g>
     <g id="line2d_15">
      <g>
       <use xlink:href="#m716c08fbcc" x="63" y="110.089339" style="stroke: #000000; stroke-width: 0.8"/>
      </g>
     </g>
     <g id="text_10">
      <!-- −100 -->
      <g transform="translate(28.532812 113.888558) scale(0.1 -0.1)">
       <defs>
        <path id="DejaVuSans-31" d="M 794 531 
L 1825 531 
L 1825 4091 
L 703 3866 
L 703 4441 
L 1819 4666 
L 2450 4666 
L 2450 531 
L 3481 531 
L 3481 0 
L 794 0 
L 794 531 
z
" transform="scale(0.015625)"/>
       </defs>
       <use xlink:href="#DejaVuSans-2212"/>
       <use xlink:href="#DejaVuSans-31" x="83.789062"/>
       <use xlink:href="#DejaVuSans-30" x="147.412109"/>
       <use xlink:href="#DejaVuSans-30" x="211.035156"/>
      </g>
     </g>
    </g>
    <g id="ytick_7">
     <g id="line2d_16">
      <path d="M 63 62.752305 
L 453.6 62.752305 
" clip-path="url(#p7ead54e115)" style="fill: none; stroke-dasharray: 2.96,1.28; stroke-dashoffset: 0; stroke: #b0b0b0; stroke-width: 0.8"/>
     </g>
     <g id="line2d_17">
      <g>
       <use xlink:href="#m716c08fbcc" x="63" y="62.752305" style="stroke: #000000; stroke-width: 0.8"/>
      </g>
     </g>
     <g id="text_11">
      <!-- 0 -->
      <g transform="translate(49.6375 66.551524) scale(0.1 -0.1)">
       <use xlink:href="#DejaVuSans-30"/>
      </g>
     </g>
    </g>
    <g id="text_12">
     <!-- Mean rewards -->
     <g transform="translate(22.453125 235.112031) rotate(-90) scale(0.1 -0.1)">
      <defs>
       <path id="DejaVuSans-4d" d="M 628 4666 
L 1569 4666 
L 2759 1491 
L 3956 4666 
L 4897 4666 
L 4897 0 
L 4281 0 
L 4281 4097 
L 3078 897 
L 2444 897 
L 1241 4097 
L 1241 0 
L 628 0 
L 628 4666 
z
" transform="scale(0.015625)"/>
       <path id="DejaVuSans-6e" d="M 3513 2113 
L 3513 0 
L 2938 0 
L 2938 2094 
Q 2938 2591 2744 2837 
Q 2550 3084 2163 3084 
Q 1697 3084 1428 2787 
Q 1159 2491 1159 1978 
L 1159 0 
L 581 0 
L 581 3500 
L 1159 3500 
L 1159 2956 
Q 1366 3272 1645 3428 
Q 1925 3584 2291 3584 
Q 2894 3584 3203 3211 
Q 3513 2838 3513 2113 
z
" transform="scale(0.015625)"/>
       <path id="DejaVuSans-77" d="M 269 3500 
L 844 3500 
L 1563 769 
L 2278 3500 
L 2956 3500 
L 3675 769 
L 4391 3500 
L 4966 3500 
L 4050 0 
L 3372 0 
L 2619 2869 
L 1863 0 
L 1184 0 
L 269 3500 
z
" transform="scale(0.015625)"/>
       <path id="DejaVuSans-73" d="M 2834 3397 
L 2834 2853 
Q 2591 2978 2328 3040 
Q 2066 3103 1784 3103 
Q 1356 3103 1142 2972 
Q 928 2841 928 2578 
Q 928 2378 1081 2264 
Q 1234 2150 1697 2047 
L 1894 2003 
Q 2506 1872 2764 1633 
Q 3022 1394 3022 966 
Q 3022 478 2636 193 
Q 2250 -91 1575 -91 
Q 1294 -91 989 -36 
Q 684 19 347 128 
L 347 722 
Q 666 556 975 473 
Q 1284 391 1588 391 
Q 1994 391 2212 530 
Q 2431 669 2431 922 
Q 2431 1156 2273 1281 
Q 2116 1406 1581 1522 
L 1381 1569 
Q 847 1681 609 1914 
Q 372 2147 372 2553 
Q 372 3047 722 3315 
Q 1072 3584 1716 3584 
Q 2034 3584 2315 3537 
Q 2597 3491 2834 3397 
z
" transform="scale(0.015625)"/>
      </defs>
      <use xlink:href="#DejaVuSans-4d"/>
      <use xlink:href="#DejaVuSans-65" x="86.279297"/>
      <use xlink:href="#DejaVuSans-61" x="147.802734"/>
      <use xlink:href="#DejaVuSans-6e" x="209.082031"/>
      <use xlink:href="#DejaVuSans-20" x="272.460938"/>
      <use xlink:href="#DejaVuSans-72" x="304.248047"/>
      <use xlink:href="#DejaVuSans-65" x="343.111328"/>
      <use xlink:href="#DejaVuSans-77" x="404.634766"/>
      <use xlink:href="#DejaVuSans-61" x="486.421875"/>
      <use xlink:href="#DejaVuSans-72" x="547.701172"/>
      <use xlink:href="#DejaVuSans-64" x="587.064453"/>
      <use xlink:href="#DejaVuSans-73" x="650.541016"/>
     </g>
    </g>
   </g>
   <g id="line2d_18">
    <path d="M 128.1 299.437475 
L 128.1 100.522525 
" clip-path="url(#p7ead54e115)" style="fill: none; stroke: #3d3d3d; stroke-width: 1.5; stroke-linecap: square"/>
   </g>
   <g id="line2d_19">
    <path d="M 128.1 299.437475 
L 128.1 125.742513 
" clip-path="url(#p7ead54e115)" style="fill: none; stroke: #3d3d3d; stroke-width: 4.5; stroke-linecap: square"/>
   </g>
   <g id="line2d_20">
    <path d="M 258.3 299.437475 
L 258.3 102.567485 
" clip-path="url(#p7ead54e115)" style="fill: none; stroke: #3d3d3d; stroke-width: 1.5; stroke-linecap: square"/>
   </g>
   <g id="line2d_21">
    <path d="M 258.3 299.437475 
L 258.3 184.733925 
" clip-path="url(#p7ead54e115)" style="fill: none; stroke: #3d3d3d; stroke-width: 4.5; stroke-linecap: square"/>
   </g>
   <g id="line2d_22">
    <path d="M 388.5 299.437475 
L 388.5 288.762974 
" clip-path="url(#p7ead54e115)" style="fill: none; stroke: #3d3d3d; stroke-width: 1.5; stroke-linecap: square"/>
   </g>
   <g id="line2d_23">
    <path d="M 388.5 299.437475 
L 388.5 294.878919 
" clip-path="url(#p7ead54e115)" style="fill: none; stroke: #3d3d3d; stroke-width: 4.5; stroke-linecap: square"/>
   </g>
   <g id="patch_3">
    <path d="M 63 352.44 
L 63 47.52 
" style="fill: none; stroke: #000000; stroke-width: 0.8; stroke-linejoin: miter; stroke-linecap: square"/>
   </g>
   <g id="patch_4">
    <path d="M 453.6 352.44 
L 453.6 47.52 
" style="fill: none; stroke: #000000; stroke-width: 0.8; stroke-linejoin: miter; stroke-linecap: square"/>
   </g>
   <g id="patch_5">
    <path d="M 63 352.44 
L 453.6 352.44 
" style="fill: none; stroke: #000000; stroke-width: 0.8; stroke-linejoin: miter; stroke-linecap: square"/>
   </g>
   <g id="patch_6">
    <path d="M 63 47.52 
L 453.6 47.52 
" style="fill: none; stroke: #000000; stroke-width: 0.8; stroke-linejoin: miter; stroke-linecap: square"/>
   </g>
   <g id="PathCollection_1">
    <defs>
     <path id="m7a1857e02c" d="M 0 1.5 
C 0.397805 1.5 0.77937 1.341951 1.06066 1.06066 
C 1.341951 0.77937 1.5 0.397805 1.5 0 
C 1.5 -0.397805 1.341951 -0.77937 1.06066 -1.06066 
C 0.77937 -1.341951 0.397805 -1.5 0 -1.5 
C -0.397805 -1.5 -0.77937 -1.341951 -1.06066 -1.06066 
C -1.341951 -0.77937 -1.5 -0.397805 -1.5 0 
C -1.5 0.397805 -1.341951 0.77937 -1.06066 1.06066 
C -0.77937 1.341951 -0.397805 1.5 0 1.5 
z
" style="stroke: #3d3d3d"/>
    </defs>
    <g clip-path="url(#p7ead54e115)">
     <use xlink:href="#m7a1857e02c" x="128.1" y="161.452388" style="fill: #ffffff; stroke: #3d3d3d"/>
    </g>
   </g>
   <g id="PathCollection_2">
    <g clip-path="url(#p7ead54e115)">
     <use xlink:href="#m7a1857e02c" x="258.3" y="298.26115" style="fill: #ffffff; stroke: #3d3d3d"/>
    </g>
   </g>
   <g id="PathCollection_3">
    <g clip-path="url(#p7ead54e115)">
     <use xlink:href="#m7a1857e02c" x="388.5" y="299.437475" style="fill: #ffffff; stroke: #3d3d3d"/>
    </g>
   </g>
   <g id="text_13">
    <!-- Acrobot - Actor-Critics -->
    <g transform="translate(192.850313 41.52) scale(0.12 -0.12)">
     <defs>
      <path id="DejaVuSans-63" d="M 3122 3366 
L 3122 2828 
Q 2878 2963 2633 3030 
Q 2388 3097 2138 3097 
Q 1578 3097 1268 2742 
Q 959 2388 959 1747 
Q 959 1106 1268 751 
Q 1578 397 2138 397 
Q 2388 397 2633 464 
Q 2878 531 3122 666 
L 3122 134 
Q 2881 22 2623 -34 
Q 2366 -91 2075 -91 
Q 1284 -91 818 406 
Q 353 903 353 1747 
Q 353 2603 823 3093 
Q 1294 3584 2113 3584 
Q 2378 3584 2631 3529 
Q 2884 3475 3122 3366 
z
" transform="scale(0.015625)"/>
      <path id="DejaVuSans-2d" d="M 313 2009 
L 1997 2009 
L 1997 1497 
L 313 1497 
L 313 2009 
z
" transform="scale(0.015625)"/>
     </defs>
     <use xlink:href="#DejaVuSans-41"/>
     <use xlink:href="#DejaVuSans-63" x="66.658203"/>
     <use xlink:href="#DejaVuSans-72" x="121.638672"/>
     <use xlink:href="#DejaVuSans-6f" x="160.501953"/>
     <use xlink:href="#DejaVuSans-62" x="221.683594"/>
     <use xlink:href="#DejaVuSans-6f" x="285.160156"/>
     <use xlink:href="#DejaVuSans-74" x="346.341797"/>
     <use xlink:href="#DejaVuSans-20" x="385.550781"/>
     <use xlink:href="#DejaVuSans-2d" x="417.337891"/>
     <use xlink:href="#DejaVuSans-20" x="453.421875"/>
     <use xlink:href="#DejaVuSans-41" x="485.208984"/>
     <use xlink:href="#DejaVuSans-63" x="551.867188"/>
     <use xlink:href="#DejaVuSans-74" x="606.847656"/>
     <use xlink:href="#DejaVuSans-6f" x="646.056641"/>
     <use xlink:href="#DejaVuSans-72" x="707.238281"/>
     <use xlink:href="#DejaVuSans-2d" x="741.976562"/>
     <use xlink:href="#DejaVuSans-43" x="778.060547"/>
     <use xlink:href="#DejaVuSans-72" x="847.884766"/>
     <use xlink:href="#DejaVuSans-69" x="888.998047"/>
     <use xlink:href="#DejaVuSans-74" x="916.78125"/>
     <use xlink:href="#DejaVuSans-69" x="955.990234"/>
     <use xlink:href="#DejaVuSans-63" x="983.773438"/>
     <use xlink:href="#DejaVuSans-73" x="1038.753906"/>
    </g>
   </g>
  </g>
 </g>
 <defs>
  <clipPath id="p7ead54e115">
   <rect x="63" y="47.52" width="390.6" height="304.92"/>
  </clipPath>
 </defs>
</svg>
