<?xml version="1.0" encoding="utf-8" standalone="no"?>
<!DOCTYPE svg PUBLIC "-//W3C//DTD SVG 1.1//EN"
  "http://www.w3.org/Graphics/SVG/1.1/DTD/svg11.dtd">
<svg xmlns:xlink="http://www.w3.org/1999/xlink" width="504pt" height="396pt" viewBox="0 0 504 396" xmlns="http://www.w3.org/2000/svg" version="1.1">
 <metadata>
  <rdf:RDF xmlns:dc="http://purl.org/dc/elements/1.1/" xmlns:cc="http://creativecommons.org/ns#" xmlns:rdf="http://www.w3.org/1999/02/22-rdf-syntax-ns#">
   <cc:Work>
    <dc:type rdf:resource="http://purl.org/dc/dcmitype/StillImage"/>
    <dc:date>2024-05-10T14:31:11.855147</dc:date>
    <dc:format>image/svg+xml</dc:format>
    <dc:creator>
     <cc:Agent>
      <dc:title>Matplotlib v3.8.2, https://matplotlib.org/</dc:title>
     </cc:Agent>
    </dc:creator>
   </cc:Work>
  </rdf:RDF>
 </metadata>
 <defs>
  <style type="text/css">*{stroke-linejoin: round; stroke-linecap: butt}</style>
 </defs>
 <g id="figure_1">
  <g id="patch_1">
   <path d="M 0 396 
L 504 396 
L 504 0 
L 0 0 
z
" style="fill: #ffffff"/>
  </g>
  <g id="axes_1">
   <g id="patch_2">
    <path d="M 63 352.44 
L 453.6 352.44 
L 453.6 47.52 
L 63 47.52 
z
" style="fill: #ffffff"/>
   </g>
   <g id="PolyCollection_1">
    <defs>
     <path id="m23627735a1" d="M 128.360659 -57.42 
L 127.839341 -57.42 
L 127.760354 -60.22 
L 127.665666 -63.02 
L 127.554914 -65.82 
L 127.428647 -68.62 
L 127.288515 -71.42 
L 127.137383 -74.22 
L 126.979348 -77.02 
L 126.81964 -79.82 
L 126.664387 -82.62 
L 126.520256 -85.42 
L 126.393996 -88.22 
L 126.29192 -91.02 
L 126.219386 -93.82 
L 126.180332 -96.62 
L 126.176918 -99.42 
L 126.209331 -102.22 
L 126.275767 -105.02 
L 126.372594 -107.82 
L 126.494681 -110.62 
L 126.635846 -113.42 
L 126.789368 -116.22 
L 126.948513 -119.02 
L 127.107003 -121.82 
L 127.259396 -124.62 
L 127.401347 -127.42 
L 127.529733 -130.22 
L 127.642661 -133.02 
L 127.739367 -135.82 
L 127.820044 -138.62 
L 127.885627 -141.42 
L 127.937567 -144.22 
L 127.977617 -147.02 
L 128.007642 -149.82 
L 128.02948 -152.62 
L 128.044837 -155.42 
L 128.05522 -158.22 
L 128.061906 -161.02 
L 128.065936 -163.82 
L 128.06813 -166.62 
L 128.0691 -169.42 
L 128.069287 -172.22 
L 128.068983 -175.02 
L 128.068365 -177.82 
L 128.067516 -180.62 
L 128.066459 -183.42 
L 128.065168 -186.22 
L 128.063596 -189.02 
L 128.061682 -191.82 
L 128.059366 -194.62 
L 128.056587 -197.42 
L 128.053281 -200.22 
L 128.049365 -203.02 
L 128.044711 -205.82 
L 128.039107 -208.62 
L 128.032196 -211.42 
L 128.023404 -214.22 
L 128.011834 -217.02 
L 127.99615 -219.82 
L 127.974437 -222.62 
L 127.944039 -225.42 
L 127.90141 -228.22 
L 127.841967 -231.02 
L 127.76 -233.82 
L 127.648649 -236.62 
L 127.500011 -239.42 
L 127.305386 -242.22 
L 127.055732 -245.02 
L 126.74231 -247.82 
L 126.357538 -250.62 
L 125.896011 -253.42 
L 125.355601 -256.22 
L 124.738544 -259.02 
L 124.052359 -261.82 
L 123.310458 -264.62 
L 122.532286 -267.42 
L 121.7429 -270.22 
L 120.971902 -273.02 
L 120.251772 -275.82 
L 119.615697 -278.62 
L 119.095084 -281.42 
L 118.717017 -284.22 
L 118.501939 -287.02 
L 118.461832 -289.82 
L 118.599126 -292.62 
L 118.906468 -295.42 
L 119.367388 -298.22 
L 119.957774 -301.02 
L 120.64797 -303.82 
L 121.405248 -306.62 
L 122.196368 -309.42 
L 122.989941 -312.22 
L 123.75838 -315.02 
L 124.479284 -317.82 
L 125.13618 -320.62 
L 125.718656 -323.42 
L 126.221966 -326.22 
L 126.646235 -329.02 
L 126.99543 -331.82 
L 127.276243 -334.62 
L 128.923757 -334.62 
L 128.923757 -334.62 
L 129.20457 -331.82 
L 129.553765 -329.02 
L 129.978034 -326.22 
L 130.481344 -323.42 
L 131.06382 -320.62 
L 131.720716 -317.82 
L 132.44162 -315.02 
L 133.210059 -312.22 
L 134.003632 -309.42 
L 134.794752 -306.62 
L 135.55203 -303.82 
L 136.242226 -301.02 
L 136.832612 -298.22 
L 137.293532 -295.42 
L 137.600874 -292.62 
L 137.738168 -289.82 
L 137.698061 -287.02 
L 137.482983 -284.22 
L 137.104916 -281.42 
L 136.584303 -278.62 
L 135.948228 -275.82 
L 135.228098 -273.02 
L 134.4571 -270.22 
L 133.667714 -267.42 
L 132.889542 -264.62 
L 132.147641 -261.82 
L 131.461456 -259.02 
L 130.844399 -256.22 
L 130.303989 -253.42 
L 129.842462 -250.62 
L 129.45769 -247.82 
L 129.144268 -245.02 
L 128.894614 -242.22 
L 128.699989 -239.42 
L 128.551351 -236.62 
L 128.44 -233.82 
L 128.358033 -231.02 
L 128.29859 -228.22 
L 128.255961 -225.42 
L 128.225563 -222.62 
L 128.20385 -219.82 
L 128.188166 -217.02 
L 128.176596 -214.22 
L 128.167804 -211.42 
L 128.160893 -208.62 
L 128.155289 -205.82 
L 128.150635 -203.02 
L 128.146719 -200.22 
L 128.143413 -197.42 
L 128.140634 -194.62 
L 128.138318 -191.82 
L 128.136404 -189.02 
L 128.134832 -186.22 
L 128.133541 -183.42 
L 128.132484 -180.62 
L 128.131635 -177.82 
L 128.131017 -175.02 
L 128.130713 -172.22 
L 128.1309 -169.42 
L 128.13187 -166.62 
L 128.134064 -163.82 
L 128.138094 -161.02 
L 128.14478 -158.22 
L 128.155163 -155.42 
L 128.17052 -152.62 
L 128.192358 -149.82 
L 128.222383 -147.02 
L 128.262433 -144.22 
L 128.314373 -141.42 
L 128.379956 -138.62 
L 128.460633 -135.82 
L 128.557339 -133.02 
L 128.670267 -130.22 
L 128.798653 -127.42 
L 128.940604 -124.62 
L 129.092997 -121.82 
L 129.251487 -119.02 
L 129.410632 -116.22 
L 129.564154 -113.42 
L 129.705319 -110.62 
L 129.827406 -107.82 
L 129.924233 -105.02 
L 129.990669 -102.22 
L 130.023082 -99.42 
L 130.019668 -96.62 
L 129.980614 -93.82 
L 129.90808 -91.02 
L 129.806004 -88.22 
L 129.679744 -85.42 
L 129.535613 -82.62 
L 129.38036 -79.82 
L 129.220652 -77.02 
L 129.062617 -74.22 
L 128.911485 -71.42 
L 128.771353 -68.62 
L 128.645086 -65.82 
L 128.534334 -63.02 
L 128.439646 -60.22 
L 128.360659 -57.42 
z
" style="stroke: #3d3d3d; stroke-width: 1.5"/>
    </defs>
    <g clip-path="url(#p26b9b5e54a)">
     <use xlink:href="#m23627735a1" x="0" y="396" style="fill: #3274a1; stroke: #3d3d3d; stroke-width: 1.5"/>
    </g>
   </g>
   <g id="PolyCollection_2">
    <defs>
     <path id="m53ee00738a" d="M 258.347356 -90.054871 
L 258.252644 -90.054871 
L 258.181809 -92.221766 
L 258.076467 -94.388661 
L 257.979635 -96.555556 
L 257.952069 -98.722451 
L 258.013656 -100.889346 
L 258.121422 -103.056241 
L 258.215606 -105.223136 
L 258.269777 -107.390031 
L 258.291798 -109.556926 
L 258.298313 -111.723821 
L 258.299737 -113.890716 
L 258.299969 -116.057611 
L 258.299997 -118.224506 
L 258.3 -120.391401 
L 258.3 -122.558296 
L 258.3 -124.725191 
L 258.3 -126.892086 
L 258.3 -129.058981 
L 258.3 -131.225876 
L 258.3 -133.392771 
L 258.3 -135.559666 
L 258.299999 -137.726561 
L 258.299988 -139.893456 
L 258.299909 -142.060351 
L 258.299474 -144.227246 
L 258.297694 -146.394141 
L 258.292345 -148.561036 
L 258.28074 -150.727931 
L 258.263281 -152.894826 
L 258.246952 -155.061721 
L 258.241924 -157.228616 
L 258.25182 -159.395511 
L 258.269711 -161.562406 
L 258.285571 -163.729301 
L 258.294791 -165.896196 
L 258.298575 -168.063091 
L 258.299705 -170.229986 
L 258.299954 -172.396881 
L 258.299994 -174.563776 
L 258.3 -176.730671 
L 258.3 -178.897566 
L 258.3 -181.064461 
L 258.3 -183.231356 
L 258.3 -185.398251 
L 258.3 -187.565146 
L 258.3 -189.732041 
L 258.299999 -191.898936 
L 258.299987 -194.065831 
L 258.299892 -196.232726 
L 258.299324 -198.399621 
L 258.296768 -200.566516 
L 258.288151 -202.733411 
L 258.26661 -204.900306 
L 258.227442 -207.067202 
L 258.177993 -209.234097 
L 258.140682 -211.400992 
L 258.137927 -213.567887 
L 258.171264 -215.734782 
L 258.220086 -217.901677 
L 258.261257 -220.068572 
L 258.285362 -222.235467 
L 258.295704 -224.402362 
L 258.299024 -226.569257 
L 258.299829 -228.736152 
L 258.299977 -230.903047 
L 258.299998 -233.069942 
L 258.3 -235.236837 
L 258.3 -237.403732 
L 258.3 -239.570627 
L 258.3 -241.737522 
L 258.3 -243.904417 
L 258.3 -246.071312 
L 258.3 -248.238207 
L 258.3 -250.405102 
L 258.299997 -252.571997 
L 258.29997 -254.738892 
L 258.299796 -256.905787 
L 258.298955 -259.072682 
L 258.295932 -261.239577 
L 258.287921 -263.406472 
L 258.272407 -265.573367 
L 258.250417 -267.740262 
L 258.226458 -269.907157 
L 258.201587 -272.074052 
L 258.164213 -274.240947 
L 258.069175 -276.407842 
L 257.752662 -278.574737 
L 256.723866 -280.741632 
L 253.893453 -282.908527 
L 247.604743 -285.075422 
L 236.639399 -287.242317 
L 222.331994 -289.409212 
L 209.936225 -291.576107 
L 206.22 -293.743002 
L 213.83421 -295.909897 
L 228.458294 -298.076792 
L 242.670523 -300.243687 
L 251.948313 -302.410582 
L 256.306101 -304.577477 
L 260.293899 -304.577477 
L 260.293899 -304.577477 
L 264.651687 -302.410582 
L 273.929477 -300.243687 
L 288.141706 -298.076792 
L 302.76579 -295.909897 
L 310.38 -293.743002 
L 306.663775 -291.576107 
L 294.268006 -289.409212 
L 279.960601 -287.242317 
L 268.995257 -285.075422 
L 262.706547 -282.908527 
L 259.876134 -280.741632 
L 258.847338 -278.574737 
L 258.530825 -276.407842 
L 258.435787 -274.240947 
L 258.398413 -272.074052 
L 258.373542 -269.907157 
L 258.349583 -267.740262 
L 258.327593 -265.573367 
L 258.312079 -263.406472 
L 258.304068 -261.239577 
L 258.301045 -259.072682 
L 258.300204 -256.905787 
L 258.30003 -254.738892 
L 258.300003 -252.571997 
L 258.3 -250.405102 
L 258.3 -248.238207 
L 258.3 -246.071312 
L 258.3 -243.904417 
L 258.3 -241.737522 
L 258.3 -239.570627 
L 258.3 -237.403732 
L 258.3 -235.236837 
L 258.300002 -233.069942 
L 258.300023 -230.903047 
L 258.300171 -228.736152 
L 258.300976 -226.569257 
L 258.304296 -224.402362 
L 258.314638 -222.235467 
L 258.338743 -220.068572 
L 258.379914 -217.901677 
L 258.428736 -215.734782 
L 258.462073 -213.567887 
L 258.459318 -211.400992 
L 258.422007 -209.234097 
L 258.372558 -207.067202 
L 258.33339 -204.900306 
L 258.311849 -202.733411 
L 258.303232 -200.566516 
L 258.300676 -198.399621 
L 258.300108 -196.232726 
L 258.300013 -194.065831 
L 258.300001 -191.898936 
L 258.3 -189.732041 
L 258.3 -187.565146 
L 258.3 -185.398251 
L 258.3 -183.231356 
L 258.3 -181.064461 
L 258.3 -178.897566 
L 258.3 -176.730671 
L 258.300006 -174.563776 
L 258.300046 -172.396881 
L 258.300295 -170.229986 
L 258.301425 -168.063091 
L 258.305209 -165.896196 
L 258.314429 -163.729301 
L 258.330289 -161.562406 
L 258.34818 -159.395511 
L 258.358076 -157.228616 
L 258.353048 -155.061721 
L 258.336719 -152.894826 
L 258.31926 -150.727931 
L 258.307655 -148.561036 
L 258.302306 -146.394141 
L 258.300526 -144.227246 
L 258.300091 -142.060351 
L 258.300012 -139.893456 
L 258.300001 -137.726561 
L 258.3 -135.559666 
L 258.3 -133.392771 
L 258.3 -131.225876 
L 258.3 -129.058981 
L 258.3 -126.892086 
L 258.3 -124.725191 
L 258.3 -122.558296 
L 258.3 -120.391401 
L 258.300003 -118.224506 
L 258.300031 -116.057611 
L 258.300263 -113.890716 
L 258.301687 -111.723821 
L 258.308202 -109.556926 
L 258.330223 -107.390031 
L 258.384394 -105.223136 
L 258.478578 -103.056241 
L 258.586344 -100.889346 
L 258.647931 -98.722451 
L 258.620365 -96.555556 
L 258.523533 -94.388661 
L 258.418191 -92.221766 
L 258.347356 -90.054871 
z
" style="stroke: #3d3d3d; stroke-width: 1.5"/>
    </defs>
    <g clip-path="url(#p26b9b5e54a)">
     <use xlink:href="#m53ee00738a" x="0" y="396" style="fill: #e1812c; stroke: #3d3d3d; stroke-width: 1.5"/>
    </g>
   </g>
   <g id="PolyCollection_3">
    <defs>
     <path id="mec491766dd" d="M 391.472158 -80.622864 
L 385.527842 -80.622864 
L 383.671936 -82.896558 
L 381.157262 -85.170252 
L 378.044012 -87.443946 
L 374.557355 -89.71764 
L 371.087234 -91.991334 
L 368.128175 -94.265028 
L 366.165779 -96.538722 
L 365.544057 -98.812415 
L 366.36331 -101.086109 
L 368.450452 -103.359803 
L 371.414136 -105.633497 
L 374.760998 -107.907191 
L 378.026036 -110.180885 
L 380.870697 -112.454579 
L 383.12323 -114.728273 
L 384.763448 -117.001966 
L 385.873508 -119.27566 
L 386.581296 -121.549354 
L 387.015723 -123.823048 
L 387.281548 -126.096742 
L 387.451696 -128.370436 
L 387.570654 -130.64413 
L 387.662386 -132.917824 
L 387.738412 -135.191517 
L 387.803982 -137.465211 
L 387.8619 -139.738905 
L 387.91435 -142.012599 
L 387.963355 -144.286293 
L 388.010499 -146.559987 
L 388.056458 -148.833681 
L 388.100688 -151.107375 
L 388.141437 -153.381069 
L 388.176096 -155.654762 
L 388.20178 -157.928456 
L 388.21601 -160.20215 
L 388.217363 -162.475844 
L 388.205953 -164.749538 
L 388.18361 -167.023232 
L 388.153698 -169.296926 
L 388.120549 -171.57062 
L 388.088676 -173.844313 
L 388.061936 -176.118007 
L 388.042894 -178.391701 
L 388.032507 -180.665395 
L 388.030173 -182.939089 
L 388.034063 -185.212783 
L 388.041621 -187.486477 
L 388.050115 -189.760171 
L 388.057136 -192.033865 
L 388.060983 -194.307558 
L 388.060887 -196.581252 
L 388.057071 -198.854946 
L 388.050667 -201.12864 
L 388.043499 -203.402334 
L 388.03775 -205.676028 
L 388.035509 -207.949722 
L 388.038244 -210.223416 
L 388.046309 -212.497109 
L 388.058677 -214.770803 
L 388.073034 -217.044497 
L 388.086295 -219.318191 
L 388.095401 -221.591885 
L 388.098135 -223.865579 
L 388.093682 -226.139273 
L 388.082757 -228.412967 
L 388.067319 -230.686661 
L 388.050013 -232.960354 
L 388.03356 -235.234048 
L 388.02022 -237.507742 
L 388.011417 -239.781436 
L 388.007526 -242.05513 
L 388.007877 -244.328824 
L 388.011002 -246.602518 
L 388.015153 -248.876212 
L 388.018977 -251.149905 
L 388.022144 -253.423599 
L 388.025661 -255.697293 
L 388.031696 -257.970987 
L 388.04293 -260.244681 
L 388.061658 -262.518375 
L 388.08898 -264.792069 
L 388.124392 -267.065763 
L 388.165894 -269.339457 
L 388.210541 -271.61315 
L 388.255188 -273.886844 
L 388.297159 -276.160538 
L 388.334645 -278.434232 
L 388.36681 -280.707926 
L 388.393634 -282.98162 
L 388.415644 -285.255314 
L 388.433621 -287.529008 
L 388.44836 -289.802701 
L 388.460513 -292.076395 
L 388.470536 -294.350089 
L 388.478708 -296.623783 
L 388.485205 -298.897477 
L 388.490175 -301.171171 
L 388.493797 -303.444865 
L 388.496292 -305.718559 
L 388.503708 -305.718559 
L 388.503708 -305.718559 
L 388.506203 -303.444865 
L 388.509825 -301.171171 
L 388.514795 -298.897477 
L 388.521292 -296.623783 
L 388.529464 -294.350089 
L 388.539487 -292.076395 
L 388.55164 -289.802701 
L 388.566379 -287.529008 
L 388.584356 -285.255314 
L 388.606366 -282.98162 
L 388.63319 -280.707926 
L 388.665355 -278.434232 
L 388.702841 -276.160538 
L 388.744812 -273.886844 
L 388.789459 -271.61315 
L 388.834106 -269.339457 
L 388.875608 -267.065763 
L 388.91102 -264.792069 
L 388.938342 -262.518375 
L 388.95707 -260.244681 
L 388.968304 -257.970987 
L 388.974339 -255.697293 
L 388.977856 -253.423599 
L 388.981023 -251.149905 
L 388.984847 -248.876212 
L 388.988998 -246.602518 
L 388.992123 -244.328824 
L 388.992474 -242.05513 
L 388.988583 -239.781436 
L 388.97978 -237.507742 
L 388.96644 -235.234048 
L 388.949987 -232.960354 
L 388.932681 -230.686661 
L 388.917243 -228.412967 
L 388.906318 -226.139273 
L 388.901865 -223.865579 
L 388.904599 -221.591885 
L 388.913705 -219.318191 
L 388.926966 -217.044497 
L 388.941323 -214.770803 
L 388.953691 -212.497109 
L 388.961756 -210.223416 
L 388.964491 -207.949722 
L 388.96225 -205.676028 
L 388.956501 -203.402334 
L 388.949333 -201.12864 
L 388.942929 -198.854946 
L 388.939113 -196.581252 
L 388.939017 -194.307558 
L 388.942864 -192.033865 
L 388.949885 -189.760171 
L 388.958379 -187.486477 
L 388.965937 -185.212783 
L 388.969827 -182.939089 
L 388.967493 -180.665395 
L 388.957106 -178.391701 
L 388.938064 -176.118007 
L 388.911324 -173.844313 
L 388.879451 -171.57062 
L 388.846302 -169.296926 
L 388.81639 -167.023232 
L 388.794047 -164.749538 
L 388.782637 -162.475844 
L 388.78399 -160.20215 
L 388.79822 -157.928456 
L 388.823904 -155.654762 
L 388.858563 -153.381069 
L 388.899312 -151.107375 
L 388.943542 -148.833681 
L 388.989501 -146.559987 
L 389.036645 -144.286293 
L 389.08565 -142.012599 
L 389.1381 -139.738905 
L 389.196018 -137.465211 
L 389.261588 -135.191517 
L 389.337614 -132.917824 
L 389.429346 -130.64413 
L 389.548304 -128.370436 
L 389.718452 -126.096742 
L 389.984277 -123.823048 
L 390.418704 -121.549354 
L 391.126492 -119.27566 
L 392.236552 -117.001966 
L 393.87677 -114.728273 
L 396.129303 -112.454579 
L 398.973964 -110.180885 
L 402.239002 -107.907191 
L 405.585864 -105.633497 
L 408.549548 -103.359803 
L 410.63669 -101.086109 
L 411.455943 -98.812415 
L 410.834221 -96.538722 
L 408.871825 -94.265028 
L 405.912766 -91.991334 
L 402.442645 -89.71764 
L 398.955988 -87.443946 
L 395.842738 -85.170252 
L 393.328064 -82.896558 
L 391.472158 -80.622864 
z
" style="stroke: #3d3d3d; stroke-width: 1.5"/>
    </defs>
    <g clip-path="url(#p26b9b5e54a)">
     <use xlink:href="#mec491766dd" x="0" y="396" style="fill: #3a923a; stroke: #3d3d3d; stroke-width: 1.5"/>
    </g>
   </g>
   <g id="matplotlib.axis_1">
    <g id="xtick_1">
     <g id="line2d_1">
      <defs>
       <path id="m86febdf456" d="M 0 0 
L 0 3.5 
" style="stroke: #000000; stroke-width: 0.8"/>
      </defs>
      <g>
       <use xlink:href="#m86febdf456" x="128.1" y="352.44" style="stroke: #000000; stroke-width: 0.8"/>
      </g>
     </g>
     <g id="text_1">
      <!-- n-step DQN -->
      <g transform="translate(99.196094 367.038437) scale(0.1 -0.1)">
       <defs>
        <path id="DejaVuSans-6e" d="M 3513 2113 
L 3513 0 
L 2938 0 
L 2938 2094 
Q 2938 2591 2744 2837 
Q 2550 3084 2163 3084 
Q 1697 3084 1428 2787 
Q 1159 2491 1159 1978 
L 1159 0 
L 581 0 
L 581 3500 
L 1159 3500 
L 1159 2956 
Q 1366 3272 1645 3428 
Q 1925 3584 2291 3584 
Q 2894 3584 3203 3211 
Q 3513 2838 3513 2113 
z
" transform="scale(0.015625)"/>
        <path id="DejaVuSans-2d" d="M 313 2009 
L 1997 2009 
L 1997 1497 
L 313 1497 
L 313 2009 
z
" transform="scale(0.015625)"/>
        <path id="DejaVuSans-73" d="M 2834 3397 
L 2834 2853 
Q 2591 2978 2328 3040 
Q 2066 3103 1784 3103 
Q 1356 3103 1142 2972 
Q 928 2841 928 2578 
Q 928 2378 1081 2264 
Q 1234 2150 1697 2047 
L 1894 2003 
Q 2506 1872 2764 1633 
Q 3022 1394 3022 966 
Q 3022 478 2636 193 
Q 2250 -91 1575 -91 
Q 1294 -91 989 -36 
Q 684 19 347 128 
L 347 722 
Q 666 556 975 473 
Q 1284 391 1588 391 
Q 1994 391 2212 530 
Q 2431 669 2431 922 
Q 2431 1156 2273 1281 
Q 2116 1406 1581 1522 
L 1381 1569 
Q 847 1681 609 1914 
Q 372 2147 372 2553 
Q 372 3047 722 3315 
Q 1072 3584 1716 3584 
Q 2034 3584 2315 3537 
Q 2597 3491 2834 3397 
z
" transform="scale(0.015625)"/>
        <path id="DejaVuSans-74" d="M 1172 4494 
L 1172 3500 
L 2356 3500 
L 2356 3053 
L 1172 3053 
L 1172 1153 
Q 1172 725 1289 603 
Q 1406 481 1766 481 
L 2356 481 
L 2356 0 
L 1766 0 
Q 1100 0 847 248 
Q 594 497 594 1153 
L 594 3053 
L 172 3053 
L 172 3500 
L 594 3500 
L 594 4494 
L 1172 4494 
z
" transform="scale(0.015625)"/>
        <path id="DejaVuSans-65" d="M 3597 1894 
L 3597 1613 
L 953 1613 
Q 991 1019 1311 708 
Q 1631 397 2203 397 
Q 2534 397 2845 478 
Q 3156 559 3463 722 
L 3463 178 
Q 3153 47 2828 -22 
Q 2503 -91 2169 -91 
Q 1331 -91 842 396 
Q 353 884 353 1716 
Q 353 2575 817 3079 
Q 1281 3584 2069 3584 
Q 2775 3584 3186 3129 
Q 3597 2675 3597 1894 
z
M 3022 2063 
Q 3016 2534 2758 2815 
Q 2500 3097 2075 3097 
Q 1594 3097 1305 2825 
Q 1016 2553 972 2059 
L 3022 2063 
z
" transform="scale(0.015625)"/>
        <path id="DejaVuSans-70" d="M 1159 525 
L 1159 -1331 
L 581 -1331 
L 581 3500 
L 1159 3500 
L 1159 2969 
Q 1341 3281 1617 3432 
Q 1894 3584 2278 3584 
Q 2916 3584 3314 3078 
Q 3713 2572 3713 1747 
Q 3713 922 3314 415 
Q 2916 -91 2278 -91 
Q 1894 -91 1617 61 
Q 1341 213 1159 525 
z
M 3116 1747 
Q 3116 2381 2855 2742 
Q 2594 3103 2138 3103 
Q 1681 3103 1420 2742 
Q 1159 2381 1159 1747 
Q 1159 1113 1420 752 
Q 1681 391 2138 391 
Q 2594 391 2855 752 
Q 3116 1113 3116 1747 
z
" transform="scale(0.015625)"/>
        <path id="DejaVuSans-20" transform="scale(0.015625)"/>
        <path id="DejaVuSans-44" d="M 1259 4147 
L 1259 519 
L 2022 519 
Q 2988 519 3436 956 
Q 3884 1394 3884 2338 
Q 3884 3275 3436 3711 
Q 2988 4147 2022 4147 
L 1259 4147 
z
M 628 4666 
L 1925 4666 
Q 3281 4666 3915 4102 
Q 4550 3538 4550 2338 
Q 4550 1131 3912 565 
Q 3275 0 1925 0 
L 628 0 
L 628 4666 
z
" transform="scale(0.015625)"/>
        <path id="DejaVuSans-51" d="M 2522 4238 
Q 1834 4238 1429 3725 
Q 1025 3213 1025 2328 
Q 1025 1447 1429 934 
Q 1834 422 2522 422 
Q 3209 422 3611 934 
Q 4013 1447 4013 2328 
Q 4013 3213 3611 3725 
Q 3209 4238 2522 4238 
z
M 3406 84 
L 4238 -825 
L 3475 -825 
L 2784 -78 
Q 2681 -84 2626 -87 
Q 2572 -91 2522 -91 
Q 1538 -91 948 567 
Q 359 1225 359 2328 
Q 359 3434 948 4092 
Q 1538 4750 2522 4750 
Q 3503 4750 4090 4092 
Q 4678 3434 4678 2328 
Q 4678 1516 4351 937 
Q 4025 359 3406 84 
z
" transform="scale(0.015625)"/>
        <path id="DejaVuSans-4e" d="M 628 4666 
L 1478 4666 
L 3547 763 
L 3547 4666 
L 4159 4666 
L 4159 0 
L 3309 0 
L 1241 3903 
L 1241 0 
L 628 0 
L 628 4666 
z
" transform="scale(0.015625)"/>
       </defs>
       <use xlink:href="#DejaVuSans-6e"/>
       <use xlink:href="#DejaVuSans-2d" x="63.378906"/>
       <use xlink:href="#DejaVuSans-73" x="99.462891"/>
       <use xlink:href="#DejaVuSans-74" x="151.5625"/>
       <use xlink:href="#DejaVuSans-65" x="190.771484"/>
       <use xlink:href="#DejaVuSans-70" x="252.294922"/>
       <use xlink:href="#DejaVuSans-20" x="315.771484"/>
       <use xlink:href="#DejaVuSans-44" x="347.558594"/>
       <use xlink:href="#DejaVuSans-51" x="424.560547"/>
       <use xlink:href="#DejaVuSans-4e" x="503.271484"/>
      </g>
     </g>
    </g>
    <g id="xtick_2">
     <g id="line2d_2">
      <g>
       <use xlink:href="#m86febdf456" x="258.3" y="352.44" style="stroke: #000000; stroke-width: 0.8"/>
      </g>
     </g>
     <g id="text_2">
      <!-- PPO -->
      <g transform="translate(248.334375 367.038437) scale(0.1 -0.1)">
       <defs>
        <path id="DejaVuSans-50" d="M 1259 4147 
L 1259 2394 
L 2053 2394 
Q 2494 2394 2734 2622 
Q 2975 2850 2975 3272 
Q 2975 3691 2734 3919 
Q 2494 4147 2053 4147 
L 1259 4147 
z
M 628 4666 
L 2053 4666 
Q 2838 4666 3239 4311 
Q 3641 3956 3641 3272 
Q 3641 2581 3239 2228 
Q 2838 1875 2053 1875 
L 1259 1875 
L 1259 0 
L 628 0 
L 628 4666 
z
" transform="scale(0.015625)"/>
        <path id="DejaVuSans-4f" d="M 2522 4238 
Q 1834 4238 1429 3725 
Q 1025 3213 1025 2328 
Q 1025 1447 1429 934 
Q 1834 422 2522 422 
Q 3209 422 3611 934 
Q 4013 1447 4013 2328 
Q 4013 3213 3611 3725 
Q 3209 4238 2522 4238 
z
M 2522 4750 
Q 3503 4750 4090 4092 
Q 4678 3434 4678 2328 
Q 4678 1225 4090 567 
Q 3503 -91 2522 -91 
Q 1538 -91 948 565 
Q 359 1222 359 2328 
Q 359 3434 948 4092 
Q 1538 4750 2522 4750 
z
" transform="scale(0.015625)"/>
       </defs>
       <use xlink:href="#DejaVuSans-50"/>
       <use xlink:href="#DejaVuSans-50" x="60.302734"/>
       <use xlink:href="#DejaVuSans-4f" x="120.605469"/>
      </g>
     </g>
    </g>
    <g id="xtick_3">
     <g id="line2d_3">
      <g>
       <use xlink:href="#m86febdf456" x="388.5" y="352.44" style="stroke: #000000; stroke-width: 0.8"/>
      </g>
     </g>
     <g id="text_3">
      <!-- TAC random -->
      <g transform="translate(358.028125 367.038437) scale(0.1 -0.1)">
       <defs>
        <path id="DejaVuSans-54" d="M -19 4666 
L 3928 4666 
L 3928 4134 
L 2272 4134 
L 2272 0 
L 1638 0 
L 1638 4134 
L -19 4134 
L -19 4666 
z
" transform="scale(0.015625)"/>
        <path id="DejaVuSans-41" d="M 2188 4044 
L 1331 1722 
L 3047 1722 
L 2188 4044 
z
M 1831 4666 
L 2547 4666 
L 4325 0 
L 3669 0 
L 3244 1197 
L 1141 1197 
L 716 0 
L 50 0 
L 1831 4666 
z
" transform="scale(0.015625)"/>
        <path id="DejaVuSans-43" d="M 4122 4306 
L 4122 3641 
Q 3803 3938 3442 4084 
Q 3081 4231 2675 4231 
Q 1875 4231 1450 3742 
Q 1025 3253 1025 2328 
Q 1025 1406 1450 917 
Q 1875 428 2675 428 
Q 3081 428 3442 575 
Q 3803 722 4122 1019 
L 4122 359 
Q 3791 134 3420 21 
Q 3050 -91 2638 -91 
Q 1578 -91 968 557 
Q 359 1206 359 2328 
Q 359 3453 968 4101 
Q 1578 4750 2638 4750 
Q 3056 4750 3426 4639 
Q 3797 4528 4122 4306 
z
" transform="scale(0.015625)"/>
        <path id="DejaVuSans-72" d="M 2631 2963 
Q 2534 3019 2420 3045 
Q 2306 3072 2169 3072 
Q 1681 3072 1420 2755 
Q 1159 2438 1159 1844 
L 1159 0 
L 581 0 
L 581 3500 
L 1159 3500 
L 1159 2956 
Q 1341 3275 1631 3429 
Q 1922 3584 2338 3584 
Q 2397 3584 2469 3576 
Q 2541 3569 2628 3553 
L 2631 2963 
z
" transform="scale(0.015625)"/>
        <path id="DejaVuSans-61" d="M 2194 1759 
Q 1497 1759 1228 1600 
Q 959 1441 959 1056 
Q 959 750 1161 570 
Q 1363 391 1709 391 
Q 2188 391 2477 730 
Q 2766 1069 2766 1631 
L 2766 1759 
L 2194 1759 
z
M 3341 1997 
L 3341 0 
L 2766 0 
L 2766 531 
Q 2569 213 2275 61 
Q 1981 -91 1556 -91 
Q 1019 -91 701 211 
Q 384 513 384 1019 
Q 384 1609 779 1909 
Q 1175 2209 1959 2209 
L 2766 2209 
L 2766 2266 
Q 2766 2663 2505 2880 
Q 2244 3097 1772 3097 
Q 1472 3097 1187 3025 
Q 903 2953 641 2809 
L 641 3341 
Q 956 3463 1253 3523 
Q 1550 3584 1831 3584 
Q 2591 3584 2966 3190 
Q 3341 2797 3341 1997 
z
" transform="scale(0.015625)"/>
        <path id="DejaVuSans-64" d="M 2906 2969 
L 2906 4863 
L 3481 4863 
L 3481 0 
L 2906 0 
L 2906 525 
Q 2725 213 2448 61 
Q 2172 -91 1784 -91 
Q 1150 -91 751 415 
Q 353 922 353 1747 
Q 353 2572 751 3078 
Q 1150 3584 1784 3584 
Q 2172 3584 2448 3432 
Q 2725 3281 2906 2969 
z
M 947 1747 
Q 947 1113 1208 752 
Q 1469 391 1925 391 
Q 2381 391 2643 752 
Q 2906 1113 2906 1747 
Q 2906 2381 2643 2742 
Q 2381 3103 1925 3103 
Q 1469 3103 1208 2742 
Q 947 2381 947 1747 
z
" transform="scale(0.015625)"/>
        <path id="DejaVuSans-6f" d="M 1959 3097 
Q 1497 3097 1228 2736 
Q 959 2375 959 1747 
Q 959 1119 1226 758 
Q 1494 397 1959 397 
Q 2419 397 2687 759 
Q 2956 1122 2956 1747 
Q 2956 2369 2687 2733 
Q 2419 3097 1959 3097 
z
M 1959 3584 
Q 2709 3584 3137 3096 
Q 3566 2609 3566 1747 
Q 3566 888 3137 398 
Q 2709 -91 1959 -91 
Q 1206 -91 779 398 
Q 353 888 353 1747 
Q 353 2609 779 3096 
Q 1206 3584 1959 3584 
z
" transform="scale(0.015625)"/>
        <path id="DejaVuSans-6d" d="M 3328 2828 
Q 3544 3216 3844 3400 
Q 4144 3584 4550 3584 
Q 5097 3584 5394 3201 
Q 5691 2819 5691 2113 
L 5691 0 
L 5113 0 
L 5113 2094 
Q 5113 2597 4934 2840 
Q 4756 3084 4391 3084 
Q 3944 3084 3684 2787 
Q 3425 2491 3425 1978 
L 3425 0 
L 2847 0 
L 2847 2094 
Q 2847 2600 2669 2842 
Q 2491 3084 2119 3084 
Q 1678 3084 1418 2786 
Q 1159 2488 1159 1978 
L 1159 0 
L 581 0 
L 581 3500 
L 1159 3500 
L 1159 2956 
Q 1356 3278 1631 3431 
Q 1906 3584 2284 3584 
Q 2666 3584 2933 3390 
Q 3200 3197 3328 2828 
z
" transform="scale(0.015625)"/>
       </defs>
       <use xlink:href="#DejaVuSans-54"/>
       <use xlink:href="#DejaVuSans-41" x="53.333984"/>
       <use xlink:href="#DejaVuSans-43" x="119.992188"/>
       <use xlink:href="#DejaVuSans-20" x="189.816406"/>
       <use xlink:href="#DejaVuSans-72" x="221.603516"/>
       <use xlink:href="#DejaVuSans-61" x="262.716797"/>
       <use xlink:href="#DejaVuSans-6e" x="323.996094"/>
       <use xlink:href="#DejaVuSans-64" x="387.375"/>
       <use xlink:href="#DejaVuSans-6f" x="450.851562"/>
       <use xlink:href="#DejaVuSans-6d" x="512.033203"/>
      </g>
     </g>
    </g>
    <g id="text_4">
     <!-- Algorithm -->
     <g transform="translate(233.813281 380.716563) scale(0.1 -0.1)">
      <defs>
       <path id="DejaVuSans-6c" d="M 603 4863 
L 1178 4863 
L 1178 0 
L 603 0 
L 603 4863 
z
" transform="scale(0.015625)"/>
       <path id="DejaVuSans-67" d="M 2906 1791 
Q 2906 2416 2648 2759 
Q 2391 3103 1925 3103 
Q 1463 3103 1205 2759 
Q 947 2416 947 1791 
Q 947 1169 1205 825 
Q 1463 481 1925 481 
Q 2391 481 2648 825 
Q 2906 1169 2906 1791 
z
M 3481 434 
Q 3481 -459 3084 -895 
Q 2688 -1331 1869 -1331 
Q 1566 -1331 1297 -1286 
Q 1028 -1241 775 -1147 
L 775 -588 
Q 1028 -725 1275 -790 
Q 1522 -856 1778 -856 
Q 2344 -856 2625 -561 
Q 2906 -266 2906 331 
L 2906 616 
Q 2728 306 2450 153 
Q 2172 0 1784 0 
Q 1141 0 747 490 
Q 353 981 353 1791 
Q 353 2603 747 3093 
Q 1141 3584 1784 3584 
Q 2172 3584 2450 3431 
Q 2728 3278 2906 2969 
L 2906 3500 
L 3481 3500 
L 3481 434 
z
" transform="scale(0.015625)"/>
       <path id="DejaVuSans-69" d="M 603 3500 
L 1178 3500 
L 1178 0 
L 603 0 
L 603 3500 
z
M 603 4863 
L 1178 4863 
L 1178 4134 
L 603 4134 
L 603 4863 
z
" transform="scale(0.015625)"/>
       <path id="DejaVuSans-68" d="M 3513 2113 
L 3513 0 
L 2938 0 
L 2938 2094 
Q 2938 2591 2744 2837 
Q 2550 3084 2163 3084 
Q 1697 3084 1428 2787 
Q 1159 2491 1159 1978 
L 1159 0 
L 581 0 
L 581 4863 
L 1159 4863 
L 1159 2956 
Q 1366 3272 1645 3428 
Q 1925 3584 2291 3584 
Q 2894 3584 3203 3211 
Q 3513 2838 3513 2113 
z
" transform="scale(0.015625)"/>
      </defs>
      <use xlink:href="#DejaVuSans-41"/>
      <use xlink:href="#DejaVuSans-6c" x="68.408203"/>
      <use xlink:href="#DejaVuSans-67" x="96.191406"/>
      <use xlink:href="#DejaVuSans-6f" x="159.667969"/>
      <use xlink:href="#DejaVuSans-72" x="220.849609"/>
      <use xlink:href="#DejaVuSans-69" x="261.962891"/>
      <use xlink:href="#DejaVuSans-74" x="289.746094"/>
      <use xlink:href="#DejaVuSans-68" x="328.955078"/>
      <use xlink:href="#DejaVuSans-6d" x="392.333984"/>
     </g>
    </g>
   </g>
   <g id="matplotlib.axis_2">
    <g id="ytick_1">
     <g id="line2d_4">
      <path d="M 63 343.598365 
L 453.6 343.598365 
" clip-path="url(#p26b9b5e54a)" style="fill: none; stroke-dasharray: 2.96,1.28; stroke-dashoffset: 0; stroke: #b0b0b0; stroke-width: 0.8"/>
     </g>
     <g id="line2d_5">
      <defs>
       <path id="m5aa441e9d5" d="M 0 0 
L -3.5 0 
" style="stroke: #000000; stroke-width: 0.8"/>
      </defs>
      <g>
       <use xlink:href="#m5aa441e9d5" x="63" y="343.598365" style="stroke: #000000; stroke-width: 0.8"/>
      </g>
     </g>
     <g id="text_5">
      <!-- −600 -->
      <g transform="translate(28.532812 347.397584) scale(0.1 -0.1)">
       <defs>
        <path id="DejaVuSans-2212" d="M 678 2272 
L 4684 2272 
L 4684 1741 
L 678 1741 
L 678 2272 
z
" transform="scale(0.015625)"/>
        <path id="DejaVuSans-36" d="M 2113 2584 
Q 1688 2584 1439 2293 
Q 1191 2003 1191 1497 
Q 1191 994 1439 701 
Q 1688 409 2113 409 
Q 2538 409 2786 701 
Q 3034 994 3034 1497 
Q 3034 2003 2786 2293 
Q 2538 2584 2113 2584 
z
M 3366 4563 
L 3366 3988 
Q 3128 4100 2886 4159 
Q 2644 4219 2406 4219 
Q 1781 4219 1451 3797 
Q 1122 3375 1075 2522 
Q 1259 2794 1537 2939 
Q 1816 3084 2150 3084 
Q 2853 3084 3261 2657 
Q 3669 2231 3669 1497 
Q 3669 778 3244 343 
Q 2819 -91 2113 -91 
Q 1303 -91 875 529 
Q 447 1150 447 2328 
Q 447 3434 972 4092 
Q 1497 4750 2381 4750 
Q 2619 4750 2861 4703 
Q 3103 4656 3366 4563 
z
" transform="scale(0.015625)"/>
        <path id="DejaVuSans-30" d="M 2034 4250 
Q 1547 4250 1301 3770 
Q 1056 3291 1056 2328 
Q 1056 1369 1301 889 
Q 1547 409 2034 409 
Q 2525 409 2770 889 
Q 3016 1369 3016 2328 
Q 3016 3291 2770 3770 
Q 2525 4250 2034 4250 
z
M 2034 4750 
Q 2819 4750 3233 4129 
Q 3647 3509 3647 2328 
Q 3647 1150 3233 529 
Q 2819 -91 2034 -91 
Q 1250 -91 836 529 
Q 422 1150 422 2328 
Q 422 3509 836 4129 
Q 1250 4750 2034 4750 
z
" transform="scale(0.015625)"/>
       </defs>
       <use xlink:href="#DejaVuSans-2212"/>
       <use xlink:href="#DejaVuSans-36" x="83.789062"/>
       <use xlink:href="#DejaVuSans-30" x="147.412109"/>
       <use xlink:href="#DejaVuSans-30" x="211.035156"/>
      </g>
     </g>
    </g>
    <g id="ytick_2">
     <g id="line2d_6">
      <path d="M 63 297.716102 
L 453.6 297.716102 
" clip-path="url(#p26b9b5e54a)" style="fill: none; stroke-dasharray: 2.96,1.28; stroke-dashoffset: 0; stroke: #b0b0b0; stroke-width: 0.8"/>
     </g>
     <g id="line2d_7">
      <g>
       <use xlink:href="#m5aa441e9d5" x="63" y="297.716102" style="stroke: #000000; stroke-width: 0.8"/>
      </g>
     </g>
     <g id="text_6">
      <!-- −500 -->
      <g transform="translate(28.532812 301.515321) scale(0.1 -0.1)">
       <defs>
        <path id="DejaVuSans-35" d="M 691 4666 
L 3169 4666 
L 3169 4134 
L 1269 4134 
L 1269 2991 
Q 1406 3038 1543 3061 
Q 1681 3084 1819 3084 
Q 2600 3084 3056 2656 
Q 3513 2228 3513 1497 
Q 3513 744 3044 326 
Q 2575 -91 1722 -91 
Q 1428 -91 1123 -41 
Q 819 9 494 109 
L 494 744 
Q 775 591 1075 516 
Q 1375 441 1709 441 
Q 2250 441 2565 725 
Q 2881 1009 2881 1497 
Q 2881 1984 2565 2268 
Q 2250 2553 1709 2553 
Q 1456 2553 1204 2497 
Q 953 2441 691 2322 
L 691 4666 
z
" transform="scale(0.015625)"/>
       </defs>
       <use xlink:href="#DejaVuSans-2212"/>
       <use xlink:href="#DejaVuSans-35" x="83.789062"/>
       <use xlink:href="#DejaVuSans-30" x="147.412109"/>
       <use xlink:href="#DejaVuSans-30" x="211.035156"/>
      </g>
     </g>
    </g>
    <g id="ytick_3">
     <g id="line2d_8">
      <path d="M 63 251.833839 
L 453.6 251.833839 
" clip-path="url(#p26b9b5e54a)" style="fill: none; stroke-dasharray: 2.96,1.28; stroke-dashoffset: 0; stroke: #b0b0b0; stroke-width: 0.8"/>
     </g>
     <g id="line2d_9">
      <g>
       <use xlink:href="#m5aa441e9d5" x="63" y="251.833839" style="stroke: #000000; stroke-width: 0.8"/>
      </g>
     </g>
     <g id="text_7">
      <!-- −400 -->
      <g transform="translate(28.532812 255.633058) scale(0.1 -0.1)">
       <defs>
        <path id="DejaVuSans-34" d="M 2419 4116 
L 825 1625 
L 2419 1625 
L 2419 4116 
z
M 2253 4666 
L 3047 4666 
L 3047 1625 
L 3713 1625 
L 3713 1100 
L 3047 1100 
L 3047 0 
L 2419 0 
L 2419 1100 
L 313 1100 
L 313 1709 
L 2253 4666 
z
" transform="scale(0.015625)"/>
       </defs>
       <use xlink:href="#DejaVuSans-2212"/>
       <use xlink:href="#DejaVuSans-34" x="83.789062"/>
       <use xlink:href="#DejaVuSans-30" x="147.412109"/>
       <use xlink:href="#DejaVuSans-30" x="211.035156"/>
      </g>
     </g>
    </g>
    <g id="ytick_4">
     <g id="line2d_10">
      <path d="M 63 205.951577 
L 453.6 205.951577 
" clip-path="url(#p26b9b5e54a)" style="fill: none; stroke-dasharray: 2.96,1.28; stroke-dashoffset: 0; stroke: #b0b0b0; stroke-width: 0.8"/>
     </g>
     <g id="line2d_11">
      <g>
       <use xlink:href="#m5aa441e9d5" x="63" y="205.951577" style="stroke: #000000; stroke-width: 0.8"/>
      </g>
     </g>
     <g id="text_8">
      <!-- −300 -->
      <g transform="translate(28.532812 209.750795) scale(0.1 -0.1)">
       <defs>
        <path id="DejaVuSans-33" d="M 2597 2516 
Q 3050 2419 3304 2112 
Q 3559 1806 3559 1356 
Q 3559 666 3084 287 
Q 2609 -91 1734 -91 
Q 1441 -91 1130 -33 
Q 819 25 488 141 
L 488 750 
Q 750 597 1062 519 
Q 1375 441 1716 441 
Q 2309 441 2620 675 
Q 2931 909 2931 1356 
Q 2931 1769 2642 2001 
Q 2353 2234 1838 2234 
L 1294 2234 
L 1294 2753 
L 1863 2753 
Q 2328 2753 2575 2939 
Q 2822 3125 2822 3475 
Q 2822 3834 2567 4026 
Q 2313 4219 1838 4219 
Q 1578 4219 1281 4162 
Q 984 4106 628 3988 
L 628 4550 
Q 988 4650 1302 4700 
Q 1616 4750 1894 4750 
Q 2613 4750 3031 4423 
Q 3450 4097 3450 3541 
Q 3450 3153 3228 2886 
Q 3006 2619 2597 2516 
z
" transform="scale(0.015625)"/>
       </defs>
       <use xlink:href="#DejaVuSans-2212"/>
       <use xlink:href="#DejaVuSans-33" x="83.789062"/>
       <use xlink:href="#DejaVuSans-30" x="147.412109"/>
       <use xlink:href="#DejaVuSans-30" x="211.035156"/>
      </g>
     </g>
    </g>
    <g id="ytick_5">
     <g id="line2d_12">
      <path d="M 63 160.069314 
L 453.6 160.069314 
" clip-path="url(#p26b9b5e54a)" style="fill: none; stroke-dasharray: 2.96,1.28; stroke-dashoffset: 0; stroke: #b0b0b0; stroke-width: 0.8"/>
     </g>
     <g id="line2d_13">
      <g>
       <use xlink:href="#m5aa441e9d5" x="63" y="160.069314" style="stroke: #000000; stroke-width: 0.8"/>
      </g>
     </g>
     <g id="text_9">
      <!-- −200 -->
      <g transform="translate(28.532812 163.868532) scale(0.1 -0.1)">
       <defs>
        <path id="DejaVuSans-32" d="M 1228 531 
L 3431 531 
L 3431 0 
L 469 0 
L 469 531 
Q 828 903 1448 1529 
Q 2069 2156 2228 2338 
Q 2531 2678 2651 2914 
Q 2772 3150 2772 3378 
Q 2772 3750 2511 3984 
Q 2250 4219 1831 4219 
Q 1534 4219 1204 4116 
Q 875 4013 500 3803 
L 500 4441 
Q 881 4594 1212 4672 
Q 1544 4750 1819 4750 
Q 2544 4750 2975 4387 
Q 3406 4025 3406 3419 
Q 3406 3131 3298 2873 
Q 3191 2616 2906 2266 
Q 2828 2175 2409 1742 
Q 1991 1309 1228 531 
z
" transform="scale(0.015625)"/>
       </defs>
       <use xlink:href="#DejaVuSans-2212"/>
       <use xlink:href="#DejaVuSans-32" x="83.789062"/>
       <use xlink:href="#DejaVuSans-30" x="147.412109"/>
       <use xlink:href="#DejaVuSans-30" x="211.035156"/>
      </g>
     </g>
    </g>
    <g id="ytick_6">
     <g id="line2d_14">
      <path d="M 63 114.187051 
L 453.6 114.187051 
" clip-path="url(#p26b9b5e54a)" style="fill: none; stroke-dasharray: 2.96,1.28; stroke-dashoffset: 0; stroke: #b0b0b0; stroke-width: 0.8"/>
     </g>
     <g id="line2d_15">
      <g>
       <use xlink:href="#m5aa441e9d5" x="63" y="114.187051" style="stroke: #000000; stroke-width: 0.8"/>
      </g>
     </g>
     <g id="text_10">
      <!-- −100 -->
      <g transform="translate(28.532812 117.986269) scale(0.1 -0.1)">
       <defs>
        <path id="DejaVuSans-31" d="M 794 531 
L 1825 531 
L 1825 4091 
L 703 3866 
L 703 4441 
L 1819 4666 
L 2450 4666 
L 2450 531 
L 3481 531 
L 3481 0 
L 794 0 
L 794 531 
z
" transform="scale(0.015625)"/>
       </defs>
       <use xlink:href="#DejaVuSans-2212"/>
       <use xlink:href="#DejaVuSans-31" x="83.789062"/>
       <use xlink:href="#DejaVuSans-30" x="147.412109"/>
       <use xlink:href="#DejaVuSans-30" x="211.035156"/>
      </g>
     </g>
    </g>
    <g id="ytick_7">
     <g id="line2d_16">
      <path d="M 63 68.304788 
L 453.6 68.304788 
" clip-path="url(#p26b9b5e54a)" style="fill: none; stroke-dasharray: 2.96,1.28; stroke-dashoffset: 0; stroke: #b0b0b0; stroke-width: 0.8"/>
     </g>
     <g id="line2d_17">
      <g>
       <use xlink:href="#m5aa441e9d5" x="63" y="68.304788" style="stroke: #000000; stroke-width: 0.8"/>
      </g>
     </g>
     <g id="text_11">
      <!-- 0 -->
      <g transform="translate(49.6375 72.104006) scale(0.1 -0.1)">
       <use xlink:href="#DejaVuSans-30"/>
      </g>
     </g>
    </g>
    <g id="text_12">
     <!-- Mean rewards -->
     <g transform="translate(22.453125 235.112031) rotate(-90) scale(0.1 -0.1)">
      <defs>
       <path id="DejaVuSans-4d" d="M 628 4666 
L 1569 4666 
L 2759 1491 
L 3956 4666 
L 4897 4666 
L 4897 0 
L 4281 0 
L 4281 4097 
L 3078 897 
L 2444 897 
L 1241 4097 
L 1241 0 
L 628 0 
L 628 4666 
z
" transform="scale(0.015625)"/>
       <path id="DejaVuSans-77" d="M 269 3500 
L 844 3500 
L 1563 769 
L 2278 3500 
L 2956 3500 
L 3675 769 
L 4391 3500 
L 4966 3500 
L 4050 0 
L 3372 0 
L 2619 2869 
L 1863 0 
L 1184 0 
L 269 3500 
z
" transform="scale(0.015625)"/>
      </defs>
      <use xlink:href="#DejaVuSans-4d"/>
      <use xlink:href="#DejaVuSans-65" x="86.279297"/>
      <use xlink:href="#DejaVuSans-61" x="147.802734"/>
      <use xlink:href="#DejaVuSans-6e" x="209.082031"/>
      <use xlink:href="#DejaVuSans-20" x="272.460938"/>
      <use xlink:href="#DejaVuSans-72" x="304.248047"/>
      <use xlink:href="#DejaVuSans-65" x="343.111328"/>
      <use xlink:href="#DejaVuSans-77" x="404.634766"/>
      <use xlink:href="#DejaVuSans-61" x="486.421875"/>
      <use xlink:href="#DejaVuSans-72" x="547.701172"/>
      <use xlink:href="#DejaVuSans-64" x="587.064453"/>
      <use xlink:href="#DejaVuSans-73" x="650.541016"/>
     </g>
    </g>
   </g>
   <g id="line2d_18">
    <path d="M 128.1 114.34305 
L 128.1 102.243898 
" clip-path="url(#p26b9b5e54a)" style="fill: none; stroke: #3d3d3d; stroke-width: 1.5; stroke-linecap: square"/>
   </g>
   <g id="line2d_19">
    <path d="M 128.1 109.62406 
L 128.1 105.772244 
" clip-path="url(#p26b9b5e54a)" style="fill: none; stroke: #3d3d3d; stroke-width: 4.5; stroke-linecap: square"/>
   </g>
   <g id="line2d_20">
    <path d="M 258.3 108.236121 
L 258.3 99.65155 
" clip-path="url(#p26b9b5e54a)" style="fill: none; stroke: #3d3d3d; stroke-width: 1.5; stroke-linecap: square"/>
   </g>
   <g id="line2d_21">
    <path d="M 258.3 104.092953 
L 258.3 101.329693 
" clip-path="url(#p26b9b5e54a)" style="fill: none; stroke: #3d3d3d; stroke-width: 4.5; stroke-linecap: square"/>
   </g>
   <g id="line2d_22">
    <path d="M 388.5 297.716102 
L 388.5 297.716102 
" clip-path="url(#p26b9b5e54a)" style="fill: none; stroke: #3d3d3d; stroke-width: 1.5; stroke-linecap: square"/>
   </g>
   <g id="line2d_23">
    <path d="M 388.5 297.716102 
L 388.5 297.716102 
" clip-path="url(#p26b9b5e54a)" style="fill: none; stroke: #3d3d3d; stroke-width: 4.5; stroke-linecap: square"/>
   </g>
   <g id="patch_3">
    <path d="M 63 352.44 
L 63 47.52 
" style="fill: none; stroke: #000000; stroke-width: 0.8; stroke-linejoin: miter; stroke-linecap: square"/>
   </g>
   <g id="patch_4">
    <path d="M 453.6 352.44 
L 453.6 47.52 
" style="fill: none; stroke: #000000; stroke-width: 0.8; stroke-linejoin: miter; stroke-linecap: square"/>
   </g>
   <g id="patch_5">
    <path d="M 63 352.44 
L 453.6 352.44 
" style="fill: none; stroke: #000000; stroke-width: 0.8; stroke-linejoin: miter; stroke-linecap: square"/>
   </g>
   <g id="patch_6">
    <path d="M 63 47.52 
L 453.6 47.52 
" style="fill: none; stroke: #000000; stroke-width: 0.8; stroke-linejoin: miter; stroke-linecap: square"/>
   </g>
   <g id="PathCollection_1">
    <defs>
     <path id="m440c6236e5" d="M 0 1.5 
C 0.397805 1.5 0.77937 1.341951 1.06066 1.06066 
C 1.341951 0.77937 1.5 0.397805 1.5 0 
C 1.5 -0.397805 1.341951 -0.77937 1.06066 -1.06066 
C 0.77937 -1.341951 0.397805 -1.5 0 -1.5 
C -0.397805 -1.5 -0.77937 -1.341951 -1.06066 -1.06066 
C -1.341951 -0.77937 -1.5 -0.397805 -1.5 0 
C -1.5 0.397805 -1.341951 0.77937 -1.06066 1.06066 
C -0.77937 1.341951 -0.397805 1.5 0 1.5 
z
" style="stroke: #3d3d3d"/>
    </defs>
    <g clip-path="url(#p26b9b5e54a)">
     <use xlink:href="#m440c6236e5" x="128.1" y="107.089065" style="fill: #ffffff; stroke: #3d3d3d"/>
    </g>
   </g>
   <g id="PathCollection_2">
    <g clip-path="url(#p26b9b5e54a)">
     <use xlink:href="#m440c6236e5" x="258.3" y="102.294368" style="fill: #ffffff; stroke: #3d3d3d"/>
    </g>
   </g>
   <g id="PathCollection_3">
    <g clip-path="url(#p26b9b5e54a)">
     <use xlink:href="#m440c6236e5" x="388.5" y="297.716102" style="fill: #ffffff; stroke: #3d3d3d"/>
    </g>
   </g>
   <g id="text_13">
    <!-- Acrobot - Baselines -->
    <g transform="translate(200.623125 41.52) scale(0.12 -0.12)">
     <defs>
      <path id="DejaVuSans-63" d="M 3122 3366 
L 3122 2828 
Q 2878 2963 2633 3030 
Q 2388 3097 2138 3097 
Q 1578 3097 1268 2742 
Q 959 2388 959 1747 
Q 959 1106 1268 751 
Q 1578 397 2138 397 
Q 2388 397 2633 464 
Q 2878 531 3122 666 
L 3122 134 
Q 2881 22 2623 -34 
Q 2366 -91 2075 -91 
Q 1284 -91 818 406 
Q 353 903 353 1747 
Q 353 2603 823 3093 
Q 1294 3584 2113 3584 
Q 2378 3584 2631 3529 
Q 2884 3475 3122 3366 
z
" transform="scale(0.015625)"/>
      <path id="DejaVuSans-62" d="M 3116 1747 
Q 3116 2381 2855 2742 
Q 2594 3103 2138 3103 
Q 1681 3103 1420 2742 
Q 1159 2381 1159 1747 
Q 1159 1113 1420 752 
Q 1681 391 2138 391 
Q 2594 391 2855 752 
Q 3116 1113 3116 1747 
z
M 1159 2969 
Q 1341 3281 1617 3432 
Q 1894 3584 2278 3584 
Q 2916 3584 3314 3078 
Q 3713 2572 3713 1747 
Q 3713 922 3314 415 
Q 2916 -91 2278 -91 
Q 1894 -91 1617 61 
Q 1341 213 1159 525 
L 1159 0 
L 581 0 
L 581 4863 
L 1159 4863 
L 1159 2969 
z
" transform="scale(0.015625)"/>
      <path id="DejaVuSans-42" d="M 1259 2228 
L 1259 519 
L 2272 519 
Q 2781 519 3026 730 
Q 3272 941 3272 1375 
Q 3272 1813 3026 2020 
Q 2781 2228 2272 2228 
L 1259 2228 
z
M 1259 4147 
L 1259 2741 
L 2194 2741 
Q 2656 2741 2882 2914 
Q 3109 3088 3109 3444 
Q 3109 3797 2882 3972 
Q 2656 4147 2194 4147 
L 1259 4147 
z
M 628 4666 
L 2241 4666 
Q 2963 4666 3353 4366 
Q 3744 4066 3744 3513 
Q 3744 3084 3544 2831 
Q 3344 2578 2956 2516 
Q 3422 2416 3680 2098 
Q 3938 1781 3938 1306 
Q 3938 681 3513 340 
Q 3088 0 2303 0 
L 628 0 
L 628 4666 
z
" transform="scale(0.015625)"/>
     </defs>
     <use xlink:href="#DejaVuSans-41"/>
     <use xlink:href="#DejaVuSans-63" x="66.658203"/>
     <use xlink:href="#DejaVuSans-72" x="121.638672"/>
     <use xlink:href="#DejaVuSans-6f" x="160.501953"/>
     <use xlink:href="#DejaVuSans-62" x="221.683594"/>
     <use xlink:href="#DejaVuSans-6f" x="285.160156"/>
     <use xlink:href="#DejaVuSans-74" x="346.341797"/>
     <use xlink:href="#DejaVuSans-20" x="385.550781"/>
     <use xlink:href="#DejaVuSans-2d" x="417.337891"/>
     <use xlink:href="#DejaVuSans-20" x="453.421875"/>
     <use xlink:href="#DejaVuSans-42" x="485.208984"/>
     <use xlink:href="#DejaVuSans-61" x="553.8125"/>
     <use xlink:href="#DejaVuSans-73" x="615.091797"/>
     <use xlink:href="#DejaVuSans-65" x="667.191406"/>
     <use xlink:href="#DejaVuSans-6c" x="728.714844"/>
     <use xlink:href="#DejaVuSans-69" x="756.498047"/>
     <use xlink:href="#DejaVuSans-6e" x="784.28125"/>
     <use xlink:href="#DejaVuSans-65" x="847.660156"/>
     <use xlink:href="#DejaVuSans-73" x="909.183594"/>
    </g>
   </g>
  </g>
 </g>
 <defs>
  <clipPath id="p26b9b5e54a">
   <rect x="63" y="47.52" width="390.6" height="304.92"/>
  </clipPath>
 </defs>
</svg>
