<?xml version="1.0" encoding="utf-8" standalone="no"?>
<!DOCTYPE svg PUBLIC "-//W3C//DTD SVG 1.1//EN"
  "http://www.w3.org/Graphics/SVG/1.1/DTD/svg11.dtd">
<svg xmlns:xlink="http://www.w3.org/1999/xlink" width="504pt" height="396pt" viewBox="0 0 504 396" xmlns="http://www.w3.org/2000/svg" version="1.1">
 <metadata>
  <rdf:RDF xmlns:dc="http://purl.org/dc/elements/1.1/" xmlns:cc="http://creativecommons.org/ns#" xmlns:rdf="http://www.w3.org/1999/02/22-rdf-syntax-ns#">
   <cc:Work>
    <dc:type rdf:resource="http://purl.org/dc/dcmitype/StillImage"/>
    <dc:date>2024-05-10T14:26:56.241268</dc:date>
    <dc:format>image/svg+xml</dc:format>
    <dc:creator>
     <cc:Agent>
      <dc:title>Matplotlib v3.8.2, https://matplotlib.org/</dc:title>
     </cc:Agent>
    </dc:creator>
   </cc:Work>
  </rdf:RDF>
 </metadata>
 <defs>
  <style type="text/css">*{stroke-linejoin: round; stroke-linecap: butt}</style>
 </defs>
 <g id="figure_1">
  <g id="patch_1">
   <path d="M 0 396 
L 504 396 
L 504 0 
L 0 0 
z
" style="fill: #ffffff"/>
  </g>
  <g id="axes_1">
   <g id="patch_2">
    <path d="M 63 352.44 
L 453.6 352.44 
L 453.6 47.52 
L 63 47.52 
z
" style="fill: #ffffff"/>
   </g>
   <g id="PolyCollection_1">
    <defs>
     <path id="m9fd2aa1b96" d="M 128.626705 -60.03051 
L 127.573295 -60.03051 
L 127.376152 -62.800807 
L 127.13056 -65.571104 
L 126.834587 -68.341401 
L 126.489962 -71.111698 
L 126.102922 -73.881995 
L 125.684628 -76.652291 
L 125.251008 -79.422588 
L 124.821908 -82.192885 
L 124.419582 -84.963182 
L 124.066655 -87.733479 
L 123.783831 -90.503776 
L 123.587672 -93.274073 
L 123.488809 -96.04437 
L 123.490857 -98.814666 
L 123.590215 -101.584963 
L 123.776737 -104.35526 
L 124.035159 -107.125557 
L 124.346995 -109.895854 
L 124.6926 -112.666151 
L 125.053089 -115.436448 
L 125.411866 -118.206745 
L 125.75562 -120.977042 
L 126.074759 -123.747338 
L 126.363341 -126.517635 
L 126.61863 -129.287932 
L 126.84041 -132.058229 
L 127.030238 -134.828526 
L 127.190713 -137.598823 
L 127.324884 -140.36912 
L 127.435809 -143.139417 
L 127.526286 -145.909714 
L 127.598735 -148.68001 
L 127.655197 -151.450307 
L 127.697407 -154.220604 
L 127.7269 -156.990901 
L 127.745116 -159.761198 
L 127.753483 -162.531495 
L 127.75346 -165.301792 
L 127.746531 -168.072089 
L 127.734164 -170.842385 
L 127.717738 -173.612682 
L 127.698443 -176.382979 
L 127.677183 -179.153276 
L 127.654477 -181.923573 
L 127.630385 -184.69387 
L 127.604462 -187.464167 
L 127.575759 -190.234464 
L 127.54287 -193.004761 
L 127.504039 -195.775057 
L 127.457321 -198.545354 
L 127.400795 -201.315651 
L 127.332813 -204.085948 
L 127.252257 -206.856245 
L 127.15878 -209.626542 
L 127.052979 -212.396839 
L 126.936468 -215.167136 
L 126.811797 -217.937433 
L 126.682196 -220.707729 
L 126.551105 -223.478026 
L 126.4215 -226.248323 
L 126.295027 -229.01862 
L 126.170953 -231.788917 
L 126.04499 -234.559214 
L 125.908017 -237.329511 
L 125.744756 -240.099808 
L 125.532484 -242.870105 
L 125.239918 -245.640401 
L 124.826478 -248.410698 
L 124.242237 -251.180995 
L 123.428981 -253.951292 
L 122.322807 -256.721589 
L 120.85869 -259.491886 
L 118.977222 -262.262183 
L 116.633411 -265.03248 
L 113.806905 -267.802776 
L 110.51247 -270.573073 
L 106.809024 -273.34337 
L 102.805226 -276.113667 
L 98.659704 -278.883964 
L 94.57449 -281.654261 
L 90.781242 -284.424558 
L 87.521078 -287.194855 
L 85.020237 -289.965152 
L 83.464863 -292.735448 
L 82.978777 -295.505745 
L 83.607896 -298.276042 
L 85.314027 -301.046339 
L 87.97915 -303.816636 
L 91.419547 -306.586933 
L 95.407372 -309.35723 
L 99.696137 -312.127527 
L 104.046131 -314.897824 
L 108.246164 -317.66812 
L 112.129018 -320.438417 
L 115.579397 -323.208714 
L 118.534524 -325.979011 
L 120.978705 -328.749308 
L 122.933843 -331.519605 
L 124.448099 -334.289902 
L 131.751901 -334.289902 
L 131.751901 -334.289902 
L 133.266157 -331.519605 
L 135.221295 -328.749308 
L 137.665476 -325.979011 
L 140.620603 -323.208714 
L 144.070982 -320.438417 
L 147.953836 -317.66812 
L 152.153869 -314.897824 
L 156.503863 -312.127527 
L 160.792628 -309.35723 
L 164.780453 -306.586933 
L 168.22085 -303.816636 
L 170.885973 -301.046339 
L 172.592104 -298.276042 
L 173.221223 -295.505745 
L 172.735137 -292.735448 
L 171.179763 -289.965152 
L 168.678922 -287.194855 
L 165.418758 -284.424558 
L 161.62551 -281.654261 
L 157.540296 -278.883964 
L 153.394774 -276.113667 
L 149.390976 -273.34337 
L 145.68753 -270.573073 
L 142.393095 -267.802776 
L 139.566589 -265.03248 
L 137.222778 -262.262183 
L 135.34131 -259.491886 
L 133.877193 -256.721589 
L 132.771019 -253.951292 
L 131.957763 -251.180995 
L 131.373522 -248.410698 
L 130.960082 -245.640401 
L 130.667516 -242.870105 
L 130.455244 -240.099808 
L 130.291983 -237.329511 
L 130.15501 -234.559214 
L 130.029047 -231.788917 
L 129.904973 -229.01862 
L 129.7785 -226.248323 
L 129.648895 -223.478026 
L 129.517804 -220.707729 
L 129.388203 -217.937433 
L 129.263532 -215.167136 
L 129.147021 -212.396839 
L 129.04122 -209.626542 
L 128.947743 -206.856245 
L 128.867187 -204.085948 
L 128.799205 -201.315651 
L 128.742679 -198.545354 
L 128.695961 -195.775057 
L 128.65713 -193.004761 
L 128.624241 -190.234464 
L 128.595538 -187.464167 
L 128.569615 -184.69387 
L 128.545523 -181.923573 
L 128.522817 -179.153276 
L 128.501557 -176.382979 
L 128.482262 -173.612682 
L 128.465836 -170.842385 
L 128.453469 -168.072089 
L 128.44654 -165.301792 
L 128.446517 -162.531495 
L 128.454884 -159.761198 
L 128.4731 -156.990901 
L 128.502593 -154.220604 
L 128.544803 -151.450307 
L 128.601265 -148.68001 
L 128.673714 -145.909714 
L 128.764191 -143.139417 
L 128.875116 -140.36912 
L 129.009287 -137.598823 
L 129.169762 -134.828526 
L 129.35959 -132.058229 
L 129.58137 -129.287932 
L 129.836659 -126.517635 
L 130.125241 -123.747338 
L 130.44438 -120.977042 
L 130.788134 -118.206745 
L 131.146911 -115.436448 
L 131.5074 -112.666151 
L 131.853005 -109.895854 
L 132.164841 -107.125557 
L 132.423263 -104.35526 
L 132.609785 -101.584963 
L 132.709143 -98.814666 
L 132.711191 -96.04437 
L 132.612328 -93.274073 
L 132.416169 -90.503776 
L 132.133345 -87.733479 
L 131.780418 -84.963182 
L 131.378092 -82.192885 
L 130.948992 -79.422588 
L 130.515372 -76.652291 
L 130.097078 -73.881995 
L 129.710038 -71.111698 
L 129.365413 -68.341401 
L 129.06944 -65.571104 
L 128.823848 -62.800807 
L 128.626705 -60.03051 
z
" style="stroke: #3d3d3d; stroke-width: 1.5"/>
    </defs>
    <g clip-path="url(#ped519b4e95)">
     <use xlink:href="#m9fd2aa1b96" x="0" y="396" style="fill: #3274a1; stroke: #3d3d3d; stroke-width: 1.5"/>
    </g>
   </g>
   <g id="PolyCollection_2">
    <defs>
     <path id="m932e09cbca" d="M 258.814223 -65.558446 
L 257.785777 -65.558446 
L 257.565403 -68.215535 
L 257.286196 -70.872624 
L 256.948296 -73.529713 
L 256.558791 -76.186802 
L 256.132866 -78.843891 
L 255.693753 -81.50098 
L 255.271155 -84.15807 
L 254.898138 -86.815159 
L 254.606885 -89.472248 
L 254.424041 -92.129337 
L 254.366589 -94.786426 
L 254.439159 -97.443515 
L 254.633366 -100.100604 
L 254.929324 -102.757693 
L 255.298961 -105.414782 
L 255.710382 -108.071871 
L 256.132341 -110.72896 
L 256.537955 -113.386049 
L 256.90711 -116.043138 
L 257.227339 -118.700228 
L 257.493356 -121.357317 
L 257.705656 -124.014406 
L 257.868658 -126.671495 
L 257.988878 -129.328584 
L 258.073411 -131.985673 
L 258.128894 -134.642762 
L 258.160956 -137.299851 
L 258.174059 -139.95694 
L 258.171614 -142.614029 
L 258.156253 -145.271118 
L 258.130121 -147.928207 
L 258.095148 -150.585296 
L 258.053232 -153.242386 
L 258.006326 -155.899475 
L 257.956432 -158.556564 
L 257.905525 -161.213653 
L 257.855445 -163.870742 
L 257.807781 -166.527831 
L 257.763781 -169.18492 
L 257.724304 -171.842009 
L 257.689812 -174.499098 
L 257.660395 -177.156187 
L 257.635818 -179.813276 
L 257.615573 -182.470365 
L 257.598946 -185.127454 
L 257.585097 -187.784544 
L 257.573159 -190.441633 
L 257.562359 -193.098722 
L 257.552153 -195.755811 
L 257.542352 -198.4129 
L 257.533204 -201.069989 
L 257.525414 -203.727078 
L 257.520067 -206.384167 
L 257.518455 -209.041256 
L 257.521834 -211.698345 
L 257.531112 -214.355434 
L 257.546518 -217.012523 
L 257.567268 -219.669612 
L 257.591232 -222.326702 
L 257.614573 -224.983791 
L 257.631326 -227.64088 
L 257.632863 -230.297969 
L 257.607183 -232.955058 
L 257.538021 -235.612147 
L 257.403813 -238.269236 
L 257.176589 -240.926325 
L 256.821013 -243.583414 
L 256.293784 -246.240503 
L 255.543718 -248.897592 
L 254.512849 -251.554681 
L 253.138845 -254.21177 
L 251.359051 -256.86886 
L 249.116294 -259.525949 
L 246.366491 -262.183038 
L 243.087803 -264.840127 
L 239.290755 -267.497216 
L 235.02825 -270.154305 
L 230.403909 -272.811394 
L 225.576709 -275.468483 
L 220.759713 -278.125572 
L 216.210959 -280.782661 
L 212.21551 -283.43975 
L 209.059278 -286.096839 
L 206.997158 -288.753928 
L 206.22 -291.411018 
L 206.826139 -294.068107 
L 208.80328 -296.725196 
L 212.025077 -299.382285 
L 216.264047 -302.039374 
L 221.219104 -304.696463 
L 226.552896 -307.353552 
L 231.932149 -310.010641 
L 237.063887 -312.66773 
L 241.721805 -315.324819 
L 245.759594 -317.981908 
L 249.111082 -320.638997 
L 251.779563 -323.296086 
L 253.820364 -325.953175 
L 255.321016 -328.610265 
L 261.278984 -328.610265 
L 261.278984 -328.610265 
L 262.779636 -325.953175 
L 264.820437 -323.296086 
L 267.488918 -320.638997 
L 270.840406 -317.981908 
L 274.878195 -315.324819 
L 279.536113 -312.66773 
L 284.667851 -310.010641 
L 290.047104 -307.353552 
L 295.380896 -304.696463 
L 300.335953 -302.039374 
L 304.574923 -299.382285 
L 307.79672 -296.725196 
L 309.773861 -294.068107 
L 310.38 -291.411018 
L 309.602842 -288.753928 
L 307.540722 -286.096839 
L 304.38449 -283.43975 
L 300.389041 -280.782661 
L 295.840287 -278.125572 
L 291.023291 -275.468483 
L 286.196091 -272.811394 
L 281.57175 -270.154305 
L 277.309245 -267.497216 
L 273.512197 -264.840127 
L 270.233509 -262.183038 
L 267.483706 -259.525949 
L 265.240949 -256.86886 
L 263.461155 -254.21177 
L 262.087151 -251.554681 
L 261.056282 -248.897592 
L 260.306216 -246.240503 
L 259.778987 -243.583414 
L 259.423411 -240.926325 
L 259.196187 -238.269236 
L 259.061979 -235.612147 
L 258.992817 -232.955058 
L 258.967137 -230.297969 
L 258.968674 -227.64088 
L 258.985427 -224.983791 
L 259.008768 -222.326702 
L 259.032732 -219.669612 
L 259.053482 -217.012523 
L 259.068888 -214.355434 
L 259.078166 -211.698345 
L 259.081545 -209.041256 
L 259.079933 -206.384167 
L 259.074586 -203.727078 
L 259.066796 -201.069989 
L 259.057648 -198.4129 
L 259.047847 -195.755811 
L 259.037641 -193.098722 
L 259.026841 -190.441633 
L 259.014903 -187.784544 
L 259.001054 -185.127454 
L 258.984427 -182.470365 
L 258.964182 -179.813276 
L 258.939605 -177.156187 
L 258.910188 -174.499098 
L 258.875696 -171.842009 
L 258.836219 -169.18492 
L 258.792219 -166.527831 
L 258.744555 -163.870742 
L 258.694475 -161.213653 
L 258.643568 -158.556564 
L 258.593674 -155.899475 
L 258.546768 -153.242386 
L 258.504852 -150.585296 
L 258.469879 -147.928207 
L 258.443747 -145.271118 
L 258.428386 -142.614029 
L 258.425941 -139.95694 
L 258.439044 -137.299851 
L 258.471106 -134.642762 
L 258.526589 -131.985673 
L 258.611122 -129.328584 
L 258.731342 -126.671495 
L 258.894344 -124.014406 
L 259.106644 -121.357317 
L 259.372661 -118.700228 
L 259.69289 -116.043138 
L 260.062045 -113.386049 
L 260.467659 -110.72896 
L 260.889618 -108.071871 
L 261.301039 -105.414782 
L 261.670676 -102.757693 
L 261.966634 -100.100604 
L 262.160841 -97.443515 
L 262.233411 -94.786426 
L 262.175959 -92.129337 
L 261.993115 -89.472248 
L 261.701862 -86.815159 
L 261.328845 -84.15807 
L 260.906247 -81.50098 
L 260.467134 -78.843891 
L 260.041209 -76.186802 
L 259.651704 -73.529713 
L 259.313804 -70.872624 
L 259.034597 -68.215535 
L 258.814223 -65.558446 
z
" style="stroke: #3d3d3d; stroke-width: 1.5"/>
    </defs>
    <g clip-path="url(#ped519b4e95)">
     <use xlink:href="#m932e09cbca" x="0" y="396" style="fill: #e1812c; stroke: #3d3d3d; stroke-width: 1.5"/>
    </g>
   </g>
   <g id="PolyCollection_3">
    <defs>
     <path id="mda211332e8" d="M 388.919951 -57.42 
L 388.080049 -57.42 
L 387.928215 -60.22 
L 387.738369 -63.02 
L 387.507279 -65.82 
L 387.233539 -68.62 
L 386.918132 -71.42 
L 386.56482 -74.22 
L 386.180285 -77.02 
L 385.773937 -79.82 
L 385.357357 -82.62 
L 384.943422 -85.42 
L 384.545187 -88.22 
L 384.17467 -91.02 
L 383.841717 -93.82 
L 383.553097 -96.62 
L 383.31198 -99.42 
L 383.117839 -102.22 
L 382.966802 -105.02 
L 382.852346 -107.82 
L 382.766207 -110.62 
L 382.69935 -113.42 
L 382.642837 -116.22 
L 382.588494 -119.02 
L 382.529312 -121.82 
L 382.459615 -124.62 
L 382.37504 -127.42 
L 382.272438 -130.22 
L 382.149789 -133.02 
L 382.0062 -135.82 
L 381.841999 -138.62 
L 381.658915 -141.42 
L 381.460258 -144.22 
L 381.251008 -147.02 
L 381.037731 -149.82 
L 380.828235 -152.62 
L 380.630974 -155.42 
L 380.454217 -158.22 
L 380.305082 -161.02 
L 380.188555 -163.82 
L 380.106645 -166.62 
L 380.057792 -169.42 
L 380.036639 -172.22 
L 380.034216 -175.02 
L 380.038532 -177.82 
L 380.035536 -180.62 
L 380.010353 -183.42 
L 379.948696 -186.22 
L 379.83833 -189.02 
L 379.670474 -191.82 
L 379.441007 -194.62 
L 379.151384 -197.42 
L 378.809133 -200.22 
L 378.427845 -203.02 
L 378.026582 -205.82 
L 377.62866 -208.62 
L 377.259844 -211.42 
L 376.94605 -214.22 
L 376.710749 -217.02 
L 376.572324 -219.82 
L 376.54169 -222.62 
L 376.620488 -225.42 
L 376.80011 -228.22 
L 377.061724 -231.02 
L 377.377351 -233.82 
L 377.711893 -236.62 
L 378.025919 -239.42 
L 378.278903 -242.22 
L 378.432616 -245.02 
L 378.454333 -247.82 
L 378.31964 -250.62 
L 378.014635 -253.42 
L 377.537426 -256.22 
L 376.89888 -259.02 
L 376.122598 -261.82 
L 375.244108 -264.62 
L 374.309284 -267.42 
L 373.371977 -270.22 
L 372.490914 -273.02 
L 371.725966 -275.82 
L 371.133975 -278.62 
L 370.764454 -281.42 
L 370.655535 -284.22 
L 370.830624 -287.02 
L 371.296169 -289.82 
L 372.040884 -292.62 
L 373.036599 -295.42 
L 374.240691 -298.22 
L 375.599849 -301.02 
L 377.054721 -303.82 
L 378.544894 -306.62 
L 380.013611 -309.42 
L 381.411703 -312.22 
L 382.700378 -315.02 
L 383.852663 -317.82 
L 384.853528 -320.62 
L 385.698879 -323.42 
L 386.393726 -326.22 
L 386.949892 -329.02 
L 387.3836 -331.82 
L 387.713246 -334.62 
L 389.286754 -334.62 
L 389.286754 -334.62 
L 389.6164 -331.82 
L 390.050108 -329.02 
L 390.606274 -326.22 
L 391.301121 -323.42 
L 392.146472 -320.62 
L 393.147337 -317.82 
L 394.299622 -315.02 
L 395.588297 -312.22 
L 396.986389 -309.42 
L 398.455106 -306.62 
L 399.945279 -303.82 
L 401.400151 -301.02 
L 402.759309 -298.22 
L 403.963401 -295.42 
L 404.959116 -292.62 
L 405.703831 -289.82 
L 406.169376 -287.02 
L 406.344465 -284.22 
L 406.235546 -281.42 
L 405.866025 -278.62 
L 405.274034 -275.82 
L 404.509086 -273.02 
L 403.628023 -270.22 
L 402.690716 -267.42 
L 401.755892 -264.62 
L 400.877402 -261.82 
L 400.10112 -259.02 
L 399.462574 -256.22 
L 398.985365 -253.42 
L 398.68036 -250.62 
L 398.545667 -247.82 
L 398.567384 -245.02 
L 398.721097 -242.22 
L 398.974081 -239.42 
L 399.288107 -236.62 
L 399.622649 -233.82 
L 399.938276 -231.02 
L 400.19989 -228.22 
L 400.379512 -225.42 
L 400.45831 -222.62 
L 400.427676 -219.82 
L 400.289251 -217.02 
L 400.05395 -214.22 
L 399.740156 -211.42 
L 399.37134 -208.62 
L 398.973418 -205.82 
L 398.572155 -203.02 
L 398.190867 -200.22 
L 397.848616 -197.42 
L 397.558993 -194.62 
L 397.329526 -191.82 
L 397.16167 -189.02 
L 397.051304 -186.22 
L 396.989647 -183.42 
L 396.964464 -180.62 
L 396.961468 -177.82 
L 396.965784 -175.02 
L 396.963361 -172.22 
L 396.942208 -169.42 
L 396.893355 -166.62 
L 396.811445 -163.82 
L 396.694918 -161.02 
L 396.545783 -158.22 
L 396.369026 -155.42 
L 396.171765 -152.62 
L 395.962269 -149.82 
L 395.748992 -147.02 
L 395.539742 -144.22 
L 395.341085 -141.42 
L 395.158001 -138.62 
L 394.9938 -135.82 
L 394.850211 -133.02 
L 394.727562 -130.22 
L 394.62496 -127.42 
L 394.540385 -124.62 
L 394.470688 -121.82 
L 394.411506 -119.02 
L 394.357163 -116.22 
L 394.30065 -113.42 
L 394.233793 -110.62 
L 394.147654 -107.82 
L 394.033198 -105.02 
L 393.882161 -102.22 
L 393.68802 -99.42 
L 393.446903 -96.62 
L 393.158283 -93.82 
L 392.82533 -91.02 
L 392.454813 -88.22 
L 392.056578 -85.42 
L 391.642643 -82.62 
L 391.226063 -79.82 
L 390.819715 -77.02 
L 390.43518 -74.22 
L 390.081868 -71.42 
L 389.766461 -68.62 
L 389.492721 -65.82 
L 389.261631 -63.02 
L 389.071785 -60.22 
L 388.919951 -57.42 
z
" style="stroke: #3d3d3d; stroke-width: 1.5"/>
    </defs>
    <g clip-path="url(#ped519b4e95)">
     <use xlink:href="#mda211332e8" x="0" y="396" style="fill: #3a923a; stroke: #3d3d3d; stroke-width: 1.5"/>
    </g>
   </g>
   <g id="matplotlib.axis_1">
    <g id="xtick_1">
     <g id="line2d_1">
      <defs>
       <path id="m19cad8b084" d="M 0 0 
L 0 3.5 
" style="stroke: #000000; stroke-width: 0.8"/>
      </defs>
      <g>
       <use xlink:href="#m19cad8b084" x="128.1" y="352.44" style="stroke: #000000; stroke-width: 0.8"/>
      </g>
     </g>
     <g id="text_1">
      <!-- n-step QTM -->
      <g transform="translate(99.41875 367.038437) scale(0.1 -0.1)">
       <defs>
        <path id="DejaVuSans-6e" d="M 3513 2113 
L 3513 0 
L 2938 0 
L 2938 2094 
Q 2938 2591 2744 2837 
Q 2550 3084 2163 3084 
Q 1697 3084 1428 2787 
Q 1159 2491 1159 1978 
L 1159 0 
L 581 0 
L 581 3500 
L 1159 3500 
L 1159 2956 
Q 1366 3272 1645 3428 
Q 1925 3584 2291 3584 
Q 2894 3584 3203 3211 
Q 3513 2838 3513 2113 
z
" transform="scale(0.015625)"/>
        <path id="DejaVuSans-2d" d="M 313 2009 
L 1997 2009 
L 1997 1497 
L 313 1497 
L 313 2009 
z
" transform="scale(0.015625)"/>
        <path id="DejaVuSans-73" d="M 2834 3397 
L 2834 2853 
Q 2591 2978 2328 3040 
Q 2066 3103 1784 3103 
Q 1356 3103 1142 2972 
Q 928 2841 928 2578 
Q 928 2378 1081 2264 
Q 1234 2150 1697 2047 
L 1894 2003 
Q 2506 1872 2764 1633 
Q 3022 1394 3022 966 
Q 3022 478 2636 193 
Q 2250 -91 1575 -91 
Q 1294 -91 989 -36 
Q 684 19 347 128 
L 347 722 
Q 666 556 975 473 
Q 1284 391 1588 391 
Q 1994 391 2212 530 
Q 2431 669 2431 922 
Q 2431 1156 2273 1281 
Q 2116 1406 1581 1522 
L 1381 1569 
Q 847 1681 609 1914 
Q 372 2147 372 2553 
Q 372 3047 722 3315 
Q 1072 3584 1716 3584 
Q 2034 3584 2315 3537 
Q 2597 3491 2834 3397 
z
" transform="scale(0.015625)"/>
        <path id="DejaVuSans-74" d="M 1172 4494 
L 1172 3500 
L 2356 3500 
L 2356 3053 
L 1172 3053 
L 1172 1153 
Q 1172 725 1289 603 
Q 1406 481 1766 481 
L 2356 481 
L 2356 0 
L 1766 0 
Q 1100 0 847 248 
Q 594 497 594 1153 
L 594 3053 
L 172 3053 
L 172 3500 
L 594 3500 
L 594 4494 
L 1172 4494 
z
" transform="scale(0.015625)"/>
        <path id="DejaVuSans-65" d="M 3597 1894 
L 3597 1613 
L 953 1613 
Q 991 1019 1311 708 
Q 1631 397 2203 397 
Q 2534 397 2845 478 
Q 3156 559 3463 722 
L 3463 178 
Q 3153 47 2828 -22 
Q 2503 -91 2169 -91 
Q 1331 -91 842 396 
Q 353 884 353 1716 
Q 353 2575 817 3079 
Q 1281 3584 2069 3584 
Q 2775 3584 3186 3129 
Q 3597 2675 3597 1894 
z
M 3022 2063 
Q 3016 2534 2758 2815 
Q 2500 3097 2075 3097 
Q 1594 3097 1305 2825 
Q 1016 2553 972 2059 
L 3022 2063 
z
" transform="scale(0.015625)"/>
        <path id="DejaVuSans-70" d="M 1159 525 
L 1159 -1331 
L 581 -1331 
L 581 3500 
L 1159 3500 
L 1159 2969 
Q 1341 3281 1617 3432 
Q 1894 3584 2278 3584 
Q 2916 3584 3314 3078 
Q 3713 2572 3713 1747 
Q 3713 922 3314 415 
Q 2916 -91 2278 -91 
Q 1894 -91 1617 61 
Q 1341 213 1159 525 
z
M 3116 1747 
Q 3116 2381 2855 2742 
Q 2594 3103 2138 3103 
Q 1681 3103 1420 2742 
Q 1159 2381 1159 1747 
Q 1159 1113 1420 752 
Q 1681 391 2138 391 
Q 2594 391 2855 752 
Q 3116 1113 3116 1747 
z
" transform="scale(0.015625)"/>
        <path id="DejaVuSans-20" transform="scale(0.015625)"/>
        <path id="DejaVuSans-51" d="M 2522 4238 
Q 1834 4238 1429 3725 
Q 1025 3213 1025 2328 
Q 1025 1447 1429 934 
Q 1834 422 2522 422 
Q 3209 422 3611 934 
Q 4013 1447 4013 2328 
Q 4013 3213 3611 3725 
Q 3209 4238 2522 4238 
z
M 3406 84 
L 4238 -825 
L 3475 -825 
L 2784 -78 
Q 2681 -84 2626 -87 
Q 2572 -91 2522 -91 
Q 1538 -91 948 567 
Q 359 1225 359 2328 
Q 359 3434 948 4092 
Q 1538 4750 2522 4750 
Q 3503 4750 4090 4092 
Q 4678 3434 4678 2328 
Q 4678 1516 4351 937 
Q 4025 359 3406 84 
z
" transform="scale(0.015625)"/>
        <path id="DejaVuSans-54" d="M -19 4666 
L 3928 4666 
L 3928 4134 
L 2272 4134 
L 2272 0 
L 1638 0 
L 1638 4134 
L -19 4134 
L -19 4666 
z
" transform="scale(0.015625)"/>
        <path id="DejaVuSans-4d" d="M 628 4666 
L 1569 4666 
L 2759 1491 
L 3956 4666 
L 4897 4666 
L 4897 0 
L 4281 0 
L 4281 4097 
L 3078 897 
L 2444 897 
L 1241 4097 
L 1241 0 
L 628 0 
L 628 4666 
z
" transform="scale(0.015625)"/>
       </defs>
       <use xlink:href="#DejaVuSans-6e"/>
       <use xlink:href="#DejaVuSans-2d" x="63.378906"/>
       <use xlink:href="#DejaVuSans-73" x="99.462891"/>
       <use xlink:href="#DejaVuSans-74" x="151.5625"/>
       <use xlink:href="#DejaVuSans-65" x="190.771484"/>
       <use xlink:href="#DejaVuSans-70" x="252.294922"/>
       <use xlink:href="#DejaVuSans-20" x="315.771484"/>
       <use xlink:href="#DejaVuSans-51" x="347.558594"/>
       <use xlink:href="#DejaVuSans-54" x="426.269531"/>
       <use xlink:href="#DejaVuSans-4d" x="487.353516"/>
      </g>
     </g>
    </g>
    <g id="xtick_2">
     <g id="line2d_2">
      <g>
       <use xlink:href="#m19cad8b084" x="258.3" y="352.44" style="stroke: #000000; stroke-width: 0.8"/>
      </g>
     </g>
     <g id="text_2">
      <!-- n-step DQTM  -->
      <g transform="translate(224.179687 367.038437) scale(0.1 -0.1)">
       <defs>
        <path id="DejaVuSans-44" d="M 1259 4147 
L 1259 519 
L 2022 519 
Q 2988 519 3436 956 
Q 3884 1394 3884 2338 
Q 3884 3275 3436 3711 
Q 2988 4147 2022 4147 
L 1259 4147 
z
M 628 4666 
L 1925 4666 
Q 3281 4666 3915 4102 
Q 4550 3538 4550 2338 
Q 4550 1131 3912 565 
Q 3275 0 1925 0 
L 628 0 
L 628 4666 
z
" transform="scale(0.015625)"/>
       </defs>
       <use xlink:href="#DejaVuSans-6e"/>
       <use xlink:href="#DejaVuSans-2d" x="63.378906"/>
       <use xlink:href="#DejaVuSans-73" x="99.462891"/>
       <use xlink:href="#DejaVuSans-74" x="151.5625"/>
       <use xlink:href="#DejaVuSans-65" x="190.771484"/>
       <use xlink:href="#DejaVuSans-70" x="252.294922"/>
       <use xlink:href="#DejaVuSans-20" x="315.771484"/>
       <use xlink:href="#DejaVuSans-44" x="347.558594"/>
       <use xlink:href="#DejaVuSans-51" x="424.560547"/>
       <use xlink:href="#DejaVuSans-54" x="503.271484"/>
       <use xlink:href="#DejaVuSans-4d" x="564.355469"/>
       <use xlink:href="#DejaVuSans-20" x="650.634766"/>
      </g>
      <!--  Update type a -->
      <g transform="translate(221.189844 378.23625) scale(0.1 -0.1)">
       <defs>
        <path id="DejaVuSans-55" d="M 556 4666 
L 1191 4666 
L 1191 1831 
Q 1191 1081 1462 751 
Q 1734 422 2344 422 
Q 2950 422 3222 751 
Q 3494 1081 3494 1831 
L 3494 4666 
L 4128 4666 
L 4128 1753 
Q 4128 841 3676 375 
Q 3225 -91 2344 -91 
Q 1459 -91 1007 375 
Q 556 841 556 1753 
L 556 4666 
z
" transform="scale(0.015625)"/>
        <path id="DejaVuSans-64" d="M 2906 2969 
L 2906 4863 
L 3481 4863 
L 3481 0 
L 2906 0 
L 2906 525 
Q 2725 213 2448 61 
Q 2172 -91 1784 -91 
Q 1150 -91 751 415 
Q 353 922 353 1747 
Q 353 2572 751 3078 
Q 1150 3584 1784 3584 
Q 2172 3584 2448 3432 
Q 2725 3281 2906 2969 
z
M 947 1747 
Q 947 1113 1208 752 
Q 1469 391 1925 391 
Q 2381 391 2643 752 
Q 2906 1113 2906 1747 
Q 2906 2381 2643 2742 
Q 2381 3103 1925 3103 
Q 1469 3103 1208 2742 
Q 947 2381 947 1747 
z
" transform="scale(0.015625)"/>
        <path id="DejaVuSans-61" d="M 2194 1759 
Q 1497 1759 1228 1600 
Q 959 1441 959 1056 
Q 959 750 1161 570 
Q 1363 391 1709 391 
Q 2188 391 2477 730 
Q 2766 1069 2766 1631 
L 2766 1759 
L 2194 1759 
z
M 3341 1997 
L 3341 0 
L 2766 0 
L 2766 531 
Q 2569 213 2275 61 
Q 1981 -91 1556 -91 
Q 1019 -91 701 211 
Q 384 513 384 1019 
Q 384 1609 779 1909 
Q 1175 2209 1959 2209 
L 2766 2209 
L 2766 2266 
Q 2766 2663 2505 2880 
Q 2244 3097 1772 3097 
Q 1472 3097 1187 3025 
Q 903 2953 641 2809 
L 641 3341 
Q 956 3463 1253 3523 
Q 1550 3584 1831 3584 
Q 2591 3584 2966 3190 
Q 3341 2797 3341 1997 
z
" transform="scale(0.015625)"/>
        <path id="DejaVuSans-79" d="M 2059 -325 
Q 1816 -950 1584 -1140 
Q 1353 -1331 966 -1331 
L 506 -1331 
L 506 -850 
L 844 -850 
Q 1081 -850 1212 -737 
Q 1344 -625 1503 -206 
L 1606 56 
L 191 3500 
L 800 3500 
L 1894 763 
L 2988 3500 
L 3597 3500 
L 2059 -325 
z
" transform="scale(0.015625)"/>
       </defs>
       <use xlink:href="#DejaVuSans-20"/>
       <use xlink:href="#DejaVuSans-55" x="31.787109"/>
       <use xlink:href="#DejaVuSans-70" x="104.980469"/>
       <use xlink:href="#DejaVuSans-64" x="168.457031"/>
       <use xlink:href="#DejaVuSans-61" x="231.933594"/>
       <use xlink:href="#DejaVuSans-74" x="293.212891"/>
       <use xlink:href="#DejaVuSans-65" x="332.421875"/>
       <use xlink:href="#DejaVuSans-20" x="393.945312"/>
       <use xlink:href="#DejaVuSans-74" x="425.732422"/>
       <use xlink:href="#DejaVuSans-79" x="464.941406"/>
       <use xlink:href="#DejaVuSans-70" x="524.121094"/>
       <use xlink:href="#DejaVuSans-65" x="587.597656"/>
       <use xlink:href="#DejaVuSans-20" x="649.121094"/>
       <use xlink:href="#DejaVuSans-61" x="680.908203"/>
      </g>
     </g>
    </g>
    <g id="xtick_3">
     <g id="line2d_3">
      <g>
       <use xlink:href="#m19cad8b084" x="388.5" y="352.44" style="stroke: #000000; stroke-width: 0.8"/>
      </g>
     </g>
     <g id="text_3">
      <!-- n-step DQTM  -->
      <g transform="translate(354.379687 367.038437) scale(0.1 -0.1)">
       <use xlink:href="#DejaVuSans-6e"/>
       <use xlink:href="#DejaVuSans-2d" x="63.378906"/>
       <use xlink:href="#DejaVuSans-73" x="99.462891"/>
       <use xlink:href="#DejaVuSans-74" x="151.5625"/>
       <use xlink:href="#DejaVuSans-65" x="190.771484"/>
       <use xlink:href="#DejaVuSans-70" x="252.294922"/>
       <use xlink:href="#DejaVuSans-20" x="315.771484"/>
       <use xlink:href="#DejaVuSans-44" x="347.558594"/>
       <use xlink:href="#DejaVuSans-51" x="424.560547"/>
       <use xlink:href="#DejaVuSans-54" x="503.271484"/>
       <use xlink:href="#DejaVuSans-4d" x="564.355469"/>
       <use xlink:href="#DejaVuSans-20" x="650.634766"/>
      </g>
      <!--  Update type b -->
      <g transform="translate(351.279688 378.23625) scale(0.1 -0.1)">
       <defs>
        <path id="DejaVuSans-62" d="M 3116 1747 
Q 3116 2381 2855 2742 
Q 2594 3103 2138 3103 
Q 1681 3103 1420 2742 
Q 1159 2381 1159 1747 
Q 1159 1113 1420 752 
Q 1681 391 2138 391 
Q 2594 391 2855 752 
Q 3116 1113 3116 1747 
z
M 1159 2969 
Q 1341 3281 1617 3432 
Q 1894 3584 2278 3584 
Q 2916 3584 3314 3078 
Q 3713 2572 3713 1747 
Q 3713 922 3314 415 
Q 2916 -91 2278 -91 
Q 1894 -91 1617 61 
Q 1341 213 1159 525 
L 1159 0 
L 581 0 
L 581 4863 
L 1159 4863 
L 1159 2969 
z
" transform="scale(0.015625)"/>
       </defs>
       <use xlink:href="#DejaVuSans-20"/>
       <use xlink:href="#DejaVuSans-55" x="31.787109"/>
       <use xlink:href="#DejaVuSans-70" x="104.980469"/>
       <use xlink:href="#DejaVuSans-64" x="168.457031"/>
       <use xlink:href="#DejaVuSans-61" x="231.933594"/>
       <use xlink:href="#DejaVuSans-74" x="293.212891"/>
       <use xlink:href="#DejaVuSans-65" x="332.421875"/>
       <use xlink:href="#DejaVuSans-20" x="393.945312"/>
       <use xlink:href="#DejaVuSans-74" x="425.732422"/>
       <use xlink:href="#DejaVuSans-79" x="464.941406"/>
       <use xlink:href="#DejaVuSans-70" x="524.121094"/>
       <use xlink:href="#DejaVuSans-65" x="587.597656"/>
       <use xlink:href="#DejaVuSans-20" x="649.121094"/>
       <use xlink:href="#DejaVuSans-62" x="680.908203"/>
      </g>
     </g>
    </g>
    <g id="text_4">
     <!-- Algorithm -->
     <g transform="translate(233.813281 391.914375) scale(0.1 -0.1)">
      <defs>
       <path id="DejaVuSans-41" d="M 2188 4044 
L 1331 1722 
L 3047 1722 
L 2188 4044 
z
M 1831 4666 
L 2547 4666 
L 4325 0 
L 3669 0 
L 3244 1197 
L 1141 1197 
L 716 0 
L 50 0 
L 1831 4666 
z
" transform="scale(0.015625)"/>
       <path id="DejaVuSans-6c" d="M 603 4863 
L 1178 4863 
L 1178 0 
L 603 0 
L 603 4863 
z
" transform="scale(0.015625)"/>
       <path id="DejaVuSans-67" d="M 2906 1791 
Q 2906 2416 2648 2759 
Q 2391 3103 1925 3103 
Q 1463 3103 1205 2759 
Q 947 2416 947 1791 
Q 947 1169 1205 825 
Q 1463 481 1925 481 
Q 2391 481 2648 825 
Q 2906 1169 2906 1791 
z
M 3481 434 
Q 3481 -459 3084 -895 
Q 2688 -1331 1869 -1331 
Q 1566 -1331 1297 -1286 
Q 1028 -1241 775 -1147 
L 775 -588 
Q 1028 -725 1275 -790 
Q 1522 -856 1778 -856 
Q 2344 -856 2625 -561 
Q 2906 -266 2906 331 
L 2906 616 
Q 2728 306 2450 153 
Q 2172 0 1784 0 
Q 1141 0 747 490 
Q 353 981 353 1791 
Q 353 2603 747 3093 
Q 1141 3584 1784 3584 
Q 2172 3584 2450 3431 
Q 2728 3278 2906 2969 
L 2906 3500 
L 3481 3500 
L 3481 434 
z
" transform="scale(0.015625)"/>
       <path id="DejaVuSans-6f" d="M 1959 3097 
Q 1497 3097 1228 2736 
Q 959 2375 959 1747 
Q 959 1119 1226 758 
Q 1494 397 1959 397 
Q 2419 397 2687 759 
Q 2956 1122 2956 1747 
Q 2956 2369 2687 2733 
Q 2419 3097 1959 3097 
z
M 1959 3584 
Q 2709 3584 3137 3096 
Q 3566 2609 3566 1747 
Q 3566 888 3137 398 
Q 2709 -91 1959 -91 
Q 1206 -91 779 398 
Q 353 888 353 1747 
Q 353 2609 779 3096 
Q 1206 3584 1959 3584 
z
" transform="scale(0.015625)"/>
       <path id="DejaVuSans-72" d="M 2631 2963 
Q 2534 3019 2420 3045 
Q 2306 3072 2169 3072 
Q 1681 3072 1420 2755 
Q 1159 2438 1159 1844 
L 1159 0 
L 581 0 
L 581 3500 
L 1159 3500 
L 1159 2956 
Q 1341 3275 1631 3429 
Q 1922 3584 2338 3584 
Q 2397 3584 2469 3576 
Q 2541 3569 2628 3553 
L 2631 2963 
z
" transform="scale(0.015625)"/>
       <path id="DejaVuSans-69" d="M 603 3500 
L 1178 3500 
L 1178 0 
L 603 0 
L 603 3500 
z
M 603 4863 
L 1178 4863 
L 1178 4134 
L 603 4134 
L 603 4863 
z
" transform="scale(0.015625)"/>
       <path id="DejaVuSans-68" d="M 3513 2113 
L 3513 0 
L 2938 0 
L 2938 2094 
Q 2938 2591 2744 2837 
Q 2550 3084 2163 3084 
Q 1697 3084 1428 2787 
Q 1159 2491 1159 1978 
L 1159 0 
L 581 0 
L 581 4863 
L 1159 4863 
L 1159 2956 
Q 1366 3272 1645 3428 
Q 1925 3584 2291 3584 
Q 2894 3584 3203 3211 
Q 3513 2838 3513 2113 
z
" transform="scale(0.015625)"/>
       <path id="DejaVuSans-6d" d="M 3328 2828 
Q 3544 3216 3844 3400 
Q 4144 3584 4550 3584 
Q 5097 3584 5394 3201 
Q 5691 2819 5691 2113 
L 5691 0 
L 5113 0 
L 5113 2094 
Q 5113 2597 4934 2840 
Q 4756 3084 4391 3084 
Q 3944 3084 3684 2787 
Q 3425 2491 3425 1978 
L 3425 0 
L 2847 0 
L 2847 2094 
Q 2847 2600 2669 2842 
Q 2491 3084 2119 3084 
Q 1678 3084 1418 2786 
Q 1159 2488 1159 1978 
L 1159 0 
L 581 0 
L 581 3500 
L 1159 3500 
L 1159 2956 
Q 1356 3278 1631 3431 
Q 1906 3584 2284 3584 
Q 2666 3584 2933 3390 
Q 3200 3197 3328 2828 
z
" transform="scale(0.015625)"/>
      </defs>
      <use xlink:href="#DejaVuSans-41"/>
      <use xlink:href="#DejaVuSans-6c" x="68.408203"/>
      <use xlink:href="#DejaVuSans-67" x="96.191406"/>
      <use xlink:href="#DejaVuSans-6f" x="159.667969"/>
      <use xlink:href="#DejaVuSans-72" x="220.849609"/>
      <use xlink:href="#DejaVuSans-69" x="261.962891"/>
      <use xlink:href="#DejaVuSans-74" x="289.746094"/>
      <use xlink:href="#DejaVuSans-68" x="328.955078"/>
      <use xlink:href="#DejaVuSans-6d" x="392.333984"/>
     </g>
    </g>
   </g>
   <g id="matplotlib.axis_2">
    <g id="ytick_1">
     <g id="line2d_4">
      <path d="M 63 350.851753 
L 453.6 350.851753 
" clip-path="url(#ped519b4e95)" style="fill: none; stroke-dasharray: 2.96,1.28; stroke-dashoffset: 0; stroke: #b0b0b0; stroke-width: 0.8"/>
     </g>
     <g id="line2d_5">
      <defs>
       <path id="m574b52c627" d="M 0 0 
L -3.5 0 
" style="stroke: #000000; stroke-width: 0.8"/>
      </defs>
      <g>
       <use xlink:href="#m574b52c627" x="63" y="350.851753" style="stroke: #000000; stroke-width: 0.8"/>
      </g>
     </g>
     <g id="text_5">
      <!-- −600 -->
      <g transform="translate(28.532812 354.650971) scale(0.1 -0.1)">
       <defs>
        <path id="DejaVuSans-2212" d="M 678 2272 
L 4684 2272 
L 4684 1741 
L 678 1741 
L 678 2272 
z
" transform="scale(0.015625)"/>
        <path id="DejaVuSans-36" d="M 2113 2584 
Q 1688 2584 1439 2293 
Q 1191 2003 1191 1497 
Q 1191 994 1439 701 
Q 1688 409 2113 409 
Q 2538 409 2786 701 
Q 3034 994 3034 1497 
Q 3034 2003 2786 2293 
Q 2538 2584 2113 2584 
z
M 3366 4563 
L 3366 3988 
Q 3128 4100 2886 4159 
Q 2644 4219 2406 4219 
Q 1781 4219 1451 3797 
Q 1122 3375 1075 2522 
Q 1259 2794 1537 2939 
Q 1816 3084 2150 3084 
Q 2853 3084 3261 2657 
Q 3669 2231 3669 1497 
Q 3669 778 3244 343 
Q 2819 -91 2113 -91 
Q 1303 -91 875 529 
Q 447 1150 447 2328 
Q 447 3434 972 4092 
Q 1497 4750 2381 4750 
Q 2619 4750 2861 4703 
Q 3103 4656 3366 4563 
z
" transform="scale(0.015625)"/>
        <path id="DejaVuSans-30" d="M 2034 4250 
Q 1547 4250 1301 3770 
Q 1056 3291 1056 2328 
Q 1056 1369 1301 889 
Q 1547 409 2034 409 
Q 2525 409 2770 889 
Q 3016 1369 3016 2328 
Q 3016 3291 2770 3770 
Q 2525 4250 2034 4250 
z
M 2034 4750 
Q 2819 4750 3233 4129 
Q 3647 3509 3647 2328 
Q 3647 1150 3233 529 
Q 2819 -91 2034 -91 
Q 1250 -91 836 529 
Q 422 1150 422 2328 
Q 422 3509 836 4129 
Q 1250 4750 2034 4750 
z
" transform="scale(0.015625)"/>
       </defs>
       <use xlink:href="#DejaVuSans-2212"/>
       <use xlink:href="#DejaVuSans-36" x="83.789062"/>
       <use xlink:href="#DejaVuSans-30" x="147.412109"/>
       <use xlink:href="#DejaVuSans-30" x="211.035156"/>
      </g>
     </g>
    </g>
    <g id="ytick_2">
     <g id="line2d_6">
      <path d="M 63 301.915877 
L 453.6 301.915877 
" clip-path="url(#ped519b4e95)" style="fill: none; stroke-dasharray: 2.96,1.28; stroke-dashoffset: 0; stroke: #b0b0b0; stroke-width: 0.8"/>
     </g>
     <g id="line2d_7">
      <g>
       <use xlink:href="#m574b52c627" x="63" y="301.915877" style="stroke: #000000; stroke-width: 0.8"/>
      </g>
     </g>
     <g id="text_6">
      <!-- −500 -->
      <g transform="translate(28.532812 305.715095) scale(0.1 -0.1)">
       <defs>
        <path id="DejaVuSans-35" d="M 691 4666 
L 3169 4666 
L 3169 4134 
L 1269 4134 
L 1269 2991 
Q 1406 3038 1543 3061 
Q 1681 3084 1819 3084 
Q 2600 3084 3056 2656 
Q 3513 2228 3513 1497 
Q 3513 744 3044 326 
Q 2575 -91 1722 -91 
Q 1428 -91 1123 -41 
Q 819 9 494 109 
L 494 744 
Q 775 591 1075 516 
Q 1375 441 1709 441 
Q 2250 441 2565 725 
Q 2881 1009 2881 1497 
Q 2881 1984 2565 2268 
Q 2250 2553 1709 2553 
Q 1456 2553 1204 2497 
Q 953 2441 691 2322 
L 691 4666 
z
" transform="scale(0.015625)"/>
       </defs>
       <use xlink:href="#DejaVuSans-2212"/>
       <use xlink:href="#DejaVuSans-35" x="83.789062"/>
       <use xlink:href="#DejaVuSans-30" x="147.412109"/>
       <use xlink:href="#DejaVuSans-30" x="211.035156"/>
      </g>
     </g>
    </g>
    <g id="ytick_3">
     <g id="line2d_8">
      <path d="M 63 252.980001 
L 453.6 252.980001 
" clip-path="url(#ped519b4e95)" style="fill: none; stroke-dasharray: 2.96,1.28; stroke-dashoffset: 0; stroke: #b0b0b0; stroke-width: 0.8"/>
     </g>
     <g id="line2d_9">
      <g>
       <use xlink:href="#m574b52c627" x="63" y="252.980001" style="stroke: #000000; stroke-width: 0.8"/>
      </g>
     </g>
     <g id="text_7">
      <!-- −400 -->
      <g transform="translate(28.532812 256.779219) scale(0.1 -0.1)">
       <defs>
        <path id="DejaVuSans-34" d="M 2419 4116 
L 825 1625 
L 2419 1625 
L 2419 4116 
z
M 2253 4666 
L 3047 4666 
L 3047 1625 
L 3713 1625 
L 3713 1100 
L 3047 1100 
L 3047 0 
L 2419 0 
L 2419 1100 
L 313 1100 
L 313 1709 
L 2253 4666 
z
" transform="scale(0.015625)"/>
       </defs>
       <use xlink:href="#DejaVuSans-2212"/>
       <use xlink:href="#DejaVuSans-34" x="83.789062"/>
       <use xlink:href="#DejaVuSans-30" x="147.412109"/>
       <use xlink:href="#DejaVuSans-30" x="211.035156"/>
      </g>
     </g>
    </g>
    <g id="ytick_4">
     <g id="line2d_10">
      <path d="M 63 204.044125 
L 453.6 204.044125 
" clip-path="url(#ped519b4e95)" style="fill: none; stroke-dasharray: 2.96,1.28; stroke-dashoffset: 0; stroke: #b0b0b0; stroke-width: 0.8"/>
     </g>
     <g id="line2d_11">
      <g>
       <use xlink:href="#m574b52c627" x="63" y="204.044125" style="stroke: #000000; stroke-width: 0.8"/>
      </g>
     </g>
     <g id="text_8">
      <!-- −300 -->
      <g transform="translate(28.532812 207.843343) scale(0.1 -0.1)">
       <defs>
        <path id="DejaVuSans-33" d="M 2597 2516 
Q 3050 2419 3304 2112 
Q 3559 1806 3559 1356 
Q 3559 666 3084 287 
Q 2609 -91 1734 -91 
Q 1441 -91 1130 -33 
Q 819 25 488 141 
L 488 750 
Q 750 597 1062 519 
Q 1375 441 1716 441 
Q 2309 441 2620 675 
Q 2931 909 2931 1356 
Q 2931 1769 2642 2001 
Q 2353 2234 1838 2234 
L 1294 2234 
L 1294 2753 
L 1863 2753 
Q 2328 2753 2575 2939 
Q 2822 3125 2822 3475 
Q 2822 3834 2567 4026 
Q 2313 4219 1838 4219 
Q 1578 4219 1281 4162 
Q 984 4106 628 3988 
L 628 4550 
Q 988 4650 1302 4700 
Q 1616 4750 1894 4750 
Q 2613 4750 3031 4423 
Q 3450 4097 3450 3541 
Q 3450 3153 3228 2886 
Q 3006 2619 2597 2516 
z
" transform="scale(0.015625)"/>
       </defs>
       <use xlink:href="#DejaVuSans-2212"/>
       <use xlink:href="#DejaVuSans-33" x="83.789062"/>
       <use xlink:href="#DejaVuSans-30" x="147.412109"/>
       <use xlink:href="#DejaVuSans-30" x="211.035156"/>
      </g>
     </g>
    </g>
    <g id="ytick_5">
     <g id="line2d_12">
      <path d="M 63 155.108248 
L 453.6 155.108248 
" clip-path="url(#ped519b4e95)" style="fill: none; stroke-dasharray: 2.96,1.28; stroke-dashoffset: 0; stroke: #b0b0b0; stroke-width: 0.8"/>
     </g>
     <g id="line2d_13">
      <g>
       <use xlink:href="#m574b52c627" x="63" y="155.108248" style="stroke: #000000; stroke-width: 0.8"/>
      </g>
     </g>
     <g id="text_9">
      <!-- −200 -->
      <g transform="translate(28.532812 158.907467) scale(0.1 -0.1)">
       <defs>
        <path id="DejaVuSans-32" d="M 1228 531 
L 3431 531 
L 3431 0 
L 469 0 
L 469 531 
Q 828 903 1448 1529 
Q 2069 2156 2228 2338 
Q 2531 2678 2651 2914 
Q 2772 3150 2772 3378 
Q 2772 3750 2511 3984 
Q 2250 4219 1831 4219 
Q 1534 4219 1204 4116 
Q 875 4013 500 3803 
L 500 4441 
Q 881 4594 1212 4672 
Q 1544 4750 1819 4750 
Q 2544 4750 2975 4387 
Q 3406 4025 3406 3419 
Q 3406 3131 3298 2873 
Q 3191 2616 2906 2266 
Q 2828 2175 2409 1742 
Q 1991 1309 1228 531 
z
" transform="scale(0.015625)"/>
       </defs>
       <use xlink:href="#DejaVuSans-2212"/>
       <use xlink:href="#DejaVuSans-32" x="83.789062"/>
       <use xlink:href="#DejaVuSans-30" x="147.412109"/>
       <use xlink:href="#DejaVuSans-30" x="211.035156"/>
      </g>
     </g>
    </g>
    <g id="ytick_6">
     <g id="line2d_14">
      <path d="M 63 106.172372 
L 453.6 106.172372 
" clip-path="url(#ped519b4e95)" style="fill: none; stroke-dasharray: 2.96,1.28; stroke-dashoffset: 0; stroke: #b0b0b0; stroke-width: 0.8"/>
     </g>
     <g id="line2d_15">
      <g>
       <use xlink:href="#m574b52c627" x="63" y="106.172372" style="stroke: #000000; stroke-width: 0.8"/>
      </g>
     </g>
     <g id="text_10">
      <!-- −100 -->
      <g transform="translate(28.532812 109.971591) scale(0.1 -0.1)">
       <defs>
        <path id="DejaVuSans-31" d="M 794 531 
L 1825 531 
L 1825 4091 
L 703 3866 
L 703 4441 
L 1819 4666 
L 2450 4666 
L 2450 531 
L 3481 531 
L 3481 0 
L 794 0 
L 794 531 
z
" transform="scale(0.015625)"/>
       </defs>
       <use xlink:href="#DejaVuSans-2212"/>
       <use xlink:href="#DejaVuSans-31" x="83.789062"/>
       <use xlink:href="#DejaVuSans-30" x="147.412109"/>
       <use xlink:href="#DejaVuSans-30" x="211.035156"/>
      </g>
     </g>
    </g>
    <g id="ytick_7">
     <g id="line2d_16">
      <path d="M 63 57.236496 
L 453.6 57.236496 
" clip-path="url(#ped519b4e95)" style="fill: none; stroke-dasharray: 2.96,1.28; stroke-dashoffset: 0; stroke: #b0b0b0; stroke-width: 0.8"/>
     </g>
     <g id="line2d_17">
      <g>
       <use xlink:href="#m574b52c627" x="63" y="57.236496" style="stroke: #000000; stroke-width: 0.8"/>
      </g>
     </g>
     <g id="text_11">
      <!-- 0 -->
      <g transform="translate(49.6375 61.035715) scale(0.1 -0.1)">
       <use xlink:href="#DejaVuSans-30"/>
      </g>
     </g>
    </g>
    <g id="text_12">
     <!-- Mean rewards -->
     <g transform="translate(22.453125 235.112031) rotate(-90) scale(0.1 -0.1)">
      <defs>
       <path id="DejaVuSans-77" d="M 269 3500 
L 844 3500 
L 1563 769 
L 2278 3500 
L 2956 3500 
L 3675 769 
L 4391 3500 
L 4966 3500 
L 4050 0 
L 3372 0 
L 2619 2869 
L 1863 0 
L 1184 0 
L 269 3500 
z
" transform="scale(0.015625)"/>
      </defs>
      <use xlink:href="#DejaVuSans-4d"/>
      <use xlink:href="#DejaVuSans-65" x="86.279297"/>
      <use xlink:href="#DejaVuSans-61" x="147.802734"/>
      <use xlink:href="#DejaVuSans-6e" x="209.082031"/>
      <use xlink:href="#DejaVuSans-20" x="272.460938"/>
      <use xlink:href="#DejaVuSans-72" x="304.248047"/>
      <use xlink:href="#DejaVuSans-65" x="343.111328"/>
      <use xlink:href="#DejaVuSans-77" x="404.634766"/>
      <use xlink:href="#DejaVuSans-61" x="486.421875"/>
      <use xlink:href="#DejaVuSans-72" x="547.701172"/>
      <use xlink:href="#DejaVuSans-64" x="587.064453"/>
      <use xlink:href="#DejaVuSans-73" x="650.541016"/>
     </g>
    </g>
   </g>
   <g id="line2d_18">
    <path d="M 128.1 115.019979 
L 128.1 95.763712 
" clip-path="url(#ped519b4e95)" style="fill: none; stroke: #3d3d3d; stroke-width: 1.5; stroke-linecap: square"/>
   </g>
   <g id="line2d_19">
    <path d="M 128.1 105.136155 
L 128.1 98.35976 
" clip-path="url(#ped519b4e95)" style="fill: none; stroke: #3d3d3d; stroke-width: 4.5; stroke-linecap: square"/>
   </g>
   <g id="line2d_20">
    <path d="M 258.3 134.153906 
L 258.3 95.915413 
" clip-path="url(#ped519b4e95)" style="fill: none; stroke: #3d3d3d; stroke-width: 1.5; stroke-linecap: square"/>
   </g>
   <g id="line2d_21">
    <path d="M 258.3 114.086527 
L 258.3 99.068107 
" clip-path="url(#ped519b4e95)" style="fill: none; stroke: #3d3d3d; stroke-width: 4.5; stroke-linecap: square"/>
   </g>
   <g id="line2d_22">
    <path d="M 388.5 301.915877 
L 388.5 98.044123 
" clip-path="url(#ped519b4e95)" style="fill: none; stroke: #3d3d3d; stroke-width: 1.5; stroke-linecap: square"/>
   </g>
   <g id="line2d_23">
    <path d="M 388.5 227.452601 
L 388.5 113.617966 
" clip-path="url(#ped519b4e95)" style="fill: none; stroke: #3d3d3d; stroke-width: 4.5; stroke-linecap: square"/>
   </g>
   <g id="patch_3">
    <path d="M 63 352.44 
L 63 47.52 
" style="fill: none; stroke: #000000; stroke-width: 0.8; stroke-linejoin: miter; stroke-linecap: square"/>
   </g>
   <g id="patch_4">
    <path d="M 453.6 352.44 
L 453.6 47.52 
" style="fill: none; stroke: #000000; stroke-width: 0.8; stroke-linejoin: miter; stroke-linecap: square"/>
   </g>
   <g id="patch_5">
    <path d="M 63 352.44 
L 453.6 352.44 
" style="fill: none; stroke: #000000; stroke-width: 0.8; stroke-linejoin: miter; stroke-linecap: square"/>
   </g>
   <g id="patch_6">
    <path d="M 63 47.52 
L 453.6 47.52 
" style="fill: none; stroke: #000000; stroke-width: 0.8; stroke-linejoin: miter; stroke-linecap: square"/>
   </g>
   <g id="PathCollection_1">
    <defs>
     <path id="madeec4ef25" d="M 0 1.5 
C 0.397805 1.5 0.77937 1.341951 1.06066 1.06066 
C 1.341951 0.77937 1.5 0.397805 1.5 0 
C 1.5 -0.397805 1.341951 -0.77937 1.06066 -1.06066 
C 0.77937 -1.341951 0.397805 -1.5 0 -1.5 
C -0.397805 -1.5 -0.77937 -1.341951 -1.06066 -1.06066 
C -1.341951 -0.77937 -1.5 -0.397805 -1.5 0 
C -1.5 0.397805 -1.341951 0.77937 -1.06066 1.06066 
C -0.77937 1.341951 -0.397805 1.5 0 1.5 
z
" style="stroke: #3d3d3d"/>
    </defs>
    <g clip-path="url(#ped519b4e95)">
     <use xlink:href="#madeec4ef25" x="128.1" y="100.16794" style="fill: #ffffff; stroke: #3d3d3d"/>
    </g>
   </g>
   <g id="PathCollection_2">
    <g clip-path="url(#ped519b4e95)">
     <use xlink:href="#madeec4ef25" x="258.3" y="105.120251" style="fill: #ffffff; stroke: #3d3d3d"/>
    </g>
   </g>
   <g id="PathCollection_3">
    <g clip-path="url(#ped519b4e95)">
     <use xlink:href="#madeec4ef25" x="388.5" y="169.938266" style="fill: #ffffff; stroke: #3d3d3d"/>
    </g>
   </g>
   <g id="text_13">
    <!-- Acrobot - n-step Q-Tsetlin-Machine -->
    <g transform="translate(155.567813 41.52) scale(0.12 -0.12)">
     <defs>
      <path id="DejaVuSans-63" d="M 3122 3366 
L 3122 2828 
Q 2878 2963 2633 3030 
Q 2388 3097 2138 3097 
Q 1578 3097 1268 2742 
Q 959 2388 959 1747 
Q 959 1106 1268 751 
Q 1578 397 2138 397 
Q 2388 397 2633 464 
Q 2878 531 3122 666 
L 3122 134 
Q 2881 22 2623 -34 
Q 2366 -91 2075 -91 
Q 1284 -91 818 406 
Q 353 903 353 1747 
Q 353 2603 823 3093 
Q 1294 3584 2113 3584 
Q 2378 3584 2631 3529 
Q 2884 3475 3122 3366 
z
" transform="scale(0.015625)"/>
     </defs>
     <use xlink:href="#DejaVuSans-41"/>
     <use xlink:href="#DejaVuSans-63" x="66.658203"/>
     <use xlink:href="#DejaVuSans-72" x="121.638672"/>
     <use xlink:href="#DejaVuSans-6f" x="160.501953"/>
     <use xlink:href="#DejaVuSans-62" x="221.683594"/>
     <use xlink:href="#DejaVuSans-6f" x="285.160156"/>
     <use xlink:href="#DejaVuSans-74" x="346.341797"/>
     <use xlink:href="#DejaVuSans-20" x="385.550781"/>
     <use xlink:href="#DejaVuSans-2d" x="417.337891"/>
     <use xlink:href="#DejaVuSans-20" x="453.421875"/>
     <use xlink:href="#DejaVuSans-6e" x="485.208984"/>
     <use xlink:href="#DejaVuSans-2d" x="548.587891"/>
     <use xlink:href="#DejaVuSans-73" x="584.671875"/>
     <use xlink:href="#DejaVuSans-74" x="636.771484"/>
     <use xlink:href="#DejaVuSans-65" x="675.980469"/>
     <use xlink:href="#DejaVuSans-70" x="737.503906"/>
     <use xlink:href="#DejaVuSans-20" x="800.980469"/>
     <use xlink:href="#DejaVuSans-51" x="832.767578"/>
     <use xlink:href="#DejaVuSans-2d" x="914.228516"/>
     <use xlink:href="#DejaVuSans-54" x="941.1875"/>
     <use xlink:href="#DejaVuSans-73" x="985.771484"/>
     <use xlink:href="#DejaVuSans-65" x="1037.871094"/>
     <use xlink:href="#DejaVuSans-74" x="1099.394531"/>
     <use xlink:href="#DejaVuSans-6c" x="1138.603516"/>
     <use xlink:href="#DejaVuSans-69" x="1166.386719"/>
     <use xlink:href="#DejaVuSans-6e" x="1194.169922"/>
     <use xlink:href="#DejaVuSans-2d" x="1257.548828"/>
     <use xlink:href="#DejaVuSans-4d" x="1293.632812"/>
     <use xlink:href="#DejaVuSans-61" x="1379.912109"/>
     <use xlink:href="#DejaVuSans-63" x="1441.191406"/>
     <use xlink:href="#DejaVuSans-68" x="1496.171875"/>
     <use xlink:href="#DejaVuSans-69" x="1559.550781"/>
     <use xlink:href="#DejaVuSans-6e" x="1587.333984"/>
     <use xlink:href="#DejaVuSans-65" x="1650.712891"/>
    </g>
   </g>
  </g>
 </g>
 <defs>
  <clipPath id="ped519b4e95">
   <rect x="63" y="47.52" width="390.6" height="304.92"/>
  </clipPath>
 </defs>
</svg>
