<?xml version="1.0" encoding="utf-8" standalone="no"?>
<!DOCTYPE svg PUBLIC "-//W3C//DTD SVG 1.1//EN"
  "http://www.w3.org/Graphics/SVG/1.1/DTD/svg11.dtd">
<svg xmlns:xlink="http://www.w3.org/1999/xlink" width="504pt" height="396pt" viewBox="0 0 504 396" xmlns="http://www.w3.org/2000/svg" version="1.1">
 <metadata>
  <rdf:RDF xmlns:dc="http://purl.org/dc/elements/1.1/" xmlns:cc="http://creativecommons.org/ns#" xmlns:rdf="http://www.w3.org/1999/02/22-rdf-syntax-ns#">
   <cc:Work>
    <dc:type rdf:resource="http://purl.org/dc/dcmitype/StillImage"/>
    <dc:date>2024-05-10T14:28:16.441364</dc:date>
    <dc:format>image/svg+xml</dc:format>
    <dc:creator>
     <cc:Agent>
      <dc:title>Matplotlib v3.8.2, https://matplotlib.org/</dc:title>
     </cc:Agent>
    </dc:creator>
   </cc:Work>
  </rdf:RDF>
 </metadata>
 <defs>
  <style type="text/css">*{stroke-linejoin: round; stroke-linecap: butt}</style>
 </defs>
 <g id="figure_1">
  <g id="patch_1">
   <path d="M 0 396 
L 504 396 
L 504 0 
L 0 0 
z
" style="fill: #ffffff"/>
  </g>
  <g id="axes_1">
   <g id="patch_2">
    <path d="M 63 352.44 
L 453.6 352.44 
L 453.6 47.52 
L 63 47.52 
z
" style="fill: #ffffff"/>
   </g>
   <g id="PolyCollection_1">
    <defs>
     <path id="m63b85f24b1" d="M 134.080051 -65.357591 
L 122.119949 -65.357591 
L 119.545419 -67.946637 
L 116.258838 -70.535683 
L 112.238753 -73.124729 
L 107.537178 -75.713775 
L 102.29538 -78.302821 
L 96.748104 -80.891868 
L 91.212124 -83.480914 
L 86.057898 -86.06996 
L 81.666966 -88.659006 
L 78.381648 -91.248052 
L 76.456307 -93.837098 
L 76.02 -96.426144 
L 77.058357 -99.01519 
L 79.418432 -101.604236 
L 82.83515 -104.193282 
L 86.973314 -106.782328 
L 91.476197 -109.371374 
L 96.011212 -111.96042 
L 100.304934 -114.549467 
L 104.163131 -117.138513 
L 107.475233 -119.727559 
L 110.20589 -122.316605 
L 112.378193 -124.905651 
L 114.053575 -127.494697 
L 115.312656 -130.083743 
L 116.23985 -132.672789 
L 116.912934 -135.261835 
L 117.397461 -137.850881 
L 117.745038 -140.439927 
L 117.99416 -143.028973 
L 118.17236 -145.61802 
L 118.298728 -148.207066 
L 118.386231 -150.796112 
L 118.443575 -153.385158 
L 118.476586 -155.974204 
L 118.489186 -158.56325 
L 118.48407 -161.152296 
L 118.463146 -163.741342 
L 118.427801 -166.330388 
L 118.379014 -168.919434 
L 118.317358 -171.50848 
L 118.242943 -174.097526 
L 118.155365 -176.686572 
L 118.053731 -179.275619 
L 117.936787 -181.864665 
L 117.803172 -184.453711 
L 117.651707 -187.042757 
L 117.481681 -189.631803 
L 117.29301 -192.220849 
L 117.086228 -194.809895 
L 116.862281 -197.398941 
L 116.622199 -199.987987 
L 116.366714 -202.577033 
L 116.095978 -205.166079 
L 115.809474 -207.755125 
L 115.50618 -210.344171 
L 115.185008 -212.933218 
L 114.845409 -215.522264 
L 114.488054 -218.11131 
L 114.115407 -220.700356 
L 113.732057 -223.289402 
L 113.344693 -225.878448 
L 112.961705 -228.467494 
L 112.59244 -231.05654 
L 112.246281 -233.645586 
L 111.931749 -236.234632 
L 111.655842 -238.823678 
L 111.423833 -241.412724 
L 111.239602 -244.001771 
L 111.106485 -246.590817 
L 111.028474 -249.179863 
L 111.011485 -251.768909 
L 111.064337 -254.357955 
L 111.199128 -256.947001 
L 111.430756 -259.536047 
L 111.775511 -262.125093 
L 112.248852 -264.714139 
L 112.862685 -267.303185 
L 113.622587 -269.892231 
L 114.525527 -272.481277 
L 115.558529 -275.070323 
L 116.698643 -277.65937 
L 117.914295 -280.248416 
L 119.167871 -282.837462 
L 120.419146 -285.426508 
L 121.629003 -288.015554 
L 122.762887 -290.6046 
L 123.793499 -293.193646 
L 124.702405 -295.782692 
L 125.480471 -298.371738 
L 126.127222 -300.960784 
L 126.649383 -303.54983 
L 127.058939 -306.138876 
L 127.371069 -308.727922 
L 127.602231 -311.316969 
L 127.768605 -313.906015 
L 127.884973 -316.495061 
L 127.96407 -319.084107 
L 128.016311 -321.673153 
L 128.183689 -321.673153 
L 128.183689 -321.673153 
L 128.23593 -319.084107 
L 128.315027 -316.495061 
L 128.431395 -313.906015 
L 128.597769 -311.316969 
L 128.828931 -308.727922 
L 129.141061 -306.138876 
L 129.550617 -303.54983 
L 130.072778 -300.960784 
L 130.719529 -298.371738 
L 131.497595 -295.782692 
L 132.406501 -293.193646 
L 133.437113 -290.6046 
L 134.570997 -288.015554 
L 135.780854 -285.426508 
L 137.032129 -282.837462 
L 138.285705 -280.248416 
L 139.501357 -277.65937 
L 140.641471 -275.070323 
L 141.674473 -272.481277 
L 142.577413 -269.892231 
L 143.337315 -267.303185 
L 143.951148 -264.714139 
L 144.424489 -262.125093 
L 144.769244 -259.536047 
L 145.000872 -256.947001 
L 145.135663 -254.357955 
L 145.188515 -251.768909 
L 145.171526 -249.179863 
L 145.093515 -246.590817 
L 144.960398 -244.001771 
L 144.776167 -241.412724 
L 144.544158 -238.823678 
L 144.268251 -236.234632 
L 143.953719 -233.645586 
L 143.60756 -231.05654 
L 143.238295 -228.467494 
L 142.855307 -225.878448 
L 142.467943 -223.289402 
L 142.084593 -220.700356 
L 141.711946 -218.11131 
L 141.354591 -215.522264 
L 141.014992 -212.933218 
L 140.69382 -210.344171 
L 140.390526 -207.755125 
L 140.104022 -205.166079 
L 139.833286 -202.577033 
L 139.577801 -199.987987 
L 139.337719 -197.398941 
L 139.113772 -194.809895 
L 138.90699 -192.220849 
L 138.718319 -189.631803 
L 138.548293 -187.042757 
L 138.396828 -184.453711 
L 138.263213 -181.864665 
L 138.146269 -179.275619 
L 138.044635 -176.686572 
L 137.957057 -174.097526 
L 137.882642 -171.50848 
L 137.820986 -168.919434 
L 137.772199 -166.330388 
L 137.736854 -163.741342 
L 137.71593 -161.152296 
L 137.710814 -158.56325 
L 137.723414 -155.974204 
L 137.756425 -153.385158 
L 137.813769 -150.796112 
L 137.901272 -148.207066 
L 138.02764 -145.61802 
L 138.20584 -143.028973 
L 138.454962 -140.439927 
L 138.802539 -137.850881 
L 139.287066 -135.261835 
L 139.96015 -132.672789 
L 140.887344 -130.083743 
L 142.146425 -127.494697 
L 143.821807 -124.905651 
L 145.99411 -122.316605 
L 148.724767 -119.727559 
L 152.036869 -117.138513 
L 155.895066 -114.549467 
L 160.188788 -111.96042 
L 164.723803 -109.371374 
L 169.226686 -106.782328 
L 173.36485 -104.193282 
L 176.781568 -101.604236 
L 179.141643 -99.01519 
L 180.18 -96.426144 
L 179.743693 -93.837098 
L 177.818352 -91.248052 
L 174.533034 -88.659006 
L 170.142102 -86.06996 
L 164.987876 -83.480914 
L 159.451896 -80.891868 
L 153.90462 -78.302821 
L 148.662822 -75.713775 
L 143.961247 -73.124729 
L 139.941162 -70.535683 
L 136.654581 -67.946637 
L 134.080051 -65.357591 
z
" style="stroke: #3d3d3d; stroke-width: 1.5"/>
    </defs>
    <g clip-path="url(#pb6ad34db6e)">
     <use xlink:href="#m63b85f24b1" x="0" y="396" style="fill: #3274a1; stroke: #3d3d3d; stroke-width: 1.5"/>
    </g>
   </g>
   <g id="PolyCollection_2">
    <defs>
     <path id="m2b0ba2595b" d="M 264.064338 -62.779293 
L 252.535662 -62.779293 
L 250.246361 -65.418002 
L 247.367545 -68.056711 
L 243.880251 -70.695421 
L 239.817948 -73.33413 
L 235.278093 -75.972839 
L 230.426766 -78.611549 
L 225.493676 -81.250258 
L 220.756239 -83.888967 
L 216.513588 -86.527677 
L 213.053585 -89.166386 
L 210.617877 -91.805095 
L 209.370986 -94.443805 
L 209.379049 -97.082514 
L 210.602213 -99.721223 
L 212.901993 -102.359933 
L 216.062017 -104.998642 
L 219.818008 -107.637351 
L 223.891405 -110.276061 
L 228.020804 -112.91477 
L 231.98653 -115.553479 
L 235.625543 -118.192189 
L 238.836094 -120.830898 
L 241.573513 -123.469607 
L 243.839748 -126.108317 
L 245.669779 -128.747026 
L 247.117752 -131.385735 
L 248.244976 -134.024445 
L 249.110969 -136.663154 
L 249.767888 -139.301863 
L 250.258023 -141.940573 
L 250.613674 -144.579282 
L 250.858577 -147.217991 
L 251.010126 -149.8567 
L 251.081756 -152.49541 
L 251.085055 -155.134119 
L 251.031329 -157.772828 
L 250.932489 -160.411538 
L 250.801281 -163.050247 
L 250.650935 -165.688956 
L 250.494422 -168.327666 
L 250.34351 -170.966375 
L 250.207845 -173.605084 
L 250.094221 -176.243794 
L 250.006177 -178.882503 
L 249.943935 -181.521212 
L 249.904679 -184.159922 
L 249.883061 -186.798631 
L 249.871851 -189.43734 
L 249.862606 -192.07605 
L 249.846277 -194.714759 
L 249.813718 -197.353468 
L 249.756063 -199.992178 
L 249.664996 -202.630887 
L 249.532929 -205.269596 
L 249.35313 -207.908306 
L 249.119824 -210.547015 
L 248.828302 -213.185724 
L 248.475067 -215.824434 
L 248.058005 -218.463143 
L 247.576596 -221.101852 
L 247.032123 -223.740562 
L 246.427837 -226.379271 
L 245.769046 -229.01798 
L 245.063081 -231.65669 
L 244.31915 -234.295399 
L 243.548114 -236.934108 
L 242.762238 -239.572818 
L 241.975026 -242.211527 
L 241.201187 -244.850236 
L 240.456791 -247.488946 
L 239.759569 -250.127655 
L 239.129265 -252.766364 
L 238.58787 -255.405074 
L 238.159543 -258.043783 
L 237.870025 -260.682492 
L 237.745422 -263.321202 
L 237.810347 -265.959911 
L 238.085522 -268.59862 
L 238.585132 -271.23733 
L 239.314278 -273.876039 
L 240.266978 -276.514748 
L 241.425101 -279.153458 
L 242.758541 -281.792167 
L 244.226728 -284.430876 
L 245.781384 -287.069586 
L 247.370204 -289.708295 
L 248.940995 -292.347004 
L 250.445724 -294.985714 
L 251.843966 -297.624423 
L 253.105322 -300.263132 
L 254.21062 -302.901842 
L 255.151846 -305.540551 
L 255.930991 -308.17926 
L 256.55812 -310.81797 
L 257.049008 -313.456679 
L 257.422732 -316.095388 
L 257.699491 -318.734098 
L 257.898861 -321.372807 
L 258.038576 -324.011516 
L 258.561424 -324.011516 
L 258.561424 -324.011516 
L 258.701139 -321.372807 
L 258.900509 -318.734098 
L 259.177268 -316.095388 
L 259.550992 -313.456679 
L 260.04188 -310.81797 
L 260.669009 -308.17926 
L 261.448154 -305.540551 
L 262.38938 -302.901842 
L 263.494678 -300.263132 
L 264.756034 -297.624423 
L 266.154276 -294.985714 
L 267.659005 -292.347004 
L 269.229796 -289.708295 
L 270.818616 -287.069586 
L 272.373272 -284.430876 
L 273.841459 -281.792167 
L 275.174899 -279.153458 
L 276.333022 -276.514748 
L 277.285722 -273.876039 
L 278.014868 -271.23733 
L 278.514478 -268.59862 
L 278.789653 -265.959911 
L 278.854578 -263.321202 
L 278.729975 -260.682492 
L 278.440457 -258.043783 
L 278.01213 -255.405074 
L 277.470735 -252.766364 
L 276.840431 -250.127655 
L 276.143209 -247.488946 
L 275.398813 -244.850236 
L 274.624974 -242.211527 
L 273.837762 -239.572818 
L 273.051886 -236.934108 
L 272.28085 -234.295399 
L 271.536919 -231.65669 
L 270.830954 -229.01798 
L 270.172163 -226.379271 
L 269.567877 -223.740562 
L 269.023404 -221.101852 
L 268.541995 -218.463143 
L 268.124933 -215.824434 
L 267.771698 -213.185724 
L 267.480176 -210.547015 
L 267.24687 -207.908306 
L 267.067071 -205.269596 
L 266.935004 -202.630887 
L 266.843937 -199.992178 
L 266.786282 -197.353468 
L 266.753723 -194.714759 
L 266.737394 -192.07605 
L 266.728149 -189.43734 
L 266.716939 -186.798631 
L 266.695321 -184.159922 
L 266.656065 -181.521212 
L 266.593823 -178.882503 
L 266.505779 -176.243794 
L 266.392155 -173.605084 
L 266.25649 -170.966375 
L 266.105578 -168.327666 
L 265.949065 -165.688956 
L 265.798719 -163.050247 
L 265.667511 -160.411538 
L 265.568671 -157.772828 
L 265.514945 -155.134119 
L 265.518244 -152.49541 
L 265.589874 -149.8567 
L 265.741423 -147.217991 
L 265.986326 -144.579282 
L 266.341977 -141.940573 
L 266.832112 -139.301863 
L 267.489031 -136.663154 
L 268.355024 -134.024445 
L 269.482248 -131.385735 
L 270.930221 -128.747026 
L 272.760252 -126.108317 
L 275.026487 -123.469607 
L 277.763906 -120.830898 
L 280.974457 -118.192189 
L 284.61347 -115.553479 
L 288.579196 -112.91477 
L 292.708595 -110.276061 
L 296.781992 -107.637351 
L 300.537983 -104.998642 
L 303.698007 -102.359933 
L 305.997787 -99.721223 
L 307.220951 -97.082514 
L 307.229014 -94.443805 
L 305.982123 -91.805095 
L 303.546415 -89.166386 
L 300.086412 -86.527677 
L 295.843761 -83.888967 
L 291.106324 -81.250258 
L 286.173234 -78.611549 
L 281.321907 -75.972839 
L 276.782052 -73.33413 
L 272.719749 -70.695421 
L 269.232455 -68.056711 
L 266.353639 -65.418002 
L 264.064338 -62.779293 
z
" style="stroke: #3d3d3d; stroke-width: 1.5"/>
    </defs>
    <g clip-path="url(#pb6ad34db6e)">
     <use xlink:href="#m2b0ba2595b" x="0" y="396" style="fill: #e1812c; stroke: #3d3d3d; stroke-width: 1.5"/>
    </g>
   </g>
   <g id="PolyCollection_3">
    <defs>
     <path id="m50327f9b61" d="M 390.752964 -57.42 
L 386.247036 -57.42 
L 385.398747 -60.22 
L 384.325884 -63.02 
L 383.005762 -65.82 
L 381.426284 -68.62 
L 379.589975 -71.42 
L 377.517279 -74.22 
L 375.248458 -77.02 
L 372.843495 -79.82 
L 370.379671 -82.62 
L 367.946758 -85.42 
L 365.640203 -88.22 
L 363.55303 -91.02 
L 361.767461 -93.82 
L 360.347409 -96.62 
L 359.332848 -99.42 
L 358.736883 -102.22 
L 358.545842 -105.02 
L 358.722306 -107.82 
L 359.210508 -110.62 
L 359.943236 -113.42 
L 360.849194 -116.22 
L 361.859827 -119.02 
L 362.914789 -121.82 
L 363.965558 -124.62 
L 364.977027 -127.42 
L 365.927227 -130.22 
L 366.805591 -133.02 
L 367.610289 -135.82 
L 368.345199 -138.62 
L 369.017026 -141.42 
L 369.632933 -144.22 
L 370.198892 -147.02 
L 370.71882 -149.82 
L 371.194411 -152.62 
L 371.625511 -155.42 
L 372.010818 -158.22 
L 372.348702 -161.02 
L 372.637959 -163.82 
L 372.878361 -166.62 
L 373.070912 -169.42 
L 373.217788 -172.22 
L 373.321946 -175.02 
L 373.386497 -177.82 
L 373.413898 -180.62 
L 373.40513 -183.42 
L 373.359016 -186.22 
L 373.271857 -189.02 
L 373.137559 -191.82 
L 372.948386 -194.62 
L 372.696378 -197.42 
L 372.375351 -200.22 
L 371.983284 -203.02 
L 371.524736 -205.82 
L 371.012856 -208.62 
L 370.470536 -211.42 
L 369.930301 -214.22 
L 369.432708 -217.02 
L 369.023253 -219.82 
L 368.748071 -222.62 
L 368.648925 -225.42 
L 368.758199 -228.22 
L 369.094632 -231.02 
L 369.660452 -233.82 
L 370.440368 -236.62 
L 371.402567 -239.42 
L 372.50158 -242.22 
L 373.682572 -245.02 
L 374.886472 -247.82 
L 376.05526 -250.62 
L 377.136834 -253.42 
L 378.088973 -256.22 
L 378.882126 -259.02 
L 379.500925 -261.82 
L 379.944458 -264.62 
L 380.225421 -267.42 
L 380.368326 -270.22 
L 380.406931 -273.02 
L 380.381096 -275.82 
L 380.333259 -278.62 
L 380.30479 -281.42 
L 380.332497 -284.22 
L 380.44561 -287.02 
L 380.663526 -289.82 
L 380.994577 -292.62 
L 381.43595 -295.42 
L 381.974749 -298.22 
L 382.590035 -301.02 
L 383.255556 -303.82 
L 383.942779 -306.62 
L 384.623832 -309.42 
L 385.273995 -312.22 
L 385.873501 -315.02 
L 386.408527 -317.82 
L 386.871373 -320.62 
L 387.259975 -323.42 
L 387.57693 -326.22 
L 387.828264 -329.02 
L 388.022148 -331.82 
L 388.167727 -334.62 
L 388.832273 -334.62 
L 388.832273 -334.62 
L 388.977852 -331.82 
L 389.171736 -329.02 
L 389.42307 -326.22 
L 389.740025 -323.42 
L 390.128627 -320.62 
L 390.591473 -317.82 
L 391.126499 -315.02 
L 391.726005 -312.22 
L 392.376168 -309.42 
L 393.057221 -306.62 
L 393.744444 -303.82 
L 394.409965 -301.02 
L 395.025251 -298.22 
L 395.56405 -295.42 
L 396.005423 -292.62 
L 396.336474 -289.82 
L 396.55439 -287.02 
L 396.667503 -284.22 
L 396.69521 -281.42 
L 396.666741 -278.62 
L 396.618904 -275.82 
L 396.593069 -273.02 
L 396.631674 -270.22 
L 396.774579 -267.42 
L 397.055542 -264.62 
L 397.499075 -261.82 
L 398.117874 -259.02 
L 398.911027 -256.22 
L 399.863166 -253.42 
L 400.94474 -250.62 
L 402.113528 -247.82 
L 403.317428 -245.02 
L 404.49842 -242.22 
L 405.597433 -239.42 
L 406.559632 -236.62 
L 407.339548 -233.82 
L 407.905368 -231.02 
L 408.241801 -228.22 
L 408.351075 -225.42 
L 408.251929 -222.62 
L 407.976747 -219.82 
L 407.567292 -217.02 
L 407.069699 -214.22 
L 406.529464 -211.42 
L 405.987144 -208.62 
L 405.475264 -205.82 
L 405.016716 -203.02 
L 404.624649 -200.22 
L 404.303622 -197.42 
L 404.051614 -194.62 
L 403.862441 -191.82 
L 403.728143 -189.02 
L 403.640984 -186.22 
L 403.59487 -183.42 
L 403.586102 -180.62 
L 403.613503 -177.82 
L 403.678054 -175.02 
L 403.782212 -172.22 
L 403.929088 -169.42 
L 404.121639 -166.62 
L 404.362041 -163.82 
L 404.651298 -161.02 
L 404.989182 -158.22 
L 405.374489 -155.42 
L 405.805589 -152.62 
L 406.28118 -149.82 
L 406.801108 -147.02 
L 407.367067 -144.22 
L 407.982974 -141.42 
L 408.654801 -138.62 
L 409.389711 -135.82 
L 410.194409 -133.02 
L 411.072773 -130.22 
L 412.022973 -127.42 
L 413.034442 -124.62 
L 414.085211 -121.82 
L 415.140173 -119.02 
L 416.150806 -116.22 
L 417.056764 -113.42 
L 417.789492 -110.62 
L 418.277694 -107.82 
L 418.454158 -105.02 
L 418.263117 -102.22 
L 417.667152 -99.42 
L 416.652591 -96.62 
L 415.232539 -93.82 
L 413.44697 -91.02 
L 411.359797 -88.22 
L 409.053242 -85.42 
L 406.620329 -82.62 
L 404.156505 -79.82 
L 401.751542 -77.02 
L 399.482721 -74.22 
L 397.410025 -71.42 
L 395.573716 -68.62 
L 393.994238 -65.82 
L 392.674116 -63.02 
L 391.601253 -60.22 
L 390.752964 -57.42 
z
" style="stroke: #3d3d3d; stroke-width: 1.5"/>
    </defs>
    <g clip-path="url(#pb6ad34db6e)">
     <use xlink:href="#m50327f9b61" x="0" y="396" style="fill: #3a923a; stroke: #3d3d3d; stroke-width: 1.5"/>
    </g>
   </g>
   <g id="matplotlib.axis_1">
    <g id="xtick_1">
     <g id="line2d_1">
      <defs>
       <path id="m9741641a0f" d="M 0 0 
L 0 3.5 
" style="stroke: #000000; stroke-width: 0.8"/>
      </defs>
      <g>
       <use xlink:href="#m9741641a0f" x="128.1" y="352.44" style="stroke: #000000; stroke-width: 0.8"/>
      </g>
     </g>
     <g id="text_1">
      <!-- QTM -->
      <g transform="translate(116.796094 367.038437) scale(0.1 -0.1)">
       <defs>
        <path id="DejaVuSans-51" d="M 2522 4238 
Q 1834 4238 1429 3725 
Q 1025 3213 1025 2328 
Q 1025 1447 1429 934 
Q 1834 422 2522 422 
Q 3209 422 3611 934 
Q 4013 1447 4013 2328 
Q 4013 3213 3611 3725 
Q 3209 4238 2522 4238 
z
M 3406 84 
L 4238 -825 
L 3475 -825 
L 2784 -78 
Q 2681 -84 2626 -87 
Q 2572 -91 2522 -91 
Q 1538 -91 948 567 
Q 359 1225 359 2328 
Q 359 3434 948 4092 
Q 1538 4750 2522 4750 
Q 3503 4750 4090 4092 
Q 4678 3434 4678 2328 
Q 4678 1516 4351 937 
Q 4025 359 3406 84 
z
" transform="scale(0.015625)"/>
        <path id="DejaVuSans-54" d="M -19 4666 
L 3928 4666 
L 3928 4134 
L 2272 4134 
L 2272 0 
L 1638 0 
L 1638 4134 
L -19 4134 
L -19 4666 
z
" transform="scale(0.015625)"/>
        <path id="DejaVuSans-4d" d="M 628 4666 
L 1569 4666 
L 2759 1491 
L 3956 4666 
L 4897 4666 
L 4897 0 
L 4281 0 
L 4281 4097 
L 3078 897 
L 2444 897 
L 1241 4097 
L 1241 0 
L 628 0 
L 628 4666 
z
" transform="scale(0.015625)"/>
       </defs>
       <use xlink:href="#DejaVuSans-51"/>
       <use xlink:href="#DejaVuSans-54" x="78.710938"/>
       <use xlink:href="#DejaVuSans-4d" x="139.794922"/>
      </g>
     </g>
    </g>
    <g id="xtick_2">
     <g id="line2d_2">
      <g>
       <use xlink:href="#m9741641a0f" x="258.3" y="352.44" style="stroke: #000000; stroke-width: 0.8"/>
      </g>
     </g>
     <g id="text_2">
      <!-- DQTM  -->
      <g transform="translate(241.557031 367.038437) scale(0.1 -0.1)">
       <defs>
        <path id="DejaVuSans-44" d="M 1259 4147 
L 1259 519 
L 2022 519 
Q 2988 519 3436 956 
Q 3884 1394 3884 2338 
Q 3884 3275 3436 3711 
Q 2988 4147 2022 4147 
L 1259 4147 
z
M 628 4666 
L 1925 4666 
Q 3281 4666 3915 4102 
Q 4550 3538 4550 2338 
Q 4550 1131 3912 565 
Q 3275 0 1925 0 
L 628 0 
L 628 4666 
z
" transform="scale(0.015625)"/>
        <path id="DejaVuSans-20" transform="scale(0.015625)"/>
       </defs>
       <use xlink:href="#DejaVuSans-44"/>
       <use xlink:href="#DejaVuSans-51" x="77.001953"/>
       <use xlink:href="#DejaVuSans-54" x="155.712891"/>
       <use xlink:href="#DejaVuSans-4d" x="216.796875"/>
       <use xlink:href="#DejaVuSans-20" x="303.076172"/>
      </g>
      <!--  Update type a -->
      <g transform="translate(221.189844 378.23625) scale(0.1 -0.1)">
       <defs>
        <path id="DejaVuSans-55" d="M 556 4666 
L 1191 4666 
L 1191 1831 
Q 1191 1081 1462 751 
Q 1734 422 2344 422 
Q 2950 422 3222 751 
Q 3494 1081 3494 1831 
L 3494 4666 
L 4128 4666 
L 4128 1753 
Q 4128 841 3676 375 
Q 3225 -91 2344 -91 
Q 1459 -91 1007 375 
Q 556 841 556 1753 
L 556 4666 
z
" transform="scale(0.015625)"/>
        <path id="DejaVuSans-70" d="M 1159 525 
L 1159 -1331 
L 581 -1331 
L 581 3500 
L 1159 3500 
L 1159 2969 
Q 1341 3281 1617 3432 
Q 1894 3584 2278 3584 
Q 2916 3584 3314 3078 
Q 3713 2572 3713 1747 
Q 3713 922 3314 415 
Q 2916 -91 2278 -91 
Q 1894 -91 1617 61 
Q 1341 213 1159 525 
z
M 3116 1747 
Q 3116 2381 2855 2742 
Q 2594 3103 2138 3103 
Q 1681 3103 1420 2742 
Q 1159 2381 1159 1747 
Q 1159 1113 1420 752 
Q 1681 391 2138 391 
Q 2594 391 2855 752 
Q 3116 1113 3116 1747 
z
" transform="scale(0.015625)"/>
        <path id="DejaVuSans-64" d="M 2906 2969 
L 2906 4863 
L 3481 4863 
L 3481 0 
L 2906 0 
L 2906 525 
Q 2725 213 2448 61 
Q 2172 -91 1784 -91 
Q 1150 -91 751 415 
Q 353 922 353 1747 
Q 353 2572 751 3078 
Q 1150 3584 1784 3584 
Q 2172 3584 2448 3432 
Q 2725 3281 2906 2969 
z
M 947 1747 
Q 947 1113 1208 752 
Q 1469 391 1925 391 
Q 2381 391 2643 752 
Q 2906 1113 2906 1747 
Q 2906 2381 2643 2742 
Q 2381 3103 1925 3103 
Q 1469 3103 1208 2742 
Q 947 2381 947 1747 
z
" transform="scale(0.015625)"/>
        <path id="DejaVuSans-61" d="M 2194 1759 
Q 1497 1759 1228 1600 
Q 959 1441 959 1056 
Q 959 750 1161 570 
Q 1363 391 1709 391 
Q 2188 391 2477 730 
Q 2766 1069 2766 1631 
L 2766 1759 
L 2194 1759 
z
M 3341 1997 
L 3341 0 
L 2766 0 
L 2766 531 
Q 2569 213 2275 61 
Q 1981 -91 1556 -91 
Q 1019 -91 701 211 
Q 384 513 384 1019 
Q 384 1609 779 1909 
Q 1175 2209 1959 2209 
L 2766 2209 
L 2766 2266 
Q 2766 2663 2505 2880 
Q 2244 3097 1772 3097 
Q 1472 3097 1187 3025 
Q 903 2953 641 2809 
L 641 3341 
Q 956 3463 1253 3523 
Q 1550 3584 1831 3584 
Q 2591 3584 2966 3190 
Q 3341 2797 3341 1997 
z
" transform="scale(0.015625)"/>
        <path id="DejaVuSans-74" d="M 1172 4494 
L 1172 3500 
L 2356 3500 
L 2356 3053 
L 1172 3053 
L 1172 1153 
Q 1172 725 1289 603 
Q 1406 481 1766 481 
L 2356 481 
L 2356 0 
L 1766 0 
Q 1100 0 847 248 
Q 594 497 594 1153 
L 594 3053 
L 172 3053 
L 172 3500 
L 594 3500 
L 594 4494 
L 1172 4494 
z
" transform="scale(0.015625)"/>
        <path id="DejaVuSans-65" d="M 3597 1894 
L 3597 1613 
L 953 1613 
Q 991 1019 1311 708 
Q 1631 397 2203 397 
Q 2534 397 2845 478 
Q 3156 559 3463 722 
L 3463 178 
Q 3153 47 2828 -22 
Q 2503 -91 2169 -91 
Q 1331 -91 842 396 
Q 353 884 353 1716 
Q 353 2575 817 3079 
Q 1281 3584 2069 3584 
Q 2775 3584 3186 3129 
Q 3597 2675 3597 1894 
z
M 3022 2063 
Q 3016 2534 2758 2815 
Q 2500 3097 2075 3097 
Q 1594 3097 1305 2825 
Q 1016 2553 972 2059 
L 3022 2063 
z
" transform="scale(0.015625)"/>
        <path id="DejaVuSans-79" d="M 2059 -325 
Q 1816 -950 1584 -1140 
Q 1353 -1331 966 -1331 
L 506 -1331 
L 506 -850 
L 844 -850 
Q 1081 -850 1212 -737 
Q 1344 -625 1503 -206 
L 1606 56 
L 191 3500 
L 800 3500 
L 1894 763 
L 2988 3500 
L 3597 3500 
L 2059 -325 
z
" transform="scale(0.015625)"/>
       </defs>
       <use xlink:href="#DejaVuSans-20"/>
       <use xlink:href="#DejaVuSans-55" x="31.787109"/>
       <use xlink:href="#DejaVuSans-70" x="104.980469"/>
       <use xlink:href="#DejaVuSans-64" x="168.457031"/>
       <use xlink:href="#DejaVuSans-61" x="231.933594"/>
       <use xlink:href="#DejaVuSans-74" x="293.212891"/>
       <use xlink:href="#DejaVuSans-65" x="332.421875"/>
       <use xlink:href="#DejaVuSans-20" x="393.945312"/>
       <use xlink:href="#DejaVuSans-74" x="425.732422"/>
       <use xlink:href="#DejaVuSans-79" x="464.941406"/>
       <use xlink:href="#DejaVuSans-70" x="524.121094"/>
       <use xlink:href="#DejaVuSans-65" x="587.597656"/>
       <use xlink:href="#DejaVuSans-20" x="649.121094"/>
       <use xlink:href="#DejaVuSans-61" x="680.908203"/>
      </g>
     </g>
    </g>
    <g id="xtick_3">
     <g id="line2d_3">
      <g>
       <use xlink:href="#m9741641a0f" x="388.5" y="352.44" style="stroke: #000000; stroke-width: 0.8"/>
      </g>
     </g>
     <g id="text_3">
      <!-- DQTM  -->
      <g transform="translate(371.757031 367.038437) scale(0.1 -0.1)">
       <use xlink:href="#DejaVuSans-44"/>
       <use xlink:href="#DejaVuSans-51" x="77.001953"/>
       <use xlink:href="#DejaVuSans-54" x="155.712891"/>
       <use xlink:href="#DejaVuSans-4d" x="216.796875"/>
       <use xlink:href="#DejaVuSans-20" x="303.076172"/>
      </g>
      <!--  Update type b -->
      <g transform="translate(351.279688 378.23625) scale(0.1 -0.1)">
       <defs>
        <path id="DejaVuSans-62" d="M 3116 1747 
Q 3116 2381 2855 2742 
Q 2594 3103 2138 3103 
Q 1681 3103 1420 2742 
Q 1159 2381 1159 1747 
Q 1159 1113 1420 752 
Q 1681 391 2138 391 
Q 2594 391 2855 752 
Q 3116 1113 3116 1747 
z
M 1159 2969 
Q 1341 3281 1617 3432 
Q 1894 3584 2278 3584 
Q 2916 3584 3314 3078 
Q 3713 2572 3713 1747 
Q 3713 922 3314 415 
Q 2916 -91 2278 -91 
Q 1894 -91 1617 61 
Q 1341 213 1159 525 
L 1159 0 
L 581 0 
L 581 4863 
L 1159 4863 
L 1159 2969 
z
" transform="scale(0.015625)"/>
       </defs>
       <use xlink:href="#DejaVuSans-20"/>
       <use xlink:href="#DejaVuSans-55" x="31.787109"/>
       <use xlink:href="#DejaVuSans-70" x="104.980469"/>
       <use xlink:href="#DejaVuSans-64" x="168.457031"/>
       <use xlink:href="#DejaVuSans-61" x="231.933594"/>
       <use xlink:href="#DejaVuSans-74" x="293.212891"/>
       <use xlink:href="#DejaVuSans-65" x="332.421875"/>
       <use xlink:href="#DejaVuSans-20" x="393.945312"/>
       <use xlink:href="#DejaVuSans-74" x="425.732422"/>
       <use xlink:href="#DejaVuSans-79" x="464.941406"/>
       <use xlink:href="#DejaVuSans-70" x="524.121094"/>
       <use xlink:href="#DejaVuSans-65" x="587.597656"/>
       <use xlink:href="#DejaVuSans-20" x="649.121094"/>
       <use xlink:href="#DejaVuSans-62" x="680.908203"/>
      </g>
     </g>
    </g>
    <g id="text_4">
     <!-- Algorithm -->
     <g transform="translate(233.813281 391.914375) scale(0.1 -0.1)">
      <defs>
       <path id="DejaVuSans-41" d="M 2188 4044 
L 1331 1722 
L 3047 1722 
L 2188 4044 
z
M 1831 4666 
L 2547 4666 
L 4325 0 
L 3669 0 
L 3244 1197 
L 1141 1197 
L 716 0 
L 50 0 
L 1831 4666 
z
" transform="scale(0.015625)"/>
       <path id="DejaVuSans-6c" d="M 603 4863 
L 1178 4863 
L 1178 0 
L 603 0 
L 603 4863 
z
" transform="scale(0.015625)"/>
       <path id="DejaVuSans-67" d="M 2906 1791 
Q 2906 2416 2648 2759 
Q 2391 3103 1925 3103 
Q 1463 3103 1205 2759 
Q 947 2416 947 1791 
Q 947 1169 1205 825 
Q 1463 481 1925 481 
Q 2391 481 2648 825 
Q 2906 1169 2906 1791 
z
M 3481 434 
Q 3481 -459 3084 -895 
Q 2688 -1331 1869 -1331 
Q 1566 -1331 1297 -1286 
Q 1028 -1241 775 -1147 
L 775 -588 
Q 1028 -725 1275 -790 
Q 1522 -856 1778 -856 
Q 2344 -856 2625 -561 
Q 2906 -266 2906 331 
L 2906 616 
Q 2728 306 2450 153 
Q 2172 0 1784 0 
Q 1141 0 747 490 
Q 353 981 353 1791 
Q 353 2603 747 3093 
Q 1141 3584 1784 3584 
Q 2172 3584 2450 3431 
Q 2728 3278 2906 2969 
L 2906 3500 
L 3481 3500 
L 3481 434 
z
" transform="scale(0.015625)"/>
       <path id="DejaVuSans-6f" d="M 1959 3097 
Q 1497 3097 1228 2736 
Q 959 2375 959 1747 
Q 959 1119 1226 758 
Q 1494 397 1959 397 
Q 2419 397 2687 759 
Q 2956 1122 2956 1747 
Q 2956 2369 2687 2733 
Q 2419 3097 1959 3097 
z
M 1959 3584 
Q 2709 3584 3137 3096 
Q 3566 2609 3566 1747 
Q 3566 888 3137 398 
Q 2709 -91 1959 -91 
Q 1206 -91 779 398 
Q 353 888 353 1747 
Q 353 2609 779 3096 
Q 1206 3584 1959 3584 
z
" transform="scale(0.015625)"/>
       <path id="DejaVuSans-72" d="M 2631 2963 
Q 2534 3019 2420 3045 
Q 2306 3072 2169 3072 
Q 1681 3072 1420 2755 
Q 1159 2438 1159 1844 
L 1159 0 
L 581 0 
L 581 3500 
L 1159 3500 
L 1159 2956 
Q 1341 3275 1631 3429 
Q 1922 3584 2338 3584 
Q 2397 3584 2469 3576 
Q 2541 3569 2628 3553 
L 2631 2963 
z
" transform="scale(0.015625)"/>
       <path id="DejaVuSans-69" d="M 603 3500 
L 1178 3500 
L 1178 0 
L 603 0 
L 603 3500 
z
M 603 4863 
L 1178 4863 
L 1178 4134 
L 603 4134 
L 603 4863 
z
" transform="scale(0.015625)"/>
       <path id="DejaVuSans-68" d="M 3513 2113 
L 3513 0 
L 2938 0 
L 2938 2094 
Q 2938 2591 2744 2837 
Q 2550 3084 2163 3084 
Q 1697 3084 1428 2787 
Q 1159 2491 1159 1978 
L 1159 0 
L 581 0 
L 581 4863 
L 1159 4863 
L 1159 2956 
Q 1366 3272 1645 3428 
Q 1925 3584 2291 3584 
Q 2894 3584 3203 3211 
Q 3513 2838 3513 2113 
z
" transform="scale(0.015625)"/>
       <path id="DejaVuSans-6d" d="M 3328 2828 
Q 3544 3216 3844 3400 
Q 4144 3584 4550 3584 
Q 5097 3584 5394 3201 
Q 5691 2819 5691 2113 
L 5691 0 
L 5113 0 
L 5113 2094 
Q 5113 2597 4934 2840 
Q 4756 3084 4391 3084 
Q 3944 3084 3684 2787 
Q 3425 2491 3425 1978 
L 3425 0 
L 2847 0 
L 2847 2094 
Q 2847 2600 2669 2842 
Q 2491 3084 2119 3084 
Q 1678 3084 1418 2786 
Q 1159 2488 1159 1978 
L 1159 0 
L 581 0 
L 581 3500 
L 1159 3500 
L 1159 2956 
Q 1356 3278 1631 3431 
Q 1906 3584 2284 3584 
Q 2666 3584 2933 3390 
Q 3200 3197 3328 2828 
z
" transform="scale(0.015625)"/>
      </defs>
      <use xlink:href="#DejaVuSans-41"/>
      <use xlink:href="#DejaVuSans-6c" x="68.408203"/>
      <use xlink:href="#DejaVuSans-67" x="96.191406"/>
      <use xlink:href="#DejaVuSans-6f" x="159.667969"/>
      <use xlink:href="#DejaVuSans-72" x="220.849609"/>
      <use xlink:href="#DejaVuSans-69" x="261.962891"/>
      <use xlink:href="#DejaVuSans-74" x="289.746094"/>
      <use xlink:href="#DejaVuSans-68" x="328.955078"/>
      <use xlink:href="#DejaVuSans-6d" x="392.333984"/>
     </g>
    </g>
   </g>
   <g id="matplotlib.axis_2">
    <g id="ytick_1">
     <g id="line2d_4">
      <path d="M 63 351.374114 
L 453.6 351.374114 
" clip-path="url(#pb6ad34db6e)" style="fill: none; stroke-dasharray: 2.96,1.28; stroke-dashoffset: 0; stroke: #b0b0b0; stroke-width: 0.8"/>
     </g>
     <g id="line2d_5">
      <defs>
       <path id="m92581e9ffe" d="M 0 0 
L -3.5 0 
" style="stroke: #000000; stroke-width: 0.8"/>
      </defs>
      <g>
       <use xlink:href="#m92581e9ffe" x="63" y="351.374114" style="stroke: #000000; stroke-width: 0.8"/>
      </g>
     </g>
     <g id="text_5">
      <!-- −600 -->
      <g transform="translate(28.532812 355.173333) scale(0.1 -0.1)">
       <defs>
        <path id="DejaVuSans-2212" d="M 678 2272 
L 4684 2272 
L 4684 1741 
L 678 1741 
L 678 2272 
z
" transform="scale(0.015625)"/>
        <path id="DejaVuSans-36" d="M 2113 2584 
Q 1688 2584 1439 2293 
Q 1191 2003 1191 1497 
Q 1191 994 1439 701 
Q 1688 409 2113 409 
Q 2538 409 2786 701 
Q 3034 994 3034 1497 
Q 3034 2003 2786 2293 
Q 2538 2584 2113 2584 
z
M 3366 4563 
L 3366 3988 
Q 3128 4100 2886 4159 
Q 2644 4219 2406 4219 
Q 1781 4219 1451 3797 
Q 1122 3375 1075 2522 
Q 1259 2794 1537 2939 
Q 1816 3084 2150 3084 
Q 2853 3084 3261 2657 
Q 3669 2231 3669 1497 
Q 3669 778 3244 343 
Q 2819 -91 2113 -91 
Q 1303 -91 875 529 
Q 447 1150 447 2328 
Q 447 3434 972 4092 
Q 1497 4750 2381 4750 
Q 2619 4750 2861 4703 
Q 3103 4656 3366 4563 
z
" transform="scale(0.015625)"/>
        <path id="DejaVuSans-30" d="M 2034 4250 
Q 1547 4250 1301 3770 
Q 1056 3291 1056 2328 
Q 1056 1369 1301 889 
Q 1547 409 2034 409 
Q 2525 409 2770 889 
Q 3016 1369 3016 2328 
Q 3016 3291 2770 3770 
Q 2525 4250 2034 4250 
z
M 2034 4750 
Q 2819 4750 3233 4129 
Q 3647 3509 3647 2328 
Q 3647 1150 3233 529 
Q 2819 -91 2034 -91 
Q 1250 -91 836 529 
Q 422 1150 422 2328 
Q 422 3509 836 4129 
Q 1250 4750 2034 4750 
z
" transform="scale(0.015625)"/>
       </defs>
       <use xlink:href="#DejaVuSans-2212"/>
       <use xlink:href="#DejaVuSans-36" x="83.789062"/>
       <use xlink:href="#DejaVuSans-30" x="147.412109"/>
       <use xlink:href="#DejaVuSans-30" x="211.035156"/>
      </g>
     </g>
    </g>
    <g id="ytick_2">
     <g id="line2d_6">
      <path d="M 63 302.407779 
L 453.6 302.407779 
" clip-path="url(#pb6ad34db6e)" style="fill: none; stroke-dasharray: 2.96,1.28; stroke-dashoffset: 0; stroke: #b0b0b0; stroke-width: 0.8"/>
     </g>
     <g id="line2d_7">
      <g>
       <use xlink:href="#m92581e9ffe" x="63" y="302.407779" style="stroke: #000000; stroke-width: 0.8"/>
      </g>
     </g>
     <g id="text_6">
      <!-- −500 -->
      <g transform="translate(28.532812 306.206998) scale(0.1 -0.1)">
       <defs>
        <path id="DejaVuSans-35" d="M 691 4666 
L 3169 4666 
L 3169 4134 
L 1269 4134 
L 1269 2991 
Q 1406 3038 1543 3061 
Q 1681 3084 1819 3084 
Q 2600 3084 3056 2656 
Q 3513 2228 3513 1497 
Q 3513 744 3044 326 
Q 2575 -91 1722 -91 
Q 1428 -91 1123 -41 
Q 819 9 494 109 
L 494 744 
Q 775 591 1075 516 
Q 1375 441 1709 441 
Q 2250 441 2565 725 
Q 2881 1009 2881 1497 
Q 2881 1984 2565 2268 
Q 2250 2553 1709 2553 
Q 1456 2553 1204 2497 
Q 953 2441 691 2322 
L 691 4666 
z
" transform="scale(0.015625)"/>
       </defs>
       <use xlink:href="#DejaVuSans-2212"/>
       <use xlink:href="#DejaVuSans-35" x="83.789062"/>
       <use xlink:href="#DejaVuSans-30" x="147.412109"/>
       <use xlink:href="#DejaVuSans-30" x="211.035156"/>
      </g>
     </g>
    </g>
    <g id="ytick_3">
     <g id="line2d_8">
      <path d="M 63 253.441444 
L 453.6 253.441444 
" clip-path="url(#pb6ad34db6e)" style="fill: none; stroke-dasharray: 2.96,1.28; stroke-dashoffset: 0; stroke: #b0b0b0; stroke-width: 0.8"/>
     </g>
     <g id="line2d_9">
      <g>
       <use xlink:href="#m92581e9ffe" x="63" y="253.441444" style="stroke: #000000; stroke-width: 0.8"/>
      </g>
     </g>
     <g id="text_7">
      <!-- −400 -->
      <g transform="translate(28.532812 257.240663) scale(0.1 -0.1)">
       <defs>
        <path id="DejaVuSans-34" d="M 2419 4116 
L 825 1625 
L 2419 1625 
L 2419 4116 
z
M 2253 4666 
L 3047 4666 
L 3047 1625 
L 3713 1625 
L 3713 1100 
L 3047 1100 
L 3047 0 
L 2419 0 
L 2419 1100 
L 313 1100 
L 313 1709 
L 2253 4666 
z
" transform="scale(0.015625)"/>
       </defs>
       <use xlink:href="#DejaVuSans-2212"/>
       <use xlink:href="#DejaVuSans-34" x="83.789062"/>
       <use xlink:href="#DejaVuSans-30" x="147.412109"/>
       <use xlink:href="#DejaVuSans-30" x="211.035156"/>
      </g>
     </g>
    </g>
    <g id="ytick_4">
     <g id="line2d_10">
      <path d="M 63 204.47511 
L 453.6 204.47511 
" clip-path="url(#pb6ad34db6e)" style="fill: none; stroke-dasharray: 2.96,1.28; stroke-dashoffset: 0; stroke: #b0b0b0; stroke-width: 0.8"/>
     </g>
     <g id="line2d_11">
      <g>
       <use xlink:href="#m92581e9ffe" x="63" y="204.47511" style="stroke: #000000; stroke-width: 0.8"/>
      </g>
     </g>
     <g id="text_8">
      <!-- −300 -->
      <g transform="translate(28.532812 208.274328) scale(0.1 -0.1)">
       <defs>
        <path id="DejaVuSans-33" d="M 2597 2516 
Q 3050 2419 3304 2112 
Q 3559 1806 3559 1356 
Q 3559 666 3084 287 
Q 2609 -91 1734 -91 
Q 1441 -91 1130 -33 
Q 819 25 488 141 
L 488 750 
Q 750 597 1062 519 
Q 1375 441 1716 441 
Q 2309 441 2620 675 
Q 2931 909 2931 1356 
Q 2931 1769 2642 2001 
Q 2353 2234 1838 2234 
L 1294 2234 
L 1294 2753 
L 1863 2753 
Q 2328 2753 2575 2939 
Q 2822 3125 2822 3475 
Q 2822 3834 2567 4026 
Q 2313 4219 1838 4219 
Q 1578 4219 1281 4162 
Q 984 4106 628 3988 
L 628 4550 
Q 988 4650 1302 4700 
Q 1616 4750 1894 4750 
Q 2613 4750 3031 4423 
Q 3450 4097 3450 3541 
Q 3450 3153 3228 2886 
Q 3006 2619 2597 2516 
z
" transform="scale(0.015625)"/>
       </defs>
       <use xlink:href="#DejaVuSans-2212"/>
       <use xlink:href="#DejaVuSans-33" x="83.789062"/>
       <use xlink:href="#DejaVuSans-30" x="147.412109"/>
       <use xlink:href="#DejaVuSans-30" x="211.035156"/>
      </g>
     </g>
    </g>
    <g id="ytick_5">
     <g id="line2d_12">
      <path d="M 63 155.508775 
L 453.6 155.508775 
" clip-path="url(#pb6ad34db6e)" style="fill: none; stroke-dasharray: 2.96,1.28; stroke-dashoffset: 0; stroke: #b0b0b0; stroke-width: 0.8"/>
     </g>
     <g id="line2d_13">
      <g>
       <use xlink:href="#m92581e9ffe" x="63" y="155.508775" style="stroke: #000000; stroke-width: 0.8"/>
      </g>
     </g>
     <g id="text_9">
      <!-- −200 -->
      <g transform="translate(28.532812 159.307993) scale(0.1 -0.1)">
       <defs>
        <path id="DejaVuSans-32" d="M 1228 531 
L 3431 531 
L 3431 0 
L 469 0 
L 469 531 
Q 828 903 1448 1529 
Q 2069 2156 2228 2338 
Q 2531 2678 2651 2914 
Q 2772 3150 2772 3378 
Q 2772 3750 2511 3984 
Q 2250 4219 1831 4219 
Q 1534 4219 1204 4116 
Q 875 4013 500 3803 
L 500 4441 
Q 881 4594 1212 4672 
Q 1544 4750 1819 4750 
Q 2544 4750 2975 4387 
Q 3406 4025 3406 3419 
Q 3406 3131 3298 2873 
Q 3191 2616 2906 2266 
Q 2828 2175 2409 1742 
Q 1991 1309 1228 531 
z
" transform="scale(0.015625)"/>
       </defs>
       <use xlink:href="#DejaVuSans-2212"/>
       <use xlink:href="#DejaVuSans-32" x="83.789062"/>
       <use xlink:href="#DejaVuSans-30" x="147.412109"/>
       <use xlink:href="#DejaVuSans-30" x="211.035156"/>
      </g>
     </g>
    </g>
    <g id="ytick_6">
     <g id="line2d_14">
      <path d="M 63 106.54244 
L 453.6 106.54244 
" clip-path="url(#pb6ad34db6e)" style="fill: none; stroke-dasharray: 2.96,1.28; stroke-dashoffset: 0; stroke: #b0b0b0; stroke-width: 0.8"/>
     </g>
     <g id="line2d_15">
      <g>
       <use xlink:href="#m92581e9ffe" x="63" y="106.54244" style="stroke: #000000; stroke-width: 0.8"/>
      </g>
     </g>
     <g id="text_10">
      <!-- −100 -->
      <g transform="translate(28.532812 110.341659) scale(0.1 -0.1)">
       <defs>
        <path id="DejaVuSans-31" d="M 794 531 
L 1825 531 
L 1825 4091 
L 703 3866 
L 703 4441 
L 1819 4666 
L 2450 4666 
L 2450 531 
L 3481 531 
L 3481 0 
L 794 0 
L 794 531 
z
" transform="scale(0.015625)"/>
       </defs>
       <use xlink:href="#DejaVuSans-2212"/>
       <use xlink:href="#DejaVuSans-31" x="83.789062"/>
       <use xlink:href="#DejaVuSans-30" x="147.412109"/>
       <use xlink:href="#DejaVuSans-30" x="211.035156"/>
      </g>
     </g>
    </g>
    <g id="ytick_7">
     <g id="line2d_16">
      <path d="M 63 57.576105 
L 453.6 57.576105 
" clip-path="url(#pb6ad34db6e)" style="fill: none; stroke-dasharray: 2.96,1.28; stroke-dashoffset: 0; stroke: #b0b0b0; stroke-width: 0.8"/>
     </g>
     <g id="line2d_17">
      <g>
       <use xlink:href="#m92581e9ffe" x="63" y="57.576105" style="stroke: #000000; stroke-width: 0.8"/>
      </g>
     </g>
     <g id="text_11">
      <!-- 0 -->
      <g transform="translate(49.6375 61.375324) scale(0.1 -0.1)">
       <use xlink:href="#DejaVuSans-30"/>
      </g>
     </g>
    </g>
    <g id="text_12">
     <!-- Mean rewards -->
     <g transform="translate(22.453125 235.112031) rotate(-90) scale(0.1 -0.1)">
      <defs>
       <path id="DejaVuSans-6e" d="M 3513 2113 
L 3513 0 
L 2938 0 
L 2938 2094 
Q 2938 2591 2744 2837 
Q 2550 3084 2163 3084 
Q 1697 3084 1428 2787 
Q 1159 2491 1159 1978 
L 1159 0 
L 581 0 
L 581 3500 
L 1159 3500 
L 1159 2956 
Q 1366 3272 1645 3428 
Q 1925 3584 2291 3584 
Q 2894 3584 3203 3211 
Q 3513 2838 3513 2113 
z
" transform="scale(0.015625)"/>
       <path id="DejaVuSans-77" d="M 269 3500 
L 844 3500 
L 1563 769 
L 2278 3500 
L 2956 3500 
L 3675 769 
L 4391 3500 
L 4966 3500 
L 4050 0 
L 3372 0 
L 2619 2869 
L 1863 0 
L 1184 0 
L 269 3500 
z
" transform="scale(0.015625)"/>
       <path id="DejaVuSans-73" d="M 2834 3397 
L 2834 2853 
Q 2591 2978 2328 3040 
Q 2066 3103 1784 3103 
Q 1356 3103 1142 2972 
Q 928 2841 928 2578 
Q 928 2378 1081 2264 
Q 1234 2150 1697 2047 
L 1894 2003 
Q 2506 1872 2764 1633 
Q 3022 1394 3022 966 
Q 3022 478 2636 193 
Q 2250 -91 1575 -91 
Q 1294 -91 989 -36 
Q 684 19 347 128 
L 347 722 
Q 666 556 975 473 
Q 1284 391 1588 391 
Q 1994 391 2212 530 
Q 2431 669 2431 922 
Q 2431 1156 2273 1281 
Q 2116 1406 1581 1522 
L 1381 1569 
Q 847 1681 609 1914 
Q 372 2147 372 2553 
Q 372 3047 722 3315 
Q 1072 3584 1716 3584 
Q 2034 3584 2315 3537 
Q 2597 3491 2834 3397 
z
" transform="scale(0.015625)"/>
      </defs>
      <use xlink:href="#DejaVuSans-4d"/>
      <use xlink:href="#DejaVuSans-65" x="86.279297"/>
      <use xlink:href="#DejaVuSans-61" x="147.802734"/>
      <use xlink:href="#DejaVuSans-6e" x="209.082031"/>
      <use xlink:href="#DejaVuSans-20" x="272.460938"/>
      <use xlink:href="#DejaVuSans-72" x="304.248047"/>
      <use xlink:href="#DejaVuSans-65" x="343.111328"/>
      <use xlink:href="#DejaVuSans-77" x="404.634766"/>
      <use xlink:href="#DejaVuSans-61" x="486.421875"/>
      <use xlink:href="#DejaVuSans-72" x="547.701172"/>
      <use xlink:href="#DejaVuSans-64" x="587.064453"/>
      <use xlink:href="#DejaVuSans-73" x="650.541016"/>
     </g>
    </g>
   </g>
   <g id="line2d_18">
    <path d="M 128.1 302.407779 
L 128.1 102.561477 
" clip-path="url(#pb6ad34db6e)" style="fill: none; stroke: #3d3d3d; stroke-width: 1.5; stroke-linecap: square"/>
   </g>
   <g id="line2d_19">
    <path d="M 128.1 302.407779 
L 128.1 172.13407 
" clip-path="url(#pb6ad34db6e)" style="fill: none; stroke: #3d3d3d; stroke-width: 4.5; stroke-linecap: square"/>
   </g>
   <g id="line2d_20">
    <path d="M 258.3 302.407779 
L 258.3 102.801412 
" clip-path="url(#pb6ad34db6e)" style="fill: none; stroke: #3d3d3d; stroke-width: 1.5; stroke-linecap: square"/>
   </g>
   <g id="line2d_21">
    <path d="M 258.3 302.407779 
L 258.3 153.749659 
" clip-path="url(#pb6ad34db6e)" style="fill: none; stroke: #3d3d3d; stroke-width: 4.5; stroke-linecap: square"/>
   </g>
   <g id="line2d_22">
    <path d="M 388.5 302.407779 
L 388.5 97.552221 
" clip-path="url(#pb6ad34db6e)" style="fill: none; stroke: #3d3d3d; stroke-width: 1.5; stroke-linecap: square"/>
   </g>
   <g id="line2d_23">
    <path d="M 388.5 289.079143 
L 388.5 167.657322 
" clip-path="url(#pb6ad34db6e)" style="fill: none; stroke: #3d3d3d; stroke-width: 4.5; stroke-linecap: square"/>
   </g>
   <g id="patch_3">
    <path d="M 63 352.44 
L 63 47.52 
" style="fill: none; stroke: #000000; stroke-width: 0.8; stroke-linejoin: miter; stroke-linecap: square"/>
   </g>
   <g id="patch_4">
    <path d="M 453.6 352.44 
L 453.6 47.52 
" style="fill: none; stroke: #000000; stroke-width: 0.8; stroke-linejoin: miter; stroke-linecap: square"/>
   </g>
   <g id="patch_5">
    <path d="M 63 352.44 
L 453.6 352.44 
" style="fill: none; stroke: #000000; stroke-width: 0.8; stroke-linejoin: miter; stroke-linecap: square"/>
   </g>
   <g id="patch_6">
    <path d="M 63 47.52 
L 453.6 47.52 
" style="fill: none; stroke: #000000; stroke-width: 0.8; stroke-linejoin: miter; stroke-linecap: square"/>
   </g>
   <g id="PathCollection_1">
    <defs>
     <path id="m8dbc558063" d="M 0 1.5 
C 0.397805 1.5 0.77937 1.341951 1.06066 1.06066 
C 1.341951 0.77937 1.5 0.397805 1.5 0 
C 1.5 -0.397805 1.341951 -0.77937 1.06066 -1.06066 
C 0.77937 -1.341951 0.397805 -1.5 0 -1.5 
C -0.397805 -1.5 -0.77937 -1.341951 -1.06066 -1.06066 
C -1.341951 -0.77937 -1.5 -0.397805 -1.5 0 
C -1.5 0.397805 -1.341951 0.77937 -1.06066 1.06066 
C -0.77937 1.341951 -0.397805 1.5 0 1.5 
z
" style="stroke: #3d3d3d"/>
    </defs>
    <g clip-path="url(#pb6ad34db6e)">
     <use xlink:href="#m8dbc558063" x="128.1" y="268.811977" style="fill: #ffffff; stroke: #3d3d3d"/>
    </g>
   </g>
   <g id="PathCollection_2">
    <g clip-path="url(#pb6ad34db6e)">
     <use xlink:href="#m8dbc558063" x="258.3" y="270.662904" style="fill: #ffffff; stroke: #3d3d3d"/>
    </g>
   </g>
   <g id="PathCollection_3">
    <g clip-path="url(#pb6ad34db6e)">
     <use xlink:href="#m8dbc558063" x="388.5" y="238.02929" style="fill: #ffffff; stroke: #3d3d3d"/>
    </g>
   </g>
   <g id="text_13">
    <!-- Acrobot - Q-Tsetlin-Machine -->
    <g transform="translate(176.420625 41.52) scale(0.12 -0.12)">
     <defs>
      <path id="DejaVuSans-63" d="M 3122 3366 
L 3122 2828 
Q 2878 2963 2633 3030 
Q 2388 3097 2138 3097 
Q 1578 3097 1268 2742 
Q 959 2388 959 1747 
Q 959 1106 1268 751 
Q 1578 397 2138 397 
Q 2388 397 2633 464 
Q 2878 531 3122 666 
L 3122 134 
Q 2881 22 2623 -34 
Q 2366 -91 2075 -91 
Q 1284 -91 818 406 
Q 353 903 353 1747 
Q 353 2603 823 3093 
Q 1294 3584 2113 3584 
Q 2378 3584 2631 3529 
Q 2884 3475 3122 3366 
z
" transform="scale(0.015625)"/>
      <path id="DejaVuSans-2d" d="M 313 2009 
L 1997 2009 
L 1997 1497 
L 313 1497 
L 313 2009 
z
" transform="scale(0.015625)"/>
     </defs>
     <use xlink:href="#DejaVuSans-41"/>
     <use xlink:href="#DejaVuSans-63" x="66.658203"/>
     <use xlink:href="#DejaVuSans-72" x="121.638672"/>
     <use xlink:href="#DejaVuSans-6f" x="160.501953"/>
     <use xlink:href="#DejaVuSans-62" x="221.683594"/>
     <use xlink:href="#DejaVuSans-6f" x="285.160156"/>
     <use xlink:href="#DejaVuSans-74" x="346.341797"/>
     <use xlink:href="#DejaVuSans-20" x="385.550781"/>
     <use xlink:href="#DejaVuSans-2d" x="417.337891"/>
     <use xlink:href="#DejaVuSans-20" x="453.421875"/>
     <use xlink:href="#DejaVuSans-51" x="485.208984"/>
     <use xlink:href="#DejaVuSans-2d" x="566.669922"/>
     <use xlink:href="#DejaVuSans-54" x="593.628906"/>
     <use xlink:href="#DejaVuSans-73" x="638.212891"/>
     <use xlink:href="#DejaVuSans-65" x="690.3125"/>
     <use xlink:href="#DejaVuSans-74" x="751.835938"/>
     <use xlink:href="#DejaVuSans-6c" x="791.044922"/>
     <use xlink:href="#DejaVuSans-69" x="818.828125"/>
     <use xlink:href="#DejaVuSans-6e" x="846.611328"/>
     <use xlink:href="#DejaVuSans-2d" x="909.990234"/>
     <use xlink:href="#DejaVuSans-4d" x="946.074219"/>
     <use xlink:href="#DejaVuSans-61" x="1032.353516"/>
     <use xlink:href="#DejaVuSans-63" x="1093.632812"/>
     <use xlink:href="#DejaVuSans-68" x="1148.613281"/>
     <use xlink:href="#DejaVuSans-69" x="1211.992188"/>
     <use xlink:href="#DejaVuSans-6e" x="1239.775391"/>
     <use xlink:href="#DejaVuSans-65" x="1303.154297"/>
    </g>
   </g>
  </g>
 </g>
 <defs>
  <clipPath id="pb6ad34db6e">
   <rect x="63" y="47.52" width="390.6" height="304.92"/>
  </clipPath>
 </defs>
</svg>
